<svg width="90" height="90" viewBox="0 0 90 90" fill="none" xmlns="http://www.w3.org/2000/svg">
<path d="M45 0C56.9347 0 68.3807 4.74106 76.8198 13.1802C85.2589 21.6193 90 33.0653 90 45V45C90 56.9347 85.2589 68.3807 76.8198 76.8198C68.3807 85.2589 56.9347 90 45 90V90C39.0905 90 33.2389 88.836 27.7792 86.5746C22.3196 84.3131 17.3588 80.9984 13.1802 76.8198C4.74106 68.3807 0 56.9347 0 45V45C0 33.0653 4.74106 21.6193 13.1802 13.1802C21.6193 4.74106 33.0653 0 45 0V0Z" fill="#1155C1"/>
<path d="M36.9355 22V42.3667H53.0645V22H36.9355ZM38.5484 23.5667H51.4516V40.8H38.5484V23.5667ZM40.1774 25.1333V26.7H49.8387V25.1333H40.1774ZM40.1774 28.2667V29.8333H49.8387V28.2667H40.1774ZM40.1774 31.4V32.9667H49.8387V31.4H40.1774ZM45 34.5333C43.6726 34.5333 42.5806 35.594 42.5806 36.8833C42.5806 38.1711 43.6726 39.2333 45 39.2333C46.3274 39.2333 47.4194 38.1711 47.4194 36.8833C47.4194 35.594 46.3274 34.5333 45 34.5333ZM45 36.1C45.4548 36.1 45.8065 36.4415 45.8065 36.8833C45.8065 37.3251 45.4548 37.6667 45 37.6667C44.8937 37.6681 44.7881 37.6489 44.6896 37.61C44.5911 37.5712 44.5016 37.5136 44.4264 37.4405C44.3512 37.3675 44.2918 37.2805 44.2518 37.1848C44.2118 37.0891 44.192 36.9866 44.1935 36.8833C44.1935 36.4415 44.5452 36.1 45 36.1ZM44.1935 43.9333V47.0667H26.4516V51.7667H28.0645V48.6333H44.1935V51.7667H45.8065V48.6333H61.9355V51.7667H63.5484V47.0667H45.8065V43.9333H44.1935ZM20 53.3333V64.3H24.0323V67.4333H22.4194V69H32.0968V67.4333H30.4839V64.3H34.5161V53.3333H20ZM37.7419 53.3333V64.3H41.7742V67.4333H40.1613V69H49.8387V67.4333H48.2258V64.3H52.2581V53.3333H37.7419ZM55.4839 53.3333V64.3H59.5161V67.4333H57.9032V69H67.5806V67.4333H65.9677V64.3H70V53.3333H55.4839ZM21.6129 54.9H32.9032V62.7333H21.6129V54.9ZM39.3548 54.9H50.6452V62.7333H39.3548V54.9ZM57.0968 54.9H68.3871V62.7333H57.0968V54.9ZM25.6452 64.3H28.871V67.4333H25.6452V64.3ZM43.3871 64.3H46.6129V67.4333H43.3871V64.3ZM61.129 64.3H64.3548V67.4333H61.129V64.3Z" fill="white"/>
</svg>