<svg width="90" height="90" viewBox="0 0 90 90" fill="none" xmlns="http://www.w3.org/2000/svg">
<path d="M45 0C56.9347 0 68.3807 4.74106 76.8198 13.1802C85.2589 21.6193 90 33.0653 90 45V45C90 56.9347 85.2589 68.3807 76.8198 76.8198C68.3807 85.2589 56.9347 90 45 90V90C39.0905 90 33.2389 88.836 27.7792 86.5746C22.3196 84.3131 17.3588 80.9984 13.1802 76.8198C4.74106 68.3807 0 56.9347 0 45V45C0 33.0653 4.74106 21.6193 13.1802 13.1802C21.6193 4.74106 33.0653 0 45 0V0Z" fill="#1155C1"/>
<path d="M36.9482 53.0639H44.672C45.7608 53.047 45.7649 51.4688 44.672 51.451H36.9482C35.8585 51.468 35.8544 53.0462 36.9482 53.0639ZM46.3496 55.4833H36.9482C35.8594 55.4994 35.8544 57.0785 36.9482 57.0962H46.3496C47.4376 57.0801 47.4434 55.501 46.3496 55.4833ZM56.8806 42.5801C52.7595 42.5801 49.4059 45.8357 49.4059 49.8381C49.8162 59.4672 63.9466 59.4639 64.3552 49.8381C64.3552 45.8357 61.0016 42.5801 56.8806 42.5801ZM56.8806 55.4833C53.6748 55.4833 51.0669 52.951 51.0669 49.8381C51.3593 42.3591 62.4035 42.3615 62.6942 49.8381C62.6942 52.951 60.0864 55.4833 56.8806 55.4833Z" fill="white"/>
<path d="M64.875 57.0392C69.7048 51.6058 67.4786 42.6517 60.825 40.0025V23.3333C60.825 21.495 59.3303 20 57.4923 20H29.1648C27.3268 20 25.8321 21.495 25.8321 23.3333V25H23.3327C21.4947 25 20 26.495 20 28.3333V66.6667C20 68.505 21.4947 70 23.3327 70H51.6602C53.4981 70 54.9928 68.505 54.9928 66.6667V65H57.4923C59.1553 65.0025 60.6283 63.7167 60.7916 62.0583V60.01C61.8486 59.57 62.8291 58.9653 63.6969 58.2183L68.5676 63.0892C68.6444 63.1688 68.7363 63.2322 68.838 63.2759C68.9396 63.3196 69.049 63.3426 69.1596 63.3435C69.2702 63.3445 69.3799 63.3234 69.4823 63.2815C69.5847 63.2396 69.6777 63.1777 69.756 63.0995C69.8342 63.0213 69.8961 62.9282 69.938 62.8258C69.9798 62.7234 70.0009 62.6136 70 62.503C69.999 62.3923 69.976 62.283 69.9324 62.1813C69.8887 62.0797 69.8252 61.9877 69.7456 61.9108L64.875 57.0392V57.0392ZM53.3265 66.6667C53.3265 67.5858 52.5792 68.3333 51.6602 68.3333H23.3327C22.4137 68.3333 21.6663 67.5858 21.6663 66.6667V28.3333C21.6663 27.4142 22.4137 26.6667 23.3327 26.6667H25.8321V61.6667C25.8321 63.505 27.3268 65 29.1648 65H53.3265V66.6667ZM59.1253 61.9883C59.0501 62.3666 58.8464 62.7072 58.5488 62.9523C58.2512 63.1975 57.8779 63.3321 57.4923 63.3333H29.1648C28.2458 63.3333 27.4985 62.5858 27.4985 61.6667V23.3333C27.4985 22.4142 28.2458 21.6667 29.1648 21.6667H57.4923C58.4113 21.6667 59.1586 22.4142 59.1586 23.3333V39.4692C57.9787 39.1833 56.7588 39.1001 55.5511 39.2233C57.2549 31.5983 51.1403 24.075 43.3286 24.1667C36.4375 24.1667 30.8311 29.7742 30.8311 36.6667C30.7403 44.4783 38.2613 50.5967 45.8847 48.8917C45.0149 56.1333 52.0609 62.34 59.1253 60.5392V61.9883V61.9883ZM43.3286 37.5H54.1263C54.0694 38.2023 53.9438 38.8972 53.7514 39.575C51.9597 40.0786 50.3275 41.0345 49.0115 42.3508C47.6955 43.6671 46.7398 45.2996 46.2363 47.0917C39.4877 49.0967 32.3941 43.7083 32.4974 36.6667C32.4974 30.975 36.9132 26.3033 42.4954 25.875V36.6667C42.4954 36.8877 42.5832 37.0996 42.7394 37.2559C42.8957 37.4122 43.1076 37.5 43.3286 37.5ZM44.1617 35.8333V25.875C49.469 26.2833 53.7098 30.525 54.118 35.8333H44.1617ZM56.6592 59.1667C51.606 59.1667 47.4944 55.0542 47.4944 50C47.9976 37.8392 65.3224 37.8425 65.8239 50C65.8239 55.0542 61.7123 59.1667 56.6592 59.1667Z" fill="white"/>
</svg>