<svg width="90" height="90" viewBox="0 0 90 90" fill="none" xmlns="http://www.w3.org/2000/svg">
<path d="M45 0C56.9347 0 68.3807 4.74106 76.8198 13.1802C85.2589 21.6193 90 33.0653 90 45V45C90 56.9347 85.2589 68.3807 76.8198 76.8198C68.3807 85.2589 56.9347 90 45 90V90C39.0905 90 33.2389 88.836 27.7792 86.5746C22.3196 84.3131 17.3588 80.9984 13.1802 76.8198C4.74106 68.3807 0 56.9347 0 45V45C0 33.0653 4.74106 21.6193 13.1802 13.1802C21.6193 4.74106 33.0653 0 45 0V0Z" fill="#1155C1"/>
<path d="M45.6927 28.5379C45.5388 28.3072 45.3081 28.1533 45.0004 28.1533C44.6927 28.1533 44.4619 28.3072 44.3081 28.5379C38.6927 39.6149 39.1542 38.7687 39.1542 38.9226V68.0764C39.1542 69.5379 40.385 70.7687 41.8465 70.7687H48.1542C49.6158 70.7687 50.8465 69.5379 50.8465 68.0764C50.8465 36.9226 50.9235 38.7687 50.6927 38.461L45.6927 28.5379ZM45.0004 30.6149L46.6927 33.9226C45.6158 34.3072 44.385 34.3072 43.3081 33.9226L45.0004 30.6149ZM42.6158 35.3072C44.1542 35.8456 45.8465 35.8456 47.385 35.3072L48.8465 38.1533H41.1542L42.6158 35.3072ZM40.6927 39.6918H44.2311V61.9226H40.6927V39.6918ZM49.3081 68.0764C49.3081 68.6918 48.7696 69.2302 48.1542 69.2302H41.8465C41.2311 69.2302 40.6927 68.6918 40.6927 68.0764V63.461H49.3081V68.0764ZM49.3081 61.9226H45.7696V39.6918H49.3081V61.9226Z" fill="white"/>
<path d="M61.8462 26.3077C63.6154 26.3077 65 24.9231 65 23.1538C65 21.3846 63.6154 20 61.8462 20C60.3846 20 59.2308 21 58.8462 22.3846H48.1538V20.7692C48.1538 20.3077 47.8462 20 47.3846 20H42.6923C42.2308 20 41.9231 20.3077 41.9231 20.7692V22.3846H31.1538C30.7692 21 29.6154 20 28.0769 20C26.3846 20 25 21.3846 25 23.1538C25 24.8462 26.3846 26.3077 28.0769 26.3077C29.5385 26.3077 30.7692 25.3077 31.0769 23.9231H37.7692C32.5385 26.2308 28.6154 31.0769 27.5385 36.9231H25.7692C25.3077 36.9231 25 37.2308 25 37.6923V42.3846C25 42.8462 25.3077 43.1538 25.7692 43.1538H30.5385C31 43.1538 31.3077 42.8462 31.3077 42.3846V37.6923C31.3077 37.2308 31 36.9231 30.5385 36.9231H29.2308C30.4615 30.5385 35.5385 25.5385 41.9231 24.2308V25.5385C41.9231 26 42.2308 26.3077 42.6923 26.3077H47.3846C47.8462 26.3077 48.1538 26 48.1538 25.5385V24.2308C54.5385 25.4615 59.5385 30.5385 60.8462 36.9231H59.5385C59.0769 36.9231 58.7692 37.2308 58.7692 37.6923V42.3846C58.7692 42.8462 59.0769 43.1538 59.5385 43.1538H64.2308C64.6923 43.1538 65 42.8462 65 42.3846V37.6923C65 37.2308 64.6923 36.9231 64.2308 36.9231H62.3077C61.2308 31.0769 57.3846 26.3077 52.0769 23.9231H58.8462C59.2308 25.2308 60.3846 26.3077 61.8462 26.3077ZM61.9231 21.5385C62.7692 21.5385 63.4615 22.2308 63.4615 23.1538C63.4615 24 62.7692 24.7692 61.8462 24.7692C61 24.7692 60.2308 24.0769 60.2308 23.1538C60.3077 22.2308 61 21.5385 61.9231 21.5385ZM28.1538 24.7692C27.2308 24.7692 26.5385 24.0769 26.5385 23.1538C26.5385 22.2308 27.2308 21.5385 28.1538 21.5385C29 21.5385 29.7692 22.2308 29.7692 23.1538C29.6923 24 29 24.7692 28.1538 24.7692ZM29.6923 38.4615V41.6154H26.5385V38.4615H29.6923ZM46.6154 24.7692H43.4615V21.5385H46.6154V24.7692ZM63.4615 38.4615V41.6154H60.2308V38.4615H63.4615Z" fill="white"/>
</svg>