<svg width="90" height="90" viewBox="0 0 90 90" fill="none" xmlns="http://www.w3.org/2000/svg">
<path d="M45 0C56.9347 0 68.3807 4.74106 76.8198 13.1802C85.2589 21.6193 90 33.0653 90 45V45C90 56.9347 85.2589 68.3807 76.8198 76.8198C68.3807 85.2589 56.9347 90 45 90V90C39.0905 90 33.2389 88.836 27.7792 86.5746C22.3196 84.3131 17.3588 80.9984 13.1802 76.8198C4.74106 68.3807 0 56.9347 0 45V45C0 33.0653 4.74106 21.6193 13.1802 13.1802C21.6193 4.74106 33.0653 0 45 0V0Z" fill="#1155C1"/>
<path d="M33.6435 40.4954C33.3085 40.499 32.9882 40.6351 32.7514 40.8743C32.5146 41.1136 32.3802 41.4369 32.377 41.775V44.061C31.5779 44.2951 30.806 44.6151 30.0747 45.0156L28.4753 43.4046C28.2357 43.1682 27.9139 43.0358 27.5788 43.0358C27.2437 43.0358 26.9219 43.1682 26.6823 43.4046L23.8845 46.2281C23.6496 46.47 23.5177 46.795 23.5171 47.1337C23.5165 47.4724 23.6473 47.798 23.8814 48.0407L25.4839 49.6547C25.0853 50.3899 24.7661 51.1663 24.5317 51.9704H22.2712C21.9354 51.974 21.6144 52.1101 21.3769 52.3496C21.1393 52.589 21.004 52.9127 21 53.2515V57.2438C21 57.9407 21.5806 58.525 22.2696 58.525H24.5317C24.7655 59.3328 25.0829 60.1078 25.4824 60.8453L23.8845 62.4562C23.65 62.6985 23.5187 63.0239 23.5187 63.3626C23.5187 63.7013 23.65 64.0265 23.8845 64.2688L26.6823 67.0922C26.9219 67.3287 27.2437 67.4611 27.5788 67.4611C27.9139 67.4611 28.2357 67.3287 28.4753 67.0922L30.0778 65.4782C30.8101 65.8814 31.5765 66.2017 32.377 66.4392V68.7219C32.377 69.4172 32.9545 70 33.6435 70H37.6026C37.9373 69.9963 38.2574 69.8605 38.4941 69.6216C38.7309 69.3827 38.8655 69.0597 38.8691 68.7219V66.4359C39.6676 66.2017 40.439 65.8817 41.1699 65.4813L42.7677 67.0922C43.0078 67.3289 43.3301 67.4615 43.6658 67.4615C44.0014 67.4615 44.3237 67.3289 44.5638 67.0922L47.36 64.2688C47.5942 64.0263 47.7252 63.7012 47.7252 63.3626C47.7252 63.024 47.5942 62.6987 47.36 62.4562L45.7606 60.8422C46.1601 60.1047 46.479 59.3312 46.7128 58.5265H48.9749C49.3104 58.5225 49.631 58.3862 49.8682 58.1468C50.1055 57.9074 50.2405 57.5839 50.2445 57.2453V53.2531C50.2405 52.9145 50.1055 52.5911 49.8682 52.3517C49.631 52.1122 49.3104 51.976 48.9749 51.9719H46.7097C46.4781 51.1666 46.1614 50.3887 45.7653 49.6516L47.36 48.0407H47.3631C47.5971 47.7982 47.7279 47.4729 47.7273 47.1345C47.7267 46.796 47.5949 46.4712 47.36 46.2296L44.5638 43.4079C44.3237 43.1712 44.0014 43.0386 43.6658 43.0386C43.3301 43.0386 43.0078 43.1712 42.7677 43.4079L41.1668 45.0219C40.4372 44.6195 39.6669 44.2973 38.8691 44.061V41.7781C38.8659 41.4399 38.7314 41.1166 38.4947 40.8774C38.2579 40.6382 37.9376 40.5021 37.6026 40.4984H33.6435V40.4954ZM33.9253 42.0579H37.3208V44.5672C37.3204 44.7439 37.3795 44.9156 37.4883 45.0541C37.5972 45.1926 37.7493 45.2898 37.92 45.3297C38.9905 45.5824 40.013 46.0098 40.9469 46.5953C41.0955 46.689 41.2712 46.7291 41.4453 46.7089C41.6194 46.6888 41.7816 46.6097 41.9053 46.4844L43.6658 44.7077L46.0687 47.1345L44.3129 48.9079C44.1891 49.0322 44.1106 49.1951 44.09 49.3701C44.0695 49.5451 44.1082 49.7219 44.1999 49.8719C44.7798 50.8155 45.2029 51.8484 45.4525 52.9298C45.492 53.1014 45.5878 53.2545 45.7244 53.3643C45.861 53.474 46.0304 53.534 46.205 53.5344H48.6978V56.964H46.2065C46.0323 56.9642 45.8633 57.0238 45.7267 57.133C45.5902 57.2422 45.4941 57.3945 45.4541 57.5656C45.2022 58.6472 44.777 59.6801 44.1953 60.6235C44.1036 60.7735 44.0649 60.9505 44.0854 61.1255C44.1059 61.3005 44.1845 61.4634 44.3083 61.5876L46.0672 63.3641L43.6642 65.7891L41.9069 64.0172C41.7835 63.8925 41.622 63.8135 41.4486 63.7931C41.2752 63.7727 41.1 63.812 40.9516 63.9047C40.0149 64.4895 38.9898 64.9159 37.9169 65.1672C37.747 65.2073 37.5956 65.3042 37.4872 65.442C37.3787 65.5798 37.3195 65.7506 37.3192 65.9267V68.4392H33.9253V65.9297C33.9256 65.753 33.8666 65.5813 33.7577 65.4428C33.6489 65.3043 33.4967 65.2071 33.3261 65.1672C32.2546 64.9144 31.2311 64.487 30.2961 63.9016C30.1479 63.8085 29.973 63.7687 29.7996 63.7885C29.6261 63.8084 29.4645 63.8867 29.3408 64.0109L27.5772 65.7891L25.1727 63.3641L26.9331 61.5907C27.0567 61.4662 27.135 61.3032 27.1552 61.1281C27.1755 60.9531 27.1365 60.7765 27.0446 60.6267C26.4653 59.683 26.0427 58.6501 25.7936 57.5688C25.7541 57.3969 25.658 57.2436 25.5211 57.1338C25.3842 57.024 25.2144 56.964 25.0395 56.964H22.5483V53.5344H25.0365C25.2109 53.5345 25.3803 53.4752 25.5172 53.366C25.654 53.2568 25.7504 53.1042 25.7905 52.9328C26.0419 51.8513 26.4666 50.8184 27.0477 49.875C27.1396 49.7251 27.1786 49.5483 27.1583 49.3733C27.1381 49.1983 27.0598 49.0354 26.9362 48.911L25.1727 47.1345L27.5803 44.7077L29.3377 46.4812C29.461 46.6059 29.6225 46.6849 29.7959 46.7053C29.9693 46.7257 30.1445 46.6864 30.293 46.5937C31.2291 46.0085 32.2536 45.5816 33.3261 45.3297C33.4962 45.2899 33.648 45.1931 33.7568 45.0553C33.8655 44.9174 33.9249 44.7466 33.9253 44.5704V42.0579ZM35.6207 47.4812C33.5809 47.4845 31.6255 48.3037 30.1831 49.7594C28.7407 51.215 27.9289 53.1883 27.9256 55.2468C27.9256 59.5281 31.3783 63.0157 35.6207 63.0157C37.6614 63.0128 39.6177 62.1936 41.061 60.7377C42.5043 59.2818 43.3168 57.3079 43.3205 55.2485C43.3164 53.1894 42.5037 51.2159 41.0605 49.7603C39.6172 48.3047 37.6611 47.4856 35.6207 47.4828V47.4812ZM35.6207 49.0437C39.027 49.0437 41.7722 51.8124 41.7722 55.2468C41.7722 58.6843 39.027 61.4532 35.6207 61.4532C32.2144 61.4532 29.4739 58.6845 29.4739 55.2485C29.4725 54.4335 29.6305 53.6262 29.9389 52.8729C30.2473 52.1197 30.7 51.4353 31.2711 50.859C31.8422 50.2827 32.5203 49.8259 33.2668 49.5147C34.0132 49.2034 34.8131 49.0438 35.6207 49.0453V49.0437ZM57.6176 37.225L55.0784 37.9141C55.0732 37.9141 55.068 37.9141 55.0629 37.9141H55.0598C54.6774 38.0188 54.6495 38.4516 54.5457 38.8173L54.4977 38.786C54.5019 38.8144 54.5076 38.8425 54.5148 38.8703C54.4776 39.039 54.2361 39.1046 54.2825 39.2796L54.6309 40.589C54.2593 40.8296 53.9109 41.0985 53.5842 41.397L52.4292 40.725C52.1743 40.5778 51.8723 40.5377 51.5883 40.6134C51.3044 40.6892 51.0614 40.8747 50.9119 41.1297L49.5896 43.4359C49.4449 43.6928 49.406 43.9969 49.4813 44.2824C49.5566 44.568 49.7401 44.8122 49.9922 44.9626H49.9953L51.158 45.6391C51.0651 46.075 51.0079 46.5141 50.9877 46.9578L49.6871 47.3094C49.1096 47.4656 48.7504 48.0907 48.9052 48.6735L49.5896 51.2517C49.7444 51.8361 50.3668 52.1953 50.9444 52.039L52.2419 51.6875C52.4803 52.0625 52.7466 52.4141 53.0423 52.7438L52.3719 53.9124C52.2274 54.1695 52.1887 54.4737 52.2643 54.7593C52.3399 55.0449 52.5237 55.289 52.776 55.4391L55.066 56.775C55.5847 57.0781 56.2737 56.8906 56.5756 56.3687L57.246 55.1953C57.678 55.2891 58.1131 55.3469 58.5528 55.3672L58.8996 56.6781C59.0544 57.2609 59.6738 57.6234 60.2528 57.4687H60.2559L62.8075 56.775H62.8106C63.0911 56.6949 63.3295 56.5077 63.4752 56.2529C63.6209 55.9982 63.6625 55.6962 63.591 55.411L63.2395 54.1016C63.6109 53.862 63.962 53.5917 64.2893 53.2937L65.4412 53.9657C65.963 54.2782 66.6628 54.0812 66.9586 53.5624L68.2808 51.2547C68.4259 50.9979 68.465 50.6937 68.3897 50.4081C68.3144 50.1224 68.1307 49.8781 67.8783 49.7281L66.7139 49.0515C66.8068 48.6172 66.8657 48.1766 66.8873 47.7328L68.1848 47.3828H68.1879C68.4682 47.3017 68.7062 47.1135 68.8513 46.8583C68.9965 46.603 69.0373 46.3008 68.9652 46.0156L68.2808 43.4392C68.2014 43.1562 68.0158 42.9154 67.7634 42.7684C67.511 42.6213 67.2117 42.5795 66.9291 42.6516L65.6286 43.0031C65.3919 42.6296 65.1252 42.2763 64.8312 41.9469L65.5016 40.7719C65.644 40.5149 65.6814 40.2118 65.606 39.9273C65.5305 39.6429 65.3481 39.3994 65.0975 39.2485L62.8168 37.925C62.561 37.7768 62.2576 37.7362 61.9724 37.8123C61.6872 37.8883 61.4432 38.0749 61.2933 38.3313L60.6244 39.4999C60.1942 39.4059 59.7572 39.3475 59.3176 39.325L58.9708 38.0156C58.8918 37.732 58.706 37.4907 58.4532 37.3433C58.2004 37.1959 57.9006 37.154 57.6176 37.2265V37.225ZM57.5866 38.8501L57.9536 40.2218C57.9988 40.3917 58.0996 40.5413 58.2395 40.6462C58.3795 40.7512 58.5504 40.8053 58.7246 40.8C59.4318 40.7778 60.1378 40.8724 60.8149 41.0798C60.9822 41.1308 61.1616 41.1232 61.3241 41.0582C61.4866 40.9933 61.6225 40.8748 61.7098 40.722L62.4143 39.4923L63.9378 40.3798L63.2364 41.6077C63.1496 41.7599 63.1161 41.9373 63.1414 42.1111C63.1667 42.2849 63.2492 42.445 63.3758 42.5656C63.8914 43.0547 64.3249 43.6266 64.6578 44.2563C64.74 44.4119 64.8719 44.535 65.0321 44.6053C65.1924 44.6757 65.3715 44.6893 65.5403 44.6439L66.9028 44.275L67.3549 45.9859L65.9971 46.3563C65.8287 46.4019 65.6805 46.5036 65.5766 46.6449C65.4726 46.7861 65.4189 46.9586 65.4242 47.1345C65.4459 47.847 65.353 48.5594 65.1486 49.2438C65.0982 49.4122 65.1057 49.5929 65.1698 49.7565C65.2338 49.9201 65.3508 50.0572 65.5016 50.1454L66.7201 50.8563L65.8407 52.3923L64.6253 51.6845C64.4743 51.5964 64.2982 51.5624 64.1257 51.5879C63.9532 51.6135 63.7942 51.697 63.6746 51.825C63.1897 52.3455 62.6238 52.7825 61.9993 53.1188C61.8451 53.2017 61.7232 53.3349 61.6535 53.4966C61.5838 53.6583 61.5703 53.8389 61.6153 54.0093L61.9792 55.3843L60.2822 55.8406L59.9199 54.4703C59.8749 54.2996 59.7738 54.1493 59.6332 54.044C59.4926 53.9388 59.3208 53.8847 59.1458 53.8907C58.4387 53.9133 57.7327 53.8194 57.0556 53.6126C56.8883 53.5615 56.7088 53.569 56.5463 53.634C56.3838 53.6989 56.2479 53.8176 56.1606 53.9704L55.4562 55.2001L53.9326 54.3126L54.6371 53.0845C54.7236 52.9319 54.7565 52.7543 54.7307 52.5805C54.7049 52.4067 54.6217 52.2468 54.4946 52.1266C53.9799 51.6371 53.5479 51.066 53.2157 50.4359C53.1336 50.2803 53.0016 50.1574 52.8414 50.0871C52.6812 50.0167 52.5021 50.0031 52.3332 50.0485L50.9707 50.4172L50.517 48.7063L51.8749 48.3359C52.0433 48.2902 52.1914 48.1885 52.2954 48.0473C52.3994 47.9061 52.4531 47.7338 52.4478 47.5579C52.4262 46.8442 52.5204 46.1315 52.7265 45.4484C52.7769 45.2794 52.7692 45.0981 52.7045 44.9341C52.6399 44.7702 52.5221 44.633 52.3704 44.5452L51.1503 43.8344L52.0328 42.3001L53.2452 43.0079C53.3963 43.0964 53.5727 43.1305 53.7456 43.105C53.9184 43.0795 54.0777 42.9956 54.1974 42.8672C54.6823 42.3468 55.2482 41.9098 55.8727 41.5734C56.0269 41.4905 56.1487 41.3574 56.2185 41.1957C56.2882 41.034 56.3016 40.8533 56.2566 40.6829L55.8912 39.3078L57.5882 38.8516L57.5866 38.8501ZM59.6753 41.9484C58.9611 41.8468 58.2339 41.8914 57.5371 42.0796C56.1547 42.4568 54.9767 43.3713 54.2609 44.6229C53.545 45.8744 53.3496 47.3612 53.7174 48.7578C54.0915 50.1522 54.9975 51.3404 56.2373 52.0625C57.4771 52.7846 58.9498 52.9818 60.3333 52.611C61.7153 52.2339 62.8931 51.3196 63.6089 50.0684C64.3247 48.8171 64.5204 47.3308 64.153 45.9344C63.8758 44.9004 63.3036 43.9715 62.5075 43.2631C61.7114 42.5547 60.7265 42.0982 59.6753 41.9501V41.9484ZM57.9381 43.5906C58.4271 43.4566 58.9376 43.4214 59.4401 43.4872C59.9426 43.553 60.4273 43.7186 60.8662 43.9742C61.3051 44.2298 61.6896 44.5703 61.9975 44.9765C62.3055 45.3826 62.5308 45.8463 62.6604 46.3406C62.7928 46.834 62.8271 47.349 62.7614 47.8558C62.6957 48.3627 62.5314 48.8513 62.2778 49.2938C62.0243 49.7363 61.6865 50.1239 61.284 50.4342C60.8814 50.7444 60.4221 50.9712 59.9323 51.1016C59.4436 51.2354 58.9335 51.2703 58.4314 51.2044C57.9292 51.1384 57.445 50.9728 57.0065 50.7172C56.568 50.4616 56.1839 50.1209 55.8764 49.7149C55.5689 49.3089 55.344 48.8456 55.2146 48.3516C55.082 47.8584 55.0474 47.3437 55.1128 46.8369C55.1782 46.3302 55.3422 45.8415 55.5955 45.399C55.8488 44.9565 56.1863 44.5689 56.5886 44.2586C56.9909 43.9482 57.4501 43.7211 57.9396 43.5906H57.9381ZM43.4056 20C42.7863 20 42.2676 20.525 42.2676 21.1484V22.689C41.7737 22.8452 41.2968 23.0437 40.837 23.2827L39.7609 22.1953C39.5452 21.9846 39.2568 21.8668 38.9566 21.8668C38.6564 21.8668 38.3679 21.9846 38.1522 22.1953L36.0991 24.2641C35.6656 24.7016 35.6656 25.4485 36.1022 25.8875L37.1783 26.9766C36.9389 27.4371 36.7404 27.9181 36.5853 28.414H35.0618C34.7617 28.4184 34.4752 28.5407 34.263 28.7548C34.0509 28.969 33.9297 29.2581 33.9253 29.5609V32.4906C33.9253 33.1125 34.4455 33.639 35.0618 33.639H36.5884C36.7432 34.1359 36.9368 34.6171 37.1768 35.0796L36.0991 36.1657C35.6641 36.6032 35.6656 37.35 36.1022 37.789L38.1522 39.861C38.5873 40.3 39.3258 40.2985 39.7625 39.861L40.837 38.7749C41.2968 39.0171 41.7737 39.2156 42.2676 39.3735V40.911C42.2676 41.5313 42.7894 42.0579 43.4056 42.0579H46.3056C46.9249 42.0579 47.4421 41.5344 47.4421 40.911V39.3704C47.9375 39.2142 48.4129 39.0156 48.8727 38.7749L49.9488 39.861C50.164 40.0732 50.453 40.1921 50.7539 40.1921C51.0549 40.1921 51.3438 40.0732 51.559 39.861L53.609 37.7923H53.6121C53.8213 37.5743 53.938 37.2824 53.9374 36.979C53.9368 36.6755 53.819 36.3844 53.609 36.1672L52.5314 35.0829C52.771 34.6214 52.9695 34.1393 53.1244 33.6422H54.6479C55.2673 33.6422 55.7859 33.1173 55.7859 32.4938V29.5641C55.7819 29.261 55.6607 28.9712 55.4481 28.7569C55.2355 28.5427 54.9484 28.4209 54.6479 28.4172H53.1213C52.9679 27.9204 52.771 27.4383 52.5329 26.9766L53.609 25.8906H53.6121C53.8213 25.6726 53.938 25.3809 53.9374 25.0775C53.9368 24.774 53.819 24.4828 53.609 24.2656L51.5575 22.1984C51.3424 21.9866 51.0537 21.8681 50.7532 21.8681C50.4526 21.8681 50.164 21.9866 49.9488 22.1984L48.8696 23.2844C48.4123 23.0426 47.9346 22.8424 47.4421 22.6859V21.1484C47.4381 20.8454 47.3171 20.5558 47.1049 20.3413C46.8927 20.1269 46.6059 20.0044 46.3056 20H43.4041H43.4056ZM43.8159 21.5625H45.8938V23.1984C45.8938 23.3749 45.953 23.5462 46.0618 23.6843C46.1706 23.8225 46.3226 23.9195 46.493 23.9594C47.2563 24.1391 47.9855 24.4438 48.6513 24.8625C48.7996 24.956 48.9749 24.996 49.1486 24.9762C49.3224 24.9563 49.4844 24.8777 49.6082 24.7531L50.7539 23.5969L52.2233 25.0797L51.0806 26.2328C50.9575 26.3576 50.8798 26.5209 50.8602 26.6959C50.8405 26.8709 50.88 27.0474 50.9722 27.1969C51.3841 27.8704 51.6829 28.6048 51.861 29.3766C51.9009 29.5485 51.9973 29.7016 52.1345 29.8111C52.2717 29.9207 52.4416 29.9802 52.6165 29.9797H54.2376V32.0797H52.6165C52.4423 32.0799 52.2733 32.1394 52.1368 32.2485C52.0002 32.3577 51.9041 32.5102 51.8641 32.6813C51.6845 33.4516 51.3825 34.1874 50.9676 34.8608C50.8753 35.0103 50.8358 35.1869 50.8555 35.3619C50.8752 35.5369 50.9529 35.7002 51.076 35.825L52.2233 36.9813L50.7524 38.4656L49.6113 37.3093C49.4875 37.1847 49.3255 37.1062 49.1517 37.0863C48.978 37.0665 48.8027 37.1065 48.6544 37.2C47.9874 37.6173 47.2573 37.9219 46.493 38.1016C46.3229 38.1415 46.1711 38.2381 46.0623 38.3759C45.9535 38.5138 45.8941 38.6847 45.8938 38.8609V40.4969H43.8159V38.8609C43.8156 38.6849 43.7565 38.5141 43.648 38.3763C43.5395 38.2385 43.3881 38.1418 43.2183 38.1016C42.4544 37.9213 41.7248 37.6162 41.0584 37.1985C40.9103 37.1054 40.7353 37.0655 40.5619 37.0854C40.3885 37.1052 40.2268 37.1836 40.1031 37.3078L38.9573 38.464L37.4833 36.9813L38.6275 35.8281C38.7511 35.7036 38.8294 35.5407 38.8496 35.3657C38.8699 35.1907 38.8309 35.0139 38.739 34.8641C38.3256 34.1907 38.0237 33.4562 37.8472 32.6844C37.8077 32.5127 37.7119 32.3595 37.5753 32.2497C37.4387 32.1399 37.2693 32.0801 37.0947 32.0797H35.4736V29.9813H37.0916C37.2663 29.9818 37.4361 29.9226 37.5733 29.8134C37.7105 29.7042 37.807 29.5513 37.8472 29.3797C38.0252 28.6094 38.3272 27.8734 38.7421 27.2C38.834 27.0501 38.873 26.8733 38.8527 26.6983C38.8325 26.5233 38.7542 26.3605 38.6306 26.236L37.4849 25.0797L38.9558 23.5953L40.1 24.75C40.2237 24.8742 40.3854 24.9526 40.5588 24.9725C40.7322 24.9923 40.9072 24.9525 41.0553 24.8594C41.7229 24.4425 42.4535 24.1385 43.2183 23.9594C43.3884 23.9192 43.54 23.8221 43.6485 23.684C43.757 23.5458 43.816 23.3747 43.8159 23.1984V21.564V21.5625ZM44.8533 25.125C43.3025 25.1283 41.8162 25.7513 40.7196 26.858C39.623 27.9646 39.0055 29.4647 39.0022 31.0297C39.0051 32.5953 39.6226 34.0958 40.7196 35.2028C41.8166 36.3098 43.3035 36.933 44.8549 36.9359C46.4059 36.9326 47.8925 36.3092 48.9891 35.2023C50.0857 34.0953 50.7031 32.595 50.7059 31.0297C50.7031 29.4642 50.0855 27.9635 48.9886 26.8565C47.8916 25.7494 46.4046 25.1263 44.8533 25.1234V25.125ZM44.8533 26.6875C45.4189 26.6858 45.9792 26.797 46.5021 27.0146C47.0249 27.2322 47.5 27.552 47.9 27.9555C48.3 28.359 48.617 28.8384 48.8329 29.366C49.0487 29.8935 49.159 30.459 49.1576 31.0297C49.1576 33.436 47.2393 35.3734 44.8533 35.3734C44.2877 35.3748 43.7274 35.2635 43.2047 35.0457C42.6819 34.8279 42.2069 34.5079 41.8071 34.1042C41.4072 33.7005 41.0904 33.2212 40.8747 32.6935C40.6591 32.1659 40.5489 31.6005 40.5505 31.0297C40.5505 28.6235 42.4674 26.6859 44.8549 26.6859L44.8533 26.6875Z" fill="white"/>
</svg>