<svg id="Layer_1" data-name="Layer 1" xmlns="http://www.w3.org/2000/svg" viewBox="0 0 92 92"><defs><style>.cls-1{fill:#1155c1;}.cls-2{fill:#fff;}</style></defs><title>icon</title><path id="Rectangle_64" data-name="Rectangle 64" class="cls-1" d="M46,1h0A45,45,0,0,1,91,46h0A45,45,0,0,1,46,91h0A45,45,0,0,1,1,46H1A45,45,0,0,1,46,1Z"/><g id="Group_56" data-name="Group 56"><g id="Group_55" data-name="Group 55"><g id="Group_54" data-name="Group 54"><path id="Path_83" data-name="Path 83" class="cls-2" d="M26.81,39.2a.74.74,0,0,0,.46.2.78.78,0,0,0,.53-.2.8.8,0,0,0,0-1.05L26,36.38,27.8,34.6a.74.74,0,0,0-1.05-1.05l-2.3,2.3a.8.8,0,0,0,0,1Zm5.46,0a.8.8,0,0,0,1,0l2.3-2.3a.8.8,0,0,0,0-1l-2.3-2.3a.74.74,0,0,0-1,1.05L34,36.37l-1.77,1.78A.78.78,0,0,0,32.27,39.2Zm-3.35.2a.39.39,0,0,0,.26.07.73.73,0,0,0,.65-.47l1.78-4.6a.72.72,0,0,0-.43-.91.71.71,0,0,0-.89.38l-1.77,4.6A.79.79,0,0,0,28.92,39.4Zm-3.49,4.33h4.93a.72.72,0,0,0,.06-1.44h-5a.72.72,0,0,0-.75.69.73.73,0,0,0,.7.75Zm16.23-1.44h-8.6A.72.72,0,1,0,33,43.73h8.73a.72.72,0,0,0,.72-.72.83.83,0,0,0-.79-.72ZM25.43,46.82h2.1a.72.72,0,1,0,.06-1.44H25.43a.72.72,0,0,0-.75.69.73.73,0,0,0,.7.75ZM39,45.31a.73.73,0,0,0-.75.7.72.72,0,0,0,.7.74h1.3a.72.72,0,0,0,.75-.69.73.73,0,0,0-.7-.75H39Zm-2,.79a.72.72,0,0,0-.72-.72H30.1A.72.72,0,1,0,30,46.82h6.3a.72.72,0,0,0,.72-.72Zm4.8,0a.72.72,0,0,0,.72.72H45a.72.72,0,0,0,0-1.44H42.58a.65.65,0,0,0-.72.58.33.33,0,0,0,0,.14ZM37.92,37h2.5a.72.72,0,0,0,0-1.44h-2.5a.72.72,0,0,0-.72.72.69.69,0,0,0,.65.73h.07Zm5.32,0H58.61a.72.72,0,0,0,0-1.44H43.24a.72.72,0,0,0,0,1.44Zm13.07,1.78H50.07a.72.72,0,0,0,0,1.44h6.24a.72.72,0,0,0,0-1.44Zm-8.6,0H45.54a.72.72,0,0,0,0,1.44h2.17a.71.71,0,0,0,.69-.74.72.72,0,0,0-.69-.7Zm-9.79,1.44h5.25a.72.72,0,0,0,0-1.44H37.92a.74.74,0,0,0-.73.72.71.71,0,0,0,.66.73ZM36.34,48.4H31.41a.73.73,0,0,0-.75.7.72.72,0,0,0,.7.74h5a.72.72,0,0,0,.72-.72.68.68,0,0,0-.65-.72Zm-7.16,0H25.43a.73.73,0,0,0-.75.7.72.72,0,0,0,.7.74h3.86a.73.73,0,0,0,.73-.72A.79.79,0,0,0,29.18,48.4Zm16.1,0H38.84a.73.73,0,0,0-.75.7.71.71,0,0,0,.69.74h6.5a.72.72,0,0,0,.75-.69.73.73,0,0,0-.7-.75ZM54,44.65H50.47a.73.73,0,0,0-.75.7.71.71,0,0,0,.69.75H54a.73.73,0,0,0,.06-1.45h0Zm6,1.45h5a.73.73,0,0,0,.75-.7.71.71,0,0,0-.69-.74h-5a.72.72,0,0,0,0,1.44Zm-2.43-1.45H56.51a.73.73,0,1,0,0,1.45h1.17a.73.73,0,0,0,.06-1.45ZM54,52.6H50.47a.73.73,0,0,0-.06,1.45H54a.73.73,0,0,0,.75-.7.71.71,0,0,0-.69-.75Zm11,0h-5a.73.73,0,0,0-.75.7.74.74,0,0,0,.7.75h5a.73.73,0,0,0,.75-.7.71.71,0,0,0-.69-.75Zm-7.42,0H56.51a.73.73,0,1,0,0,1.45h1.17a.73.73,0,0,0,.75-.7.72.72,0,0,0-.69-.75Zm-7.16,9.46H54a.72.72,0,0,0,.06-1.44h-3.6a.72.72,0,1,0-.06,1.44Zm9.59,0h5a.72.72,0,0,0,.06-1.44h-5a.71.71,0,0,0-.75.69.73.73,0,0,0,.7.75Zm-3.61,0h1.11a.72.72,0,1,0,.06-1.44H56.45a.72.72,0,0,0,0,1.44ZM67.75,21H24.25A3.22,3.22,0,0,0,21,24.22V59.63a3.22,3.22,0,0,0,3.22,3.22H27a.71.71,0,0,0,.75-.69.73.73,0,0,0-.7-.75H24.25a1.76,1.76,0,0,1-1.77-1.76V56.87H49.09v1.25H48.5a1.46,1.46,0,0,0-1.45,1.45v1.84H31.41a.72.72,0,0,0-.75.69.73.73,0,0,0,.7.75h7.08v2.63H36.21a2.71,2.71,0,0,0-2.7,2.69v1.58A1.25,1.25,0,0,0,34.76,71H57.1a1.25,1.25,0,0,0,1.25-1.25h0V68.17a2.71,2.71,0,0,0-2.69-2.69H53.42v-.92H67a1.45,1.45,0,0,0,1.44-1.44v-.33a3.24,3.24,0,0,0,2.5-3.16L71,24.22A3.22,3.22,0,0,0,67.75,21ZM48.56,55.1V51.62H67V55.1Zm2-5V48.6H65v1.51Zm14.32,6.43v1.52H50.6V56.54ZM40,62.85h7.17v.27a1.45,1.45,0,0,0,1.44,1.44H52v.92H40Zm15.7,4.08a1.18,1.18,0,0,1,1.19,1.17h0v1.31H35V68.11a1.17,1.17,0,0,1,1.17-1.18H55.65ZM67,63.05H48.56V59.57H67Zm2.5-3.42a1.64,1.64,0,0,1-1,1.58V59.57A1.46,1.46,0,0,0,67,58.12h-.59V56.87h3l.06,2.76Zm0-4.27h-1V51.55A1.45,1.45,0,0,0,67,50.11h-.59V48.6H67a1.45,1.45,0,0,0,1.44-1.44V43.6A1.44,1.44,0,0,0,67,42.16H62.82a.72.72,0,0,0,0,1.44h4.07v3.48H48.49V43.6h9.73a.73.73,0,0,0,.75-.7.72.72,0,0,0-.7-.74H48.56a1.44,1.44,0,0,0-1.44,1.44v3.55a1.45,1.45,0,0,0,1.44,1.45h.59v1.51h-.59a1.46,1.46,0,0,0-1.44,1.45v3.81H22.48V30.92h47Zm0-25.88H22.54V24.22a1.76,1.76,0,0,1,1.76-1.77H67.68a1.75,1.75,0,0,1,1.77,1.75v5.28Zm-43-5.65A2.17,2.17,0,1,0,28.59,26a2.14,2.14,0,0,0-2.12-2.16Zm0,2.82a.66.66,0,1,1,.66-.66A.66.66,0,0,1,26.42,26.65Zm5.45-2.82A2.17,2.17,0,1,0,34,26a2.14,2.14,0,0,0-2.12-2.16Zm0,2.82a.66.66,0,1,1,.66-.66h0a.62.62,0,0,1-.58.66Zm5.46-2.82A2.17,2.17,0,1,0,39.49,26h0a2.13,2.13,0,0,0-2.12-2.16Zm0,2.82A.66.66,0,1,1,38,26h0a.62.62,0,0,1-.58.66Z"/></g></g></g></svg>