<svg width="90" height="90" viewBox="0 0 90 90" fill="none" xmlns="http://www.w3.org/2000/svg">
<path d="M45 0C56.9347 0 68.3807 4.74106 76.8198 13.1802C85.2589 21.6193 90 33.0653 90 45V45C90 56.9347 85.2589 68.3807 76.8198 76.8198C68.3807 85.2589 56.9347 90 45 90V90C39.0905 90 33.2389 88.836 27.7792 86.5746C22.3196 84.3131 17.3588 80.9984 13.1802 76.8198C4.74106 68.3807 0 56.9347 0 45V45C0 33.0653 4.74106 21.6193 13.1802 13.1802C21.6193 4.74106 33.0653 0 45 0V0Z" fill="#1155C1"/>
<path d="M42.4608 54.1097C41.5933 54.1375 40.7288 53.9938 39.9167 53.6868C39.1046 53.3797 38.3608 52.9154 37.7277 52.3203C36.4492 51.1183 35.6994 49.4566 35.6433 47.7007C35.5873 45.9447 36.2295 44.2383 37.4287 42.9569C38.628 41.6756 40.286 40.9241 42.038 40.8679C42.3884 40.8468 42.7328 40.9662 42.9955 41.1996C43.2581 41.433 43.4175 41.7615 43.4385 42.1126C43.4595 42.4638 43.3405 42.809 43.1076 43.0722C42.8747 43.3355 42.547 43.4952 42.1966 43.5163C41.4378 43.5689 40.7101 43.8393 40.1004 44.2951C39.4907 44.7508 39.0248 45.3728 38.7581 46.0868C38.4915 46.8007 38.4355 47.5765 38.5967 48.3215C38.758 49.0665 39.1297 49.7493 39.6676 50.2883C40.2054 50.8274 40.8866 51.1999 41.63 51.3615C42.3733 51.5232 43.1473 51.467 43.8597 51.1998C44.572 50.9325 45.1926 50.4655 45.6474 49.8545C46.1022 49.2434 46.3719 48.5141 46.4244 47.7536C46.4515 47.4047 46.6126 47.08 46.8739 46.8478C47.1351 46.6156 47.4761 46.4941 47.8249 46.5089C47.9985 46.519 48.1684 46.5634 48.3249 46.6395C48.4814 46.7156 48.6213 46.8219 48.7367 46.9523C48.8521 47.0827 48.9406 47.2346 48.9973 47.3994C49.054 47.5642 49.0776 47.7386 49.0669 47.9125C48.9593 49.594 48.2161 51.1712 46.9887 52.3226C45.7612 53.474 44.142 54.1131 42.4608 54.1097V54.1097ZM31.8647 40.8679C31.58 40.8609 31.3039 40.7687 31.0719 40.6031C30.7916 40.3924 30.6063 40.0787 30.5567 39.731C30.5072 39.3833 30.5975 39.0302 30.8077 38.7492C32.1655 36.9382 33.9255 35.4688 35.9481 34.4575C37.9707 33.4462 40.2005 32.9208 42.4608 32.9229C44.8091 32.9191 47.1226 33.4919 49.199 34.5913C49.5073 34.7599 49.7363 35.0443 49.8354 35.3821C49.9345 35.7198 49.8957 36.0832 49.7275 36.3922C49.5593 36.7013 49.2755 36.9307 48.9385 37.03C48.6015 37.1294 48.239 37.0905 47.9306 36.9219C45.4273 35.6104 42.5386 35.2393 39.7862 35.8755C37.0337 36.5117 34.599 38.1134 32.9216 40.3912C32.7919 40.5445 32.6298 40.6668 32.4469 40.7493C32.2641 40.8317 32.0651 40.8723 31.8647 40.8679V40.8679Z" fill="white"/>
<path d="M42.4611 62.0549C38.6087 62.0479 34.9162 60.511 32.1922 57.7809C29.4681 55.0508 27.9347 51.35 27.9277 47.489C27.9315 46.5108 28.0289 45.5353 28.2184 44.5758C28.2531 44.4019 28.3216 44.2366 28.4201 44.0892C28.5186 43.9419 28.645 43.8154 28.7922 43.717C28.9394 43.6187 29.1046 43.5503 29.2781 43.5159C29.4517 43.4815 29.6304 43.4817 29.8039 43.5165C29.9774 43.5512 30.1423 43.6199 30.2893 43.7186C30.4364 43.8173 30.5626 43.944 30.6607 44.0916C30.7588 44.2391 30.827 44.4046 30.8614 44.5786C30.8957 44.7525 30.8955 44.9316 30.8608 45.1055C30.5302 46.7372 30.5445 48.4203 30.9026 50.0462C31.2607 51.672 31.9549 53.2047 32.9402 54.5453C33.9255 55.8858 35.1802 57.0046 36.6233 57.8294C38.0664 58.6543 39.666 59.1669 41.3189 59.3342C42.9718 59.5016 44.6414 59.3199 46.2199 58.801C47.7985 58.282 49.2511 57.4373 50.484 56.3213C51.7169 55.2053 52.7028 53.8428 53.3781 52.3215C54.0534 50.8002 54.4032 49.154 54.4048 47.489C54.4076 45.5789 53.945 43.6971 53.0572 42.0069C52.9739 41.8539 52.9215 41.6859 52.903 41.5126C52.8845 41.3393 52.9002 41.164 52.9493 40.9968C52.9984 40.8295 53.0798 40.6736 53.189 40.538C53.2982 40.4023 53.433 40.2895 53.5857 40.206C53.7384 40.1226 53.906 40.07 54.0789 40.0515C54.2518 40.0329 54.4267 40.0487 54.5936 40.0979C54.7604 40.1471 54.916 40.2287 55.0514 40.3381C55.1867 40.4476 55.2993 40.5827 55.3825 40.7357C56.4612 42.8214 57.0145 45.1398 56.9944 47.489C56.9874 51.35 55.454 55.0508 52.73 57.7809C50.006 60.511 46.3134 62.0479 42.4611 62.0549V62.0549Z" fill="white"/>
<path d="M42.4606 69.9995C36.5037 69.9995 30.7907 67.6278 26.5786 63.4062C22.3664 59.1846 20 53.4588 20 47.4885C20 41.5183 22.3664 35.7925 26.5786 31.5709C30.7907 27.3493 36.5037 24.9776 42.4606 24.9776C44.9619 24.9732 47.4458 25.3941 49.8066 26.2223C49.9743 26.2778 50.1293 26.3664 50.2622 26.483C50.3952 26.5995 50.5035 26.7416 50.5808 26.9008C50.658 27.0601 50.7026 27.2332 50.7119 27.41C50.7212 27.5868 50.695 27.7637 50.6349 27.9302C50.5748 28.0966 50.4821 28.2494 50.3621 28.3793C50.2421 28.5092 50.0973 28.6137 49.9363 28.6866C49.7753 28.7594 49.6014 28.7992 49.4248 28.8035C49.2482 28.8079 49.0725 28.7767 48.9081 28.7117C46.8356 27.9873 44.6556 27.6201 42.4606 27.6259C38.541 27.6259 34.7093 28.7908 31.4502 30.9734C28.1911 33.1559 25.651 36.258 24.151 39.8874C22.651 43.5169 22.2585 47.5106 23.0232 51.3635C23.7879 55.2165 25.6754 58.7557 28.447 61.5335C31.2187 64.3114 34.7499 66.2031 38.5943 66.9695C42.4386 67.7359 46.4234 67.3426 50.0447 65.8392C53.666 64.3359 56.7612 61.79 58.9389 58.5236C61.1165 55.2572 62.2788 51.417 62.2788 47.4885C62.2846 45.2887 61.9183 43.1037 61.1954 41.0266C61.1307 40.8619 61.0995 40.6858 61.1038 40.5088C61.1081 40.3318 61.1478 40.1575 61.2205 39.9961C61.2932 39.8348 61.3975 39.6897 61.5271 39.5694C61.6568 39.4491 61.8091 39.3561 61.9753 39.2959C62.1414 39.2357 62.3179 39.2095 62.4943 39.2188C62.6707 39.2281 62.8434 39.2728 63.0023 39.3502C63.1612 39.4276 63.3029 39.5362 63.4192 39.6694C63.5355 39.8027 63.6239 39.958 63.6793 40.1261C64.5057 42.4922 64.9256 44.9817 64.9212 47.4885C64.9143 53.4567 62.5456 59.1784 58.335 63.3985C54.1243 67.6186 48.4154 69.9925 42.4606 69.9995Z" fill="white"/>
<path d="M42.4605 48.813C42.2872 48.8152 42.1154 48.7809 41.9561 48.7125C41.7968 48.6441 41.6536 48.543 41.5356 48.4158C41.4092 48.2969 41.3085 48.1533 41.2396 47.9939C41.1708 47.8345 41.1353 47.6626 41.1353 47.4889C41.1353 47.3151 41.1708 47.1433 41.2396 46.9838C41.3085 46.8244 41.4092 46.6808 41.5356 46.5619L63.7849 24.2628C63.9063 24.1411 64.0505 24.0446 64.2092 23.9787C64.3679 23.9128 64.5379 23.8789 64.7097 23.8789C64.8815 23.8789 65.0515 23.9128 65.2102 23.9787C65.3689 24.0446 65.5131 24.1411 65.6346 24.2628C65.756 24.3846 65.8523 24.5291 65.9181 24.6881C65.9838 24.8472 66.0176 25.0176 66.0176 25.1898C66.0176 25.3619 65.9838 25.5324 65.9181 25.6914C65.8523 25.8505 65.756 25.995 65.6346 26.1167L43.3853 48.4158C43.2674 48.543 43.1241 48.6441 42.9648 48.7125C42.8056 48.7809 42.6338 48.8152 42.4605 48.813V48.813Z" fill="white"/>
<path d="M61.1426 37.5842H60.8519L54.7743 36.1806C54.5328 36.1327 54.3109 36.0141 54.1369 35.8396C53.9628 35.6651 53.8444 35.4427 53.7966 35.2007L52.3962 29.1095C52.3449 28.8939 52.3495 28.6688 52.4096 28.4555C52.4698 28.2423 52.5834 28.048 52.7397 27.8912L60.2177 20.3964C60.3817 20.2261 60.589 20.1041 60.8173 20.0434C61.0455 19.9827 61.2859 19.9857 61.5125 20.0521C61.7401 20.1174 61.9461 20.2428 62.1088 20.4152C62.2715 20.5876 62.385 20.8006 62.4374 21.032L63.6529 26.3287L68.9377 27.5469C69.2882 27.6242 69.5936 27.8378 69.7869 28.1408C69.9801 28.4437 70.0454 28.8112 69.9683 29.1624C69.8912 29.5136 69.6781 29.8197 69.3758 30.0134C69.0735 30.2071 68.7068 30.2726 68.3564 30.1953L62.2788 28.6592C62.0277 28.6013 61.7979 28.4737 61.6157 28.291C61.4334 28.1084 61.3061 27.8781 61.2483 27.6264L60.4027 23.8657L55.1179 29.1624L56.1748 33.7176L60.7198 34.7769L64.1285 31.387C64.3755 31.1444 64.7075 31.0085 65.0534 31.0085C65.3992 31.0085 65.7313 31.1444 65.9782 31.387C66.1021 31.5101 66.2004 31.6566 66.2674 31.818C66.3345 31.9793 66.369 32.1524 66.369 32.3272C66.369 32.502 66.3345 32.6751 66.2674 32.8365C66.2004 32.9978 66.1021 33.1443 65.9782 33.2674L62.0674 37.1869C61.9495 37.3142 61.8062 37.4152 61.647 37.4836C61.4877 37.5521 61.3159 37.5863 61.1426 37.5842V37.5842Z" fill="white"/>
</svg>