<svg width="82" height="99" viewBox="0 0 82 99" fill="none" xmlns="http://www.w3.org/2000/svg">
<g filter="url(#filter0_d_1_38798)">
<path d="M34.6478 22.9309C32.925 22.9309 31.6839 24.1721 31.6839 25.8856C31.6839 27.5992 32.9343 28.8403 34.6478 28.8403C36.3706 28.8403 37.6118 27.5992 37.6118 25.8856C37.621 24.1813 36.3706 22.9309 34.6478 22.9309V22.9309ZM71.1322 31.8598C69.854 30.5816 68.1035 29.8684 66.2047 29.8684C65.8434 29.8684 65.5193 29.9055 65.2136 29.9611V29.8684H64.8801C64.3707 27.0341 63.1574 24.2647 61.3512 21.7731C59.6191 19.3927 57.3684 17.3365 54.7934 15.7619L57.1183 12.4459V12.1403C57.1183 12.0662 57.1553 11.9272 57.1831 11.7883C57.2387 11.566 57.3128 11.2789 57.3128 10.964C57.3128 9.25042 56.0624 8.00926 54.3488 8.00926C53.4411 8.00926 52.5427 8.53722 51.9499 9.43567L49.236 13.3351C46.4573 12.4274 43.4563 11.9458 40.5479 11.9458C37.6488 11.9458 34.6478 12.4274 31.8598 13.3351L29.1552 9.4264C28.5439 8.53722 27.664 8 26.747 8C25.0242 8 23.7831 9.24116 23.7831 10.9547C23.7831 11.529 24.0146 12.1403 24.4036 12.5663L26.4969 15.5581C23.8386 17.1327 21.5416 19.2075 19.8095 21.5879C18.0126 24.0795 16.8456 26.8489 16.4102 29.6832H15.9008V29.7758C15.6044 29.7202 15.2802 29.6832 14.9097 29.6832C13.0295 29.6832 11.2789 30.3779 9.99141 31.6561C8.7132 32.9343 8 34.6756 8 36.5651V58.3317C8 60.2119 8.69468 61.9532 9.98214 63.2314C11.2604 64.5097 13.0202 65.2229 14.9097 65.2229C15.271 65.2229 15.5951 65.1858 15.9008 65.1302V73.7905C15.9008 76.4951 18.1145 78.7089 20.8284 78.7089H23.7831V84.1088C23.7831 85.9891 24.4777 87.7304 25.7652 89.0086C27.0434 90.2868 28.8033 91 30.6928 91C32.573 91 34.3236 90.3053 35.6111 89.0271C36.8893 87.7489 37.6025 86.0076 37.6025 84.1181V78.7274H43.5119V84.1088C43.5119 85.9891 44.2066 87.7304 45.494 89.0086C46.7722 90.2868 48.5321 91 50.4216 91C52.3111 91 54.0525 90.3053 55.3399 88.9993C56.6181 87.7211 57.3313 85.9798 57.3313 84.0903V78.6996H60.286C62.9999 78.6996 65.2136 76.4951 65.2136 73.7813V65.3155C65.51 65.3711 65.8342 65.4081 66.2047 65.4081C68.0849 65.4081 69.8355 64.7134 71.123 63.4352C72.4012 62.157 73.1144 60.4157 73.1144 58.5262V36.7596C73.1051 34.8794 72.4104 33.1473 71.1322 31.8598V31.8598ZM15.9101 58.5354C15.9101 59.1653 15.5488 59.5172 14.919 59.5172C14.2891 59.5172 13.9279 59.1653 13.9279 58.5354V36.7596C13.9279 36.1298 14.2891 35.7778 14.919 35.7778C15.5488 35.7778 15.9101 36.1298 15.9101 36.7596V58.5354ZM28.053 21.7824C31.5264 19.2538 35.9538 17.8644 40.5572 17.8644C45.1606 17.8644 49.588 19.263 53.0614 21.8009C56.0624 23.9961 58.0816 26.8211 58.8689 29.9055H22.2455C23.0328 26.8119 25.0705 23.9776 28.053 21.7824V21.7824ZM31.6931 84.2755C31.6375 84.7942 31.2856 85.0814 30.7206 85.0814C30.0907 85.0814 29.7295 84.7294 29.7295 84.0995V78.7089H31.6931V84.2755ZM50.4309 85.0814C49.801 85.0814 49.4398 84.7294 49.4398 84.0995V78.7089H51.4034V84.2755C51.3478 84.7942 51.0051 85.0814 50.4309 85.0814ZM59.3042 72.7995H21.8287V35.7871H59.3042V72.7995ZM67.1957 58.5354C67.1957 59.1653 66.8345 59.5172 66.2047 59.5172C65.5748 59.5172 65.2136 59.1653 65.2136 58.5354V36.7596C65.2136 36.1298 65.5748 35.7778 66.2047 35.7778C66.8345 35.7778 67.1957 36.1298 67.1957 36.7596V58.5354ZM46.4851 22.9309C44.7623 22.9309 43.5211 24.1721 43.5211 25.8856C43.5211 27.5992 44.7716 28.8403 46.4851 28.8403C48.2079 28.8403 49.4583 27.5992 49.4583 25.8764C49.4491 24.1536 48.2172 22.9309 46.4851 22.9309V22.9309Z" fill="white"/>
</g>
<defs>
<filter id="filter0_d_1_38798" x="0" y="0" width="81.1143" height="99" filterUnits="userSpaceOnUse" color-interpolation-filters="sRGB">
<feFlood flood-opacity="0" result="BackgroundImageFix"/>
<feColorMatrix in="SourceAlpha" type="matrix" values="0 0 0 0 0 0 0 0 0 0 0 0 0 0 0 0 0 0 127 0" result="hardAlpha"/>
<feOffset/>
<feGaussianBlur stdDeviation="4"/>
<feComposite in2="hardAlpha" operator="out"/>
<feColorMatrix type="matrix" values="0 0 0 0 0 0 0 0 0 0 0 0 0 0 0 0 0 0 0.25 0"/>
<feBlend mode="normal" in2="BackgroundImageFix" result="effect1_dropShadow_1_38798"/>
<feBlend mode="normal" in="SourceGraphic" in2="effect1_dropShadow_1_38798" result="shape"/>
</filter>
</defs>
</svg>
