<svg width="447" height="371" viewBox="0 0 447 371" fill="none" xmlns="http://www.w3.org/2000/svg">
<circle cx="211.5" cy="182.5" r="101.5" fill="#D0D9FB"/>
<path d="M117.204 58.035H116.215V111.11H117.204V58.035Z" fill="#3F3D56"/>
<path d="M117.204 126.908H116.215V173.609H117.204V126.908Z" fill="#3F3D56"/>
<path d="M191.443 181.05H114.73V182.042H191.443V181.05Z" fill="#3F3D56"/>
<path d="M83.0545 194.442H82.0647V236.605H83.0545V194.442Z" fill="#3F3D56"/>
<path d="M207.281 244.045H90.9734V245.037H207.281V244.045Z" fill="#3F3D56"/>
<path d="M304.286 24.3053H303.297V74.404H304.286V24.3053Z" fill="#3F3D56"/>
<path d="M295.873 82.3403H223.102V83.3324H295.873V82.3403Z" fill="#3F3D56"/>
<path d="M215.695 90.2768H214.705V157.24H215.695V90.2768Z" fill="#3F3D56"/>
<path d="M116.71 127.479C115.046 127.479 113.419 126.984 112.035 126.058C110.652 125.131 109.573 123.814 108.936 122.273C108.3 120.732 108.133 119.037 108.458 117.401C108.782 115.766 109.584 114.263 110.76 113.084C111.937 111.904 113.436 111.101 115.068 110.776C116.7 110.451 118.392 110.618 119.929 111.256C121.467 111.894 122.781 112.975 123.705 114.362C124.63 115.748 125.123 117.379 125.123 119.046C125.123 121.283 124.237 123.428 122.659 125.009C121.081 126.59 118.941 127.479 116.71 127.479ZM116.71 111.606C115.241 111.606 113.806 112.042 112.585 112.86C111.364 113.677 110.413 114.839 109.851 116.199C109.289 117.559 109.142 119.055 109.428 120.498C109.715 121.941 110.422 123.267 111.46 124.307C112.498 125.348 113.821 126.057 115.261 126.344C116.701 126.631 118.194 126.484 119.551 125.92C120.907 125.357 122.067 124.404 122.882 123.18C123.698 121.956 124.134 120.518 124.134 119.046C124.134 117.073 123.351 115.181 121.959 113.785C120.567 112.39 118.679 111.606 116.71 111.606Z" fill="#3F3D56"/>
<path d="M83.0546 252.973C81.3905 252.973 79.7638 252.479 78.3802 251.552C76.9966 250.626 75.9182 249.309 75.2813 247.768C74.6445 246.227 74.4779 244.532 74.8025 242.896C75.1272 241.26 75.9285 239.758 77.1052 238.578C78.2819 237.399 79.7811 236.596 81.4132 236.271C83.0453 235.945 84.737 236.112 86.2744 236.75C87.8118 237.389 89.1259 238.469 90.0504 239.856C90.9749 241.243 91.4684 242.873 91.4684 244.541C91.4684 246.777 90.5819 248.922 89.004 250.504C87.4261 252.085 85.2861 252.973 83.0546 252.973ZM83.0546 237.101C81.5863 237.101 80.151 237.537 78.9301 238.355C77.7093 239.172 76.7577 240.334 76.1958 241.694C75.6339 243.053 75.4869 244.549 75.7734 245.993C76.0598 247.436 76.7669 248.762 77.8051 249.802C78.8434 250.843 80.1662 251.551 81.6063 251.838C83.0464 252.126 84.5391 251.978 85.8956 251.415C87.2521 250.852 88.4116 249.898 89.2274 248.675C90.0431 247.451 90.4785 246.013 90.4785 244.541C90.4785 242.568 89.6963 240.675 88.3041 239.28C86.9119 237.885 85.0236 237.101 83.0546 237.101Z" fill="#3F3D56"/>
<path d="M117.204 189.482C121.578 189.482 125.123 185.929 125.123 181.546C125.123 177.163 121.578 173.609 117.204 173.609C112.831 173.609 109.286 177.163 109.286 181.546C109.286 185.929 112.831 189.482 117.204 189.482Z" fill="#3E7CFF"/>
<path d="M403.767 118.55H321.609V119.542H403.767V118.55Z" fill="#3F3D56"/>
<path d="M314.185 126.908H313.195V173.609H314.185V126.908Z" fill="#3F3D56"/>
<path d="M305.276 181.05H239.451V182.042H305.276V181.05Z" fill="#3F3D56"/>
<path d="M423.564 185.514H355.264V186.506H423.564V185.514Z" fill="#3F3D56"/>
<path d="M348.335 194.442H347.345V236.605H348.335V194.442Z" fill="#3F3D56"/>
<path d="M339.426 244.045H223.119V245.037H339.426V244.045Z" fill="#3F3D56"/>
<path d="M215.695 205.851H214.705V236.605H215.695V205.851Z" fill="#3F3D56"/>
<path d="M313.69 126.983C318.063 126.983 321.609 123.43 321.609 119.046C321.609 114.663 318.063 111.11 313.69 111.11C309.317 111.11 305.771 114.663 305.771 119.046C305.771 123.43 309.317 126.983 313.69 126.983Z" fill="#3E7CFF"/>
<path d="M303.792 90.7728C302.128 90.7728 300.501 90.2782 299.117 89.3517C297.734 88.4251 296.655 87.1081 296.018 85.5673C295.382 84.0265 295.215 82.331 295.54 80.6953C295.864 79.0595 296.666 77.557 297.842 76.3777C299.019 75.1984 300.518 74.3953 302.15 74.0699C303.782 73.7446 305.474 73.9116 307.011 74.5498C308.549 75.188 309.863 76.2688 310.787 77.6555C311.712 79.0422 312.205 80.6726 312.205 82.3404C312.205 84.5768 311.319 86.7216 309.741 88.303C308.163 89.8844 306.023 90.7728 303.792 90.7728ZM303.792 74.9C302.323 74.9 300.888 75.3363 299.667 76.1539C298.446 76.9714 297.495 78.1335 296.933 79.493C296.371 80.8526 296.224 82.3486 296.51 83.7919C296.797 85.2352 297.504 86.5609 298.542 87.6015C299.58 88.6421 300.903 89.3507 302.343 89.6378C303.783 89.9249 305.276 89.7775 306.633 89.2144C307.989 88.6512 309.149 87.6976 309.964 86.474C310.78 85.2504 311.216 83.8119 311.216 82.3404C311.216 80.367 310.433 78.4745 309.041 77.0792C307.649 75.6839 305.761 74.9 303.792 74.9Z" fill="#3F3D56"/>
<path d="M215.2 90.7728C213.536 90.7728 211.909 90.2782 210.525 89.3517C209.142 88.4251 208.063 87.1081 207.427 85.5673C206.79 84.0265 206.623 82.331 206.948 80.6953C207.272 79.0595 208.074 77.557 209.25 76.3777C210.427 75.1984 211.926 74.3953 213.558 74.0699C215.191 73.7446 216.882 73.9116 218.42 74.5498C219.957 75.188 221.271 76.2688 222.196 77.6555C223.12 79.0422 223.614 80.6726 223.614 82.3404C223.614 84.5768 222.727 86.7216 221.149 88.303C219.571 89.8844 217.431 90.7728 215.2 90.7728ZM215.2 74.9C213.732 74.9 212.296 75.3363 211.075 76.1539C209.855 76.9714 208.903 78.1335 208.341 79.493C207.779 80.8526 207.632 82.3486 207.919 83.7919C208.205 85.2352 208.912 86.5609 209.95 87.6015C210.989 88.6421 212.311 89.3507 213.752 89.6378C215.192 89.9249 216.684 89.7775 218.041 89.2144C219.397 88.6512 220.557 87.6976 221.373 86.474C222.188 85.2504 222.624 83.8119 222.624 82.3404C222.624 80.367 221.842 78.4745 220.449 77.0792C219.057 75.6839 217.169 74.9 215.2 74.9Z" fill="#3F3D56"/>
<path d="M347.345 194.938C345.681 194.938 344.054 194.444 342.671 193.517C341.287 192.591 340.209 191.274 339.572 189.733C338.935 188.192 338.768 186.497 339.093 184.861C339.418 183.225 340.219 181.723 341.396 180.543C342.572 179.364 344.072 178.561 345.704 178.235C347.336 177.91 349.028 178.077 350.565 178.715C352.102 179.354 353.416 180.434 354.341 181.821C355.265 183.208 355.759 184.838 355.759 186.506C355.759 188.742 354.872 190.887 353.295 192.469C351.717 194.05 349.577 194.938 347.345 194.938ZM347.345 179.065C345.877 179.065 344.441 179.502 343.221 180.319C342 181.137 341.048 182.299 340.486 183.659C339.924 185.018 339.777 186.514 340.064 187.957C340.35 189.401 341.057 190.726 342.096 191.767C343.134 192.808 344.457 193.516 345.897 193.803C347.337 194.09 348.83 193.943 350.186 193.38C351.543 192.817 352.702 191.863 353.518 190.64C354.334 189.416 354.769 187.977 354.769 186.506C354.769 184.533 353.987 182.64 352.595 181.245C351.202 179.849 349.314 179.065 347.345 179.065Z" fill="#3F3D56"/>
<path d="M347.345 252.477C351.719 252.477 355.264 248.924 355.264 244.541C355.264 240.158 351.719 236.605 347.345 236.605C342.972 236.605 339.426 240.158 339.426 244.541C339.426 248.924 342.972 252.477 347.345 252.477Z" fill="#3E7CFF"/>
<path d="M215.2 252.973C213.536 252.973 211.909 252.479 210.525 251.552C209.142 250.626 208.063 249.309 207.427 247.768C206.79 246.227 206.623 244.532 206.948 242.896C207.272 241.26 208.074 239.758 209.25 238.578C210.427 237.399 211.926 236.596 213.558 236.271C215.191 235.945 216.882 236.112 218.42 236.75C219.957 237.389 221.271 238.469 222.196 239.856C223.12 241.243 223.614 242.873 223.614 244.541C223.614 246.777 222.727 248.922 221.149 250.504C219.571 252.085 217.431 252.973 215.2 252.973ZM215.2 237.101C213.732 237.101 212.296 237.537 211.075 238.355C209.855 239.172 208.903 240.334 208.341 241.694C207.779 243.053 207.632 244.549 207.919 245.993C208.205 247.436 208.912 248.762 209.95 249.802C210.989 250.843 212.311 251.551 213.752 251.838C215.192 252.126 216.684 251.978 218.041 251.415C219.397 250.852 220.557 249.898 221.373 248.675C222.188 247.451 222.624 246.013 222.624 244.541C222.624 242.568 221.842 240.675 220.449 239.28C219.057 237.885 217.169 237.101 215.2 237.101Z" fill="#3F3D56"/>
<path d="M313.195 189.978C311.531 189.978 309.904 189.484 308.521 188.557C307.137 187.63 306.059 186.313 305.422 184.773C304.785 183.232 304.619 181.536 304.943 179.901C305.268 178.265 306.069 176.762 307.246 175.583C308.423 174.404 309.922 173.601 311.554 173.275C313.186 172.95 314.878 173.117 316.415 173.755C317.952 174.393 319.266 175.474 320.191 176.861C321.115 178.248 321.609 179.878 321.609 181.546C321.609 183.782 320.723 185.927 319.145 187.508C317.567 189.09 315.427 189.978 313.195 189.978ZM313.195 174.105C311.727 174.105 310.292 174.542 309.071 175.359C307.85 176.177 306.898 177.339 306.336 178.698C305.775 180.058 305.628 181.554 305.914 182.997C306.2 184.441 306.907 185.766 307.946 186.807C308.984 187.847 310.307 188.556 311.747 188.843C313.187 189.13 314.68 188.983 316.036 188.42C317.393 187.857 318.552 186.903 319.368 185.679C320.184 184.456 320.619 183.017 320.619 181.546C320.619 179.572 319.837 177.68 318.445 176.285C317.052 174.889 315.164 174.105 313.195 174.105Z" fill="#3F3D56"/>
<path d="M83.0548 169.641C81.097 169.641 79.1833 170.223 77.5555 171.313C75.9276 172.403 74.6589 173.952 73.9097 175.765C73.1605 177.578 72.9645 179.573 73.3465 181.497C73.7284 183.421 74.6711 185.189 76.0555 186.576C77.4398 187.964 79.2035 188.909 81.1237 189.291C83.0438 189.674 85.0341 189.478 86.8428 188.727C88.6515 187.976 90.1974 186.704 91.2851 185.073C92.3728 183.442 92.9533 181.524 92.9533 179.562C92.9533 176.93 91.9104 174.407 90.0541 172.547C88.1977 170.686 85.68 169.641 83.0548 169.641ZM83.0548 172.617C83.6421 172.617 84.2162 172.792 84.7046 173.119C85.1929 173.446 85.5735 173.911 85.7983 174.454C86.023 174.998 86.0819 175.597 85.9673 176.174C85.8527 176.751 85.5699 177.282 85.1546 177.698C84.7393 178.114 84.2101 178.397 83.6341 178.512C83.0581 178.627 82.461 178.568 81.9184 178.343C81.3758 178.118 80.912 177.736 80.5857 177.247C80.2594 176.757 80.0852 176.182 80.0852 175.593C80.0852 174.804 80.3981 174.047 80.955 173.489C81.5119 172.931 82.2672 172.617 83.0548 172.617ZM83.0548 186.945C81.8819 186.94 80.7279 186.648 79.693 186.095C78.658 185.541 77.7734 184.744 77.1157 183.77C77.1652 181.786 81.0751 180.695 83.0548 180.695C85.0345 180.695 88.9444 181.786 88.9939 183.77C88.3355 184.743 87.4506 185.54 86.4159 186.093C85.3811 186.646 84.2275 186.939 83.0548 186.945Z" fill="#3F3D56"/>
<path d="M117.205 34.2258C115.247 34.2258 113.333 34.8076 111.705 35.8977C110.078 36.9878 108.809 38.5371 108.06 40.3499C107.31 42.1626 107.114 44.1573 107.496 46.0817C107.878 48.0061 108.821 49.7738 110.205 51.1612C111.59 52.5486 113.353 53.4934 115.274 53.8762C117.194 54.259 119.184 54.0625 120.993 53.3117C122.801 52.5608 124.347 51.2893 125.435 49.6578C126.523 48.0264 127.103 46.1084 127.103 44.1463C127.103 41.5152 126.06 38.9919 124.204 37.1314C122.348 35.271 119.83 34.2258 117.205 34.2258ZM117.205 37.2019C117.792 37.2019 118.366 37.3765 118.854 37.7035C119.343 38.0305 119.723 38.4953 119.948 39.0392C120.173 39.583 120.232 40.1814 120.117 40.7587C120.003 41.336 119.72 41.8663 119.304 42.2825C118.889 42.6988 118.36 42.9822 117.784 43.0971C117.208 43.2119 116.611 43.153 116.068 42.9277C115.526 42.7024 115.062 42.321 114.736 41.8315C114.409 41.3421 114.235 40.7667 114.235 40.1781C114.235 39.3888 114.548 38.6318 115.105 38.0736C115.662 37.5155 116.417 37.2019 117.205 37.2019ZM117.205 51.5296C116.032 51.5245 114.878 51.2327 113.843 50.6795C112.808 50.1263 111.923 49.3284 111.266 48.3551C111.315 46.371 115.225 45.2797 117.205 45.2797C119.184 45.2797 123.094 46.371 123.144 48.3551C122.485 49.3277 121.601 50.125 120.566 50.6781C119.531 51.2312 118.377 51.5235 117.205 51.5296Z" fill="#3F3D56"/>
<path d="M303.792 0C301.834 0 299.92 0.581828 298.292 1.67191C296.664 2.76199 295.396 4.31137 294.647 6.1241C293.897 7.93684 293.701 9.93153 294.083 11.8559C294.465 13.7803 295.408 15.548 296.792 16.9354C298.177 18.3228 299.94 19.2677 301.86 19.6504C303.781 20.0332 305.771 19.8368 307.58 19.0859C309.388 18.335 310.934 17.0635 312.022 15.4321C313.11 13.8007 313.69 11.8826 313.69 9.92053C313.69 7.28944 312.647 4.76612 310.791 2.90566C308.935 1.0452 306.417 0 303.792 0ZM303.792 2.97616C304.379 2.97616 304.953 3.1507 305.441 3.47773C305.93 3.80475 306.31 4.26957 306.535 4.81339C306.76 5.35721 306.819 5.95562 306.704 6.53294C306.59 7.11025 306.307 7.64055 305.891 8.05678C305.476 8.473 304.947 8.75645 304.371 8.87129C303.795 8.98612 303.198 8.92719 302.655 8.70193C302.113 8.47667 301.649 8.09521 301.322 7.60578C300.996 7.11635 300.822 6.54095 300.822 5.95232C300.822 5.16299 301.135 4.40599 301.692 3.84785C302.249 3.28971 303.004 2.97616 303.792 2.97616ZM303.792 17.3039C302.619 17.2987 301.465 17.0069 300.43 16.4537C299.395 15.9005 298.51 15.1027 297.852 14.1293C297.902 12.1452 301.812 11.0539 303.792 11.0539C305.771 11.0539 309.681 12.1452 309.731 14.1293C309.072 15.1019 308.187 15.8992 307.153 16.4523C306.118 17.0054 304.964 17.2977 303.792 17.3039Z" fill="#3F3D56"/>
<path d="M417.625 108.63C415.667 108.63 413.753 109.212 412.125 110.302C410.497 111.392 409.229 112.941 408.48 114.754C407.73 116.567 407.534 118.561 407.916 120.486C408.298 122.41 409.241 124.178 410.625 125.565C412.01 126.953 413.773 127.897 415.694 128.28C417.614 128.663 419.604 128.467 421.413 127.716C423.221 126.965 424.767 125.693 425.855 124.062C426.943 122.43 427.523 120.512 427.523 118.55C427.523 115.919 426.48 113.396 424.624 111.535C422.768 109.675 420.25 108.63 417.625 108.63ZM417.625 111.606C418.212 111.606 418.786 111.78 419.274 112.107C419.763 112.435 420.143 112.899 420.368 113.443C420.593 113.987 420.652 114.585 420.537 115.163C420.423 115.74 420.14 116.27 419.724 116.687C419.309 117.103 418.78 117.386 418.204 117.501C417.628 117.616 417.031 117.557 416.488 117.332C415.946 117.106 415.482 116.725 415.156 116.236C414.829 115.746 414.655 115.171 414.655 114.582C414.655 113.793 414.968 113.036 415.525 112.478C416.082 111.919 416.837 111.606 417.625 111.606ZM417.625 125.934C416.452 125.928 415.298 125.637 414.263 125.083C413.228 124.53 412.343 123.732 411.685 122.759C411.735 120.775 415.645 119.684 417.625 119.684C419.604 119.684 423.514 120.775 423.564 122.759C422.905 123.732 422.02 124.529 420.986 125.082C419.951 125.635 418.797 125.927 417.625 125.934Z" fill="#3F3D56"/>
<path d="M436.432 175.593C434.474 175.593 432.56 176.175 430.932 177.265C429.305 178.355 428.036 179.905 427.287 181.717C426.537 183.53 426.341 185.525 426.723 187.449C427.105 189.374 428.048 191.141 429.432 192.529C430.817 193.916 432.58 194.861 434.501 195.244C436.421 195.627 438.411 195.43 440.22 194.679C442.028 193.928 443.574 192.657 444.662 191.025C445.75 189.394 446.33 187.476 446.33 185.514C446.33 182.883 445.287 180.359 443.431 178.499C441.575 176.639 439.057 175.593 436.432 175.593ZM436.432 178.569C437.019 178.569 437.593 178.744 438.082 179.071C438.57 179.398 438.95 179.863 439.175 180.407C439.4 180.951 439.459 181.549 439.344 182.126C439.23 182.704 438.947 183.234 438.531 183.65C438.116 184.066 437.587 184.35 437.011 184.465C436.435 184.579 435.838 184.521 435.295 184.295C434.753 184.07 434.289 183.689 433.963 183.199C433.636 182.71 433.462 182.134 433.462 181.546C433.462 180.756 433.775 179.999 434.332 179.441C434.889 178.883 435.644 178.569 436.432 178.569ZM436.432 192.897C435.259 192.892 434.105 192.6 433.07 192.047C432.035 191.494 431.15 190.696 430.493 189.723C430.542 187.739 434.452 186.647 436.432 186.647C438.411 186.647 442.321 187.739 442.371 189.723C441.712 190.695 440.828 191.493 439.793 192.046C438.758 192.599 437.604 192.891 436.432 192.897Z" fill="#3F3D56"/>
<path d="M215.832 175.428L214.818 179.503C215.968 179.79 219.512 180.962 220.086 178.656C220.684 176.252 216.982 175.716 215.832 175.428Z" fill="#3E7CFF"/>
<path d="M214.307 181.559L213.188 186.052C214.569 186.396 218.827 187.766 219.456 185.232C220.114 182.589 215.687 181.905 214.307 181.559Z" fill="#3E7CFF"/>
<path d="M220.416 163.298C216.855 162.408 213.111 162.596 209.657 163.839C206.203 165.082 203.194 167.324 201.011 170.28C198.827 173.237 197.568 176.776 197.392 180.45C197.216 184.124 198.131 187.768 200.021 190.921C201.911 194.074 204.691 196.594 208.011 198.163C211.33 199.732 215.039 200.28 218.669 199.736C222.299 199.193 225.686 197.583 228.403 195.11C231.12 192.636 233.044 189.412 233.932 185.843C234.521 183.473 234.639 181.01 234.279 178.595C233.919 176.179 233.088 173.858 231.833 171.765C230.578 169.671 228.924 167.846 226.965 166.393C225.006 164.941 222.781 163.889 220.416 163.298ZM224.109 178.693C223.842 180.505 222.84 181.382 221.509 181.689C223.336 182.642 224.266 184.105 223.38 186.639C222.281 189.787 219.668 190.052 216.198 189.394L215.356 192.779L213.32 192.27L214.151 188.93C213.609 188.796 213.068 188.655 212.528 188.509L211.694 191.864L209.66 191.355L210.501 187.964C210.025 187.842 209.542 187.712 209.049 187.589L206.4 186.926L207.41 184.59C207.41 184.59 208.911 184.991 208.89 184.961C208.984 184.99 209.081 185.001 209.179 184.993C209.276 184.985 209.371 184.957 209.457 184.912C209.544 184.867 209.621 184.805 209.684 184.73C209.747 184.656 209.794 184.569 209.823 184.476L211.155 179.125C211.23 179.143 211.304 179.161 211.37 179.179C211.301 179.151 211.231 179.129 211.159 179.111L212.108 175.291C212.137 175.008 212.053 174.726 211.876 174.504C211.698 174.282 211.441 174.139 211.16 174.105C211.192 174.083 209.681 173.736 209.681 173.736L210.223 171.556L213.032 172.259L213.029 172.269C213.451 172.375 213.886 172.474 214.33 172.575L215.164 169.224L217.199 169.732L216.382 173.018C216.926 173.143 217.478 173.269 218.015 173.403L218.827 170.138L220.863 170.647L220.027 174C222.597 174.887 224.478 176.217 224.108 178.693H224.109Z" fill="#3E7CFF"/>
<path d="M75.2288 361.227C73.8208 374.062 -0.111726 372.983 0.000126789 361.227C1.40918 348.392 75.3407 349.469 75.2288 361.227Z" fill="#E6E6E6"/>
<path d="M54.3506 329.464L57.3479 335.972L62.8415 335.471L66.3382 323.957L60.844 320.954L54.3506 329.464Z" fill="#FFB8B8"/>
<path d="M35.4882 344.452L35.3699 348.987L43.8613 349.488V343.982L35.4882 344.452Z" fill="#FFB8B8"/>
<path d="M38.3664 261.881L40.3669 301.93L35.3682 345.483L50.353 347.485L59.8437 292.419L62.8405 254.872L38.3664 261.881Z" fill="#2F2E41"/>
<path d="M14.8901 247.363C14.8901 247.363 8.89609 286.912 21.3836 299.928C33.871 312.944 50.8539 335.972 50.8539 335.972L62.842 320.954L32.3724 288.414L38.3664 266.387L62.842 254.872L58.846 227.339L22.8817 226.838L14.8901 247.363Z" fill="#2F2E41"/>
<path d="M44.3607 155.751C50.4296 155.751 55.3495 150.82 55.3495 144.738C55.3495 138.655 50.4296 133.724 44.3607 133.724C38.2917 133.724 33.3718 138.655 33.3718 144.738C33.3718 150.82 38.2917 155.751 44.3607 155.751Z" fill="#FFB8B8"/>
<path d="M34.8703 147.241C34.8703 147.241 34.371 162.76 31.8736 164.763C29.3762 166.765 40.8644 175.275 40.8644 175.275L48.3586 163.261V152.249L34.8703 147.241Z" fill="#FFB8B8"/>
<path d="M39.8651 168.267L33.8008 159.09L30.3744 163.763L25.3796 177.778L29.3757 232.345L52.852 232.845L55.8493 170.269L48.3566 161.258L39.8651 168.267Z" fill="#D0CDE1"/>
<path d="M65.34 171.773L69.336 171.273C69.336 171.273 70.3348 171.773 70.8347 175.278C71.3345 178.782 77.3281 209.818 77.3281 209.818L69.336 247.864L60.3452 235.849L65.8389 214.823L60.3452 193.798L65.34 171.773Z" fill="#3E7CFF"/>
<path d="M14.3908 171.27H11.3936L3.90137 211.82L10.8942 243.359L17.887 231.844L15.889 219.329L16.8882 208.317L20.3849 201.808L14.3908 171.27Z" fill="#3E7CFF"/>
<path d="M58.8461 333.969C58.8461 333.969 55.8494 332.968 55.8494 334.97C55.8494 336.972 57.8474 342.98 57.8474 342.98C57.8474 342.98 54.8506 361.503 59.346 360.502C63.8414 359.501 67.3381 350.99 67.8375 348.487C68.3368 345.984 70.8342 332.968 70.8342 332.968C70.8342 332.968 74.8303 323.456 72.3329 322.955C69.8355 322.455 62.8422 320.452 62.8422 320.452C62.8422 320.452 66.8382 332.968 58.8461 333.969Z" fill="#2F2E41"/>
<path d="M44.3606 349.488C44.3606 349.488 36.3686 344.482 34.8699 348.487C33.8761 351.408 33.2061 354.43 32.8719 357.498C32.8719 357.498 30.8739 364.006 38.866 363.004C46.858 362.002 45.8588 362.003 46.3586 358.999C46.8585 355.995 44.3606 349.488 44.3606 349.488Z" fill="#2F2E41"/>
<path d="M37.8662 144.74L39.8642 144.239C39.8642 144.239 41.3629 135.729 44.859 136.73C48.3552 137.731 57.3465 138.732 57.3465 134.727C57.3465 130.722 48.8551 127.218 43.8598 127.719C38.8645 128.22 30.3731 129.721 30.8729 137.231C31.3728 144.74 34.5958 152.045 34.5958 152.045L34.8561 147.592L37.8662 144.74Z" fill="#2F2E41"/>
<path d="M48.3567 174.274L39.8652 168.267L48.3567 161.258L51.3049 164.805L48.3567 174.274Z" fill="#D0CDE1"/>
<path d="M32.3725 173.773L39.8652 168.268L33.8712 159.256L30.3745 163.763L32.3725 173.773Z" fill="#D0CDE1"/>
<path d="M68.836 171.27L52.8499 164.763L49.1038 162.009L37.866 211.82L30.3748 189.293L32.6228 160.507L11.8933 171.271L18.8861 205.313L19.8849 218.328L16.8881 228.841C16.8881 228.841 6.39862 236.351 9.89527 244.36C13.3919 252.37 17.388 252.871 17.388 252.871C17.388 252.871 34.3708 236.849 35.3701 232.846C36.3693 228.843 37.8675 221.834 37.8675 221.834C37.8675 221.834 46.3589 253.874 56.349 253.373C66.3391 252.872 66.3391 242.361 66.3391 242.361L63.8417 231.349L59.8457 219.835L61.8437 200.812L68.836 171.27Z" fill="#3E7CFF"/>
</svg>
