<svg width="95" height="79" viewBox="0 0 95 79" fill="none" xmlns="http://www.w3.org/2000/svg">
<g filter="url(#filter0_d_1_38806)">
<path d="M88.9832 25.2896C88.6151 20.0441 86.2684 15.1341 82.4178 11.5531C78.5672 7.97201 73.5002 5.98716 68.2418 6.00006H26.759C21.4399 5.99287 16.3213 8.02945 12.4611 11.6889C8.60089 15.3484 6.29413 20.351 6.01755 25.6629C5.99415 26.0221 5.99415 26.3823 6.01755 26.7415V57.8536C6.00654 59.7633 6.37457 61.6563 7.10032 63.4228C7.82607 65.1893 8.89511 66.7942 10.2455 68.1446C11.5959 69.495 13.2009 70.5641 14.9674 71.2898C16.7339 72.0156 18.6268 72.3836 20.5365 72.3726C26.4686 72.3726 30.1606 67.9754 33.7696 63.7027C35.097 62.1678 36.4659 60.55 37.9178 59.1396C39.844 57.7286 42.0078 56.6749 44.3062 56.0284C46.4284 55.7795 48.5724 55.7795 50.6946 56.0284C52.993 56.6749 55.1568 57.7286 57.0829 59.1396C58.5348 60.55 59.9037 62.1678 61.2312 63.7027C64.8402 67.851 68.5322 72.3726 74.4642 72.3726C76.374 72.3836 78.2669 72.0156 80.0334 71.2898C81.7999 70.5641 83.4048 69.495 84.7552 68.1446C86.1056 66.7942 87.1747 65.1893 87.9004 63.4228C88.6262 61.6563 88.9942 59.7633 88.9832 57.8536V26.7415C89.0056 26.3823 89.0056 26.0221 88.9832 25.6629V25.2896ZM80.6866 57.8536C80.6866 59.5039 80.0311 61.0866 78.8641 62.2535C77.6972 63.4205 76.1145 64.076 74.4642 64.076C72.3901 64.076 70.3159 61.4211 67.5781 58.3514C66.1677 56.7336 64.5913 54.8254 62.8075 53.1246C59.8039 50.7047 56.3282 48.9386 52.6028 47.9392C49.2284 47.3306 45.7724 47.3306 42.398 47.9392C38.6726 48.9386 35.1969 50.7047 32.1932 53.1246C30.4095 54.8254 28.8331 56.7336 27.4227 58.3514C24.8508 61.4211 22.6107 64.076 20.5365 64.076C18.8862 64.076 17.3035 63.4205 16.1366 62.2535C14.9697 61.0866 14.3141 59.5039 14.3141 57.8536V26.7415C14.3344 26.5346 14.3344 26.3262 14.3141 26.1192C14.4739 22.9277 15.8552 19.9199 18.172 17.719C20.4888 15.518 23.5634 14.2926 26.759 14.2966H68.2418C71.3507 14.2831 74.352 15.4336 76.6552 17.5218C78.9583 19.61 80.3965 22.4846 80.6866 25.58V26.0778C80.666 26.2985 80.666 26.5207 80.6866 26.7415V57.8536Z" fill="white"/>
<path d="M64.0946 43.3347C66.3856 43.3347 68.2429 41.4774 68.2429 39.1864C68.2429 36.8953 66.3856 35.0381 64.0946 35.0381C61.8035 35.0381 59.9463 36.8953 59.9463 39.1864C59.9463 41.4774 61.8035 43.3347 64.0946 43.3347Z" fill="white"/>
<path d="M72.3914 35.0378C74.6825 35.0378 76.5397 33.1805 76.5397 30.8895C76.5397 28.5985 74.6825 26.7412 72.3914 26.7412C70.1004 26.7412 68.2432 28.5985 68.2432 30.8895C68.2432 33.1805 70.1004 35.0378 72.3914 35.0378Z" fill="white"/>
<path d="M64.0946 26.7414C66.3856 26.7414 68.2429 24.8841 68.2429 22.5931C68.2429 20.3021 66.3856 18.4448 64.0946 18.4448C61.8035 18.4448 59.9463 20.3021 59.9463 22.5931C59.9463 24.8841 61.8035 26.7414 64.0946 26.7414Z" fill="white"/>
<path d="M55.7977 35.0378C58.0887 35.0378 59.946 33.1805 59.946 30.8895C59.946 28.5985 58.0887 26.7412 55.7977 26.7412C53.5067 26.7412 51.6494 28.5985 51.6494 30.8895C51.6494 33.1805 53.5067 35.0378 55.7977 35.0378Z" fill="white"/>
<path d="M30.9079 39.1864C35.49 39.1864 39.2045 35.4719 39.2045 30.8898C39.2045 26.3078 35.49 22.5933 30.9079 22.5933C26.3258 22.5933 22.6113 26.3078 22.6113 30.8898C22.6113 35.4719 26.3258 39.1864 30.9079 39.1864Z" fill="white"/>
</g>
<defs>
<filter id="filter0_d_1_38806" x="0" y="0" width="95" height="78.373" filterUnits="userSpaceOnUse" color-interpolation-filters="sRGB">
<feFlood flood-opacity="0" result="BackgroundImageFix"/>
<feColorMatrix in="SourceAlpha" type="matrix" values="0 0 0 0 0 0 0 0 0 0 0 0 0 0 0 0 0 0 127 0" result="hardAlpha"/>
<feOffset/>
<feGaussianBlur stdDeviation="3"/>
<feComposite in2="hardAlpha" operator="out"/>
<feColorMatrix type="matrix" values="0 0 0 0 0 0 0 0 0 0 0 0 0 0 0 0 0 0 0.25 0"/>
<feBlend mode="normal" in2="BackgroundImageFix" result="effect1_dropShadow_1_38806"/>
<feBlend mode="normal" in="SourceGraphic" in2="effect1_dropShadow_1_38806" result="shape"/>
</filter>
</defs>
</svg>
