<svg width="99" height="99" viewBox="0 0 99 99" fill="none" xmlns="http://www.w3.org/2000/svg">
<g filter="url(#filter0_d_1_38751)">
<path fill-rule="evenodd" clip-rule="evenodd" d="M54.978 90.6323C77.6944 87.6067 93.6574 66.739 90.6324 44.0224C90.2651 41.253 89.6203 38.5276 88.7075 35.8874C86.9725 37.3798 84.9134 38.4473 82.6937 39.0049C83.2991 40.9303 83.737 42.9044 84.0026 44.9052C86.5406 63.9606 73.1503 81.465 54.095 84.0025C35.0396 86.5405 17.5352 73.1504 14.9974 54.0949C12.4597 35.0395 25.85 17.5351 44.9055 14.9973C52.2729 14.0162 59.4086 15.416 65.5368 18.6037C66.4719 16.5166 67.8751 14.6729 69.6377 13.2157C62.109 9.0297 53.2172 7.14339 44.0223 8.36797C21.3059 11.3933 5.34277 32.2611 8.3679 54.9777C11.3934 77.6942 32.2612 93.6571 54.978 90.6321V90.6323ZM67.1184 47.1538C68.4143 56.8843 61.5767 65.8227 51.8464 67.1186C42.116 68.4144 33.1775 61.5769 31.8816 51.8466C30.5858 42.1161 37.4233 33.1776 47.1536 31.8818C56.8841 30.5859 65.8226 37.4235 67.1184 47.1538V47.1538ZM80.5296 35.6554C86.6109 34.8455 90.8845 29.2589 90.0746 23.1775C89.2647 17.096 83.6782 12.8224 77.5968 13.6325C71.5151 14.4422 67.2417 20.0288 68.0515 26.1104C68.8615 32.1919 74.448 36.4653 80.5296 35.6554Z" fill="white"/>
</g>
<defs>
<filter id="filter0_d_1_38751" x="0" y="0" width="99" height="99" filterUnits="userSpaceOnUse" color-interpolation-filters="sRGB">
<feFlood flood-opacity="0" result="BackgroundImageFix"/>
<feColorMatrix in="SourceAlpha" type="matrix" values="0 0 0 0 0 0 0 0 0 0 0 0 0 0 0 0 0 0 127 0" result="hardAlpha"/>
<feOffset/>
<feGaussianBlur stdDeviation="4"/>
<feColorMatrix type="matrix" values="0 0 0 0 0 0 0 0 0 0 0 0 0 0 0 0 0 0 0.25 0"/>
<feBlend mode="normal" in2="BackgroundImageFix" result="effect1_dropShadow_1_38751"/>
<feBlend mode="normal" in="SourceGraphic" in2="effect1_dropShadow_1_38751" result="shape"/>
</filter>
</defs>
</svg>
