<svg width="83" height="84" fill="none" xmlns="http://www.w3.org/2000/svg"><g filter="url(#filter0_d_1_57)"><path d="M53.74 33.197a1.174 1.174 0 0 1-.828 2.001 1.172 1.172 0 0 1-.829-.343 14.966 14.966 0 0 0-21.166 0 1.171 1.171 0 1 1-1.657-1.658 17.311 17.311 0 0 1 24.48 0zm-12.24-.382a12.539 12.539 0 0 0-8.925 3.697 1.172 1.172 0 0 0 1.657 1.657 10.28 10.28 0 0 1 14.537 0 1.172 1.172 0 0 0 1.657-1.657 12.54 12.54 0 0 0-8.926-3.697zm0 4.687a7.883 7.883 0 0 0-5.611 2.325 1.173 1.173 0 0 0 1.657 1.657 5.597 5.597 0 0 1 6.094-1.212 5.593 5.593 0 0 1 1.814 1.212 1.172 1.172 0 1 0 1.658-1.657 7.886 7.886 0 0 0-5.612-2.325zm3.248 7.936a3.249 3.249 0 1 1-6.497 0 3.249 3.249 0 0 1 6.498 0zm-2.343 0a.903.903 0 0 0-1.544-.64.904.904 0 1 0 1.544.64zM79 37.5a6.266 6.266 0 0 1-12.422 1.172h-4.604a20.425 20.425 0 0 1-5.175 12.469l3.263 3.263a6.257 6.257 0 1 1-1.659 1.656L55.142 52.8a20.424 20.424 0 0 1-12.47 5.175v4.605a6.267 6.267 0 1 1-2.343 0v-4.605a20.425 20.425 0 0 1-12.47-5.175l-3.261 3.262a6.268 6.268 0 0 1-9.614 7.956 6.266 6.266 0 0 1 7.955-9.612l3.263-3.263a20.426 20.426 0 0 1-5.175-12.47h-4.605a6.266 6.266 0 1 1 0-2.343h4.605a20.426 20.426 0 0 1 5.175-12.47l-3.263-3.263a6.267 6.267 0 1 1 1.657-1.657l3.263 3.263a20.425 20.425 0 0 1 12.47-5.175v-4.604a6.267 6.267 0 1 1 2.343 0v4.604a20.425 20.425 0 0 1 12.47 5.175l3.262-3.263a6.258 6.258 0 1 1 1.658 1.657l-3.263 3.263a20.424 20.424 0 0 1 5.175 12.47h4.604A6.266 6.266 0 0 1 79 37.5zM60.812 18.19a3.92 3.92 0 1 0 5.542-5.547 3.92 3.92 0 0 0-5.542 5.546zm-19.312-8a3.923 3.923 0 1 0 0-7.845 3.923 3.923 0 0 0 0 7.846zm-19.31 8a3.921 3.921 0 0 0-2.775-6.697 3.923 3.923 0 1 0 2.774 6.696zm-8 19.31a3.922 3.922 0 1 0-7.845 0 3.922 3.922 0 0 0 7.845 0zm9.148 22.086a3.922 3.922 0 0 0-7.77-.766 3.923 3.923 0 1 0 7.77.766zM41.5 64.81a3.923 3.923 0 1 0 0 7.845 3.923 3.923 0 0 0 0-7.845zm22.086-9.147a3.922 3.922 0 1 0-.002 7.845 3.922 3.922 0 0 0 .002-7.845zm-3.922-18.163A18.164 18.164 0 1 0 41.5 55.664a18.185 18.185 0 0 0 18.164-18.163zm16.992 0a3.922 3.922 0 1 0-7.845 0 3.922 3.922 0 0 0 7.845 0z" fill="#fff"/></g><defs><filter id="filter0_d_1_57" x="0" y="0" width="83" height="83.001" filterUnits="userSpaceOnUse" color-interpolation-filters="sRGB"><feFlood flood-opacity="0" result="BackgroundImageFix"/><feColorMatrix in="SourceAlpha" values="0 0 0 0 0 0 0 0 0 0 0 0 0 0 0 0 0 0 127 0" result="hardAlpha"/><feOffset dy="4"/><feGaussianBlur stdDeviation="2"/><feComposite in2="hardAlpha" operator="out"/><feColorMatrix values="0 0 0 0 0 0 0 0 0 0 0 0 0 0 0 0 0 0 0.25 0"/><feBlend in2="BackgroundImageFix" result="effect1_dropShadow_1_57"/><feBlend in="SourceGraphic" in2="effect1_dropShadow_1_57" result="shape"/></filter></defs></svg>