<svg width="87" height="99" viewBox="0 0 87 99" fill="none" xmlns="http://www.w3.org/2000/svg">
<g filter="url(#filter0_d_1_38799)">
<path d="M67.066 51.8626C67.0256 45.0593 70.1487 39.9318 76.4556 36.1511C72.9282 31.1633 67.5916 28.42 60.5571 27.8913C53.8965 27.3726 46.6092 31.7219 43.9409 31.7219C41.121 31.7219 34.6727 28.0709 29.5989 28.0709C19.1279 28.2305 8 36.3107 8 52.7504C8 57.6085 8.89953 62.6262 10.6986 67.7936C13.1041 74.5969 21.776 91.2661 30.8219 90.9968C35.552 90.887 38.8975 87.6849 45.0527 87.6849C51.026 87.6849 54.1188 90.9968 59.3947 90.9968C68.5215 90.8671 76.3646 75.7142 78.6488 68.8909C66.4091 63.1949 67.066 52.2117 67.066 51.8626V51.8626ZM65.9947 78.4974C64.5494 80.4825 63.0939 82.0487 61.7598 83.0562C60.6986 83.8543 59.8799 84.1934 59.3341 84.2134C58.4245 84.2034 57.5451 83.9839 55.8269 83.3355C55.7056 83.2857 55.5742 83.2358 55.4024 83.1759L54.9577 83.0063C53.1991 82.338 52.1479 81.9789 50.8037 81.6297C48.9238 81.1509 47.0539 80.8915 45.0527 80.8915C43.0111 80.8915 41.0907 81.1409 39.1805 81.6098C37.7756 81.9589 36.5931 82.3479 34.8647 82.9864C34.794 83.0163 34.0461 83.2956 33.8338 83.3754C33.4801 83.5051 33.2072 83.6049 32.9545 83.6946C31.9034 84.0538 31.2363 84.2034 30.64 84.2134C30.5692 84.2134 30.5086 84.2034 30.458 84.1934C30.3469 84.1735 30.2054 84.1336 30.0436 84.0637C29.5888 83.8842 29.043 83.555 28.4265 83.0861C27.0115 81.9988 25.455 80.293 23.8682 78.1083C21.0887 74.2578 18.4609 69.1503 17.1975 65.569C15.641 61.1 14.8728 56.8205 14.8728 52.7404C14.8728 46.7352 16.6719 42.1663 19.7647 39.0639C22.4229 36.4104 26.0008 34.9241 29.6495 34.8443C30.2458 34.8542 31.115 34.9939 32.2167 35.2932C33.0859 35.5226 34.036 35.8318 35.3196 36.2808C35.7036 36.4204 37.0277 36.8893 37.1894 36.9491C37.9676 37.2284 38.5538 37.4279 39.1299 37.6075C40.9694 38.1861 42.3945 38.5053 43.9409 38.5053C45.5075 38.5053 46.8518 38.1761 48.762 37.5277C49.4796 37.2883 52.0873 36.3306 52.5522 36.171C55.1396 35.2632 57.0499 34.7744 58.6973 34.6547C59.1825 34.6148 59.6171 34.6148 60.0315 34.6448C62.3258 34.8243 64.2866 35.2732 65.9543 36.0214C62.154 40.3508 60.1932 45.6478 60.2033 51.8227C60.173 53.2891 60.2943 54.9849 60.7188 56.99C61.3656 60.0326 62.5987 63.0452 64.5494 65.8683C66.0351 68.013 67.8746 69.9483 70.078 71.6342C68.9157 73.9984 67.4905 76.4424 65.9947 78.4974ZM56.4435 21.4371C61.5678 15.4318 61.1028 9.96519 60.9512 8C56.4232 8.25936 51.1877 11.0426 48.2061 14.4642C44.9213 18.1352 42.9909 22.6741 43.4053 27.7915C48.2971 28.1606 52.7645 25.6767 56.4435 21.4371V21.4371Z" fill="white"/>
</g>
<defs>
<filter id="filter0_d_1_38799" x="0" y="0" width="86.6484" height="99" filterUnits="userSpaceOnUse" color-interpolation-filters="sRGB">
<feFlood flood-opacity="0" result="BackgroundImageFix"/>
<feColorMatrix in="SourceAlpha" type="matrix" values="0 0 0 0 0 0 0 0 0 0 0 0 0 0 0 0 0 0 127 0" result="hardAlpha"/>
<feOffset/>
<feGaussianBlur stdDeviation="4"/>
<feComposite in2="hardAlpha" operator="out"/>
<feColorMatrix type="matrix" values="0 0 0 0 0 0 0 0 0 0 0 0 0 0 0 0 0 0 0.25 0"/>
<feBlend mode="normal" in2="BackgroundImageFix" result="effect1_dropShadow_1_38799"/>
<feBlend mode="normal" in="SourceGraphic" in2="effect1_dropShadow_1_38799" result="shape"/>
</filter>
</defs>
</svg>
