<svg width="72" height="99" viewBox="0 0 72 99" fill="none" xmlns="http://www.w3.org/2000/svg">
<g filter="url(#filter0_d_1_38796)">
<path d="M51.8816 8H19.5599L15.2678 30.8451C10.5945 35.9338 8.0009 42.5909 8 49.5C8.00094 56.4091 10.5946 63.0662 15.268 68.1549L19.5597 91H51.8816L56.1734 68.1549C60.8468 63.0663 63.4405 56.4091 63.4414 49.5C63.4405 42.5909 60.8468 35.9337 56.1734 30.8451L51.8816 8ZM24.161 13.5333H47.2804L49.5326 25.5184C45.3302 23.1036 40.5681 21.833 35.7214 21.8333C30.8746 21.8331 26.1125 23.1037 21.9101 25.5184L24.161 13.5333V13.5333ZM47.2804 85.4667H24.161L21.9088 73.4816C26.1112 75.8964 30.8733 77.167 35.7201 77.1667C40.5676 77.1667 45.3302 75.8959 49.5313 73.4816L47.2804 85.4667ZM35.7207 71.6333C31.3356 71.6336 27.0486 70.3357 23.4001 67.9031C19.7548 65.473 16.9123 62.0162 15.2323 57.9701C13.5539 53.9266 13.1147 49.4756 13.9703 45.1821C14.8269 40.8869 16.9393 36.9427 20.0397 33.8493C23.1431 30.7529 27.0942 28.6451 31.3943 27.7919C35.696 26.9379 40.1542 27.3762 44.2073 29.0515C48.2577 30.7252 51.7211 33.562 54.1598 37.2034C56.596 40.8416 57.8968 45.1214 57.8971 49.5C57.8895 55.3704 55.5504 60.9973 51.3944 65.1432C47.2371 69.2927 41.6002 71.6266 35.7207 71.6333V71.6333Z" fill="white"/>
<path d="M22.4853 55.5186C24.7764 55.5186 26.6335 53.6587 26.6335 51.3645C26.6335 49.0703 24.7764 47.2104 22.4853 47.2104C20.1942 47.2104 18.3369 49.0703 18.3369 51.3645C18.3369 53.6587 20.1942 55.5186 22.4853 55.5186V55.5186Z" fill="white"/>
<path d="M35.4539 55.5186C37.745 55.5186 39.6021 53.6587 39.6021 51.3645C39.6021 49.0703 37.745 47.2104 35.4539 47.2104C33.1628 47.2104 31.3057 49.0703 31.3057 51.3645C31.3057 53.6587 33.1628 55.5186 35.4539 55.5186Z" fill="white"/>
<path d="M48.4226 55.5186C50.7137 55.5186 52.5708 53.6587 52.5708 51.3645C52.5708 49.0703 50.7137 47.2104 48.4226 47.2104C46.1315 47.2104 44.2744 49.0703 44.2744 51.3645C44.2744 53.6587 46.1315 55.5186 48.4226 55.5186Z" fill="white"/>
</g>
<defs>
<filter id="filter0_d_1_38796" x="0" y="0" width="71.4414" height="99" filterUnits="userSpaceOnUse" color-interpolation-filters="sRGB">
<feFlood flood-opacity="0" result="BackgroundImageFix"/>
<feColorMatrix in="SourceAlpha" type="matrix" values="0 0 0 0 0 0 0 0 0 0 0 0 0 0 0 0 0 0 127 0" result="hardAlpha"/>
<feOffset/>
<feGaussianBlur stdDeviation="4"/>
<feComposite in2="hardAlpha" operator="out"/>
<feColorMatrix type="matrix" values="0 0 0 0 0 0 0 0 0 0 0 0 0 0 0 0 0 0 0.25 0"/>
<feBlend mode="normal" in2="BackgroundImageFix" result="effect1_dropShadow_1_38796"/>
<feBlend mode="normal" in="SourceGraphic" in2="effect1_dropShadow_1_38796" result="shape"/>
</filter>
</defs>
</svg>
