<svg xmlns="http://www.w3.org/2000/svg" width="px" height="50" viewBox="0 0 50 50"><path style="fill:none;stroke-width:12;stroke-linecap:butt;stroke-linejoin:miter;stroke:#fff;stroke-opacity:1;stroke-miterlimit:4" d="M18.002 5.996h127.996c6.625 0 12.006 5.381 12.006 12.006v127.996c0 6.625-5.381 12.006-12.006 12.006H18.002c-6.624 0-12.006-5.381-12.006-12.006V18.002c0-6.624 5.381-12.006 12.006-12.006Zm0 0" transform="rotate(.208) scale(.30488)"/><path style="stroke:none;fill-rule:nonzero;fill:#fff;fill-opacity:1" d="M28.547 11.758s5.277 6.656 2.57 14.156c0 0-9.496-6.734-14.285-11.586 0 0 5.957 8.629 8.094 10.399 0 0-3.57-1.899-11.848-8.954 0 0 9.555 12.418 14.02 15.008 0 0-6.793 4.617-16.72-1.906 0 0 5.184 9.215 16.196 9.215 4.946 0 6.434-2.567 8.887-2.567 2.55 0 4.082 2.567 4.082 2.567 1.488-3.637-2.238-7.77-2.238-7.77s4.203-9.746-8.758-18.562Zm0 0"/></svg>