<svg width="83" height="68" fill="none" xmlns="http://www.w3.org/2000/svg"><g filter="url(#filter0_d_1_59)" fill="#fff"><path d="M75.25 0H46.5a3.75 3.75 0 0 0-3.75 3.75v6.314c-.415-.027-.828-.064-1.25-.064-.422 0-.835.037-1.25.064V3.75A3.75 3.75 0 0 0 36.5 0H7.75A3.75 3.75 0 0 0 4 3.75v52.5A3.75 3.75 0 0 0 7.75 60H36.5a3.75 3.75 0 0 0 3.75-3.75v-6.314c.415.027.828.064 1.25.064.422 0 .835-.037 1.25-.064v6.314A3.75 3.75 0 0 0 46.5 60h28.75A3.75 3.75 0 0 0 79 56.25V3.75A3.75 3.75 0 0 0 75.25 0zM46.5 2.5h28.75a1.25 1.25 0 0 1 1.25 1.25V5H45.25V3.75A1.25 1.25 0 0 1 46.5 2.5zM14 2.5h16.25V5A1.25 1.25 0 0 1 29 6.25H15.25A1.25 1.25 0 0 1 14 5V2.5zm23.75 53.75a1.25 1.25 0 0 1-1.25 1.25H7.75a1.25 1.25 0 0 1-1.25-1.25V3.75A1.25 1.25 0 0 1 7.75 2.5h3.75V5a3.75 3.75 0 0 0 3.75 3.75H29A3.75 3.75 0 0 0 32.75 5V2.5h3.75a1.25 1.25 0 0 1 1.25 1.25v6.615a19.987 19.987 0 0 0 0 39.27v6.615zM24 30a17.5 17.5 0 1 1 17.5 17.5A17.519 17.519 0 0 1 24 30zm37.5 0a20.023 20.023 0 0 0-16.25-19.635V7.5H76.5v45H45.25v-2.865A20.025 20.025 0 0 0 61.5 30zM45.25 56.25V55h10.23a3.512 3.512 0 0 0 0 2.5H46.5a1.25 1.25 0 0 1-1.25-1.25zM59 57.5a1.25 1.25 0 1 1 0-2.5h3.75a1.25 1.25 0 0 1 0 2.5H59zm16.25 0h-8.98a3.513 3.513 0 0 0 0-2.5H76.5v1.25a1.25 1.25 0 0 1-1.25 1.25z"/><path d="M14 53.75A1.25 1.25 0 0 0 15.25 55H29a1.25 1.25 0 0 0 0-2.5H15.25A1.25 1.25 0 0 0 14 53.75zM36.134 25.366a1.25 1.25 0 0 0-1.768 0l-3.75 3.75a1.25 1.25 0 0 0 0 1.768l3.75 3.75a1.25 1.25 0 0 0 1.768-1.768L33.268 30l2.866-2.866a1.25 1.25 0 0 0 0-1.768zM48.634 25.366a1.25 1.25 0 0 0-1.768 1.768L49.733 30l-2.867 2.866a1.252 1.252 0 0 0 .395 2.056 1.249 1.249 0 0 0 1.373-.288l3.75-3.75a1.25 1.25 0 0 0 0-1.768l-3.75-3.75zM43.052 23.787a1.25 1.25 0 0 0-1.514.91l-2.5 10a1.25 1.25 0 0 0 2.423.605l2.5-10a1.25 1.25 0 0 0-.909-1.515z"/></g><defs><filter id="filter0_d_1_59" x="0" y="0" width="83" height="68" filterUnits="userSpaceOnUse" color-interpolation-filters="sRGB"><feFlood flood-opacity="0" result="BackgroundImageFix"/><feColorMatrix in="SourceAlpha" values="0 0 0 0 0 0 0 0 0 0 0 0 0 0 0 0 0 0 127 0" result="hardAlpha"/><feOffset dy="4"/><feGaussianBlur stdDeviation="2"/><feComposite in2="hardAlpha" operator="out"/><feColorMatrix values="0 0 0 0 0 0 0 0 0 0 0 0 0 0 0 0 0 0 0.25 0"/><feBlend in2="BackgroundImageFix" result="effect1_dropShadow_1_59"/><feBlend in="SourceGraphic" in2="effect1_dropShadow_1_59" result="shape"/></filter></defs></svg>