<svg width="493" height="342" viewBox="0 0 493 342" fill="none" xmlns="http://www.w3.org/2000/svg">
<path opacity="0.2" d="M147.329 44.3364L146.979 44.248L35.8066 276.997L427.712 307.25L428.154 307.284L442.514 118.345L442.542 117.973L147.329 44.3364ZM259.911 194.015L37.3491 275.817L147.308 45.6094L259.911 194.015ZM260.564 194.716L426.112 306.238L38.5381 276.321L260.564 194.716ZM260.769 193.684L148.332 45.4954L440.674 118.415L260.769 193.684ZM427.364 306.017L261.55 194.315L441.577 118.995L427.364 306.017Z" fill="#367CFF"/>
<path d="M492.604 122.279C492.249 131.239 489.731 139.981 485.264 147.756C480.797 155.531 474.513 162.109 466.951 166.928C459.389 171.747 450.772 174.663 441.837 175.427C432.903 176.192 423.916 174.782 415.645 171.318C411.766 169.692 408.087 167.625 404.68 165.158C398.169 160.457 392.75 154.406 388.794 147.418V147.412C384.575 139.938 382.147 131.587 381.7 123.016C381.254 114.445 382.8 105.887 386.219 98.0149C389.638 90.1426 394.835 83.1703 401.404 77.6458C407.972 72.1212 415.731 68.1949 424.073 66.1754C432.415 64.1558 441.111 64.098 449.479 66.0065C457.846 67.915 465.657 71.7378 472.298 77.1745C478.939 82.6112 484.229 89.5138 487.752 97.34C491.275 105.166 492.936 113.703 492.603 122.279L492.604 122.279Z" fill="white"/>
<path opacity="0.09" d="M492.604 122.279C492.249 131.239 489.731 139.981 485.264 147.756C480.797 155.531 474.513 162.109 466.951 166.928C459.389 171.747 450.772 174.663 441.837 175.427C432.903 176.192 423.916 174.782 415.645 171.318C411.766 169.692 408.087 167.625 404.68 165.158C398.169 160.457 392.75 154.406 388.794 147.418V147.412C384.575 139.938 382.147 131.587 381.7 123.016C381.254 114.445 382.8 105.887 386.219 98.0149C389.638 90.1426 394.835 83.1703 401.404 77.6458C407.972 72.1212 415.731 68.1949 424.073 66.1754C432.415 64.1558 441.111 64.098 449.479 66.0065C457.846 67.915 465.657 71.7378 472.298 77.1745C478.939 82.6112 484.229 89.5138 487.752 97.34C491.275 105.166 492.936 113.703 492.603 122.279L492.604 122.279Z" fill="#367CFF"/>
<path d="M450.262 77.8525C450.262 77.8525 463.533 78.0151 458.957 96.3039L457.711 96.3648L455.181 96.4881" fill="#0C0C0C"/>
<path d="M435.441 115.492C435.503 115.487 435.748 126.894 449.007 126.415C458.187 126.085 461.828 116.5 462.038 116.508C461.059 116.26 459.409 115.89 458.98 115.64C457.569 114.81 455.816 113.935 455.46 111.117C455.255 109.494 456.03 101.258 455.953 99.6211L441.782 102.212C441.844 105.667 442.908 113.711 438.038 114.939C437.227 115.142 436.355 115.323 435.441 115.492Z" fill="#E98862"/>
<path opacity="0.52" d="M441.213 111.791C441.461 111.09 441.631 110.364 441.72 109.627C441.94 107.944 441.975 106.242 441.825 104.551C444.696 104.276 447.432 103.202 449.722 101.45C449.946 102.422 451.218 106.69 450.782 107.59C449.966 109.292 446.328 111.99 441.213 111.791Z" fill="#0C0C0C"/>
<path d="M444.43 109.775C449.985 109.378 456.687 105.996 456.92 98.4677L457.13 91.6765C457.363 84.1498 453.596 77.9257 446.512 77.7066C439.425 77.4858 433.939 83.425 433.706 90.9516L433.613 93.9583C433.599 94.9916 433.656 96.0246 433.782 97.0502C434.097 99.7623 434.585 103.886 436.371 106.702C438.057 109.36 440.881 110.028 444.43 109.775Z" fill="#E98862"/>
<path d="M456.408 100.749C458.562 100.815 460.379 98.5651 460.446 96.4118C460.513 94.2585 458.803 93.0164 456.65 92.9497L455.495 94.3583L454.557 100.691L456.408 100.749Z" fill="#E98862"/>
<path d="M434.07 99.3231C434.459 99.7844 434.957 100.141 435.519 100.361C436.082 100.58 436.69 100.656 437.288 100.58C438.569 100.419 439.419 100.945 440.488 100.839C441.386 100.751 441.541 100.336 443.073 100.245C448.986 99.8951 453.423 99.5224 453.711 92.1021L457.474 88.7598C457.474 88.7598 459.156 109.322 448.034 112.055C441.2 113.734 434.79 113.12 433.966 106.702C433.297 101.487 434.07 99.3231 434.07 99.3231Z" fill="#0C0C0C"/>
<path d="M436.873 95.0292C437.356 95.0292 437.746 94.6382 437.746 94.156C437.746 93.6737 437.356 93.2827 436.873 93.2827C436.391 93.2827 436 93.6737 436 94.156C436 94.6382 436.391 95.0292 436.873 95.0292Z" fill="#0C0C0C"/>
<path d="M444.674 94.8666C445.156 94.8666 445.547 94.4756 445.547 93.9934C445.547 93.5111 445.156 93.1201 444.674 93.1201C444.192 93.1201 443.801 93.5111 443.801 93.9934C443.801 94.4756 444.192 94.8666 444.674 94.8666Z" fill="#0C0C0C"/>
<path d="M454.329 97.2474C454.329 97.2474 453.796 86.582 450.578 85.8651C448.434 85.3876 443.162 88.3444 438.346 87.3347C436.24 86.893 434.223 87.3788 434.001 88.3744C433.912 88.7684 432.245 85.2741 435.635 81.0222C438.333 77.637 447.108 76.6847 451.012 77.8817C461.821 81.1972 457.087 93.4266 457.087 93.4266L456.535 97.0902L454.329 97.2474Z" fill="#0C0C0C"/>
<path d="M459.241 88.6474C462.423 88.6474 465.002 86.0683 465.002 82.8867C465.002 79.7051 462.423 77.126 459.241 77.126C456.06 77.126 453.48 79.7051 453.48 82.8867C453.48 86.0683 456.06 88.6474 459.241 88.6474Z" fill="#0C0C0C"/>
<g opacity="0.52">
<path d="M440.594 100.496H440.58C439.886 100.476 438.725 100.366 438.738 99.8468C438.751 99.4165 440.06 94.806 440.209 94.2813C440.222 94.2362 440.252 94.198 440.293 94.1752C440.334 94.1524 440.383 94.1467 440.428 94.1596C440.473 94.1724 440.511 94.2026 440.534 94.2436C440.557 94.2845 440.562 94.3329 440.549 94.378C439.968 96.42 439.101 99.5641 439.092 99.8551C439.157 99.9797 439.871 100.12 440.59 100.141C440.637 100.14 440.682 100.159 440.716 100.191C440.749 100.224 440.768 100.269 440.769 100.316C440.769 100.362 440.751 100.408 440.718 100.441C440.686 100.475 440.641 100.494 440.594 100.494V100.496Z" fill="#0C0C0C"/>
</g>
<path d="M438.481 91.1884C437.764 90.9761 437.004 90.9608 436.279 91.1442C435.922 91.2319 435.58 91.3728 435.265 91.5621C434.953 91.7477 434.666 91.9719 434.411 92.2295C434.366 92.2692 434.34 92.3249 434.336 92.3844C434.333 92.4438 434.353 92.5021 434.393 92.5464C434.433 92.5908 434.489 92.6175 434.548 92.6208C434.607 92.6241 434.666 92.6036 434.71 92.5639L434.724 92.5524C434.962 92.3374 435.227 92.1532 435.511 92.0042C435.791 91.8559 436.091 91.7508 436.403 91.6924C437.017 91.5723 437.652 91.6166 438.244 91.8209L438.267 91.8293C438.308 91.8455 438.353 91.8532 438.398 91.852C438.443 91.8507 438.487 91.8406 438.528 91.8221C438.568 91.8037 438.605 91.7773 438.636 91.7445C438.666 91.7117 438.69 91.6731 438.705 91.631C438.721 91.589 438.728 91.5443 438.726 91.4995C438.724 91.4547 438.713 91.4108 438.694 91.3703C438.674 91.3298 438.647 91.2935 438.614 91.2636C438.581 91.2337 438.542 91.2106 438.5 91.1959L438.481 91.1884Z" fill="#0C0C0C"/>
<path d="M443.628 91.822C444.197 91.5607 444.825 91.4548 445.448 91.515C445.764 91.5427 446.073 91.6182 446.366 91.739C446.663 91.8595 446.944 92.017 447.202 92.2076L447.217 92.2174C447.265 92.2487 447.323 92.2604 447.379 92.2501C447.436 92.2399 447.486 92.2084 447.52 92.1621C447.554 92.1158 447.569 92.0583 447.562 92.0014C447.555 91.9445 447.526 91.8925 447.482 91.856C447.202 91.6246 446.894 91.4293 446.566 91.2748C446.234 91.117 445.88 91.01 445.517 90.9572C444.777 90.8458 444.022 90.9353 443.329 91.2165C443.247 91.2516 443.183 91.3174 443.15 91.3996C443.116 91.4818 443.117 91.5738 443.151 91.6557C443.185 91.7376 443.25 91.8028 443.331 91.8372C443.413 91.8717 443.505 91.8725 443.587 91.8397L443.604 91.8326L443.628 91.822Z" fill="#0C0C0C"/>
<path d="M479.003 143.976C478.51 147.706 478.028 152.828 477.597 158.125C475.915 159.915 474.116 161.592 472.213 163.145C471.003 164.128 469.754 165.062 468.466 165.948C461.503 170.701 453.551 173.809 445.211 175.037C436.87 176.265 428.36 175.58 420.323 173.036C420.213 168.116 420.064 161.48 419.915 155.4C419.745 148.387 419.573 142.108 419.481 140.045C419.1 131.856 416.93 126.393 418.571 121.926C419.061 120.603 419.85 119.412 420.876 118.444C424.699 114.702 434.195 114.787 438.004 114.935C438.07 114.938 436.894 123.728 449.425 123.622C458.636 123.547 459.327 115.762 459.327 115.762C459.327 115.762 463.866 116.235 466.88 116.758C471.81 117.622 475.016 119.43 477.51 122.131C479.837 124.649 481.21 127.322 479.003 143.976Z" fill="#367CFF"/>
<path d="M405.331 115.801L405.71 106.422C405.719 106.215 405.684 106.01 405.609 105.817C405.534 105.625 405.419 105.451 405.273 105.305C405.126 105.16 404.951 105.047 404.758 104.973C404.565 104.899 404.359 104.866 404.153 104.876C403.773 104.906 403.419 105.077 403.157 105.355C402.896 105.632 402.747 105.997 402.74 106.378L402.658 108.389L400.01 101.948C399.728 101.226 398.92 100.521 398.132 100.891C397.819 101.013 397.557 101.238 397.389 101.529C397.22 101.819 397.155 102.158 397.204 102.49C397.197 102.491 397.189 102.493 397.182 102.495C397.177 102.498 397.173 102.501 397.168 102.505L396.733 101.392C396.653 101.186 396.527 101.001 396.366 100.85C396.205 100.698 396.012 100.585 395.801 100.518C395.59 100.45 395.367 100.431 395.148 100.461C394.929 100.491 394.719 100.569 394.534 100.691C394.246 100.887 394.035 101.177 393.935 101.511C393.836 101.845 393.854 102.203 393.987 102.525L394.172 102.998C394.16 103.01 394.151 103.023 394.145 103.038C393.946 102.748 393.65 102.538 393.31 102.445C392.97 102.353 392.608 102.384 392.289 102.533C391.945 102.708 391.679 103.005 391.545 103.367C391.411 103.729 391.417 104.128 391.564 104.484L392.024 105.66C392.005 105.648 391.985 105.641 391.963 105.638C391.941 105.636 391.919 105.638 391.899 105.646C391.875 105.657 391.855 105.674 391.841 105.696C391.591 105.486 391.28 105.364 390.955 105.348C390.629 105.333 390.308 105.424 390.039 105.609C389.762 105.81 389.56 106.098 389.466 106.427C389.373 106.756 389.393 107.107 389.524 107.423L393.4 117.344C393.943 118.732 394.887 119.926 396.113 120.773C397.338 121.621 398.789 122.083 400.279 122.101V122.101C401.563 122.116 402.803 121.63 403.735 120.745C404.667 119.861 405.218 118.648 405.27 117.364L405.331 115.801Z" fill="#E98862"/>
<g opacity="0.2">
<path d="M399.794 108.879C399.76 108.892 399.723 108.891 399.69 108.877C399.657 108.863 399.631 108.836 399.617 108.803L397.107 102.673C397.099 102.657 397.094 102.638 397.094 102.62C397.093 102.601 397.096 102.582 397.103 102.565C397.11 102.548 397.12 102.532 397.133 102.519C397.146 102.505 397.162 102.495 397.179 102.488C397.196 102.481 397.215 102.477 397.234 102.478C397.252 102.478 397.271 102.482 397.288 102.49C397.305 102.497 397.32 102.508 397.332 102.522C397.345 102.536 397.355 102.552 397.361 102.57L399.871 108.699C399.878 108.716 399.881 108.734 399.881 108.752C399.881 108.77 399.878 108.788 399.871 108.804C399.864 108.821 399.853 108.836 399.841 108.849C399.828 108.861 399.813 108.871 399.796 108.878L399.794 108.879Z" fill="#0C0C0C"/>
</g>
<g opacity="0.2">
<path d="M397.12 110.062C397.087 110.075 397.049 110.074 397.016 110.06C396.983 110.046 396.957 110.019 396.944 109.986L394.142 103.145C394.129 103.111 394.13 103.074 394.144 103.041C394.158 103.008 394.184 102.982 394.217 102.968C394.251 102.956 394.288 102.957 394.32 102.971C394.353 102.985 394.379 103.011 394.394 103.043L397.195 109.884C397.209 109.917 397.209 109.955 397.195 109.989C397.181 110.022 397.154 110.049 397.12 110.062V110.062Z" fill="#0C0C0C"/>
</g>
<g opacity="0.2">
<path d="M394.234 111.358C394.2 111.371 394.163 111.37 394.13 111.356C394.097 111.342 394.071 111.315 394.057 111.281L391.823 105.825C391.809 105.791 391.809 105.754 391.823 105.72C391.837 105.687 391.864 105.66 391.898 105.646C391.931 105.633 391.969 105.633 392.002 105.647C392.036 105.661 392.062 105.688 392.076 105.721L394.312 111.176C394.326 111.21 394.326 111.248 394.312 111.281C394.298 111.315 394.271 111.341 394.237 111.355L394.234 111.358Z" fill="#0C0C0C"/>
</g>
<path d="M436.38 130.507L413.552 165.603C412.722 166.879 411.61 167.947 410.302 168.726C408.356 167.653 406.479 166.461 404.68 165.157C400.846 162.391 397.382 159.146 394.371 155.501L389.576 118.325L408.765 115.25L410.953 133.145L419.72 119.667L436.38 130.507Z" fill="#367CFF"/>
<path d="M439.057 102.411C441.151 102.55 443.231 101.988 444.969 100.812C445.03 100.771 445.1 100.749 445.173 100.747C445.245 100.745 445.317 100.764 445.379 100.802C445.442 100.839 445.492 100.893 445.524 100.958C445.557 101.023 445.57 101.096 445.563 101.168C445.423 102.405 444.812 104.68 442.217 104.97C440.542 105.157 439.327 103.87 438.716 103.014C438.673 102.955 438.649 102.885 438.645 102.812C438.641 102.74 438.658 102.667 438.694 102.604C438.73 102.541 438.783 102.489 438.847 102.455C438.911 102.421 438.984 102.406 439.057 102.411V102.411Z" fill="white"/>
<path d="M485.194 147.921C481.82 153.737 477.423 158.894 472.213 163.145C471.003 164.128 469.754 165.062 468.467 165.948L459.551 132.029L479.63 126.748L485.194 147.921Z" fill="#367CFF"/>
<path d="M468.662 165.816C468.598 165.857 468.529 165.904 468.466 165.948C468.404 165.992 468.339 166.036 468.276 166.077L461.48 140.238L461.909 140.126L468.662 165.816Z" fill="#0C0C0C"/>
<path d="M419.97 156.998C419.915 156.996 419.863 156.973 419.824 156.934C419.784 156.895 419.761 156.843 419.759 156.787L419.321 147.158C419.318 147.1 419.339 147.042 419.378 146.999C419.418 146.956 419.473 146.93 419.531 146.927C419.59 146.925 419.647 146.946 419.691 146.985C419.734 147.025 419.76 147.08 419.762 147.138L420.2 156.768C420.203 156.826 420.182 156.883 420.143 156.926C420.103 156.97 420.048 156.995 419.99 156.998H419.97Z" fill="#0C0C0C"/>
<path d="M254.829 246.103C286.083 246.103 311.418 220.767 311.418 189.514C311.418 158.261 286.083 132.925 254.829 132.925C223.576 132.925 198.24 158.261 198.24 189.514C198.24 220.767 223.576 246.103 254.829 246.103Z" fill="white"/>
<path opacity="0.09" d="M311.419 189.512C311.419 200.704 308.1 211.645 301.882 220.951C295.664 230.257 286.826 237.51 276.486 241.793C266.146 246.076 254.768 247.197 243.791 245.013C232.814 242.83 222.73 237.44 214.817 229.526C206.903 221.612 201.513 211.529 199.33 200.552C197.146 189.575 198.267 178.197 202.55 167.857C206.833 157.517 214.086 148.679 223.392 142.461C232.698 136.243 243.638 132.924 254.83 132.924C262.269 132.897 269.64 134.342 276.518 137.176C283.396 140.01 289.645 144.177 294.906 149.437C300.166 154.697 304.333 160.947 307.167 167.825C310.001 174.703 311.446 182.073 311.419 189.512V189.512Z" fill="#367CFF"/>
<path d="M229.781 156.137C229.781 156.137 229.212 164.679 227.289 167.779C221.757 176.701 220.154 186.739 225.694 191.984C231.235 197.229 266.576 197.301 269.254 185.239C271.506 175.085 266.67 173.993 265.494 165.616C264.961 161.825 263.496 153.877 263.496 153.877" fill="#0A0A0A"/>
<path d="M260.107 183.47C260.046 183.462 259.369 194.695 246.319 193.717C237.286 193.041 234.065 183.456 233.857 183.456C234.831 183.249 236.471 182.948 236.905 182.717C238.327 181.953 240.088 181.157 240.546 178.395C240.811 176.804 240.362 168.657 240.502 167.046L254.369 170.141C254.175 173.542 252.819 181.431 257.572 182.827C258.361 183.056 259.213 183.268 260.107 183.47Z" fill="#E98862"/>
<path opacity="0.5" d="M254.56 179.602C254.343 178.902 254.204 178.18 254.143 177.449C253.991 175.782 254.021 174.104 254.234 172.443C251.416 172.063 248.76 170.9 246.57 169.086C246.312 170.037 244.896 174.193 245.289 175.097C246.032 176.804 249.512 179.602 254.56 179.602Z" fill="#0C0C0C"/>
<path d="M252.768 176.102C247.3 176.632 240.226 174.444 238.761 167.163L237.439 160.594C235.974 153.313 238.61 146.641 245.465 145.262C252.32 143.882 258.632 148.751 260.097 156.034L260.683 158.942C261.245 161.736 262.522 175.158 252.768 176.102Z" fill="#E98862"/>
<path opacity="0.1" d="M249.291 166.563C250.191 166.456 250.856 165.834 250.777 165.174C250.699 164.514 249.906 164.065 249.006 164.173C248.106 164.28 247.441 164.902 247.52 165.562C247.598 166.222 248.391 166.671 249.291 166.563Z" fill="#0C0C0C"/>
<path opacity="0.1" d="M258.799 163.923C258.88 164.581 259.673 165.027 260.573 164.923C260.728 164.904 260.881 164.87 261.03 164.82C261.071 164.034 261.074 163.278 261.051 162.578C260.801 162.516 260.542 162.501 260.286 162.534C259.387 162.639 258.721 163.261 258.799 163.923Z" fill="#0C0C0C"/>
<path opacity="0.5" d="M254.824 165.96H254.837C255.115 165.901 255.389 165.827 255.659 165.739C256.061 165.606 256.586 165.383 256.515 165.019C256.431 164.604 254.394 160.357 254.162 159.874C254.14 159.834 254.104 159.804 254.061 159.791C254.018 159.777 253.971 159.78 253.93 159.8C253.889 159.819 253.858 159.854 253.842 159.896C253.826 159.938 253.826 159.985 253.844 160.027C254.712 161.838 256.112 164.809 256.168 165.089C256.124 165.219 255.457 165.473 254.767 165.612C254.723 165.623 254.685 165.649 254.66 165.686C254.635 165.723 254.625 165.769 254.632 165.813C254.64 165.857 254.663 165.897 254.699 165.925C254.734 165.952 254.779 165.965 254.824 165.961V165.96Z" fill="#0C0C0C"/>
<path d="M231.969 162.952L238.115 161.751C242.757 159.808 244.074 151.719 244.074 151.719C244.074 151.719 249.804 157.176 263.497 153.876C263.497 153.876 260.522 134.761 240.304 140.563C233.784 142.434 229.166 149.079 229.853 157.881C230.334 164.05 231.969 162.952 231.969 162.952Z" fill="#0A0A0A"/>
<path d="M239.631 169.296C237.548 169.715 235.411 167.826 234.993 165.743C234.576 163.659 236.031 162.171 238.115 161.751L239.469 162.931L241.424 168.935L239.631 169.296Z" fill="#E98862"/>
<path d="M255.639 156.487C256.16 156.117 256.77 155.893 257.406 155.837C257.726 155.807 258.048 155.824 258.362 155.89C258.678 155.954 258.986 156.058 259.277 156.199L259.286 156.203C259.318 156.216 259.354 156.216 259.386 156.204C259.418 156.191 259.444 156.166 259.459 156.135C259.474 156.104 259.476 156.068 259.465 156.035C259.454 156.003 259.431 155.975 259.401 155.959C259.093 155.796 258.765 155.673 258.426 155.592C258.085 155.509 257.733 155.478 257.382 155.499C256.673 155.539 255.986 155.767 255.395 156.162C255.372 156.176 255.352 156.196 255.337 156.218C255.321 156.24 255.31 156.266 255.305 156.292C255.299 156.319 255.299 156.346 255.305 156.373C255.31 156.399 255.321 156.425 255.336 156.447C255.351 156.47 255.371 156.489 255.394 156.503C255.417 156.518 255.442 156.528 255.469 156.533C255.496 156.537 255.523 156.537 255.55 156.53C255.576 156.524 255.601 156.513 255.623 156.497L255.628 156.494L255.639 156.487Z" fill="#0C0C0C"/>
<path d="M250.024 157.262C249.326 157.124 248.604 157.175 247.933 157.41C247.601 157.525 247.288 157.688 247.005 157.896C246.723 158.101 246.468 158.34 246.245 158.608C246.222 158.635 246.211 158.669 246.213 158.704C246.215 158.739 246.231 158.772 246.257 158.795C246.283 158.819 246.317 158.832 246.352 158.831C246.387 158.83 246.42 158.815 246.445 158.79L246.452 158.783C246.666 158.541 246.91 158.327 247.178 158.146C247.443 157.965 247.734 157.825 248.041 157.731C248.65 157.54 249.299 157.514 249.922 157.655L249.937 157.659C249.963 157.665 249.99 157.667 250.017 157.663C250.044 157.66 250.07 157.651 250.093 157.637C250.116 157.623 250.136 157.605 250.152 157.583C250.168 157.561 250.18 157.537 250.186 157.51C250.193 157.484 250.194 157.457 250.189 157.43C250.185 157.404 250.175 157.378 250.161 157.355C250.147 157.332 250.128 157.312 250.106 157.297C250.084 157.281 250.059 157.27 250.033 157.265L250.024 157.262Z" fill="#0C0C0C"/>
<path d="M238.119 161.651C242.25 160.113 243.621 157.26 244.043 155.137C244.316 153.721 244.291 152.263 243.968 150.858L243.84 150.893C244.158 152.28 244.183 153.719 243.912 155.116C243.496 157.204 242.145 160.011 238.072 161.526L238.119 161.651Z" fill="#0C0C0C"/>
<path d="M290.35 181.233L292.824 172.84C292.878 172.656 292.97 172.485 293.094 172.338C293.218 172.191 293.372 172.072 293.544 171.987C293.717 171.903 293.906 171.856 294.098 171.848C294.29 171.84 294.481 171.873 294.66 171.943C294.986 172.084 295.248 172.34 295.396 172.663C295.544 172.986 295.566 173.352 295.459 173.691L294.929 175.49L299.193 170.597C299.657 170.045 300.581 169.664 301.166 170.226C301.405 170.428 301.569 170.704 301.631 171.011C301.693 171.318 301.649 171.636 301.506 171.915C301.513 171.918 301.519 171.921 301.524 171.926C301.528 171.93 301.531 171.934 301.534 171.939L302.25 171.087C302.383 170.929 302.549 170.803 302.737 170.718C302.925 170.632 303.129 170.59 303.335 170.594C303.541 170.598 303.744 170.647 303.928 170.739C304.113 170.831 304.274 170.963 304.401 171.125C304.596 171.385 304.696 171.704 304.684 172.028C304.672 172.353 304.549 172.663 304.336 172.908L304.031 173.27C304.038 173.284 304.041 173.299 304.042 173.315C304.305 173.118 304.629 173.02 304.957 173.041C305.285 173.061 305.595 173.197 305.832 173.425C306.083 173.681 306.229 174.023 306.24 174.383C306.25 174.742 306.125 175.092 305.889 175.363L305.131 176.263C305.151 176.258 305.171 176.258 305.191 176.262C305.211 176.266 305.23 176.275 305.245 176.288C305.263 176.305 305.276 176.326 305.282 176.349C305.565 176.239 305.877 176.225 306.169 176.309C306.46 176.394 306.717 176.571 306.897 176.815C307.082 177.075 307.174 177.39 307.158 177.708C307.142 178.027 307.019 178.331 306.809 178.57L300.42 186.168C299.526 187.23 298.336 188.002 297.001 188.383C295.665 188.764 294.247 188.738 292.927 188.308V188.308C291.788 187.937 290.839 187.137 290.282 186.078C289.724 185.019 289.601 183.784 289.939 182.635L290.35 181.233Z" fill="#E98862"/>
<g opacity="0.2">
<path d="M297.307 176.781C297.333 176.802 297.366 176.812 297.399 176.809C297.432 176.807 297.462 176.791 297.484 176.767L301.533 172.108C301.555 172.082 301.566 172.049 301.564 172.015C301.561 171.981 301.546 171.95 301.52 171.928C301.494 171.906 301.461 171.894 301.427 171.897C301.393 171.899 301.362 171.915 301.34 171.941L297.291 176.599C297.28 176.611 297.272 176.626 297.266 176.642C297.261 176.658 297.259 176.675 297.26 176.692C297.261 176.708 297.266 176.725 297.273 176.74C297.281 176.755 297.291 176.768 297.304 176.779L297.307 176.781Z" fill="#0C0C0C"/>
</g>
<g opacity="0.2">
<path d="M299.312 178.623C299.338 178.644 299.37 178.654 299.403 178.652C299.436 178.649 299.467 178.634 299.489 178.609L304.007 173.41C304.018 173.397 304.026 173.382 304.032 173.367C304.037 173.351 304.039 173.334 304.038 173.317C304.037 173.3 304.032 173.284 304.025 173.269C304.017 173.254 304.007 173.241 303.994 173.23C303.968 173.209 303.935 173.198 303.902 173.201C303.868 173.203 303.837 173.218 303.814 173.242L299.299 178.441C299.288 178.454 299.279 178.469 299.274 178.485C299.269 178.501 299.267 178.517 299.268 178.534C299.269 178.551 299.274 178.567 299.281 178.582C299.289 178.597 299.299 178.611 299.312 178.621L299.312 178.623Z" fill="#0C0C0C"/>
</g>
<g opacity="0.2">
<path d="M301.473 180.631C301.499 180.652 301.532 180.662 301.565 180.659C301.598 180.656 301.628 180.641 301.65 180.616L305.254 176.469C305.274 176.443 305.284 176.411 305.281 176.378C305.278 176.346 305.262 176.316 305.237 176.294C305.213 176.273 305.181 176.261 305.148 176.263C305.115 176.264 305.084 176.278 305.061 176.302L301.457 180.449C301.446 180.461 301.438 180.476 301.432 180.492C301.427 180.508 301.425 180.525 301.426 180.541C301.427 180.558 301.432 180.575 301.439 180.59C301.447 180.605 301.457 180.618 301.47 180.629L301.473 180.631Z" fill="#0C0C0C"/>
</g>
<path d="M305.403 184.895L295.84 228.279C295.818 228.377 295.796 228.478 295.769 228.575C293.621 230.823 291.295 232.892 288.812 234.763C288.313 235.135 287.814 235.501 287.302 235.855C286.985 235.89 286.666 235.908 286.348 235.908C284.643 235.907 282.969 235.458 281.493 234.606C280.017 233.754 278.791 232.529 277.938 231.053L259.713 199.518L276.542 189.797L282.244 199.665L286.423 180.711L305.403 184.895Z" fill="#0CBC8B"/>
<path d="M275.973 204.675C275.916 205.364 275.801 206.592 275.642 208.209C274.847 216.473 272.988 234.892 272.126 243.404C261.245 246.882 249.568 247.001 238.618 243.744H238.614C230.528 241.323 223.087 237.121 216.838 231.447C216.873 223.836 216.763 215.276 216.251 209.772C214.718 193.327 216.167 190.752 218.547 188.372C218.742 188.177 218.945 187.987 219.148 187.802C221.608 185.567 224.696 184.109 229.197 183.499C232.174 183.098 236.653 182.806 236.653 182.806C236.653 182.806 237.033 190.483 246.074 190.907C258.385 191.486 257.563 182.806 257.625 182.806C260.721 182.806 267.612 183 271.958 185.213C271.963 185.213 271.963 185.213 271.967 185.218C272.842 185.644 273.639 186.216 274.322 186.91C279.3 192.184 276.844 194.439 275.973 204.675Z" fill="#0CBC8B"/>
<path d="M256.655 167.394C254.879 168.297 252.852 168.583 250.895 168.206C250.828 168.193 250.758 168.2 250.694 168.225C250.63 168.251 250.574 168.294 250.534 168.35C250.493 168.406 250.47 168.472 250.465 168.541C250.461 168.61 250.477 168.678 250.51 168.739C251.095 169.767 252.478 171.524 254.851 170.808C256.384 170.346 256.964 168.769 257.178 167.793C257.193 167.726 257.188 167.655 257.165 167.59C257.141 167.525 257.099 167.469 257.044 167.427C256.989 167.385 256.923 167.36 256.854 167.354C256.786 167.348 256.716 167.362 256.655 167.394Z" fill="white"/>
<path d="M256.766 159.494C257.24 159.494 257.625 159.11 257.625 158.636C257.625 158.162 257.24 157.777 256.766 157.777C256.292 157.777 255.908 158.162 255.908 158.636C255.908 159.11 256.292 159.494 256.766 159.494Z" fill="#0C0C0C"/>
<path d="M248.518 160.938C248.992 160.938 249.377 160.554 249.377 160.08C249.377 159.606 248.992 159.222 248.518 159.222C248.044 159.222 247.66 159.606 247.66 160.08C247.66 160.554 248.044 160.938 248.518 160.938Z" fill="#0C0C0C"/>
<path d="M274.074 223.202C274.069 223.203 274.063 223.203 274.058 223.202C274.023 223.198 273.991 223.179 273.97 223.151C273.949 223.123 273.94 223.088 273.945 223.053L275.462 207.766C275.464 207.749 275.469 207.732 275.478 207.717C275.487 207.701 275.499 207.688 275.513 207.678C275.527 207.667 275.543 207.659 275.56 207.655C275.577 207.651 275.594 207.65 275.612 207.653C275.646 207.658 275.678 207.676 275.699 207.704C275.72 207.732 275.729 207.768 275.725 207.802L274.207 223.089C274.203 223.121 274.187 223.15 274.162 223.171C274.138 223.192 274.107 223.203 274.074 223.202V223.202Z" fill="#0C0C0C"/>
<path d="M264.892 222.466L273.185 218.762C273.367 218.681 273.564 218.639 273.763 218.638C273.962 218.637 274.16 218.678 274.342 218.758C274.525 218.837 274.689 218.954 274.825 219.1C274.96 219.247 275.063 219.42 275.128 219.608C275.237 219.96 275.212 220.34 275.057 220.674C274.902 221.008 274.628 221.273 274.289 221.417L272.51 222.212L279.249 222.281C280 222.276 280.921 222.749 280.872 223.59C280.874 223.914 280.766 224.23 280.566 224.486C280.365 224.742 280.084 224.922 279.768 224.997C279.77 225.004 279.771 225.011 279.771 225.018C279.77 225.024 279.769 225.029 279.768 225.034L280.923 225.026C281.137 225.025 281.348 225.071 281.542 225.162C281.736 225.252 281.907 225.385 282.043 225.55C282.179 225.715 282.276 225.908 282.328 226.116C282.38 226.323 282.385 226.539 282.342 226.749C282.268 227.078 282.084 227.371 281.82 227.58C281.555 227.789 281.227 227.901 280.89 227.897L280.398 227.901C280.392 227.915 280.383 227.928 280.372 227.939C280.705 228.014 281 228.205 281.205 228.477C281.41 228.75 281.512 229.086 281.492 229.427C281.458 229.798 281.286 230.144 281.01 230.395C280.733 230.645 280.372 230.782 279.999 230.778L278.777 230.787C278.795 230.799 278.809 230.815 278.819 230.833C278.829 230.852 278.834 230.873 278.834 230.894C278.833 230.919 278.825 230.943 278.811 230.964C279.089 231.113 279.311 231.349 279.441 231.637C279.572 231.924 279.605 232.246 279.534 232.554C279.454 232.875 279.268 233.16 279.005 233.362C278.743 233.564 278.42 233.672 278.089 233.668L267.785 233.742C266.343 233.752 264.931 233.331 263.73 232.534C262.529 231.737 261.594 230.599 261.043 229.266V229.266C260.569 228.117 260.561 226.828 261.021 225.674C261.482 224.519 262.375 223.589 263.51 223.082L264.892 222.466Z" fill="#E98862"/>
<g opacity="0.2">
<path d="M273.098 224.961C273.098 224.996 273.112 225.029 273.136 225.054C273.161 225.079 273.195 225.093 273.23 225.093L279.638 225.151C279.674 225.151 279.707 225.138 279.732 225.113C279.758 225.088 279.772 225.055 279.772 225.02C279.772 224.984 279.759 224.951 279.734 224.926C279.709 224.901 279.676 224.886 279.641 224.886L273.231 224.828C273.196 224.828 273.163 224.842 273.138 224.867C273.113 224.892 273.099 224.925 273.099 224.961H273.098Z" fill="#0C0C0C"/>
</g>
<g opacity="0.2">
<path d="M272.995 227.788C272.995 227.823 273.009 227.857 273.033 227.881C273.058 227.906 273.092 227.92 273.127 227.92L280.278 227.985C280.313 227.985 280.347 227.971 280.372 227.946C280.397 227.921 280.411 227.887 280.411 227.852C280.41 227.817 280.396 227.784 280.371 227.76C280.346 227.735 280.313 227.721 280.278 227.72L273.127 227.655C273.092 227.655 273.058 227.669 273.033 227.694C273.008 227.719 272.994 227.753 272.994 227.788H272.995Z" fill="#0C0C0C"/>
</g>
<g opacity="0.2">
<path d="M272.865 230.845C272.865 230.881 272.879 230.914 272.904 230.939C272.929 230.964 272.963 230.978 272.998 230.978L278.702 231.03C278.738 231.03 278.771 231.016 278.796 230.991C278.821 230.966 278.835 230.932 278.835 230.897C278.835 230.862 278.821 230.828 278.796 230.803C278.771 230.779 278.738 230.765 278.702 230.765L272.998 230.713C272.963 230.713 272.929 230.727 272.904 230.752C272.879 230.777 272.865 230.811 272.865 230.846V230.845Z" fill="#0C0C0C"/>
</g>
<path d="M267.267 237.233L238.618 243.744H238.614C230.527 241.323 223.086 237.121 216.837 231.447C216.166 230.837 215.509 230.213 214.867 229.573C213.748 228.456 212.678 227.295 211.656 226.089L215.667 193.827C216.104 191.226 217.557 188.906 219.706 187.376C221.854 185.847 224.522 185.233 227.123 185.671C229.723 186.108 232.044 187.561 233.573 189.709C235.103 191.858 235.716 194.526 235.279 197.126L232.743 227.418L264.687 220.187L267.267 237.233Z" fill="#0CBC8B"/>
<path d="M226.281 228.608C226.264 228.61 226.247 228.608 226.23 228.602C226.213 228.597 226.198 228.588 226.185 228.577C226.172 228.565 226.161 228.551 226.153 228.536C226.145 228.52 226.14 228.503 226.139 228.486C226.138 228.469 226.14 228.451 226.145 228.434C226.151 228.418 226.159 228.403 226.171 228.389C226.182 228.376 226.196 228.365 226.212 228.357C226.227 228.349 226.244 228.345 226.262 228.343L232.666 226.974C232.684 226.972 232.701 226.972 232.718 226.977C232.735 226.981 232.751 226.988 232.765 226.998C232.779 227.009 232.791 227.022 232.8 227.037C232.809 227.052 232.815 227.068 232.817 227.085C232.82 227.103 232.819 227.12 232.815 227.137C232.811 227.154 232.803 227.17 232.793 227.184C232.782 227.198 232.769 227.21 232.754 227.219C232.739 227.228 232.723 227.234 232.706 227.236L226.299 228.605C226.293 228.607 226.287 228.608 226.281 228.608V228.608Z" fill="#0C0C0C"/>
<path d="M267.266 237.233C267.273 237.267 267.267 237.302 267.249 237.332C267.231 237.361 267.202 237.383 267.169 237.392L239.337 243.951C239.16 243.902 238.988 243.854 238.816 243.801L266.975 237.171L264.466 220.386L232.711 227.237C232.691 227.24 232.67 227.239 232.65 227.233C232.63 227.227 232.612 227.216 232.597 227.202C232.583 227.186 232.574 227.168 232.567 227.148C232.561 227.128 232.559 227.108 232.561 227.087L234.341 209.777C234.344 209.76 234.351 209.743 234.36 209.728C234.37 209.714 234.382 209.701 234.397 209.691C234.411 209.681 234.427 209.674 234.444 209.671C234.461 209.667 234.479 209.667 234.496 209.67C234.53 209.676 234.562 209.695 234.582 209.723C234.603 209.751 234.612 209.786 234.606 209.821L232.853 226.955L264.523 220.09C264.54 220.086 264.558 220.085 264.576 220.088C264.593 220.091 264.61 220.098 264.625 220.108C264.64 220.116 264.653 220.128 264.664 220.141C264.674 220.155 264.682 220.17 264.686 220.187L267.266 237.233Z" fill="#0C0C0C"/>
<path d="M51.8889 311.303C80.5463 311.303 103.778 288.072 103.778 259.414C103.778 230.757 80.5463 207.525 51.8889 207.525C23.2314 207.525 0 230.757 0 259.414C0 288.072 23.2314 311.303 51.8889 311.303Z" fill="white"/>
<path opacity="0.09" d="M51.8889 311.303C80.5463 311.303 103.778 288.072 103.778 259.414C103.778 230.757 80.5463 207.525 51.8889 207.525C23.2314 207.525 0 230.757 0 259.414C0 288.072 23.2314 311.303 51.8889 311.303Z" fill="#367CFF"/>
<path d="M37.5977 229.983C37.5977 229.983 38.1599 245.611 48.5908 246.329L50.3576 225.721L37.5977 229.983Z" fill="#0A0A0A"/>
<path d="M39.6072 249.521C43.02 249.521 45.7866 246.755 45.7866 243.342C45.7866 239.929 43.02 237.163 39.6072 237.163C36.1944 237.163 33.4277 239.929 33.4277 243.342C33.4277 246.755 36.1944 249.521 39.6072 249.521Z" fill="#0A0A0A"/>
<path d="M63.7853 253.583C63.7301 253.575 63.1196 263.709 51.3473 262.825C43.1974 262.216 40.2919 253.569 40.1055 253.569C41.0368 253.415 41.9555 253.192 42.8542 252.903C44.1374 252.213 45.7253 251.496 46.1387 249.004C46.3772 247.567 45.9731 240.219 46.0972 238.766L58.6072 241.558C58.4305 244.627 57.2087 251.742 61.4968 253.002C62.2097 253.21 62.9783 253.402 63.7853 253.583Z" fill="#E98862"/>
<path opacity="0.5" d="M58.7816 250.093C58.5855 249.461 58.4593 248.809 58.4052 248.149C58.2678 246.646 58.2952 245.131 58.4869 243.634C55.9443 243.29 53.549 242.241 51.5729 240.604C51.3406 241.462 50.0632 245.211 50.417 246.026C51.0857 247.57 54.2276 250.093 58.7816 250.093Z" fill="#0C0C0C"/>
<path d="M56.8225 247.363C51.8679 247.426 45.6739 244.926 44.9062 238.271L44.2136 232.263C43.4455 225.608 46.3188 219.807 52.5857 219.086C58.8522 218.363 64.1584 223.218 64.9265 229.874L65.233 232.533C65.5276 235.088 65.6628 247.251 56.8225 247.363Z" fill="#E98862"/>
<path d="M63.4371 232.354C63.8662 232.354 64.2141 232.006 64.2141 231.577C64.2141 231.148 63.8662 230.8 63.4371 230.8C63.008 230.8 62.6602 231.148 62.6602 231.577C62.6602 232.006 63.008 232.354 63.4371 232.354Z" fill="#0C0C0C"/>
<path d="M55.4957 233.262C55.9248 233.262 56.2727 232.915 56.2727 232.485C56.2727 232.056 55.9248 231.708 55.4957 231.708C55.0666 231.708 54.7188 232.056 54.7188 232.485C54.7188 232.915 55.0666 233.262 55.4957 233.262Z" fill="#0C0C0C"/>
<path opacity="0.5" d="M59.4355 238.401H59.4479C59.7018 238.37 59.9538 238.325 60.2028 238.266C60.5747 238.175 61.065 238.016 61.0265 237.683C60.9824 237.304 59.4722 233.332 59.2999 232.881C59.2925 232.861 59.2812 232.843 59.2669 232.828C59.2525 232.813 59.2353 232.801 59.2163 232.792C59.1972 232.784 59.1766 232.779 59.1557 232.778C59.1348 232.778 59.1141 232.781 59.0945 232.789C59.075 232.796 59.0572 232.807 59.042 232.822C59.0268 232.836 59.0146 232.853 59.0061 232.872C58.9975 232.892 58.9928 232.912 58.9922 232.933C58.9917 232.954 58.9952 232.975 59.0027 232.994C59.6471 234.685 60.6811 237.465 60.7103 237.72C60.3127 237.944 59.8672 238.069 59.4112 238.085C59.3692 238.088 59.3301 238.108 59.3027 238.14C59.2752 238.172 59.2616 238.214 59.2648 238.256C59.268 238.298 59.2878 238.337 59.3198 238.365C59.3519 238.392 59.3935 238.406 59.4355 238.402V238.401Z" fill="#0C0C0C"/>
<path opacity="0.5" d="M58.316 241.17C59.3338 241.112 60.3237 240.816 61.206 240.305C61.2408 240.284 61.2659 240.25 61.2762 240.21C61.2866 240.17 61.2813 240.128 61.2615 240.093C61.2417 240.057 61.2089 240.03 61.1699 240.018C61.1309 240.005 61.0886 240.008 61.0519 240.026C59.1464 241.081 57.3239 241.142 55.7824 240.203C55.7512 240.183 55.7191 240.165 55.6861 240.148C55.6479 240.133 55.6054 240.134 55.5675 240.15C55.5296 240.165 55.4992 240.195 55.4825 240.232C55.4658 240.27 55.4643 240.312 55.4781 240.351C55.4919 240.389 55.52 240.421 55.5566 240.439C55.5686 240.446 55.5889 240.458 55.6167 240.475C56.4272 240.971 57.3671 241.213 58.316 241.17V241.17Z" fill="#0C0C0C"/>
<path d="M39.1181 233.971L44.7335 233.356C49.0529 231.961 50.8476 224.787 50.8476 224.787C50.8476 224.787 54.7182 229.188 66.1884 227.178C66.1884 227.178 65.7441 212.391 48.2994 214.473C42.2255 215.199 37.6454 221.29 37.5982 229.254C37.5655 234.835 39.1181 233.971 39.1181 233.971Z" fill="#0A0A0A"/>
<path d="M45.5288 240.253C43.6242 240.474 41.8454 238.614 41.6259 236.709C41.4064 234.804 42.8287 233.576 44.7333 233.357L45.8618 234.52L47.1662 240.064L45.5288 240.253Z" fill="#E98862"/>
<path d="M60.69 229.638C61.2517 229.328 61.8866 229.173 62.5284 229.191C62.8453 229.198 63.1593 229.253 63.4599 229.353C63.7586 229.452 64.0437 229.587 64.3085 229.757C64.335 229.774 64.3539 229.8 64.3614 229.831C64.3689 229.861 64.3644 229.893 64.3487 229.92C64.3331 229.948 64.3075 229.968 64.2774 229.977C64.2472 229.985 64.2149 229.982 64.187 229.968L64.179 229.963C63.9282 229.814 63.6596 229.698 63.3795 229.616C63.1022 229.533 62.8139 229.493 62.5244 229.496C61.9484 229.499 61.3835 229.654 60.887 229.946L60.8751 229.954C60.8546 229.967 60.8315 229.976 60.8074 229.981C60.7832 229.985 60.7584 229.985 60.7345 229.979C60.7105 229.974 60.6879 229.964 60.668 229.949C60.648 229.935 60.6312 229.917 60.6184 229.896C60.6057 229.875 60.5973 229.852 60.5937 229.827C60.5902 229.803 60.5915 229.778 60.5978 229.755C60.604 229.731 60.6149 229.709 60.63 229.689C60.645 229.67 60.6637 229.653 60.6852 229.641L60.69 229.638Z" fill="#0C0C0C"/>
<path d="M55.6561 230.564C55.107 230.39 54.5215 230.365 53.9595 230.491C53.6764 230.553 53.4043 230.657 53.1525 230.801C52.898 230.943 52.6623 231.117 52.4511 231.318L52.4444 231.324C52.4204 231.342 52.3907 231.35 52.3609 231.348C52.3312 231.345 52.3034 231.331 52.283 231.309C52.2625 231.288 52.2508 231.259 52.25 231.229C52.2493 231.199 52.2595 231.17 52.2788 231.147C52.499 230.923 52.7465 230.727 53.0156 230.565C53.2863 230.4 53.5802 230.276 53.8875 230.199C54.509 230.038 55.1623 230.046 55.7793 230.224C55.8032 230.23 55.8255 230.241 55.8451 230.256C55.8646 230.271 55.881 230.289 55.8931 230.311C55.9052 230.332 55.9129 230.356 55.9157 230.38C55.9185 230.405 55.9163 230.43 55.9093 230.453C55.9023 230.477 55.8906 230.499 55.8749 230.518C55.8592 230.537 55.8398 230.552 55.8179 230.563C55.796 230.575 55.7721 230.582 55.7476 230.583C55.723 230.585 55.6984 230.582 55.6751 230.574H55.6702L55.6561 230.564Z" fill="#0C0C0C"/>
<path opacity="0.52" d="M58.4227 242.676C58.6069 242.668 58.7901 242.645 58.9704 242.606C59.0105 242.596 59.0452 242.571 59.0671 242.536C59.089 242.501 59.0965 242.459 59.088 242.419C59.0795 242.378 59.0556 242.343 59.0214 242.319C58.9871 242.296 58.9453 242.287 58.9046 242.294C58.6231 242.377 58.3273 242.398 58.0369 242.357C57.7465 242.316 57.4683 242.213 57.2208 242.055C57.1881 242.029 57.1462 242.016 57.1042 242.02C57.0622 242.025 57.0236 242.045 56.9969 242.078C56.9701 242.111 56.9575 242.153 56.9617 242.195C56.966 242.237 56.9867 242.275 57.0194 242.302C57.4299 242.585 57.9258 242.717 58.4227 242.676V242.676Z" fill="#0C0C0C"/>
<path opacity="0.1" d="M54.4205 238.524C55.2374 238.495 55.8827 237.986 55.8617 237.387C55.8407 236.788 55.1615 236.325 54.3445 236.354C53.5275 236.383 52.8822 236.892 52.9032 237.491C52.9242 238.09 53.6035 238.553 54.4205 238.524Z" fill="#0C0C0C"/>
<path opacity="0.1" d="M63.1625 236.87C63.1855 237.468 63.8644 237.93 64.6815 237.903C64.8228 237.898 64.9631 237.878 65.1003 237.844C65.197 237.141 65.2562 236.462 65.2884 235.831C65.0685 235.756 64.8364 235.723 64.6042 235.733C63.7888 235.76 63.1439 236.268 63.1625 236.87Z" fill="#0C0C0C"/>
<path d="M81.3679 264.256C81.3325 267.794 80.1179 272.012 79.685 277.109C79.5701 278.47 76.65 282.405 76.226 286.783C75.6915 292.357 76.8802 301.05 77.0392 304.809C68.8315 309.35 59.5469 311.584 50.1716 311.273C40.7963 310.962 31.6802 308.118 23.7916 303.042C23.5796 293.386 23.3278 281.465 23.0054 278.607C21.9586 269.172 22.2412 263.204 23.7519 260.413C26.221 255.854 30.616 254.463 35.2141 253.836C38.0234 253.456 42.2417 253.187 42.2417 253.187C42.2417 253.187 42.5994 260.417 51.1243 260.819C62.7279 261.367 61.9549 253.187 62.0124 253.187C66.2218 253.187 74.199 254.194 77.2556 256.278C80.4977 258.483 81.4076 261.097 81.3679 264.256Z" fill="#FFC239"/>
<path d="M41.2802 269.759L25.5378 304.113C19.4935 300.545 14.2345 295.789 10.0781 290.133L23.21 261.476L41.2802 269.759Z" fill="#FFC239"/>
<path d="M94.0856 289.614C91.0016 293.917 87.2794 297.724 83.0473 300.904C81.6544 301.956 80.2081 302.935 78.7142 303.837L62.5566 268.315L80.6489 260.082L94.0856 289.614Z" fill="#FFC239"/>
<path d="M159.878 108.049C189.715 108.049 213.903 83.8614 213.903 54.0245C213.903 24.1876 189.715 0 159.878 0C130.041 0 105.854 24.1876 105.854 54.0245C105.854 83.8614 130.041 108.049 159.878 108.049Z" fill="white"/>
<path opacity="0.09" d="M159.878 108.049C189.715 108.049 213.903 83.8614 213.903 54.0245C213.903 24.1876 189.715 0 159.878 0C130.041 0 105.854 24.1876 105.854 54.0245C105.854 83.8614 130.041 108.049 159.878 108.049Z" fill="#367CFF"/>
<path d="M170.323 21.673C170.323 21.673 173.744 17.9653 173.48 10.9034C173.275 5.43549 168.984 9.77878 168.984 9.77878C168.984 9.77878 168.798 5.84319 166.069 6.73101C163.339 7.61884 162.5 11.9405 162.5 11.9405" fill="#0C0C0C"/>
<path d="M151.675 9.80127C151.675 9.80127 138.051 13.8053 146.481 31.7235L147.725 31.5831L150.251 31.2986" fill="#0C0C0C"/>
<path d="M170.983 50.3101C170.921 50.3021 170.232 61.7326 156.953 60.7343C147.76 60.0457 144.482 50.2924 144.271 50.2924C145.263 50.0817 146.488 49.7624 146.974 49.6524C148.035 49.4062 148.996 48.8427 149.729 48.037C150.462 47.2314 150.932 46.2216 151.077 45.1421C151.346 43.522 150.89 35.2329 151.03 33.5938L165.141 36.7431C164.944 40.2056 163.564 48.2319 168.401 49.6524C169.206 49.8878 170.073 50.1042 170.983 50.3101Z" fill="#E98862"/>
<path opacity="0.52" d="M165.341 46.3726C165.12 45.6603 164.977 44.9259 164.916 44.1826C164.761 42.4864 164.792 40.7784 165.008 39.0889C162.14 38.7018 159.438 37.5179 157.21 35.6719C156.947 36.6397 155.506 40.8681 155.905 41.7877C156.66 43.5263 160.203 46.3726 165.341 46.3726Z" fill="#0C0C0C"/>
<path d="M163.037 42.7334C157.471 43.2338 150.287 40.9595 148.847 33.5406L147.547 26.8465C146.106 19.4259 148.835 12.6568 155.82 11.3007C162.805 9.94426 169.194 14.9448 170.635 22.3637L171.209 25.3271C171.389 26.348 171.499 27.38 171.539 28.4159C171.663 31.1545 171.842 35.3167 170.526 38.3936C169.284 41.2991 166.593 42.414 163.037 42.7334Z" fill="#E98862"/>
<path opacity="0.5" d="M163.877 35.3991C164.896 35.3799 165.897 35.1215 166.798 34.6447C166.817 34.6358 166.835 34.623 166.85 34.6072C166.864 34.5914 166.875 34.5727 166.882 34.5524C166.89 34.5322 166.893 34.5106 166.891 34.4892C166.89 34.4677 166.884 34.4468 166.874 34.4276C166.865 34.4084 166.851 34.3913 166.835 34.3775C166.818 34.3636 166.799 34.3532 166.779 34.3469C166.758 34.3406 166.737 34.3386 166.715 34.3409C166.694 34.3431 166.673 34.3497 166.654 34.3602C164.711 35.3412 162.887 35.332 161.382 34.3363C161.352 34.3153 161.32 34.2959 161.288 34.278C161.269 34.2688 161.249 34.2634 161.228 34.262C161.207 34.2607 161.186 34.2635 161.166 34.2702C161.147 34.277 161.128 34.2876 161.113 34.3014C161.097 34.3152 161.084 34.3319 161.075 34.3507C161.066 34.3695 161.06 34.3899 161.059 34.4107C161.058 34.4316 161.06 34.4525 161.067 34.4723C161.074 34.4921 161.084 34.5104 161.098 34.5261C161.112 34.5418 161.129 34.5546 161.148 34.5638C161.16 34.5705 161.179 34.5837 161.206 34.6018C161.997 35.1275 162.927 35.4051 163.877 35.3991V35.3991Z" fill="#0C0C0C"/>
<path opacity="0.52" d="M163.927 36.9083C164.111 36.9078 164.295 36.8915 164.477 36.8598C164.498 36.8562 164.517 36.8487 164.535 36.8376C164.553 36.8265 164.568 36.812 164.58 36.7949C164.592 36.7779 164.601 36.7586 164.605 36.7383C164.61 36.7179 164.611 36.6968 164.607 36.6762C164.604 36.6556 164.596 36.6359 164.585 36.6183C164.574 36.6006 164.559 36.5853 164.542 36.5732C164.525 36.5611 164.506 36.5525 164.486 36.5479C164.465 36.5432 164.444 36.5426 164.424 36.5461C164.139 36.6174 163.843 36.6272 163.554 36.575C163.266 36.5227 162.991 36.4096 162.75 36.2431C162.718 36.2163 162.677 36.2029 162.636 36.206C162.594 36.209 162.556 36.2282 162.528 36.2594C162.501 36.2906 162.486 36.3314 162.489 36.3729C162.491 36.4145 162.509 36.4535 162.54 36.4817C162.939 36.7801 163.429 36.9309 163.927 36.9083V36.9083Z" fill="#0C0C0C"/>
<path d="M168.962 27.1965C169.446 27.1965 169.839 26.8042 169.839 26.3202C169.839 25.8362 169.446 25.4438 168.962 25.4438C168.478 25.4438 168.086 25.8362 168.086 26.3202C168.086 26.8042 168.478 27.1965 168.962 27.1965Z" fill="#0C0C0C"/>
<path d="M160.441 28.1926C160.925 28.1926 161.317 27.8003 161.317 27.3163C161.317 26.8323 160.925 26.4399 160.441 26.4399C159.957 26.4399 159.564 26.8323 159.564 27.3163C159.564 27.8003 159.957 28.1926 160.441 28.1926Z" fill="#0C0C0C"/>
<path d="M149.719 35.7168C147.596 36.1289 145.434 34.192 145.022 32.0692C144.609 29.9463 146.104 28.4419 148.226 28.0298L149.595 29.2396L151.543 35.3625L149.719 35.7168Z" fill="#E98862"/>
<path d="M151.216 31.9141C151.216 31.9141 150.03 21.2624 153.103 20.0353C155.149 19.2177 160.848 21.299 165.456 19.5251C167.472 18.7486 169.548 18.9068 169.928 19.8569C170.079 20.2327 170.364 14.385 166.323 10.7175C163.105 7.79787 154.413 8.38224 150.738 10.1959C140.562 15.2176 147.87 28.5708 147.87 28.5708L149.006 32.1115L151.216 31.9141Z" fill="#0C0C0C"/>
<g opacity="0.52">
<path d="M165.184 32.7611H165.197C165.882 32.6286 167.015 32.3339 166.92 31.822C166.838 31.3975 164.8 27.0405 164.568 26.5454C164.558 26.5243 164.545 26.5054 164.527 26.4897C164.51 26.474 164.49 26.4618 164.468 26.4539C164.446 26.446 164.423 26.4425 164.4 26.4435C164.376 26.4446 164.354 26.4503 164.333 26.4601C164.311 26.47 164.292 26.484 164.277 26.5012C164.261 26.5184 164.249 26.5385 164.241 26.5604C164.233 26.5823 164.23 26.6056 164.231 26.6288C164.232 26.6521 164.237 26.6749 164.247 26.696C165.151 28.6254 166.516 31.5989 166.572 31.8883C166.527 32.0208 165.842 32.2765 165.133 32.4121C165.086 32.4191 165.044 32.4444 165.016 32.4825C164.988 32.5205 164.976 32.5682 164.983 32.6151C164.99 32.6619 165.015 32.7041 165.053 32.7323C165.091 32.7605 165.139 32.7725 165.186 32.7655L165.184 32.7611Z" fill="#0C0C0C"/>
</g>
<path d="M165.667 22.0845C166.352 21.7561 167.113 21.6188 167.869 21.687C168.24 21.7182 168.605 21.8048 168.95 21.944C169.291 22.0796 169.614 22.2577 169.91 22.4741C169.965 22.5121 170.004 22.5701 170.017 22.6357C170.03 22.7013 170.017 22.7695 169.981 22.8258C169.945 22.8822 169.888 22.9224 169.823 22.9379C169.758 22.9535 169.69 22.9432 169.632 22.9092L169.612 22.9021C169.343 22.7304 169.054 22.5931 168.751 22.4935C168.453 22.394 168.141 22.3403 167.827 22.3341C167.208 22.3168 166.595 22.4635 166.051 22.7594L166.028 22.7722C165.984 22.7975 165.935 22.8138 165.884 22.8203C165.834 22.8267 165.783 22.8231 165.733 22.8096C165.684 22.7962 165.638 22.7732 165.598 22.742C165.557 22.7107 165.524 22.6719 165.498 22.6276C165.473 22.5833 165.457 22.5344 165.45 22.4839C165.444 22.4333 165.448 22.3819 165.461 22.3327C165.474 22.2835 165.497 22.2374 165.529 22.1971C165.56 22.1568 165.599 22.123 165.643 22.0977L165.667 22.0845Z" fill="#0C0C0C"/>
<path d="M160.643 23.4423C160.046 23.2754 159.416 23.2688 158.816 23.4233C158.511 23.4992 158.22 23.6209 157.951 23.7842C157.677 23.9487 157.425 24.1468 157.2 24.3739L157.186 24.388C157.138 24.4349 157.073 24.461 157.006 24.4608C156.938 24.4606 156.874 24.434 156.826 24.3869C156.777 24.3397 156.75 24.2756 156.748 24.2082C156.747 24.1409 156.771 24.0756 156.817 24.0263C157.058 23.7488 157.333 23.5029 157.635 23.2944C157.941 23.0817 158.277 22.916 158.632 22.8027C158.987 22.6858 159.356 22.618 159.729 22.6013C160.111 22.5803 160.495 22.6136 160.867 22.7003C160.968 22.7237 161.055 22.786 161.109 22.8735C161.163 22.961 161.181 23.0664 161.157 23.1667C161.134 23.267 161.071 23.3539 160.984 23.4082C160.896 23.4625 160.791 23.4799 160.691 23.4565L160.668 23.4503L160.643 23.4423Z" fill="#0C0C0C"/>
<path d="M163.331 15.0279C164.846 14.4138 165.342 12.108 164.438 9.87763C163.534 7.64729 161.573 6.33705 160.058 6.95112C158.543 7.56519 158.047 9.87104 158.951 12.1014C159.855 14.3317 161.816 15.642 163.331 15.0279Z" fill="#0C0C0C"/>
<path d="M189.336 62.1217C189.389 65.7834 187.958 69.9001 187.481 75.4744C187.384 76.6052 187.154 79.0964 186.849 82.3429C186.35 87.7185 185.643 95.1524 185.025 101.853C176.181 106.495 166.226 108.598 156.26 107.929C146.295 107.26 136.71 103.845 128.566 98.0632C128.372 97.9175 128.177 97.7761 127.983 97.6392C127.466 90.0639 126.857 82.1133 126.3 77.0911C125.253 67.7137 123.827 63.0448 124.626 59.8911C124.69 59.6225 124.776 59.3596 124.882 59.1048C127.184 53.5217 134.511 51.0305 139.476 50.3591C142.506 49.9483 147.065 49.6523 147.065 49.6523C147.065 49.6523 147.449 57.4617 156.65 57.8946C169.176 58.4864 168.342 49.6523 168.403 49.6523C170.431 49.6523 181.478 51.1276 184.239 52.9298C184.701 53.2303 185.144 53.5608 185.564 53.9192C186.763 54.9196 187.724 56.1751 188.377 57.5941C189.029 59.0132 189.357 60.5599 189.336 62.1217Z" fill="#383838"/>
<path d="M143.213 67.7845L128.566 98.0634C128.372 97.9176 128.178 97.7763 127.983 97.6394C122.305 93.476 117.49 88.2496 113.805 82.2504L124.626 59.8912L125.055 59.0034L143.213 67.7845Z" fill="#383838"/>
<path d="M141.799 71.2696L128.477 97.9971C128.389 97.9309 128.305 97.869 128.217 97.8116L141.521 71.1326C141.54 71.0955 141.573 71.0673 141.613 71.0541C141.652 71.0409 141.695 71.0437 141.733 71.062C141.769 71.0807 141.797 71.1131 141.809 71.152C141.821 71.191 141.818 71.2332 141.799 71.2696V71.2696Z" fill="white"/>
<path d="M209.346 75.7748C206.691 81.7924 202.963 87.2765 198.343 91.9588L186.85 82.3429L172.252 70.1254L185.565 53.9192L185.605 53.8706L209.346 75.7748Z" fill="#383838"/>
<path d="M187.026 82.4613C187.063 82.4594 187.099 82.444 187.126 82.4179C187.153 82.3919 187.17 82.3569 187.173 82.3195L187.931 73.428C187.935 73.3869 187.922 73.3461 187.896 73.3146C187.869 73.283 187.831 73.2633 187.79 73.2597C187.749 73.2567 187.709 73.2698 187.677 73.2962C187.646 73.3226 187.626 73.3602 187.622 73.401L186.864 82.293C186.86 82.334 186.873 82.3747 186.9 82.4061C186.926 82.4376 186.964 82.4573 187.005 82.4608L187.026 82.4613Z" fill="white"/>
<path d="M414.264 341.991C442.722 341.991 465.792 318.921 465.792 290.463C465.792 262.005 442.722 238.935 414.264 238.935C385.806 238.935 362.736 262.005 362.736 290.463C362.736 318.921 385.806 341.991 414.264 341.991Z" fill="white"/>
<path opacity="0.09" d="M362.737 290.462C362.737 300.653 365.759 310.615 371.42 319.089C377.082 327.562 385.13 334.167 394.545 338.067C403.96 341.967 414.321 342.987 424.316 340.999C434.311 339.011 443.493 334.104 450.699 326.897C457.905 319.691 462.813 310.51 464.801 300.515C466.789 290.519 465.769 280.159 461.869 270.744C457.969 261.328 451.364 253.281 442.891 247.619C434.417 241.957 424.455 238.935 414.264 238.935C407.49 238.91 400.779 240.226 394.516 242.806C388.253 245.387 382.563 249.181 377.773 253.971C372.983 258.761 369.189 264.451 366.608 270.714C364.028 276.976 362.712 283.688 362.737 290.462V290.462Z" fill="#367CFF"/>
<path d="M437.646 262.028C436.823 271.569 437.586 274.804 441.547 280.27C444.889 284.879 425.877 280.962 417.465 279.463L424.888 257.768C424.888 257.768 437.935 258.677 437.646 262.028Z" fill="#0A0A0A"/>
<path d="M408.623 258.058C406.141 267.307 406.42 270.169 401.563 275.026C397.537 279.051 413.226 279.87 421.644 281.332L422.07 258.408C422.07 258.408 409.495 254.811 408.623 258.058Z" fill="#0A0A0A"/>
<path d="M409.459 284.959C409.514 284.952 410.131 295.18 422.013 294.289C430.239 293.672 433.172 284.945 433.361 284.945C432.421 284.788 431.493 284.564 430.586 284.272C429.291 283.576 427.688 282.851 427.271 280.336C427.03 278.886 427.438 271.469 427.313 270L414.686 272.819C414.862 275.917 416.099 283.099 411.77 284.37C411.049 284.582 410.273 284.776 409.459 284.959Z" fill="#E98862"/>
<path opacity="0.5" d="M414.51 281.437C414.708 280.799 414.835 280.142 414.89 279.477C415.029 277.959 415.001 276.431 414.807 274.919C417.374 274.572 419.792 273.513 421.786 271.861C422.021 272.728 423.31 276.511 422.953 277.334C422.278 278.889 419.107 281.437 414.51 281.437Z" fill="#0C0C0C"/>
<path d="M416.142 278.25C421.12 278.732 427.561 276.74 428.895 270.111L430.1 264.129C431.434 257.499 429.033 251.424 422.792 250.168C416.549 248.912 410.802 253.348 409.468 259.976L408.935 262.627C408.423 265.169 407.259 277.392 416.142 278.25Z" fill="#E98862"/>
<path d="M436.125 266.017L430.51 265.402C419.522 263.382 416.831 254.515 416.831 254.515C416.831 254.515 412.222 260.669 408.309 259.256C408.309 259.256 409.57 244.418 426.943 247.026C433.769 248.05 437.645 253.709 437.645 261.299C437.645 266.879 436.125 266.017 436.125 266.017Z" fill="#0A0A0A"/>
<path opacity="0.1" d="M420.917 268.65C420.988 268.049 420.383 267.482 419.563 267.384C418.744 267.287 418.022 267.695 417.95 268.296C417.878 268.897 418.484 269.463 419.304 269.561C420.123 269.659 420.845 269.251 420.917 268.65Z" fill="#0C0C0C"/>
<path opacity="0.1" d="M410.651 267.16C410.578 267.76 409.856 268.168 409.036 268.071C408.895 268.054 408.755 268.022 408.62 267.976C408.582 267.261 408.58 266.573 408.601 265.935C408.828 265.879 409.065 265.865 409.297 265.895C410.114 265.991 410.72 266.558 410.651 267.16Z" fill="#0C0C0C"/>
<path opacity="0.5" d="M414.271 269.015H414.258C414.005 268.962 413.756 268.896 413.51 268.815C413.144 268.693 412.664 268.492 412.731 268.16C412.807 267.782 414.662 263.915 414.873 263.475C414.882 263.456 414.894 263.438 414.91 263.423C414.926 263.409 414.944 263.397 414.965 263.39C414.985 263.382 415.006 263.379 415.028 263.38C415.049 263.381 415.07 263.386 415.09 263.396C415.109 263.405 415.126 263.418 415.14 263.434C415.155 263.45 415.166 263.469 415.172 263.49C415.179 263.51 415.182 263.531 415.18 263.553C415.179 263.574 415.173 263.595 415.163 263.614C414.371 265.261 413.097 267.969 413.046 268.224C413.427 268.482 413.864 268.646 414.321 268.7C414.362 268.709 414.397 268.732 414.421 268.766C414.444 268.8 414.454 268.842 414.447 268.883C414.441 268.924 414.419 268.96 414.386 268.985C414.353 269.01 414.312 269.022 414.271 269.017V269.015Z" fill="#0C0C0C"/>
<path d="M428.101 272.053C429.999 272.434 431.944 270.715 432.326 268.817C432.708 266.92 431.381 265.565 429.484 265.183L428.251 266.257L426.471 271.724L428.101 272.053Z" fill="#E98862"/>
<path d="M413.528 260.389C413.294 260.223 413.038 260.089 412.769 259.991C412.496 259.889 412.21 259.825 411.919 259.8C411.628 259.772 411.335 259.789 411.049 259.848C410.76 259.907 410.48 260.002 410.216 260.131L410.207 260.134C410.179 260.144 410.147 260.144 410.119 260.132C410.091 260.12 410.068 260.099 410.055 260.071C410.042 260.044 410.039 260.012 410.048 259.983C410.057 259.954 410.076 259.929 410.103 259.913C410.383 259.765 410.681 259.653 410.99 259.579C411.301 259.503 411.622 259.475 411.941 259.495C412.588 259.531 413.213 259.74 413.752 260.1C413.791 260.128 413.817 260.17 413.826 260.217C413.834 260.265 413.824 260.314 413.797 260.353C413.77 260.393 413.728 260.421 413.681 260.43C413.634 260.44 413.585 260.431 413.544 260.405L413.54 260.402L413.528 260.389Z" fill="#0C0C0C"/>
<path d="M418.639 261.096C419.274 260.969 419.932 261.016 420.543 261.231C420.846 261.335 421.131 261.483 421.39 261.672C421.647 261.858 421.879 262.076 422.082 262.32C422.104 262.344 422.115 262.376 422.114 262.409C422.112 262.441 422.098 262.472 422.074 262.494C422.05 262.516 422.018 262.527 421.985 262.526C421.953 262.524 421.922 262.51 421.9 262.486L421.894 262.479C421.698 262.259 421.475 262.064 421.231 261.9C420.99 261.735 420.725 261.608 420.445 261.522C419.891 261.348 419.3 261.324 418.733 261.452L418.719 261.456C418.672 261.468 418.621 261.46 418.579 261.435C418.537 261.409 418.507 261.368 418.496 261.321C418.484 261.273 418.492 261.223 418.517 261.181C418.542 261.139 418.583 261.109 418.631 261.097L418.639 261.096Z" fill="#0C0C0C"/>
<path d="M390.323 336.099C388.297 335.215 386.781 334.27 383.322 331.664C380.826 329.791 378.507 327.693 376.393 325.398L394.154 291.601L394.926 290.133L410.945 298.555L397.049 325L396.985 325.116L397.106 325.587" fill="#EA394A"/>
<path d="M449.39 308.911C448.924 313.923 448.823 321.717 448.855 328.647C442.158 334.722 433.98 338.926 425.142 340.837C416.305 342.748 407.12 342.299 398.512 339.535C397.458 329.084 395.892 313.726 395.009 304.27C394.114 294.475 391.482 291.24 398.665 286.549C402.622 284.534 408.896 284.357 411.716 284.357C410.759 293.642 430.326 294.784 430.812 284.357C445.447 285.725 452.223 286.065 449.39 308.911Z" fill="#EA394A"/>
<path d="M412.601 270.322C414.218 271.144 416.064 271.405 417.846 271.061C417.907 271.049 417.971 271.055 418.03 271.079C418.088 271.102 418.139 271.141 418.175 271.192C418.212 271.243 418.234 271.304 418.237 271.366C418.241 271.429 418.227 271.492 418.196 271.547C417.666 272.483 416.405 274.083 414.243 273.431C412.848 273.01 412.32 271.576 412.123 270.686C412.109 270.624 412.114 270.56 412.135 270.5C412.157 270.441 412.195 270.389 412.245 270.351C412.296 270.313 412.356 270.289 412.419 270.284C412.482 270.279 412.545 270.292 412.601 270.322V270.322Z" fill="white"/>
<path d="M412.5 263.128C412.932 263.128 413.281 262.778 413.281 262.347C413.281 261.915 412.932 261.565 412.5 261.565C412.069 261.565 411.719 261.915 411.719 262.347C411.719 262.778 412.069 263.128 412.5 263.128Z" fill="#0C0C0C"/>
<path d="M420.01 264.443C420.441 264.443 420.791 264.093 420.791 263.661C420.791 263.23 420.441 262.88 420.01 262.88C419.578 262.88 419.229 263.23 419.229 263.661C419.229 264.093 419.578 264.443 420.01 264.443Z" fill="#0C0C0C"/>
<path d="M396.738 321.138H396.753C396.785 321.134 396.814 321.117 396.833 321.091C396.852 321.066 396.861 321.034 396.856 321.002L395.475 307.082C395.473 307.067 395.468 307.051 395.46 307.037C395.452 307.024 395.441 307.012 395.429 307.002C395.416 306.992 395.401 306.985 395.386 306.981C395.37 306.978 395.354 306.977 395.339 306.98C395.323 306.982 395.308 306.987 395.294 306.995C395.28 307.003 395.268 307.013 395.259 307.026C395.249 307.039 395.242 307.053 395.238 307.069C395.234 307.084 395.233 307.1 395.236 307.116L396.617 321.035C396.621 321.064 396.636 321.091 396.658 321.11C396.681 321.129 396.709 321.139 396.738 321.138V321.138Z" fill="#0C0C0C"/>
<path d="M394.933 310.538H380.83V327.834H394.933V310.538Z" fill="white"/>
<path d="M389.158 319.186C389.158 318.044 389.497 316.927 390.132 315.978C390.767 315.028 391.669 314.288 392.725 313.851C393.78 313.414 394.941 313.3 396.062 313.523C397.182 313.746 398.211 314.296 399.019 315.104C399.826 315.912 400.376 316.941 400.599 318.061C400.822 319.182 400.707 320.343 400.27 321.398C399.833 322.454 399.092 323.355 398.142 323.99C397.192 324.625 396.076 324.963 394.934 324.963C393.402 324.961 391.934 324.352 390.851 323.269C389.768 322.186 389.159 320.717 389.158 319.186V319.186ZM391.524 319.186C391.524 319.86 391.724 320.52 392.098 321.08C392.473 321.641 393.005 322.078 393.629 322.336C394.252 322.595 394.937 322.662 395.599 322.53C396.26 322.399 396.868 322.074 397.345 321.597C397.822 321.12 398.146 320.513 398.278 319.851C398.41 319.19 398.342 318.504 398.084 317.881C397.826 317.258 397.389 316.725 396.828 316.351C396.267 315.976 395.608 315.776 394.934 315.776C394.029 315.777 393.163 316.137 392.523 316.776C391.884 317.415 391.525 318.282 391.524 319.186V319.186Z" fill="white"/>
<path d="M394.82 321.326C394.868 321.034 395.017 320.767 395.241 320.573C395.465 320.38 395.751 320.271 396.047 320.266C396.039 320.254 396.033 320.241 396.03 320.227L395.61 320.136C395.317 320.078 395.053 319.921 394.863 319.691C394.673 319.461 394.568 319.172 394.566 318.874C394.569 318.687 394.613 318.502 394.696 318.334C394.778 318.166 394.897 318.019 395.044 317.902C395.19 317.786 395.361 317.703 395.543 317.661C395.725 317.618 395.915 317.616 396.098 317.656L397.089 317.87C397.089 317.866 397.089 317.863 397.089 317.859C397.091 317.851 397.094 317.843 397.097 317.836C396.839 317.714 396.63 317.509 396.503 317.254C396.377 316.998 396.34 316.707 396.4 316.428C396.509 315.695 397.388 315.454 398.032 315.593L400.598 316.053L399.732 315.478C399.459 315.289 399.268 315.003 399.197 314.678C399.126 314.353 399.182 314.014 399.352 313.728C399.445 313.584 399.566 313.46 399.708 313.364C399.851 313.268 400.011 313.202 400.18 313.17C400.349 313.139 400.522 313.141 400.69 313.179C400.857 313.216 401.015 313.287 401.154 313.388L411.499 325.225L409.202 324.183C408.489 325.232 407.479 326.044 406.302 326.514C405.125 326.985 403.834 327.094 402.595 326.826L396.985 325.603C396.692 325.545 396.429 325.388 396.238 325.158C396.048 324.928 395.943 324.639 395.941 324.341C395.946 324.071 396.036 323.81 396.198 323.596C396.361 323.381 396.588 323.225 396.846 323.148C396.838 323.129 396.835 323.108 396.838 323.088C396.841 323.069 396.849 323.051 396.861 323.035C396.873 323.02 396.888 323.008 396.906 323L395.871 322.776C395.545 322.713 395.255 322.528 395.06 322.258C394.865 321.989 394.779 321.656 394.82 321.326V321.326Z" fill="#E98862"/>
<path opacity="0.2" d="M398.963 318.286C398.99 318.281 399.014 318.266 399.031 318.244C399.048 318.222 399.057 318.196 399.056 318.168C399.056 318.14 399.046 318.114 399.028 318.093C399.01 318.072 398.985 318.058 398.958 318.053L397.225 317.76C397.21 317.757 397.194 317.756 397.178 317.76C397.162 317.763 397.147 317.769 397.134 317.778C397.121 317.787 397.109 317.798 397.101 317.812C397.092 317.825 397.086 317.84 397.084 317.856C397.081 317.872 397.082 317.888 397.085 317.904C397.089 317.919 397.096 317.934 397.105 317.947C397.115 317.96 397.127 317.97 397.141 317.979C397.154 317.987 397.17 317.992 397.186 317.994L398.918 318.287C398.933 318.29 398.948 318.29 398.963 318.286Z" fill="#0C0C0C"/>
<path opacity="0.2" d="M398.544 320.737C398.571 320.732 398.595 320.717 398.613 320.695C398.63 320.674 398.639 320.647 398.639 320.619C398.638 320.592 398.628 320.565 398.61 320.544C398.593 320.523 398.568 320.509 398.541 320.504L396.167 320.083C396.151 320.08 396.135 320.079 396.119 320.082C396.103 320.085 396.088 320.091 396.075 320.1C396.061 320.109 396.05 320.12 396.041 320.134C396.032 320.147 396.026 320.162 396.023 320.178C396.02 320.194 396.021 320.21 396.025 320.226C396.028 320.242 396.035 320.256 396.045 320.269C396.054 320.282 396.066 320.293 396.08 320.301C396.094 320.31 396.11 320.315 396.126 320.317L398.499 320.738C398.514 320.741 398.53 320.74 398.544 320.737V320.737Z" fill="#0C0C0C"/>
<path opacity="0.2" d="M398.108 323.395C398.136 323.389 398.16 323.374 398.177 323.352C398.194 323.33 398.203 323.303 398.202 323.275C398.202 323.247 398.191 323.221 398.173 323.2C398.154 323.179 398.129 323.165 398.102 323.161L396.976 322.989C396.946 322.986 396.915 322.995 396.891 323.013C396.868 323.032 396.852 323.059 396.847 323.089C396.842 323.119 396.85 323.15 396.867 323.175C396.884 323.2 396.91 323.217 396.94 323.223L398.066 323.396C398.08 323.398 398.094 323.398 398.108 323.395V323.395Z" fill="#0C0C0C"/>
<path d="M456.575 319.863C450.229 328.99 441.109 335.826 430.569 339.358L430.565 339.354C428.224 338.896 405.892 330.078 402.938 329.499L406.17 314.42C414.47 316.071 429.607 322.438 437.954 324.096L432.065 297.396C431.851 296.217 431.874 295.007 432.132 293.836C432.39 292.666 432.878 291.558 433.567 290.577C434.256 289.597 435.133 288.763 436.147 288.124C437.161 287.485 438.291 287.053 439.473 286.854C440.655 286.656 441.865 286.693 443.032 286.966C444.199 287.238 445.301 287.739 446.273 288.44C447.245 289.142 448.068 290.029 448.694 291.05C449.321 292.072 449.738 293.208 449.923 294.392L456.575 319.863Z" fill="#EA394A"/>
<path d="M444.281 326.061C444.311 326.06 444.34 326.048 444.362 326.028C444.384 326.007 444.397 325.979 444.399 325.949C444.402 325.919 444.393 325.889 444.374 325.865C444.356 325.842 444.329 325.826 444.299 325.821L438.023 323.692C438.008 323.689 437.992 323.69 437.976 323.693C437.961 323.697 437.946 323.704 437.933 323.713C437.921 323.723 437.91 323.735 437.902 323.748C437.894 323.762 437.888 323.777 437.886 323.793C437.881 323.825 437.889 323.857 437.908 323.883C437.928 323.908 437.956 323.925 437.988 323.93L444.263 326.059C444.269 326.06 444.275 326.061 444.281 326.061V326.061Z" fill="#0C0C0C"/>
<path d="M438.12 323.794C438.123 323.832 438.112 323.869 438.087 323.898C438.074 323.912 438.057 323.921 438.039 323.927C438.021 323.932 438.001 323.934 437.983 323.931L406.372 314.601L403.204 329.442L430.425 339.401C430.34 339.43 430.252 339.458 430.167 339.486C430.107 339.506 430.047 339.526 429.982 339.542L403.027 329.645C402.996 329.637 402.97 329.617 402.954 329.59C402.937 329.563 402.932 329.531 402.938 329.5L406.171 314.421C406.175 314.406 406.182 314.391 406.191 314.379C406.201 314.366 406.213 314.356 406.227 314.348C406.24 314.339 406.255 314.333 406.271 314.33C406.287 314.327 406.304 314.328 406.32 314.332L437.854 323.675L434.284 308.955C434.28 308.924 434.288 308.892 434.307 308.866C434.326 308.841 434.354 308.824 434.385 308.819C434.401 308.816 434.417 308.816 434.432 308.819C434.448 308.822 434.463 308.828 434.476 308.837C434.489 308.846 434.5 308.858 434.509 308.871C434.517 308.884 434.523 308.899 434.526 308.915L438.12 323.794Z" fill="#0C0C0C"/>
<path d="M25.9143 304.559C25.8849 304.559 25.8558 304.553 25.8286 304.542C25.8019 304.531 25.7776 304.514 25.7572 304.494C25.7368 304.473 25.7207 304.448 25.7097 304.422C25.6987 304.395 25.6932 304.366 25.6934 304.337C25.6935 304.308 25.6994 304.279 25.7107 304.253L34.3654 283.681C34.3882 283.627 34.4315 283.584 34.4858 283.562C34.5401 283.54 34.601 283.54 34.655 283.563C34.709 283.586 34.7517 283.629 34.7738 283.684C34.7959 283.738 34.7955 283.799 34.7727 283.853L26.1179 304.423C26.1011 304.464 26.0728 304.498 26.0366 304.522C26.0004 304.546 25.9578 304.559 25.9143 304.559Z" fill="#0C0C0C"/>
<path d="M76.8417 304.792H76.832C76.803 304.794 76.7741 304.789 76.7468 304.779C76.7195 304.769 76.6945 304.754 76.6731 304.735C76.6517 304.715 76.6343 304.691 76.622 304.665C76.6097 304.639 76.6027 304.61 76.6014 304.582L75.6367 283.541C75.636 283.483 75.6573 283.427 75.6963 283.384C75.7353 283.341 75.7892 283.315 75.847 283.31C75.876 283.309 75.905 283.313 75.9323 283.323C75.9596 283.333 75.9847 283.348 76.0062 283.368C76.0277 283.387 76.045 283.411 76.0574 283.437C76.0697 283.464 76.0767 283.492 76.078 283.521L77.0427 304.561C77.0455 304.618 77.0262 304.674 76.9887 304.717C76.9513 304.76 76.8986 304.787 76.8417 304.792Z" fill="#0C0C0C"/>
</svg>
