<svg xmlns="http://www.w3.org/2000/svg" width="px" height="50" viewBox="0 0 50 50"><path style="stroke:none;fill-rule:nonzero;fill:#f8f8f8;fill-opacity:1" d="M10.418 27.082v18.75H6.25v-18.75Zm37.5 0v4.168H43.75v14.582h-4.168V31.25h-4.164v-4.168ZM25 22.918a15.72 15.72 0 0 1 8.25 2.39l3.016-3.019A19.822 19.822 0 0 0 25 18.75a19.51 19.51 0 0 0-11.11 3.5l3.02 3.027A15.326 15.326 0 0 1 25 22.918Zm0 0"/><path style="stroke:none;fill-rule:nonzero;fill:#f8f8f8;fill-opacity:1" d="M25 14.582a23.948 23.948 0 0 1 14.238 4.73l2.973-2.98A28.087 28.087 0 0 0 25 10.418a27.763 27.763 0 0 0-17.055 5.879l2.973 2.976A23.632 23.632 0 0 1 25 14.582Zm0 0"/><path style="stroke:none;fill-rule:nonzero;fill:#f8f8f8;fill-opacity:1" d="M25 6.25a32.21 32.21 0 0 1 20.18 7.105l2.972-2.976a36.316 36.316 0 0 0-23.07-8.297A36.334 36.334 0 0 0 2 10.34l2.973 2.98A31.94 31.94 0 0 1 25 6.25Zm0 20.832c-1.855 0-3.668.55-5.207 1.582a9.385 9.385 0 0 0-3.988 9.625 9.366 9.366 0 0 0 2.566 4.797A9.374 9.374 0 1 0 31.63 29.828 9.372 9.372 0 0 0 25 27.082Zm0 14.586a5.223 5.223 0 0 1-2.895-.879 5.236 5.236 0 0 1-1.918-2.336c-.394-.953-.496-2-.296-3.012a5.233 5.233 0 0 1 1.425-2.664 5.211 5.211 0 0 1 5.676-1.133 5.209 5.209 0 0 1 1.692 8.497A5.21 5.21 0 0 1 25 41.668Zm0 0"/></svg>