<svg xmlns="http://www.w3.org/2000/svg" width="px" height="50" viewBox="0 0 38 50"><path style="stroke:none;fill-rule:nonzero;fill:#f8f8f8;fill-opacity:1" d="M23.75 0c.422 0 .824.164 1.121.457.297.293.461.691.461 1.106 0 .414.168.812.465 1.105.297.293.7.457 1.121.457.418 0 .82.164 1.117.457.297.293.465.691.465 1.106V6.25c0 .414-.168.813-.465 1.105-.297.293-.7.457-1.117.457H11.082c-.418 0-.82-.164-1.117-.457A1.555 1.555 0 0 1 9.5 6.25V4.687c0-.414.168-.812.465-1.105.297-.293.7-.457 1.117-.457.422 0 .824-.164 1.121-.457.297-.293.465-.691.465-1.106 0-.414.164-.812.46-1.105.298-.293.7-.457 1.122-.457Zm0 0"/><path style="stroke:none;fill-rule:nonzero;fill:#fff;fill-opacity:1" d="M3.922 7.809c0-.414.004-.672.3-.965.298-.293.485-.446.907-.446l1.203-.148c.422 0 .824-.164 1.121-.457.297-.293.465-.691.465-1.106 0-.414-.168-.812-.465-1.105a1.594 1.594 0 0 0-1.121-.457H4.75a4.779 4.779 0 0 0-3.36 1.371A4.669 4.669 0 0 0 0 7.812v37.5c0 1.243.5 2.434 1.39 3.317A4.779 4.779 0 0 0 4.75 50h28.5a4.786 4.786 0 0 0 3.36-1.371A4.669 4.669 0 0 0 38 45.313v-37.5c0-1.243-.5-2.434-1.39-3.317a4.786 4.786 0 0 0-3.36-1.371h-1.582c-.422 0-1.063.004-1.36.297-.296.293-.601.48-.601.894 0 .414-.148 1.493.148 1.786.297.293.938.593 1.36.593l1.055.012c.421 0 1.511-.008 1.808.285.297.293.453.48.453.895l.153 37.351c0 .414-.157.598-.454.895a1.438 1.438 0 0 1-1.054.445l-28.047-.297c-.422 0-.762-.008-1.059-.3-.297-.294-.148-.477-.148-.891Zm0 0"/><path style="stroke:none;fill-rule:nonzero;fill:#f8f8f8;fill-opacity:1" d="M25.332 21.875c0-.828.336-1.625.93-2.21a3.185 3.185 0 0 1 2.238-.915c.84 0 1.645.328 2.238.914a3.11 3.11 0 0 1 .93 2.211V37.5a3.11 3.11 0 0 1-.93 2.21 3.185 3.185 0 0 1-2.238.915c-.84 0-1.645-.328-2.238-.914a3.11 3.11 0 0 1-.93-2.211Zm-19 12.5c0-.828.336-1.625.93-2.21A3.185 3.185 0 0 1 9.5 31.25c.84 0 1.645.328 2.238.914a3.11 3.11 0 0 1 .93 2.211V37.5a3.11 3.11 0 0 1-.93 2.21 3.185 3.185 0 0 1-2.238.915c-.84 0-1.645-.328-2.238-.914a3.11 3.11 0 0 1-.93-2.211ZM19 25c-.84 0-1.645.328-2.238.914a3.11 3.11 0 0 0-.93 2.211V37.5c0 .828.336 1.625.93 2.21a3.185 3.185 0 0 0 2.238.915c.84 0 1.645-.328 2.238-.914a3.11 3.11 0 0 0 .93-2.211v-9.375a3.11 3.11 0 0 0-.93-2.21A3.185 3.185 0 0 0 19 25Zm0 0"/></svg>