<svg xmlns="http://www.w3.org/2000/svg" width="px" height="50" viewBox="0 0 50 50"><path style="stroke:none;fill-rule:nonzero;fill:#f8f8f8;fill-opacity:1" d="M44.512 39.188a5.245 5.245 0 0 0-2.282.535l-7.625-7.63h-6.058v3.548h4.586l6.59 6.59a5.3 5.3 0 0 0-.535 2.28 5.323 5.323 0 0 0 6.36 5.219 5.352 5.352 0 0 0 2.725-1.457 5.352 5.352 0 0 0 1.457-2.726 5.323 5.323 0 0 0-2.266-5.46 5.307 5.307 0 0 0-2.952-.9Zm0 7.097a1.783 1.783 0 0 1-1.64-1.097 1.766 1.766 0 0 1 .387-1.93 1.766 1.766 0 0 1 2.725.265 1.777 1.777 0 0 1-1.473 2.762Zm0-26.605a5.31 5.31 0 0 0-4.996 3.547h-10.97v3.546h10.97a5.315 5.315 0 0 0 4.285 3.48 5.282 5.282 0 0 0 2.84-.394 5.315 5.315 0 0 0 2.222-1.808c.559-.797.89-1.735.957-2.703a5.304 5.304 0 0 0-5.308-5.668Zm0 7.093a1.81 1.81 0 0 1-.989-.296 1.783 1.783 0 0 1-.753-1.825c.07-.343.238-.66.488-.906.246-.25.562-.418.906-.484.344-.07.7-.035 1.023.101.325.133.602.36.797.653.196.289.301.632.301.984a1.777 1.777 0 0 1-1.773 1.773Zm0-26.605A5.322 5.322 0 0 0 40.75 1.73a5.32 5.32 0 0 0-1.563 3.758c.008.852.22 1.688.618 2.438l-6.653 6.433h-4.605v3.547h6.039l7.805-7.543a5.28 5.28 0 0 0 2.3.442 5.334 5.334 0 0 0 2.266-.59 5.273 5.273 0 0 0 1.793-1.512c.48-.629.813-1.355.973-2.133a5.333 5.333 0 0 0-.04-2.343A5.326 5.326 0 0 0 44.512.168Zm0 7.094c-.352 0-.696-.102-.989-.297a1.783 1.783 0 0 1-.753-1.82c.07-.344.238-.66.488-.91.246-.247.562-.415.906-.485.344-.066.7-.031 1.023.102a1.78 1.78 0 0 1 1.098 1.637 1.77 1.77 0 0 1-1.773 1.773Zm0 0"/><path style="stroke:none;fill-rule:nonzero;fill:#f8f8f8;fill-opacity:1" d="M28.547 7.262h3.547V3.715h-3.547a7.069 7.069 0 0 0-5.32 2.453 7.055 7.055 0 0 0-5.32-2.453h-1.774A15.99 15.99 0 0 0 4.848 8.398 15.971 15.971 0 0 0 .168 19.68v10.64a15.971 15.971 0 0 0 4.68 11.282 15.99 15.99 0 0 0 11.285 4.683h1.773a7.069 7.069 0 0 0 5.32-2.453 7.055 7.055 0 0 0 5.32 2.453h3.548v-3.547h-3.547A3.552 3.552 0 0 1 25 39.188V10.811a3.552 3.552 0 0 1 3.547-3.55Zm-10.64 35.476h-1.774A12.44 12.44 0 0 1 8.016 39.7a12.407 12.407 0 0 1-4.157-7.605h3.403v-3.547H3.715v-7.094h5.324c1.41 0 2.762-.562 3.758-1.558 1-1 1.558-2.352 1.562-3.762v-3.547h-3.546v3.547a1.777 1.777 0 0 1-1.774 1.773H3.86a12.407 12.407 0 0 1 4.157-7.605 12.44 12.44 0 0 1 8.117-3.04h1.773c.942.005 1.84.376 2.508 1.044a3.548 3.548 0 0 1 1.04 2.508v7.093h-3.548v3.547h3.547v7.094h-3.547a5.326 5.326 0 0 0-5.32 5.32v3.547h3.547v-3.547a1.777 1.777 0 0 1 1.773-1.773h3.547v7.093c0 .942-.375 1.844-1.039 2.508a3.559 3.559 0 0 1-2.508 1.043Zm0 0"/></svg>