<svg xmlns="http://www.w3.org/2000/svg" width="px" height="50" viewBox="0 0 68 50"><path style="fill:none;stroke-width:14;stroke-linecap:round;stroke-linejoin:round;stroke:#f8f8f8;stroke-opacity:1;stroke-miterlimit:4" d="M6.998 42c0-3.71 1.477-7.271 4.104-9.896a14.004 14.004 0 0 1 9.9-4.104h111.996c3.716 0 7.272 1.479 9.9 4.104A13.993 13.993 0 0 1 147.002 42v49c0 3.71-1.477 7.271-4.104 9.896a14.004 14.004 0 0 1-9.9 4.104h-27.07a14.011 14.011 0 0 1-12.005-6.799l-10.925-18.2A7.006 7.006 0 0 0 77 76.606a7.006 7.006 0 0 0-5.998 3.395l-10.925 18.2A14.011 14.011 0 0 1 48.072 105h-27.07a14.004 14.004 0 0 1-9.9-4.104A13.993 13.993 0 0 1 6.998 91Zm12.694-22.531A27.987 27.987 0 0 1 42.976 7h68.03c4.609 0 9.147 1.137 13.208 3.316a27.927 27.927 0 0 1 10.085 9.153L139.996 28H14.004Zm0 0" transform="scale(.44156 .44643)"/></svg>