<svg xmlns="http://www.w3.org/2000/svg" width="px" height="50" viewBox="0 0 53 50"><path style="stroke:none;fill-rule:nonzero;fill:#f8f8f8;fill-opacity:1" d="M19.875 40.27c0-.442.176-.864.484-1.176.313-.313.496 1.414.934 1.414l5.363 1.105 4.813-1.105c.437 0 .86-1.727 1.172-1.414.308.312.484.734.484 1.176 0 .44-.176.863-.484 1.175a1.672 1.672 0 0 1-1.172.485l-4.813.949c-.437 0-5.984-1.125-6.297-1.434a1.674 1.674 0 0 1-.484-1.175Zm-8.992-20.016c0-4.328 2.808 1.18 7.097 1.582 5.446.508 12.7.035 18.141-.477 4.29-.402 6.309-5.75 6.309-1.422l.633 9.43c.011.735-.168.735-.633 1.301-.461.57-.54.586-1.262.719-2.797.488-8.234 1.086-14.512 1.086-6.277 0-11.554-.868-14.351-1.352-.723-.133-1.43-.332-1.895-.898-.465-.57-.484-.121-.473-.856Zm14.101 2.52a.864.864 0 0 0-.386.027.85.85 0 0 0-.332.199l-3.051 2.992a82.494 82.494 0 0 1-6.195-.61.832.832 0 0 0-.227 1.645c1.824.254 4.082.496 6.691.641a.837.837 0 0 0 .34-.05.795.795 0 0 0 .285-.184l2.5-2.446 2.805 5.68a.789.789 0 0 0 .254.3c.105.083.23.134.363.153a.83.83 0 0 0 .723-.246l3.086-3.223a82.82 82.82 0 0 0 6.367-.625.818.818 0 0 0 .523-.328.814.814 0 0 0 .153-.601.832.832 0 0 0-.902-.715c-1.782.246-3.997.48-6.56.629a.84.84 0 0 0-.55.25l-2.496 2.61-2.79-5.65a.834.834 0 0 0-.6-.449Zm0 0"/><path style="stroke:none;fill-rule:nonzero;fill:#f8f8f8;fill-opacity:1" d="M28.156 6.2a3.289 3.289 0 0 0 1.403-1.606A3.325 3.325 0 0 0 28.516.688a3.3 3.3 0 0 0-4.032 0 3.325 3.325 0 0 0 .36 5.511v3.77h-6.625a14.873 14.873 0 0 0-10.54 4.379 14.976 14.976 0 0 0-4.367 10.574v1.66c-.878 0-1.722.352-2.343.973A3.332 3.332 0 0 0 0 29.906v6.645c0 .883.348 1.726.969 2.347a3.305 3.305 0 0 0 2.344.977v3.32c0 1.762.699 3.453 1.94 4.7a6.61 6.61 0 0 0 4.684 1.945h33.126a6.61 6.61 0 0 0 4.683-1.945 6.66 6.66 0 0 0 1.941-4.7v-3.32c.88 0 1.723-.352 2.344-.977A3.316 3.316 0 0 0 53 36.551v-6.645a3.318 3.318 0 0 0-3.313-3.324v-1.66c0-3.965-1.57-7.77-4.367-10.574a14.873 14.873 0 0 0-10.539-4.38h-6.625Zm18.219 18.722v18.273c0 .883-.348 1.727-.969 2.352a3.318 3.318 0 0 1-2.343.973H9.937a3.318 3.318 0 0 1-2.343-.973 3.332 3.332 0 0 1-.969-2.352V24.922a11.65 11.65 0 0 1 3.395-8.223 11.571 11.571 0 0 1 8.199-3.406H34.78c3.074 0 6.024 1.223 8.2 3.406a11.65 11.65 0 0 1 3.394 8.223Zm0 0"/></svg>