<svg width="447" height="374" viewBox="0 0 447 374" fill="none" xmlns="http://www.w3.org/2000/svg">
<path d="M395.265 6.96484H54.9749C40.0771 6.96484 28 19.0419 28 33.9397V292.914C28 307.811 40.0771 319.888 54.9749 319.888H395.265C410.163 319.888 422.24 307.811 422.24 292.914V33.9397C422.24 19.0419 410.163 6.96484 395.265 6.96484Z" fill="#0085FF"/>
<path d="M395.265 0H54.9749C40.0771 0 28 12.0771 28 26.9749V285.949C28 300.847 40.0771 312.924 54.9749 312.924H395.265C410.163 312.924 422.24 300.847 422.24 285.949V26.9749C422.24 12.0771 410.163 0 395.265 0Z" fill="#BEDAFF"/>
<path d="M270.206 262.811H180.034V364.882H270.206V262.811Z" fill="#BEDAFF"/>
<path d="M308.472 345.922H151.106C144.182 345.922 138.568 351.536 138.568 358.46V358.463C138.568 365.387 144.182 371 151.106 371H308.472C315.397 371 321.01 365.387 321.01 358.463V358.46C321.01 351.536 315.397 345.922 308.472 345.922Z" fill="#BEDAFF"/>
<path d="M401 24H50V292H401V24Z" fill="white"/>
<path d="M401.312 23.7871H50V40.2896H401.312V23.7871Z" fill="#0085FF"/>
<path d="M392.244 36.5648C394.744 36.5648 396.771 34.5379 396.771 32.0376C396.771 29.5374 394.744 27.5105 392.244 27.5105C389.743 27.5105 387.716 29.5374 387.716 32.0376C387.716 34.5379 389.743 36.5648 392.244 36.5648Z" fill="white"/>
<path d="M373.53 215.529L378.136 250.151L402.689 234.755L373.53 215.529Z" fill="#14233A"/>
<path d="M387.721 231.516L381.741 235.266L393.104 253.389L399.084 249.639L387.721 231.516Z" fill="#14233A"/>
<path d="M173.034 112.311L172.258 111.591C172.62 111.202 172.985 110.815 173.352 110.431L174.118 111.162C173.753 111.542 173.392 111.925 173.034 112.311Z" fill="#0085FF"/>
<path d="M176.321 108.922L175.578 108.169C176.33 107.427 177.1 106.688 177.869 105.972L178.589 106.746C177.828 107.454 177.064 108.186 176.321 108.922ZM320.424 108.965C319.683 108.231 318.922 107.498 318.162 106.786L318.884 106.013C319.651 106.732 320.421 107.473 321.169 108.214L320.424 108.965ZM180.918 104.638L180.221 103.843C181.013 103.147 181.823 102.454 182.636 101.784L183.311 102.598C182.508 103.263 181.703 103.949 180.918 104.638ZM315.834 104.674C315.05 103.983 314.247 103.295 313.448 102.631L314.124 101.817C314.932 102.489 315.743 103.182 316.533 103.881L315.834 104.674ZM185.758 100.63L185.108 99.7945C185.937 99.1482 186.789 98.5046 187.639 97.8806L188.266 98.7338C187.423 99.353 186.58 99.9903 185.76 100.63H185.758ZM311.003 100.659C310.181 100.015 309.339 99.3766 308.501 98.7603L309.127 97.9085C309.974 98.5304 310.825 99.1761 311.655 99.8259L311.003 100.659ZM190.827 96.916L190.228 96.0447C191.098 95.4464 191.986 94.8544 192.869 94.2846L193.442 95.1741C192.568 95.7375 191.688 96.3239 190.827 96.916ZM305.944 96.9376C305.086 96.3455 304.207 95.7584 303.332 95.1922L303.907 94.3035C304.791 94.876 305.678 95.4694 306.545 96.067L305.944 96.9376ZM196.108 93.5115L195.562 92.6061C196.468 92.0608 197.389 91.5231 198.304 91.0091L198.822 91.9305C197.916 92.4397 197.002 92.9711 196.107 93.5115H196.108ZM300.671 93.5262C299.775 92.985 298.86 92.4515 297.958 91.9417L298.478 91.0202C299.391 91.5356 300.313 92.074 301.218 92.6221L300.671 93.5262ZM201.583 90.4324L201.095 89.4949C202.028 89.0074 202.982 88.5261 203.928 88.0671L204.389 89.0185C203.448 89.4733 202.505 89.949 201.581 90.4324H201.583ZM295.198 90.4407C294.272 89.9532 293.328 89.4789 292.393 89.0248L292.855 88.0734C293.801 88.5324 294.754 89.0137 295.689 89.5033L295.198 90.4407ZM207.232 87.6924L206.799 86.7271C207.762 86.296 208.742 85.8753 209.714 85.4734L210.117 86.4485C209.155 86.8518 208.184 87.2697 207.232 87.6924V87.6924ZM289.544 87.6959C288.591 87.269 287.619 86.8518 286.657 86.4555L287.059 85.4804C288.034 85.8802 289.014 86.3015 289.977 86.7341L289.544 87.6959ZM213.038 85.3063L212.666 84.3159C213.653 83.9453 214.658 83.5859 215.653 83.2475L215.993 84.249C215.009 84.584 214.015 84.9392 213.038 85.3063V85.3063ZM283.732 85.3063C282.756 84.9392 281.758 84.5833 280.773 84.2476L281.113 83.2461C282.109 83.5852 283.115 83.9425 284.103 84.3159L283.732 85.3063ZM218.979 83.2865L218.669 82.2745C219.676 81.9666 220.7 81.6706 221.716 81.3948L221.994 82.4159C220.99 82.6875 219.976 82.98 218.98 83.2851L218.979 83.2865ZM277.781 83.2865C276.783 82.9814 275.767 82.6882 274.761 82.4145L275.04 81.3941C276.056 81.6727 277.084 81.9666 278.092 82.2745L277.781 83.2865ZM225.032 81.6434L224.787 80.6147C225.811 80.3696 226.852 80.139 227.882 79.9273L228.095 80.963C227.078 81.1678 226.05 81.3969 225.034 81.6386L225.032 81.6434ZM271.715 81.6386C270.7 81.3969 269.667 81.1677 268.645 80.9581L268.858 79.9217C269.891 80.1342 270.935 80.3654 271.96 80.6092L271.715 81.6386ZM231.18 80.3793L230.995 79.3297C232.031 79.15 233.085 78.9815 234.129 78.8373L234.277 79.882C233.245 80.0332 232.203 80.1969 231.178 80.3745L231.18 80.3793ZM265.56 80.3745C264.53 80.1969 263.485 80.0332 262.452 79.8869L262.599 78.8422C263.644 78.9884 264.699 79.1542 265.739 79.3297L265.56 80.3745ZM237.389 79.5032L237.274 78.4515C238.319 78.3372 239.381 78.2376 240.428 78.1561L240.51 79.2106C239.472 79.2865 238.422 79.3847 237.387 79.4983L237.389 79.5032ZM259.328 79.499C258.292 79.3861 257.239 79.29 256.194 79.2078L256.275 78.1534C257.328 78.2349 258.393 78.3338 259.44 78.4473L259.328 79.499ZM243.636 79.0163L243.587 77.9597C244.639 77.9103 245.706 77.8769 246.759 77.8608L246.775 78.9188C245.733 78.9299 244.677 78.9627 243.636 79.0114V79.0163ZM253.055 79.0163C252.058 78.9703 251.045 78.9383 250.043 78.9223H249.915L249.933 77.8643H250.061C251.073 77.881 252.096 77.9131 253.104 77.9597L253.055 79.0163Z" fill="#0085FF"/>
<path d="M323.719 112.383C323.362 111.997 323.003 111.613 322.64 111.231L323.406 110.503C323.772 110.888 324.135 111.276 324.496 111.666L323.719 112.383Z" fill="#0085FF"/>
<g clip-path="url(#clip0_576_380)">
<path d="M208.539 263.529L203.827 259.215C203.997 257.388 204.556 253.902 206.336 253.823C207.145 253.79 207.241 254.614 207.013 255.727C208.157 254.185 209.541 252.975 210.882 253.48C212.1 253.941 211.51 255.383 210.334 256.97C211.528 256.55 212.638 256.5 213.35 257.236C214.368 258.286 212.788 259.487 210.695 260.5C211.508 260.574 212.173 260.853 212.514 261.46C213.228 262.729 210.961 263.287 208.539 263.529Z" fill="#00919A"/>
<path d="M120.241 157.342L113.209 152.477C113.103 150.025 113.211 145.303 115.557 144.876C116.623 144.684 116.901 145.76 116.801 147.278C118.038 145.026 119.653 143.173 121.522 143.599C123.221 143.988 122.701 146.007 121.432 148.322C122.939 147.548 124.401 147.281 125.478 148.128C127.021 149.337 125.143 151.212 122.553 152.935C123.644 152.888 124.576 153.136 125.138 153.877C126.315 155.432 123.408 156.583 120.241 157.342Z" fill="#00919A"/>
<path d="M244.2 269.142C244.036 269.192 243.859 269.179 243.704 269.105C243.55 269.031 243.428 268.903 243.364 268.744L191.595 141.098C191.559 141.014 191.541 140.925 191.54 140.834C191.54 140.743 191.558 140.653 191.593 140.569C191.628 140.484 191.679 140.408 191.744 140.344C191.808 140.28 191.885 140.229 191.969 140.195C192.054 140.161 192.144 140.144 192.235 140.145C192.326 140.146 192.416 140.165 192.5 140.201C192.583 140.237 192.659 140.289 192.722 140.355C192.785 140.42 192.835 140.498 192.868 140.582L244.637 268.228C244.705 268.397 244.703 268.585 244.632 268.753C244.561 268.92 244.427 269.053 244.258 269.121C244.239 269.129 244.22 269.136 244.2 269.142Z" fill="#0085FF"/>
<path d="M131.557 169.981L106.624 176.146L109.65 180.561L111.554 178.029L131.557 169.981Z" fill="#0085FF"/>
<path d="M194.565 136.154L183.039 138.201C180.411 138.691 177.697 138.119 175.495 136.61C173.293 135.102 171.782 132.781 171.295 130.158L167.824 111.459C167.337 108.836 167.914 106.126 169.428 103.924C170.941 101.723 173.268 100.211 175.895 99.7212L187.422 97.6738C188.723 97.431 190.059 97.4465 191.353 97.7193C192.648 97.9921 193.875 98.517 194.966 99.2639C196.057 100.011 196.989 100.965 197.71 102.072C198.431 103.18 198.926 104.418 199.167 105.717L202.637 124.416C202.879 125.715 202.861 127.049 202.586 128.342C202.311 129.635 201.783 130.861 201.033 131.951C200.284 133.041 199.327 133.973 198.217 134.695C197.107 135.416 195.866 135.912 194.565 136.154Z" fill="#0CBC8B"/>
<path d="M162.3 195.962L155.503 198.372C153.355 192.316 153.211 191.675 153.163 191.465L160.197 189.872C160.192 189.85 160.186 189.823 160.177 189.79C160.319 190.304 161.39 193.394 162.3 195.962Z" fill="#E98862"/>
<path d="M204.33 225.037L197.54 227.465C197.54 227.465 195.032 220.446 194.812 219.824L201.611 217.418C201.831 218.037 204.33 225.036 204.33 225.037Z" fill="#E98862"/>
<path d="M198.814 148.79C199.55 141.043 196.313 134.656 196.313 134.656L171.039 141.467L170.793 142.335C162.497 144.307 154.266 146.554 146.149 149.172C144.564 149.643 143.225 150.712 142.416 152.152C141.606 153.592 141.39 155.29 141.814 156.885L152.439 196.869L164.718 193.6L157.168 161.343C165.271 159.586 180.455 156.144 180.455 156.144C180.455 156.144 179.221 173.253 178.274 181.939C178.092 183.054 178.198 184.195 178.582 185.256L193.286 225.837L205.307 221.718L192.592 182.351C194.303 171.061 197.64 156.332 198.814 148.79Z" fill="#262626"/>
<path d="M190.52 233.546C190.339 233.615 190.145 233.646 189.952 233.636C189.758 233.627 189.569 233.577 189.395 233.491C189.221 233.405 189.067 233.285 188.943 233.136C188.818 232.988 188.725 232.816 188.67 232.63C188.594 232.373 188.593 232.099 188.668 231.841C188.742 231.583 188.889 231.352 189.09 231.174L195.925 225.55C196.058 225.442 196.212 225.363 196.378 225.32C196.544 225.277 196.717 225.27 196.885 225.299C198.249 225.633 199.684 225.521 200.98 224.979C201.973 224.516 202.817 223.783 203.414 222.865C203.464 222.778 203.538 222.706 203.627 222.659C203.716 222.612 203.817 222.591 203.917 222.599C204.018 222.606 204.114 222.642 204.194 222.703C204.275 222.763 204.337 222.845 204.372 222.939L205.838 226.765C205.881 226.877 205.901 226.998 205.898 227.119C205.894 227.239 205.867 227.358 205.817 227.469C205.768 227.579 205.697 227.678 205.609 227.761C205.521 227.844 205.417 227.909 205.304 227.952L190.52 233.546Z" fill="#0085FF"/>
<path d="M147.735 203.868C147.546 203.91 147.35 203.912 147.159 203.875C146.969 203.838 146.789 203.762 146.629 203.653C146.47 203.543 146.335 203.401 146.233 203.237C146.13 203.072 146.063 202.888 146.036 202.697V202.697C145.997 202.431 146.035 202.16 146.146 201.915C146.256 201.671 146.435 201.462 146.66 201.315L154.228 196.724C154.375 196.636 154.539 196.58 154.71 196.561C154.88 196.542 155.052 196.56 155.215 196.614C156.517 197.138 157.954 197.232 159.314 196.881C160.363 196.563 161.303 195.958 162.025 195.134C162.087 195.055 162.17 194.994 162.265 194.96C162.36 194.926 162.463 194.92 162.561 194.942C162.659 194.964 162.749 195.014 162.82 195.085C162.891 195.156 162.941 195.246 162.962 195.344L163.863 199.34C163.889 199.458 163.892 199.58 163.871 199.699C163.851 199.818 163.807 199.932 163.742 200.034C163.677 200.136 163.593 200.225 163.493 200.294C163.394 200.364 163.282 200.413 163.164 200.439L147.735 203.868Z" fill="#0085FF"/>
<path d="M162.118 85.2811C162.118 85.2811 161.993 94.9481 161.821 99.9927C161.812 100.232 161.86 100.469 161.961 100.686C162.061 100.903 162.211 101.094 162.398 101.243C162.586 101.391 162.805 101.494 163.04 101.543C163.274 101.591 163.517 101.584 163.749 101.522L172.576 99.1719C172.958 99.0701 173.285 98.8258 173.491 98.4894C173.697 98.1531 173.766 97.7507 173.683 97.3656L170.95 84.683L162.118 85.2811Z" fill="#0F1011"/>
<path d="M179.719 100.875C178.763 99.9408 177.489 97.9783 176.752 93.8931L171.188 94.3267C171.188 94.3267 173.448 100.411 171.302 103.114L179.719 100.875Z" fill="#E98862"/>
<path opacity="0.15" d="M172.036 101.526L175.542 96.9868L172.074 97.8748C172.289 99.0834 172.276 100.322 172.036 101.526V101.526Z" fill="black"/>
<path d="M179.037 90.3869C179.235 92.6006 178.612 94.9134 176.925 96.0963C175.102 97.4484 172.976 98.3349 170.733 98.6784C164.803 99.7546 162.439 86.2768 164.511 82.9823C166.584 79.6879 175.102 79.1476 177.227 83.1631C178.325 85.2399 178.849 88.2805 179.037 90.3869Z" fill="#E98862"/>
<path d="M170.357 90.9556C170.612 90.8538 170.737 90.5648 170.635 90.31C170.534 90.0552 170.245 89.9311 169.989 90.0328C169.734 90.1346 169.609 90.4236 169.711 90.6784C169.812 90.9332 170.102 91.0573 170.357 90.9556Z" fill="#0F1011"/>
<path d="M166.481 91.6587C166.737 91.5569 166.861 91.2679 166.76 91.0131C166.658 90.7583 166.369 90.6342 166.114 90.7359C165.858 90.8377 165.734 91.1267 165.835 91.3815C165.937 91.6363 166.226 91.7604 166.481 91.6587Z" fill="#0F1011"/>
<path d="M165.192 90.3972L165.194 90.396L166.464 90.0399C166.524 90.023 166.574 89.9832 166.605 89.9292C166.635 89.8752 166.643 89.8113 166.626 89.7517C166.619 89.7217 166.605 89.6934 166.587 89.6688C166.568 89.6441 166.544 89.6236 166.517 89.6085C166.49 89.5933 166.46 89.5839 166.43 89.5807C166.399 89.5776 166.368 89.5808 166.338 89.5901L165.069 89.9466C165.01 89.9641 164.961 90.0037 164.931 90.0571C164.901 90.1104 164.894 90.1732 164.91 90.232C164.926 90.2908 164.964 90.3409 165.017 90.3718C165.07 90.4026 165.132 90.4116 165.191 90.3969L165.192 90.3972Z" fill="#0F1011"/>
<path d="M170.979 89.3474C171.034 89.3326 171.082 89.2981 171.114 89.2503C171.145 89.2026 171.158 89.145 171.15 89.0885C171.142 89.0319 171.113 88.9803 171.07 88.9435C171.026 88.9067 170.97 88.8871 170.913 88.8886L169.577 88.9225C169.546 88.9232 169.516 88.93 169.488 88.9424C169.46 88.9548 169.435 88.9727 169.413 88.9949C169.392 89.0171 169.376 89.0432 169.364 89.0718C169.353 89.1005 169.348 89.131 169.349 89.1616C169.349 89.1923 169.356 89.2225 169.369 89.2505C169.381 89.2785 169.399 89.3039 169.421 89.325C169.443 89.3461 169.469 89.3627 169.498 89.3737C169.527 89.3848 169.557 89.3901 169.588 89.3893L170.924 89.3553C170.943 89.3547 170.961 89.3521 170.979 89.3474V89.3474Z" fill="#0F1011"/>
<path d="M170.959 94.3328C170.959 94.3328 169.234 94.9939 167.874 94.8928C167.874 94.8928 168.195 96.0563 169.63 95.7965C171.065 95.5368 170.959 94.3328 170.959 94.3328Z" fill="white"/>
<g opacity="0.15">
<path d="M168.749 93.7265C168.789 93.716 168.823 93.6916 168.847 93.6576C168.87 93.6237 168.88 93.5825 168.876 93.5416C168.871 93.5008 168.852 93.4629 168.822 93.435C168.792 93.407 168.753 93.3909 168.711 93.3895L167.654 93.3508L167.932 91.6477C167.937 91.6251 167.937 91.6019 167.932 91.5793C167.927 91.5567 167.918 91.5354 167.905 91.5164C167.892 91.4975 167.875 91.4814 167.856 91.4691C167.836 91.4568 167.814 91.4486 167.792 91.4449C167.769 91.4413 167.746 91.4422 167.723 91.4477C167.701 91.4532 167.68 91.4632 167.661 91.477C167.643 91.4908 167.627 91.5082 167.616 91.5282C167.604 91.5481 167.596 91.5702 167.594 91.593L167.296 93.4122C167.29 93.4458 167.292 93.4801 167.301 93.5129C167.31 93.5458 167.325 93.5764 167.347 93.6027C167.369 93.629 167.395 93.6504 167.426 93.6655C167.456 93.6807 167.49 93.6892 167.524 93.6905L168.699 93.7336C168.716 93.7335 168.733 93.7311 168.749 93.7265V93.7265Z" fill="black"/>
</g>
<path d="M162.102 86.4405C162.102 86.4405 161.128 79.3525 172.59 78.1054C175.448 77.7943 179.908 78.8982 182.402 85.744C183.545 88.8844 185.463 91.6219 186.821 93.318C186.981 93.5167 187.089 93.7522 187.135 94.0032C187.181 94.2542 187.163 94.5128 187.084 94.7554C187.004 94.9981 186.865 95.2171 186.679 95.3927C186.494 95.5682 186.267 95.6947 186.02 95.7607L178.278 97.8249C178.084 97.877 177.881 97.8905 177.682 97.8644C177.482 97.8383 177.29 97.7732 177.116 97.6728C176.941 97.5725 176.789 97.4388 176.666 97.2794C176.544 97.12 176.454 96.9381 176.402 96.744C176.396 96.7221 176.391 96.7001 176.385 96.6769C176.092 95.3468 175.544 93.1079 174.564 89.7238C173.645 87.8882 174.353 86.2328 172.915 87.0939C167.574 90.287 162.565 86.4355 162.102 86.4405Z" fill="#0F1011"/>
<path d="M173.152 91.9143C173.251 92.4638 173.565 92.9512 174.025 93.2692C174.484 93.5872 175.052 93.7097 175.602 93.6098C176.153 93.5099 176.641 93.1958 176.96 92.7365C177.279 92.2773 177.403 91.7105 177.303 91.1609C177.26 90.8925 177.163 90.6354 177.02 90.4043C176.877 90.1732 176.689 89.9726 176.468 89.814C176.247 89.6554 175.996 89.5419 175.731 89.48C175.466 89.4181 175.191 89.409 174.922 89.4533C174.899 89.457 174.876 89.4614 174.853 89.4656C173.388 89.8052 172.946 90.7693 173.152 91.9143Z" fill="#E98862"/>
<path d="M128.279 121.345C128.088 121.63 128.912 122.286 129.543 122.729C127.891 123.097 124.476 122.32 122.57 121.818C122.444 121.785 122.311 121.791 122.188 121.835C122.066 121.879 121.959 121.958 121.882 122.064C121.805 122.169 121.762 122.295 121.758 122.425C121.754 122.555 121.789 122.683 121.859 122.793C124.618 127.096 132.064 126.548 132.064 126.548L134.588 123.16C134.588 123.16 128.783 120.598 128.279 121.345Z" fill="#E98862"/>
<path d="M156.085 128.176C155.653 128.348 155.193 128.439 154.729 128.443L131.413 128.639L131.36 121.164L152.791 120.983L163.794 105.919L169.84 110.32L157.726 126.904C157.31 127.474 156.741 127.915 156.085 128.176V128.176Z" fill="#367CFF"/>
<path d="M169.226 143.008C171.294 145.955 199.268 141.634 198.479 135.869C197.978 132.2 194.137 129.693 192.699 122.636C191.261 115.579 195.929 105.238 189.552 101.032C187.701 99.8113 184.845 99.3631 181.607 100.022C181.749 101.955 170.291 104.305 169.827 102.476C169.391 102.572 169.052 102.648 168.843 102.702C157.777 105.464 165.266 117.144 167.272 126.439C169.625 137.315 167.093 139.974 169.226 143.008Z" fill="#367CFF"/>
<path d="M169.827 102.476C170.29 104.305 171.85 106.817 174.997 106.387C179.191 105.813 181.748 101.956 181.607 100.022L181.597 100.026C177.523 100.857 172.195 101.953 169.827 102.476Z" fill="#E98862"/>
<path d="M168.557 139.215C168.43 139.266 168.29 139.277 168.156 139.248L151.394 135.583L129.003 123.844L68.5559 100.122C68.3877 100.055 68.253 99.924 68.1813 99.7578C68.1096 99.5915 68.1067 99.4036 68.1732 99.235C68.2398 99.0665 68.3704 98.931 68.5365 98.8581C68.7026 98.7852 68.8908 98.7809 69.0599 98.846L129.576 122.595L129.609 122.612L151.87 134.283L168.452 137.908C168.595 137.939 168.725 138.016 168.822 138.126C168.918 138.237 168.977 138.376 168.989 138.522C169 138.668 168.965 138.814 168.887 138.939C168.81 139.064 168.694 139.161 168.557 139.215V139.215Z" fill="#0085FF"/>
<path d="M129.033 123.126L120.74 120.007C120.294 119.839 119.798 119.856 119.363 120.053C118.928 120.25 118.588 120.611 118.419 121.057L118.172 121.717C118.089 121.938 118.049 122.172 118.057 122.408C118.064 122.644 118.118 122.876 118.216 123.091C118.313 123.305 118.452 123.499 118.624 123.66C118.796 123.821 118.999 123.947 119.22 124.03L126.169 126.644C126.39 126.727 126.626 126.767 126.862 126.759C127.099 126.752 127.331 126.698 127.547 126.601C127.763 126.504 127.957 126.365 128.119 126.192C128.281 126.02 128.408 125.817 128.491 125.596L129.247 123.598C129.281 123.507 129.277 123.406 129.237 123.318C129.197 123.23 129.124 123.161 129.033 123.126V123.126ZM125.707 123.806L125.464 124.449C125.435 124.528 125.389 124.601 125.331 124.663C125.273 124.725 125.204 124.775 125.126 124.81C125.049 124.845 124.965 124.865 124.88 124.867C124.795 124.87 124.71 124.855 124.631 124.825L119.77 122.999C119.609 122.938 119.479 122.816 119.409 122.659C119.338 122.503 119.332 122.325 119.393 122.164L119.637 121.524C119.667 121.444 119.712 121.372 119.77 121.309C119.828 121.247 119.898 121.197 119.975 121.162C120.053 121.127 120.136 121.108 120.221 121.106C120.306 121.103 120.391 121.117 120.47 121.148L125.331 122.974C125.411 123.004 125.484 123.049 125.545 123.107C125.607 123.165 125.657 123.235 125.692 123.312C125.727 123.389 125.746 123.473 125.749 123.557C125.751 123.642 125.737 123.727 125.707 123.806L125.707 123.806Z" fill="#0085FF"/>
<path d="M151.791 135.534L144.171 131.02C143.76 130.777 143.269 130.707 142.807 130.826C142.344 130.944 141.947 131.241 141.703 131.651L141.344 132.258C141.223 132.461 141.144 132.685 141.11 132.919C141.076 133.152 141.089 133.39 141.147 133.618C141.206 133.847 141.308 134.062 141.45 134.25C141.591 134.439 141.769 134.598 141.972 134.718L148.358 138.501C148.561 138.622 148.786 138.702 149.02 138.736C149.254 138.769 149.492 138.757 149.722 138.699C149.951 138.64 150.167 138.537 150.356 138.396C150.546 138.254 150.706 138.077 150.826 137.874L151.919 136.036C151.968 135.952 151.981 135.853 151.958 135.759C151.934 135.665 151.874 135.585 151.791 135.534ZM148.398 135.625L148.047 136.217C148.004 136.29 147.947 136.354 147.879 136.405C147.811 136.456 147.733 136.493 147.651 136.514C147.568 136.535 147.482 136.54 147.398 136.527C147.314 136.515 147.233 136.486 147.161 136.443L142.693 133.798C142.546 133.71 142.439 133.567 142.397 133.4C142.355 133.234 142.38 133.058 142.468 132.91L142.82 132.322C142.863 132.249 142.92 132.185 142.988 132.134C143.056 132.083 143.133 132.046 143.216 132.025C143.298 132.004 143.384 131.999 143.468 132.012C143.552 132.024 143.633 132.053 143.706 132.097L148.173 134.741C148.246 134.784 148.31 134.841 148.36 134.909C148.411 134.977 148.448 135.054 148.469 135.136C148.49 135.218 148.494 135.304 148.482 135.388C148.47 135.472 148.441 135.552 148.398 135.625V135.625Z" fill="#0085FF"/>
<path d="M166.791 124.255C166.63 124.318 166.452 124.32 166.291 124.258C166.13 124.197 165.999 124.077 165.922 123.923C165.845 123.769 165.83 123.592 165.878 123.427C165.926 123.261 166.035 123.12 166.182 123.031C166.275 122.973 172.399 118.928 168.178 102.877C168.132 102.701 168.158 102.514 168.25 102.356C168.342 102.199 168.492 102.085 168.668 102.038C168.845 101.992 169.032 102.017 169.189 102.109C169.346 102.201 169.461 102.351 169.507 102.527C174.032 119.735 167.181 124.032 166.888 124.207C166.857 124.225 166.824 124.241 166.791 124.255V124.255Z" fill="#0CBC8B"/>
<path d="M192.777 122.137C192.642 122.191 192.493 122.201 192.352 122.164C188.249 121.115 185.295 118.949 183.575 115.724C179.942 108.92 183.069 99.8897 183.204 99.5083C183.265 99.3376 183.392 99.1981 183.556 99.1201C183.72 99.0422 183.908 99.0322 184.079 99.0923C184.25 99.1525 184.39 99.2779 184.469 99.4411C184.548 99.6043 184.558 99.7921 184.499 99.9634C184.468 100.051 181.44 108.816 184.79 115.083C186.323 117.951 188.983 119.886 192.696 120.836C192.836 120.871 192.961 120.951 193.053 121.062C193.146 121.174 193.2 121.311 193.209 121.456C193.219 121.6 193.182 121.744 193.104 121.866C193.026 121.988 192.912 122.083 192.778 122.137L192.777 122.137Z" fill="#0CBC8B"/>
<path d="M150.77 131.562C150.636 131.877 151.571 132.366 152.272 132.683C150.718 133.355 147.215 133.234 145.25 133.1C145.118 133.092 144.988 133.124 144.875 133.191C144.763 133.259 144.673 133.359 144.618 133.478C144.564 133.598 144.547 133.731 144.57 133.86C144.592 133.989 144.654 134.108 144.746 134.201C148.271 137.895 155.47 135.96 155.47 135.96L157.31 132.158C157.31 132.158 151.123 130.734 150.77 131.562Z" fill="#E98862"/>
<path d="M180.072 129.336C180.006 129.362 179.938 129.387 179.869 129.41L155.68 137.466L153.32 130.375L175.913 122.85L183.715 104.66L190.596 107.595L182.131 127.331C181.936 127.784 181.655 128.194 181.301 128.538C180.948 128.882 180.531 129.153 180.072 129.336Z" fill="#367CFF"/>
<path d="M194.298 135.656C186.04 138.947 170.413 139.843 168.373 139.948C168.191 139.959 168.009 139.934 167.838 139.875C167.666 139.815 167.508 139.723 167.373 139.602C167.238 139.481 167.128 139.335 167.049 139.171C166.971 139.008 166.926 138.83 166.917 138.649C166.908 138.468 166.935 138.287 166.997 138.116C167.058 137.945 167.153 137.788 167.276 137.654C167.398 137.52 167.546 137.412 167.711 137.335C167.876 137.259 168.054 137.216 168.236 137.208C174.508 136.886 191.744 135.247 196.113 131.573C196.25 131.456 196.41 131.367 196.582 131.312C196.755 131.257 196.936 131.236 197.116 131.251C197.296 131.266 197.472 131.316 197.632 131.399C197.793 131.482 197.935 131.596 198.052 131.734C198.168 131.872 198.256 132.031 198.311 132.203C198.365 132.375 198.385 132.557 198.369 132.737C198.353 132.916 198.302 133.091 198.218 133.252C198.134 133.412 198.019 133.554 197.88 133.67C196.796 134.513 195.588 135.183 194.298 135.656Z" fill="#0085FF"/>
</g>
<path d="M416.916 366.577L430.426 366.533C430.426 366.533 430.381 352.583 430.381 351.348H416.871C416.871 352.587 416.916 366.577 416.916 366.577Z" fill="#E98862"/>
<path d="M363.087 364.962L376.502 363.367C375.898 358.289 375.216 352.19 375.169 351.19C375.169 351.254 375.169 351.306 375.169 351.348H361.66C361.663 351.752 361.663 352.985 363.087 364.962Z" fill="#E98862"/>
<path d="M381.902 360.696L358.099 360.291C359.218 331.965 359.286 302.252 359.634 273.858C364.284 243.253 366.728 209.645 372.462 179.259L372.634 179.31L373.137 175.881L422.078 172.858C422.078 172.858 423.39 196.839 423.832 204.83C426.37 250.76 431.001 315.448 433.908 359.925L410.19 361.929C405.916 318.321 399.303 254.782 395.235 208.971C390.564 231.274 387.387 254.368 383.325 276.48C382.513 304.163 381.826 333.1 381.902 360.696Z" fill="#262626"/>
<path d="M400.494 371.802C400.13 371.801 399.771 371.724 399.439 371.577C399.106 371.431 398.808 371.217 398.562 370.95C398.316 370.682 398.127 370.367 398.009 370.024C397.89 369.68 397.843 369.316 397.872 368.954V368.954C397.911 368.452 398.092 367.971 398.395 367.569C398.698 367.167 399.11 366.86 399.581 366.684L415.306 361.417C415.61 361.316 415.933 361.282 416.252 361.318C416.571 361.353 416.879 361.457 417.153 361.623C419.315 363.122 421.901 363.889 424.531 363.81C426.579 363.664 428.545 362.946 430.205 361.737C430.351 361.618 430.528 361.542 430.715 361.519C430.902 361.496 431.092 361.527 431.263 361.608C431.433 361.689 431.577 361.816 431.678 361.976C431.779 362.136 431.832 362.32 431.831 362.509V370.2C431.831 370.427 431.786 370.651 431.699 370.861C431.612 371.07 431.485 371.261 431.324 371.421C431.163 371.581 430.973 371.707 430.763 371.794C430.553 371.88 430.328 371.924 430.101 371.923L400.494 371.802Z" fill="#0085FF"/>
<path d="M346.627 371.802C346.263 371.801 345.904 371.724 345.572 371.577C345.24 371.431 344.941 371.217 344.695 370.95C344.449 370.682 344.261 370.367 344.142 370.024C344.023 369.68 343.976 369.316 344.005 368.954V368.954C344.044 368.452 344.226 367.971 344.529 367.569C344.832 367.167 345.243 366.86 345.715 366.684L361.439 361.417C361.744 361.316 362.066 361.282 362.385 361.318C362.704 361.353 363.012 361.457 363.287 361.623C365.448 363.122 368.034 363.889 370.664 363.81C372.712 363.664 374.679 362.946 376.339 361.737C376.485 361.617 376.661 361.542 376.849 361.519C377.036 361.496 377.226 361.527 377.396 361.607C377.567 361.688 377.711 361.816 377.811 361.976C377.912 362.135 377.965 362.32 377.964 362.509V370.2C377.964 370.427 377.92 370.651 377.833 370.861C377.746 371.07 377.618 371.261 377.457 371.421C377.297 371.581 377.106 371.707 376.896 371.794C376.686 371.88 376.461 371.924 376.234 371.923L346.627 371.802Z" fill="#0085FF"/>
<path d="M407.081 103.008C407.081 103.008 402.106 100.371 403.217 86.8253L392.94 84.9192C392.94 84.9192 394.095 97.0643 388.895 100.92L407.081 103.008Z" fill="#E98862"/>
<g opacity="0.15">
<path d="M391.001 98.3812L399.537 91.849L392.831 91.7795C392.637 94.0748 392.017 96.3138 391.001 98.3812V98.3812Z" fill="black"/>
</g>
<path d="M409.049 81.5728C408.338 85.6823 406.095 89.5743 402.469 90.9008C398.518 92.4689 394.243 93.0464 390.017 92.5831C378.765 91.6605 380.991 66.0787 386.332 61.1084C391.674 56.1382 407.351 59.2879 409.259 67.5988C410.245 71.8968 409.726 77.6608 409.049 81.5728Z" fill="#E98862"/>
<path d="M392.954 78.407C393.469 78.407 393.886 77.9897 393.886 77.4749C393.886 76.9601 393.469 76.5427 392.954 76.5427C392.439 76.5427 392.022 76.9601 392.022 77.4749C392.022 77.9897 392.439 78.407 392.954 78.407Z" fill="#0F1011"/>
<path d="M385.6 77.8043C386.115 77.8043 386.532 77.3869 386.532 76.8721C386.532 76.3573 386.115 75.9399 385.6 75.9399C385.086 75.9399 384.668 76.3573 384.668 76.8721C384.668 77.3869 385.086 77.8043 385.6 77.8043Z" fill="#0F1011"/>
<path d="M383.985 74.8856H383.991L386.46 74.8541C386.574 74.8485 386.68 74.7992 386.758 74.7165C386.836 74.6338 386.878 74.5242 386.877 74.4107C386.875 74.2973 386.83 74.1888 386.75 74.1082C386.67 74.0276 386.562 73.9811 386.449 73.9785L383.979 74.0094C383.863 74.0102 383.752 74.0571 383.67 74.1398C383.589 74.2225 383.543 74.3342 383.544 74.4504C383.545 74.5666 383.592 74.6777 383.674 74.7593C383.757 74.8409 383.869 74.8864 383.985 74.8856Z" fill="#0F1011"/>
<path d="M394.969 75.7863C395.077 75.7867 395.181 75.7475 395.262 75.6761C395.342 75.6048 395.394 75.5062 395.406 75.3994C395.419 75.2925 395.391 75.1847 395.33 75.0967C395.268 75.0086 395.176 74.9463 395.071 74.9217L392.637 74.3363C392.581 74.322 392.522 74.319 392.465 74.3275C392.407 74.3359 392.352 74.3557 392.302 74.3857C392.253 74.4156 392.21 74.4551 392.175 74.5019C392.141 74.5487 392.116 74.6018 392.103 74.6582C392.089 74.7146 392.087 74.7732 392.096 74.8304C392.105 74.8877 392.126 74.9426 392.156 74.9918C392.187 75.0411 392.227 75.0839 392.274 75.1175C392.322 75.1512 392.375 75.1752 392.432 75.188L394.866 75.7741C394.9 75.782 394.935 75.7861 394.969 75.7863V75.7863Z" fill="#0F1011"/>
<path d="M402.615 90.4106C402.828 91.0944 402.977 91.3922 403.593 91.0262C406.009 89.5903 410.804 86.4664 412.657 74.762C414.317 64.2761 407.847 59.9492 402.685 58.4058C398.238 57.0755 388.979 58.0154 383.982 60.7321C380.276 62.7476 382.988 68.1526 382.988 68.1526C384.843 68.2382 384.437 63.3137 388.814 63.3137C392.197 63.3137 395.178 68.3206 398.346 68.4537C401.246 68.5759 401.842 70.3438 401.739 71.4773C401.118 78.3491 401.859 87.9949 402.615 90.4106Z" fill="#0F1011"/>
<path d="M397.8 79.756C397.73 80.792 398.071 81.814 398.749 82.6008C399.426 83.3876 400.386 83.8761 401.421 83.9606C402.456 84.0451 403.483 83.7189 404.279 83.0525C405.076 82.386 405.578 81.4329 405.677 80.3993C405.728 79.8804 405.675 79.3564 405.52 78.8586C405.364 78.3608 405.111 77.8993 404.773 77.5017C404.436 77.104 404.022 76.7784 403.556 76.5441C403.09 76.3098 402.582 76.1717 402.062 76.138C399.248 76.0486 397.982 77.5809 397.8 79.756Z" fill="#E98862"/>
<g opacity="0.15">
<path d="M388.816 82.6453C388.893 82.6453 388.968 82.6177 389.026 82.5675C389.085 82.5172 389.123 82.4477 389.135 82.3715C389.146 82.2953 389.13 82.2175 389.089 82.1523C389.048 82.0871 388.985 82.0387 388.911 82.0161L387.015 81.4339L388.342 78.4811C388.377 78.4033 388.379 78.3147 388.349 78.2349C388.319 78.1551 388.258 78.0906 388.18 78.0556C388.102 78.0206 388.013 78.018 387.934 78.0484C387.854 78.0787 387.789 78.1395 387.754 78.2174L386.279 81.5021C386.26 81.5438 386.251 81.5889 386.251 81.6346C386.251 81.6803 386.26 81.7254 386.279 81.7671C386.298 81.8087 386.325 81.8458 386.36 81.876C386.394 81.9062 386.434 81.9288 386.478 81.9422L388.722 82.6311C388.752 82.6405 388.784 82.6452 388.816 82.6453V82.6453Z" fill="black"/>
</g>
<path d="M392.525 84.8163C392.525 84.8163 389.084 85.1792 386.671 84.3364C386.671 84.3364 386.69 86.6028 389.413 86.826C392.135 87.0493 392.525 84.8163 392.525 84.8163Z" fill="white"/>
<path d="M383.677 61.0801C380.341 63.3137 380.998 67.5936 381.624 71.3087H385.753L387.485 65.2989L389.597 71.3087L405.694 71.8658L403.753 63.883" fill="#0F1011"/>
<path d="M413.948 93.9296C418.924 93.9296 422.958 89.8956 422.958 84.9194C422.958 79.9432 418.924 75.9092 413.948 75.9092C408.972 75.9092 404.938 79.9432 404.938 84.9194C404.938 89.8956 408.972 93.9296 413.948 93.9296Z" fill="#0F1011"/>
<path d="M336.92 103.745C336.92 103.745 336.823 96.0189 331.3 96.4209C327.816 96.6744 311.261 95.9063 311.014 97.4136C310.404 101.145 325.548 102.057 326.922 105.534L336.92 103.745Z" fill="#E98862"/>
<path d="M333.256 96.6686C333.256 96.6686 325.569 94.1597 323.68 94.61C322.007 95.0076 325.494 97.7301 325.494 97.7301L333.256 96.6686Z" fill="#E98862"/>
<path d="M369.274 174.511C371.969 180.706 424.933 183.279 425.641 172.382C426.091 165.447 419.979 159.393 419.979 145.877C419.979 132.361 429.153 118.363 419.021 108.231C416.081 105.291 414.267 100.131 408.078 100.125C407.615 103.734 385.704 103.747 385.537 100.209C384.7 100.221 384.051 100.234 383.645 100.254C362.3 101.174 371.68 125.465 371.886 143.31C372.136 164.193 366.495 168.129 369.274 174.511Z" fill="white"/>
<path d="M385.537 100.209C385.704 103.747 387.627 108.951 393.565 109.344C401.478 109.865 407.615 103.734 408.078 100.125H408.059C400.269 100.125 390.08 100.138 385.537 100.209Z" fill="#E98862"/>
<path d="M422.283 104.967C419.343 102.027 414.153 100.014 407.964 100.01C405.546 100.01 406.058 99.6502 405.094 104.75C404.341 110.256 402.699 120.752 401.459 133.069L393.777 149.145L387.314 148.948C387.349 144.831 387.434 140.751 387.63 136.933C388.273 124.273 389.205 101.37 387.912 100.077C387.699 99.8632 382.436 100.097 382.085 100.112C377.473 100.314 374.458 101.829 372.544 104.26L351.34 124.944L337.569 99.2314L325.66 105.609L343.673 139.241C344.167 140.164 344.869 140.96 345.724 141.565C346.579 142.17 347.562 142.568 348.597 142.728C349.632 142.887 350.69 142.804 351.688 142.485C352.685 142.165 353.594 141.618 354.344 140.887L370.202 125.42C370.867 131.413 371.821 137.692 371.886 143.312C371.908 145.142 371.876 146.857 371.806 148.478L357.923 148.055L357.496 162.075L369.997 162.456C368.472 169.479 366.837 173.405 368.502 177.228C369.291 179.041 374.699 180.848 381.636 181.907C382.862 182.092 384.111 181.781 385.109 181.045C386.106 180.308 386.77 179.205 386.955 177.979C386.974 177.85 386.988 177.72 386.996 177.589C387.258 173.656 387.299 168.559 387.299 162.986L397.92 163.308C397.992 163.308 398.063 163.312 398.135 163.312C398.731 163.308 399.324 163.229 399.9 163.074C399.927 168.309 400.239 173.538 400.835 178.739C401 180.084 401.674 181.314 402.72 182.176C403.766 183.038 405.102 183.466 406.454 183.371C423.149 182.197 425.363 176.717 425.641 172.386C426.091 165.451 419.98 159.397 419.98 145.881C419.98 132.365 432.415 115.099 422.283 104.967Z" fill="#367CFF"/>
<path d="M360.81 114.612L368.621 147.403C368.742 147.913 368.746 148.444 368.633 148.956C368.52 149.468 368.292 149.948 367.967 150.36C367.642 150.771 367.228 151.104 366.757 151.333C366.285 151.561 365.767 151.68 365.243 151.681H319.188C318.427 151.68 317.687 151.431 317.082 150.969C316.477 150.508 316.04 149.861 315.838 149.127L306.838 116.337C306.697 115.822 306.676 115.281 306.778 114.756C306.88 114.231 307.102 113.737 307.426 113.312C307.75 112.887 308.167 112.543 308.646 112.305C309.125 112.068 309.653 111.945 310.187 111.945H357.427C358.208 111.944 358.968 112.207 359.582 112.691C360.196 113.175 360.628 113.852 360.81 114.612V114.612Z" fill="#14233A"/>
<path d="M385.012 151.677H329.352C328.811 151.677 328.292 151.462 327.909 151.08C327.526 150.697 327.311 150.178 327.311 149.637V149.637C327.311 149.096 327.526 148.577 327.909 148.194C328.292 147.811 328.811 147.596 329.352 147.596H385.01C385.552 147.596 386.071 147.811 386.453 148.194C386.836 148.577 387.051 149.096 387.051 149.637V149.637C387.051 150.178 386.836 150.696 386.454 151.079C386.072 151.462 385.553 151.677 385.012 151.677V151.677Z" fill="#14233A"/>
<path d="M335.843 136.932C338.851 136.932 341.29 134.494 341.29 131.486C341.29 128.478 338.851 126.04 335.843 126.04C332.836 126.04 330.397 128.478 330.397 131.486C330.397 134.494 332.836 136.932 335.843 136.932Z" fill="white"/>
<path d="M346.335 155.981C349.224 157.763 353.695 158.606 357.593 158.915L357.813 151.813C355.978 151.761 353.161 151.568 350.402 151.677C349.154 150.661 348.436 150.359 347.156 149.078C345.794 147.716 342.218 146.898 341.543 149.078C340.867 151.259 343.797 154.415 346.335 155.981Z" fill="#E98862"/>
<g opacity="0.3">
<path d="M53.0946 106.61L63.4582 110.332L68.1548 101.718L59.4113 95.0238C59.8616 93.0773 60.0754 91.108 60.0454 89.153L69.9987 84.4607L67.23 75.049L56.3206 76.4967C55.2861 74.8366 54.0407 73.2977 52.6087 71.9055L56.332 61.5419L47.7197 56.8453L41.0239 65.5887C39.0774 65.1385 37.1096 64.9247 35.1531 64.9546L30.4608 55L21.049 57.7701L22.4953 68.678C20.8353 69.7125 19.2963 70.9593 17.9042 72.39L7.54057 68.668L2.84397 77.2818L11.5874 83.9762C11.1371 85.9227 10.9234 87.8905 10.9533 89.8469L1.00009 94.5393L3.76874 103.95L14.6781 102.503C15.7126 104.163 16.958 105.702 18.3915 107.094L14.6681 117.458L23.2819 122.155L29.9777 113.411C31.9242 113.862 33.8935 114.075 35.8485 114.045L40.5408 124L49.9526 121.23L48.5048 110.322C48.9138 110.067 49.3142 109.8 49.7075 109.52L53.0946 106.61ZM25.2526 77.8475C30.0062 73.6682 37.0469 72.675 42.9262 75.8811C50.4485 79.9821 53.22 89.4052 49.119 96.9275C45.018 104.45 35.5948 107.223 28.0726 103.12C21.2856 99.4183 18.3644 91.3859 20.8723 84.3267" fill="#0059FF"/>
<path d="M25.2526 77.8475C30.0062 73.6682 37.0469 72.675 42.9262 75.8811C50.4485 79.9821 53.22 89.4052 49.119 96.9275C45.018 104.45 35.5948 107.223 28.0726 103.12C21.2856 99.4183 18.3644 91.3859 20.8723 84.3267M53.0946 106.61L63.4582 110.332L68.1548 101.718L59.4113 95.0238C59.8616 93.0773 60.0754 91.108 60.0454 89.153L69.9987 84.4607L67.23 75.049L56.3206 76.4967C55.2861 74.8366 54.0407 73.2977 52.6087 71.9055L56.332 61.5419L47.7197 56.8453L41.0239 65.5887C39.0774 65.1385 37.1096 64.9247 35.1531 64.9546L30.4608 55L21.049 57.7701L22.4953 68.678C20.8353 69.7125 19.2963 70.9593 17.9042 72.39L7.54057 68.668L2.84397 77.2818L11.5874 83.9762C11.1371 85.9227 10.9234 87.8905 10.9533 89.8469L1.00009 94.5393L3.76874 103.95L14.6781 102.503C15.7126 104.163 16.958 105.702 18.3915 107.094L14.6681 117.458L23.2819 122.155L29.9777 113.411C31.9242 113.862 33.8935 114.075 35.8485 114.045L40.5408 124L49.9526 121.23L48.5048 110.322C48.9138 110.067 49.3142 109.8 49.7075 109.52L53.0946 106.61Z" stroke="#367CFF" stroke-miterlimit="10" stroke-linecap="round" stroke-linejoin="round"/>
</g>
<g opacity="0.6">
<path d="M78.2705 73.0666L75.1271 78.8305L80.9779 83.3134C80.6772 84.6158 80.5333 85.9324 80.5532 87.242L73.8916 90.3811L75.7455 96.6794L83.0469 95.7118C83.738 96.8218 84.5716 97.8521 85.532 98.784L83.0398 105.719L88.8037 108.863L93.2851 103.012C94.5875 103.314 95.9041 103.456 97.2137 103.436L100.354 110.098L106.652 108.244L105.684 100.944C106.795 100.253 107.824 99.4181 108.757 98.4591L115.692 100.951L118.836 95.1875L112.985 90.706C113.286 89.4036 113.43 88.0855 113.41 86.776L120.071 83.6369L118.217 77.3386L110.917 78.3076C110.225 77.1961 109.391 76.1659 108.432 75.234L110.924 68.2988L105.161 65.1568L100.679 71.0062C99.3767 70.7055 98.0601 70.5616 96.7506 70.5816L93.61 63.9199L87.3117 65.7738L88.2807 73.0738C87.1692 73.7663 86.1404 74.5999 85.2085 75.5589L78.2705 73.0666ZM87.0496 90.0306C86.2673 87.4586 86.4781 84.5873 87.8675 82.0409C90.6119 77.0066 96.9187 75.1513 101.952 77.8958C106.986 80.6416 108.84 86.947 106.095 91.9813C103.351 97.0142 97.0455 98.8695 92.0112 96.1251C91.4654 95.8273 90.9567 95.4881 90.4879 95.1119" fill="#0059FF"/>
<path d="M87.0496 90.0306C86.2673 87.4586 86.4781 84.5873 87.8675 82.0409C90.6119 77.0066 96.9187 75.1513 101.952 77.8958C106.986 80.6416 108.84 86.947 106.095 91.9813C103.351 97.0142 97.0455 98.8695 92.0112 96.1251C91.4654 95.8273 90.9567 95.4881 90.4879 95.1119M78.2705 73.0666L75.1271 78.8305L80.9779 83.3134C80.6772 84.6158 80.5333 85.9324 80.5532 87.242L73.8916 90.3811L75.7455 96.6794L83.0469 95.7118C83.738 96.8218 84.5716 97.8521 85.532 98.784L83.0398 105.719L88.8037 108.863L93.2851 103.012C94.5875 103.314 95.9041 103.456 97.2137 103.436L100.354 110.098L106.652 108.244L105.684 100.944C106.795 100.253 107.824 99.4181 108.757 98.4591L115.692 100.951L118.836 95.1875L112.985 90.706C113.286 89.4036 113.43 88.0855 113.41 86.776L120.071 83.6369L118.217 77.3386L110.917 78.3076C110.225 77.1961 109.391 76.1659 108.432 75.234L110.924 68.2988L105.161 65.1568L100.679 71.0062C99.3767 70.7055 98.0601 70.5616 96.7506 70.5816L93.61 63.9199L87.3117 65.7738L88.2807 73.0738C87.1692 73.7663 86.1404 74.5999 85.2085 75.5589L78.2705 73.0666Z" stroke="#367CFF" stroke-miterlimit="10" stroke-linecap="round" stroke-linejoin="round"/>
</g>
<g opacity="0.6">
<path d="M64.2693 48.7538L62.6356 51.7494L65.6763 54.0793C65.5201 54.7562 65.4453 55.4405 65.4556 56.1211L61.9935 57.7526L62.957 61.026L66.7516 60.5231C67.1108 61.1 67.544 61.6355 68.0431 62.1198L66.7479 65.7242L69.7435 67.3579L72.0725 64.3171C72.7494 64.4741 73.4337 64.5482 74.1142 64.5378L75.7464 68L79.0197 67.0365L78.5161 63.2425C79.0938 62.8833 79.6284 62.4494 80.1135 61.9509L83.7178 63.2462L85.3515 60.2506L82.3107 57.9214C82.467 57.2445 82.5418 56.5595 82.5314 55.8789L85.9935 54.2474L85.0301 50.9741L81.2362 51.4777C80.8763 50.9 80.443 50.3646 79.9447 49.8802L81.2399 46.2758L78.2443 44.6428L75.9153 47.6829C75.2384 47.5267 74.5541 47.4519 73.8736 47.4622L72.2414 44L68.9681 44.9635L69.4717 48.7575C68.894 49.1174 68.3594 49.5507 67.875 50.0491L64.2693 48.7538ZM68.8318 57.5704C68.4253 56.2337 68.5349 54.7414 69.2569 53.418C70.6832 50.8015 73.9609 49.8373 76.5766 51.2636C79.193 52.6907 80.1565 55.9678 78.7301 58.5843C77.3038 61.2 74.0269 62.1642 71.4105 60.7379C71.1268 60.5831 70.8625 60.4068 70.6188 60.2113" fill="#0059FF"/>
<path d="M68.8318 57.5704C68.4253 56.2337 68.5349 54.7414 69.2569 53.418C70.6832 50.8015 73.9609 49.8373 76.5766 51.2636C79.193 52.6907 80.1565 55.9678 78.7301 58.5843C77.3038 61.2 74.0269 62.1642 71.4105 60.7379C71.1268 60.5831 70.8625 60.4068 70.6188 60.2113M64.2693 48.7538L62.6356 51.7494L65.6763 54.0793C65.5201 54.7562 65.4453 55.4405 65.4556 56.1211L61.9935 57.7526L62.957 61.026L66.7516 60.5231C67.1108 61.1 67.544 61.6355 68.0431 62.1198L66.7479 65.7242L69.7435 67.3579L72.0725 64.3171C72.7494 64.4741 73.4337 64.5482 74.1142 64.5378L75.7464 68L79.0197 67.0365L78.5161 63.2425C79.0938 62.8833 79.6284 62.4494 80.1135 61.9509L83.7178 63.2462L85.3515 60.2506L82.3107 57.9214C82.467 57.2445 82.5418 56.5595 82.5314 55.8789L85.9935 54.2474L85.0301 50.9741L81.2362 51.4777C80.8763 50.9 80.443 50.3646 79.9447 49.8802L81.2399 46.2758L78.2443 44.6428L75.9153 47.6829C75.2384 47.5267 74.5541 47.4519 73.8736 47.4622L72.2414 44L68.9681 44.9635L69.4717 48.7575C68.894 49.1174 68.3594 49.5507 67.875 50.0491L64.2693 48.7538Z" stroke="#367CFF" stroke-miterlimit="10" stroke-linecap="round" stroke-linejoin="round"/>
</g>
<path d="M446.539 373.308H1.46068C1.40098 373.313 1.34146 373.29 1.28567 373.242C1.22987 373.194 1.17896 373.121 1.13596 373.028C1.09296 372.935 1.05876 372.823 1.0354 372.699C1.01204 372.576 1 372.443 1 372.308C1 372.174 1.01204 372.041 1.0354 371.917C1.05876 371.794 1.09296 371.682 1.13596 371.589C1.17896 371.495 1.22987 371.422 1.28567 371.374C1.34146 371.326 1.40098 371.304 1.46068 371.309H446.539C446.599 371.304 446.659 371.326 446.714 371.374C446.77 371.422 446.821 371.495 446.864 371.589C446.907 371.682 446.941 371.794 446.965 371.917C446.988 372.041 447 372.174 447 372.308C447 372.443 446.988 372.576 446.965 372.699C446.941 372.823 446.907 372.935 446.864 373.028C446.821 373.121 446.77 373.194 446.714 373.242C446.659 373.29 446.599 373.313 446.539 373.308V373.308Z" fill="#292A2E"/>
<defs>
<clipPath id="clip0_576_380">
<rect width="122.581" height="219.393" fill="white" transform="translate(70.1071 92.9963) rotate(-17.022)"/>
</clipPath>
</defs>
</svg>
