<svg xmlns="http://www.w3.org/2000/svg" width="px" height="50" viewBox="0 0 50 50"><path style="fill:none;stroke-width:10;stroke-linecap:round;stroke-linejoin:round;stroke:#f8f8f8;stroke-opacity:1;stroke-miterlimit:4" d="M130.33 116.993h24.002c4.95 0 9.706-1.96 13.197-5.465a18.626 18.626 0 0 0 5.465-13.197V61.007c0-4.95-1.961-9.707-5.465-13.211a18.685 18.685 0 0 0-13.197-5.465h-27.994M79.668 33v.097M98.332 145v.098M89 61.007H23.668c-4.95 0-9.706 1.96-13.197 5.465a18.626 18.626 0 0 0-5.465 13.197v37.324a18.658 18.658 0 0 0 18.662 18.676h27.994Zm-37.338 0V23.668a18.64 18.64 0 0 1 5.479-13.197 18.626 18.626 0 0 1 13.197-5.465h37.324c4.95 0 9.707 1.961 13.197 5.465a18.64 18.64 0 0 1 5.48 13.197v46.67c0 4.95-1.975 9.692-5.48 13.197C117.37 87.039 109.29 89 104.34 89H70.338c-4.95 0-9.707 1.96-13.197 5.465a18.664 18.664 0 0 0-5.48 13.197v46.67a18.64 18.64 0 0 0 5.48 13.197 18.626 18.626 0 0 0 13.197 5.465h37.324c4.95 0 9.707-1.961 13.197-5.465a18.64 18.64 0 0 0 5.48-13.197v-37.339Zm0 0" transform="rotate(.153) scale(.2809)"/></svg>