<svg width="83" height="83" fill="none" xmlns="http://www.w3.org/2000/svg"><g filter="url(#filter0_d_1_38)" fill="#fff"><path d="M41.5 22.998A14.503 14.503 0 1 0 56.002 37.5 14.518 14.518 0 0 0 41.5 22.998zm0 26.587A12.086 12.086 0 1 1 53.585 37.5 12.098 12.098 0 0 1 41.5 49.585z"/><path d="M41.414 32.217a1.209 1.209 0 0 0-1.123-.76h-2.416a1.21 1.21 0 0 0-1.123.76l-2.417 6.042a1.223 1.223 0 0 0-.086.45v4.834h2.417v-3.626H41.5v3.626h2.417v-4.834c0-.154-.03-.307-.086-.45l-2.417-6.042zm-2.721 1.658h.78l1.45 3.625h-3.68l1.45-3.625zM47.542 31.457h-2.416v12.086h2.416V31.458z"/><path d="M72.921 12.121a6.06 6.06 0 1 0-5.036-2.715l-8.44 8.44-1.709-1.71a1.208 1.208 0 0 0-1.58-.112l-2.588 1.94a22.106 22.106 0 0 0-1.877-1.031l3.957-3.957c.227-.227.354-.534.354-.855V9.533a4.834 4.834 0 1 0-2.417 0v2.088l-4.296 4.296a22.768 22.768 0 0 0-2.509-.76l-.458-3.207a1.208 1.208 0 0 0-1.197-1.037h-7.25a1.209 1.209 0 0 0-1.197 1.037l-.458 3.207a22.76 22.76 0 0 0-2.509.76l-4.296-4.296V9.533a4.834 4.834 0 1 0-2.417 0v2.588c0 .32.127.628.354.855l3.957 3.957c-.638.316-1.268.654-1.877 1.032l-2.589-1.941a1.208 1.208 0 0 0-1.58.112l-1.708 1.71-8.44-8.44a6.06 6.06 0 1 0-1.71 1.709l8.441 8.44-1.71 1.709a1.207 1.207 0 0 0-.112 1.58l1.94 2.587c-.418.687-.8 1.395-1.144 2.122l-4.2-4.2a1.208 1.208 0 0 0-.855-.355h-2.232a4.834 4.834 0 1 0 0 2.417h1.732l4.557 4.557c-.26.737-.482 1.488-.665 2.248l-3.207.458a1.208 1.208 0 0 0-1.037 1.197v7.25a1.208 1.208 0 0 0 1.037 1.197l3.207.458c.183.76.404 1.51.665 2.248l-4.557 4.557h-1.732a4.834 4.834 0 1 0 0 2.417h2.232c.32 0 .628-.127.854-.354l4.201-4.2c.344.726.726 1.434 1.145 2.12l-1.941 2.589a1.208 1.208 0 0 0 .112 1.58l1.71 1.708-8.44 8.44a6.061 6.061 0 1 0 1.709 1.71l8.44-8.44 1.709 1.71a1.209 1.209 0 0 0 1.58.111l2.587-1.94c.604.377 1.238.715 1.878 1.032l-3.957 3.956a1.207 1.207 0 0 0-.354.855v2.588a4.833 4.833 0 1 0 2.417 0V63.38l4.296-4.296c.821.301 1.659.555 2.509.76l.458 3.207a1.208 1.208 0 0 0 1.197 1.037h7.25a1.208 1.208 0 0 0 1.197-1.037l.458-3.207c.85-.205 1.688-.459 2.509-.76l4.296 4.296v2.088a4.833 4.833 0 1 0 2.417 0V62.88c0-.32-.127-.628-.354-.855l-3.957-3.956c.64-.317 1.268-.655 1.878-1.032l2.588 1.94a1.209 1.209 0 0 0 1.58-.112l1.708-1.71 8.44 8.44a6.06 6.06 0 1 0 1.71-1.708l-8.441-8.44 1.71-1.71a1.21 1.21 0 0 0 .112-1.58l-1.94-2.588c.377-.604.715-1.238 1.032-1.877l3.956 3.957c.227.227.534.354.855.354h2.588a4.834 4.834 0 1 0 0-2.417H67.38l-4.296-4.296c.301-.821.555-1.659.76-2.509l3.207-.458a1.209 1.209 0 0 0 1.037-1.196v-7.251a1.209 1.209 0 0 0-1.037-1.197l-3.207-.458a22.833 22.833 0 0 0-.76-2.509l4.296-4.296h2.088a4.834 4.834 0 1 0 0-2.417H66.88c-.32 0-.628.127-.855.354l-3.956 3.957a22.892 22.892 0 0 0-1.032-1.878l1.94-2.588a1.208 1.208 0 0 0-.112-1.58l-1.71-1.708 8.44-8.44a6.004 6.004 0 0 0 3.327 1.006zm-20.544-7.25a2.417 2.417 0 1 1 4.833 0 2.417 2.417 0 0 1-4.833 0zm-26.588 0a2.417 2.417 0 1 1 4.834 0 2.417 2.417 0 0 1-4.834 0zM10.08 9.703a3.625 3.625 0 1 1 0-7.25 3.625 3.625 0 0 1 0 7.25zM8.87 26.624a2.418 2.418 0 1 1 0-4.836 2.418 2.418 0 0 1 0 4.835zm0 26.587a2.417 2.417 0 1 1 0-4.834 2.417 2.417 0 0 1 0 4.834zm1.209 19.336a3.625 3.625 0 1 1 0-7.25 3.625 3.625 0 0 1 0 7.25zm20.544-2.417a2.417 2.417 0 1 1-4.833 0 2.417 2.417 0 0 1 4.833 0zm26.588 0a2.416 2.416 0 1 1-4.832 0 2.416 2.416 0 0 1 4.832 0zm15.71-4.834a3.625 3.625 0 1 1 0 7.25 3.625 3.625 0 0 1 0-7.25zm1.209-16.92a2.418 2.418 0 1 1 0 4.836 2.418 2.418 0 0 1 0-4.835zm0-26.586a2.418 2.418 0 1 1 0 4.835 2.418 2.418 0 0 1 0-4.835zm-8.46 13.132v5.156l-3.002.429a1.207 1.207 0 0 0-1.015.967 20.332 20.332 0 0 1-3.093 7.476 1.208 1.208 0 0 0 .037 1.399l1.813 2.423-3.642 3.641-2.417-1.813a1.208 1.208 0 0 0-1.4-.036 20.345 20.345 0 0 1-7.476 3.093 1.206 1.206 0 0 0-.967 1.015l-.43 2.998h-5.156l-.429-3.002a1.208 1.208 0 0 0-.967-1.015 20.346 20.346 0 0 1-7.477-3.092 1.208 1.208 0 0 0-1.4.036l-2.416 1.813-3.646-3.642 1.813-2.423a1.209 1.209 0 0 0 .036-1.4 20.33 20.33 0 0 1-3.093-7.475 1.21 1.21 0 0 0-1.015-.967l-2.998-.425v-5.156l3.002-.429a1.21 1.21 0 0 0 1.015-.967 20.342 20.342 0 0 1 3.092-7.477 1.21 1.21 0 0 0-.036-1.399l-1.813-2.417 3.645-3.645 2.417 1.813a1.21 1.21 0 0 0 1.4.036 20.331 20.331 0 0 1 7.476-3.092 1.21 1.21 0 0 0 .966-1.016l.428-3h5.156l.429 3.003a1.208 1.208 0 0 0 .967 1.015 20.331 20.331 0 0 1 7.475 3.093 1.21 1.21 0 0 0 1.4-.037l2.423-1.813 3.645 3.645-1.813 2.417a1.208 1.208 0 0 0-.036 1.4 20.342 20.342 0 0 1 3.092 7.477 1.209 1.209 0 0 0 1.016.967l2.994.426zm7.251-32.469a3.625 3.625 0 1 1 0 7.25 3.625 3.625 0 0 1 0-7.25z"/></g><defs><filter id="filter0_d_1_38" x="0" y="0" width="83" height="83" filterUnits="userSpaceOnUse" color-interpolation-filters="sRGB"><feFlood flood-opacity="0" result="BackgroundImageFix"/><feColorMatrix in="SourceAlpha" values="0 0 0 0 0 0 0 0 0 0 0 0 0 0 0 0 0 0 127 0" result="hardAlpha"/><feOffset dy="4"/><feGaussianBlur stdDeviation="2"/><feComposite in2="hardAlpha" operator="out"/><feColorMatrix values="0 0 0 0 0 0 0 0 0 0 0 0 0 0 0 0 0 0 0.25 0"/><feBlend in2="BackgroundImageFix" result="effect1_dropShadow_1_38"/><feBlend in="SourceGraphic" in2="effect1_dropShadow_1_38" result="shape"/></filter></defs></svg>