<svg width="83" height="87" fill="none" xmlns="http://www.w3.org/2000/svg"><g filter="url(#filter0_d_1_45)"><path d="M56.891 41.683a1.146 1.146 0 1 1 2.266.352 17.876 17.876 0 0 1-6.048 10.817 17.827 17.827 0 0 1-11.61 4.287c-4.938 0-9.404-2.004-12.638-5.239a17.824 17.824 0 0 1-5.24-12.639c0-4.935 2.005-9.404 5.24-12.639A17.812 17.812 0 0 1 41.5 21.387a17.877 17.877 0 0 1 17.657 15.1 1.146 1.146 0 1 1-2.266.352 15.587 15.587 0 0 0-5.274-9.425A15.533 15.533 0 0 0 41.5 23.686a15.53 15.53 0 0 0-11.013 4.561 15.512 15.512 0 0 0-4.561 11.013c0 4.3 1.74 8.196 4.56 11.014a15.53 15.53 0 0 0 11.014 4.56c3.865 0 7.395-1.404 10.117-3.726a15.592 15.592 0 0 0 5.274-9.426zm10.2-13.222a1.283 1.283 0 0 1-1.33 0c-3.779-2.178-7.557-4.356-11.335-6.54a1.15 1.15 0 0 1-.574-.99V10.687a31.13 31.13 0 0 0-12.4-2.548 31.178 31.178 0 0 0-12.309 2.548V20.93c0 .457-.26.848-.643 1.035-3.757 2.166-7.509 4.33-11.261 6.496-.404.283-.904.248-1.33 0l-2.927-1.687a31.176 31.176 0 0 0 0 24.974l3.022-1.744c.37-.213.813-.195 1.157.01l2.978 1.721c.548.313.735 1.013.422 1.56a1.147 1.147 0 0 1-1.566.427l-2.421-1.4a9726.708 9726.708 0 0 0-9.13 5.274l9.13 5.27 9.13-5.27-2.2-1.27a1.15 1.15 0 0 1-.417-1.57 1.15 1.15 0 0 1 1.57-.417l3.912 2.261c.357.204.574.583.574.991v10.244A31.104 31.104 0 0 0 41.5 70.382c4.208 0 8.417-.847 12.352-2.547V57.59c0-.452.265-.847.648-1.035 3.782-2.182 7.57-4.365 11.356-6.552.37-.213.813-.195 1.157.009l3 1.735a31.047 31.047 0 0 0 2.608-12.5c0-4.252-.87-8.505-2.608-12.474L67.09 28.46zm-1.817-13.465L56.152 9.73V20.27c3.044 1.756 6.083 3.513 9.122 5.27V14.995zM57.3 7.739l9.126 5.274 9.13-5.274-2.004-1.156a1.147 1.147 0 0 1-.426-1.566 1.15 1.15 0 0 1 1.565-.421l3.718 2.148c.365.204.582.578.582.995L79 20.93c0 .457-.265.848-.648 1.035-2.113 1.218-4.226 2.435-6.339 3.657a33.426 33.426 0 0 1 2.9 13.626 33.439 33.439 0 0 1-2.9 13.656c2.135 1.23 4.274 2.461 6.409 3.696.356.204.574.583.578.991v13.192c0 .456-.265.847-.648 1.034-3.757 2.166-7.509 4.33-11.26 6.496-.444.257-.888.26-1.331 0-3.765-2.204-7.557-4.356-11.335-6.54a1.15 1.15 0 0 1-.574-.99v-.461a33.574 33.574 0 0 1-24.708 0v.46c0 .457-.261.848-.644 1.035-3.756 2.166-7.509 4.33-11.26 6.496-.44.257-.831.287-1.331 0-3.796-2.152-7.557-4.356-11.335-6.54a1.15 1.15 0 0 1-.574-.99V57.59c0-.452.265-.847.648-1.035 2.113-1.217 4.226-2.434 6.339-3.656a33.43 33.43 0 0 1-2.904-13.626c0-4.661.965-9.322 2.904-13.652-2.135-1.235-4.274-2.465-6.413-3.7A1.15 1.15 0 0 1 4 20.93V7.74c0-.453.265-.848.648-1.036C8.43 4.522 12.218 2.34 16.004.152c.37-.213.813-.195 1.157.009 3.8 2.196 7.595 4.387 11.395 6.578.587.33.587.84.587 1.466a33.453 33.453 0 0 1 12.309-2.357 33.412 33.412 0 0 1 12.4 2.357v-.466c0-.452.265-.847.648-1.035C58.283 4.522 62.07 2.34 65.856.152c.37-.213.814-.195 1.157.009l3.165 1.83a1.14 1.14 0 0 1 .422 1.561 1.145 1.145 0 0 1-1.565.427l-2.609-1.51L57.3 7.74zm10.274 7.257v10.543c3.043-1.756 6.082-3.513 9.121-5.27V9.727l-9.121 5.27zm-2.3 49.852l-9.122-5.27v10.544c3.044 1.756 6.083 3.513 9.122 5.27V64.847zm-7.979-7.252l9.13 5.27 9.131-5.27c-3.047-1.761-6.087-3.518-9.13-5.274-3.044 1.756-6.087 3.513-9.13 5.274zm-41.873 7.252L6.3 59.578v10.544c3.043 1.756 6.083 3.513 9.122 5.27V64.847zm2.3 0V75.39c3.043-1.756 6.082-3.513 9.121-5.27V59.579l-9.121 5.27zm-2.3-49.852L6.3 9.73V20.27c3.043 1.756 6.083 3.513 9.122 5.27V14.995zM7.448 7.739l9.126 5.27 9.126-5.27c-3.043-1.756-6.083-3.513-9.126-5.27L7.448 7.74zm10.274 7.257v10.543c3.043-1.756 6.082-3.513 9.121-5.27V9.732l-9.121 5.265zm58.973 44.582l-9.121 5.27V75.39c3.043-1.756 6.082-3.513 9.121-5.27V59.579zm-43.5-27.334a1.154 1.154 0 0 1-1.151-1.152c0-.635.517-1.153 1.152-1.153h4.543v-1.795c0-.635.513-1.148 1.152-1.148.635 0 1.148.513 1.148 1.148v1.795h2.917v-1.795a1.15 1.15 0 0 1 1.152-1.148 1.15 1.15 0 0 1 1.153 1.148v1.926a5.282 5.282 0 0 1 2.56 1.408 5.193 5.193 0 0 1-.434 7.783 5.22 5.22 0 0 1 1.982 4.087 5.19 5.19 0 0 1-1.547 3.696 5.29 5.29 0 0 1-2.561 1.413v1.921c0 .635-.518 1.153-1.153 1.153a1.154 1.154 0 0 1-1.152-1.153v-1.795H40.04v1.795a1.15 1.15 0 1 1-2.3 0v-1.795h-4.543a1.15 1.15 0 0 1 0-2.3h1.46v-14.04h-1.46zm3.761 8.17v5.869h7.152c.818 0 1.561-.33 2.096-.866a2.912 2.912 0 0 0 0-4.143 2.972 2.972 0 0 0-2.096-.861h-7.152zm7.152-8.17h-7.152v5.87h7.152c.818 0 1.561-.336 2.096-.866a2.912 2.912 0 0 0 0-4.144 2.973 2.973 0 0 0-2.096-.86z" fill="#fff"/></g><defs><filter id="filter0_d_1_45" x="0" y="0" width="83" height="86.517" filterUnits="userSpaceOnUse" color-interpolation-filters="sRGB"><feFlood flood-opacity="0" result="BackgroundImageFix"/><feColorMatrix in="SourceAlpha" values="0 0 0 0 0 0 0 0 0 0 0 0 0 0 0 0 0 0 127 0" result="hardAlpha"/><feOffset dy="4"/><feGaussianBlur stdDeviation="2"/><feComposite in2="hardAlpha" operator="out"/><feColorMatrix values="0 0 0 0 0 0 0 0 0 0 0 0 0 0 0 0 0 0 0.25 0"/><feBlend in2="BackgroundImageFix" result="effect1_dropShadow_1_45"/><feBlend in="SourceGraphic" in2="effect1_dropShadow_1_45" result="shape"/></filter></defs></svg>