<svg width="83" height="84" fill="none" xmlns="http://www.w3.org/2000/svg"><g filter="url(#filter0_d_1_47)" fill="#fff"><path d="M69.471 46.561a29.338 29.338 0 0 0 1.426-9.064c0-3.09-.477-6.123-1.416-9.033a14.642 14.642 0 0 0 5.506-3.67 14.601 14.601 0 0 0 4.007-10.514C78.76 6.177 71.98-.225 63.877.006a14.604 14.604 0 0 0-10.268 4.602 14.67 14.67 0 0 0-3.076 4.91A29.336 29.336 0 0 0 41.5 8.1a29.34 29.34 0 0 0-9.04 1.419C30.36 3.963 24.985 0 18.701 0 10.595 0 4 6.595 4 14.7c0 6.284 3.963 11.658 9.52 13.757a29.327 29.327 0 0 0-1.418 9.04c0 3.102.48 6.145 1.426 9.064C7.966 48.659 4 54.035 4 60.321c0 2.212.48 4.34 1.426 6.323a1.1 1.1 0 0 0 1.984-.947 12.384 12.384 0 0 1-1.212-5.376c0-6.894 5.61-12.502 12.503-12.502 6.895 0 12.504 5.608 12.504 12.502 0 6.894-5.61 12.502-12.504 12.502-3.144 0-6.15-1.171-8.462-3.299a1.1 1.1 0 0 0-1.488 1.618 14.658 14.658 0 0 0 9.95 3.88c6.293 0 11.674-3.975 13.767-9.545a29.324 29.324 0 0 0 9.031 1.415c3.09 0 6.124-.476 9.032-1.414 2.093 5.57 7.475 9.543 13.767 9.543 8.107 0 14.701-6.594 14.701-14.7 0-6.286-3.966-11.663-9.528-13.76zM55.207 6.116a12.423 12.423 0 0 1 9.096-3.918c6.73 0 12.3 5.375 12.493 12.144a12.421 12.421 0 0 1-3.407 8.943 12.422 12.422 0 0 1-9.096 3.918c-6.73 0-12.3-5.375-12.493-12.144a12.419 12.419 0 0 1 3.407-8.943zm-5.292 57.25a27.15 27.15 0 0 1-8.416 1.329c-2.88 0-5.706-.448-8.414-1.328.208-.983.318-2.002.318-3.046 0-8.106-6.595-14.7-14.702-14.7-1.05 0-2.075.111-3.063.321a27.128 27.128 0 0 1-1.338-8.445c0-2.883.448-5.71 1.33-8.42a14.713 14.713 0 0 0 10.258-1.55 1.1 1.1 0 0 0-1.076-1.916 12.511 12.511 0 0 1-6.11 1.592c-6.896 0-12.504-5.609-12.504-12.503 0-6.893 5.61-12.502 12.503-12.502 6.895 0 12.504 5.609 12.504 12.503 0 2.884-1.005 5.698-2.831 7.924a1.099 1.099 0 1 0 1.699 1.393 14.729 14.729 0 0 0 3.006-12.389 27.14 27.14 0 0 1 8.42-1.33c2.882 0 5.709.448 8.417 1.329a14.84 14.84 0 0 0-.313 3.493c.228 7.96 6.776 14.28 14.69 14.28a14.844 14.844 0 0 0 3.077-.322 27.142 27.142 0 0 1 1.33 8.418c0 2.892-.452 5.728-1.339 8.445a14.679 14.679 0 0 0-3.063-.321c-8.106 0-14.701 6.594-14.701 14.7 0 1.044.11 2.063.318 3.046zm14.383 9.457c-6.894 0-12.503-5.608-12.503-12.502 0-6.894 5.609-12.502 12.503-12.502 6.895 0 12.504 5.608 12.504 12.502 0 6.894-5.609 12.502-12.504 12.502z"/><path d="M26.184 8.214a1.099 1.099 0 0 0-1.251.01 6.186 6.186 0 0 1-1.197.66 4.093 4.093 0 0 0-5.197.135 4.08 4.08 0 0 0-1.38 2.626 5.99 5.99 0 0 1-4.025-2.488 1.1 1.1 0 0 0-1.903.185c-.032.071-.771 1.76-.677 3.829.072 1.582.638 3.622 2.703 5.198-.744.24-1.529.35-2.311.319a1.099 1.099 0 0 0-.578 2.059c1.724.957 3.571 1.437 5.376 1.437a9.692 9.692 0 0 0 4.935-1.33c1.89-1.112 3.265-2.815 4.01-4.894.024-.053.043-.108.059-.164a11.415 11.415 0 0 0 .58-3.85 6.25 6.25 0 0 0 1.306-2.564 1.1 1.1 0 0 0-.45-1.168zm-3.084 3.56c.022.115.034.234.034.347a9.26 9.26 0 0 1-.507 3.105c-.571 1.597-1.61 2.88-3.062 3.734-1.33.782-2.854 1.115-4.409 1.003.356-.177.7-.377 1.03-.6a1.1 1.1 0 0 0-.172-1.914c-2.052-.912-3.15-2.363-3.26-4.31a6.345 6.345 0 0 1 .04-1.133 8.19 8.19 0 0 0 5.468 1.9 1.099 1.099 0 0 0 1.071-1.098v-.667-.015a1.889 1.889 0 0 1 3.31-1.263c.138.157.313.269.504.328a1.103 1.103 0 0 0-.047.584zM60.682 15.567h1.558v6.553a1.1 1.1 0 0 0 2.198 0v-6.553h1.697a1.1 1.1 0 0 0 0-2.198h-1.697v-3.074c0-1.056.86-1.915 1.915-1.915h1.423a1.1 1.1 0 0 0 0-2.198h-1.423a4.117 4.117 0 0 0-4.113 4.113v3.074h-1.558a1.1 1.1 0 0 0 0 2.198zM16.208 66.004c.262 0 .523-.067.756-.202l7.48-4.32c.467-.27.756-.771.756-1.31 0-.538-.29-1.04-.756-1.309l-7.48-4.32a1.515 1.515 0 0 0-2.268 1.309v8.64a1.516 1.516 0 0 0 1.512 1.512zm.686-8.964l5.423 3.133-5.423 3.132V57.04zM69.074 52.538h-9.55a3.012 3.012 0 0 0-3.01 3.009v9.548c0 1.66 1.35 3.01 3.01 3.01h9.55a3.012 3.012 0 0 0 3.008-3.01v-9.548c0-1.66-1.35-3.01-3.008-3.01zm.81 12.557a.811.811 0 0 1-.81.811h-9.55a.811.811 0 0 1-.811-.81v-9.55c0-.447.363-.81.81-.81h9.55c.448 0 .811.364.811.81v9.55z"/><path d="M64.298 57a3.326 3.326 0 0 0-3.322 3.321 3.326 3.326 0 0 0 3.322 3.322 3.326 3.326 0 0 0 3.323-3.322A3.326 3.326 0 0 0 64.298 57zm0 4.445a1.125 1.125 0 1 1 1.124-1.124c0 .62-.504 1.124-1.124 1.124zM49.453 26.095c-.607 0-1.1.493-1.1 1.1v.492a32.793 32.793 0 0 1-4.85 2.346c-1.341.516-2.725.946-4.126 1.282a1.268 1.268 0 0 0-.775-.266H33.57a2.207 2.207 0 0 0-2.204 2.204v5.772c0 1.215.989 2.204 2.204 2.204h1.006l.381 7.327a1.099 1.099 0 1 0 2.195-.114l-.375-7.213h1.825c.291 0 .56-.1.774-.265.892.215 1.78.468 2.646.756a1.1 1.1 0 0 0 .692-2.087 35.233 35.233 0 0 0-2.841-.811v-5.365c1.5-.36 2.983-.82 4.42-1.373a35.061 35.061 0 0 0 4.06-1.872v11.856c-.483-.26-.971-.51-1.463-.746a1.098 1.098 0 1 0-.952 1.981 33.31 33.31 0 0 1 2.415 1.29v.49a1.1 1.1 0 0 0 2.198 0V27.195c0-.606-.491-1.099-1.098-1.099zM37.675 39.03l-4.111-.005.006-5.778h4.105v5.783z"/></g><defs><filter id="filter0_d_1_47" x="0" y="0" width="83" height="83.021" filterUnits="userSpaceOnUse" color-interpolation-filters="sRGB"><feFlood flood-opacity="0" result="BackgroundImageFix"/><feColorMatrix in="SourceAlpha" values="0 0 0 0 0 0 0 0 0 0 0 0 0 0 0 0 0 0 127 0" result="hardAlpha"/><feOffset dy="4"/><feGaussianBlur stdDeviation="2"/><feComposite in2="hardAlpha" operator="out"/><feColorMatrix values="0 0 0 0 0 0 0 0 0 0 0 0 0 0 0 0 0 0 0.25 0"/><feBlend in2="BackgroundImageFix" result="effect1_dropShadow_1_47"/><feBlend in="SourceGraphic" in2="effect1_dropShadow_1_47" result="shape"/></filter></defs></svg>