<svg xmlns="http://www.w3.org/2000/svg" width="px" height="50" viewBox="0 0 50 50"><defs><clipPath id="a"><path d="M16.504 16.75h16.625v16.625H16.504Zm0 0"/></clipPath><clipPath id="b"><path d="M40.516 8.988H50v9.485h-9.484Zm0 0"/></clipPath><clipPath id="c"><path d="M40.516 21h8.129v8h-8.13Zm0 0"/></clipPath></defs><path style="fill:none;stroke-width:10;stroke-linecap:round;stroke-linejoin:round;stroke:#fff;stroke-opacity:1;stroke-miterlimit:4" d="M111.996 14.004H56.004C48.274 14.004 42 20.265 42 27.996v112.008c0 7.731 6.274 13.992 14.004 13.992h55.992c7.73 0 14.004-6.261 14.004-13.992V27.996c0-7.731-6.274-13.992-14.004-13.992ZM83.646 126h.708" transform="rotate(.149) scale(.29762)"/><g clip-path="url(#a)"><path style="stroke:none;fill-rule:nonzero;fill:#f8f8f8;fill-opacity:1" d="m32.098 23.488-1.332-.297a6.253 6.253 0 0 0-.399-.957l.723-1.203c.27-.43.406-1.062 0-1.468l-.735-.735c-.406-.406-1.093-.332-1.503-.047l-1.172.746a6.33 6.33 0 0 0-.95-.398l-.3-1.348c-.09-.496-.52-1.031-1.094-1.031h-1.04c-.573 0-.925.543-1.038 1.04l-.336 1.331a6.228 6.228 0 0 0-1.012.426l-1.2-.762c-.41-.289-1.097-.363-1.503.043l-.734.735c-.407.406-.27 1.039 0 1.472l.761 1.262c-.144.289-.27.586-.367.894l-1.332.297c-.496.09-1.031.52-1.031 1.094v1.04c0 .573.543.925 1.039 1.038l1.348.34c.093.285.21.559.343.828l-.761 1.266c-.27.43-.407 1.062 0 1.468l.734.735c.406.406 1.094.332 1.504.047l1.203-.766a5.85 5.85 0 0 0 1.02.426l.332 1.332c.113.496.464 1.039 1.039 1.039h1.039c.574 0 1.004-.535 1.093-1.031l.301-1.356c.328-.101.64-.238.938-.39l1.176.746c.41.285 1.097.36 1.503-.047l.735-.735c.406-.406.27-1.039 0-1.468l-.723-1.203c.145-.286.27-.582.371-.891l1.352-.34c.496-.113 1.039-.465 1.039-1.039v-1.039c0-.574-.535-1.004-1.031-1.094Zm-.008 2.063a.676.676 0 0 1-.235.097l-1.925.48-.18.548a4.982 4.982 0 0 1-.309.742l-.261.512 1.02 1.699a.718.718 0 0 1 .1.25l-.683.683a.679.679 0 0 1-.176-.074l-1.71-1.09-.532.278c-.254.133-.52.242-.781.324l-.566.184-.426 1.933a.417.417 0 0 1-.113.219h-.938a.676.676 0 0 1-.098-.234l-.48-1.91-.55-.176c-.286-.09-.571-.211-.849-.356l-.535-.281-1.71 1.09a.395.395 0 0 1-.212.074l-.683-.664a.712.712 0 0 1 .097-.234l1.063-1.77-.254-.508a5.776 5.776 0 0 1-.285-.691l-.18-.547-1.906-.477a.713.713 0 0 1-.25-.101v-.969.004c.02 0 .105-.063.176-.074l1.96-.438.18-.57c.07-.234.172-.477.305-.742l.254-.512-1.055-1.75a.76.76 0 0 1-.101-.254l.683-.683c.063.023.14.05.176.074l1.742 1.11.532-.282c.277-.145.558-.262.843-.356l.555-.175.473-1.895a.713.713 0 0 1 .101-.25h.969c-.008.008.059.102.074.176l.434 1.969.566.183c.266.086.531.2.793.332l.531.278 1.672-1.067a.407.407 0 0 1 .215-.074l.68.66a.615.615 0 0 1-.094.234l-1.027 1.715.261.512c.141.277.25.54.332.797l.18.57 1.918.43c.117.02.207.086.227.125Zm-7.27-3.613a3.132 3.132 0 0 0-3.129 3.125 3.132 3.132 0 0 0 6.262 0 3.133 3.133 0 0 0-3.133-3.125Zm-.004 5.203a2.077 2.077 0 1 1-.002-4.158 2.077 2.077 0 0 1 .002 4.158Zm0 0"/></g><g clip-path="url(#b)"><path style="stroke:none;fill-rule:nonzero;fill:#f8f8f8;fill-opacity:1" d="m49.41 12.832-.758-.168a3.317 3.317 0 0 0-.226-.543l.41-.687c.156-.246.23-.606 0-.84l-.418-.418c-.23-.23-.621-.188-.86-.028l-.663.426a3.884 3.884 0 0 0-.543-.226l-.172-.77c-.051-.281-.297-.59-.625-.59h-.594c-.324 0-.527.313-.59.594l-.191.762c-.2.062-.395.144-.578.242l-.684-.434c-.234-.164-.625-.207-.855.024l-.422.422c-.23.23-.153.59 0 .836l.433.722a3.376 3.376 0 0 0-.207.508l-.762.168c-.28.055-.59.3-.59.625v.594c0 .328.313.527.594.594l.77.19c.055.165.121.321.195.474l-.433.722c-.153.246-.23.606 0 .84l.422.418c.23.23.62.188.855.027l.687-.437c.184.098.38.18.579.242l.191.758c.063.285.266.594.594.594h.59c.328 0 .574-.305.625-.586l.171-.774c.188-.058.364-.136.536-.226l.668.425c.238.165.629.208.859-.023l.418-.422c.23-.23.156-.59 0-.836l-.41-.687c.082-.16.152-.332.21-.508l.77-.191c.285-.067.594-.266.594-.594v-.594c0-.324-.305-.57-.59-.625Zm-.004 1.18a.364.364 0 0 1-.133.054l-1.097.274-.102.312c-.047.141-.105.282-.176.422l-.148.293.578.969c.04.059.055.113.059.144l-.387.387a.555.555 0 0 1-.102-.039l-.976-.621-.305.156a3.164 3.164 0 0 1-.445.188l-.32.101-.247 1.106a.23.23 0 0 1-.062.12h-.535a.306.306 0 0 1-.055-.132l-.273-1.09-.317-.097a3.445 3.445 0 0 1-.484-.204l-.305-.164-.972.625a.23.23 0 0 1-.122.04l-.39-.376a.317.317 0 0 1 .055-.132l.605-1.012-.145-.29a2.7 2.7 0 0 1-.16-.394l-.105-.312-1.086-.27c-.07-.015-.117-.043-.145-.058v-.555.004c.012 0 .063-.035.102-.043l1.117-.25.102-.324c.043-.133.101-.274.175-.426l.145-.29-.602-1a.424.424 0 0 1-.058-.144l.39-.386a.934.934 0 0 1 .102.039l.992.633.305-.16c.156-.083.316-.15.48-.204l.317-.097.27-1.082a.4.4 0 0 1 .058-.145h.55c-.003.008.036.059.044.102l.25 1.125.32.101c.152.05.305.113.453.192l.3.156.958-.61A.212.212 0 0 1 48 10.61l.387.375a.399.399 0 0 1-.051.137l-.59.977.152.293c.079.156.141.304.188.453l.102.324 1.097.246c.067.012.117.05.13.07Zm-4.144-2.063c-.985 0-1.785.801-1.785 1.781 0 .985.8 1.782 1.785 1.782.984 0 1.785-.797 1.785-1.782 0-.98-.8-1.78-1.785-1.78Zm-.004 2.969a1.186 1.186 0 1 1 .005-2.372 1.186 1.186 0 0 1-.005 2.372Zm0 0"/></g><g clip-path="url(#c)"><path style="fill:none;stroke-width:4;stroke-linecap:round;stroke-linejoin:round;stroke:#f8f8f8;stroke-opacity:1;stroke-miterlimit:4" d="m156.62 94.237-4.554-4.554m-9.095-15.92v20.474Zm0 0 4.54 4.54Zm0 0-4.555 4.54Zm13.65 20.474V73.763Zm0 0 4.554-4.554Zm0 0" transform="rotate(.149) scale(.29762)"/></g></svg>