<svg xmlns="http://www.w3.org/2000/svg" width="px" height="50" viewBox="0 0 50 50"><path style="stroke:none;fill-rule:nonzero;fill:#f8f8f8;fill-opacity:1" d="M34.11 1.563H15.89l-2.417 12.902A15.582 15.582 0 0 0 9.375 25c0 3.902 1.46 7.66 4.098 10.535l2.418 12.903h18.218l2.418-12.903A15.582 15.582 0 0 0 40.625 25c0-3.902-1.46-7.66-4.098-10.535ZM18.483 4.688h13.032l1.27 6.769a15.598 15.598 0 0 0-15.571 0Zm13.032 40.624H18.484l-1.27-6.769a15.598 15.598 0 0 0 15.571 0ZM25 37.5c-2.473 0-4.89-.734-6.945-2.105a12.518 12.518 0 0 1-5.317-12.833 12.541 12.541 0 0 1 3.422-6.402 12.495 12.495 0 0 1 13.625-2.707 12.518 12.518 0 0 1 5.61 4.602A12.517 12.517 0 0 1 37.5 25a12.518 12.518 0 0 1-3.664 8.836A12.518 12.518 0 0 1 25 37.5Zm0 0"/></svg>