<svg xmlns="http://www.w3.org/2000/svg" width="px" height="50" viewBox="0 0 50 50"><path style="fill:none;stroke-width:10;stroke-linecap:round;stroke-linejoin:round;stroke:#f8f8f8;stroke-opacity:1;stroke-miterlimit:4" d="M84 119.004V147M73.5 21h-42a10.51 10.51 0 0 0-7.429 3.071A10.51 10.51 0 0 0 21 31.5v77.004a10.48 10.48 0 0 0 3.071 7.416 10.523 10.523 0 0 0 7.429 3.084h105c2.782 0 5.46-1.115 7.429-3.084a10.48 10.48 0 0 0 3.071-7.416V73.5Zm0 0" transform="rotate(.149) scale(.29762)"/><path style="fill:none;stroke-width:10;stroke-linecap:round;stroke-linejoin:round;stroke:#f8f8f8;stroke-opacity:1;stroke-miterlimit:4" d="M48.996 147h70.008m-7.008-126L98.004 35.004l13.992 13.992Zm21 0L147 35.004l-14.004 13.992Zm0 0" transform="rotate(.149) scale(.29762)"/></svg>