<svg xmlns="http://www.w3.org/2000/svg" width="px" height="50" viewBox="0 0 50 50"><path style="stroke:none;fill-rule:nonzero;fill:#f8f8f8;fill-opacity:1" d="M25 0C11.215 0 0 11.266 0 25.11 0 37.827 9.46 48.366 21.684 50v-.762C9.879 47.61.75 37.41.75 25.11.75 11.68 11.629.754 25 .754S49.25 11.68 49.25 25.109c0 12.301-9.125 22.5-20.934 24.13V50C40.54 48.367 50 37.828 50 25.11 50 11.265 38.785 0 25 0Zm0 3.55c-11.777 0-21.355 9.622-21.355 21.446 0 10.7 7.832 19.594 18.039 21.2v-.77C11.894 43.832 4.394 35.277 4.394 25 4.395 13.586 13.638 4.305 25 4.305c11.363 0 20.605 9.28 20.605 20.695 0 10.277-7.5 18.832-17.289 20.426v.77c10.207-1.606 18.04-10.5 18.04-21.196 0-11.828-9.579-21.45-21.356-21.45Zm0 3.634C15.219 7.184 7.262 15.176 7.262 25c0 8.688 6.218 15.941 14.422 17.504v-.77C13.898 40.184 8.012 33.27 8.012 25c0-9.41 7.62-17.066 16.988-17.066 9.367 0 16.988 7.656 16.988 17.066 0 8.27-5.886 15.184-13.672 16.734v.77C36.52 40.94 42.738 33.688 42.738 25c0-9.824-7.957-17.816-17.738-17.816Zm0 3.609c-3.75.004-7.348 1.5-9.996 4.164A14.259 14.259 0 0 0 10.855 25c0 6.688 4.625 12.313 10.829 13.816v-.78C15.894 36.55 11.605 31.27 11.605 25a13.504 13.504 0 0 1 3.926-9.512A13.397 13.397 0 0 1 25 11.543a13.397 13.397 0 0 1 9.469 3.945A13.504 13.504 0 0 1 38.395 25c0 6.27-4.29 11.55-10.079 13.035v.781C34.523 37.312 39.145 31.687 39.145 25a14.259 14.259 0 0 0-4.149-10.043A14.115 14.115 0 0 0 25 10.793Zm0 3.66a10.475 10.475 0 0 0-7.422 3.09A10.599 10.599 0 0 0 14.496 25c.004 2.215.7 4.371 1.992 6.168a10.54 10.54 0 0 0 5.196 3.84v-.797a9.785 9.785 0 0 1-4.664-3.586A9.852 9.852 0 0 1 15.246 25c0-5.398 4.375-9.793 9.75-9.793 5.379 0 9.75 4.395 9.75 9.793a9.82 9.82 0 0 1-1.77 5.625 9.775 9.775 0 0 1-4.66 3.586v.797a10.55 10.55 0 0 0 5.2-3.84A10.612 10.612 0 0 0 35.504 25a10.583 10.583 0 0 0-3.082-7.453A10.479 10.479 0 0 0 25 14.453Zm0 3.633a6.875 6.875 0 0 0-4.863 2.027 6.922 6.922 0 0 0 1.547 10.942v-.88a6.166 6.166 0 0 1-2.567-6.913 6.125 6.125 0 0 1 9.559-3.195 6.184 6.184 0 0 1 2.07 7.082 6.166 6.166 0 0 1-2.43 3.027v.879a6.86 6.86 0 0 0 2.606-2.54 6.922 6.922 0 0 0-1.059-8.402A6.875 6.875 0 0 0 25 18.086Zm0 3.582A3.329 3.329 0 0 0 21.684 25 3.329 3.329 0 0 0 25 28.332 3.329 3.329 0 0 0 28.316 25 3.329 3.329 0 0 0 25 21.668Zm0 0"/></svg>