<svg width="396" height="281" viewBox="0 0 396 281" fill="none" xmlns="http://www.w3.org/2000/svg">
<path d="M368.358 4.95703H300.158C298.49 4.95703 297.139 6.30881 297.139 7.9763V48.1952C297.139 49.8627 298.49 51.2145 300.158 51.2145H368.358C370.025 51.2145 371.377 49.8627 371.377 48.1952V7.9763C371.377 6.30881 370.025 4.95703 368.358 4.95703Z" fill="#F4F4F4"/>
<g opacity="0.04">
<path d="M368.358 4.95703H300.157C299.359 4.95693 298.593 5.27291 298.027 5.83588C297.461 6.39884 297.141 7.163 297.137 7.96127L334.256 33.2932L371.376 7.96127C371.372 7.16347 371.052 6.39966 370.487 5.83674C369.921 5.27382 369.156 4.95755 368.358 4.95703V4.95703Z" fill="#292A2E"/>
</g>
<path d="M391.844 187.505H305.753C303.648 187.505 301.941 189.211 301.941 191.316V242.086C301.941 244.191 303.648 245.898 305.753 245.898H391.844C393.949 245.898 395.656 244.191 395.656 242.086V191.316C395.656 189.211 393.949 187.505 391.844 187.505Z" fill="#F4F4F4"/>
<g opacity="0.04">
<path d="M391.846 187.504H305.754C304.746 187.504 303.779 187.903 303.065 188.614C302.351 189.324 301.947 190.289 301.941 191.296L348.798 223.274L395.654 191.296C395.649 190.289 395.246 189.325 394.532 188.615C393.819 187.905 392.853 187.505 391.846 187.504V187.504Z" fill="#292A2E"/>
</g>
<path d="M100.687 77.8452H33.4417C31.7976 77.8452 30.4648 79.178 30.4648 80.8221V120.478C30.4648 122.122 31.7976 123.455 33.4417 123.455H100.687C102.331 123.455 103.664 122.122 103.664 120.478V80.8221C103.664 79.178 102.331 77.8452 100.687 77.8452Z" fill="#F4F4F4"/>
<g opacity="0.04">
<path d="M100.686 77.8452H33.4407C32.6537 77.8451 31.8985 78.1567 31.3405 78.7118C30.7825 79.2668 30.467 80.0203 30.4629 80.8074L67.0626 105.786L103.662 80.8084C103.659 80.0214 103.344 79.2678 102.786 78.7125C102.228 78.1572 101.473 77.8454 100.686 77.8452V77.8452Z" fill="#292A2E"/>
</g>
<path d="M100.234 105.631C99.3688 105.228 98.5124 104.81 97.6893 104.391C97.5823 104.337 97.4581 104.327 97.3439 104.364C97.2298 104.401 97.135 104.482 97.0806 104.589C97.0261 104.696 97.0163 104.82 97.0534 104.934C97.0905 105.049 97.1715 105.143 97.2785 105.198C98.1105 105.622 98.976 106.043 99.8505 106.452C99.9589 106.5 100.082 106.504 100.193 106.462C100.304 106.421 100.395 106.337 100.445 106.23C100.495 106.122 100.501 105.999 100.462 105.887C100.422 105.775 100.34 105.684 100.234 105.631H100.234Z" fill="#292A2E"/>
<path d="M113.466 110.663L113.401 110.643C112.513 110.371 111.626 110.088 110.766 109.801C110.652 109.764 110.527 109.772 110.42 109.826C110.313 109.88 110.231 109.974 110.193 110.088C110.155 110.202 110.164 110.326 110.218 110.434C110.272 110.541 110.366 110.623 110.48 110.661C111.348 110.949 112.241 111.234 113.133 111.507L113.204 111.529L113.225 111.535C113.34 111.565 113.463 111.548 113.565 111.489C113.668 111.43 113.744 111.332 113.775 111.217C113.807 111.103 113.792 110.98 113.734 110.877C113.677 110.773 113.58 110.696 113.466 110.663V110.663Z" fill="#292A2E"/>
<path d="M93.9575 102.367C93.1358 101.892 92.3207 101.398 91.5368 100.904C91.4865 100.87 91.43 100.847 91.3706 100.835C91.3112 100.824 91.2502 100.824 91.191 100.837C91.1319 100.85 91.0758 100.874 91.0262 100.908C90.9765 100.943 90.9343 100.987 90.902 101.038C90.8697 101.089 90.848 101.146 90.8381 101.206C90.8282 101.266 90.8304 101.327 90.8445 101.386C90.8586 101.444 90.8843 101.5 90.9201 101.548C90.9559 101.597 91.0011 101.638 91.0531 101.669C91.8474 102.17 92.6721 102.671 93.5039 103.151C93.5406 103.172 93.5801 103.188 93.6211 103.198C93.727 103.225 93.8388 103.212 93.9359 103.162C94.0331 103.113 94.1091 103.03 94.15 102.929C94.1909 102.827 94.194 102.715 94.1586 102.612C94.1232 102.509 94.0518 102.422 93.9575 102.367V102.367Z" fill="#292A2E"/>
<path d="M120.288 112.686C119.367 112.419 118.456 112.153 117.556 111.889C117.499 111.871 117.438 111.864 117.379 111.87C117.319 111.876 117.262 111.894 117.209 111.922C117.157 111.951 117.11 111.99 117.073 112.036C117.036 112.083 117.009 112.137 116.993 112.195C116.959 112.31 116.972 112.434 117.03 112.539C117.087 112.645 117.184 112.723 117.299 112.757C118.201 113.023 119.113 113.289 120.037 113.556L120.053 113.561C120.168 113.588 120.289 113.569 120.39 113.509C120.491 113.449 120.565 113.351 120.595 113.237C120.626 113.123 120.611 113.002 120.553 112.899C120.495 112.796 120.4 112.72 120.287 112.686H120.288Z" fill="#292A2E"/>
<path d="M88.0253 98.5284C87.257 97.9722 86.5015 97.3974 85.7759 96.8185C85.6821 96.7436 85.5623 96.7091 85.443 96.7226C85.3237 96.736 85.2146 96.7963 85.1398 96.8901C85.0649 96.984 85.0304 97.1038 85.0439 97.2231C85.0573 97.3424 85.1176 97.4514 85.2114 97.5263C85.948 98.1138 86.7146 98.6974 87.4938 99.2616C87.5408 99.2955 87.5937 99.3202 87.6498 99.3344C87.7518 99.3597 87.8595 99.3488 87.9543 99.3035C88.0491 99.2582 88.1252 99.1813 88.1696 99.0861C88.214 98.9908 88.2239 98.8831 88.1975 98.7813C88.1712 98.6796 88.1103 98.5902 88.0253 98.5284V98.5284Z" fill="#292A2E"/>
<path d="M106.759 108.379C105.876 108.045 104.988 107.695 104.123 107.339C104.068 107.316 104.009 107.305 103.95 107.305C103.89 107.305 103.831 107.317 103.776 107.34C103.722 107.362 103.672 107.396 103.63 107.438C103.588 107.48 103.555 107.53 103.532 107.585C103.509 107.64 103.498 107.699 103.498 107.759C103.498 107.818 103.51 107.877 103.533 107.932C103.556 107.987 103.589 108.036 103.631 108.078C103.674 108.12 103.724 108.154 103.779 108.176C104.653 108.536 105.549 108.889 106.438 109.226C106.455 109.232 106.472 109.238 106.489 109.242C106.601 109.269 106.72 109.253 106.82 109.197C106.921 109.14 106.996 109.048 107.03 108.937C107.065 108.827 107.056 108.708 107.005 108.604C106.955 108.501 106.867 108.42 106.759 108.379V108.379Z" fill="#292A2E"/>
<path d="M82.566 94.0583C81.8729 93.4143 81.1965 92.7499 80.5518 92.0836C80.5105 92.0408 80.4612 92.0066 80.4067 91.9829C80.3522 91.9592 80.2935 91.9464 80.2341 91.9454C80.1746 91.9443 80.1156 91.955 80.0603 91.9768C80.0049 91.9986 79.9545 92.0311 79.9117 92.0724C79.8689 92.1137 79.8347 92.163 79.811 92.2175C79.7873 92.272 79.7745 92.3307 79.7735 92.3901C79.7725 92.4496 79.7831 92.5086 79.8049 92.564C79.8267 92.6193 79.8592 92.6698 79.9005 92.7125C80.5549 93.3906 81.2446 94.0667 81.9497 94.7217C81.9933 94.7622 82.0444 94.7937 82.1001 94.8144C82.1559 94.8351 82.2151 94.8446 82.2745 94.8424C82.334 94.8403 82.3924 94.8264 82.4464 94.8016C82.5005 94.7769 82.5491 94.7417 82.5896 94.6981C82.63 94.6546 82.6615 94.6035 82.6822 94.5478C82.703 94.492 82.7125 94.4328 82.7103 94.3734C82.7081 94.3139 82.6943 94.2555 82.6695 94.2015C82.6447 94.1474 82.6096 94.0988 82.566 94.0583V94.0583Z" fill="#292A2E"/>
<path d="M82.5394 38.5205C83.2141 37.8818 83.9209 37.2469 84.6394 36.6336C84.6847 36.595 84.7218 36.5478 84.7489 36.4949C84.7759 36.4419 84.7922 36.3841 84.7969 36.3249C84.8015 36.2656 84.7945 36.206 84.7762 36.1494C84.7578 36.0929 84.7285 36.0405 84.6899 35.9953C84.6513 35.95 84.6041 35.9129 84.5512 35.8858C84.4982 35.8588 84.4404 35.8425 84.3812 35.8378C84.3219 35.8331 84.2623 35.8402 84.2057 35.8585C84.1492 35.8769 84.0968 35.9062 84.0516 35.9448C83.3214 36.5681 82.6032 37.2141 81.9168 37.8631C81.8736 37.904 81.8389 37.953 81.8147 38.0073C81.7905 38.0616 81.7772 38.1201 81.7756 38.1795C81.7739 38.239 81.7841 38.2981 81.8053 38.3537C81.8266 38.4092 81.8585 38.46 81.8994 38.5031C81.9403 38.5463 81.9893 38.581 82.0436 38.6052C82.0979 38.6294 82.1564 38.6427 82.2158 38.6444C82.2752 38.646 82.3344 38.6359 82.3899 38.6146C82.4455 38.5934 82.4962 38.5614 82.5394 38.5205V38.5205Z" fill="#292A2E"/>
<path d="M70.4546 56.2693C70.4653 56.2729 70.476 56.2759 70.488 56.2786C70.5989 56.3063 70.7161 56.2909 70.8161 56.2357C70.9161 56.1805 70.9915 56.0895 71.0271 55.981C71.3167 55.1028 71.6474 54.2167 72.0105 53.3475C72.0569 53.2368 72.0573 53.1122 72.0118 53.0011C71.9662 52.89 71.8784 52.8016 71.7677 52.7553C71.657 52.709 71.5323 52.7085 71.4213 52.7541C71.3102 52.7996 71.2218 52.8874 71.1755 52.9981C70.8033 53.889 70.4643 54.7972 70.1674 55.6977C70.1298 55.8116 70.1389 55.9358 70.1927 56.0429C70.2466 56.1501 70.3408 56.2315 70.4546 56.2693V56.2693Z" fill="#292A2E"/>
<path d="M69.5238 62.8268C69.6263 61.9066 69.7706 60.974 69.9526 60.0544C69.9642 59.9961 69.9642 59.9361 69.9525 59.8778C69.9409 59.8195 69.9179 59.764 69.8848 59.7146C69.8517 59.6652 69.8093 59.6228 69.7598 59.5898C69.7104 59.5568 69.6549 59.5339 69.5966 59.5223C69.5383 59.5108 69.4782 59.5108 69.4199 59.5224C69.3616 59.5341 69.3062 59.5571 69.2568 59.5901C69.2074 59.6232 69.1649 59.6657 69.132 59.7151C69.099 59.7646 69.076 59.8201 69.0645 59.8784C68.8774 60.8237 68.7304 61.7823 68.6239 62.7273C68.6118 62.8361 68.6395 62.9456 68.7018 63.0356C68.7642 63.1255 68.8571 63.1899 68.9633 63.2166C68.9831 63.2218 69.0033 63.2253 69.0237 63.2273C69.0829 63.234 69.1427 63.2289 69.1999 63.2123C69.2571 63.1958 69.3104 63.1681 69.3569 63.1309C69.4033 63.0937 69.442 63.0477 69.4706 62.9955C69.4993 62.9433 69.5173 62.886 69.5238 62.8268V62.8268Z" fill="#292A2E"/>
<path d="M75.1679 46.5115C75.0671 46.4464 74.9446 46.4239 74.8273 46.449C74.7099 46.474 74.6073 46.5445 74.5419 46.6451C74.0171 47.4558 73.5188 48.2855 73.0605 49.1122C73.0024 49.2173 72.9884 49.3412 73.0215 49.4566C73.0546 49.572 73.1322 49.6696 73.2372 49.7279C73.2719 49.7468 73.3088 49.7614 73.3471 49.7713C73.4439 49.7953 73.5458 49.7868 73.6373 49.747C73.7287 49.7072 73.8045 49.6384 73.8528 49.5512C74.3007 48.7425 74.7881 47.9305 75.3015 47.1371C75.3666 47.0364 75.3891 46.914 75.364 46.7967C75.339 46.6794 75.2684 46.5769 75.1679 46.5115V46.5115Z" fill="#292A2E"/>
<path d="M69.3294 67.0293C69.3248 66.9108 69.274 66.7989 69.1878 66.7174C69.1016 66.636 68.987 66.5916 68.8684 66.5938C68.7499 66.596 68.6369 66.6446 68.5538 66.7291C68.4707 66.8137 68.424 66.9274 68.4238 67.046C68.4415 68.0027 68.502 68.9713 68.6029 69.9257C68.6091 69.9848 68.6269 70.0421 68.6553 70.0943C68.6837 70.1465 68.7221 70.1926 68.7684 70.23C68.8146 70.2674 68.8677 70.2953 68.9247 70.3121C68.9817 70.329 69.0415 70.3344 69.1006 70.3282C69.1597 70.3219 69.217 70.3041 69.2692 70.2757C69.3214 70.2473 69.3675 70.2089 69.4049 70.1627C69.4423 70.1165 69.4702 70.0633 69.487 70.0063C69.5039 69.9493 69.5093 69.8896 69.5031 69.8305C69.4052 68.9022 69.3464 67.9599 69.3294 67.0293Z" fill="#292A2E"/>
<path d="M77.1325 43.7808C77.1827 43.8212 77.2411 43.8501 77.3036 43.8657C77.388 43.8868 77.4767 43.8831 77.5591 43.8551C77.6415 43.827 77.7141 43.7759 77.7682 43.7077C78.3431 42.9838 78.9547 42.2583 79.5866 41.5519C79.6629 41.4618 79.7011 41.3455 79.6929 41.2278C79.6847 41.11 79.6309 41.0001 79.5429 40.9214C79.4549 40.8428 79.3397 40.8015 79.2218 40.8066C79.1039 40.8116 78.9926 40.8624 78.9116 40.9483C78.2679 41.6681 77.6446 42.407 77.0591 43.1452C77.0221 43.1917 76.9946 43.2451 76.9783 43.3022C76.962 43.3594 76.9571 43.4192 76.9639 43.4782C76.9708 43.5373 76.9892 43.5944 77.0181 43.6463C77.047 43.6982 77.0859 43.744 77.1325 43.7808V43.7808Z" fill="#292A2E"/>
<path d="M72.5255 80.5971C72.475 80.4882 72.3833 80.4038 72.2705 80.3626C72.1578 80.3213 72.0332 80.3265 71.9243 80.377C71.8154 80.4276 71.731 80.5193 71.6897 80.6321C71.6484 80.7448 71.6536 80.8693 71.7042 80.9783C72.103 81.8364 72.5439 82.6985 73.0149 83.5416C73.0751 83.6434 73.1727 83.7177 73.2869 83.7485C73.4011 83.7794 73.5228 83.7643 73.6261 83.7065C73.7293 83.6487 73.8058 83.5529 73.8393 83.4394C73.8728 83.3259 73.8605 83.2039 73.8052 83.0993C73.3452 82.2766 72.9164 81.4355 72.5255 80.5971Z" fill="#292A2E"/>
<path d="M90.3963 31.7468C90.3293 31.6471 90.2255 31.5781 90.1077 31.5549C89.9899 31.5317 89.8677 31.5563 89.768 31.6232C88.9693 32.1576 88.1803 32.7134 87.4224 33.2719C87.3746 33.3072 87.3341 33.3515 87.3034 33.4024C87.2727 33.4533 87.2523 33.5098 87.2434 33.5686C87.2345 33.6273 87.2372 33.6873 87.2515 33.745C87.2658 33.8027 87.2913 33.8571 87.3265 33.9049C87.3618 33.9528 87.4062 33.9932 87.4571 34.0239C87.508 34.0546 87.5644 34.075 87.6232 34.0839C87.682 34.0928 87.7419 34.0901 87.7996 34.0758C87.8573 34.0615 87.9117 34.036 87.9595 34.0008C88.7068 33.4503 89.485 32.9032 90.2723 32.3747C90.372 32.3079 90.4411 32.2042 90.4643 32.0864C90.4876 31.9686 90.4631 31.8465 90.3963 31.7468V31.7468Z" fill="#292A2E"/>
<path d="M77.7522 88.9153C77.1596 88.1804 76.5888 87.4242 76.056 86.668C76.0224 86.6177 75.9791 86.5747 75.9287 86.5415C75.8782 86.5083 75.8216 86.4855 75.7622 86.4744C75.7028 86.4634 75.6418 86.4643 75.5828 86.4772C75.5238 86.4901 75.4679 86.5147 75.4185 86.5495C75.3692 86.5843 75.3272 86.6287 75.2953 86.6799C75.2633 86.7312 75.2419 86.7883 75.2323 86.848C75.2227 86.9076 75.2252 86.9686 75.2395 87.0273C75.2539 87.086 75.2798 87.1412 75.3158 87.1897C75.8596 87.9617 76.4422 88.7336 77.0477 89.4841C77.0844 89.5324 77.1303 89.5728 77.1828 89.6029C77.2353 89.6331 77.2933 89.6524 77.3534 89.6597C77.4135 89.6671 77.4744 89.6623 77.5327 89.6456C77.5909 89.629 77.6452 89.6009 77.6923 89.5629C77.7394 89.5249 77.7785 89.4778 77.8071 89.4244C77.8357 89.3711 77.8533 89.3125 77.8589 89.2523C77.8645 89.192 77.8579 89.1312 77.8396 89.0735C77.8213 89.0157 77.7916 88.9623 77.7522 88.9163V88.9153Z" fill="#292A2E"/>
<path d="M70.2135 73.9787C70.1856 73.8619 70.1126 73.7609 70.0103 73.698C69.908 73.6351 69.785 73.6154 69.6682 73.6432C69.5514 73.671 69.4504 73.7441 69.3875 73.8463C69.3245 73.9486 69.3048 74.0717 69.3326 74.1885C69.5534 75.1157 69.817 76.0487 70.1159 76.9609C70.1533 77.075 70.2345 77.1696 70.3416 77.2238C70.4487 77.2781 70.573 77.2876 70.6871 77.2502C70.8012 77.2128 70.8958 77.1316 70.95 77.0245C71.0043 76.9174 71.0138 76.7931 70.9764 76.679C70.6851 75.7908 70.4286 74.8816 70.2135 73.9787Z" fill="#292A2E"/>
<path d="M96.5236 28.1317C96.467 28.0258 96.3707 27.9467 96.2558 27.9117C96.141 27.8768 96.0169 27.8888 95.911 27.9453C95.0662 28.3959 94.2245 28.8659 93.4098 29.3419C93.3584 29.3719 93.3135 29.4117 93.2776 29.4591C93.2417 29.5064 93.2154 29.5604 93.2003 29.6179C93.1853 29.6754 93.1817 29.7353 93.1897 29.7942C93.1978 29.8531 93.2174 29.9099 93.2474 29.9612C93.2774 30.0125 93.3173 30.0574 93.3646 30.0933C93.412 30.1293 93.4659 30.1555 93.5234 30.1706C93.581 30.1857 93.6409 30.1893 93.6998 30.1812C93.7587 30.1731 93.8154 30.1535 93.8667 30.1235C94.6714 29.6535 95.5035 29.1882 96.3385 28.7443C96.4442 28.6875 96.5231 28.5911 96.5577 28.4763C96.5924 28.3614 96.5801 28.2375 96.5236 28.1317Z" fill="#292A2E"/>
<path d="M101.102 25.4165C100.66 25.6129 100.223 25.8117 99.7895 26.013C99.7356 26.0381 99.6871 26.0735 99.6469 26.1172C99.6066 26.161 99.5754 26.2122 99.5549 26.2681C99.5345 26.3239 99.5253 26.3832 99.5277 26.4426C99.5302 26.502 99.5444 26.5603 99.5694 26.6143C99.5944 26.6682 99.6298 26.7167 99.6736 26.7569C99.7173 26.7972 99.7686 26.8284 99.8244 26.8489C99.8803 26.8693 99.9396 26.8786 99.999 26.8761C100.058 26.8736 100.117 26.8594 100.171 26.8344C100.6 26.634 101.033 26.4371 101.47 26.2438C101.575 26.1924 101.657 26.1021 101.697 25.9919C101.737 25.8816 101.733 25.7601 101.685 25.6529C101.637 25.5457 101.55 25.4611 101.441 25.417C101.333 25.3729 101.211 25.3727 101.102 25.4165H101.102Z" fill="#292A2E"/>
<path d="M301.233 263.534C300.343 263.707 299.845 263.785 299.84 263.786C299.781 263.795 299.725 263.816 299.674 263.847C299.623 263.878 299.579 263.918 299.544 263.966C299.473 264.063 299.444 264.184 299.462 264.303C299.481 264.422 299.546 264.528 299.643 264.599C299.74 264.67 299.861 264.699 299.98 264.68C300 264.677 300.496 264.6 301.406 264.423C301.465 264.412 301.521 264.39 301.571 264.357C301.622 264.325 301.665 264.282 301.699 264.233C301.733 264.184 301.756 264.128 301.768 264.069C301.781 264.011 301.781 263.95 301.769 263.891C301.758 263.832 301.735 263.776 301.702 263.726C301.669 263.677 301.626 263.634 301.576 263.601C301.526 263.567 301.47 263.545 301.411 263.533C301.352 263.522 301.292 263.522 301.233 263.534V263.534Z" fill="#292A2E"/>
<path d="M369.131 201.24C369.053 202.178 368.954 203.124 368.836 204.051C368.822 204.161 368.848 204.272 368.911 204.364C368.973 204.455 369.067 204.521 369.174 204.548C369.192 204.552 369.209 204.555 369.227 204.557C369.286 204.565 369.346 204.561 369.403 204.545C369.461 204.53 369.515 204.503 369.562 204.467C369.609 204.43 369.648 204.385 369.678 204.333C369.707 204.282 369.726 204.225 369.734 204.166C369.854 203.225 369.955 202.266 370.035 201.314C370.039 201.198 369.998 201.084 369.921 200.997C369.843 200.91 369.735 200.856 369.619 200.846C369.503 200.837 369.388 200.872 369.297 200.946C369.206 201.019 369.148 201.124 369.133 201.24H369.131Z" fill="#292A2E"/>
<path d="M369.347 197.004C369.345 197.106 369.378 197.206 369.44 197.288C369.502 197.369 369.59 197.427 369.69 197.452C369.722 197.46 369.756 197.464 369.79 197.465C369.849 197.466 369.908 197.456 369.964 197.434C370.019 197.412 370.07 197.38 370.112 197.339C370.155 197.297 370.19 197.248 370.213 197.194C370.237 197.139 370.25 197.08 370.251 197.021C370.269 196.081 370.269 195.117 370.249 194.156C370.247 194.036 370.197 193.922 370.11 193.839C370.023 193.756 369.907 193.711 369.787 193.713C369.667 193.715 369.553 193.765 369.47 193.852C369.387 193.939 369.341 194.055 369.344 194.175C369.366 195.123 369.366 196.074 369.347 197.004Z" fill="#292A2E"/>
<path d="M368.628 183.275C368.701 183.293 368.777 183.293 368.849 183.275C368.922 183.256 368.989 183.22 369.044 183.169C369.099 183.118 369.141 183.055 369.165 182.984C369.19 182.913 369.196 182.837 369.184 182.763C369.032 181.829 368.863 180.882 368.681 179.946C368.657 179.83 368.588 179.728 368.488 179.662C368.389 179.596 368.268 179.572 368.151 179.594C368.035 179.617 367.931 179.685 367.864 179.783C367.797 179.881 367.771 180.002 367.792 180.119C367.972 181.045 368.14 181.984 368.29 182.909C368.305 182.996 368.344 183.077 368.404 183.143C368.464 183.208 368.542 183.254 368.628 183.275V183.275Z" fill="#292A2E"/>
<path d="M352.054 238.705C352.012 238.663 351.963 238.629 351.908 238.606C351.853 238.582 351.795 238.57 351.735 238.569C351.676 238.569 351.617 238.58 351.562 238.602C351.506 238.625 351.456 238.658 351.414 238.699C350.746 239.356 350.052 240.009 349.356 240.641C349.267 240.721 349.213 240.834 349.208 240.954C349.202 241.074 349.244 241.191 349.324 241.28C349.405 241.369 349.518 241.423 349.638 241.428C349.758 241.434 349.875 241.392 349.964 241.312C350.669 240.673 351.37 240.011 352.048 239.345C352.09 239.304 352.124 239.254 352.147 239.2C352.171 239.145 352.183 239.086 352.184 239.027C352.184 238.967 352.173 238.908 352.151 238.853C352.128 238.798 352.096 238.748 352.054 238.705V238.705Z" fill="#292A2E"/>
<path d="M340.429 247.596C339.651 248.118 338.852 248.637 338.051 249.138C337.949 249.202 337.876 249.304 337.849 249.421C337.822 249.538 337.843 249.661 337.907 249.763C337.971 249.865 338.072 249.937 338.19 249.964C338.307 249.991 338.43 249.97 338.532 249.907C339.34 249.4 340.148 248.876 340.933 248.348C340.983 248.315 341.025 248.273 341.058 248.223C341.091 248.174 341.114 248.118 341.125 248.06C341.137 248.002 341.136 247.942 341.125 247.883C341.113 247.825 341.09 247.77 341.057 247.72C341.024 247.671 340.981 247.629 340.932 247.596C340.882 247.563 340.827 247.54 340.768 247.529C340.71 247.517 340.65 247.517 340.592 247.529C340.533 247.541 340.478 247.564 340.429 247.597V247.596Z" fill="#292A2E"/>
<path d="M366.892 175.966C366.904 176.025 366.928 176.081 366.963 176.13C366.998 176.18 367.042 176.222 367.093 176.254C367.144 176.287 367.201 176.308 367.26 176.318C367.32 176.328 367.381 176.326 367.44 176.312C367.498 176.298 367.554 176.272 367.603 176.236C367.651 176.201 367.692 176.155 367.723 176.104C367.754 176.052 367.775 175.994 367.783 175.934C367.791 175.875 367.788 175.814 367.772 175.755C367.553 174.839 367.316 173.907 367.071 172.983C367.039 172.868 366.964 172.769 366.86 172.71C366.756 172.65 366.633 172.634 366.517 172.665C366.402 172.696 366.303 172.771 366.243 172.875C366.183 172.978 366.166 173.101 366.196 173.217C366.44 174.131 366.674 175.056 366.892 175.966Z" fill="#292A2E"/>
<path d="M361.182 159.964C361.149 159.915 361.106 159.872 361.057 159.839C361.007 159.806 360.952 159.784 360.893 159.772C360.835 159.761 360.775 159.761 360.717 159.773C360.658 159.784 360.603 159.807 360.554 159.841C360.504 159.874 360.462 159.916 360.429 159.966C360.396 160.015 360.373 160.071 360.362 160.129C360.351 160.188 360.351 160.248 360.362 160.306C360.374 160.364 360.397 160.42 360.43 160.469C360.957 161.254 361.46 162.056 361.925 162.853C361.954 162.906 361.993 162.952 362.041 162.989C362.088 163.026 362.142 163.054 362.2 163.07C362.258 163.086 362.319 163.09 362.379 163.082C362.439 163.074 362.496 163.055 362.548 163.024C362.6 162.994 362.646 162.954 362.682 162.906C362.718 162.857 362.745 162.803 362.759 162.744C362.774 162.686 362.777 162.625 362.768 162.565C362.759 162.506 362.738 162.449 362.707 162.397C362.233 161.583 361.72 160.765 361.182 159.964Z" fill="#292A2E"/>
<path d="M346.766 243.467C346.691 243.374 346.581 243.314 346.462 243.302C346.342 243.289 346.223 243.325 346.13 243.4C345.405 243.985 344.653 244.569 343.894 245.137C343.802 245.21 343.742 245.317 343.726 245.434C343.711 245.551 343.742 245.669 343.813 245.763C343.884 245.858 343.989 245.921 344.105 245.939C344.222 245.958 344.341 245.93 344.437 245.862C345.205 245.287 345.965 244.696 346.699 244.104C346.745 244.066 346.783 244.02 346.812 243.968C346.84 243.916 346.858 243.858 346.864 243.799C346.871 243.74 346.865 243.68 346.848 243.623C346.832 243.566 346.804 243.513 346.766 243.467V243.467Z" fill="#292A2E"/>
<path d="M364.685 166.218C364.636 166.108 364.545 166.023 364.432 165.981C364.32 165.939 364.195 165.943 364.086 165.993C363.977 166.042 363.891 166.133 363.849 166.246C363.807 166.358 363.811 166.483 363.861 166.592C364.248 167.446 364.609 168.321 364.934 169.193C364.978 169.302 365.063 169.39 365.171 169.438C365.279 169.486 365.401 169.489 365.512 169.448C365.622 169.407 365.713 169.324 365.763 169.218C365.814 169.111 365.821 168.989 365.782 168.877C365.451 167.985 365.081 167.091 364.685 166.218Z" fill="#292A2E"/>
<path d="M366.935 214.771C366.878 214.753 366.819 214.745 366.759 214.75C366.7 214.754 366.642 214.77 366.589 214.797C366.536 214.824 366.489 214.861 366.45 214.906C366.411 214.951 366.382 215.003 366.363 215.06C366.069 215.952 365.75 216.846 365.413 217.716C365.37 217.828 365.373 217.953 365.422 218.063C365.47 218.173 365.56 218.259 365.672 218.302C365.69 218.309 365.708 218.314 365.726 218.319C365.833 218.345 365.946 218.332 366.044 218.281C366.142 218.23 366.218 218.146 366.258 218.043C366.6 217.158 366.924 216.249 367.223 215.343C367.242 215.286 367.249 215.227 367.244 215.168C367.24 215.108 367.224 215.05 367.197 214.997C367.17 214.944 367.133 214.897 367.088 214.858C367.043 214.819 366.991 214.79 366.935 214.771V214.771Z" fill="#292A2E"/>
<path d="M369.044 208.41C369.057 208.352 369.058 208.292 369.047 208.233C369.036 208.174 369.013 208.118 368.98 208.068C368.947 208.018 368.904 207.976 368.854 207.943C368.803 207.911 368.747 207.889 368.688 207.878C368.57 207.855 368.448 207.879 368.348 207.946C368.249 208.013 368.18 208.116 368.156 208.234C367.972 209.158 367.765 210.086 367.539 210.991C367.523 211.049 367.519 211.109 367.528 211.169C367.536 211.228 367.556 211.286 367.586 211.338C367.617 211.389 367.657 211.434 367.705 211.47C367.753 211.506 367.808 211.532 367.866 211.547C367.925 211.561 367.985 211.564 368.045 211.555C368.104 211.546 368.161 211.525 368.212 211.494C368.264 211.462 368.308 211.421 368.343 211.372C368.378 211.324 368.403 211.268 368.417 211.21C368.646 210.291 368.858 209.349 369.044 208.41Z" fill="#292A2E"/>
<path d="M364.345 221.39C364.291 221.364 364.233 221.35 364.174 221.346C364.114 221.343 364.055 221.352 363.999 221.372C363.943 221.392 363.891 221.422 363.847 221.462C363.803 221.502 363.767 221.55 363.742 221.604C363.341 222.448 362.911 223.295 362.466 224.122C362.438 224.174 362.42 224.232 362.414 224.291C362.408 224.35 362.414 224.41 362.431 224.467C362.448 224.523 362.476 224.577 362.514 224.623C362.552 224.669 362.598 224.707 362.65 224.735C362.703 224.763 362.76 224.781 362.819 224.787C362.878 224.793 362.938 224.787 362.995 224.77C363.052 224.753 363.105 224.725 363.151 224.687C363.197 224.65 363.235 224.603 363.264 224.551C363.716 223.711 364.152 222.85 364.56 221.993C364.611 221.885 364.617 221.76 364.577 221.647C364.537 221.534 364.453 221.442 364.345 221.39V221.39Z" fill="#292A2E"/>
<path d="M369.478 190.339C369.547 190.356 369.62 190.357 369.689 190.34C369.759 190.324 369.824 190.291 369.879 190.245C369.934 190.199 369.977 190.14 370.004 190.074C370.032 190.008 370.044 189.937 370.039 189.865C369.967 188.927 369.876 187.968 369.769 187.015C369.754 186.897 369.693 186.79 369.6 186.717C369.506 186.643 369.388 186.609 369.27 186.622C369.152 186.636 369.043 186.695 368.969 186.787C368.894 186.879 368.858 186.997 368.869 187.115C368.975 188.058 369.065 189.006 369.136 189.933C369.144 190.028 369.18 190.119 369.241 190.191C369.303 190.264 369.385 190.316 369.478 190.339Z" fill="#292A2E"/>
<path d="M356.818 233.422C356.772 233.384 356.719 233.356 356.662 233.339C356.605 233.322 356.545 233.316 356.486 233.322C356.427 233.328 356.37 233.346 356.317 233.374C356.265 233.402 356.219 233.44 356.181 233.486C355.589 234.209 354.971 234.932 354.344 235.633C354.304 235.677 354.274 235.729 354.254 235.785C354.234 235.841 354.226 235.901 354.229 235.96C354.232 236.019 354.247 236.078 354.273 236.131C354.299 236.185 354.335 236.233 354.379 236.272C354.424 236.312 354.475 236.343 354.531 236.362C354.587 236.382 354.647 236.39 354.706 236.387C354.766 236.384 354.824 236.369 354.877 236.343C354.931 236.317 354.979 236.281 355.019 236.237C355.655 235.525 356.283 234.793 356.883 234.059C356.92 234.013 356.949 233.96 356.966 233.903C356.983 233.846 356.988 233.786 356.982 233.727C356.976 233.668 356.959 233.611 356.931 233.558C356.902 233.506 356.864 233.46 356.818 233.422V233.422Z" fill="#292A2E"/>
<path d="M360.948 227.634C360.898 227.602 360.842 227.58 360.784 227.569C360.725 227.559 360.665 227.56 360.607 227.573C360.549 227.586 360.494 227.61 360.445 227.644C360.397 227.679 360.355 227.722 360.323 227.772C359.822 228.557 359.293 229.346 358.748 230.115C358.712 230.164 358.687 230.219 358.673 230.277C358.659 230.336 358.656 230.397 358.666 230.456C358.676 230.515 358.697 230.572 358.729 230.623C358.761 230.674 358.802 230.718 358.851 230.753C358.9 230.788 358.956 230.812 359.015 230.826C359.073 230.839 359.134 230.84 359.193 230.829C359.252 230.819 359.309 230.796 359.359 230.764C359.41 230.731 359.453 230.689 359.487 230.639C360.04 229.857 360.578 229.056 361.087 228.259C361.151 228.158 361.173 228.035 361.147 227.918C361.121 227.8 361.05 227.698 360.948 227.634V227.634Z" fill="#292A2E"/>
<path d="M308.138 261.916C307.218 262.164 306.292 262.401 305.385 262.621C305.327 262.635 305.273 262.66 305.225 262.696C305.177 262.731 305.136 262.775 305.105 262.826C305.074 262.876 305.054 262.933 305.044 262.991C305.035 263.05 305.038 263.11 305.052 263.168C305.066 263.226 305.091 263.28 305.126 263.328C305.161 263.376 305.206 263.417 305.256 263.448C305.307 263.479 305.363 263.499 305.422 263.508C305.481 263.518 305.541 263.515 305.599 263.501C306.513 263.279 307.447 263.04 308.374 262.79C308.431 262.775 308.485 262.748 308.532 262.712C308.579 262.676 308.619 262.63 308.648 262.579C308.678 262.527 308.697 262.47 308.705 262.411C308.712 262.352 308.708 262.293 308.693 262.235C308.677 262.178 308.651 262.124 308.615 262.077C308.578 262.03 308.533 261.99 308.482 261.961C308.43 261.931 308.373 261.912 308.314 261.904C308.255 261.897 308.195 261.901 308.138 261.916Z" fill="#292A2E"/>
<path d="M342.119 143.277C342.223 143.303 342.333 143.291 342.429 143.244C342.525 143.196 342.601 143.116 342.644 143.018C342.686 142.92 342.693 142.81 342.662 142.707C342.631 142.605 342.565 142.516 342.475 142.458C341.687 141.948 340.872 141.436 340.051 140.937C339.949 140.875 339.825 140.856 339.709 140.885C339.592 140.913 339.491 140.987 339.429 141.089C339.367 141.192 339.348 141.315 339.376 141.432C339.405 141.549 339.478 141.649 339.581 141.712C340.395 142.206 341.203 142.714 341.983 143.218C342.025 143.245 342.071 143.265 342.119 143.277Z" fill="#292A2E"/>
<path d="M314.935 259.867C314.044 260.164 313.134 260.456 312.229 260.735C312.172 260.753 312.12 260.782 312.074 260.82C312.028 260.857 311.99 260.904 311.963 260.957C311.935 261.009 311.918 261.067 311.912 261.126C311.907 261.185 311.913 261.245 311.93 261.302C311.948 261.358 311.976 261.411 312.014 261.457C312.052 261.503 312.099 261.541 312.151 261.568C312.204 261.596 312.262 261.613 312.321 261.619C312.38 261.624 312.44 261.618 312.497 261.601C313.408 261.32 314.325 261.026 315.222 260.727C315.336 260.689 315.43 260.607 315.483 260.5C315.537 260.392 315.546 260.268 315.508 260.154C315.47 260.04 315.388 259.946 315.281 259.892C315.173 259.839 315.049 259.83 314.935 259.868L314.935 259.867Z" fill="#292A2E"/>
<path d="M328.1 254.579C327.252 254.983 326.384 255.382 325.522 255.766C325.417 255.817 325.335 255.908 325.295 256.018C325.255 256.128 325.259 256.249 325.307 256.357C325.354 256.464 325.442 256.548 325.55 256.593C325.659 256.637 325.781 256.637 325.889 256.593C326.758 256.206 327.633 255.804 328.488 255.396C328.597 255.344 328.68 255.252 328.72 255.139C328.761 255.026 328.754 254.901 328.703 254.793C328.651 254.684 328.558 254.601 328.445 254.561C328.332 254.521 328.208 254.527 328.099 254.579H328.1Z" fill="#292A2E"/>
<path d="M334.395 251.313C333.582 251.772 332.744 252.23 331.906 252.672C331.8 252.728 331.72 252.824 331.684 252.939C331.649 253.053 331.66 253.177 331.716 253.284C331.772 253.39 331.868 253.47 331.983 253.505C332.098 253.541 332.222 253.529 332.328 253.473C333.174 253.028 334.02 252.566 334.841 252.102C334.945 252.043 335.022 251.945 335.054 251.829C335.086 251.713 335.071 251.59 335.012 251.485C334.953 251.381 334.855 251.304 334.739 251.272C334.623 251.24 334.5 251.255 334.395 251.314V251.313Z" fill="#292A2E"/>
<path d="M358.163 157.227C358.255 157.25 358.352 157.244 358.44 157.209C358.528 157.174 358.603 157.112 358.654 157.032C358.705 156.952 358.73 156.858 358.725 156.763C358.719 156.668 358.685 156.578 358.625 156.504C358.035 155.774 357.407 155.04 356.759 154.324C356.678 154.238 356.566 154.188 356.448 154.183C356.33 154.179 356.216 154.221 356.128 154.3C356.04 154.379 355.987 154.489 355.979 154.607C355.972 154.725 356.011 154.841 356.087 154.93C356.724 155.635 357.341 156.356 357.921 157.073C357.983 157.15 358.068 157.204 358.163 157.227Z" fill="#292A2E"/>
<path d="M321.6 257.423C320.734 257.77 319.843 258.115 318.952 258.447C318.842 258.492 318.754 258.577 318.707 258.685C318.659 258.793 318.655 258.915 318.697 259.026C318.738 259.137 318.821 259.227 318.928 259.277C319.035 259.328 319.157 259.334 319.269 259.296C320.167 258.962 321.065 258.613 321.937 258.263C321.994 258.242 322.046 258.21 322.09 258.168C322.134 258.127 322.169 258.077 322.193 258.022C322.218 257.967 322.231 257.907 322.232 257.846C322.233 257.786 322.222 257.726 322.199 257.67C322.177 257.614 322.143 257.563 322.101 257.52C322.058 257.477 322.008 257.443 321.952 257.42C321.896 257.397 321.836 257.385 321.775 257.386C321.715 257.386 321.655 257.399 321.6 257.423V257.423Z" fill="#292A2E"/>
<path d="M353.335 152.011C353.433 152.036 353.535 152.027 353.627 151.987C353.719 151.948 353.796 151.878 353.844 151.79C353.893 151.702 353.91 151.601 353.895 151.502C353.879 151.403 353.831 151.311 353.758 151.242C353.081 150.596 352.369 149.946 351.641 149.31C351.551 149.231 351.433 149.192 351.313 149.2C351.193 149.208 351.081 149.263 351.002 149.354C350.923 149.444 350.884 149.562 350.892 149.682C350.9 149.802 350.955 149.914 351.046 149.993C351.763 150.619 352.466 151.26 353.133 151.896C353.189 151.952 353.259 151.991 353.335 152.011V152.011Z" fill="#292A2E"/>
<path d="M347.932 147.382C348.033 147.407 348.14 147.397 348.234 147.353C348.328 147.309 348.404 147.234 348.449 147.141C348.495 147.047 348.507 146.941 348.483 146.84C348.459 146.739 348.402 146.649 348.32 146.585C347.58 146.013 346.807 145.437 346.023 144.874C345.975 144.836 345.92 144.809 345.861 144.793C345.801 144.777 345.74 144.773 345.679 144.781C345.618 144.79 345.56 144.81 345.508 144.842C345.455 144.874 345.41 144.916 345.374 144.965C345.338 145.015 345.313 145.072 345.3 145.131C345.287 145.191 345.286 145.253 345.297 145.313C345.308 145.373 345.331 145.431 345.365 145.482C345.4 145.532 345.443 145.576 345.495 145.609C346.27 146.166 347.035 146.735 347.766 147.3C347.815 147.339 347.872 147.367 347.932 147.382V147.382Z" fill="#292A2E"/>
<path d="M99.3457 13.7314L99.5652 28.3324L153.297 0.388672L99.3457 13.7314Z" fill="#0CBC8B"/>
<path opacity="0.2" d="M99.3457 13.7314L99.5652 28.3324L153.297 0.388672L99.3457 13.7314Z" fill="#0A0A0A"/>
<path d="M102.137 18.0443L99.5664 28.3327L140.676 6.14795L102.137 18.0443Z" fill="#0CBC8B"/>
<path opacity="0.1" d="M102.137 18.0443L99.5664 28.3327L140.676 6.14795L102.137 18.0443Z" fill="#0A0A0A"/>
<path d="M94.3398 5.83766L153.298 0.388672L111.913 35.7895L102.137 18.044L153.298 0.388672L99.3466 13.7314L94.3398 5.83766Z" fill="#0CBC8B"/>
<path d="M90.8398 119.236L219.819 201.302L348.797 119.236L219.774 0L90.8398 119.236Z" fill="#292A2E"/>
<path d="M323.803 17.416H115.834V244.711H323.803V17.416Z" fill="white"/>
<path d="M324.138 245.045H115.5V17.0815H324.138V245.045ZM116.168 244.377H323.47V17.7496H116.168L116.168 244.377Z" fill="#292A2E"/>
<path d="M178.514 37.7979H135.848V80.4638H178.514V37.7979Z" fill="white"/>
<path d="M178.848 80.7977H135.514V37.4634H178.848V80.7977ZM136.182 80.1297H178.18V38.1314H136.182L136.182 80.1297Z" fill="#292A2E"/>
<path d="M304.586 97.188H135.848V97.856H304.586V97.188Z" fill="#292A2E"/>
<path d="M304.586 113.194H135.848V113.862H304.586V113.194Z" fill="#292A2E"/>
<path d="M304.586 129.201H135.848V129.869H304.586V129.201Z" fill="#292A2E"/>
<path d="M304.586 145.207H135.848V145.875H304.586V145.207Z" fill="#292A2E"/>
<path d="M304.586 161.214H135.848V161.882H304.586V161.214Z" fill="#292A2E"/>
<path d="M304.586 177.22H135.848V177.888H304.586V177.22Z" fill="#292A2E"/>
<path d="M348.797 279.966H90.8398V119.235L219.819 197.961L348.797 119.235V279.966Z" fill="#367CFF"/>
<path opacity="0.83" d="M348.797 279.966H90.8398V119.235L219.819 197.961L348.797 119.235V279.966Z" fill="white"/>
<path d="M22.3677 274.405L21.6455 278.982C21.5673 279.477 21.3159 279.929 20.936 280.257C20.5561 280.585 20.0723 280.767 19.5706 280.772L1.17536 280.95C0.911144 280.953 0.65394 280.865 0.445998 280.702C0.238056 280.539 0.0917424 280.31 0.0310918 280.053C-0.0295589 279.796 -0.000939821 279.526 0.112248 279.287C0.225435 279.048 0.41646 278.855 0.653943 278.739L11.6979 273.359L22.3677 274.405Z" fill="#E98862"/>
<path d="M43.8867 251.079C43.8867 251.079 43.7625 278.074 63.2981 280.574L81.6899 263.741L93.0926 240.997L50.4123 245.707L43.8867 251.079Z" fill="#262626"/>
<path d="M43.3601 249.609L43.302 249.624C43.302 249.624 43.1119 248.48 43.3601 249.609Z" fill="#333333"/>
<path d="M117.372 171.423C117.368 171.412 117.356 171.405 117.349 171.396L117.534 171.023C117.663 170.774 117.702 170.488 117.644 170.213C117.587 169.938 117.436 169.692 117.218 169.516C117.078 169.408 116.917 169.332 116.745 169.294C116.573 169.257 116.395 169.257 116.223 169.297C116.051 169.336 115.891 169.413 115.752 169.522C115.614 169.631 115.502 169.769 115.423 169.927L114.997 170.786C114.993 170.783 114.993 170.778 114.988 170.775C114.983 170.772 114.975 170.775 114.969 170.775C115.032 170.513 115.005 170.238 114.891 169.993C114.778 169.749 114.584 169.551 114.343 169.431C113.742 169.081 113.048 169.586 112.773 170.142L110.209 175.092L110.286 173.489C110.307 173.177 110.208 172.868 110.011 172.626C109.814 172.383 109.532 172.225 109.222 172.182C109.061 172.166 108.899 172.182 108.745 172.231C108.591 172.279 108.448 172.358 108.326 172.464C108.203 172.569 108.104 172.698 108.033 172.844C107.962 172.989 107.922 173.147 107.914 173.308L107.497 182.064C107.448 183.091 107.801 184.097 108.482 184.868C109.163 185.639 110.118 186.113 111.143 186.192V186.192C112.332 186.282 113.521 186.016 114.558 185.426C115.595 184.837 116.432 183.951 116.962 182.882C116.962 182.882 117.746 170.967 117.372 171.423Z" fill="#E98862"/>
<path d="M109.966 157.015L107.635 157.409C106.745 157.56 106.146 158.403 106.296 159.293L109.617 178.921C109.768 179.811 110.611 180.41 111.501 180.26L113.832 179.865C114.722 179.715 115.322 178.871 115.171 177.981L111.85 158.353C111.699 157.463 110.856 156.864 109.966 157.015Z" fill="#292A2E"/>
<path d="M103.561 148.759L102.849 148.88C98.4375 149.626 95.4665 153.808 96.2129 158.219C96.9594 162.631 101.141 165.602 105.552 164.855L106.264 164.735C110.676 163.988 113.647 159.807 112.9 155.395C112.154 150.984 107.972 148.013 103.561 148.759Z" fill="#0CBC8B"/>
<path d="M130.758 157.385L129.238 158.115L127.51 147.901L129.132 147.958C129.265 149.412 129.462 150.941 129.729 152.515C130.019 154.226 130.367 155.863 130.758 157.385Z" fill="#367CFF"/>
<path d="M135.254 151.582C135.594 153.586 135.45 155.284 134.934 155.371C134.873 155.375 134.813 155.365 134.756 155.342C134.7 155.319 134.65 155.283 134.61 155.237V155.237C134.157 154.821 133.658 153.504 133.387 151.899C133.135 150.408 133.149 149.088 133.387 148.473C133.468 148.261 133.576 148.133 133.708 148.111C134.221 148.021 134.915 149.576 135.254 151.582Z" fill="#367CFF"/>
<path d="M129.736 152.548C129.734 152.537 129.732 152.526 129.731 152.515C128.628 146.001 129.503 138.944 130.536 136.259C126.49 140.359 120.602 144.54 115.072 146.238C112.841 146.922 110.111 147.546 105.965 148.242L108.704 164.435C112.849 163.729 115.632 163.42 117.964 163.332C123.742 163.115 130.679 165.127 135.847 167.668C133.988 165.472 130.84 159.094 129.738 152.582L129.736 152.548Z" fill="#0CBC8B"/>
<path d="M111.394 146.454L102.812 147.906C102.489 147.96 102.271 148.267 102.326 148.591L105.142 165.237C105.197 165.56 105.504 165.778 105.827 165.723L114.409 164.271C114.732 164.217 114.95 163.91 114.896 163.586L112.079 146.94C112.024 146.617 111.717 146.399 111.394 146.454Z" fill="#292A2E"/>
<path opacity="0.1" d="M111.394 146.454L102.812 147.906C102.489 147.96 102.271 148.267 102.326 148.591L105.142 165.237C105.197 165.56 105.504 165.778 105.827 165.723L114.409 164.271C114.732 164.217 114.95 163.91 114.896 163.586L112.079 146.94C112.024 146.617 111.717 146.399 111.394 146.454Z" fill="white"/>
<path d="M137.889 151.133C139.371 159.893 138.743 167.3 136.491 167.682C136.042 167.758 135.564 167.55 135.075 167.097C135.072 167.097 135.072 167.095 135.07 167.097C133.091 165.281 130.913 159.528 129.725 152.516C128.623 146.003 128.687 140.24 129.72 137.554C130.075 136.629 130.545 136.069 131.123 135.971C133.378 135.588 136.407 142.377 137.889 151.133Z" fill="#0CBC8B"/>
<path opacity="0.3" d="M137.889 151.133C139.371 159.893 138.743 167.3 136.491 167.682C136.042 167.758 135.564 167.55 135.075 167.097C135.072 167.097 135.072 167.095 135.07 167.097C133.091 165.281 130.913 159.528 129.725 152.516C128.623 146.003 128.687 140.24 129.72 137.554C130.075 136.629 130.545 136.069 131.123 135.971C133.378 135.588 136.407 142.377 137.889 151.133Z" fill="#0C0C0C"/>
<path opacity="0.6" d="M133.706 148.118L134.935 155.379L130.757 157.383C130.366 155.861 130.018 154.224 129.728 152.513C129.461 150.939 129.263 149.41 129.131 147.956L133.706 148.118Z" fill="white"/>
<path d="M135.254 151.582C135.594 153.586 135.45 155.284 134.934 155.371C134.873 155.375 134.813 155.365 134.756 155.342C134.7 155.319 134.65 155.283 134.61 155.237V155.237C134.157 154.821 133.658 153.504 133.387 151.899C133.135 150.408 133.149 149.088 133.387 148.473C133.468 148.261 133.576 148.133 133.708 148.111C134.221 148.021 134.915 149.576 135.254 151.582Z" fill="white"/>
<path d="M110.719 174.549C110.818 174.324 110.984 174.135 111.194 174.008C111.404 173.881 111.649 173.823 111.894 173.841C111.891 173.826 111.892 173.811 111.896 173.797C111.9 173.783 111.907 173.77 111.918 173.759C111.928 173.749 111.941 173.741 111.955 173.736C111.969 173.732 111.984 173.731 111.999 173.733L111.145 173.19C110.89 173.036 110.7 172.795 110.609 172.511C110.519 172.227 110.534 171.92 110.652 171.646C110.777 171.38 110.997 171.17 111.269 171.057C111.54 170.943 111.844 170.935 112.122 171.033C112.119 171.021 112.126 171.009 112.127 170.997L111.777 170.774C111.537 170.628 111.355 170.403 111.263 170.138C111.17 169.873 111.171 169.584 111.267 169.32C111.33 169.156 111.429 169.008 111.557 168.886C111.684 168.765 111.837 168.674 112.005 168.618C112.172 168.563 112.349 168.546 112.524 168.568C112.699 168.589 112.866 168.65 113.015 168.744L113.824 169.259C113.826 169.254 113.824 169.249 113.826 169.244C113.829 169.239 113.838 169.238 113.842 169.233C113.652 169.042 113.533 168.792 113.504 168.524C113.474 168.256 113.537 167.986 113.681 167.759C114.016 167.148 114.871 167.221 115.394 167.554L116.961 168.73C117.202 168.911 117.395 169.15 117.523 169.424C117.65 169.698 117.707 170 117.69 170.301C117.542 172.913 116.993 179.726 115.323 178.664L111.212 176.05C110.973 175.892 110.794 175.658 110.704 175.385C110.615 175.113 110.62 174.818 110.719 174.549V174.549Z" fill="#E98862"/>
<path d="M104.341 179.68L98.8929 209.162L84.9659 187.698L74.3262 200.198L96.5166 230.508L96.705 230.683C97.8475 231.723 99.2357 232.454 100.739 232.808C102.242 233.162 103.811 233.128 105.297 232.708C106.783 232.289 108.138 231.497 109.234 230.409C110.33 229.321 111.131 227.972 111.561 226.489L120.701 182.304L104.341 179.68Z" fill="#367CFF"/>
<path d="M98.1377 212.062C98.1225 212.062 98.1074 212.06 98.0929 212.056C98.0503 212.044 98.0142 212.016 97.9924 211.977C97.9706 211.939 97.965 211.893 97.9767 211.851L98.7322 209.118C98.744 209.075 98.7723 209.039 98.8108 209.017C98.8493 208.995 98.895 208.989 98.9377 209.001C98.9804 209.013 99.0166 209.041 99.0385 209.08C99.0603 209.118 99.066 209.164 99.0542 209.207L98.2983 211.939C98.2887 211.974 98.2677 212.006 98.2387 212.028C98.2097 212.05 98.1742 212.062 98.1377 212.062Z" fill="#0C0C0C"/>
<path d="M37.6423 163.195C37.6423 163.195 37.826 171.089 36.3172 174.095C31.9729 182.748 31.3305 192.099 36.8517 196.459C42.3728 200.819 74.8422 197.962 76.3039 186.661C77.5345 177.147 73.0014 176.545 71.2267 168.948C70.4251 165.51 68.4209 158.331 68.4209 158.331" fill="#0A0A0A"/>
<path d="M68.8254 184.182C68.769 184.186 70.2367 194.46 58.2661 195.991C49.9789 197.052 45.2942 188.989 45.1055 189.028C45.9472 188.66 47.3344 188.03 47.7216 187.796C49.1863 186.91 50.3079 185.797 50.2107 183.217C50.155 181.729 48.24 174.453 48.0683 172.972L61.1695 173.201C61.6245 176.311 61.8593 183.688 66.4121 184.069C67.171 184.131 67.98 184.165 68.8254 184.182Z" fill="#E98862"/>
<path opacity="0.52" d="M63.1006 181.713C62.7749 181.121 62.5149 180.495 62.3253 179.846C61.8791 178.368 61.5959 176.846 61.4805 175.306C58.8638 175.485 56.2495 174.926 53.9345 173.693C53.8781 174.6 53.3667 178.616 53.8894 179.36C54.8755 180.765 58.5398 182.648 63.1006 181.713Z" fill="#0C0C0C"/>
<path d="M60.4064 179.632C55.4294 180.57 48.7488 179.147 46.8021 172.58L45.0441 166.656C43.0961 160.089 44.9657 153.743 51.1482 151.909C57.3307 150.075 63.5309 154.027 65.4779 160.594L66.2562 163.217C67.0048 165.735 69.2882 177.959 60.4064 179.632Z" fill="#E98862"/>
<path opacity="0.52" d="M61.4569 170.146L61.4689 170.143C61.7192 170.067 61.9651 169.977 62.2055 169.874C62.5639 169.717 63.0295 169.47 62.932 169.142C62.8214 168.768 60.5988 165.033 60.3456 164.611C60.3234 164.573 60.2875 164.547 60.2456 164.536C60.2037 164.526 60.1594 164.532 60.1223 164.554C60.0852 164.576 60.0585 164.612 60.0479 164.654C60.0374 164.696 60.0439 164.741 60.066 164.778C61.0136 166.367 62.5455 168.983 62.62 169.235C62.5903 169.358 61.998 169.647 61.3764 169.831C61.3368 169.844 61.3036 169.871 61.2834 169.908C61.2633 169.944 61.2578 169.987 61.2681 170.027C61.2784 170.067 61.3036 170.102 61.3387 170.124C61.3738 170.147 61.4161 170.155 61.4569 170.147V170.146Z" fill="#0C0C0C"/>
<path opacity="0.52" d="M60.8157 173.132C61.8304 172.894 62.775 172.421 63.5734 171.751C63.59 171.737 63.6038 171.721 63.6141 171.702C63.6243 171.683 63.6307 171.663 63.633 171.641C63.6352 171.62 63.6333 171.599 63.6273 171.578C63.6212 171.558 63.6112 171.539 63.5978 171.522C63.5844 171.505 63.5678 171.491 63.549 171.481C63.5303 171.471 63.5097 171.465 63.4884 171.462C63.4672 171.46 63.4457 171.462 63.4252 171.468C63.4047 171.474 63.3856 171.484 63.369 171.498C61.636 172.895 59.8119 173.278 58.094 172.606C58.0592 172.591 58.0236 172.578 57.9875 172.567C57.9456 172.557 57.9013 172.563 57.8643 172.586C57.8272 172.608 57.8005 172.644 57.79 172.686C57.7795 172.728 57.7861 172.772 57.8083 172.809C57.8305 172.846 57.8664 172.873 57.9083 172.883C57.9217 172.887 57.944 172.896 57.9751 172.909C58.8786 173.264 59.8677 173.342 60.8157 173.132V173.132Z" fill="#0C0C0C"/>
<path d="M40.2153 169.274L45.7602 167.663C49.8637 165.496 50.4031 157.956 50.4031 157.956C50.4031 157.956 56.115 162.494 68.4212 158.331C68.4212 158.331 64.1083 141.019 46.0167 148.021C40.1832 150.278 36.4912 156.764 37.8501 164.791C38.8054 170.417 40.2153 169.274 40.2153 169.274Z" fill="#0A0A0A"/>
<path d="M47.7798 174.467C45.9009 175.025 43.7815 173.465 43.224 171.588C42.6665 169.71 43.8824 168.221 45.7626 167.664L47.1041 168.635L49.3965 173.988L47.7798 174.467Z" fill="#E98862"/>
<path d="M61.1746 161.292C61.6967 160.874 62.3216 160.605 62.9837 160.512C63.3094 160.464 63.6404 160.465 63.9657 160.516C64.2873 160.564 64.6015 160.653 64.901 160.78C64.9431 160.796 64.9772 160.828 64.9961 160.868C65.0149 160.909 65.0169 160.956 65.0016 160.998C64.9863 161.04 64.955 161.074 64.9144 161.094C64.8739 161.113 64.8274 161.115 64.7851 161.1L64.7724 161.096C64.4968 160.994 64.2096 160.926 63.9173 160.895C63.6282 160.864 63.336 160.876 63.0505 160.931C62.4839 161.037 61.9553 161.291 61.5183 161.666L61.5043 161.679C61.4795 161.703 61.4502 161.721 61.4181 161.733C61.386 161.745 61.3519 161.751 61.3176 161.749C61.2833 161.748 61.2497 161.74 61.2187 161.725C61.1877 161.711 61.1599 161.69 61.1371 161.664C61.1143 161.639 61.0969 161.609 61.0858 161.576C61.0748 161.544 61.0704 161.51 61.073 161.475C61.0755 161.441 61.0849 161.408 61.1006 161.377C61.1162 161.347 61.1379 161.32 61.1642 161.298L61.1746 161.292Z" fill="#0C0C0C"/>
<path d="M56.4674 163.064C55.8964 162.984 55.3144 163.057 54.7806 163.275C54.5105 163.383 54.2583 163.531 54.0324 163.714C53.8033 163.898 53.5983 164.11 53.4221 164.346L53.4141 164.356C53.3861 164.389 53.3462 164.411 53.3026 164.416C53.2591 164.421 53.2154 164.409 53.1805 164.382C53.1456 164.356 53.1223 164.317 53.1154 164.274C53.1085 164.23 53.1186 164.186 53.1435 164.15C53.3265 163.881 53.5428 163.635 53.7872 163.42C54.0334 163.202 54.3109 163.021 54.6105 162.886C55.2175 162.605 55.8888 162.493 56.5539 162.561C56.6197 162.571 56.6792 162.605 56.7199 162.658C56.7605 162.71 56.7792 162.777 56.7719 162.843C56.7646 162.909 56.7319 162.969 56.6808 163.011C56.6296 163.054 56.564 163.074 56.4978 163.069H56.4871L56.4674 163.064Z" fill="#0C0C0C"/>
<path opacity="0.52" d="M61.1921 174.629C61.3762 174.588 61.5566 174.533 61.7313 174.462C61.7528 174.455 61.7727 174.444 61.7898 174.429C61.8068 174.415 61.8207 174.397 61.8303 174.376C61.84 174.356 61.8454 174.334 61.8461 174.311C61.8468 174.289 61.8428 174.266 61.8344 174.245C61.8259 174.224 61.8133 174.206 61.7971 174.19C61.781 174.174 61.7618 174.162 61.7407 174.154C61.7196 174.146 61.6971 174.143 61.6746 174.144C61.6521 174.145 61.6301 174.151 61.61 174.161C60.5585 174.583 59.9001 174.233 59.8731 174.218C59.8354 174.196 59.7909 174.191 59.7494 174.203C59.7079 174.215 59.6727 174.242 59.6516 174.28C59.6305 174.318 59.6253 174.362 59.637 174.404C59.6487 174.445 59.6764 174.48 59.7141 174.501C60.1773 174.713 60.6995 174.758 61.1921 174.629V174.629Z" fill="#0C0C0C"/>
<path d="M45.7655 167.591L45.6934 167.44C52.595 164.141 50.1266 157.293 50.1009 157.226L50.2572 157.167C50.2836 157.237 52.8038 164.226 45.7655 167.591Z" fill="#0C0C0C"/>
<path opacity="0.1" d="M56.4263 171.156C57.2439 170.983 57.8038 170.357 57.6769 169.757C57.5499 169.157 56.7843 168.812 55.9667 168.985C55.1491 169.158 54.5892 169.784 54.7161 170.384C54.8431 170.984 55.6087 171.329 56.4263 171.156Z" fill="#0C0C0C"/>
<path opacity="0.1" d="M64.9397 167.948C65.0683 168.546 65.8336 168.892 66.6513 168.72C66.7926 168.69 66.9304 168.645 67.0625 168.586C67.0358 167.861 66.9756 167.167 66.8955 166.526C66.6608 166.489 66.4213 166.497 66.1893 166.548C65.373 166.719 64.8131 167.347 64.9397 167.948Z" fill="#0C0C0C"/>
<path d="M64.6088 163.334C65.0475 163.334 65.4031 162.979 65.4031 162.54C65.4031 162.101 65.0475 161.746 64.6088 161.746C64.1701 161.746 63.8145 162.101 63.8145 162.54C63.8145 162.979 64.1701 163.334 64.6088 163.334Z" fill="#0C0C0C"/>
<path d="M56.7806 165.49C57.2193 165.49 57.575 165.134 57.575 164.695C57.575 164.257 57.2193 163.901 56.7806 163.901C56.342 163.901 55.9863 164.257 55.9863 164.695C55.9863 165.134 56.342 165.49 56.7806 165.49Z" fill="#0C0C0C"/>
<path d="M88.0541 203.523C88.5766 207.961 92.3477 235.549 93.0919 240.996L43.8861 251.079C42.6148 246.289 37.0238 225.353 34.0276 216.091C31.1683 207.253 28.466 202.757 29.1585 198.468C29.9672 193.461 36.5782 191.456 40.8618 189.957C43.4775 189.041 47.4705 187.953 47.4705 187.953C47.4705 187.953 49.2335 194.813 57.482 193.525C68.7103 191.771 66.3607 184.082 66.4159 184.07C68.2176 183.703 77.2049 183.09 80.0288 184.067C87.7228 186.723 86.9478 194.115 88.0541 203.523Z" fill="#367CFF"/>
<path d="M88.5533 206.517L88.2227 206.565L90.7158 223.705L91.0465 223.657L88.5533 206.517Z" fill="#0C0C0C"/>
<path d="M24.9553 277.299L8.86523 272.821C16.309 246.073 28.3938 202.081 29.1317 197.902C29.0701 198.298 29.0435 198.698 29.0522 199.098L45.7519 198.862C45.7752 200.507 45.7893 201.5 35.223 240.098C30.1498 258.63 25.0064 277.114 24.9553 277.299Z" fill="#367CFF"/>
<path d="M41.3611 214.939L37.9883 230.131L38.3144 230.204L41.6872 215.011L41.3611 214.939Z" fill="#0C0C0C"/>
<path d="M77.2107 245.498C77.2107 245.498 121.086 222.831 133.239 218.639C136.387 217.553 142.139 216.553 147.07 219.436C161.779 228.036 200.622 263.056 200.622 263.056L191.186 277.156L139.874 240.408C139.874 240.408 115.287 257.948 93.0914 265.663L70.6875 263.016L77.2107 245.498Z" fill="#262626"/>
<path d="M206.391 267.135C206.391 267.135 214.249 265.857 214.9 258.554C215.551 251.25 221.333 253.009 221.333 253.009L220.509 280.967L206.541 280.556L206.391 267.135Z" fill="#367CFF"/>
<path d="M63.2959 280.573C63.2959 280.573 60.9494 280.416 66.2774 280.591C86.152 281.246 210.945 280.919 210.945 280.919L211.008 262.198L63.3383 251.721L63.2959 280.573Z" fill="#262626"/>
<path d="M116.381 255.589C116.374 255.589 116.367 255.589 116.36 255.589L101.804 253.754C101.783 253.752 101.762 253.745 101.743 253.734C101.724 253.723 101.707 253.708 101.693 253.691C101.68 253.674 101.67 253.654 101.664 253.633C101.658 253.612 101.657 253.589 101.66 253.568C101.662 253.546 101.669 253.525 101.68 253.505C101.69 253.486 101.705 253.469 101.722 253.456C101.74 253.442 101.76 253.432 101.781 253.427C101.802 253.421 101.824 253.42 101.846 253.423L116.401 255.258C116.446 255.26 116.487 255.281 116.517 255.314C116.546 255.347 116.561 255.391 116.558 255.435C116.555 255.479 116.535 255.521 116.502 255.55C116.469 255.579 116.425 255.594 116.381 255.592V255.589Z" fill="white"/>
<path d="M199.345 261.41H199.333L164.361 258.932C164.317 258.929 164.275 258.908 164.246 258.875C164.217 258.841 164.202 258.798 164.205 258.753C164.209 258.709 164.229 258.668 164.263 258.639C164.296 258.61 164.34 258.595 164.384 258.598L199.357 261.076C199.401 261.077 199.443 261.096 199.473 261.129C199.504 261.161 199.52 261.204 199.518 261.249C199.517 261.293 199.498 261.335 199.465 261.365C199.433 261.395 199.39 261.411 199.345 261.41V261.41Z" fill="white"/>
</svg>
