<svg width="552" height="468" viewBox="0 0 552 468" fill="none" xmlns="http://www.w3.org/2000/svg">
<g clip-path="url(#clip0_225_701)">
<path opacity="0.1" d="M459.515 71.0654H149.928V447.721H459.515V71.0654Z" fill="white"/>
<path opacity="0.2" d="M459.515 71.0654H149.928V447.721H459.515V71.0654Z" fill="#367CFF"/>
<path d="M444.914 87.2104H164.529V380.892H444.914V87.2104Z" fill="white"/>
<path d="M272.851 48.6741C284.842 48.6741 294.562 37.7781 294.562 24.3371C294.562 10.8961 284.842 0 272.851 0C260.861 0 251.141 10.8961 251.141 24.3371C251.141 37.7781 260.861 48.6741 272.851 48.6741Z" fill="#367CFF"/>
<path opacity="0.68" d="M272.851 48.6741C284.842 48.6741 294.562 37.7781 294.562 24.3371C294.562 10.8961 284.842 0 272.851 0C260.861 0 251.141 10.8961 251.141 24.3371C251.141 37.7781 260.861 48.6741 272.851 48.6741Z" fill="white"/>
<path d="M284.542 14.745C281.454 11.137 276.342 11.9482 273.123 15.4091L272.92 15.6367L272.702 15.3912C269.55 11.8533 264.436 10.9183 261.28 14.4514C259.764 16.1482 258.912 18.4504 258.91 20.8516C258.909 23.2528 259.758 25.5564 261.272 27.2556L272.913 40.0734C272.922 40.0834 272.934 40.0891 272.947 40.0891C272.96 40.0891 272.972 40.0834 272.981 40.0734L284.542 27.2796C285.985 25.5938 286.79 23.3483 286.79 21.0123C286.79 18.6764 285.985 16.4308 284.542 14.745V14.745Z" fill="white"/>
<path d="M438.956 397.282V432.554L426.515 418.615L414.074 432.554V397.282H438.956Z" fill="white"/>
<path d="M257.459 419.8C269.449 419.8 279.169 408.904 279.169 395.463C279.169 382.022 269.449 371.125 257.459 371.125C245.468 371.125 235.748 382.022 235.748 395.463C235.748 408.904 245.468 419.8 257.459 419.8Z" fill="#367CFF"/>
<path opacity="0.68" d="M257.459 419.8C269.449 419.8 279.169 408.904 279.169 395.463C279.169 382.022 269.449 371.125 257.459 371.125C245.468 371.125 235.748 382.022 235.748 395.463C235.748 408.904 245.468 419.8 257.459 419.8Z" fill="white"/>
<path d="M269.149 385.871C266.062 382.262 260.949 383.074 257.73 386.535L257.528 386.762L257.309 386.517C254.157 382.978 249.043 382.044 245.887 385.577C244.371 387.274 243.519 389.576 243.518 391.977C243.516 394.379 244.366 396.682 245.879 398.381L257.521 411.198C257.53 411.208 257.542 411.214 257.555 411.214C257.567 411.214 257.579 411.208 257.588 411.198L269.149 398.405C270.592 396.72 271.398 394.474 271.398 392.138C271.398 389.802 270.592 387.556 269.149 385.871V385.871Z" fill="white"/>
<path d="M202.9 229.243C214.89 229.243 224.61 218.347 224.61 204.906C224.61 191.465 214.89 180.569 202.9 180.569C190.91 180.569 181.189 191.465 181.189 204.906C181.189 218.347 190.91 229.243 202.9 229.243Z" fill="#367CFF"/>
<path opacity="0.68" d="M202.9 229.243C214.89 229.243 224.61 218.347 224.61 204.906C224.61 191.465 214.89 180.569 202.9 180.569C190.91 180.569 181.189 191.465 181.189 204.906C181.189 218.347 190.91 229.243 202.9 229.243Z" fill="white"/>
<path d="M214.591 195.314C211.503 191.705 206.391 192.517 203.171 195.978L202.969 196.206L202.751 195.96C199.599 192.422 194.485 191.487 191.328 195.02C189.813 196.717 188.96 199.019 188.959 201.421C188.957 203.822 189.807 206.125 191.32 207.824L202.962 220.642C202.971 220.652 202.983 220.658 202.996 220.658C203.009 220.658 203.021 220.652 203.03 220.642L214.591 207.848C216.033 206.163 216.839 203.917 216.839 201.581C216.839 199.245 216.033 196.999 214.591 195.314Z" fill="white"/>
<path d="M368.707 277.552L356.905 277.537C354.99 277.535 353.436 279.273 353.434 281.419L353.406 308.429C353.404 310.576 354.954 312.318 356.869 312.32L368.671 312.335C370.586 312.338 372.14 310.6 372.142 308.453L372.17 281.443C372.172 279.297 370.622 277.555 368.707 277.552Z" fill="#367CFF"/>
<path d="M368.707 277.552L356.905 277.537C354.99 277.535 353.436 279.273 353.434 281.419L353.406 308.429C353.404 310.576 354.954 312.318 356.869 312.32L368.671 312.335C370.586 312.338 372.14 310.6 372.142 308.453L372.17 281.443C372.172 279.297 370.622 277.555 368.707 277.552Z" fill="#367CFF"/>
<path opacity="0.3" d="M403.521 308.184C403.565 307.233 403.332 306.291 402.856 305.502C402.38 304.712 401.688 304.118 400.884 303.81H401.539C402.584 303.821 403.589 303.37 404.339 302.555C405.089 301.74 405.522 300.627 405.544 299.457C405.551 298.448 405.246 297.467 404.682 296.68C404.118 295.894 403.329 295.349 402.448 295.139H402.729C403.773 295.15 404.779 294.699 405.529 293.884C406.279 293.069 406.712 291.955 406.734 290.785C406.74 289.775 406.435 288.794 405.87 288.008C405.306 287.221 404.516 286.677 403.635 286.467C404.16 286.466 404.679 286.346 405.161 286.115C405.644 285.884 406.08 285.547 406.444 285.123C406.807 284.699 407.091 284.197 407.279 283.648C407.466 283.098 407.552 282.512 407.533 281.924C407.481 280.779 407.036 279.7 406.291 278.913C405.546 278.126 404.56 277.692 403.536 277.701L391.581 277.685H388.995C388.903 277.685 388.814 277.657 388.736 277.603C388.658 277.549 388.595 277.472 388.554 277.381C388.514 277.289 388.496 277.186 388.505 277.084C388.513 276.982 388.547 276.885 388.602 276.803C391.196 272.88 391.382 270.646 391.518 265.194V265.088C391.551 263.824 391.135 262.596 390.362 261.675C389.589 260.754 388.521 260.214 387.393 260.174H387.256C386.145 260.174 385.077 260.659 384.279 261.528C383.482 262.396 383.019 263.579 382.988 264.825V264.931C382.934 267.093 382.941 268.537 382.699 269.296C381.05 274.477 376.575 275.308 375.592 275.556C374.917 275.72 374.291 276.075 373.773 276.588C373.255 277.101 372.863 277.754 372.635 278.485C372.344 279.301 372.186 280.17 372.17 281.05V308.554C372.17 310.787 373.979 312.342 376.17 312.313L398.31 312.34H399.517C400.532 312.352 401.512 311.927 402.256 311.155C403.001 310.382 403.453 309.319 403.521 308.184V308.184Z" fill="white"/>
<path d="M403.521 308.184C403.565 307.233 403.332 306.291 402.856 305.502C402.38 304.712 401.688 304.118 400.884 303.81H401.539C402.584 303.821 403.589 303.37 404.339 302.555C405.089 301.74 405.522 300.627 405.544 299.457C405.551 298.448 405.246 297.467 404.682 296.68C404.118 295.894 403.329 295.349 402.448 295.139H402.729C403.773 295.15 404.779 294.699 405.529 293.884C406.279 293.069 406.712 291.955 406.734 290.785C406.74 289.775 406.435 288.794 405.87 288.008C405.306 287.221 404.516 286.677 403.635 286.467C404.16 286.466 404.679 286.346 405.161 286.115C405.644 285.884 406.08 285.547 406.444 285.123C406.807 284.699 407.091 284.197 407.279 283.648C407.466 283.098 407.552 282.512 407.533 281.924C407.481 280.779 407.036 279.7 406.291 278.913C405.546 278.126 404.56 277.692 403.536 277.701L391.581 277.685H388.995C388.903 277.685 388.814 277.657 388.736 277.603C388.658 277.549 388.595 277.472 388.554 277.381C388.514 277.289 388.496 277.186 388.505 277.084C388.513 276.982 388.547 276.885 388.602 276.803C391.196 272.88 391.382 270.646 391.518 265.194V265.088C391.551 263.824 391.135 262.596 390.362 261.675C389.589 260.754 388.521 260.214 387.393 260.174H387.256C386.145 260.174 385.077 260.659 384.279 261.528C383.482 262.396 383.019 263.579 382.988 264.825V264.931C382.934 267.093 382.941 268.537 382.699 269.296C381.05 274.477 376.575 275.308 375.592 275.556C374.917 275.72 374.291 276.075 373.773 276.588C373.255 277.101 372.863 277.754 372.635 278.485C372.344 279.301 372.186 280.17 372.17 281.05V308.554C372.17 310.787 373.979 312.342 376.17 312.313L398.31 312.34H399.517C400.532 312.352 401.512 311.927 402.256 311.155C403.001 310.382 403.453 309.319 403.521 308.184V308.184Z" fill="#367CFF"/>
<path opacity="0.8" d="M403.521 308.184C403.565 307.233 403.332 306.291 402.856 305.502C402.38 304.712 401.688 304.118 400.884 303.81H401.539C402.584 303.821 403.589 303.37 404.339 302.555C405.089 301.74 405.522 300.627 405.544 299.457C405.551 298.448 405.246 297.467 404.682 296.68C404.118 295.894 403.329 295.349 402.448 295.139H402.729C403.773 295.15 404.779 294.699 405.529 293.884C406.279 293.069 406.712 291.955 406.734 290.785C406.74 289.775 406.435 288.794 405.87 288.008C405.306 287.221 404.516 286.677 403.635 286.467C404.16 286.466 404.679 286.346 405.161 286.115C405.644 285.884 406.08 285.547 406.444 285.123C406.807 284.699 407.091 284.197 407.279 283.648C407.466 283.098 407.552 282.512 407.533 281.924C407.481 280.779 407.036 279.7 406.291 278.913C405.546 278.126 404.56 277.692 403.536 277.701L391.581 277.685H388.995C388.903 277.685 388.814 277.657 388.736 277.603C388.658 277.549 388.595 277.472 388.554 277.381C388.514 277.289 388.496 277.186 388.505 277.084C388.513 276.982 388.547 276.885 388.602 276.803C391.196 272.88 391.382 270.646 391.518 265.194V265.088C391.551 263.824 391.135 262.596 390.362 261.675C389.589 260.754 388.521 260.214 387.393 260.174H387.256C386.145 260.174 385.077 260.659 384.279 261.528C383.482 262.396 383.019 263.579 382.988 264.825V264.931C382.934 267.093 382.941 268.537 382.699 269.296C381.05 274.477 376.575 275.308 375.592 275.556C374.917 275.72 374.291 276.075 373.773 276.588C373.255 277.101 372.863 277.754 372.635 278.485C372.344 279.301 372.186 280.17 372.17 281.05V308.554C372.17 310.787 373.979 312.342 376.17 312.313L398.31 312.34H399.517C400.532 312.352 401.512 311.927 402.256 311.155C403.001 310.382 403.453 309.319 403.521 308.184V308.184Z" fill="white"/>
<path d="M170.522 121.962L158.246 121.947C156.255 121.944 154.639 123.752 154.636 125.984L154.608 154.076C154.605 156.308 156.218 158.12 158.209 158.122L170.484 158.138C172.476 158.141 174.092 156.333 174.094 154.101L174.123 126.009C174.125 123.777 172.513 121.965 170.522 121.962Z" fill="#367CFF"/>
<path d="M170.522 121.962L158.246 121.947C156.255 121.944 154.639 123.752 154.636 125.984L154.608 154.076C154.605 156.308 156.218 158.12 158.209 158.122L170.484 158.138C172.476 158.141 174.092 156.333 174.094 154.101L174.123 126.009C174.125 123.777 172.513 121.965 170.522 121.962Z" fill="#367CFF"/>
<path opacity="0.3" d="M206.73 153.819C206.776 152.83 206.533 151.85 206.038 151.029C205.543 150.208 204.822 149.59 203.986 149.269H204.667C205.753 149.281 206.799 148.812 207.579 147.964C208.359 147.117 208.809 145.959 208.833 144.742C208.839 143.692 208.522 142.672 207.936 141.854C207.349 141.036 206.529 140.47 205.613 140.251H205.905C206.991 140.262 208.037 139.793 208.817 138.946C209.597 138.098 210.047 136.94 210.07 135.723C210.076 134.673 209.759 133.652 209.172 132.834C208.584 132.016 207.763 131.45 206.847 131.233C207.393 131.231 207.932 131.107 208.434 130.866C208.936 130.626 209.39 130.275 209.768 129.834C210.146 129.393 210.442 128.872 210.636 128.3C210.831 127.729 210.921 127.119 210.901 126.508C210.847 125.316 210.384 124.194 209.61 123.376C208.835 122.557 207.809 122.106 206.744 122.115L194.311 122.098L191.621 122.095C191.526 122.095 191.433 122.065 191.352 122.009C191.272 121.953 191.207 121.873 191.164 121.778C191.122 121.682 191.104 121.576 191.112 121.47C191.121 121.364 191.156 121.263 191.212 121.178C193.911 117.097 194.104 114.774 194.245 109.104V108.993C194.278 107.678 193.845 106.401 193.04 105.443C192.236 104.485 191.125 103.924 189.951 103.883H189.809C188.652 103.882 187.542 104.387 186.713 105.29C185.884 106.193 185.402 107.423 185.369 108.719V108.83C185.314 111.078 185.321 112.58 185.069 113.368C183.352 118.756 178.7 119.62 177.678 119.878C176.977 120.05 176.326 120.421 175.789 120.954C175.252 121.488 174.845 122.166 174.608 122.926C174.306 123.776 174.142 124.679 174.125 125.594V154.199C174.125 156.522 176.007 158.139 178.286 158.109L201.312 158.137H202.567C203.621 158.148 204.64 157.707 205.413 156.905C206.187 156.102 206.658 154.998 206.73 153.819V153.819Z" fill="white"/>
<path d="M206.73 153.819C206.776 152.83 206.533 151.85 206.038 151.029C205.543 150.208 204.822 149.59 203.986 149.269H204.667C205.753 149.281 206.799 148.812 207.579 147.964C208.359 147.117 208.809 145.959 208.833 144.742C208.839 143.692 208.522 142.672 207.936 141.854C207.349 141.036 206.529 140.47 205.613 140.251H205.905C206.991 140.262 208.037 139.793 208.817 138.946C209.597 138.098 210.047 136.94 210.07 135.723C210.076 134.673 209.759 133.652 209.172 132.834C208.584 132.016 207.763 131.45 206.847 131.233C207.393 131.231 207.932 131.107 208.434 130.866C208.936 130.626 209.39 130.275 209.768 129.834C210.146 129.393 210.442 128.872 210.636 128.3C210.831 127.729 210.921 127.119 210.901 126.508C210.847 125.316 210.384 124.194 209.61 123.376C208.835 122.557 207.809 122.106 206.744 122.115L194.311 122.098L191.621 122.095C191.526 122.095 191.433 122.065 191.352 122.009C191.272 121.953 191.207 121.873 191.164 121.778C191.122 121.682 191.104 121.576 191.112 121.47C191.121 121.364 191.156 121.263 191.212 121.178C193.911 117.097 194.104 114.774 194.245 109.104V108.993C194.278 107.678 193.845 106.401 193.04 105.443C192.236 104.485 191.125 103.924 189.951 103.883H189.809C188.652 103.882 187.542 104.387 186.713 105.29C185.884 106.193 185.402 107.423 185.369 108.719V108.83C185.314 111.078 185.321 112.58 185.069 113.368C183.352 118.756 178.7 119.62 177.678 119.878C176.977 120.05 176.326 120.421 175.789 120.954C175.252 121.488 174.845 122.166 174.608 122.926C174.306 123.776 174.142 124.679 174.125 125.594V154.199C174.125 156.522 176.007 158.139 178.286 158.109L201.312 158.137H202.567C203.621 158.148 204.64 157.707 205.413 156.905C206.187 156.102 206.658 154.998 206.73 153.819V153.819Z" fill="#367CFF"/>
<path opacity="0.8" d="M206.73 153.819C206.776 152.83 206.533 151.85 206.038 151.029C205.543 150.208 204.822 149.59 203.986 149.269H204.667C205.753 149.281 206.799 148.812 207.579 147.964C208.359 147.117 208.809 145.959 208.833 144.742C208.839 143.692 208.522 142.672 207.936 141.854C207.349 141.036 206.529 140.47 205.613 140.251H205.905C206.991 140.262 208.037 139.793 208.817 138.946C209.597 138.098 210.047 136.94 210.07 135.723C210.076 134.673 209.759 133.652 209.172 132.834C208.584 132.016 207.763 131.45 206.847 131.233C207.393 131.231 207.932 131.107 208.434 130.866C208.936 130.626 209.39 130.275 209.768 129.834C210.146 129.393 210.442 128.872 210.636 128.3C210.831 127.729 210.921 127.119 210.901 126.508C210.847 125.316 210.384 124.194 209.61 123.376C208.835 122.557 207.809 122.106 206.744 122.115L194.311 122.098L191.621 122.095C191.526 122.095 191.433 122.065 191.352 122.009C191.272 121.953 191.207 121.873 191.164 121.778C191.122 121.682 191.104 121.576 191.112 121.47C191.121 121.364 191.156 121.263 191.212 121.178C193.911 117.097 194.104 114.774 194.245 109.104V108.993C194.278 107.678 193.845 106.401 193.04 105.443C192.236 104.485 191.125 103.924 189.951 103.883H189.809C188.652 103.882 187.542 104.387 186.713 105.29C185.884 106.193 185.402 107.423 185.369 108.719V108.83C185.314 111.078 185.321 112.58 185.069 113.368C183.352 118.756 178.7 119.62 177.678 119.878C176.977 120.05 176.326 120.421 175.789 120.954C175.252 121.488 174.845 122.166 174.608 122.926C174.306 123.776 174.142 124.679 174.125 125.594V154.199C174.125 156.522 176.007 158.139 178.286 158.109L201.312 158.137H202.567C203.621 158.148 204.64 157.707 205.413 156.905C206.187 156.102 206.658 154.998 206.73 153.819V153.819Z" fill="white"/>
<path d="M380.47 180.331C392.461 180.331 402.181 169.435 402.181 155.994C402.181 142.553 392.461 131.657 380.47 131.657C368.48 131.657 358.76 142.553 358.76 155.994C358.76 169.435 368.48 180.331 380.47 180.331Z" fill="#367CFF"/>
<path opacity="0.68" d="M380.47 180.331C392.461 180.331 402.181 169.435 402.181 155.994C402.181 142.553 392.461 131.657 380.47 131.657C368.48 131.657 358.76 142.553 358.76 155.994C358.76 169.435 368.48 180.331 380.47 180.331Z" fill="white"/>
<path d="M392.161 146.401C389.073 142.793 383.961 143.604 380.742 147.066L380.539 147.293L380.321 147.047C377.169 143.509 372.055 142.578 368.899 146.108C367.383 147.805 366.531 150.107 366.529 152.508C366.528 154.909 367.377 157.212 368.891 158.911L380.533 171.729C380.541 171.739 380.554 171.745 380.566 171.745C380.579 171.745 380.591 171.739 380.6 171.729L392.161 158.936C393.604 157.25 394.409 155.004 394.409 152.668C394.409 150.332 393.604 148.087 392.161 146.401V146.401Z" fill="white"/>
<path d="M332.101 387.643C344.092 387.643 353.812 376.747 353.812 363.306C353.812 349.865 344.092 338.969 332.101 338.969C320.111 338.969 310.391 349.865 310.391 363.306C310.391 376.747 320.111 387.643 332.101 387.643Z" fill="#367CFF"/>
<path opacity="0.68" d="M332.101 387.643C344.092 387.643 353.812 376.747 353.812 363.306C353.812 349.865 344.092 338.969 332.101 338.969C320.111 338.969 310.391 349.865 310.391 363.306C310.391 376.747 320.111 387.643 332.101 387.643Z" fill="white"/>
<path d="M343.792 353.713C340.704 350.105 335.592 350.916 332.372 354.378L332.17 354.605L331.952 354.359C328.8 350.821 323.686 349.887 320.53 353.42C319.014 355.117 318.162 357.419 318.16 359.82C318.159 362.221 319.008 364.524 320.522 366.223L332.166 379.041C332.175 379.051 332.188 379.057 332.2 379.057C332.213 379.057 332.225 379.051 332.234 379.041L343.795 366.248C345.237 364.562 346.042 362.316 346.042 359.98C346.041 357.644 345.235 355.398 343.792 353.713V353.713Z" fill="white"/>
<path d="M332.097 238.827C342.945 238.827 351.739 228.969 351.739 216.809C351.739 204.649 342.945 194.791 332.097 194.791C321.249 194.791 312.455 204.649 312.455 216.809C312.455 228.969 321.249 238.827 332.097 238.827Z" fill="#367CFF"/>
<path opacity="0.5" d="M332.097 238.827C342.945 238.827 351.739 228.969 351.739 216.809C351.739 204.649 342.945 194.791 332.097 194.791C321.249 194.791 312.455 204.649 312.455 216.809C312.455 228.969 321.249 238.827 332.097 238.827Z" fill="white"/>
<path d="M342.144 216.771C342.124 219.744 341.056 222.586 339.174 224.68C337.291 226.774 334.747 227.948 332.096 227.948C329.444 227.948 326.9 226.774 325.018 224.68C323.135 222.586 322.068 219.744 322.047 216.771H342.144Z" fill="white"/>
<path d="M325.004 209.891C325.949 209.891 326.715 209.032 326.715 207.973C326.715 206.913 325.949 206.055 325.004 206.055C324.059 206.055 323.293 206.913 323.293 207.973C323.293 209.032 324.059 209.891 325.004 209.891Z" fill="#0C0C0C"/>
<path d="M339.19 209.891C340.135 209.891 340.901 209.032 340.901 207.973C340.901 206.913 340.135 206.055 339.19 206.055C338.245 206.055 337.479 206.913 337.479 207.973C337.479 209.032 338.245 209.891 339.19 209.891Z" fill="#0C0C0C"/>
<path d="M194.035 90.4899C203.605 90.4899 211.363 81.7934 211.363 71.0657C211.363 60.3381 203.605 51.6416 194.035 51.6416C184.465 51.6416 176.707 60.3381 176.707 71.0657C176.707 81.7934 184.465 90.4899 194.035 90.4899Z" fill="#367CFF"/>
<path opacity="0.5" d="M194.035 90.4899C203.605 90.4899 211.363 81.7934 211.363 71.0657C211.363 60.3381 203.605 51.6416 194.035 51.6416C184.465 51.6416 176.707 60.3381 176.707 71.0657C176.707 81.7934 184.465 90.4899 194.035 90.4899Z" fill="white"/>
<path d="M202.899 71.0327C202.899 73.6682 201.965 76.1958 200.303 78.0594C198.641 79.923 196.386 80.9699 194.035 80.9699C191.684 80.9699 189.429 79.923 187.766 78.0594C186.104 76.1958 185.17 73.6682 185.17 71.0327H202.899Z" fill="white"/>
<path d="M187.777 64.9625C188.611 64.9625 189.286 64.205 189.286 63.2706C189.286 62.3361 188.611 61.5786 187.777 61.5786C186.943 61.5786 186.268 62.3361 186.268 63.2706C186.268 64.205 186.943 64.9625 187.777 64.9625Z" fill="#0C0C0C"/>
<path d="M200.291 64.9625C201.124 64.9625 201.8 64.205 201.8 63.2706C201.8 62.3361 201.124 61.5786 200.291 61.5786C199.457 61.5786 198.781 62.3361 198.781 63.2706C198.781 64.205 199.457 64.9625 200.291 64.9625Z" fill="#0C0C0C"/>
<path d="M72.3997 184.046C72.3997 184.046 70.7652 206.168 66.2053 214.121C53.0805 237.02 48.9958 262.975 61.614 276.8C74.2322 290.625 155.957 292.292 162.598 261.136C168.189 234.906 157.044 231.873 154.635 210.108C153.545 200.26 150.453 179.595 150.453 179.595" fill="#0A0A0A"/>
<path d="M141.735 256.137C141.594 256.117 140.028 285.239 109.847 282.701C88.9528 280.946 81.5029 256.094 81.0215 256.094C83.2748 255.558 87.0681 254.777 88.0684 254.179C91.3588 252.196 95.4281 250.135 96.4897 242.972C97.103 238.847 96.0641 217.726 96.3836 213.547L128.456 221.571C128.008 230.392 124.871 250.842 135.865 254.461C137.693 255.065 139.664 255.615 141.735 256.137Z" fill="#E98862"/>
<path opacity="0.5" d="M128.906 246.108C128.403 244.293 128.08 242.422 127.941 240.528C127.588 236.206 127.658 231.854 128.151 227.55C121.632 226.563 115.492 223.547 110.426 218.844C109.83 221.309 106.555 232.082 107.462 234.425C109.175 238.855 117.229 246.108 128.906 246.108Z" fill="#0C0C0C"/>
<path d="M124.812 236.761C112.149 237.903 95.8716 231.938 92.7541 213.003L89.9415 195.918C86.8247 176.982 93.1693 159.797 109.074 156.507C124.978 153.217 139.393 166.108 142.51 185.043L143.755 192.605C144.952 199.872 147.405 234.721 124.812 236.761Z" fill="#E98862"/>
<path d="M138.996 192.445C140.096 192.445 140.988 191.445 140.988 190.212C140.988 188.978 140.096 187.979 138.996 187.979C137.896 187.979 137.004 188.978 137.004 190.212C137.004 191.445 137.896 192.445 138.996 192.445Z" fill="#0C0C0C"/>
<path d="M118.84 196.592C119.94 196.592 120.832 195.592 120.832 194.359C120.832 193.125 119.94 192.125 118.84 192.125C117.74 192.125 116.848 193.125 116.848 194.359C116.848 195.592 117.74 196.592 118.84 196.592Z" fill="#0C0C0C"/>
<path opacity="0.5" d="M129.944 210.554L129.975 210.549C130.62 210.41 131.257 210.232 131.883 210.015C132.819 209.682 134.045 209.131 133.89 208.184C133.712 207.105 129.159 196.01 128.641 194.748C128.62 194.691 128.589 194.64 128.549 194.597C128.51 194.554 128.463 194.52 128.412 194.498C128.361 194.476 128.307 194.465 128.252 194.467C128.197 194.469 128.143 194.483 128.093 194.509C128.043 194.535 127.998 194.571 127.962 194.617C127.925 194.662 127.896 194.716 127.878 194.774C127.86 194.832 127.853 194.893 127.856 194.955C127.86 195.016 127.875 195.076 127.899 195.131C129.841 199.858 132.965 207.627 133.087 208.35C132.981 208.686 131.427 209.318 129.828 209.649C129.723 209.669 129.629 209.734 129.566 209.831C129.504 209.927 129.477 210.047 129.492 210.165C129.507 210.284 129.563 210.39 129.648 210.463C129.732 210.536 129.839 210.568 129.945 210.554H129.944Z" fill="#0C0C0C"/>
<path opacity="0.5" d="M127.559 218.71C130.153 218.346 132.634 217.304 134.802 215.668C134.847 215.635 134.886 215.593 134.916 215.544C134.947 215.494 134.968 215.439 134.98 215.38C134.991 215.321 134.992 215.261 134.982 215.202C134.973 215.142 134.953 215.086 134.924 215.036C134.895 214.985 134.857 214.942 134.813 214.907C134.769 214.873 134.719 214.849 134.667 214.836C134.614 214.824 134.56 214.823 134.508 214.834C134.455 214.844 134.405 214.867 134.36 214.899C129.668 218.292 125.017 218.818 120.911 216.429C120.828 216.378 120.743 216.332 120.655 216.291C120.555 216.254 120.445 216.262 120.35 216.314C120.254 216.366 120.181 216.457 120.144 216.569C120.108 216.68 120.111 216.803 120.154 216.912C120.197 217.021 120.276 217.106 120.374 217.151C120.407 217.166 120.46 217.198 120.534 217.242C122.694 218.504 125.14 219.015 127.559 218.71V218.71Z" fill="#0C0C0C"/>
<path d="M77.205 201.802L91.462 198.947C102.27 194.108 105.617 173.19 105.617 173.19C105.617 173.19 118.663 187.573 150.45 179.593C150.45 179.593 144.284 129.916 97.3105 144.111C82.1618 148.689 71.2375 165.722 72.4973 188.568C73.3829 204.578 77.205 201.802 77.205 201.802Z" fill="#0A0A0A"/>
<path d="M94.6939 218.568C89.8611 219.567 84.9883 214.58 84.0966 209.163C83.2048 203.746 86.6308 199.951 91.4643 198.947L94.5523 202.062L98.8497 217.707L94.6939 218.568Z" fill="#E98862"/>
<path d="M131.626 185.186C133.009 184.186 134.606 183.62 136.251 183.548C137.063 183.507 137.876 183.602 138.662 183.831C139.443 184.055 140.196 184.389 140.902 184.823C140.974 184.866 141.028 184.938 141.053 185.024C141.078 185.111 141.072 185.205 141.037 185.286C141.001 185.368 140.939 185.431 140.862 185.462C140.786 185.492 140.702 185.489 140.628 185.452L140.606 185.441C139.939 185.062 139.232 184.78 138.502 184.599C137.778 184.416 137.034 184.356 136.294 184.422C134.822 184.542 133.404 185.098 132.185 186.031L132.155 186.055C132.105 186.094 132.048 186.123 131.988 186.138C131.928 186.153 131.866 186.155 131.805 186.143C131.744 186.131 131.686 186.106 131.634 186.069C131.582 186.032 131.537 185.984 131.502 185.928C131.466 185.872 131.441 185.808 131.427 185.741C131.414 185.673 131.412 185.604 131.423 185.536C131.433 185.468 131.456 185.403 131.489 185.344C131.521 185.286 131.564 185.236 131.615 185.196L131.626 185.186Z" fill="#0C0C0C"/>
<path d="M118.917 188.819C117.481 188.427 115.979 188.468 114.562 188.939C113.849 189.17 113.172 189.52 112.552 189.977C111.926 190.435 111.353 190.979 110.847 191.597L110.831 191.616C110.774 191.684 110.695 191.723 110.612 191.726C110.53 191.728 110.449 191.694 110.389 191.63C110.329 191.566 110.294 191.478 110.291 191.385C110.289 191.292 110.319 191.202 110.376 191.135C110.901 190.449 111.5 189.839 112.16 189.321C112.824 188.795 113.555 188.385 114.327 188.102C115.89 187.52 117.563 187.417 119.172 187.807C119.232 187.822 119.289 187.85 119.34 187.89C119.39 187.929 119.433 187.98 119.466 188.038C119.499 188.096 119.521 188.161 119.531 188.229C119.542 188.297 119.54 188.367 119.527 188.434C119.513 188.502 119.488 188.565 119.453 188.622C119.417 188.678 119.372 188.726 119.32 188.763C119.268 188.8 119.21 188.825 119.15 188.837C119.089 188.848 119.027 188.847 118.967 188.832H118.954L118.917 188.819Z" fill="#0C0C0C"/>
<path opacity="0.52" d="M128.092 223.008C128.562 222.951 129.027 222.849 129.481 222.703C129.582 222.667 129.666 222.588 129.716 222.483C129.766 222.379 129.778 222.257 129.749 222.142C129.72 222.028 129.653 221.931 129.562 221.871C129.47 221.812 129.362 221.794 129.259 221.822C126.524 222.69 124.976 221.514 124.911 221.464C124.822 221.396 124.714 221.369 124.608 221.39C124.503 221.411 124.409 221.478 124.347 221.576C124.285 221.674 124.26 221.796 124.277 221.914C124.294 222.033 124.352 222.139 124.439 222.21C125.538 222.941 126.829 223.223 128.092 223.008V223.008Z" fill="#0C0C0C"/>
<path d="M91.4749 198.689L91.373 198.365C100.845 194.608 104.075 187.387 105.117 181.991C105.794 178.381 105.791 174.651 105.107 171.042L105.405 170.956C106.098 174.613 106.102 178.392 105.418 182.051C104.362 187.534 101.086 194.873 91.4749 198.689Z" fill="#0C0C0C"/>
<path opacity="0.1" d="M117.132 211.88C119.217 211.639 120.779 210.055 120.621 208.341C120.464 206.627 118.646 205.432 116.562 205.673C114.477 205.914 112.915 207.498 113.072 209.212C113.23 210.926 115.047 212.121 117.132 211.88Z" fill="#0C0C0C"/>
<path opacity="0.1" d="M139.214 205.44C139.376 207.151 141.192 208.344 143.278 208.107C143.638 208.065 143.993 207.981 144.338 207.857C144.464 205.822 144.498 203.863 144.471 202.048C143.896 201.876 143.297 201.825 142.705 201.899C140.62 202.137 139.058 203.721 139.214 205.44Z" fill="#0C0C0C"/>
<path d="M245.254 162.433C245.286 161.928 245.41 161.436 245.617 160.986C245.825 160.537 246.112 160.139 246.461 159.818C246.81 159.497 247.213 159.259 247.647 159.119C248.081 158.979 248.536 158.939 248.984 159.002C249.847 159.158 250.625 159.675 251.161 160.45C251.697 161.224 251.951 162.198 251.871 163.174L251.55 168.193L259.046 152.875C259.853 151.156 261.824 149.624 263.485 150.766C265.19 151.694 266.61 153.171 267.561 155.01C267.579 155.017 272.652 175.154 271.904 176.751L269.905 193.103C268.353 196.411 265.954 199.124 263.018 200.894C260.081 202.664 256.74 203.41 253.422 203.037L242.74 201.838L245.254 162.433Z" fill="#E98862"/>
<g opacity="0.2">
<path d="M257.798 170.215C257.869 170.256 257.952 170.265 258.029 170.238C258.105 170.212 258.17 170.153 258.208 170.074L265.319 155.499C265.358 155.419 265.367 155.325 265.344 155.238C265.321 155.15 265.268 155.076 265.197 155.033C265.126 154.989 265.042 154.979 264.964 155.005C264.886 155.03 264.82 155.09 264.781 155.17L257.666 169.745C257.647 169.785 257.635 169.828 257.631 169.873C257.626 169.918 257.63 169.964 257.641 170.007C257.653 170.05 257.672 170.091 257.697 170.126C257.722 170.161 257.754 170.19 257.789 170.212L257.798 170.215Z" fill="#0C0C0C"/>
</g>
<path d="M257.202 330.703C255.74 330.703 254.28 330.547 252.844 330.236L144.184 306.729L152.897 256.1L234.201 273.689V188.081H280.199V304.922C280.199 308.307 279.605 311.66 278.449 314.788C277.293 317.916 275.599 320.758 273.463 323.152C271.327 325.546 268.792 327.445 266.002 328.741C263.211 330.036 260.221 330.703 257.2 330.703H257.202Z" fill="#367CFF"/>
<path d="M40.7916 429.173L35.3301 466.496H171.545L166.454 428.947L40.7916 429.173Z" fill="#262626"/>
<path d="M109.153 275.463C88.2436 274.358 87.3635 254.463 87.3635 254.463C87.3635 254.463 77.0035 255.214 70.1161 256.258C58.841 257.968 51.4028 262.254 45.4838 268.89C39.9775 275.063 36.6251 281.741 40.1725 324.379C42.741 355.252 40.792 429.173 40.792 429.173L166.454 428.947C166.454 428.947 178.179 334.152 179.233 320.252C181.247 293.722 176.957 271.294 172.043 265.786C161.941 254.462 144.55 254.462 135.865 254.463C135.726 254.465 137.627 276.967 109.153 275.463Z" fill="#367CFF"/>
<path d="M181.014 313.968C181.003 313.969 180.991 313.969 180.979 313.968C180.899 313.958 180.825 313.912 180.774 313.841C180.723 313.77 180.7 313.679 180.709 313.589L182.689 293.762C182.693 293.716 182.706 293.673 182.725 293.633C182.745 293.593 182.771 293.558 182.803 293.53C182.834 293.501 182.871 293.48 182.91 293.468C182.949 293.455 182.989 293.451 183.03 293.456C183.07 293.461 183.109 293.475 183.144 293.497C183.18 293.519 183.211 293.549 183.236 293.584C183.262 293.62 183.281 293.66 183.292 293.704C183.303 293.748 183.306 293.793 183.302 293.839L181.322 313.665C181.313 313.749 181.276 313.826 181.22 313.882C181.163 313.938 181.09 313.969 181.014 313.968V313.968Z" fill="#0C0C0C"/>
<path d="M121.262 343.341L137.436 328.316C137.783 327.993 138.186 327.753 138.619 327.61C139.053 327.467 139.507 327.425 139.955 327.486C140.404 327.547 140.836 327.709 141.227 327.963C141.617 328.218 141.957 328.559 142.226 328.965C142.723 329.772 142.928 330.761 142.799 331.731C142.67 332.701 142.218 333.58 141.533 334.19L138.077 337.401L121.811 346.845L121.262 343.341Z" fill="#E98862"/>
<path d="M156.785 365.334L134.621 360.26L143.834 336.488L165.997 341.562L156.785 365.334Z" fill="#367CFF"/>
<path d="M138.075 337.396L153.13 332.876C154.796 332.34 157.146 332.876 157.558 335.013C157.764 335.822 157.72 336.687 157.432 337.464C157.144 338.242 156.63 338.888 155.973 339.296C155.981 339.312 155.988 339.329 155.993 339.347C155.994 339.361 155.994 339.376 155.993 339.39L158.562 338.565C159.035 338.413 159.533 338.381 160.019 338.47C160.504 338.56 160.966 338.769 161.371 339.084C161.776 339.398 162.114 339.809 162.36 340.287C162.606 340.765 162.754 341.298 162.794 341.849C162.842 342.727 162.617 343.597 162.158 344.311C161.699 345.026 161.034 345.54 160.275 345.767L159.182 346.119C159.177 346.159 159.165 346.197 159.147 346.233C159.927 346.188 160.697 346.453 161.32 346.981C161.943 347.509 162.381 348.267 162.555 349.12C162.72 350.082 162.554 351.078 162.089 351.908C161.624 352.737 160.896 353.338 160.051 353.589L157.363 354.453C157.41 354.47 157.451 354.5 157.485 354.54C157.519 354.58 157.543 354.628 157.557 354.68C157.571 354.743 157.568 354.81 157.548 354.871C158.24 355.045 158.865 355.462 159.331 356.061C159.797 356.661 160.079 357.412 160.137 358.204C160.185 359.083 159.96 359.953 159.502 360.667C159.043 361.381 158.378 361.895 157.619 362.123L134.708 369.484C131.503 370.513 128.097 370.446 124.926 369.292C121.755 368.137 118.964 365.948 116.911 363.004L110.299 353.523L138.075 337.396Z" fill="#E98862"/>
<g opacity="0.2">
<path d="M141.091 343.852C141.113 343.939 141.165 344.011 141.235 344.055C141.304 344.099 141.387 344.111 141.464 344.088L155.779 339.766C155.818 339.754 155.855 339.734 155.887 339.706C155.918 339.679 155.945 339.644 155.965 339.605C155.985 339.566 155.998 339.523 156.004 339.478C156.009 339.433 156.006 339.388 155.995 339.344C155.985 339.3 155.967 339.26 155.942 339.224C155.918 339.188 155.887 339.158 155.852 339.136C155.817 339.113 155.779 339.098 155.739 339.093C155.699 339.087 155.658 339.09 155.619 339.102L141.305 343.423C141.266 343.435 141.23 343.455 141.198 343.483C141.166 343.51 141.139 343.545 141.119 343.584C141.099 343.623 141.086 343.666 141.081 343.711C141.075 343.756 141.078 343.801 141.089 343.845L141.091 343.852Z" fill="#0C0C0C"/>
</g>
<g opacity="0.2">
<path d="M142.616 350.981C142.639 351.067 142.69 351.14 142.76 351.184C142.83 351.228 142.913 351.239 142.99 351.216L158.962 346.396C159.001 346.384 159.038 346.364 159.07 346.336C159.102 346.309 159.128 346.274 159.149 346.235C159.169 346.196 159.182 346.153 159.187 346.108C159.192 346.063 159.189 346.018 159.179 345.974C159.155 345.888 159.103 345.815 159.034 345.77C158.964 345.725 158.881 345.711 158.803 345.731L142.831 350.552C142.792 350.563 142.755 350.584 142.723 350.611C142.691 350.639 142.665 350.673 142.644 350.712C142.624 350.751 142.611 350.794 142.606 350.839C142.601 350.884 142.604 350.929 142.614 350.973L142.616 350.981Z" fill="#0C0C0C"/>
</g>
<g opacity="0.2">
<path d="M144.227 358.712C144.25 358.799 144.302 358.872 144.372 358.916C144.441 358.96 144.524 358.971 144.601 358.948L157.342 355.102C157.382 355.092 157.42 355.073 157.453 355.045C157.487 355.018 157.515 354.984 157.536 354.944C157.557 354.905 157.571 354.861 157.576 354.815C157.582 354.769 157.579 354.723 157.569 354.678C157.558 354.634 157.539 354.592 157.514 354.556C157.489 354.519 157.457 354.489 157.421 354.467C157.385 354.444 157.345 354.43 157.304 354.426C157.264 354.421 157.222 354.425 157.183 354.439L144.442 358.283C144.403 358.295 144.367 358.315 144.335 358.343C144.303 358.37 144.276 358.405 144.256 358.444C144.236 358.483 144.223 358.526 144.217 358.571C144.212 358.616 144.215 358.661 144.225 358.705L144.227 358.712Z" fill="#0C0C0C"/>
</g>
<path d="M132.96 376.151L28.9033 409.823C24.7119 411.07 20.2914 410.963 16.1518 409.515C12.0122 408.067 8.32215 405.337 5.50737 401.639C2.69259 397.941 0.867789 393.426 0.243497 388.616C-0.380795 383.805 0.220861 378.895 1.97905 374.451L37.4552 279.713C41.251 266.022 61.8459 253.341 73.4564 259.115C85.067 264.889 84.6542 287.606 79.5037 300.622L58.1667 350.44L123.047 333.626L132.96 376.151Z" fill="#367CFF"/>
<path d="M41.247 406.171C41.1729 406.171 41.1013 406.141 41.0453 406.087C40.9893 406.033 40.9528 405.957 40.9424 405.875C40.9321 405.793 40.9487 405.709 40.9891 405.64C41.0296 405.57 41.0911 405.519 41.1624 405.497L132.586 375.913L122.825 334.036L58.2344 350.775C58.1784 350.789 58.1199 350.785 58.0657 350.764C58.0115 350.743 57.9637 350.705 57.9278 350.655C57.8916 350.604 57.8689 350.543 57.8623 350.479C57.8557 350.415 57.8654 350.35 57.8904 350.291L79.2218 300.471C79.2594 300.393 79.3222 300.335 79.397 300.308C79.4719 300.281 79.5532 300.287 79.6241 300.325C79.695 300.364 79.7501 300.431 79.7779 300.514C79.8058 300.596 79.8043 300.687 79.7738 300.769L58.7189 349.941L122.978 333.288C123.056 333.267 123.138 333.282 123.207 333.328C123.276 333.375 123.326 333.449 123.346 333.537L133.256 376.066C133.276 376.153 133.265 376.245 133.225 376.323C133.186 376.401 133.121 376.459 133.044 376.484L41.3323 406.157C41.3045 406.166 41.2759 406.171 41.247 406.171V406.171Z" fill="#0C0C0C"/>
<path d="M47.4555 353.395C47.3797 353.395 47.3066 353.364 47.2502 353.307C47.1938 353.25 47.1582 353.172 47.1502 353.088C47.1421 353.003 47.1623 352.918 47.2068 352.85C47.2513 352.781 47.317 352.733 47.3911 352.715L58.1025 350.103C58.1419 350.093 58.1826 350.092 58.2223 350.1C58.262 350.108 58.2998 350.125 58.3337 350.149C58.3677 350.174 58.3969 350.205 58.4199 350.243C58.4429 350.28 58.4592 350.321 58.4678 350.366C58.4763 350.41 58.4771 350.455 58.4699 350.5C58.4628 350.544 58.4479 350.587 58.4261 350.625C58.4043 350.663 58.3761 350.696 58.343 350.721C58.3099 350.747 58.2726 350.765 58.2332 350.775L47.5218 353.388C47.5 353.393 47.4778 353.395 47.4555 353.395V353.395Z" fill="#0C0C0C"/>
<path d="M258.825 122.574L253.262 123.366C251.137 123.668 249.633 125.845 249.903 128.227L255.855 180.754C256.124 183.136 258.066 184.822 260.191 184.519L265.755 183.727C267.88 183.425 269.383 181.248 269.113 178.866L263.162 126.339C262.892 123.957 260.95 122.271 258.825 122.574Z" fill="#292A2E"/>
<path d="M244.451 99.9324L242.751 100.175C232.219 101.674 224.766 112.46 226.104 124.266L226.104 124.266C227.441 136.072 237.063 144.427 247.595 142.928L249.296 142.685C259.827 141.186 267.28 130.4 265.943 118.594L265.942 118.593C264.605 106.788 254.983 98.4329 244.451 99.9324Z" fill="#0CBC8B"/>
<path d="M308.071 125.951L304.395 127.722L301.305 100.385L305.145 100.716C305.316 104.594 305.636 108.681 306.111 112.894C306.629 117.474 307.294 121.863 308.071 125.951Z" fill="#367CFF"/>
<path d="M319.303 111.022C319.91 116.389 319.401 120.881 318.17 121.059C318.026 121.064 317.883 121.031 317.751 120.963C317.62 120.895 317.505 120.794 317.415 120.668V120.668C316.382 119.513 315.329 115.957 314.844 111.662C314.393 107.674 314.558 104.168 315.179 102.557C315.393 102.003 315.661 101.674 315.976 101.63C317.204 101.448 318.696 105.656 319.303 111.022Z" fill="#367CFF"/>
<path d="M306.119 112.982L306.11 112.893C304.14 95.4648 306.907 76.8024 309.624 69.7788C299.627 80.2289 285.259 90.6907 271.983 94.5875C266.626 96.1598 260.093 97.5156 250.193 98.9085L255.092 142.248C264.989 140.829 271.617 140.316 277.154 140.34C290.877 140.402 307.122 146.515 319.126 153.841C314.934 147.799 308.1 130.5 306.13 113.072L306.119 112.982Z" fill="#0CBC8B"/>
<path d="M263.24 94.7599L242.75 97.6701C241.978 97.7797 241.431 98.5704 241.529 99.436L246.564 143.988C246.662 144.853 247.367 145.466 248.14 145.357L268.63 142.446C269.402 142.337 269.948 141.546 269.851 140.68L264.815 96.1286C264.717 95.263 264.012 94.6502 263.24 94.7599Z" fill="#292A2E"/>
<path opacity="0.1" d="M263.24 94.7599L242.75 97.6701C241.978 97.7797 241.431 98.5704 241.529 99.436L246.564 143.988C246.662 144.853 247.367 145.466 248.14 145.357L268.63 142.446C269.402 142.337 269.948 141.546 269.851 140.68L264.815 96.1286C264.717 95.263 264.012 94.6502 263.24 94.7599Z" fill="white"/>
<path d="M325.597 110.125C328.246 133.569 326.026 153.186 320.65 153.95C319.578 154.102 318.464 153.497 317.351 152.241C317.344 152.241 317.344 152.235 317.338 152.236C312.826 147.189 308.23 131.659 306.109 112.893C304.139 95.465 304.859 80.1521 307.573 73.1286C308.506 70.7072 309.674 69.2716 311.056 69.0757C316.434 68.3119 322.948 86.6896 325.597 110.125Z" fill="#0CBC8B"/>
<path opacity="0.3" d="M325.597 110.125C328.246 133.569 326.026 153.186 320.65 153.95C319.578 154.102 318.464 153.497 317.351 152.241C317.344 152.241 317.344 152.235 317.338 152.236C312.826 147.189 308.23 131.659 306.109 112.893C304.139 95.465 304.859 80.1521 307.573 73.1286C308.506 70.7072 309.674 69.2716 311.056 69.0757C316.434 68.3119 322.948 86.6896 325.597 110.125Z" fill="#0C0C0C"/>
<path opacity="0.6" d="M315.977 101.649L318.174 121.082L308.07 125.951C307.293 121.863 306.628 117.474 306.11 112.894C305.635 108.681 305.313 104.595 305.145 100.716L315.977 101.649Z" fill="white"/>
<path d="M319.303 111.022C319.91 116.389 319.401 120.881 318.17 121.059C318.026 121.064 317.883 121.031 317.751 120.963C317.62 120.895 317.505 120.794 317.415 120.668V120.668C316.382 119.513 315.329 115.957 314.844 111.662C314.393 107.674 314.558 104.168 315.179 102.557C315.393 102.003 315.661 101.674 315.976 101.63C317.204 101.448 318.696 105.656 319.303 111.022Z" fill="white"/>
<path d="M257.504 172.137C257.503 171.472 257.696 170.825 258.054 170.294C258.412 169.763 258.914 169.378 259.485 169.197C259.464 169.148 259.385 169.045 259.463 169.011L257.226 168.567C256.565 168.452 255.963 168.073 255.531 167.499C255.1 166.926 254.869 166.196 254.88 165.446C254.913 164.706 255.189 164.006 255.656 163.481C256.123 162.956 256.747 162.645 257.407 162.606C257.392 162.582 257.397 162.549 257.389 162.52L256.469 162.337C255.846 162.226 255.277 161.877 254.857 161.349C254.438 160.822 254.194 160.148 254.167 159.442C254.158 158.998 254.237 158.559 254.398 158.154C254.559 157.749 254.798 157.389 255.098 157.1C255.398 156.811 255.752 156.601 256.133 156.484C256.514 156.367 256.914 156.346 257.304 156.424L259.424 156.844C259.424 156.831 259.415 156.822 259.417 156.809C259.418 156.795 259.434 156.782 259.439 156.767C258.881 156.505 258.419 156.037 258.129 155.442C257.84 154.847 257.739 154.159 257.844 153.491C258.015 151.747 259.853 151.098 261.223 151.37L265.483 152.604C266.141 152.795 266.745 153.165 267.244 153.68C267.743 154.196 268.121 154.842 268.343 155.561C270.271 161.783 274.96 178.167 270.584 177.298L259.811 175.158C259.182 175.013 258.614 174.637 258.196 174.09C257.779 173.543 257.535 172.856 257.504 172.137V172.137Z" fill="#E98862"/>
<path d="M360.892 79.3088C372.911 79.3088 382.654 68.3872 382.654 54.9146C382.654 41.4421 372.911 30.5205 360.892 30.5205C348.874 30.5205 339.131 41.4421 339.131 54.9146C339.131 68.3872 348.874 79.3088 360.892 79.3088Z" fill="#367CFF"/>
<path opacity="0.5" d="M360.892 79.3088C372.911 79.3088 382.654 68.3872 382.654 54.9146C382.654 41.4421 372.911 30.5205 360.892 30.5205C348.874 30.5205 339.131 41.4421 339.131 54.9146C339.131 68.3872 348.874 79.3088 360.892 79.3088Z" fill="white"/>
<path d="M372.026 54.8726C372.037 56.5192 371.757 58.1521 371.203 59.6769C370.648 61.2018 369.83 62.5886 368.795 63.7573C367.76 64.926 366.529 65.8536 365.173 66.4866C363.817 67.1196 362.362 67.4455 360.893 67.4455C359.424 67.4455 357.97 67.1196 356.614 66.4866C355.257 65.8536 354.026 64.926 352.992 63.7573C351.957 62.5886 351.138 61.2018 350.584 59.6769C350.029 58.1521 349.749 56.5192 349.76 54.8726H372.026Z" fill="white"/>
<path d="M353.034 47.2497C354.081 47.2497 354.93 46.2983 354.93 45.1246C354.93 43.9509 354.081 42.9995 353.034 42.9995C351.987 42.9995 351.139 43.9509 351.139 45.1246C351.139 46.2983 351.987 47.2497 353.034 47.2497Z" fill="#0C0C0C"/>
<path d="M368.751 47.2497C369.798 47.2497 370.647 46.2983 370.647 45.1246C370.647 43.9509 369.798 42.9995 368.751 42.9995C367.704 42.9995 366.855 43.9509 366.855 45.1246C366.855 46.2983 367.704 47.2497 368.751 47.2497Z" fill="#0C0C0C"/>
<path d="M498.606 376.951C498.443 376.951 498.287 376.878 498.172 376.749C497.308 375.781 495.899 358.006 492.104 305.088C490.553 283.439 489.086 262.992 488.017 250.568C487.94 249.681 487.633 249.577 487.532 249.543C486.065 249.045 481.613 252.986 479.125 256.433C479.076 256.507 479.013 256.569 478.942 256.615C478.871 256.662 478.792 256.691 478.71 256.703C478.628 256.714 478.545 256.707 478.466 256.681C478.387 256.656 478.313 256.613 478.249 256.555C478.185 256.497 478.132 256.425 478.093 256.343C478.055 256.262 478.031 256.172 478.024 256.08C478.017 255.988 478.026 255.896 478.051 255.808C478.077 255.72 478.118 255.639 478.172 255.569C479.816 253.289 485.174 247.313 487.885 248.226C488.431 248.41 489.112 248.942 489.234 250.436C490.306 262.874 491.771 283.327 493.324 304.98C495.63 337.139 498.242 373.57 499.1 375.862C499.166 375.965 499.206 376.086 499.214 376.212C499.223 376.339 499.2 376.465 499.148 376.577C499.097 376.69 499.019 376.785 498.922 376.851C498.826 376.917 498.715 376.951 498.602 376.951L498.606 376.951Z" fill="#494949"/>
<path d="M486.44 273.371C496.617 264.226 499.991 249.992 493.974 241.579C487.958 233.165 474.831 233.758 464.654 242.903C454.477 252.048 451.104 266.281 457.12 274.695C463.136 283.108 476.263 282.515 486.44 273.371Z" fill="#0CBC8B"/>
<path opacity="0.2" d="M486.44 273.371C496.617 264.226 499.991 249.992 493.974 241.579C487.958 233.165 474.831 233.758 464.654 242.903C454.477 252.048 451.104 266.281 457.12 274.695C463.136 283.108 476.263 282.515 486.44 273.371Z" fill="white"/>
<path d="M459.973 276.835C459.915 276.835 459.858 276.817 459.808 276.782C459.759 276.747 459.72 276.697 459.695 276.637C459.67 276.578 459.661 276.512 459.669 276.448C459.676 276.383 459.7 276.322 459.737 276.271L488.744 237.064C488.769 237.027 488.801 236.997 488.837 236.974C488.872 236.951 488.912 236.937 488.953 236.931C488.994 236.926 489.036 236.93 489.075 236.944C489.115 236.957 489.152 236.979 489.184 237.008C489.215 237.038 489.241 237.074 489.26 237.116C489.279 237.157 489.291 237.202 489.294 237.248C489.297 237.294 489.291 237.34 489.278 237.384C489.264 237.428 489.243 237.468 489.216 237.503L460.212 276.711C460.183 276.75 460.146 276.782 460.105 276.803C460.064 276.825 460.019 276.836 459.973 276.835Z" fill="white"/>
<path d="M504.931 368.545C504.834 368.545 504.737 368.519 504.65 368.469C504.563 368.418 504.488 368.345 504.432 368.256C504.375 368.166 504.338 368.063 504.324 367.955C504.311 367.846 504.32 367.735 504.353 367.632L515.247 332.509C515.568 331.477 516.115 330.552 516.838 329.819C517.56 329.085 518.435 328.567 519.383 328.311C520.33 328.055 521.32 328.069 522.261 328.353C523.203 328.637 524.066 329.181 524.771 329.935L530.531 336.102C530.644 336.229 530.709 336.401 530.711 336.581C530.713 336.761 530.652 336.934 530.541 337.064C530.431 337.194 530.279 337.27 530.119 337.276C529.958 337.282 529.802 337.218 529.684 337.097L523.924 330.929C523.367 330.333 522.686 329.904 521.943 329.68C521.2 329.456 520.419 329.444 519.67 329.646C518.922 329.848 518.232 330.258 517.661 330.837C517.091 331.415 516.659 332.145 516.405 332.96L505.511 368.083C505.469 368.218 505.391 368.335 505.287 368.418C505.183 368.501 505.059 368.545 504.931 368.545V368.545Z" fill="#494949"/>
<path d="M546.624 355.546C554.166 348.853 553.718 334.135 545.623 322.67C537.527 311.206 524.851 307.337 517.309 314.03C509.767 320.722 510.215 335.441 518.31 346.905C526.405 358.369 539.081 362.238 546.624 355.546Z" fill="#0CBC8B"/>
<path d="M493.657 374.711C493.519 374.711 493.385 374.659 493.277 374.563C493.169 374.467 493.093 374.333 493.061 374.183L474.777 288.489C474.652 287.905 474.386 287.371 474.008 286.946C473.629 286.521 473.154 286.22 472.633 286.078C472.113 285.936 471.568 285.958 471.057 286.14C470.547 286.323 470.091 286.66 469.741 287.114L464.105 294.415C463.997 294.547 463.848 294.627 463.688 294.637C463.529 294.648 463.372 294.588 463.251 294.471C463.13 294.354 463.055 294.188 463.041 294.01C463.028 293.831 463.077 293.654 463.178 293.516L468.813 286.209C469.311 285.564 469.959 285.085 470.684 284.825C471.409 284.566 472.185 284.535 472.924 284.738C473.664 284.94 474.34 285.367 474.877 285.972C475.414 286.577 475.792 287.337 475.969 288.167L494.253 373.867C494.29 374.043 494.263 374.229 494.178 374.384C494.093 374.539 493.957 374.649 493.8 374.692C493.753 374.704 493.705 374.711 493.657 374.711V374.711Z" fill="#494949"/>
<path d="M486.913 313.451C489.135 299.044 483.253 285.875 473.775 284.038C464.297 282.2 454.811 292.39 452.589 306.798C450.366 321.205 456.248 334.374 465.726 336.211C475.205 338.048 484.69 327.859 486.913 313.451Z" fill="#0CBC8B"/>
<path d="M498.606 376.951C498.581 376.951 498.555 376.949 498.53 376.945C498.369 376.923 498.222 376.83 498.122 376.686C498.022 376.542 497.977 376.36 497.997 376.179L509.672 269.92C509.799 268.762 510.222 267.67 510.89 266.776C511.557 265.881 512.441 265.222 513.435 264.877C514.428 264.531 515.49 264.516 516.492 264.831C517.493 265.146 518.392 265.778 519.081 266.652L532.425 283.597C532.478 283.665 532.519 283.743 532.545 283.829C532.571 283.914 532.582 284.005 532.577 284.095C532.572 284.185 532.551 284.273 532.516 284.354C532.48 284.435 532.431 284.507 532.37 284.567C532.31 284.627 532.24 284.673 532.164 284.702C532.087 284.731 532.007 284.743 531.926 284.738C531.846 284.732 531.767 284.709 531.695 284.669C531.623 284.629 531.558 284.574 531.505 284.506L518.161 267.565C517.629 266.889 516.934 266.4 516.16 266.157C515.386 265.913 514.565 265.925 513.797 266.192C513.029 266.459 512.346 266.968 511.83 267.66C511.314 268.351 510.987 269.195 510.889 270.089L499.214 376.347C499.195 376.513 499.123 376.667 499.012 376.778C498.9 376.889 498.755 376.95 498.606 376.951Z" fill="#494949"/>
<path d="M546.111 293.01C550.767 283.574 545.289 270.188 533.876 263.111C522.462 256.034 509.436 257.946 504.78 267.381C500.124 276.817 505.602 290.203 517.015 297.28C528.429 304.357 541.456 302.445 546.111 293.01Z" fill="#0CBC8B"/>
<path opacity="0.2" d="M546.624 355.546C554.166 348.853 553.718 334.135 545.623 322.67C537.527 311.206 524.851 307.337 517.309 314.03C509.767 320.722 510.215 335.441 518.31 346.905C526.405 358.369 539.081 362.238 546.624 355.546Z" fill="white"/>
<path opacity="0.5" d="M486.913 313.451C489.135 299.044 483.253 285.875 473.775 284.038C464.297 282.2 454.811 292.39 452.589 306.798C450.366 321.205 456.248 334.374 465.726 336.211C475.205 338.048 484.69 327.859 486.913 313.451Z" fill="white"/>
<path opacity="0.5" d="M546.111 293.01C550.767 283.574 545.289 270.188 533.876 263.111C522.462 256.034 509.436 257.946 504.78 267.381C500.124 276.817 505.602 290.203 517.015 297.28C528.429 304.357 541.456 302.445 546.111 293.01Z" fill="white"/>
<path d="M513.537 467.111H483.671L478.723 359.995H518.487L513.537 467.111Z" fill="#292A2E"/>
<path opacity="0.3" d="M513.537 467.111H483.671L478.723 359.995H518.487L513.537 467.111Z" fill="white"/>
<path d="M546.623 355.886C546.577 355.886 546.531 355.875 546.489 355.852C546.448 355.83 546.411 355.797 546.382 355.756L517.066 314.24C517.041 314.205 517.023 314.164 517.012 314.12C517.001 314.077 516.997 314.032 517.002 313.987C517.007 313.942 517.019 313.899 517.039 313.859C517.058 313.82 517.085 313.785 517.116 313.757C517.148 313.729 517.184 313.708 517.223 313.696C517.262 313.683 517.302 313.68 517.342 313.685C517.382 313.69 517.421 313.704 517.456 313.726C517.491 313.748 517.522 313.778 517.547 313.813L546.863 355.329C546.913 355.401 546.936 355.491 546.927 355.582C546.918 355.672 546.877 355.754 546.814 355.811C546.76 355.86 546.692 355.886 546.623 355.886V355.886Z" fill="white"/>
<path d="M544.163 296.336C544.096 296.336 544.032 296.312 543.979 296.268L506.47 265.564C506.436 265.538 506.408 265.505 506.386 265.466C506.364 265.427 506.349 265.384 506.342 265.339C506.335 265.294 506.337 265.247 506.346 265.203C506.356 265.158 506.373 265.116 506.397 265.079C506.421 265.042 506.452 265.011 506.487 264.987C506.522 264.963 506.561 264.948 506.601 264.941C506.642 264.935 506.683 264.938 506.723 264.949C506.762 264.961 506.799 264.981 506.832 265.009L544.345 295.715C544.397 295.758 544.435 295.818 544.454 295.887C544.473 295.955 544.473 296.029 544.453 296.097C544.433 296.165 544.394 296.225 544.343 296.267C544.291 296.31 544.229 296.333 544.164 296.334L544.163 296.336Z" fill="white"/>
<path d="M464.201 335.764C464.174 335.764 464.148 335.76 464.122 335.752C464.043 335.728 463.976 335.671 463.936 335.592C463.895 335.513 463.884 335.419 463.905 335.331L475.847 285.178C475.868 285.09 475.919 285.015 475.989 284.969C476.06 284.923 476.144 284.911 476.222 284.934C476.301 284.958 476.368 285.016 476.409 285.095C476.45 285.174 476.461 285.267 476.44 285.356L464.498 335.511C464.48 335.584 464.441 335.648 464.388 335.694C464.334 335.739 464.268 335.764 464.201 335.764V335.764Z" fill="white"/>
<path d="M21.4004 468H550.509C550.672 468 550.828 467.928 550.943 467.799C551.058 467.67 551.123 467.495 551.123 467.313C551.123 467.13 551.058 466.955 550.943 466.826C550.828 466.697 550.672 466.625 550.509 466.625H21.4004C21.2378 466.625 21.0818 466.697 20.9667 466.826C20.8517 466.955 20.7871 467.13 20.7871 467.313C20.7871 467.495 20.8517 467.67 20.9667 467.799C21.0818 467.928 21.2378 468 21.4004 468Z" fill="#262626"/>
</g>
<defs>
<clipPath id="clip0_225_701">
<rect width="552" height="468" fill="white"/>
</clipPath>
</defs>
</svg>
