<svg xmlns="http://www.w3.org/2000/svg" width="px" height="50" viewBox="0 0 47 49"><path style="stroke:none;fill-rule:nonzero;fill:#f8f8f8;fill-opacity:1" d="M39.531 0H47v7.367h-7.469Zm0 11.047H47v7.367h-7.469ZM28.328 0h7.469v7.367h-7.469Zm0 11.047h7.469v7.367h-7.469Zm0 0"/><path style="stroke:none;fill-rule:nonzero;fill:#f8f8f8;fill-opacity:1" d="M41.777 23.094v7.18l-36.715.624V7.801h18.2V3.434H3.324c-.883 0-1.726.343-2.351.96A3.255 3.255 0 0 0 0 6.712v26.215c0 .87.352 1.703.973 2.316.625.617 1.468.961 2.351.961h13.293v6.555H9.97V49h26.586v-6.242H29.91v-6.555h13.293c.879 0 1.727-.344 2.348-.96a3.239 3.239 0 0 0 .972-2.317v-9.832ZM25.793 42.758h-5.379v-6.555h5.379Zm0 0"/></svg>