<svg xmlns="http://www.w3.org/2000/svg" width="px" height="50" viewBox="0 0 50 50"><path style="stroke:none;fill-rule:nonzero;fill:#f8f8f8;fill-opacity:1" d="m25 16.668-6.25 3.645v7.292L25 31.25l6.25-3.645v-7.293Zm3.16 4.25-3.187 1.855-3.16-1.843L25 19.074Zm-7.348 1.836 3.09 1.805v3.644l-3.09-1.8Zm5.153 5.527v-3.68l3.223-1.878v3.68ZM6.25 0 0 3.645v7.292l6.25 3.645 6.25-3.645V3.646Zm3.16 4.25L6.223 6.11l-3.16-1.844 3.187-1.86ZM2.062 6.086l3.09 1.805v3.644l-3.09-1.797Zm5.153 5.527v-3.68l3.223-1.878v3.68ZM6.25 35.418 0 39.063v7.292L6.25 50l6.25-3.645v-7.292Zm3.16 4.25-3.187 1.855-3.16-1.843 3.187-1.856Zm-7.348 1.836 3.09 1.805v3.644l-3.09-1.8Zm5.153 5.527v-3.68l3.223-1.878v3.68ZM43.75 0 37.5 3.645v7.292l6.25 3.645L50 10.937V3.646Zm3.16 4.25-3.187 1.86-3.16-1.844 3.187-1.86Zm-7.347 1.836 3.09 1.805v3.648l-3.09-1.805Zm5.152 5.527v-3.68l3.222-1.878v3.68Zm-.965 23.805-6.25 3.645v7.292L43.75 50 50 46.355v-7.292Zm3.16 4.25-3.187 1.855-3.16-1.843 3.187-1.856Zm-7.347 1.836 3.09 1.805v3.644l-3.09-1.8Zm5.152 5.527v-3.68l3.222-1.878v3.68ZM18.75 6.25h12.5v2.082h-12.5Zm0 35.418h12.5v2.082h-12.5ZM7.293 18.75v12.5H5.207v-12.5Zm7.902-.36-4.422-4.417 1.473-1.473 4.422 4.418Zm18.137-1.113 4.422-4.418 1.473 1.473-4.422 4.418Zm-16.398 13.72-4.418 4.421-1.473-1.473 4.418-4.422Zm18.23-1.563 4.418 4.421-1.473 1.473-4.418-4.418Zm9.629-10.684v12.5h-2.086v-12.5Zm0 0"/></svg>