<svg xmlns="http://www.w3.org/2000/svg" width="px" height="50" viewBox="0 0 35 50"><path style="stroke:none;fill-rule:nonzero;fill:#f8f8f8;fill-opacity:1" d="M3.184 10.21V6.25c0-1.656.668-3.246 1.863-4.418A6.423 6.423 0 0 1 9.547 0h12.726a6.43 6.43 0 0 1 4.5 1.832 6.2 6.2 0 0 1 1.864 4.418v3.96c.968.552 1.77 1.34 2.328 2.29.558.95.851 2.027.851 3.125v3.125c.844 0 1.657.328 2.25.914.598.586.934 1.383.934 2.211V25c0 .828-.336 1.625-.934 2.21a3.206 3.206 0 0 1-2.25.915v6.25a6.159 6.159 0 0 1-.851 3.125 6.323 6.323 0 0 1-2.328 2.29v3.96a6.2 6.2 0 0 1-1.864 4.418 6.43 6.43 0 0 1-4.5 1.832H9.547a6.423 6.423 0 0 1-4.5-1.832 6.184 6.184 0 0 1-1.863-4.418v-3.96A6.334 6.334 0 0 1 .852 37.5 6.159 6.159 0 0 1 0 34.375v-18.75c0-1.098.293-2.176.852-3.125a6.334 6.334 0 0 1 2.332-2.29Zm6.363-6.788c-.844 0-1.375-.215-1.973.371-.594.586-.566 1.629-.566 2.457v2.754h18.18V6.25c0-.828-.16-1.871-.754-2.457-.598-.586-1.809-.371-2.653-.371Zm19.09 30.953-.418-18.488c0-.828.031-1.461-.567-2.047-.597-.586-1.355-1.117-2.199-1.117H6.438c-.844 0-1.297.53-1.891 1.117-.598.586-.379 2.332-.379 3.16l-.379 17.375c0 .828-.027 1.758.566 2.344.598.586 1.243.558 2.082.558h18.75c.848 0 1.489.028 2.086-.558.598-.586 1.364-1.516 1.364-2.344ZM6.629 43.75c0 .828.16 1.496.758 2.082.597.586 1.43.93 2.273.93h12.63c.843 0 1.636-.215 2.233-.801.598-.586.665-1.383.665-2.211v-2.754H6.765Zm0 0"/></svg>