<svg xmlns="http://www.w3.org/2000/svg" width="px" height="50" viewBox="0 0 94 50"><path style="stroke:none;fill-rule:nonzero;fill:#fff;fill-opacity:1" d="M47.336 4.156c23.977 0 39.504 10.672 39.504 22.39 0 11.724-16.996 18.048-40.957 18.048-23.977 0-40.29-7.996-40.29-19.719 0-11.719 17.782-20.719 41.743-20.719ZM44.762 0C20.043 0 0 11.129 0 24.875S20.043 49.75 44.762 49.75c24.718 0 49.015-9.457 49.015-23.203C93.777 12.8 69.48 0 44.762 0ZM30.523 22.879c-1.105 5.988-5.007 5.367-9.808 5.367l1.918-10.437c5.316 0 8.926-.606 7.89 5.07ZM13.625 38.812h5.133l1.219-6.62c5.746 0 9.316.445 12.617-2.825 3.648-3.547 4.601-9.855 2-13.02-1.36-1.656-3.54-2.468-6.504-2.468H18.2Zm25.977-31.57h5.105l-1.219 6.621c4.407 0 8.492-.34 10.465 1.582 2.07 2.012 1.078 4.582-1.16 16.72h-5.176c2.153-11.74 2.559-12.716 1.774-13.602-.754-.856-2.477-.68-6.63-.68l-2.628 14.281h-5.106ZM70.64 22.88c-1.121 6.074-5.133 5.367-9.805 5.367L62.75 17.81c5.344 0 8.926-.606 7.89 5.07ZM53.742 38.812h5.149l1.214-6.62c6.043 0 9.387.37 12.618-2.825 3.652-3.547 4.605-9.855 2.004-13.02-1.36-1.656-3.543-2.468-6.508-2.468h-9.887Zm0 0"/></svg>