<svg xmlns="http://www.w3.org/2000/svg" width="px" height="50" viewBox="0 0 45 49"><path style="stroke:none;fill-rule:nonzero;fill:#fff;fill-opacity:1" d="M20.465.523a4.195 4.195 0 0 1 4.062 0L43.07 10.875a3.74 3.74 0 0 1 1.403 1.367c.34.57.52 1.219.527 1.88v20.76a3.791 3.791 0 0 1-.574 1.942 3.862 3.862 0 0 1-1.5 1.38L24.449 48.5a4.066 4.066 0 0 1-2.066.5 4.09 4.09 0 0 1-2.04-.61l-5.542-3.167a3.249 3.249 0 0 1-1.07-.762c.234-.313.656-.352 1-.488.757-.27 1.492-.606 2.187-1.012a.502.502 0 0 1 .289-.066c.102.003.2.039.281.101 1.578.895 3.14 1.816 4.73 2.703.337.192.68-.062.966-.222 6.046-3.375 12.093-6.75 18.144-10.118a.607.607 0 0 0 .254-.242.573.573 0 0 0 .074-.34c.008-6.847.008-13.699.004-20.55a.636.636 0 0 0-.387-.637c-6.14-3.418-12.277-6.836-18.414-10.258a.649.649 0 0 0-.723 0C15.997 6.75 9.864 10.168 3.727 13.59a.646.646 0 0 0-.39.637v20.55a.578.578 0 0 0 .336.574c1.637.919 3.277 1.833 4.918 2.747a3.837 3.837 0 0 0 3.074.406 2.306 2.306 0 0 0 1.512-2.164c.004-6.813-.008-13.621.004-20.43a.494.494 0 0 1 .164-.387.52.52 0 0 1 .402-.137c.785-.003 1.574-.007 2.363.005a.622.622 0 0 1 .22.054.56.56 0 0 1 .28.344c.02.07.024.149.012.223-.004 6.851.008 13.707-.004 20.554.051.934-.148 1.86-.582 2.688a5.247 5.247 0 0 1-1.887 2.023 7.676 7.676 0 0 1-6.789-.183c-1.8-.89-3.52-1.938-5.289-2.89a3.825 3.825 0 0 1-1.496-1.38A3.754 3.754 0 0 1 0 34.883V14.12a3.722 3.722 0 0 1 .543-1.914 3.829 3.829 0 0 1 1.45-1.375C8.152 7.398 14.312 3.961 20.468.523Zm0 0"/><path style="stroke:none;fill-rule:nonzero;fill:#fff;fill-opacity:1" d="M25.84 14.906c2.723-.347 5.488.07 7.98 1.207a6 6 0 0 1 2.164 2.192c.516.906.786 1.93.778 2.968a.559.559 0 0 1-.61.41c-.785 0-1.562.012-2.34-.003a.628.628 0 0 1-.398-.18.612.612 0 0 1-.168-.398 3.529 3.529 0 0 0-1.703-2.43 10.188 10.188 0 0 0-4.672-.664 6.402 6.402 0 0 0-3.344.824c-.351.27-.605.637-.734 1.059-.125.418-.117.867.031 1.28.25.587.934.778 1.5.95 3.238.84 6.668.754 9.844 1.856a4.69 4.69 0 0 1 1.84.992 4.562 4.562 0 0 1 1.207 1.691c.32.918.398 1.902.226 2.856a5.721 5.721 0 0 1-1.207 2.609 7.788 7.788 0 0 1-4.16 2.215 20.301 20.301 0 0 1-6.281.265 9.966 9.966 0 0 1-5.523-2.054 5.698 5.698 0 0 1-1.868-4.52.528.528 0 0 1 .57-.457c.79-.004 1.571-.008 2.356 0a.55.55 0 0 1 .395.156c.054.051.093.11.125.176a.546.546 0 0 1 .043.207 3.527 3.527 0 0 0 1.328 2.477 10.178 10.178 0 0 0 5.422.976 7.438 7.438 0 0 0 4.449-1.078 2.408 2.408 0 0 0 .672-2.316c-.196-.688-.918-1.004-1.543-1.215-3.2-1-6.664-.637-9.832-1.762a4.773 4.773 0 0 1-1.797-.976 4.725 4.725 0 0 1-1.223-1.63 5.291 5.291 0 0 1-.265-2.921 5.326 5.326 0 0 1 1.343-2.621 8.734 8.734 0 0 1 5.395-2.14Zm0 0"/></svg>