<svg xmlns="http://www.w3.org/2000/svg" width="px" height="50" viewBox="0 0 59 50"><path style="stroke:none;fill-rule:nonzero;fill:#f8f8f8;fill-opacity:1" d="M58.637 23.406h-.09c.488.535.367.914-.367 1.14l-7.996 2.626 7.257 12.21c.243.458.305.782.184.977a3.13 3.13 0 0 1-.898.72l-.02.01-9.371 4.231c-5.945 2.586-9.191 3.996-9.742 4.223H37.5a2.962 2.962 0 0 1-1.586.457h-.066a1.928 1.928 0 0 1-.785-.441 2.535 2.535 0 0 1-.583-.801l-.003-.012c-.614-.988-2.848-5.82-6.707-14.492-6.56 2.129-10.665 3.422-12.317 3.879a1.93 1.93 0 0 1-1.793-.067c-.57-.316-1.012-.898-1.234-1.617l-.008-.023-2.39-6.512C3.84 13.402.593 4.652.288 3.664c-.55-1.523-.309-2.36.734-2.516l1.196-.113C8.594.43 12.149.085 12.875.012c.398-.04.8.043 1.168.234l-.016-.008c.282.242.512.547.68.903l.008.011 14.242 29.563 17.828-5.25-5.887-10.387c-.43-.762-.152-1.219.829-1.371l8.27-1.703a1.42 1.42 0 0 1 .933.059l-.012-.004c.367.238.676.57.914.964l.004.012 3.582 5.477c1.96 3.035 3.035 4.668 3.219 4.898Zm-32.438 8.215c.309-.074.336-.305.094-.683L12.961 2.288a.46.46 0 0 0-.16-.184.331.331 0 0 0-.211-.046L2.852 3.086c-.063 0-.094.078-.094.23.004.168.035.325.094.461V3.77L14.89 34.586c.058.156.12.23.183.23h.461l6.524-1.949c2.691-.832 4.074-1.246 4.14-1.246ZM54.32 38.13l-5.886-10.043a.924.924 0 0 0-.317-.398l-.004-.004a.563.563 0 0 0-.418.058h.008L30.246 33.45l5.79 12.098c.183.383.339.59.46.629a.689.689 0 0 0 .465-.059l-.008.004 17.184-7.309c.246-.078.367-.152.367-.23a.645.645 0 0 0-.09-.285v.004Zm1.102-15.293c.488-.152.672-.344.55-.57-3.007-4.645-4.69-7.27-5.054-7.875a.759.759 0 0 0-.305-.391.55.55 0 0 0-.433-.066h.004l-6.614 1.484c-.246.074-.277.266-.093.57l5.238 8.903a954.29 954.29 0 0 0 6.707-2.059Zm0 0"/></svg>