<svg xmlns="http://www.w3.org/2000/svg" width="px" height="50" viewBox="0 0 90 50"><path style="stroke:none;fill-rule:nonzero;fill:#fff;fill-opacity:1" d="M34.738 49.008h-9.367l-2.687-10.11H12.039l-2.555 10.11H.304L13.243.957h8.195Zm-19.89-21.156h4.93l-2.489-9.68Zm32.52 21.953a11.795 11.795 0 0 1-9.735-4.317 22.789 22.789 0 0 1-4.153-12.515l-.144-1.809 8.371-1.18.195 1.602a10.96 10.96 0 0 0 1.805 5.418c.453.547 1.023.98 1.672 1.27a4.546 4.546 0 0 0 2.059.378 4.684 4.684 0 0 0 2.046-.285 4.655 4.655 0 0 0 1.72-1.148 4.343 4.343 0 0 0 1.077-2.914 2.939 2.939 0 0 0-.351-1.532 3.959 3.959 0 0 0-1.715-1.402c-.469-.238-1.703-.762-4.863-1.894a15.979 15.979 0 0 1-7.52-4.805 16.43 16.43 0 0 1-3.242-10.293 17.771 17.771 0 0 1 1.535-7.363 11.377 11.377 0 0 1 4.367-5.121 12.207 12.207 0 0 1 6.52-1.688c1.789-.11 3.578.207 5.222.918a11.44 11.44 0 0 1 4.258 3.168 18.077 18.077 0 0 1 3.512 11.102l.047 1.77-8.465.538-.2-1.543a7.3 7.3 0 0 0-1.261-3.844 4.097 4.097 0 0 0-1.473-.914 4.034 4.034 0 0 0-1.722-.214 4.707 4.707 0 0 0-1.903.265 4.704 4.704 0 0 0-1.64 1.016 1.787 1.787 0 0 0-.38.601 1.736 1.736 0 0 0-.097.707c-.012.489.164.961.485 1.328a12.333 12.333 0 0 0 5.214 2.614 25.292 25.292 0 0 1 6.989 3.355 12.52 12.52 0 0 1 3.863 5.156 20.423 20.423 0 0 1 1.414 8.055c.02 2.8-.547 5.574-1.66 8.14a12.023 12.023 0 0 1-4.7 5.622 13.623 13.623 0 0 1-7.148 1.758Zm24.96-.797h-8.621V.957h11.176c2.586-.148 5.18.094 7.695.727a9.994 9.994 0 0 1 5.067 4.98 20.772 20.772 0 0 1 2.05 9.762 22.577 22.577 0 0 1-1.175 7.746 13.684 13.684 0 0 1-3.008 4.988 9.044 9.044 0 0 1-3.645 2.38c-2.195.523-4.449.75-6.703.675h-2.848Zm0-27.903h2.195c1.516.141 3.043-.058 4.473-.585a3.298 3.298 0 0 0 1.383-1.543 5.566 5.566 0 0 0 .484-2.438 5.198 5.198 0 0 0-.664-2.8 2.974 2.974 0 0 0-.77-.895 3.062 3.062 0 0 0-1.054-.535 19.236 19.236 0 0 0-4.262-.274h-1.797Zm0 0"/></svg>