<svg xmlns="http://www.w3.org/2000/svg" width="px" height="50" viewBox="0 0 133 50"><path style="stroke:none;fill-rule:nonzero;fill:#f8f8f8;fill-opacity:1" d="M115.785 43.402v6.446h10.98c2.25 0 6.106-1.739 6.235-6.641v-2.496c0-4.168-3.207-6.645-6.234-6.645h-5.48v-2.992h10.843V24.56h-10.414c-2.684 0-6.278 2.367-6.278 6.75v2.257c0 4.387 3.551 6.645 6.278 6.645 7.558.039-1.82 0 5.176 0v3.144ZM56.91 41.816s5.89-.539 5.89-8.593c0-8.075-7.128-8.832-7.128-8.832h-12.84v25.453h6.453v-6.14l5.586 6.14h9.531Zm-2.492-5.207h-5.129v-5.816h5.176s1.45.562 1.45 2.887c0 2.324-1.493 2.93-1.493 2.93Zm24.293-12.043h-6.54c-4.679 0-6.257 4.516-6.257 6.645v18.64h6.559v-4.449h6.152v4.45h6.344V31.21c0-5.426-4.637-6.645-6.258-6.645Zm-.086 13.606H72.43v-6.16s0-1.414 2.058-1.414h2.25c1.797 0 1.844 1.414 1.844 1.414v6.16Zm9.332-13.606h6.824v25.286h-6.824Zm16.395 18.75v-18.75h-6.778v25.286h15.961v-6.536ZM2.363 49.848h26.524s-5.067-24.586 11.738-34.57c3.656-1.887 15.305-8.966 34.406 6.03.586-.519 1.168-.953 1.168-.953S58.727 1.825 39.281 3.887c-9.789.93-21.808 10.394-28.867 22.894-7.059 12.5-8.059 23.067-8.059 23.067Zm0 0h26.524s-5.067-24.586 11.738-34.57c3.656-1.887 15.305-8.966 34.406 6.03.586-.519 1.168-.953 1.168-.953S58.727 1.825 39.281 3.887c-9.789.93-21.808 10.394-28.867 22.894-7.059 12.5-8.059 23.067-8.059 23.067Zm0 0h26.524s-5.067-24.586 11.738-34.57c3.656-1.887 15.305-8.966 34.406 6.03.586-.519 1.168-.953 1.168-.953S58.727 1.825 39.281 3.887c-9.808.93-21.847 10.394-28.906 22.894-7.04 12.5-8.012 23.067-8.012 23.067ZM57.645 5.902l.148-2.41c-.3-.176-1.145-.605-3.266-1.238l-.129 2.348c1.106.39 2.188.824 3.247 1.304Zm-3.184 7.555-.129 2.258c1.105.039 2.207.176 3.313.433l.148-2.214a23.362 23.362 0 0 0-3.332-.477ZM42.027 2.324h.325L41.684.152c-1.04 0-2.098.067-3.227.196l.648 2.125a26.14 26.14 0 0 1 2.922-.149Zm1.606 13.149.781 2.453a19.395 19.395 0 0 1 2.922-1.238l-.734-2.364a19.363 19.363 0 0 0-2.97 1.149ZM28.387 6.078 26.87 3.602c-.844.48-1.71.976-2.621 1.543l1.559 2.496a30.997 30.997 0 0 1 2.578-1.563Zm6.886 16.059 1.625 2.582c.563-.89 1.235-1.715 1.97-2.54l-1.516-2.429a21.597 21.597 0 0 0-2.079 2.39Zm-4.87 11.504 2.73 2.297a30.69 30.69 0 0 1 .691-4.188l-2.402-2.04c-.453 1.325-.735 2.645-1.02 3.93ZM15.698 16.688l-2.402-2.211c-.867.89-1.711 1.777-2.469 2.671l2.574 2.368A31.787 31.787 0 0 1 15.7 16.69ZM5.543 32.64l-3.856-1.496A91.9 91.9 0 0 0 0 35.438l3.855 1.496a157.435 157.435 0 0 1 1.688-4.293Zm24.363 10.07c.067 1.887.235 3.43.39 4.512l4.048 1.52a53.48 53.48 0 0 1-.82-4.645Zm0 0"/></svg>