<svg xmlns="http://www.w3.org/2000/svg" width="px" height="50" viewBox="0 0 50 50"><path style="stroke:none;fill-rule:nonzero;fill:#f8f8f8;fill-opacity:1" d="M44.727 14.219A22.408 22.408 0 0 1 47.469 25c0 8.293-4.485 15.535-11.164 19.426l6.86-19.848c1.284-3.207 1.71-5.773 1.71-8.05 0-.848-.059-1.63-.148-2.31Zm-16.625.219c1.351-.067 2.562-.22 2.562-.22 1.211-.155 1.074-1.937-.14-1.874 0 0-3.653.277-5.997.277-2.215 0-5.941-.309-5.941-.309-1.211-.066-1.375 1.782-.156 1.848 0 0 1.125.121 2.343.188l3.5 9.586-4.937 14.753-8.18-24.316c1.352-.059 2.574-.203 2.574-.203 1.211-.156 1.075-1.938-.14-1.871 0 0-3.637.289-5.988.289-.415 0-.91-.016-1.434-.031C10.23 6.555 17.156 2.527 25 2.527c5.852 0 11.172 2.23 15.18 5.903-.102 0-.188-.016-.297-.016-2.203 0-3.774 1.918-3.774 3.984 0 1.86 1.075 3.43 2.211 5.274.856 1.5 1.848 3.43 1.848 6.203 0 1.906-.73 4.148-1.707 7.25l-2.238 7.465-8.121-24.188ZM25 47.468c-2.203 0-4.336-.316-6.348-.91l6.739-19.597 6.91 18.93c.047.113.105.21.16.308A22.348 22.348 0 0 1 25 47.47ZM2.523 25c0-3.254.7-6.355 1.946-9.148L15.187 45.23C7.7 41.586 2.524 33.895 2.524 25ZM25 0C11.223 0 0 11.223 0 25s11.223 25 25 25 25-11.223 25-25S38.777 0 25 0Zm0 0"/></svg>