<svg xmlns="http://www.w3.org/2000/svg" width="px" height="50" viewBox="0 0 30 50"><path style="stroke:none;fill-rule:nonzero;fill:#fff;fill-opacity:1" d="M21.84 30.555c.777-.653 1.86-1.22 1.86-1.22s-3.079.685-6.137.997c-3.743.379-7.766.457-9.786.125-4.773-.781 2.625-2.937 2.625-2.937s-2.87-.235-6.406 1.855c-4.172 2.48 10.332 3.613 17.844 1.18Zm-6.79-3.133c-1.507-4.172-6.605-7.832 0-14.238C23.29 5.195 19.067 0 19.067 0c1.707 8.25-6.011 10.75-8.8 15.879-1.899 3.504.93 7.266 4.785 11.543Zm9.11-17.207c.008 0-13.926 4.277-7.273 13.691 1.965 2.774-.516 5.274-.516 5.274s4.98-3.164 2.695-7.121c-2.14-3.692-3.777-5.528 5.094-11.844Zm-.484 26.414c-.047.094-.098.18-.16.254 10.195-3.29 6.445-11.61 1.574-9.5a1.428 1.428 0 0 0-.652.613c.285-.125.578-.223.875-.293 2.46-.633 6 4.055-1.637 8.926Zm3.746 6.086s1.152 1.16-1.262 2.07c-4.601 1.707-19.14 2.227-23.176.067-1.453-.77 1.27-1.856 2.13-2.079.89-.234 1.406-.195 1.406-.195-1.614-1.398-10.434 2.742-4.48 3.926 16.23 3.242 29.593-1.457 25.382-3.79ZM9.656 38.672c-6.258 2.148 3.805 6.582 11.77 2.39a13.763 13.763 0 0 1-2.242-1.347c-3.551.832-5.2.89-8.426.441-2.66-.37-1.102-1.484-1.102-1.484Zm14.29 9.492c-6.255 1.445-13.973 1.277-18.544.352 0-.012.938.945 5.754 1.328 7.328.574 18.582-.324 18.844-4.582 0 0-.508 1.613-6.055 2.902ZM20.48 34.473c-4.707 1.113-7.433 1.082-10.875.644-2.66-.344-.921-1.926-.921-1.926-6.899 2.813 3.832 5.996 13.472 2.532a4.683 4.683 0 0 1-1.676-1.25Zm0 0"/></svg>