<svg width="83" height="83" fill="none" xmlns="http://www.w3.org/2000/svg"><g filter="url(#filter0_d_1_36)"><path d="M17.747 0A3.765 3.765 0 0 0 14 3.748v40c0 1.668 2.502 1.668 2.502 0V12.505h49.993v31.243c-.038 1.704 2.538 1.704 2.5 0v-40C68.995 1.692 67.305 0 65.25 0H17.748zm0 2.502H65.25c.714 0 1.245.531 1.245 1.246v6.254H16.502V3.748c0-.715.532-1.246 1.245-1.246zM20.25 5a1.25 1.25 0 1 0 0 2.5 1.25 1.25 0 0 0 0-2.5zm5 0a1.25 1.25 0 1 0 0 2.5 1.25 1.25 0 0 0 0-2.5zm5 0a1.25 1.25 0 1 0 0 2.5 1.25 1.25 0 0 0 0-2.5zm17.437.003c-1.688.114-1.573 2.54.058 2.5H62.75c1.63-.038 1.63-2.464 0-2.5H47.687zm-39.932 2.5C5.699 7.503 4 9.192 4 11.248V56.25c0 2.056 1.699 3.748 3.755 3.748h67.497A3.765 3.765 0 0 0 79 56.25V11.248c0-2.056-1.692-3.746-3.748-3.746h-2.5c-1.704-.037-1.704 2.538 0 2.5h2.5c.715 0 1.246.531 1.246 1.246v36.255H6.5V11.247c0-.715.54-1.245 1.255-1.245h2.49c1.704.037 1.704-2.538 0-2.5h-2.49zm37.51 9.978a1.25 1.25 0 0 0-1.202.876l-7.502 22.498c-.529 1.582 1.844 2.375 2.373.793l7.503-22.505a1.25 1.25 0 0 0-1.172-1.662zm5.434 7.226l6.348 5.296-6.348 5.288c-1.356 1.062.319 3.065 1.604 1.919l7.493-6.248a1.25 1.25 0 0 0 0-1.919l-7.493-6.257c-.224-.192-.508-.298-.866-.298-1.182.104-1.61 1.513-.738 2.22zM31.47 22.49a1.25 1.25 0 0 0-.767.296l-7.5 6.257a1.25 1.25 0 0 0 0 1.919l7.5 6.247c1.29 1.202 3.012-.869 1.596-1.919l-6.347-5.288 6.347-5.295c.924-.756.363-2.253-.83-2.217zM6.5 50.005h69.998v6.245c0 .714-.531 1.245-1.246 1.245H7.755c-.714 0-1.255-.53-1.255-1.245v-6.245zm37.568 2.497l-5.13.003c-1.592.19-1.485 2.448.06 2.49H44c1.717.152 1.86-2.458.068-2.492zm-9.58 9.898c-.501-.01-.961.28-1.167.737-.602 1.291-1.68 2.799-3.542 4.36H27.75c-2.056 0-3.745 1.702-3.745 3.758v2.49A1.25 1.25 0 0 0 25.25 75h32.498a1.25 1.25 0 0 0 1.255-1.255v-2.49c0-2.056-1.7-3.757-3.755-3.757H53.22c-1.862-1.562-2.94-3.07-3.542-4.36a1.25 1.25 0 1 0-2.266 1.057c.487 1.045 1.231 2.166 2.234 3.303H33.353c1.002-1.137 1.746-2.258 2.234-3.303a1.25 1.25 0 0 0-1.099-1.795zM27.75 70h27.498c.714 0 1.255.54 1.255 1.255V72.5H26.504v-1.245c0-.714.53-1.255 1.245-1.255z" fill="#fff"/></g><defs><filter id="filter0_d_1_36" x="0" y="0" width="83" height="83" filterUnits="userSpaceOnUse" color-interpolation-filters="sRGB"><feFlood flood-opacity="0" result="BackgroundImageFix"/><feColorMatrix in="SourceAlpha" values="0 0 0 0 0 0 0 0 0 0 0 0 0 0 0 0 0 0 127 0" result="hardAlpha"/><feOffset dy="4"/><feGaussianBlur stdDeviation="2"/><feComposite in2="hardAlpha" operator="out"/><feColorMatrix values="0 0 0 0 0 0 0 0 0 0 0 0 0 0 0 0 0 0 0.25 0"/><feBlend in2="BackgroundImageFix" result="effect1_dropShadow_1_36"/><feBlend in="SourceGraphic" in2="effect1_dropShadow_1_36" result="shape"/></filter></defs></svg>