<svg xmlns="http://www.w3.org/2000/svg" width="px" height="50" viewBox="0 0 50 50"><path style="stroke:none;fill-rule:nonzero;fill:#fff;fill-opacity:1" d="M48.828 9.398 25.746.141a2.05 2.05 0 0 0-1.492 0L1.172 9.398c-.39.165-.711.442-.922.797-.207.356-.29.766-.234 1.172l3.847 27.778c.043.296.16.582.34.828.18.242.418.445.695.582l19.235 9.261a2.133 2.133 0 0 0 1.734 0l19.235-9.261c.277-.137.515-.34.695-.582a1.86 1.86 0 0 0 .34-.828l3.847-27.778a1.836 1.836 0 0 0-.234-1.172 1.936 1.936 0 0 0-.922-.797Zm-6.371 28.266L25 46.09 7.543 37.664 4.008 12.27 25 3.867l20.992 8.403ZM23.27 13.98l-8.657 16.668c-.23.442-.27.954-.105 1.422.16.47.512.856.969 1.078.46.223.992.258 1.48.102a1.923 1.923 0 0 0 1.117-.934l2.02-3.914h9.812l2.02 3.914c.164.305.41.563.715.743.308.18.656.273 1.015.273.297-.004.594-.066.867-.184.45-.226.793-.617.957-1.082.16-.464.13-.976-.093-1.418L26.73 13.98a1.918 1.918 0 0 0-.714-.742A2.01 2.01 0 0 0 25 12.965c-.36 0-.707.094-1.016.273-.304.18-.55.438-.714.742Zm4.71 10.72h-5.96L25 18.956Zm0 0"/></svg>