<svg xmlns="http://www.w3.org/2000/svg" xmlns:xlink="http://www.w3.org/1999/xlink" width="345.176" height="371.634" viewBox="0 0 345.176 371.634">
  <defs>
    <linearGradient id="linear-gradient" x1="0.269" y1="1.087" x2="0.731" y2="-0.073" gradientUnits="objectBoundingBox">
      <stop offset="0" stop-color="#f59bf3"/>
      <stop offset="1" stop-color="#ffaf90"/>
    </linearGradient>
    <linearGradient id="linear-gradient-2" x1="0.901" y1="0.01" x2="0.026" y2="1.167" gradientUnits="objectBoundingBox">
      <stop offset="0" stop-color="#29002c"/>
      <stop offset="1" stop-color="#330065"/>
    </linearGradient>
    <linearGradient id="linear-gradient-3" y1="0.5" x2="1" y2="0.5" gradientUnits="objectBoundingBox">
      <stop offset="0" stop-color="#290051"/>
      <stop offset="1" stop-color="#330065"/>
    </linearGradient>
    <linearGradient id="linear-gradient-4" x1="0.73" y1="0.019" x2="0.2" y2="0.854" xlink:href="#linear-gradient-3"/>
    <linearGradient id="linear-gradient-6" x1="0.924" y1="0.922" x2="-0.426" y2="0.057" xlink:href="#linear-gradient-3"/>
  </defs>
  <g id="joint-venture-partner-img" transform="translate(-206.953 -278.081)">
    <path id="Path_147202" data-name="Path 147202" d="M525.849,536.036c-43.142-28.057,31.569-73.335,15.027-118.118s-71.13,1.258-100.5,23.322-63.793-17.41-86.612-18.47-9.976,16.193-20.268,38.539S247.34,465.1,216.927,486.683s18.039,67.519,22.118,94.909-48.3,58.384-14.743,99.036l166.729-.8c16.777-4.206,27.722-7.54,27.722-7.54C574.843,617.3,568.992,564.093,525.849,536.036Z" transform="translate(0 -43.173)" fill="url(#linear-gradient)"/>
    <path id="Path_147203" data-name="Path 147203" d="M526.3,837.612c0,4.978-104.087,12.312-179.919,3.949C269.623,833.1,226.9,840.125,226.9,835.147s70.5-8.96,147.722-8.96S526.3,832.634,526.3,837.612Z" transform="translate(-7.12 -195.646)" fill="#646aa2"/>
    <path id="Path_147204" data-name="Path 147204" d="M323.17,833.029H341.2L329.665,825.9l1.255-5.652c-2.633,0-3.268,1.783-5.927,1.783C324.242,826.193,323.17,833.029,323.17,833.029Z" transform="translate(-41.484 -193.528)" fill="#432c47"/>
    <g id="Group_19184" data-name="Group 19184" transform="translate(349.166 392.136)">
      <path id="Path_147205" data-name="Path 147205" d="M428.107,462.624l13.691-7.177-.414,4.713-2.6,13-9.911-2.723Z" transform="translate(-428.107 -455.447)" fill="#fd5e5a"/>
      <path id="Path_147206" data-name="Path 147206" d="M457.943,461.585c-3.6,1.458-16.189,1.1-16.189,1.1s-9.65,7.615-9.241,9.358,1.019,1.28,2.168,2.77a14.692,14.692,0,0,0,3.883,2.928s2.083,2.071,4.585,1.485,8.544-6.877,11.272-7.515c.56-.131,2.991-.684,6.514-1.5Z" transform="translate(-429.675 -457.638)" fill="#fc7575"/>
      <path id="Path_147207" data-name="Path 147207" d="M448.608,455.447s7.55,5.935,6.854,7.058-8.276-2.011-8.276-2.011Z" transform="translate(-434.917 -455.447)" fill="#fd5e5a"/>
      <path id="Path_147208" data-name="Path 147208" d="M459.958,476.877s-7.425-3.485-8.2-2.238,3.159,3.418,3.159,3.418-4.21-1.932-4.926-1.406,2.953,3.226,2.953,3.226-4.087-2.264-5.137-1.627,2.611,4.587,2.611,4.587S460.392,480.613,459.958,476.877Z" transform="translate(-435.072 -462.202)" fill="#fd5e5a"/>
    </g>
    <g id="Group_19187" data-name="Group 19187" transform="translate(374.044 334.294)">
      <g id="Group_19186" data-name="Group 19186">
        <path id="Path_147209" data-name="Path 147209" d="M556.539,488.572l-12.561,1.847,7.062-32.585,6.826,3.509Z" transform="translate(-494.345 -398.457)" fill="#230044"/>
        <path id="Path_147210" data-name="Path 147210" d="M529.28,371.9s-22.641,32.722-27.337,37.418-35.147,19.9-35.147,19.9l5.186,10.9,36.53-18.661,22.236-20.394Z" transform="translate(-466.795 -367.785)" fill="#131537"/>
        <path id="Path_147211" data-name="Path 147211" d="M606.585,821.963,606.392,834l1.34.039,1.726-13.722Z" transform="translate(-516.624 -527.845)" fill="#1d1c22"/>
        <g id="Group_19185" data-name="Group 19185" transform="translate(19.788 168.559)">
          <path id="Path_147212" data-name="Path 147212" d="M590.393,658.214s1.434,18.823,3.739,24.446-1.816,79.961-3.772,85.957a18.283,18.283,0,0,1-1.629,3.559c-2.136,3.653-2.621,4.4.242,4.407,3.679.012,6.9-.688,7.616-2.195,1.234-2.6,2.324-11.561,4.841-11.552,0,0,1.72-3.341,1.291-5.1-.645-2.645-2.445-1.285-2.432-4.964s12.2-59.6,10.294-67.734-3.261-9.111-3.229-18.792S590.393,658.214,590.393,658.214Z" transform="translate(-529.482 -638.503)" fill="#fc7575"/>
          <path id="Path_147213" data-name="Path 147213" d="M550.16,627.621s-13.729,26.163-12.851,33.91,3.776,14.006,1.288,24.582-22.177,48.934-22.647,55.947c-.2,2.956.7,3.233.7,3.233-.04,5.1-1.63,10.552-2.689,11.605-1.36,1.351-2.891,8.065-4.182,8.061s-12.2,1.161-12.2,1.161c-.282-2.487,3.056-.489,5.009-5.646s3.141-12.9,5.629-23.346,12.69-58.123,12.727-69.095-.971-11.026.731-18.25,8.072-20.756,8.072-20.756Z" transform="translate(-497.567 -627.621)" fill="#fd5e5a"/>
          <path id="Path_147214" data-name="Path 147214" d="M550.141,661.531c-.878-7.747,12.851-33.91,12.851-33.91l-20.408,1.407s-6.37,13.533-8.072,20.756c-1.249,5.3-1.039,6.74-.853,11.463,3.9.839,9.97,2.064,16.9,3.184C550.4,663.48,550.253,662.518,550.141,661.531Z" transform="translate(-510.4 -627.621)" fill="#e85553"/>
          <path id="Path_147215" data-name="Path 147215" d="M609.25,666.246c.032-9.681-16.96-8.032-16.96-8.032s.914,12,2.456,19.7a77.1,77.1,0,0,0,15.668-.576A38.719,38.719,0,0,1,609.25,666.246Z" transform="translate(-531.378 -638.503)" fill="#fd5e5a"/>
        </g>
        <path id="Path_147216" data-name="Path 147216" d="M548,486.814s-2.391,36.851-4.2,45.629-12.134,71-12.134,71,46.006,3.872,57.107,0c0,0,1.239-79.839-1.374-90.1S573.36,484.4,573.36,484.4Z" transform="translate(-489.951 -407.941)" fill="#0f1d5b"/>
        <path id="Path_147217" data-name="Path 147217" d="M556.88,486.814s-.122,1.889-.333,4.913c3.454,3.43,8.254,9,10.163,14.99,2.177,6.833,18.948,5.825,28.973,4.576-3.418-10.509-13.443-26.89-13.443-26.89Z" transform="translate(-498.832 -407.941)" fill="#1a0033" opacity="0.53"/>
        <path id="Path_147218" data-name="Path 147218" d="M583.563,366.509,569.608,365.5l-4.943,9.675,19.857,2.068Z" transform="translate(-501.729 -365.497)" fill="#230044"/>
        <path id="Path_147219" data-name="Path 147219" d="M558.756,370.712s6.355-4.847,27.889.015c.587.133,1.125,23.455,1.125,23.455s-9.991,39.112-8.091,48.872c0,0-11.422,9.638-28.461,1.248,0,0,2.214-30.714.665-37.555s-4.641-13.046-.253-20.145A80.514,80.514,0,0,0,558.756,370.712Z" transform="translate(-496.272 -366.591)" fill="#fff7cf"/>
        <path id="Path_147220" data-name="Path 147220" d="M570.1,402.821v45.152a24.516,24.516,0,0,0,16.971-4.58c-1.9-9.762,8.092-48.872,8.092-48.872s-.536-23.368-1.123-23.5c-3.417-.772-6.452-1.3-9.14-1.636Z" transform="translate(-503.671 -366.885)" fill="#d1ccb2"/>
        <path id="Path_147221" data-name="Path 147221" d="M587.292,367.07,575.11,401.949v57.892l26.919,1.3-9.384-12.275-3.179-15.4,7.491-39.822-1.13-23.462Z" transform="translate(-505.458 -366.059)" fill="#2e005b"/>
        <path id="Path_147222" data-name="Path 147222" d="M562.224,365.5,552.2,398.787l-2.6,58.673h-5.617l6.034-31L546.474,391.5l10.091-22.574Z" transform="translate(-494.345 -365.497)" fill="#2e005b"/>
        <path id="Path_147223" data-name="Path 147223" d="M587.292,367.07,575.11,401.949l15.565-20.286L593.269,368Z" transform="translate(-505.458 -366.059)" fill="#4f3369"/>
        <path id="Path_147224" data-name="Path 147224" d="M566.785,365.5l-10.028,33.289.9-23.814,4.18-8.464Z" transform="translate(-498.907 -365.497)" fill="#4f3369"/>
        <path id="Path_147225" data-name="Path 147225" d="M608.8,496.862c.35-.349,3.4-4.847,4.055-4.194s-2.7,4.8-2.7,4.8,3.892-3.938,4.66-3.169-5.2,6.086-5.829,6.086S608.8,496.862,608.8,496.862Z" transform="translate(-517.428 -410.868)" fill="#fd5e5a"/>
        <path id="Path_147226" data-name="Path 147226" d="M600.2,488.572s-1.646,2.512-.433,3.724.563,2.469,1.386,3.291,4.5.953,4.5.953a25.291,25.291,0,0,1,2.078-7.621,28.4,28.4,0,0,1,2.941-4.179,49.864,49.864,0,0,0-5.082-2.909C602.544,485.783,600.25,488.474,600.2,488.572Z" transform="translate(-514.098 -407.023)" fill="#fc7575"/>
        <path id="Path_147227" data-name="Path 147227" d="M606.636,371.912s-2.136,16.974,0,21.65c2.08,4.552,14.232,9.8,16.317,19.023,1.558,6.888-10.95,20.861-17.559,29.443,1.653,1.653,6.695,4.953,8.324,6.026,6.727-8.561,23.7-28.72,24.119-33.448C638.357,408.8,615.669,371.306,606.636,371.912Z" transform="translate(-516.268 -367.785)" fill="#4f3369"/>
        <path id="Path_147228" data-name="Path 147228" d="M606.637,371.916c-.322,3.959-.576,7.749-.65,11.787-.067,7.129.362,9.378,1.936,11.167,3.654,4.235,13.431,9.408,15.031,17.719-2.276-8.241-11.733-12.826-15.553-17.276-1.441-1.66-1.721-3.436-1.9-5.686A88.409,88.409,0,0,1,606.637,371.916Z" transform="translate(-516.268 -367.789)" fill="#53587d"/>
        <path id="Path_147229" data-name="Path 147229" d="M599.851,808.247c-1.13,6.729-4.91,18.33-7.51,19.418-4.306.9-4.328.455-4.3-1.9-2.136,3.653-4.555,5.521-1.693,5.531,3.679.012,9.417.255,10.132-1.252,1.233-2.6,1.936-12.453,4.453-12.445l-.823,12.129,1.336.04s2.036-16.7,1.607-18.367C602.464,809.113,600.56,808.659,599.851,808.247Z" transform="translate(-509.002 -523.537)" fill="#3a3745"/>
        <path id="Path_147230" data-name="Path 147230" d="M499.7,828.163c-3,1.854-6.709,1.894-6.483,3.889,0,0,14.123-.559,15.414-.555s2.414-7.93,3.774-9.281.485,9.3.485,9.3l1.392.005s.968-10.969,2.273-15.224c1.04-3.39-.418-4.821-1.461-5.681C510.833,818.7,510.379,830.1,499.7,828.163Z" transform="translate(-476.224 -524.381)" fill="#3a3745"/>
      </g>
    </g>
    <path id="Path_147231" data-name="Path 147231" d="M399.827,572.5s6,18.191,7.071,20.061,1.1,10.41-.614,11.57-.464-3.463-.92-5.906a19.416,19.416,0,0,0-2.685-5.7,15.863,15.863,0,0,1,2.455,5.591c.462,2.352-.134,5.338-.936,5.8-1.847,1.066-.334-1.792-.968-5.2a9.042,9.042,0,0,0-2.5-5.009s1.544,6.354-.093,7.26-7.313-24.743-7.313-24.743Z" transform="translate(-66.526 -105.094)" fill="#fd5e5a"/>
    <path id="Path_147232" data-name="Path 147232" d="M368.347,378.673s9.777,14.371,11.14,31.536c.568,7.148.066,42.574,3.526,57.32,4.479,19.092,10.715,37.347,10.715,37.347l-14.5,8.774-11.4-45.49-3.1-32.4Z" transform="translate(-56.317 -35.906)" fill="#341102"/>
    <path id="Path_147233" data-name="Path 147233" d="M341.3,592.768,321.371,732.549l9.457-1.584,16.246-75.771s10.706-70.32,10.706-95.709Z" transform="translate(-40.842 -100.447)" fill="url(#linear-gradient-2)"/>
    <path id="Path_147234" data-name="Path 147234" d="M271.752,834.564h18.4l-11.531-7.124,1.255-5.652c-2.633,0-3.268,1.782-5.927,1.782C273.2,827.729,271.752,834.564,271.752,834.564Z" transform="translate(-23.13 -194.076)" fill="#432c47"/>
    <path id="Path_147235" data-name="Path 147235" d="M330.553,361.619l-.7,10.992,26.048-2.96-6.086-7.458Z" transform="translate(-43.868 -29.819)" fill="#375866"/>
    <path id="Path_147236" data-name="Path 147236" d="M355.158,448.394c-.066-37.289-5.779-74.38-13.925-79.1,0,0-9.471-.652-14.343-.815-7.268-.244-12.925,3.427-18.962,23.995-3.8,12.966-4.335,41.892-3.928,69.166.181,12.092,1.3,24.207,1.561,32.769,20.531,0,29.389.875,49.311.875C356.131,458.392,355.178,459.48,355.158,448.394Z" transform="translate(-34.6 -32.264)" fill="#d1fedf"/>
    <path id="Path_147237" data-name="Path 147237" d="M361.964,369.755s11.022,4.932,14.393,38.062,8.018,100.772,8.018,100.772H369.024s-1.663-96.631-1.663-103.257S361.964,369.755,361.964,369.755Z" transform="translate(-55.331 -32.723)" fill="url(#linear-gradient-3)"/>
    <path id="Path_147238" data-name="Path 147238" d="M319.554,442.744c-.01-.01-.021-.024-.031-.034C319.8,442.69,319.781,442.7,319.554,442.744Z" transform="translate(-40.182 -58.761)" fill="#fc7575"/>
    <path id="Path_147239" data-name="Path 147239" d="M335.384,527.731l-38.916.974-3.219,21.029-1.259,89.477s-18.83,63.06-22.614,84c0,0,10.761-.657,10.143-.657l31.666-74.811,14.3-68.345,11.71-26.568Z" transform="translate(-22.282 -89.112)" fill="url(#linear-gradient-4)"/>
    <path id="Path_147240" data-name="Path 147240" d="M341.346,569.272c-.242-12.363-.826-27.04-1.5-41.2l-30.256.758-3.219,21.029-.239,16.919Z" transform="translate(-35.401 -89.233)" fill="#262943" opacity="0.57"/>
    <path id="Path_147241" data-name="Path 147241" d="M310.964,528.685l-.978,6.252h40.425l-.53-7.2Z" transform="translate(-36.778 -89.113)" fill="#3b1b36"/>
    <rect id="Rectangle_11462" data-name="Rectangle 11462" width="10.299" height="5.722" transform="translate(302.274 439.104)" fill="#a07fc0"/>
    <path id="Path_147242" data-name="Path 147242" d="M365.485,528.486h-10.3v.536c1.987-.057,7.153.024,8.114,2.324a16.633,16.633,0,0,1,.923,2.862h1.262Z" transform="translate(-52.912 -89.382)" fill="#a992c0" opacity="0.53" style="mix-blend-mode: screen;isolation: isolate"/>
    <path id="Path_147243" data-name="Path 147243" d="M331.113,608.081l-17.126,67.371L285.15,751.236l31.666-74.811Z" transform="translate(-27.913 -117.793)" fill="#73557a"/>
    <path id="Path_147244" data-name="Path 147244" d="M324.285,414.055c.057.447-12.112-43.869-12.112-43.869a51.119,51.119,0,0,0-9.5,4.016l-7.841,24.864s-3.238,45.373-3.238,48.973c0,1.937-3.9,30.922-7.5,57.3l44.419,3.4C327.836,471.947,324.285,414.055,324.285,414.055Z" transform="translate(-27.533 -32.877)" fill="url(#linear-gradient-3)"/>
    <path id="Path_147245" data-name="Path 147245" d="M330.1,445.126s-27.495-32.037-30.4-27.978c-.262,3.686-.981,13.844-1.664,23.849,6.94,17.525,29.4,46.152,34.437,52.453C331.739,475.368,330.781,457.222,330.1,445.126Z" transform="translate(-32.515 -49.513)" fill="#262943" opacity="0.57"/>
    <path id="Path_147246" data-name="Path 147246" d="M346.6,438.406l4.22,94.688S349.19,439.568,346.6,438.406Z" transform="translate(-49.847 -57.228)" fill="#70497a"/>
    <g id="Group_19188" data-name="Group 19188" transform="translate(274.382 278.705)">
      <path id="Path_147247" data-name="Path 147247" d="M335.653,328.677c-.449-.286-6.042-14.2-6.042-14.2s-3.732-10.447-1.322-12.215,8.138-7.9,13.158-8.012a19.064,19.064,0,0,1,8.837,1.678c.45.285,3.7,5.778,3.7,5.778s-1.515-1.85-2.294,5.014S335.653,328.677,335.653,328.677Z" transform="translate(-317.404 -284.473)" fill="#381a3f"/>
      <path id="Path_147248" data-name="Path 147248" d="M351,340.856c-.6,1.778-.339,14.465-.81,17.66-.466,3.154-14.863,8.042-15.145-3.43s.851-24.964.851-24.964Z" transform="translate(-320.09 -297.281)" fill="#fc7575"/>
      <path id="Path_147249" data-name="Path 147249" d="M351.2,340.855h0l-5.013-3.562L336.1,330.122v.037c0,.048-.011.137-.022.266-.033.418-.1,1.251-.177,2.4v.005c-.015.233-.033.479-.05.738,0,.017,0,.034,0,.05-.055.834-.116,1.792-.176,2.848l-.01.177c-.014.251-.029.505-.043.766v.009c-.008.135-.015.271-.023.409,0,.015,0,.03,0,.044,0,.051-.005.1-.008.155,0,.021,0,.041,0,.06l-.014.272c1.874,6.149,8.962,12.828,15.093,13.621.014-.424.036-.853.066-1.284C350.8,346.391,350.866,341.865,351.2,340.855Z" transform="translate(-320.29 -297.281)" fill="#fd5e5a"/>
      <path id="Path_147250" data-name="Path 147250" d="M334.85,310.44a22.125,22.125,0,0,0,2.453,19.322c4.4,6.345,10.465,9.617,14.811,6.416s5.591-23.279,2.449-28.446S337.661,303.449,334.85,310.44Z" transform="translate(-319.607 -288.109)" fill="#fc7575"/>
      <path id="Path_147251" data-name="Path 147251" d="M327.06,320.654s-.978-6.566-3.5-8.167-3.657-2.576-4.112-4.895-8.861-3.871-7.488-7.684,7.955-5.6,11.3-12.228,6.958-10.3,14.759-7.884,8.886,7.175,8.886,7.175,3.442-.6,5.546,3.521.594,6.459-.76,8.391c0,0,.291-5.438-1.575-5.06s.015,6.358.015,6.358a49.216,49.216,0,0,1-5.786-5.836c-2.984-3.544-2.249.6-1.367,5.1s-5.739.26-8.681-2.99-7.151-.212-8.69,4.395S330.7,312.687,327.06,320.654Z" transform="translate(-311.811 -279.051)" fill="#653870"/>
      <path id="Path_147252" data-name="Path 147252" d="M335.114,323.217s-2.75-4.7-4.181-2.655-.251,8.14,2.782,8.2S335.114,323.217,335.114,323.217Z" transform="translate(-318.421 -293.684)" fill="#fc7575"/>
      <path id="Path_147253" data-name="Path 147253" d="M334.254,324.4s.1-2.721-1.373-1.819.011,5.272,1.372,5.186S334.254,324.4,334.254,324.4Z" transform="translate(-319.113 -294.522)" fill="#fd5e5a"/>
      <path id="Path_147254" data-name="Path 147254" d="M358.861,323.55a17.024,17.024,0,0,1,1.1,3.878,10.131,10.131,0,0,1-.041,4.295c-.335-.062-1.226-.194-2.4-.5.759-.021,1.512,0,2.262.041l-.253.186A52.224,52.224,0,0,0,358.861,323.55Z" transform="translate(-328.126 -294.935)" fill="#172866"/>
      <path id="Path_147255" data-name="Path 147255" d="M352.6,323.926a1.362,1.362,0,0,1-.794,1.7c-.6.121-1.213-.442-1.374-1.257a1.361,1.361,0,0,1,.794-1.7C351.824,322.548,352.439,323.112,352.6,323.926Z" transform="translate(-325.583 -294.615)" fill="#2f499f"/>
      <path id="Path_147256" data-name="Path 147256" d="M365.41,322.107a1.363,1.363,0,0,1-.794,1.7c-.6.121-1.213-.442-1.374-1.257a1.363,1.363,0,0,1,.794-1.7C364.635,320.729,365.249,321.292,365.41,322.107Z" transform="translate(-330.155 -293.965)" fill="#2f499f"/>
      <path id="Path_147257" data-name="Path 147257" d="M346.54,319.913a5.855,5.855,0,0,1,3.373-2.647c2.109-.426,1.472,1.347.979,1.446S346.458,319.5,346.54,319.913Z" transform="translate(-324.207 -292.668)" fill="#172866"/>
      <path id="Path_147258" data-name="Path 147258" d="M361.99,315.707s2.5.739,2.97,1.887c0,0-2.642-.219-3.119-.839A.7.7,0,0,1,361.99,315.707Z" transform="translate(-329.605 -292.135)" fill="#172866"/>
      <path id="Path_147259" data-name="Path 147259" d="M349.266,340.931s6.445,2.423,9.941.094c0,0-.979,3.245-1.871,3.831C355.461,346.087,350.85,345.152,349.266,340.931Z" transform="translate(-325.18 -301.139)" fill="#fff"/>
    </g>
    <g id="Group_19191" data-name="Group 19191" transform="translate(434.141 284.647)">
      <path id="Path_147260" data-name="Path 147260" d="M579.424,289.7c.868.8,9.151-.408,16.167,7.142,9.279,9.984,8.183,33.311,8.183,33.311s-9.853,2.245-13.749,2.4-11.815-.976-16.043-1.6c-4.317-.637-6.645-24.917-3.739-31.349A23.918,23.918,0,0,1,579.424,289.7Z" transform="translate(-563.357 -288.794)" fill="#2e162b"/>
      <path id="Path_147261" data-name="Path 147261" d="M576.318,289.691s-9.249-.532-11.54,5.441-1.323,25.075-4.528,27.059a9.566,9.566,0,0,0,4.454,1.435s1.339,2.355-1.877,5.834a26.349,26.349,0,0,0,8.048,1.481c.282,0,3.281.841,3.557-1.7.326-3-2.073-9.652-1.763-12.558C573.985,304.38,576.318,289.691,576.318,289.691Z" transform="translate(-560.251 -288.787)" fill="#452140"/>
      <path id="Path_147262" data-name="Path 147262" d="M578.825,291.411a8.872,8.872,0,0,0-2.429.282s-7.928,3.319-8.289,9.156.449,8.1-.189,11.879c-1,5.936,2.752,16.977,9.217,16.833.15-3.127-2.086-9.443-1.786-12.255C576.449,307.008,578.263,295.044,578.825,291.411Z" transform="translate(-562.931 -289.405)" fill="#341930"/>
      <path id="Path_147263" data-name="Path 147263" d="M575.769,344.2s-1.485,11.264-3.033,14.235-4.013,15.94-1.847,15.94,12.244-10.091,12.894-14.176,3.806-20.95,3.806-20.95Z" transform="translate(-563.744 -306.481)" fill="#fc7575"/>
      <path id="Path_147264" data-name="Path 147264" d="M578.85,342.936c-.083.04-.332,2.374-.345,2.465-.358,2.51-.463,2.354-.356,2.689.839,2.626,4.228,4.271,9.223-.194a24.756,24.756,0,0,0,1.831-1.822c.7-3.8,1.269-6.826,1.269-6.826S578.949,342.894,578.85,342.936Z" transform="translate(-566.625 -306.481)" fill="#fd5e5a"/>
      <path id="Path_147265" data-name="Path 147265" d="M577.918,291.638s-7.493,3.174-7.832,8.762.428,7.756-.174,11.372.955,13.279,6.625,15.719,13.215-6.913,14.537-11.115a33.67,33.67,0,0,0,.348-16.783C589.988,293.022,582.085,290.483,577.918,291.638Z" transform="translate(-563.657 -289.39)" fill="#fc7575"/>
      <path id="Path_147266" data-name="Path 147266" d="M587,322.95a20.443,20.443,0,0,0,4.184-6.574,33.671,33.671,0,0,0,.348-16.783c-1.435-6.571-9.338-9.11-13.505-7.956,0,0-7.493,3.174-7.832,8.762-.113,1.872-.1,3.36-.061,4.647h0l7.056-.24s-.437-5.989.966-7.508l.233,7.2,4.835.035a13.543,13.543,0,0,0,1.66-5.914s.163,3.845-.823,5.928c0,0,3.94-.2,4.02,1.84.066,1.668-.516,12.128-.813,14.9A15.747,15.747,0,0,1,587,322.95Z" transform="translate(-563.77 -289.39)" fill="#fd5e5a"/>
      <path id="Path_147267" data-name="Path 147267" d="M600.75,300.228c-5.66-11.657-15.921-13.374-21.614-11.033-3.626.187-7.756,1.7-9.574,4.761a10.272,10.272,0,0,0-.561,9.306l6.733-.071s.263-6.908,1.667-8.427l.328,8.349,4.777-.187s1.552-4.236,1.445-6.98c0,0,.934,4.842-.053,6.925,0,0,3.406.377,3.486,2.418.066,1.668-.516,12.128-.813,14.9a14.226,14.226,0,0,1-3.486,8.126s11.226,1.975,13.543-.531l-1.174,3.5s6.3-.729,8.03-1.633S604.008,306.939,600.75,300.228Z" transform="translate(-563.067 -288.292)" fill="#4c2a54"/>
      <path id="Path_147268" data-name="Path 147268" d="M569.562,294.458a10.272,10.272,0,0,0-.561,9.306l6.733-.071s.263-6.908,1.667-8.427l.328,8.349,4.777-.187s1.552-4.236,1.445-6.98c0,0,.934,4.842-.053,6.925,0,0,3.406.377,3.486,2.418.066,1.668-.516,12.128-.813,14.9q-.047.448-.118.873h0c6.284-6.283,5.2-21.346,3.523-26.669s-10.839-5.195-10.839-5.195C575.51,289.884,571.38,291.4,569.562,294.458Z" transform="translate(-563.067 -288.794)" fill="#653870"/>
      <path id="Path_147269" data-name="Path 147269" d="M585.266,290.389c8.489-.458,14.489,1.453,17.481,9.456,2.91,7.691,5.782,19.634,3.087,27.406l-2.775-1.061c2.577-6.194,1.028-16.523-.714-23.042C600.169,294.983,597.349,290.478,585.266,290.389Z" transform="translate(-569.18 -289.018)" fill="#653870"/>
      <g id="Group_19189" data-name="Group 19189" transform="translate(6.525 1.761)">
        <path id="Path_147270" data-name="Path 147270" d="M578.49,291.116c-2.9.864-6.089,2.322-7.378,5.04-1.2,2.509-.641,5.41-.1,8.1l.718-.008C570.358,298.564,569.664,294.1,578.49,291.116Z" transform="translate(-570.398 -291.061)" fill="#363a68"/>
        <path id="Path_147271" data-name="Path 147271" d="M580.6,291.448c-5.978,2.55-5.746,7.176-4.285,12.891l.711-.008C575.149,298.721,574.7,294.167,580.6,291.448Z" transform="translate(-572.201 -291.18)" fill="#363a68"/>
        <path id="Path_147272" data-name="Path 147272" d="M585.145,291.031c1.9,4.607,1.5,8.386.347,12.993l.686-.027C587.045,299.383,587.218,295.465,585.145,291.031Z" transform="translate(-575.662 -291.031)" fill="#363a68"/>
      </g>
      <path id="Path_147273" data-name="Path 147273" d="M578.093,327.218c.937-1.148,1.145-3.526.968-5.031-.318,1.42-.74,3.972-1.471,4.873l-.153.188a3.389,3.389,0,0,0,2.3,1.012A5.112,5.112,0,0,1,578.093,327.218Z" transform="translate(-566.386 -300.391)" fill="#452140"/>
      <path id="Path_147274" data-name="Path 147274" d="M581.453,344.244h0Z" transform="translate(-567.818 -308.264)" fill="#fff"/>
      <g id="Group_19190" data-name="Group 19190" transform="translate(10.437 29.343)">
        <path id="Path_147275" data-name="Path 147275" d="M583.531,333.923a21.831,21.831,0,0,1-7.05,1.53,7.488,7.488,0,0,0,.862,1.178,21.674,21.674,0,0,0,5.623-1.2A9.37,9.37,0,0,0,583.531,333.923Z" transform="translate(-576.481 -333.923)" fill="#fff"/>
        <path id="Path_147276" data-name="Path 147276" d="M583.444,336.263a21.674,21.674,0,0,1-5.623,1.2C579.931,339.808,582.056,339.148,583.444,336.263Z" transform="translate(-576.959 -334.758)" fill="#2e162b"/>
      </g>
      <path id="Path_147277" data-name="Path 147277" d="M583.2,314.549a3.819,3.819,0,0,1,1.915-.968c1.289-.283,4.042,1.211,4.042,1.211a23.355,23.355,0,0,0-3.512-.7,5.58,5.58,0,0,0-1.967.774Z" transform="translate(-568.442 -297.306)" fill="#5c2c55"/>
      <path id="Path_147278" data-name="Path 147278" d="M574.817,315.02a3.5,3.5,0,0,0-1.625-.922c-1.105-.316-3.529.75-3.529.75a20.613,20.613,0,0,1,3.055-.358,5.127,5.127,0,0,1,1.675.764Z" transform="translate(-563.611 -297.483)" fill="#5c2c55"/>
      <path id="Path_147279" data-name="Path 147279" d="M583,320.11a3.533,3.533,0,0,1,2.889-.815c1.21.238,1.894,1.227,2.648,1.378-1.134.278-1.52-.993-4.13-.859A4.765,4.765,0,0,0,583,320.11Z" transform="translate(-568.372 -299.342)" fill="#2e162b"/>
      <path id="Path_147280" data-name="Path 147280" d="M574.23,320.627a3.533,3.533,0,0,0-2.812-1.048c-1.226.14-1.987,1.069-2.752,1.159,1.107.37,1.595-.866,4.187-.52A4.759,4.759,0,0,1,574.23,320.627Z" transform="translate(-563.255 -299.455)" fill="#2e162b"/>
      <ellipse id="Ellipse_275" data-name="Ellipse 275" cx="3.188" cy="1.25" rx="3.188" ry="1.25" transform="translate(16.64 22.336)" fill="#fd5e5a"/>
      <path id="Path_147281" data-name="Path 147281" d="M574.7,324.276c0,.69-1.037,1.25-2.315,1.25s-2.314-.56-2.314-1.25,1.037-1.249,2.314-1.249S574.7,323.586,574.7,324.276Z" transform="translate(-563.756 -300.691)" fill="#fd5e5a"/>
    </g>
    <path id="Path_147282" data-name="Path 147282" d="M360.894,362.512l6.164,47.034,2.051-23.217-2.129-2.583V369.969Z" transform="translate(-54.949 -30.137)" fill="#284758"/>
    <path id="Path_147283" data-name="Path 147283" d="M331.1,359.793l7.331,10.954-3.532,6.719-10.871-13.041,4.449-3.459Z" transform="translate(-41.789 -29.167)" fill="#e3feec"/>
    <path id="Path_147284" data-name="Path 147284" d="M359.181,362.512l-3.085,8.63,3.085,4.915,1.485-8.317Z" transform="translate(-53.237 -30.137)" fill="#f4fff7"/>
    <path id="Path_147285" data-name="Path 147285" d="M335.234,411l-10.067-49.378-10.406,8.088,9.105,16.907-.678,5.294Z" transform="translate(-38.482 -29.819)" fill="#284758"/>
    <path id="Path_147286" data-name="Path 147286" d="M351.517,375.932l-2.467,2.005-3.753-1.428-2.029,3.859s8.255.444,10.133-1.434Z" transform="translate(-48.657 -34.928)" fill="#a4c1ad"/>
    <path id="Path_147287" data-name="Path 147287" d="M346.936,376.6l5.687-.407-.173,4.984-4.535.21Z" transform="translate(-49.967 -35.02)" fill="#6ca3c2"/>
    <path id="Path_147288" data-name="Path 147288" d="M348.458,384.15l4.535-.21,8.75,83.224-3.809,5.93-7.109-4.785Z" transform="translate(-50.51 -37.786)" fill="#517a92"/>
    <path id="Path_147289" data-name="Path 147289" d="M418.764,467.535l6.4-1.244.78,9.429-7.178,4.234Z" transform="translate(-75.606 -67.181)" fill="#d1fedf"/>
    <path id="Path_147290" data-name="Path 147290" d="M422.442,467.113l-3.679.715v12.419l5.371-3.168Z" transform="translate(-75.606 -67.475)" fill="#9dbfa7"/>
    <path id="Path_147291" data-name="Path 147291" d="M308.245,376.431s-9.608,6.975-8.441,26.779c.813,13.786,34.276,55.707,34.276,55.707l46.555-8.376-1.248-16L345.548,436.1Z" transform="translate(-33.108 -35.106)" fill="url(#linear-gradient-6)"/>
    <path id="Path_147292" data-name="Path 147292" d="M350.583,435.542c-12.84-20.682-24.08-38.746-37.6-59.111,12.709,21.621,23.937,39.439,37.012,60.227,15.938-.91,20.956-1.14,34.13-2.116C378.48,434.645,355.961,435.3,350.583,435.542Z" transform="translate(-37.848 -35.106)" fill="#70497a"/>
    <g id="Group_19192" data-name="Group 19192" transform="translate(358.77 407.915)">
      <path id="Path_147293" data-name="Path 147293" d="M443.666,497.378a.624.624,0,0,1-.051-1.246c25.7-2.169,29.373-15.541,29.407-15.676a.624.624,0,0,1,1.211.3c-.145.586-3.847,14.368-30.514,16.619Z" transform="translate(-443.043 -479.984)" fill="#58307d"/>
    </g>
    <g id="Group_19193" data-name="Group 19193" transform="translate(379.8 406.006)">
      <path id="Path_147294" data-name="Path 147294" d="M476.37,496.319a.625.625,0,0,1-.24-1.2c16.049-6.666,16.656-17.4,16.661-17.5a.642.642,0,0,1,.647-.6.624.624,0,0,1,.6.644c-.017.471-.592,11.617-17.429,18.611A.631.631,0,0,1,476.37,496.319Z" transform="translate(-475.746 -477.015)" fill="#58307d"/>
    </g>
    <g id="Group_19194" data-name="Group 19194" transform="translate(480.105 279.454)">
      <path id="Path_147295" data-name="Path 147295" d="M639.391,311.115a.624.624,0,0,1-.624-.624c0-17.879-6.875-29.21-6.944-29.322a.624.624,0,0,1,1.062-.657c.071.116,7.131,11.75,7.131,29.979A.624.624,0,0,1,639.391,311.115Z" transform="translate(-631.729 -280.216)" fill="#58307d"/>
    </g>
    <g id="Group_19195" data-name="Group 19195" transform="translate(265.08 278.081)">
      <path id="Path_147296" data-name="Path 147296" d="M301.551,315.55a.624.624,0,0,1-.541-.312c-8.823-15.258,1-35.932,1.422-36.8a.624.624,0,1,1,1.123.544c-.1.208-9.954,20.955-1.465,35.635a.625.625,0,0,1-.54.937Z" transform="translate(-297.345 -278.081)" fill="#58307d"/>
    </g>
  </g>
</svg>
