<svg xmlns="http://www.w3.org/2000/svg" xmlns:xlink="http://www.w3.org/1999/xlink" width="451.548" height="288.976" viewBox="0 0 451.548 288.976">
  <defs>
    <linearGradient id="linear-gradient" x1="0.298" y1="0.091" x2="0.904" y2="1.082" gradientUnits="objectBoundingBox">
      <stop offset="0" stop-color="#290051"/>
      <stop offset="1" stop-color="#330065"/>
    </linearGradient>
    <linearGradient id="linear-gradient-2" x1="0.714" y1="0.056" x2="0.423" y2="1.124" xlink:href="#linear-gradient"/>
    <linearGradient id="linear-gradient-3" x1="0" y1="0.5" x2="1" y2="0.5" xlink:href="#linear-gradient"/>
    <linearGradient id="linear-gradient-4" x1="0.701" y1="0.048" x2="0.093" y2="1.109" xlink:href="#linear-gradient"/>
    <linearGradient id="linear-gradient-5" x1="0.92" y1="0.879" x2="0.273" y2="0.225" gradientUnits="objectBoundingBox">
      <stop offset="0" stop-color="#7f898f"/>
      <stop offset="1" stop-color="#4a5466"/>
    </linearGradient>
  </defs>
  <g id="offshore-partner-img" transform="translate(-1663.138 -1175.896)">
    <ellipse id="Ellipse_276" data-name="Ellipse 276" cx="225.774" cy="11.033" rx="225.774" ry="11.033" transform="translate(1663.138 1442.805)" fill="#c7b299"/>
    <g id="Group_19204" data-name="Group 19204" transform="translate(1675.339 1193.791)">
      <g id="Group_19198" data-name="Group 19198" transform="translate(158.22 105.562)">
        <path id="Path_147299" data-name="Path 147299" d="M2038.2,1401.346l19.75,1.665-3.482,45.8h-5.125l1.114-41.2-12.256-3.036Z" transform="translate(-2038.204 -1401.346)" fill="#560036"/>
        <path id="Path_147300" data-name="Path 147300" d="M2064.689,1450.188l3.482-45.8h-5.488l-1.894,45.8Z" transform="translate(-2048.422 -1402.721)" fill="#3d1618"/>
      </g>
      <g id="Group_19199" data-name="Group 19199" transform="translate(95.015 105.562)">
        <path id="Path_147301" data-name="Path 147301" d="M1942.533,1401.346l-19.751,1.665,3.483,45.8h5.125l-1.114-41.2,12.257-3.036Z" transform="translate(-1922.782 -1401.346)" fill="#560036"/>
        <path id="Path_147302" data-name="Path 147302" d="M1926.265,1450.188l-3.483-45.8h5.488l1.894,45.8Z" transform="translate(-1922.782 -1402.721)" fill="#3d1618"/>
      </g>
      <rect id="Rectangle_11463" data-name="Rectangle 11463" width="4.124" height="146.534" transform="translate(192.21 116.113)" fill="#542360"/>
      <g id="Group_19200" data-name="Group 19200" transform="translate(13.199 116.023)">
        <rect id="Rectangle_11464" data-name="Rectangle 11464" width="63.956" height="142.785" transform="translate(0 0)" fill="#dd9da1"/>
        <rect id="Rectangle_11465" data-name="Rectangle 11465" width="12.357" height="142.785" transform="translate(76.313 142.785) rotate(180)" fill="#90585c"/>
        <path id="Path_147303" data-name="Path 147303" d="M1789.8,1467.921h51.973v-35.663l-1.4,34.042Z" transform="translate(-1780.808 -1425.791)" fill="#90585c"/>
        <path id="Path_147304" data-name="Path 147304" d="M1787.841,1550.347h51.973v-35.663l-1.4,34.042Z" transform="translate(-1779.92 -1463.081)" fill="#90585c"/>
        <path id="Path_147305" data-name="Path 147305" d="M1834.222,1446.585c0,1.753-1.916,3.176-4.28,3.176s-4.281-1.422-4.281-3.176,1.916-3.176,4.281-3.176S1834.222,1444.832,1834.222,1446.585Z" transform="translate(-1797.03 -1430.836)" fill="#90585c"/>
        <path id="Path_147306" data-name="Path 147306" d="M1835.88,1541.816c0,1.875-2.15,3.4-4.8,3.4s-4.8-1.52-4.8-3.4,2.15-3.4,4.8-3.4S1835.88,1539.941,1835.88,1541.816Z" transform="translate(-1797.306 -1473.819)" fill="#90585c"/>
        <path id="Path_147307" data-name="Path 147307" d="M1787.59,1632.114h51.973v-35.663l-1.4,34.042Z" transform="translate(-1779.806 -1500.072)" fill="#90585c"/>
        <path id="Path_147308" data-name="Path 147308" d="M1835.628,1623.583c0,1.875-2.151,3.4-4.8,3.4s-4.8-1.521-4.8-3.4,2.151-3.4,4.8-3.4S1835.628,1621.708,1835.628,1623.583Z" transform="translate(-1797.192 -1510.81)" fill="#90585c"/>
        <rect id="Rectangle_11466" data-name="Rectangle 11466" width="63.956" height="7.668" transform="translate(0 0)" fill="#a67679"/>
        <rect id="Rectangle_11467" data-name="Rectangle 11467" width="12.317" height="7.668" transform="translate(63.996 0)" fill="#3a1942"/>
      </g>
      <rect id="Rectangle_11468" data-name="Rectangle 11468" width="4.74" height="84.075" transform="matrix(1, 0.006, -0.006, 1, 131.959, 150.337)" fill="#542360"/>
      <path id="Path_147309" data-name="Path 147309" d="M1995.484,1313.618s12.395-24.087,6.636-29.349c-12.1-11.06-49.583-13.092-67.969,0-6.1,4.34,4.964,20.881,6.618,27.842a117.884,117.884,0,0,1,1.738,45.871l-3.081,19.332h57.569l-3.037-19.639A117.863,117.863,0,0,1,1995.484,1313.618Z" transform="translate(-1832.089 -1238.714)" fill="#56393b"/>
      <path id="Path_147310" data-name="Path 147310" d="M2003.622,1283.448c-12.859-9.742-48.489-11.761-67.969,0C1953.393,1268.988,1991.564,1271.1,2003.622,1283.448Z" transform="translate(-1833.59 -1237.892)" fill="#dd9da1"/>
      <path id="Path_147311" data-name="Path 147311" d="M1919.782,1476.1l4.709-9.137,9.256-5.293h57.569l8.691,6.184,2.46,8.245Z" transform="translate(-1826.41 -1323.077)" fill="#7a4548"/>
      <path id="Path_147312" data-name="Path 147312" d="M1924.491,1471.254c28.05,0,53.12-.557,75.516.891,2.146.139,2.46,8.245,2.46,8.245h-82.685S1921.921,1471.254,1924.491,1471.254Z" transform="translate(-1826.41 -1327.362)" fill="#642e31"/>
      <path id="Path_147313" data-name="Path 147313" d="M1924.589,1656.6l35.14-20.627-.115,20.821,2.508.014.114-20.571,36.2,20.772,3.859.021-39.466-22.647-.819.626-2.273-.013v.174l-1.068-.8-37.831,22.205Z" transform="translate(-1826.887 -1401.206)" fill="#542360"/>
      <path id="Path_147314" data-name="Path 147314" d="M1994.837,1631.5l-7.994-.044.028-5.07a4,4,0,0,1,4.019-3.976h0a4,4,0,0,1,3.976,4.02Z" transform="translate(-1856.748 -1395.794)" fill="#542360"/>
      <path id="Path_147315" data-name="Path 147315" d="M1978.692,1285.641s-9.957,1.024-13.347,1.952c-.541.148.29,19.639.412,23.3.381,11.433,10.09,34.986,3.489,53.984-2.392,6.884,31.769,5.131,29.866-.142-.894-2.477-4.311-9.206-4.525-18.062-.242-10.05,2.824-22.5,3.593-28.5,1.519-11.827.427-27.447-.342-30.907A172,172,0,0,0,1978.692,1285.641Z" transform="translate(-1846.941 -1243.439)" fill="#aeb3d2"/>
      <path id="Path_147316" data-name="Path 147316" d="M2022.879,1384.94c-2.13-4.521-3.7-8.019-4.606-13.17-2.228-12.327,2.618-25.568,4.324-41.469.439,18.511-7.714,31.268-.847,51.349C2022.126,1382.742,2022.537,1383.829,2022.879,1384.94Z" transform="translate(-1870.707 -1263.643)" fill="#616685"/>
      <path id="Path_147317" data-name="Path 147317" d="M2100.54,1269.222a10.614,10.614,0,0,1,4.007,0,43.852,43.852,0,0,1,6.2,2.464l-3.844.719a5.61,5.61,0,0,0-3.129-1.4C2101.528,1270.594,2099.579,1270.182,2100.54,1269.222Z" transform="translate(-1908.071 -1235.923)" fill="#fd5e5a"/>
      <path id="Path_147318" data-name="Path 147318" d="M2093.966,1274.1c-.769-.769-11.308-1.1-11.308.878s8.015-.549,8.015,1.428-2.086,6.7-4.282,6.7-4.282-2.2-4.282-3.293,1.482-3.019.659-3.843-4.172,4.062-2.745,7.465,5.16,5.82,3.952,9-17.49,16.879-19.9,16.879a2.928,2.928,0,0,1-1.852-.975,65.43,65.43,0,0,0-1.219,9.782,8.96,8.96,0,0,0,2.764.5c7.794,0,22.4-18.5,25.806-25.2S2094.735,1274.867,2093.966,1274.1Z" transform="translate(-1890.298 -1237.946)" fill="#fc7575"/>
      <path id="Path_147319" data-name="Path 147319" d="M2024.261,1288.617s-2.137,12.55,1.089,19.293c1.592,3.328,11.14,14.566,18.718,17.051a76.4,76.4,0,0,1,1.628-10.505C2040.243,1308.843,2024.261,1288.617,2024.261,1288.617Z" transform="translate(-1873.362 -1244.786)" fill="#d7d9e8"/>
      <path id="Path_147320" data-name="Path 147320" d="M2046.268,1314.456c-6.346-5.472-16.68-18.431-21.434-25.839C2033.365,1297.433,2045.462,1313.47,2046.268,1314.456Z" transform="translate(-1873.935 -1244.786)" fill="#dfe1ed"/>
      <path id="Path_147321" data-name="Path 147321" d="M1891.39,1254.6a10.938,10.938,0,0,0-4.057-.715,45.185,45.185,0,0,0-6.722,1.386l3.763,1.415a5.77,5.77,0,0,1,3.419-.863C1890.145,1255.814,1892.191,1255.745,1891.39,1254.6Z" transform="translate(-1808.69 -1229.07)" fill="#fd5e5a"/>
      <path id="Path_147322" data-name="Path 147322" d="M1901.967,1297.36c-1.6,1.9-16.391-16.873-17.046-20.312s3.556-5.218,5.609-8.408-.465-8.735-1.446-8.048.177,2.9-.019,4.007-2.7,2.962-4.923,2.57-3.491-5.544-3.138-7.544,8.015,1.987,8.368-.014-10.375-3.55-11.291-2.908-1.255,12.958,1,20.346,14.934,28.977,22.825,30.368a10.835,10.835,0,0,0,5.6-.849,112.276,112.276,0,0,0-4.46-10.332C1902.507,1296.774,1902.128,1297.168,1901.967,1297.36Z" transform="translate(-1807.227 -1230.281)" fill="#fc7575"/>
      <path id="Path_147323" data-name="Path 147323" d="M1946.853,1289.338s-17.841,16.926-22.608,21.727a112.3,112.3,0,0,1,4.46,10.332c7.71-2.959,16.946-12.031,18.224-15.163C1948.543,1302.28,1946.853,1289.338,1946.853,1289.338Z" transform="translate(-1828.429 -1245.112)" fill="#d7d9e8"/>
      <path id="Path_147324" data-name="Path 147324" d="M1960.5,1426.9s-15.4,12.989-15.4,19.046-1.945,15.551,5.5,15.551,35.866,4.747,40.614,0,8.94-11.514,8.94-17.858-10.688-16.739-10.688-16.739Z" transform="translate(-1837.758 -1307.342)" fill="#121841"/>
      <path id="Path_147325" data-name="Path 147325" d="M1995.108,1426.9h-28.967a112.273,112.273,0,0,0-8.8,8.417c6.095-2.171,14.536-3.525,26.063-2.516a106.131,106.131,0,0,1,19.389,3.319A63.772,63.772,0,0,0,1995.108,1426.9Z" transform="translate(-1843.402 -1307.342)" fill="#0f1d5b"/>
      <path id="Path_147326" data-name="Path 147326" d="M1981.271,1451.711a10.724,10.724,0,0,1,7.4,3.712c2.332,2.832,1.559,6.877.835,10.189-3.442,15.759-8.238,22.425-21.766,58.277q-3.066,8.128-6.119,16.273s-5.711,24.753-4.928,26.6,2.963,5.141-1.564,3.66-4.017-16.811-8.423-19.843.312-3.673,4.384-7.307,11.375-45.946,13.575-59.134C1966.479,1473.246,1970.262,1451.108,1981.271,1451.711Z" transform="translate(-1837.789 -1318.563)" fill="#fd5e5a"/>
      <path id="Path_147327" data-name="Path 147327" d="M1946.7,1627.132c-3.924-2.7-.61-3.5,3.038-6.215a37.286,37.286,0,0,1,2.093,6.863s3.027,12.368,4.857,15.534c1,1.736,2.963,5.142-1.565,3.66S1951.11,1630.163,1946.7,1627.132Z" transform="translate(-1837.789 -1395.117)" fill="#8b2d5f"/>
      <path id="Path_147328" data-name="Path 147328" d="M1965.806,1454.72s-9.295-2.3-13.125,7.109-5.13,93.618-5.322,98.256a40.625,40.625,0,0,1-2.067,9.96c-.152.377,2.158,5.64,3.8,5.541,2.252-.137,5.373-5.724,5.373-5.724s-1.676-7.8,1.206-21.026,13.915-68.553,14.3-77.826S1969.752,1454.883,1965.806,1454.72Z" transform="translate(-1837.948 -1319.818)" fill="#fc7575"/>
      <path id="Path_147329" data-name="Path 147329" d="M1954.366,1665.189s-.33,7.131-5.392,7.331c-3.563.14-4.23-5.407-3.779-7.148C1945.195,1665.372,1949.39,1671.734,1954.366,1665.189Z" transform="translate(-1837.85 -1415.145)" fill="#8b2d5f"/>
      <rect id="Rectangle_11469" data-name="Rectangle 11469" width="206.373" height="5.785" transform="translate(0 110.328)" fill="#ebc4c7"/>
      <path id="Path_147330" data-name="Path 147330" d="M1967.87,1468.838s8.533-1.057,8.533,0-2.9,5.571-6.017,4.458S1967.87,1468.838,1967.87,1468.838Z" transform="translate(-1848.144 -1326.104)" fill="#fd5e5a"/>
      <g id="Group_19203" data-name="Group 19203" transform="translate(116.202 0)">
        <path id="Path_147331" data-name="Path 147331" d="M1977.024,1209.712s-7.344-.344-11.856,5.622-6.242,22.219,2.759,26.006c0,0-.591-2.823,0-4.2,0,0,.405,3.639,1.821,5.066s13.529,4.438,19.207-3.068a8.031,8.031,0,0,0,.893-3.518,6.084,6.084,0,0,1,0,3.38s3.555-1.446,5.127-6.405S1995.375,1207.765,1977.024,1209.712Z" transform="translate(-1961.473 -1209.029)" fill="#452140"/>
        <g id="Group_19201" data-name="Group 19201" transform="translate(7.726 0.505)">
          <path id="Path_147332" data-name="Path 147332" d="M1985.3,1253.454c-.02,1.6-.849,21.1-.849,21.1.632,1.8,4.279,16.677,6.716,16.545s4.25-15.243,4.49-16.046c.5-1.676-.044-21.43-.044-21.43Z" transform="translate(-1979.592 -1229.383)" fill="#fc7575"/>
          <path id="Path_147333" data-name="Path 147333" d="M1996.047,1253.619l-10.312-.166c-.008.651-.151,4.281-.317,8.351a5.6,5.6,0,0,0,2.615,1.467c3.756.872,6.4-.118,8.187-1.872C1996.146,1257.177,1996.047,1253.619,1996.047,1253.619Z" transform="translate(-1980.032 -1229.383)" fill="#fd5e5a"/>
          <path id="Path_147334" data-name="Path 147334" d="M1981.971,1211.294s-4.533,1.767-4.592,6.467,1.237,5.439.6,9.047,2.252,14.719,9.581,14.719c4.083,0,7.913-7.355,7.957-10.9.051-4.1-.152-6.6.971-11.04S1992.964,1205.512,1981.971,1211.294Z" transform="translate(-1976.394 -1209.496)" fill="#fc7575"/>
          <path id="Path_147335" data-name="Path 147335" d="M1978.383,1239.279s-1.979-2.591-2.671-.9,1.533,7.025,2.671,5.879S1978.383,1239.279,1978.383,1239.279Z" transform="translate(-1975.582 -1222.304)" fill="#fc7575"/>
          <path id="Path_147336" data-name="Path 147336" d="M2009.146,1239.278s1.987-2.584,2.674-.888-1.557,7.019-2.69,5.87S2009.146,1239.278,2009.146,1239.278Z" transform="translate(-1990.533 -1222.307)" fill="#fc7575"/>
          <path id="Path_147337" data-name="Path 147337" d="M1996.164,1244.387c-.865-1.073-1.05-3.294-.881-4.7.29,1.326.672,3.709,1.348,4.552l.141.176a3.134,3.134,0,0,1-2.129.937A4.725,4.725,0,0,0,1996.164,1244.387Z" transform="translate(-1984.204 -1223.156)" fill="#452140"/>
          <path id="Path_147338" data-name="Path 147338" d="M1985.961,1232.5a3.532,3.532,0,0,0-1.771-.909c-1.193-.268-3.748,1.118-3.748,1.118a21.634,21.634,0,0,1,3.255-.641,5.143,5.143,0,0,1,1.819.729Z" transform="translate(-1977.781 -1219.474)" fill="#5c2c55"/>
          <path id="Path_147339" data-name="Path 147339" d="M2000.516,1232.722a3.237,3.237,0,0,1,1.508-.856c1.025-.29,3.267.711,3.267.711a19.03,19.03,0,0,0-2.829-.344,4.727,4.727,0,0,0-1.554.708Z" transform="translate(-1986.862 -1219.593)" fill="#5c2c55"/>
          <path id="Path_147340" data-name="Path 147340" d="M2000.171,1238.521a3.259,3.259,0,0,0,2.615.95c1.134-.142,1.83-1.017,2.537-1.109-1.029-.333-1.468.825-3.872.528A4.388,4.388,0,0,1,2000.171,1238.521Z" transform="translate(-1986.706 -1222.527)" fill="#2e162b"/>
          <path id="Path_147341" data-name="Path 147341" d="M1988.492,1238.512a3.261,3.261,0,0,1-2.593,1.009c-1.137-.116-1.853-.975-2.562-1.05,1.021-.357,1.487.791,3.884.438A4.363,4.363,0,0,0,1988.492,1238.512Z" transform="translate(-1979.09 -1222.573)" fill="#2e162b"/>
          <path id="Path_147342" data-name="Path 147342" d="M1989.983,1256.527a10.809,10.809,0,0,0,6.492-.3C1994.674,1257.579,1991.832,1257.412,1989.983,1256.527Z" transform="translate(-1982.097 -1230.636)" fill="#2e162b"/>
          <path id="Path_147343" data-name="Path 147343" d="M1987.2,1244.063c0,.663-1.33,1.2-2.971,1.2s-2.972-.537-2.972-1.2,1.331-1.2,2.972-1.2S1987.2,1243.4,1987.2,1244.063Z" transform="translate(-1978.147 -1224.591)" fill="#fd5e5a"/>
          <path id="Path_147344" data-name="Path 147344" d="M2004.963,1244.063c0,.663-1.073,1.2-2.4,1.2s-2.4-.537-2.4-1.2,1.073-1.2,2.4-1.2S2004.963,1243.4,2004.963,1244.063Z" transform="translate(-1986.706 -1224.591)" fill="#fd5e5a"/>
        </g>
        <path id="Path_147345" data-name="Path 147345" d="M1995.532,1218.026c.31-9.282-8.557-10.54-13.177-8.769-2.9.038-6.247,1.5-7.795,4a8.965,8.965,0,0,0-.74,7.768l5.38.161s.427-5.772,1.6-7v7h3.821a20.616,20.616,0,0,0,1.373-5.793s.594,4.083-.26,5.793l8.183-.031A5.754,5.754,0,0,0,1995.532,1218.026Z" transform="translate(-1966.804 -1208.575)" fill="#5b6499"/>
        <path id="Path_147346" data-name="Path 147346" d="M1995.532,1218.026c.31-9.282-8.557-10.54-13.177-8.769-2.9.038-6.247,1.5-7.795,4a8.965,8.965,0,0,0-.74,7.768l5.38.161s.427-5.772,1.6-7v7h3.821a20.616,20.616,0,0,0,1.373-5.793s.594,4.083-.26,5.793l8.183-.031A5.754,5.754,0,0,0,1995.532,1218.026Z" transform="translate(-1966.804 -1208.575)" fill="#363a68"/>
        <g id="Group_19202" data-name="Group 19202" transform="translate(7.707 0.823)">
          <path id="Path_147347" data-name="Path 147347" d="M1981.885,1210.078a10.645,10.645,0,0,0-3.657,1.348,11.937,11.937,0,0,0-2.335,10.307l.838.025c-.032-.242-.059-.485-.075-.727C1976.655,1210.892,1981.885,1210.078,1981.885,1210.078Z" transform="translate(-1975.547 -1210.078)" fill="#455bb5"/>
          <path id="Path_147348" data-name="Path 147348" d="M1991.606,1213.147c.958,2.985,1.53,7.027.526,10.105h.622C1993.536,1220.033,1992.741,1216.087,1991.606,1213.147Z" transform="translate(-1982.812 -1211.466)" fill="#455bb5"/>
          <path id="Path_147349" data-name="Path 147349" d="M1994.977,1211.565c5.548.439,7.618,5.75,7.76,10.946l.406,0a24.89,24.89,0,0,0-.466-3.39C2002,1215.148,1999.08,1211.766,1994.977,1211.565Z" transform="translate(-1984.337 -1210.751)" fill="#455bb5"/>
        </g>
        <path id="Path_147350" data-name="Path 147350" d="M1978.193,1241.029s-.28-2.436-1-1.707.477,4.808,1,4.278A9.247,9.247,0,0,0,1978.193,1241.029Z" transform="translate(-1968.482 -1222.423)" fill="#fd5e5a"/>
        <path id="Path_147351" data-name="Path 147351" d="M2010.91,1239.891s-.649,4.166-.41,4.166S2012.859,1238.686,2010.91,1239.891Z" transform="translate(-1983.629 -1222.662)" fill="#fd5e5a"/>
      </g>
    </g>
    <g id="Group_19209" data-name="Group 19209" transform="translate(1879.698 1179.091)">
      <g id="Group_19205" data-name="Group 19205" transform="translate(158.22 120.263)">
        <path id="Path_147352" data-name="Path 147352" d="M2411.391,1401.346l19.75,1.665-3.483,45.8h-5.125l1.114-41.2-12.257-3.036Z" transform="translate(-2411.391 -1401.346)" fill="#560036"/>
        <path id="Path_147353" data-name="Path 147353" d="M2437.876,1450.188l3.483-45.8h-5.488l-1.894,45.8Z" transform="translate(-2421.608 -1402.721)" fill="#3d1618"/>
      </g>
      <g id="Group_19206" data-name="Group 19206" transform="translate(95.015 120.263)">
        <path id="Path_147354" data-name="Path 147354" d="M2315.719,1401.346l-19.75,1.665,3.483,45.8h5.125l-1.114-41.2,12.256-3.036Z" transform="translate(-2295.969 -1401.346)" fill="#560036"/>
        <path id="Path_147355" data-name="Path 147355" d="M2299.452,1450.188l-3.483-45.8h5.488l1.894,45.8Z" transform="translate(-2295.969 -1402.721)" fill="#3d1618"/>
      </g>
      <path id="Path_147356" data-name="Path 147356" d="M2368.671,1313.618s12.395-24.087,6.636-29.349c-12.1-11.06-49.582-13.092-67.968,0-6.1,4.34,4.963,20.881,6.618,27.842a117.879,117.879,0,0,1,1.737,45.871l-3.08,19.332h57.569l-3.037-19.639A117.858,117.858,0,0,1,2368.671,1313.618Z" transform="translate(-2205.276 -1224.014)" fill="#56393b"/>
      <path id="Path_147357" data-name="Path 147357" d="M2376.808,1283.448c-12.858-9.742-48.488-11.761-67.968,0C2326.579,1268.988,2364.751,1271.1,2376.808,1283.448Z" transform="translate(-2206.777 -1223.192)" fill="#dd9da1"/>
      <g id="Group_19207" data-name="Group 19207" transform="translate(120.607 0)">
        <path id="Path_147358" data-name="Path 147358" d="M2368.291,1230.1c.416-.265,5.592-13.141,5.592-13.141s3.453-9.668,1.223-11.3-7.532-7.312-12.177-7.415a17.638,17.638,0,0,0-8.178,1.553c-.417.264-3.428,5.347-3.428,5.347s1.4-1.712,2.124,4.639S2368.291,1230.1,2368.291,1230.1Z" transform="translate(-2346.603 -1189.198)" fill="#381a3f"/>
        <path id="Path_147359" data-name="Path 147359" d="M2360.905,1247.161c.552,1.646.314,13.387.75,16.343.431,2.919,13.754,7.443,14.015-3.174s-.787-23.1-.787-23.1Z" transform="translate(-2350.938 -1206.837)" fill="#fc7575"/>
        <path id="Path_147360" data-name="Path 147360" d="M2360.905,1247.161h0l4.639-3.3,9.339-6.636v.034c0,.045.01.127.02.246.031.387.09,1.158.164,2.224v0q.022.324.045.683c0,.016,0,.031,0,.047.052.771.107,1.658.164,2.635,0,.055.006.11.01.164q.019.348.039.709v.008c.007.125.014.251.021.379v.041l.008.144c0,.019,0,.037,0,.055,0,.084.008.167.012.252-1.735,5.69-8.294,11.87-13.967,12.6-.012-.393-.033-.79-.061-1.187C2361.277,1252.284,2361.219,1248.1,2360.905,1247.161Z" transform="translate(-2350.938 -1206.837)" fill="#fd5e5a"/>
        <path id="Path_147361" data-name="Path 147361" d="M2370.978,1214.87a20.473,20.473,0,0,1-2.27,17.88c-4.069,5.871-9.684,8.9-13.707,5.938s-5.173-21.542-2.267-26.324S2368.378,1208.4,2370.978,1214.87Z" transform="translate(-2346.509 -1194.205)" fill="#fc7575"/>
        <path id="Path_147362" data-name="Path 147362" d="M2367.168,1220.229s.9-6.077,3.237-7.557,3.384-2.384,3.8-4.53,8.2-3.581,6.931-7.111-7.362-5.179-10.458-11.315-6.44-9.532-13.658-7.3-8.224,6.639-8.224,6.639-3.185-.553-5.132,3.259-.549,5.978.7,7.765c0,0-.27-5.031,1.457-4.682s-.013,5.883-.013,5.883a45.61,45.61,0,0,0,5.354-5.4c2.761-3.28,2.081.557,1.265,4.715s5.31.24,8.033-2.766,6.618-.2,8.041,4.066S2363.8,1212.857,2367.168,1220.229Z" transform="translate(-2342.704 -1181.73)" fill="#653870"/>
        <path id="Path_147363" data-name="Path 147363" d="M2384.6,1229.214s2.545-4.347,3.869-2.457.233,7.533-2.575,7.589S2384.6,1229.214,2384.6,1229.214Z" transform="translate(-2361.474 -1201.885)" fill="#fc7575"/>
        <path id="Path_147364" data-name="Path 147364" d="M2387.1,1230.684s-.1-2.518,1.271-1.683-.011,4.879-1.271,4.8S2387.1,1230.684,2387.1,1230.684Z" transform="translate(-2362.535 -1203.038)" fill="#fd5e5a"/>
        <path id="Path_147365" data-name="Path 147365" d="M2360.223,1230.088a15.743,15.743,0,0,0-1.021,3.587,9.4,9.4,0,0,0,.039,3.975c.311-.057,1.135-.18,2.226-.465-.7-.02-1.4,0-2.095.037l.234.172A48.235,48.235,0,0,1,2360.223,1230.088Z" transform="translate(-2350.089 -1203.607)" fill="#172866"/>
        <path id="Path_147366" data-name="Path 147366" d="M2371.706,1225.7a5.419,5.419,0,0,0-3.122-2.45c-1.951-.395-1.362,1.247-.906,1.339S2371.782,1225.312,2371.706,1225.7Z" transform="translate(-2353.797 -1200.484)" fill="#172866"/>
        <path id="Path_147367" data-name="Path 147367" d="M2351.75,1226.122a5.42,5.42,0,0,1,3.122-2.451c1.951-.395,1.362,1.246.906,1.338S2351.674,1225.736,2351.75,1226.122Z" transform="translate(-2346.796 -1200.676)" fill="#172866"/>
        <path id="Path_147368" data-name="Path 147368" d="M2365.294,1230.639c1.394,1.471,2.664,1,4.408.291C2368.107,1232.679,2365.842,1232.287,2365.294,1230.639Z" transform="translate(-2352.924 -1203.856)" fill="#172866"/>
        <path id="Path_147369" data-name="Path 147369" d="M2352.472,1230.187c1.15,1.241,2.017.873,3.458.244C2354.685,1231.894,2352.875,1231.533,2352.472,1230.187Z" transform="translate(-2347.123 -1203.652)" fill="#172866"/>
        <path id="Path_147370" data-name="Path 147370" d="M2365.173,1250.247l.013,0a.266.266,0,0,1,.208.489c-.117.011-1.4.624-6.759.424a.166.166,0,0,1,.007-.332C2359.382,1250.793,2363.682,1250.882,2365.173,1250.247Z" transform="translate(-2349.839 -1212.714)" fill="#172866"/>
      </g>
      <rect id="Rectangle_11470" data-name="Rectangle 11470" width="4.124" height="146.534" transform="translate(192.211 130.814)" fill="#542360"/>
      <g id="Group_19208" data-name="Group 19208" transform="translate(13.199 130.724)">
        <rect id="Rectangle_11471" data-name="Rectangle 11471" width="63.956" height="142.785" transform="translate(0 0)" fill="#dd9da1"/>
        <rect id="Rectangle_11472" data-name="Rectangle 11472" width="12.357" height="142.785" transform="translate(76.314 142.785) rotate(180)" fill="#90585c"/>
        <path id="Path_147371" data-name="Path 147371" d="M2162.99,1467.921h51.973v-35.663l-1.395,34.042Z" transform="translate(-2153.994 -1425.791)" fill="#90585c"/>
        <path id="Path_147372" data-name="Path 147372" d="M2161.027,1550.347H2213v-35.663l-1.395,34.042Z" transform="translate(-2153.106 -1463.081)" fill="#90585c"/>
        <path id="Path_147373" data-name="Path 147373" d="M2207.409,1446.585c0,1.753-1.916,3.176-4.28,3.176s-4.28-1.422-4.28-3.176,1.917-3.176,4.28-3.176S2207.409,1444.832,2207.409,1446.585Z" transform="translate(-2170.216 -1430.836)" fill="#90585c"/>
        <path id="Path_147374" data-name="Path 147374" d="M2209.066,1541.816c0,1.875-2.151,3.4-4.8,3.4s-4.8-1.52-4.8-3.4,2.151-3.4,4.8-3.4S2209.066,1539.941,2209.066,1541.816Z" transform="translate(-2170.492 -1473.819)" fill="#90585c"/>
        <path id="Path_147375" data-name="Path 147375" d="M2160.776,1632.114h51.973v-35.663l-1.4,34.042Z" transform="translate(-2152.992 -1500.072)" fill="#90585c"/>
        <path id="Path_147376" data-name="Path 147376" d="M2208.815,1623.583c0,1.875-2.151,3.4-4.8,3.4s-4.8-1.521-4.8-3.4,2.151-3.4,4.8-3.4S2208.815,1621.708,2208.815,1623.583Z" transform="translate(-2170.378 -1510.81)" fill="#90585c"/>
        <rect id="Rectangle_11473" data-name="Rectangle 11473" width="63.956" height="7.668" transform="translate(0 0)" fill="#a67679"/>
        <rect id="Rectangle_11474" data-name="Rectangle 11474" width="12.317" height="7.668" transform="translate(63.997 0)" fill="#3a1942"/>
      </g>
      <rect id="Rectangle_11475" data-name="Rectangle 11475" width="4.741" height="82.563" transform="translate(131.959 165.038) rotate(0.316)" fill="#542360"/>
      <path id="Path_147377" data-name="Path 147377" d="M2292.97,1476.1l4.708-9.137,9.257-5.293H2364.5l8.691,6.184,2.46,8.245Z" transform="translate(-2199.597 -1308.376)" fill="#7a4548"/>
      <path id="Path_147378" data-name="Path 147378" d="M2297.678,1471.254c28.05,0,53.12-.557,75.516.891,2.147.139,2.46,8.245,2.46,8.245H2292.97S2295.108,1471.254,2297.678,1471.254Z" transform="translate(-2199.597 -1312.662)" fill="#642e31"/>
      <path id="Path_147379" data-name="Path 147379" d="M2297.794,1653.482l35.138-20.252-.113,20.446,2.508.014.112-20.2,36.2,20.4,3.859.021-39.469-22.244-.819.615-2.273-.013v.171l-1.068-.783-37.829,21.8Z" transform="translate(-2200.082 -1385.276)" fill="#542360"/>
      <path id="Path_147380" data-name="Path 147380" d="M2368.04,1628.836l-7.995-.045.027-4.906a4,4,0,0,1,4.02-3.976h0a4,4,0,0,1,3.975,4.02Z" transform="translate(-2229.942 -1379.961)" fill="#542360"/>
      <path id="Path_147381" data-name="Path 147381" d="M2321.638,1283.364c-.541.148,10.19,59.547,13.226,80.3,1.055,7.211,31.769,5.13,29.867-.142-.894-2.477,5.278-38.068,6.048-44.062,1.519-11.826,3.817-32.633,3.049-36.094C2373.827,1283.364,2325.027,1282.435,2321.638,1283.364Z" transform="translate(-2212.558 -1227.522)" fill="#d7d9e8"/>
      <path id="Path_147382" data-name="Path 147382" d="M2473.727,1269.222a10.614,10.614,0,0,1,4.007,0,43.9,43.9,0,0,1,6.2,2.464l-3.845.719a5.606,5.606,0,0,0-3.128-1.4C2474.714,1270.594,2472.766,1270.182,2473.727,1269.222Z" transform="translate(-2281.257 -1221.222)" fill="#fd5e5a"/>
      <path id="Path_147383" data-name="Path 147383" d="M2482.576,1274.1c-.768-.769-11.309-1.1-11.309.878s8.015-.549,8.015,1.428-2.085,6.7-4.281,6.7-4.282-2.2-4.282-3.293,1.481-3.019.658-3.843-4.173,4.062-2.745,7.465,5.16,5.82,3.952,9a10.257,10.257,0,0,1-1.888,2.531c1.976,1.515,4.039,2.935,5.9,4.5a33.978,33.978,0,0,0,3.4-5.039C2483.4,1287.724,2483.345,1274.867,2482.576,1274.1Z" transform="translate(-2278.908 -1223.245)" fill="#fc7575"/>
      <path id="Path_147384" data-name="Path 147384" d="M2264.577,1254.6a10.939,10.939,0,0,0-4.057-.715,45.167,45.167,0,0,0-6.721,1.386l3.763,1.415a5.766,5.766,0,0,1,3.418-.863C2263.332,1255.814,2265.378,1255.745,2264.577,1254.6Z" transform="translate(-2181.877 -1214.37)" fill="#fd5e5a"/>
      <path id="Path_147385" data-name="Path 147385" d="M2260.885,1277.048c-.654-3.439.779-5.218,2.832-8.408s-.465-8.735-1.446-8.048.177,2.9-.019,4.008-2.7,2.961-4.923,2.569-3.492-5.544-3.139-7.544,8.015,1.987,8.368-.014-10.376-3.55-11.291-2.909-1.254,12.958,1,20.346a42.186,42.186,0,0,0,2.552,6,33.636,33.636,0,0,1,7.052-3.556A11.606,11.606,0,0,1,2260.885,1277.048Z" transform="translate(-2180.414 -1215.581)" fill="#fc7575"/>
      <path id="Path_147386" data-name="Path 147386" d="M2329.22,1426.9s-21.036,10.648-21.036,16.7,3.687,17.893,11.135,17.893c3.294,0,12.52-10.989,20.156-10.365,9.63.789,17.811,13.012,20.458,10.365,4.748-4.748,10.928-11.514,10.928-17.858s-12.675-16.739-12.675-16.739Z" transform="translate(-2206.48 -1292.642)" fill="#121841"/>
      <path id="Path_147387" data-name="Path 147387" d="M2333.137,1277.962s3.471,78.39,0,81.861-22.03,11.333-22.03,11.333-3.328,1.645-3.5-2.594,13.378-11.624,13.378-18.269-1.315-33.056-1.315-33.056l-4.37-36.131Z" transform="translate(-2206.217 -1225.265)" fill="#121841"/>
      <path id="Path_147388" data-name="Path 147388" d="M2403.882,1280.225s-6.332,70.793-6.332,74.971,9.444,12.661,9.444,12.661-10.993,3.624-14.617,0-4.323-91.845-4.323-91.845Z" transform="translate(-2242.613 -1224.383)" fill="#121841"/>
      <path id="Path_147389" data-name="Path 147389" d="M2367.732,1282.726l5.583-.164-.2,6.67-4.226,0Z" transform="translate(-2233.42 -1227.346)" fill="#f7931e"/>
      <path id="Path_147390" data-name="Path 147390" d="M2358.6,1277.316l4.934,3.146-1.19,2.926-7.73-.75.6-2.643Z" transform="translate(-2227.483 -1224.973)" fill="#dfe4e0"/>
      <path id="Path_147391" data-name="Path 147391" d="M2382.291,1276.013l-6.976,3.592,1.293,3.194,5.749-.474Z" transform="translate(-2236.85 -1224.383)" fill="#dfe4e0"/>
      <path id="Path_147392" data-name="Path 147392" d="M2367.732,1349.062l1.157-54.318,4.226,0,3.193,54.32-4.288,7.487Z" transform="translate(-2233.42 -1232.856)" fill="#f7931e"/>
      <rect id="Rectangle_11476" data-name="Rectangle 11476" width="228.986" height="5.785" transform="translate(0 125.028)" fill="#ebc4c7"/>
      <path id="Path_147393" data-name="Path 147393" d="M2444,1295.515l10.471,5.161s-22.946,33.864-28.4,33.864-17.73-28.5-17.73-28.5l4.72-22.336s12.258,27.419,14.788,27.419S2444,1295.515,2444,1295.515Z" transform="translate(-2251.79 -1227.863)" fill="#121841"/>
      <path id="Path_147394" data-name="Path 147394" d="M2290.957,1283.7s-8.946,29.2-13.264,29.2-14.392-24.783-14.392-24.783l-9.5,6.2s11,42.671,24.139,44.033,20.944-27.323,20.944-27.323Z" transform="translate(-2181.877 -1227.863)" fill="#121841"/>
      <path id="Path_147395" data-name="Path 147395" d="M2351.475,1276.6l-2.634,65.113-9.078-43.189,3.588-2.126-4.385-6.112,3.366-12.491Z" transform="translate(-2220.405 -1224.651)" fill="#284758"/>
      <path id="Path_147396" data-name="Path 147396" d="M2388.054,1276.013l1.734,69.3,6.333-47.185-2.125-2.392,3.529-7.574-2.237-10.224Z" transform="translate(-2242.613 -1224.383)" fill="#284758"/>
    </g>
    <path id="Path_147397" data-name="Path 147397" d="M2313.779,1445.787c-5.086,0-10.017,9.051-8.448,18.51s14.49,91.956,14.49,91.956l12.155-2.45S2327.683,1445.787,2313.779,1445.787Z" transform="translate(-325.357 -122.097)" fill="url(#linear-gradient)"/>
    <path id="Path_147398" data-name="Path 147398" d="M2366.605,1636.99l-3.455,12.863,3.176,5.646,9.493-.63s-2.923-5.034-2.923-7.249-.621-11.96-.621-11.96Z" transform="translate(-351.649 -207.995)" fill="url(#linear-gradient-2)"/>
    <path id="Path_147399" data-name="Path 147399" d="M2335.313,1639.743s-.266,7.973.709,8.948,1.771,5.239,1.771,5.239-12.49,1.139-14.794,1.139h-7.087s5.847-4.163,9.568-5.67l3.721-1.506-1.152-10.453Z" transform="translate(-330.278 -208.8)" fill="url(#linear-gradient-3)"/>
    <path id="Path_147400" data-name="Path 147400" d="M2381.041,1454.963s10.766-7.37,15.351-1.717c3.313,4.085-22.326,101.06-22.326,101.06h-8.74S2371.679,1462.927,2381.041,1454.963Z" transform="translate(-352.633 -124.507)" fill="url(#linear-gradient-4)"/>
    <path id="Path_147401" data-name="Path 147401" d="M2368.062,1666.427c1.271-2.905,5.736-3.276,8.261,0C2374.355,1665.775,2371.686,1663.917,2368.062,1666.427Z" transform="translate(-353.871 -220.865)" fill="#765893"/>
    <g id="Group_19210" data-name="Group 19210" transform="translate(1691.552 1227.991)">
      <path id="Rectangle_11477" data-name="Rectangle 11477" d="M0,0H23.284a0,0,0,0,1,0,0V0a3.1,3.1,0,0,1-3.1,3.1H3.1A3.1,3.1,0,0,1,0,0V0A0,0,0,0,1,0,0Z" transform="translate(45.699 76.389) rotate(180)" fill="#12113f"/>
      <path id="Path_147402" data-name="Path 147402" d="M1841.478,1271.029v58.019l-60.691-3.5-1.909-52.249Z" transform="translate(-1778.878 -1271.029)" fill="url(#linear-gradient-5)"/>
      <path id="Path_147403" data-name="Path 147403" d="M1895.463,1271.757l-2.27-.727v58.019l1.659-.415Z" transform="translate(-1830.594 -1271.029)" fill="#000f2e"/>
      <path id="Path_147404" data-name="Path 147404" d="M1816.558,1345.129c0-3.4,3.3-6.158,7.38-6.158s7.38,2.757,7.38,6.158-3.3,6.159-7.38,6.159c-.154,0-.307-.006-.459-.014-1.747,5.511-3.777,15.154-2.554,19.593a11.53,11.53,0,0,0,4.557,6.54l-.332.544a12.6,12.6,0,0,1-5.72-6.693c-1.749-4.611-.87-14.661.476-20.972A5.98,5.98,0,0,1,1816.558,1345.129Z" transform="translate(-1795.924 -1301.766)" fill="#12113f"/>
    </g>
    <g id="Group_19211" data-name="Group 19211" transform="translate(1879.698 1227.991)">
      <path id="Rectangle_11478" data-name="Rectangle 11478" d="M0,0H23.284a0,0,0,0,1,0,0V0a3.1,3.1,0,0,1-3.1,3.1H3.1A3.1,3.1,0,0,1,0,0V0A0,0,0,0,1,0,0Z" transform="translate(45.699 76.389) rotate(180)" fill="#12113f"/>
      <path id="Path_147405" data-name="Path 147405" d="M2185.059,1271.029v58.019l-60.691-3.5-1.908-52.249Z" transform="translate(-2122.459 -1271.029)" fill="url(#linear-gradient-5)"/>
      <path id="Path_147406" data-name="Path 147406" d="M2239.043,1271.757l-2.269-.727v58.019l1.659-.415Z" transform="translate(-2174.175 -1271.029)" fill="#000f2e"/>
      <path id="Path_147407" data-name="Path 147407" d="M2160.139,1345.129c0-3.4,3.3-6.158,7.38-6.158s7.379,2.757,7.379,6.158-3.3,6.159-7.379,6.159c-.154,0-.307-.006-.459-.014-1.747,5.511-3.777,15.154-2.554,19.593a11.533,11.533,0,0,0,4.558,6.54l-.333.544a12.6,12.6,0,0,1-5.72-6.693c-1.749-4.611-.87-14.661.477-20.972A5.979,5.979,0,0,1,2160.139,1345.129Z" transform="translate(-2139.505 -1301.766)" fill="#12113f"/>
    </g>
    <rect id="Rectangle_11479" data-name="Rectangle 11479" width="433.344" height="1.502" transform="translate(1675.339 1304.119)" fill="#f4dee0"/>
    <g id="Group_19212" data-name="Group 19212" transform="translate(1778.379 1191.487)">
      <path id="Path_147408" data-name="Path 147408" d="M1941.9,1227.179a.534.534,0,0,1-.422-.206c-3.264-4.232-4.562-8.429-3.861-12.476,1.093-6.3,6.6-9.9,6.839-10.046a.532.532,0,0,1,.574.895c-.054.035-5.359,3.509-6.366,9.342-.646,3.738.585,7.652,3.657,11.635a.531.531,0,0,1-.42.856Z" transform="translate(-1937.437 -1204.368)" fill="#58307d"/>
    </g>
    <g id="Group_19213" data-name="Group 19213" transform="translate(2045.608 1175.896)">
      <path id="Path_147409" data-name="Path 147409" d="M2425.965,1206.4a.526.526,0,0,1-.313-.1.531.531,0,0,1-.115-.742c9.263-12.661,1.681-28.74,1.6-28.9a.532.532,0,0,1,.957-.463c.081.167,7.942,16.809-1.7,29.991A.529.529,0,0,1,2425.965,1206.4Z" transform="translate(-2425.434 -1175.896)" fill="#58307d"/>
    </g>
  </g>
</svg>
