<svg xmlns="http://www.w3.org/2000/svg" xmlns:xlink="http://www.w3.org/1999/xlink" width="326.119" height="337.333" viewBox="0 0 326.119 337.333">
  <defs>
    <linearGradient id="linear-gradient" x1="-1.144" y1="1.045" x2="-0.605" y2="-0.033" gradientUnits="objectBoundingBox">
      <stop offset="0" stop-color="#f59bf3"/>
      <stop offset="1" stop-color="#ffaf90"/>
    </linearGradient>
    <linearGradient id="linear-gradient-2" x1="0.235" y1="-0.491" x2="1.064" y2="2.086" gradientUnits="objectBoundingBox">
      <stop offset="0" stop-color="#535a7d"/>
      <stop offset="1" stop-color="#8791c1"/>
    </linearGradient>
    <linearGradient id="linear-gradient-3" x1="14.383" y1="0.01" x2="13.536" y2="1.167" gradientUnits="objectBoundingBox">
      <stop offset="0" stop-color="#29002c"/>
      <stop offset="1" stop-color="#330065"/>
    </linearGradient>
    <linearGradient id="linear-gradient-4" x1="23.015" y1="0.5" x2="24.015" y2="0.5" gradientUnits="objectBoundingBox">
      <stop offset="0" stop-color="#290051"/>
      <stop offset="1" stop-color="#330065"/>
    </linearGradient>
    <linearGradient id="linear-gradient-5" x1="7.568" y1="0.017" x2="7.054" y2="0.85" xlink:href="#linear-gradient-4"/>
    <linearGradient id="linear-gradient-6" x1="9.853" y1="0.5" x2="10.853" y2="0.5" xlink:href="#linear-gradient-4"/>
    <linearGradient id="linear-gradient-7" x1="1.234" y1="0.732" x2="0.539" y2="0.509" xlink:href="#linear-gradient-4"/>
  </defs>
  <g id="partner-with-us-img" transform="translate(-180.597 -1089.733)">
    <path id="Path_147415" data-name="Path 147415" d="M2088.115,540.959c39.74-32.45-29.079-84.816-13.842-136.61s65.521,1.455,92.578,26.973,58.763-20.135,79.783-21.361,9.19,18.728,18.67,44.573,79.361,4.382,107.375,29.345-16.616,78.09-20.374,109.768,44.5,67.524,13.58,114.541l-153.583-.93c-15.454-4.865-25.537-8.72-25.537-8.72C2042.985,634.943,2048.375,573.408,2088.115,540.959Z" transform="translate(-1883.311 707.228)" fill="url(#linear-gradient)"/>
    <path id="Path_147509" data-name="Path 147509" d="M506.716,1668.432c0,4.353-91.02,10.766-157.331,3.453-67.117-7.4-104.478-1.256-104.478-5.609s61.653-7.836,129.177-7.836S506.716,1664.079,506.716,1668.432Z" transform="translate(0 -248.142)" fill="#c7b299"/>
    <g id="Group_19234" data-name="Group 19234" transform="translate(302.96 1151.714)">
      <path id="Path_147510" data-name="Path 147510" d="M447.3,1478.927h2.691l-1.792-23.292Z" transform="translate(-391.545 -1311.093)" fill="#2c1919"/>
      <path id="Path_147511" data-name="Path 147511" d="M384.346,1406.8a68.383,68.383,0,0,1-2.138-8.371c-2.8.015-5.828.171-8.217,1.567.293.892,2.754,8.354,2.754,9.216,0,18.117,2.34,12.768,5.532,14.11a3.736,3.736,0,0,0,3.4-.519c.547-.575,3.888-.115,3.888-.461s1.369-2.764,0-4.78,3.779,2.073,3.779.518C393.339,1416.373,385.528,1409.861,384.346,1406.8Z" transform="translate(-359.458 -1286.056)" fill="#fd5e5a"/>
      <g id="Group_19233" data-name="Group 19233" transform="translate(14.385 130.32)">
        <path id="Path_147512" data-name="Path 147512" d="M395.487,1440.633v-6.374a.225.225,0,0,0-.219-.231H377.452a.226.226,0,0,0-.219.231v6.374h-3.5v-6.374a3.828,3.828,0,0,1,3.724-3.916h17.817a3.828,3.828,0,0,1,3.724,3.916v6.374Z" transform="translate(-373.728 -1430.343)" fill="#040037"/>
      </g>
      <path id="Rectangle_11480" data-name="Rectangle 11480" d="M0,0H56.773a0,0,0,0,1,0,0V30.186A13.583,13.583,0,0,1,43.19,43.768H11.752A11.752,11.752,0,0,1,0,32.016V0A0,0,0,0,1,0,0Z" transform="translate(56.773 182.919) rotate(180)" fill="#571c1c"/>
      <path id="Path_147513" data-name="Path 147513" d="M438.347,1447.03a7.641,7.641,0,0,0-4.78,7.085v36.131h8.738v-37.16A6.61,6.61,0,0,0,438.347,1447.03Z" transform="translate(-385.533 -1307.326)" fill="#794949"/>
      <path id="Path_147514" data-name="Path 147514" d="M354.02,1198.588l6.78,6.688,8.08,80.651s5.966,17.769,8.127,27.96c-2.795.015-10.211,2.062-12.6,3.457-3.3-10.064-7.558-29.516-7.558-29.516Z" transform="translate(-350.717 -1198.588)" fill="#717794"/>
      <path id="Path_147515" data-name="Path 147515" d="M405.925,1434.868s-1.213-2.714-2.5-2.6-.364,2.6-.364,2.6S404.756,1436.037,405.925,1434.868Z" transform="translate(-372.043 -1300.862)" fill="#fd5e5a"/>
      <path id="Path_147516" data-name="Path 147516" d="M383.436,1431.353s-2.427,4.471-1.709,5.189,3.008.457,3.008.457,2.862.942,3.757.046c0,0,4.395-.141,4.395-.8s-2.109-5.97-3.085-5.97-1.385,3.579-1.385,3.579-.428-2.831-1.176-3.579-2.236,3.579-2.236,3.579S385.347,1430.531,383.436,1431.353Z" transform="translate(-362.786 -1299.955)" fill="#fd5e5a"/>
    </g>
    <g id="Group_19235" data-name="Group 19235" transform="translate(344.172 1226.003)">
      <path id="Path_147517" data-name="Path 147517" d="M469.426,1343.984l-18.786,10.172.949-4.394,3.994-11.949h9.124Z" transform="translate(-434.218 -1333.813)" fill="#fd5e5a"/>
      <path id="Path_147518" data-name="Path 147518" d="M421.436,1345.412c3.566-.948,18.54,1.069,18.54,1.069s10-6.035,9.821-7.728-.809-1.328-1.715-2.868a13.966,13.966,0,0,0-3.313-3.221s-1.719-2.2-4.146-1.944-8.869,5.47-11.517,5.749c-.544.057-2.9.29-6.319.643Z" transform="translate(-421.436 -1330.699)" fill="#fc7575"/>
      <path id="Path_147519" data-name="Path 147519" d="M446.209,1360.943s-6.414-6.491-5.624-7.466,7.564,2.876,7.564,2.876Z" transform="translate(-429.787 -1340.599)" fill="#fd5e5a"/>
      <path id="Path_147520" data-name="Path 147520" d="M434.965,1336.42s6.586,4.166,7.464,3.082-2.573-3.6-2.573-3.6,3.74,2.321,4.477,1.909-2.4-3.392-2.4-3.392,3.585,2.619,4.65,2.143-1.918-4.633-1.918-4.633S435,1332.847,434.965,1336.42Z" transform="translate(-427.357 -1331.239)" fill="#fd5e5a"/>
    </g>
    <path id="Path_147521" data-name="Path 147521" d="M520.874,1200.323s-8.529,12.538-9.719,27.514c-.5,6.237-3.868,17.155-9.521,29.1-2.917,6.164-30.254,16.926-30.254,16.926l6.495,14.517,32.18-15.038,13.979-23.216Z" transform="translate(-99.123 -47.633)" fill="#341102"/>
    <path id="Path_147522" data-name="Path 147522" d="M640.513,1668.188l-22.182.845,13.739-7.373-.494-6.084c2.3,0,4.7,2.538,7.016,2.538C639.248,1661.925,640.513,1668.188,640.513,1668.188Z" transform="translate(-163.441 -246.888)" fill="#432c47"/>
    <path id="Path_147523" data-name="Path 147523" d="M587.2,1667.283l-24.767,1.75,16.7-7.957,1.3-5.5c2.3,0,2.851,1.633,5.171,1.633C586.266,1661.021,587.2,1667.283,587.2,1667.283Z" transform="translate(-138.976 -246.888)" fill="#432c47"/>
    <path id="Path_147524" data-name="Path 147524" d="M609.951,1264.242c.01-.008.019-.021.028-.029C609.735,1264.195,609.752,1264.208,609.951,1264.242Z" transform="translate(-159.706 -75.593)" fill="#fc7575"/>
    <path id="Path_147525" data-name="Path 147525" d="M319.314,1300.932c.848-.847,37.2,6.82,37.2,6.82l-8.152-57.806-7.316-34.759-10.336-25.027s-15.5-3.783-16.6-3.08l-2.785,44.853Z" transform="translate(-29.07 -41.799)" fill="#26253a"/>
    <path id="Path_147526" data-name="Path 147526" d="M302.737,1643.4l-1.087,5.978s4.131,7.825,8.388,12.083,9.908,3.677,9.908.054-7.369-12.681-7.369-17.029S302.737,1643.4,302.737,1643.4Z" transform="translate(-24.836 -241.045)" fill="#4c5063"/>
    <path id="Path_147527" data-name="Path 147527" d="M353.856,1641.593l-1.63,11.05H380.3s-.906-2.717-9.057-4.347-8.6-4.461-8.6-4.461l.634-7.132-7.427-1.088Z" transform="translate(-46.972 -238.152)" fill="#4c5063"/>
    <path id="Path_147528" data-name="Path 147528" d="M334.186,1397.3l16.575,58.259-6.068,70.229H355.38l14.673-74.268-14.673-85.047Z" transform="translate(-39.076 -120.353)" fill="#464f7c"/>
    <path id="Path_147529" data-name="Path 147529" d="M335.7,1362.443l-9.873,33.132s-15.125,49.469-17.571,78.09,0,48.185,0,48.185l-13.5,2.173s-7.789-59.415-4.891-79.341-.647-68.472-.647-68.472l5.537-13.767Z" transform="translate(-19.398 -118.59)" fill="url(#linear-gradient-2)"/>
    <path id="Path_147530" data-name="Path 147530" d="M299.791,1197.124s17.4-9.307,28.712,2.008,12.227,43.278,12.227,43.278v36.953l1.625,16.45-42.382-5.037,5.706-56.407Z" transform="translate(-24.022 -44.657)" fill="#e2b2c4"/>
    <path id="Path_147531" data-name="Path 147531" d="M323.9,1251.5l-27.772-58.941-17.876,6.153,6.25,52.788-11.684,59.234s45.512-3.94,51.083,1.63Z" transform="translate(-12.217 -44.233)" fill="#7d87b7"/>
    <path id="Path_147532" data-name="Path 147532" d="M291.967,1283.605l-2.094-17.687c7.614,10.469,23.356,22.281,28.189,27.329,1.853,1.936,7.041,4.339,13.3,6.731v18.56c-12.335-3.866-24.495-7.812-27.214-9.164-2.509-1.248-8.3-7.987-13.893-17.107Z" transform="translate(-19.681 -76.343)" fill="#5e6589" opacity="0.75"/>
    <path id="Path_147533" data-name="Path 147533" d="M350.132,1203.5s10.325,32.742,10.325,42.766,8.151,68.713,8.151,68.713H373.5l-6.793-68.713-8.391-31.436Z" transform="translate(-46.055 -49.022)" fill="#7d87b7"/>
    <path id="Path_147534" data-name="Path 147534" d="M345.8,1192.625l13.6,59.786-2.981-42.343-2.736-2.864,2.161.486-5.422-11.712Z" transform="translate(-44.159 -44.264)" fill="#979fc5"/>
    <path id="Path_147535" data-name="Path 147535" d="M412.609,1338.083l5.6,1.79-1.1,10.25-8.46-2.609Z" transform="translate(-71.668 -107.928)" fill="#e2b2c4"/>
    <path id="Path_147536" data-name="Path 147536" d="M278.218,1203.5s-4.513,0-5.434,17.476c-1.15,21.792,20.227,52.431,25.933,55.148s54.46,16.755,54.46,16.755l3.622-15.722s-38.906-10.2-44.65-15.942-21.225-28.539-24.6-39.256C284.708,1212.944,278.218,1203.5,278.218,1203.5Z" transform="translate(-12.182 -49.022)" fill="#979fc5"/>
    <path id="Path_147537" data-name="Path 147537" d="M473.649,1289.467s3.986,1.413,5.3,3.219c1.682,2.3,8.483,6.482,10.411,6.716s7.423,1.775,7.423,1.775l.283,9.2s-26.694-8.1-31.044-12.451c-1.506-1.506,7.046,2.018,7.13,1.33s-10.215-2.722-9.469-4.392,9.306,3.5,10.214,2.736-10.65-3.619-10.428-5.455,11.357,4.069,11.357,4.069.327-.906-2.652-2.781-5.9-3.447-5.108-4.112,8.295,5.068,9.5,4.057C476.568,1293.381,472.926,1290.449,473.649,1289.467Z" transform="translate(-95.661 -86.564)" fill="#fc7575"/>
    <path id="Path_147538" data-name="Path 147538" d="M521.915,1308.507l-9.389-1.22-2.069,9.243,10.1,2.233Z" transform="translate(-116.226 -94.449)" fill="#d1fedf"/>
    <path id="Path_147539" data-name="Path 147539" d="M562.415,1425.43,580,1546.13H569.981l-12.911-64.138s-9.911-63.714-9.911-86.719Z" transform="translate(-132.29 -132.959)" fill="url(#linear-gradient-3)"/>
    <path id="Path_147540" data-name="Path 147540" d="M578.7,1186.506l.65,10.176-24.115-2.74,6.682-6.9Z" transform="translate(-135.827 -41.586)" fill="#375866"/>
    <path id="Path_147541" data-name="Path 147541" d="M540.937,1267.753c.062-34.522,5.35-68.861,12.892-73.229,0,0,8.769-.6,13.278-.755,6.729-.225,11.967,3.173,17.555,22.214,3.523,12,4.014,38.784,3.637,64.034-.167,11.195-1.205,22.411-1.445,30.338-19.008,0-27.208.81-45.653.81C540.036,1277.009,540.918,1278.016,540.937,1267.753Z" transform="translate(-129.419 -44.76)" fill="#d1fedf"/>
    <path id="Path_147542" data-name="Path 147542" d="M547.976,1195.119s-10.2,4.566-13.326,35.238-7.423,93.3-7.423,93.3H541.44s1.539-89.462,1.539-95.6S547.976,1195.119,547.976,1195.119Z" transform="translate(-123.567 -45.356)" fill="url(#linear-gradient-4)"/>
    <path id="Path_147543" data-name="Path 147543" d="M608.883,1272.388c.01-.01.019-.022.029-.031C608.654,1272.338,608.672,1272.352,608.883,1272.388Z" transform="translate(-159.235 -79.157)" fill="#fc7575"/>
    <path id="Path_147544" data-name="Path 147544" d="M552.171,1362.371l36.029.883,2.98,19.054,1.165,81.071s14.8,47.567,18.3,66.542c0,0-11.806.9-11.235.9l-24.84-59.708-13.236-61.925L550.5,1385.113Z" transform="translate(-133.751 -118.558)" fill="url(#linear-gradient-5)"/>
    <path id="Path_147545" data-name="Path 147545" d="M589.12,1363.254l.9,5.788H552.6l.491-6.671Z" transform="translate(-134.672 -118.558)" fill="#3b1b36"/>
    <rect id="Rectangle_11481" data-name="Rectangle 11481" width="9.535" height="5.298" transform="translate(428.445 1249.896) rotate(180)" fill="#a07fc0"/>
    <path id="Path_147546" data-name="Path 147546" d="M569.776,1445.625l15.855,61.042,20.487,54.307-23.106-53.424Z" transform="translate(-142.189 -154.997)" fill="#70497a"/>
    <path id="Path_147547" data-name="Path 147547" d="M577.353,1236.19c-.053.414,11.212-40.614,11.212-40.614a47.324,47.324,0,0,1,8.8,3.717c5.02,2.683,7.26,23.018,7.26,23.018s3,42.007,3,45.341c0,1.793,3.61,28.627,6.947,53.05l-41.123,3.149C574.064,1289.787,577.353,1236.19,577.353,1236.19Z" transform="translate(-143.795 -45.556)" fill="url(#linear-gradient-6)"/>
    <path id="Path_147548" data-name="Path 147548" d="M577.3,1271.15s25.455-29.66,28.142-25.9c.242,3.412.908,12.817,1.54,22.08-6.426,16.225-27.222,42.728-31.882,48.561C575.789,1299.148,576.676,1282.348,577.3,1271.15Z" transform="translate(-144.521 -67.152)" fill="#262943" opacity="0.57"/>
    <path id="Path_147549" data-name="Path 147549" d="M577.353,1267.8l-3.908,87.662S576.682,1270.358,577.353,1267.8Z" transform="translate(-143.795 -77.167)" fill="#70497a"/>
    <g id="Group_19236" data-name="Group 19236" transform="translate(415.675 1095.764)">
      <path id="Path_147550" data-name="Path 147550" d="M573.964,1147.052c.417-.265,5.594-13.146,5.594-13.146s3.455-9.672,1.224-11.31-7.535-7.315-12.182-7.418a17.65,17.65,0,0,0-8.182,1.554c-.417.265-3.429,5.349-3.429,5.349s1.4-1.713,2.124,4.642S573.964,1147.052,573.964,1147.052Z" transform="translate(-552.268 -1106.129)" fill="#381a3f"/>
      <path id="Path_147551" data-name="Path 147551" d="M566.325,1163.1c.552,1.646.314,13.392.75,16.349.431,2.92,13.76,7.445,14.021-3.175s-.787-23.112-.787-23.112Z" transform="translate(-556.354 -1122.755)" fill="#fc7575"/>
      <path id="Path_147552" data-name="Path 147552" d="M566.325,1163.1h0l4.641-3.3,9.342-6.639v.035c0,.044.01.127.02.246.031.387.091,1.159.164,2.225v.005q.022.324.046.683c0,.015,0,.031,0,.046.051.772.107,1.659.163,2.636,0,.055.006.11.01.165.013.232.026.468.039.709v.008c.007.124.014.251.021.379l0,.04c0,.048.006.1.008.145,0,.018,0,.036,0,.055,0,.083.008.168.013.252-1.736,5.693-8.3,11.876-13.973,12.609-.012-.392-.033-.789-.061-1.187C566.7,1168.221,566.639,1164.031,566.325,1163.1Z" transform="translate(-556.354 -1122.755)" fill="#fd5e5a"/>
      <path id="Path_147553" data-name="Path 147553" d="M576.659,1131.522a20.484,20.484,0,0,1-2.272,17.889c-4.07,5.873-9.688,8.9-13.712,5.94s-5.176-21.552-2.267-26.335S574.056,1125.051,576.659,1131.522Z" transform="translate(-552.178 -1110.849)" fill="#fc7575"/>
      <path id="Path_147554" data-name="Path 147554" d="M573.067,1137.605s.905-6.079,3.238-7.56,3.385-2.385,3.807-4.532,8.2-3.584,6.933-7.114-7.364-5.182-10.462-11.32-6.442-9.536-13.664-7.3-8.227,6.642-8.227,6.642-3.187-.553-5.134,3.26-.55,5.98.7,7.768c0,0-.269-5.034,1.458-4.685s-.013,5.886-.013,5.886a45.621,45.621,0,0,0,5.357-5.4c2.763-3.281,2.082.558,1.265,4.717s5.313.241,8.037-2.768,6.621-.2,8.045,4.068S569.7,1130.23,573.067,1137.605Z" transform="translate(-548.593 -1099.089)" fill="#653870"/>
      <path id="Path_147555" data-name="Path 147555" d="M589.422,1145.427s2.547-4.348,3.871-2.458.233,7.536-2.576,7.593S589.422,1145.427,589.422,1145.427Z" transform="translate(-566.285 -1118.086)" fill="#fc7575"/>
      <path id="Path_147556" data-name="Path 147556" d="M591.86,1146.831s-.1-2.518,1.271-1.683-.01,4.881-1.27,4.8S591.86,1146.831,591.86,1146.831Z" transform="translate(-567.285 -1119.174)" fill="#fd5e5a"/>
      <path id="Path_147557" data-name="Path 147557" d="M565.69,1146.2a15.772,15.772,0,0,0-1.021,3.589,9.382,9.382,0,0,0,.038,3.976c.31-.057,1.135-.179,2.227-.466-.7-.02-1.4,0-2.1.036l.234.173A48.352,48.352,0,0,1,565.69,1146.2Z" transform="translate(-555.553 -1119.71)" fill="#172866"/>
      <path id="Path_147558" data-name="Path 147558" d="M572.716,1146.431a1.261,1.261,0,0,0,.735,1.57c.554.112,1.123-.409,1.272-1.165a1.26,1.26,0,0,0-.735-1.569C573.434,1145.155,572.865,1145.676,572.716,1146.431Z" transform="translate(-559.135 -1119.294)" fill="#2f499f"/>
      <path id="Path_147559" data-name="Path 147559" d="M559.153,1144.5a1.26,1.26,0,0,0,.735,1.57c.555.112,1.124-.409,1.272-1.165a1.262,1.262,0,0,0-.736-1.57C559.871,1143.229,559.3,1143.75,559.153,1144.5Z" transform="translate(-553.199 -1118.45)" fill="#2f499f"/>
      <path id="Path_147560" data-name="Path 147560" d="M576.965,1141.99a5.423,5.423,0,0,0-3.124-2.451c-1.952-.395-1.362,1.248-.906,1.34S577.04,1141.6,576.965,1141.99Z" transform="translate(-559.048 -1116.766)" fill="#172866"/>
      <path id="Path_147561" data-name="Path 147561" d="M561.765,1137.9s-2.312.684-2.749,1.747c0,0,2.447-.2,2.887-.776A.651.651,0,0,0,561.765,1137.9Z" transform="translate(-553.155 -1116.075)" fill="#172866"/>
      <path id="Path_147562" data-name="Path 147562" d="M570.406,1164.6s-5.967,2.244-9.2.087c0,0,.907,3,1.731,3.546C564.67,1169.377,568.939,1168.511,570.406,1164.6Z" transform="translate(-554.112 -1127.763)" fill="#fff"/>
    </g>
    <path id="Path_147563" data-name="Path 147563" d="M560.388,1187.451l-6.769,44.58-1.884-22.531,1.971-2.391v-12.754Z" transform="translate(-134.293 -41.999)" fill="#284758"/>
    <path id="Path_147564" data-name="Path 147564" d="M587.367,1184.573l-6.787,10.142,3.27,6.22,10.064-12.073-4.119-3.2Z" transform="translate(-146.918 -40.74)" fill="#e3feec"/>
    <path id="Path_147565" data-name="Path 147565" d="M565.236,1187.451l1.808,7.99-2.856,4.551-1.375-7.7Z" transform="translate(-139.142 -41.999)" fill="#f4fff7"/>
    <path id="Path_147566" data-name="Path 147566" d="M580.394,1232.22l9.32-45.714,9.633,7.488-8.43,15.653.628,4.9Z" transform="translate(-146.836 -41.586)" fill="#284758"/>
    <path id="Path_147567" data-name="Path 147567" d="M568.98,1201.659l2.284,1.856,3.475-1.323,1.879,3.573s-7.643.411-9.382-1.328Z" transform="translate(-141.077 -48.218)" fill="#a4c1ad"/>
    <path id="Path_147568" data-name="Path 147568" d="M575.939,1202.308l-5.265-.377.161,4.614,4.2.194Z" transform="translate(-142.582 -48.337)" fill="#6ca3c2"/>
    <path id="Path_147569" data-name="Path 147569" d="M568.852,1210.331l-4.2-.194-8.1,77.049,3.526,5.49,6.582-4.43Z" transform="translate(-136.402 -51.928)" fill="#517a92"/>
    <path id="Path_147570" data-name="Path 147570" d="M571.6,1210.482l-1.8,78.267-6.971,4.077,5.973-4.617Z" transform="translate(-139.146 -52.08)" fill="#3d5c6e"/>
    <path id="Path_147571" data-name="Path 147571" d="M579.637,1202.608l-1.212,4.428.6-4.428Z" transform="translate(-145.974 -48.633)" fill="#3d5c6e"/>
    <path id="Path_147572" data-name="Path 147572" d="M573.927,1202.171c3.937,1.18,11.224,15.567,9.342,25.01s-15.864,43.871-20.047,48.054-43.324-2.844-43.324-2.844l1.452-11.882s25.4,0,26-1.442C550.189,1252.253,569.99,1200.992,573.927,1202.171Z" transform="translate(-120.359 -48.433)" fill="url(#linear-gradient-7)"/>
    <path id="Path_147573" data-name="Path 147573" d="M573.927,1202.171c3.937,1.18,11.224,15.567,9.342,25.01s-15.864,43.871-20.047,48.054-43.324-2.844-43.324-2.844l1.452-11.882s25.4,0,26-1.442C550.189,1252.253,569.99,1200.992,573.927,1202.171Z" transform="translate(-120.359 -48.433)" opacity="0.15" fill="url(#linear-gradient-7)" style="mix-blend-mode: screen;isolation: isolate"/>
    <g id="Group_19237" data-name="Group 19237" transform="translate(280.023 1097.893)">
      <path id="Path_147574" data-name="Path 147574" d="M336.045,1118.172s6.085,8,7,13.424c.94,5.583,2.077,14.508,2.077,14.508h-2.477s-2.064,4.952-2.065,8.254-5.228,1.238-8.255,1.237c-2.595,0-7.641-2.362-10.754-8.887a17.274,17.274,0,0,1-1.627-3.223C317.33,1133.991,312.518,1117.066,336.045,1118.172Z" transform="translate(-311.878 -1109.548)" fill="#fc7575"/>
      <path id="Path_147575" data-name="Path 147575" d="M315.139,1175.829a7.658,7.658,0,0,0,5.312,6.4c3.008.947,5.863,1.671,7.436,2.05a.837.837,0,0,0,1.035-.845,90.749,90.749,0,0,1,.759-10.012c.243-2.182.481-4.163.608-5.364-.637-1.6-5.474-13.756-5.163-12.979v-.01l-1-2.49S314.984,1174.534,315.139,1175.829Z" transform="translate(-310.762 -1124.631)" fill="#fc7575"/>
      <path id="Path_147576" data-name="Path 147576" d="M339.781,1105.723c.281.473,5.058,10.189-3.183,13.9s-10.286-1.635-12.489,1.667,1.907,8.646.118,11.673l-2.744.525s-.558-1.627-1.659-1.627-1.413,8.335-3.184,8.335-5.209-7.1-6.859-10.4-5.088-14.447,1.242-17.335,9.08-.687,9.081-3.438,2.752.138,2.752.138a4.843,4.843,0,0,0,.551-4.4c-.963-2.34,6.743-3.164,8.53,1.514S336.754,1100.632,339.781,1105.723Z" transform="translate(-307.357 -1102.876)" fill="#210075"/>
      <path id="Path_147577" data-name="Path 147577" d="M329.895,1146.623s.133,5.432-1.176,5.432-4.177-3.076-3.69-6.348S329.3,1142.827,329.895,1146.623Z" transform="translate(-315.067 -1120.652)" fill="#fc7575"/>
      <path id="Path_147578" data-name="Path 147578" d="M330.185,1147.127s.654,2.159-.328,3.141-2.874-1.375-1.829-3.142S329.98,1145.882,330.185,1147.127Z" transform="translate(-316.271 -1121.746)" fill="#fd5e5a"/>
      <path id="Path_147579" data-name="Path 147579" d="M353.752,1145.336l.21,1.312s-2.3-.275-3.563.986-1.437,1.4-1.437,1.4S349.633,1146.069,353.752,1145.336Z" transform="translate(-325.567 -1121.46)" fill="#210075"/>
      <path id="Path_147580" data-name="Path 147580" d="M353.074,1151.6a1.028,1.028,0,1,0,1.013-1.2A1.12,1.12,0,0,0,353.074,1151.6Z" transform="translate(-327.366 -1123.674)" fill="#210075"/>
      <path id="Path_147581" data-name="Path 147581" d="M366.166,1125.557a3.085,3.085,0,0,1-.674,1.609c-1.446,1.877-4.255,2.142-6.134,2.383a12.642,12.642,0,0,0,4.863-.1,5.321,5.321,0,0,0,4.02-3.611Z" transform="translate(-330.117 -1112.803)" fill="#210075"/>
      <path id="Path_147582" data-name="Path 147582" d="M330.828,1171.4a50.238,50.238,0,0,0,5.526,3.888c.323-2.969.636-5.361.636-5.361s-1.52,1.31-5.144-13.077a.614.614,0,0,0-.02.088v.01C331.621,1158.182,329.637,1170.222,330.828,1171.4Z" transform="translate(-317.464 -1126.501)" fill="#fd5e5a"/>
      <path id="Path_147583" data-name="Path 147583" d="M347.492,1168.851a22.448,22.448,0,0,1,.436,3.351c0,1.221-3.055,2.574-5.8,1.788s-6.566-2.6-7.5-3.536-1.687-13.6-1.687-13.6l2.487-.476s1.229,8.253,2.254,9.278S347.492,1168.851,347.492,1168.851Z" transform="translate(-318.552 -1126.293)" fill="#210075"/>
      <path id="Path_147584" data-name="Path 147584" d="M351.081,1156.85c.2.9-.829,1.882-2.29,2.2s-2.805-.146-3-1.042.829-1.882,2.29-2.2S350.885,1155.954,351.081,1156.85Z" transform="translate(-324.167 -1125.999)" fill="#fd5e5a"/>
      <path id="Path_147585" data-name="Path 147585" d="M349.945,1168.311s1.967,2.014,2.982,2.213,1.523.135,1.111.959-2.348.383-2.348-.4S349.945,1168.311,349.945,1168.311Z" transform="translate(-325.997 -1131.516)" fill="#210075"/>
    </g>
    <path id="Path_147586" data-name="Path 147586" d="M300.742,1197.489l-1.384.111,5.307,14.694h3.566l-2.144,3.73,29.43,37.631-21.755-45.636Z" transform="translate(-23.832 -46.393)" fill="#5e6589" opacity="0.75"/>
    <path id="Path_147587" data-name="Path 147587" d="M335.393,1249.129l-25.541-38.764,2.717-5.8-5.706.362-7.789-12.1,9.674-5.678Z" transform="translate(-23.708 -41.867)" fill="#979fc5"/>
    <path id="Path_147588" data-name="Path 147588" d="M411.707,1353.346a1,1,0,1,1-1-1A1,1,0,0,1,411.707,1353.346Z" transform="translate(-72.129 -114.17)" fill="#717794"/>
    <path id="Path_147589" data-name="Path 147589" d="M404.123,1351.283a1,1,0,1,1-1-1A1,1,0,0,1,404.123,1351.283Z" transform="translate(-68.81 -113.267)" fill="#717794"/>
    <path id="Path_147590" data-name="Path 147590" d="M396.411,1349.159a1,1,0,1,1-1-1A1,1,0,0,1,396.411,1349.159Z" transform="translate(-65.434 -112.338)" fill="#717794"/>
    <g id="Group_19238" data-name="Group 19238" transform="translate(358.172 1248.191)">
      <path id="Path_147591" data-name="Path 147591" d="M446.877,1376.793a.546.546,0,0,1-.054-1.089c.163-.016,16.43-1.688,28.15-5.519a.546.546,0,0,1,.34,1.037c-11.833,3.869-28.216,5.552-28.38,5.568A.472.472,0,0,1,446.877,1376.793Z" transform="translate(-446.332 -1370.158)" fill="#58307d"/>
    </g>
    <g id="Group_19239" data-name="Group 19239" transform="translate(336.295 1211.605)">
      <path id="Path_147592" data-name="Path 147592" d="M407.974,1308.194a.546.546,0,0,1-.193-1.057c.494-.186,12.2-4.517,21.3.023a.546.546,0,1,1-.488.976c-8.675-4.327-20.309-.021-20.426.022A.548.548,0,0,1,407.974,1308.194Z" transform="translate(-407.427 -1305.094)" fill="#58307d"/>
    </g>
    <g id="Group_19240" data-name="Group 19240" transform="translate(263.413 1091.492)">
      <path id="Path_147593" data-name="Path 147593" d="M279.576,1122.114a.546.546,0,0,1-.521-.382,22.938,22.938,0,0,1,3.311-21.255c4.345-5.928,10.424-8.985,12.062-8.985a.546.546,0,1,1,0,1.092c-1.147,0-6.874,2.661-11.182,8.538a21.883,21.883,0,0,0-3.15,20.281.546.546,0,0,1-.357.685A.536.536,0,0,1,279.576,1122.114Z" transform="translate(-277.818 -1091.492)" fill="#58307d"/>
    </g>
  </g>
</svg>
