<svg xmlns="http://www.w3.org/2000/svg" width="454.012" height="411.01" viewBox="0 0 454.012 411.01">
  <g id="_24_7_Monitoring" data-name="24/7 Monitoring" transform="translate(0 -87.991)">
    <path id="Path_63285" data-name="Path 63285" d="M640.051,629.484q-1.028,5.537-2.551,10.888a2.3,2.3,0,0,0,4.421,1.255q1.576-5.551,2.647-11.3a2.3,2.3,0,1,0-4.517-.839Zm-6.1,21.492q-2.029,5.239-4.522,10.233a2.3,2.3,0,0,0,4.112,2.05q2.584-5.18,4.7-10.622a2.3,2.3,0,0,0-4.284-1.659Zm-9.972,20q-2.955,4.763-6.33,9.224a2.3,2.3,0,1,0,3.666,2.772q3.5-4.627,6.568-9.575a2.3,2.3,0,1,0-3.9-2.422Zm-13.48,17.83q-3.77,4.135-7.909,7.913a2.3,2.3,0,1,0,3.1,3.393q4.291-3.914,8.208-8.211a2.3,2.3,0,0,0-3.4-3.1Zm-16.511,15.066q-4.454,3.371-9.221,6.332a2.3,2.3,0,1,0,2.424,3.9q4.943-3.069,9.57-6.572a2.3,2.3,0,1,0-2.772-3.664ZM575,715.66q-4.986,2.489-10.225,4.525a2.3,2.3,0,1,0,1.663,4.284q5.434-2.109,10.615-4.7A2.3,2.3,0,1,0,575,715.66Zm-20.828,8.082q-5.346,1.52-10.886,2.556a2.3,2.3,0,1,0,.84,4.517q5.748-1.07,11.3-2.653a2.3,2.3,0,0,0-1.258-4.419Zm-21.964,4.093q-5.518.508-11.174.515a2.3,2.3,0,1,0,0,4.595q5.862,0,11.593-.534a2.3,2.3,0,1,0-.421-4.575Zm-22.349.012q-5.617-.509-11.079-1.524a2.3,2.3,0,0,0-.836,4.518q5.665,1.049,11.5,1.582a2.3,2.3,0,0,0,.415-4.575Zm-21.968-4.068q-5.41-1.531-10.607-3.544a2.3,2.3,0,1,0-1.657,4.285q5.39,2.085,11.012,3.681a2.3,2.3,0,0,0,1.252-4.421Zm-20.841-8.06q-5.023-2.5-9.773-5.445a2.3,2.3,0,0,0-2.419,3.907q4.924,3.05,10.144,5.651a2.3,2.3,0,0,0,2.048-4.112Zm-19-11.767q-4.47-3.376-8.609-7.145a2.3,2.3,0,1,0-3.093,3.4q4.291,3.906,8.934,7.415a2.3,2.3,0,0,0,2.769-3.668ZM431.522,688.9q-3.772-4.128-7.158-8.6a2.3,2.3,0,0,0-3.662,2.775q3.509,4.632,7.428,8.921a2.3,2.3,0,0,0,3.392-3.1Zm-13.5-17.814q-2.945-4.739-5.46-9.762a2.3,2.3,0,1,0-4.109,2.055q2.6,5.207,5.667,10.132a2.3,2.3,0,0,0,3.9-2.426ZM408.035,651.1q-2.018-5.189-3.563-10.6a2.3,2.3,0,0,0-4.419,1.26q1.6,5.614,3.7,11.005a2.3,2.3,0,0,0,4.282-1.666Zm-6.126-21.486q-1.019-5.455-1.543-11.076a2.3,2.3,0,1,0-4.575.423q.54,5.828,1.6,11.5a2.3,2.3,0,0,0,4.517-.844Zm-2.064-22.251v-.135q0-5.583.5-11.04a2.3,2.3,0,1,0-4.575-.413q-.513,5.659-.515,11.453v.14a2.3,2.3,0,0,0,4.595-.005Zm2.015-22.255q1.022-5.539,2.538-10.891a2.3,2.3,0,0,0-4.423-1.25q-1.57,5.555-2.634,11.308a2.3,2.3,0,0,0,4.519.834Zm6.077-21.5q2.023-5.239,4.51-10.236a2.3,2.3,0,1,0-4.114-2.046q-2.577,5.181-4.682,10.628a2.3,2.3,0,0,0,4.286,1.654Zm9.949-20.012q2.949-4.767,6.318-9.232a2.3,2.3,0,0,0-3.669-2.768q-3.492,4.631-6.557,9.583a2.3,2.3,0,0,0,3.908,2.416Zm13.457-17.846q3.767-4.14,7.9-7.922a2.3,2.3,0,1,0-3.1-3.39q-4.286,3.919-8.2,8.221a2.3,2.3,0,0,0,3.4,3.091Zm16.494-15.085q4.451-3.376,9.214-6.343a2.3,2.3,0,0,0-2.428-3.9q-4.939,3.074-9.563,6.583a2.3,2.3,0,1,0,2.777,3.66Zm18.971-11.808q4.984-2.5,10.221-4.537a2.3,2.3,0,1,0-1.668-4.282q-5.433,2.116-10.61,4.711a2.3,2.3,0,0,0,2.058,4.108Zm20.818-8.107q5.345-1.526,10.884-2.569a2.3,2.3,0,0,0-.847-4.516q-5.745,1.078-11.3,2.667a2.3,2.3,0,0,0,1.262,4.418Zm21.959-4.118q5.519-.514,11.175-.527a2.3,2.3,0,0,0-.009-4.595q-5.862.01-11.593.547a2.3,2.3,0,0,0,.426,4.575Zm22.349-.038q5.619.5,11.081,1.512a2.3,2.3,0,1,0,.831-4.519q-5.667-1.043-11.5-1.57a2.3,2.3,0,0,0-.41,4.576Zm21.974,4.043q5.412,1.526,10.611,3.533a2.3,2.3,0,0,0,1.652-4.287q-5.393-2.079-11.016-3.668a2.3,2.3,0,1,0-1.247,4.422Zm20.85,8.037q5.026,2.5,9.779,5.434a2.3,2.3,0,0,0,2.415-3.909q-4.928-3.045-10.15-5.64a2.3,2.3,0,0,0-2.044,4.115Zm19.015,11.747q4.473,3.37,8.618,7.135a2.3,2.3,0,1,0,3.089-3.4q-4.294-3.9-8.943-7.4a2.3,2.3,0,0,0-2.765,3.669Zm16.544,15.031q3.777,4.124,7.168,8.588a2.3,2.3,0,0,0,3.659-2.778q-3.516-4.629-7.439-8.914a2.3,2.3,0,0,0-3.388,3.1Zm13.517,17.8q2.952,4.736,5.471,9.754a2.3,2.3,0,1,0,4.107-2.059q-2.611-5.205-5.679-10.126a2.3,2.3,0,1,0-3.9,2.43Zm10.015,19.972q2.023,5.186,3.576,10.6a2.3,2.3,0,1,0,4.416-1.265q-1.606-5.612-3.712-11a2.3,2.3,0,0,0-4.281,1.67ZM640,584.7q1.027,5.455,1.557,11.075a2.3,2.3,0,0,0,4.575-.429q-.548-5.829-1.617-11.495A2.3,2.3,0,0,0,640,584.7Zm2.092,22.248v.282q0,5.652-.508,11.174a2.3,2.3,0,1,0,4.575.418q.524-5.726.528-11.592v-.292a2.3,2.3,0,0,0-4.6.01Z" transform="translate(-293.962 -313.987)" fill="#cdedfb"/>
    <path id="Path_63286" data-name="Path 63286" d="M854.626,1762.14a2.14,2.14,0,0,1,0-4.189h14.15a2.142,2.142,0,0,1,0,4.189Z" transform="translate(-634.351 -1263.319)" fill="#311305"/>
    <path id="Path_63287" data-name="Path 63287" d="M872.414,1774.478a1.419,1.419,0,0,0-.679-.181h-14.15a1.419,1.419,0,0,0-.68.181Z" transform="translate(-637.311 -1275.476)" fill="#333132"/>
    <path id="Path_63288" data-name="Path 63288" d="M739.01,1293.914c-8.826,37.6-42.474,60.391-75.685,60.752-33.217-.361-66.861-23.156-75.687-60.752-8.934-37.269,24.565-79.6,75.687-79.63C714.445,1214.319,747.941,1256.645,739.01,1293.914Z" transform="translate(-435.976 -858.975)" fill="#403f41"/>
    <rect id="Rectangle_1609" data-name="Rectangle 1609" width="72.235" height="99.323" transform="translate(190.734 292.421)" fill="#4c1e0a"/>
    <rect id="Rectangle_1610" data-name="Rectangle 1610" width="18.211" height="19.384" transform="translate(216.922 341.734)" fill="#f5c08c"/>
    <path id="Path_63289" data-name="Path 63289" d="M749.251,1369.578h69.66l-7.641-41.526,4.806-50.933v-39.6l-4.814-3.9-18.885-3.731H775.783l-18.881,3.731-4.818,2.7v40.807l4.809,50.933Z" transform="translate(-557.244 -870.577)" fill="#623cb5"/>
    <path id="Path_63290" data-name="Path 63290" d="M1009.963,1259.626v32.8l32.178,60.893,21.865,6.12Z" transform="translate(-751.146 -892.697)" fill="#f5c08c"/>
    <path id="Path_63291" data-name="Path 63291" d="M940.339,879.374s7.261-.267,8.2,10.939,6.155,48.989-23.911,65.136C924.631,955.449,915.72,893.365,940.339,879.374Z" transform="translate(-686.513 -609.89)" fill="#4c1e0a"/>
    <path id="Path_63292" data-name="Path 63292" d="M792.684,839.855s-4.283-13.617-27.346-13.617-55.721,16.878-33.276,68.852c7.492,17.346,24.321,23.41,24.321,23.41Z" transform="translate(-538.857 -570.371)" fill="#4c1e0a"/>
    <path id="Path_63293" data-name="Path 63293" d="M1004.13,1027.243h1.323c1.341,0,2.285-2.33,2.68-3.491a29.173,29.173,0,0,0,1.4-5.778c.164-1.431-.276-3.9-2.113-3.9a4.221,4.221,0,0,0-3.288,2.148Z" transform="translate(-746.807 -710.076)" fill="#fdcea0"/>
    <path id="Path_63294" data-name="Path 63294" d="M737.1,1027.243h-1.322c-1.342,0-2.285-2.33-2.682-3.491a28.917,28.917,0,0,1-1.4-5.778c-.167-1.431.276-3.9,2.111-3.9a4.222,4.222,0,0,1,3.29,2.148Z" transform="translate(-544.169 -710.076)" fill="#fdcea0"/>
    <path id="Path_63295" data-name="Path 63295" d="M811.738,875.255a29,29,0,0,0-12.45-19.71c-4.526-3.111-12.012-5.517-20.311-5.416v0h-.221v0h-.138v0H778.4v0c-8.3-.1-15.787,2.3-20.312,5.416a29,29,0,0,0-12.448,19.71s-4.738,19.691,3.467,37.645c1.4,3.061,3.542,9.8,13.248,18,6.4,5.406,10.94,7.221,16.264,7.221l.067,0,.07,0c5.324,0,9.87-1.815,16.266-7.221,9.7-8.207,11.844-14.941,13.246-18C816.474,894.945,811.738,875.255,811.738,875.255Z" transform="translate(-553.546 -588.137)" fill="#fdcea0"/>
    <path id="Path_63296" data-name="Path 63296" d="M809.282,879.188a14.631,14.631,0,0,0,2.155,5.5s0-2.556,0-5.257c.593-4.132,3.154-27.252-11.4-37.678-14.818-10.616-25.087-9.465-35.618-4.475-10.166,2.482-22.724,10.833-22.37,37.017h-.009v10.3c1.7-2.356,2.336-5.961,2.575-8.224h32.407V860.725c5.873,7.865,13.87,15.541,24.16,19.122,0,0-12.015-8.529-13.21-19.891C787.966,859.955,789.7,870.432,809.282,879.188Z" transform="translate(-551.877 -575.842)" fill="#6b3320"/>
    <path id="Path_63297" data-name="Path 63297" d="M805.157,1025.476c-5.551,0-12.669,1.015-14.435-5.879-.8-3.1-.693-5.439.329-7.158a6.466,6.466,0,0,1,1.021-1.258c1.23-.941,4.175-2.581,10.091-3.019.561-.041,1.128-.063,1.7-.063a33.35,33.35,0,0,1,9.737,1.646c1.157,1.405,1.157,3.793,1.157,7.374C814.753,1025.3,811.8,1025.476,805.157,1025.476Zm-22.012-5.829c-1.768,6.858-8.921,5.823-14.492,5.823-6.661,0-9.637-.161-9.637-8.283,0-3.565,0-5.946,1.173-7.341a31.967,31.967,0,0,1,11.476-1.564c5.934.434,8.886,2.063,10.082,2.969a6.375,6.375,0,0,1,1.066,1.281C783.84,1014.242,783.946,1016.566,783.145,1019.647Zm35.138-9.759a48.486,48.486,0,0,0-7.827-2.114c-.429-.1-.925-.182-1.46-.246a31.833,31.833,0,0,0-6.961-.35c-8.638.593-11.45,3.488-12.323,4.955h-5.6c-.877-1.467-3.684-4.363-12.322-4.955a31.8,31.8,0,0,0-6.96.35c-.551.069-1.027.151-1.451.242a48.538,48.538,0,0,0-7.839,2.117l-.683.262,1.423,2.769.219.224.275-.118c.081-.032,1.122-.486,1.615-.672a24,24,0,0,0-.366,5.206c0,8.16,3.661,8.824,10.886,8.824,5.776,0,13.234.988,15.19-6.025a12.286,12.286,0,0,0,.457-5.329h4.713a12.175,12.175,0,0,0,.46,5.329c1.955,7.013,9.408,6.025,15.191,6.025,7.223,0,10.88-.664,10.88-8.824a24.066,24.066,0,0,0-.361-5.211c.472.177,1.258.5,1.477.587l.282.11,1.729-2.913Z" transform="translate(-561.412 -704.896)" fill="#2f2d2e"/>
    <path id="Path_63298" data-name="Path 63298" d="M1056.107,1613.583l-55.981,8.171-.784-10.724,49.667-9.687Z" transform="translate(-743.247 -1146.844)" fill="#f5c08c"/>
    <path id="Path_63299" data-name="Path 63299" d="M916.325,1636.9a1.667,1.667,0,1,0-.244-3.326l-13.739,1a1.671,1.671,0,0,0,.247,3.332Z" transform="translate(-669.954 -1170.815)" fill="#f5c08c"/>
    <path id="Path_63300" data-name="Path 63300" d="M965.381,1618.519c1,.578,4.665.262,5.239-1.444l-8.135-4.776a1.807,1.807,0,0,0-2.62.71,2.256,2.256,0,0,0,.982,2.812Z" transform="translate(-713.753 -1154.778)" fill="#f5c08c"/>
    <path id="Path_63301" data-name="Path 63301" d="M911.107,1651.213a1.669,1.669,0,1,0-.246-3.328l-15.848,1.163a1.668,1.668,0,1,0,.241,3.327Z" transform="translate(-664.502 -1181.456)" fill="#f5c08c"/>
    <path id="Path_63302" data-name="Path 63302" d="M915.911,1665.5a1.668,1.668,0,1,0-.246-3.327l-14.6,1.072a1.668,1.668,0,1,0,.247,3.326Z" transform="translate(-669.002 -1192.082)" fill="#f5c08c"/>
    <path id="Path_63303" data-name="Path 63303" d="M928.112,1679.115a1.328,1.328,0,1,0-.194-2.649l-11.47.845a1.328,1.328,0,1,0,.2,2.648Z" transform="translate(-680.679 -1202.713)" fill="#f5c08c"/>
    <path id="Path_63304" data-name="Path 63304" d="M949.726,1631.7l12.533-.919a1.437,1.437,0,0,1,1.622,1.21l.807,11.013a1.444,1.444,0,0,1-1.427,1.439l-12.534.918Z" transform="translate(-706.345 -1168.733)" fill="#f5c08c"/>
    <path id="Path_63305" data-name="Path 63305" d="M603.372,1259.626v32.8l-32.178,60.893-21.86,6.12Z" transform="translate(-408.559 -892.697)" fill="#f5c08c"/>
    <path id="Path_63306" data-name="Path 63306" d="M549.334,1613.583l55.981,8.171.784-10.724-49.668-9.687Z" transform="translate(-408.559 -1146.844)" fill="#f5c08c"/>
    <path id="Path_63307" data-name="Path 63307" d="M804.3,1636.9a1.668,1.668,0,1,1,.246-3.326l13.737,1a1.671,1.671,0,0,1-.246,3.332Z" transform="translate(-597.036 -1170.815)" fill="#f5c08c"/>
    <path id="Path_63308" data-name="Path 63308" d="M773.068,1618.519c-1,.578-4.665.262-5.238-1.444l8.132-4.776a1.809,1.809,0,0,1,2.623.71,2.256,2.256,0,0,1-.982,2.812Z" transform="translate(-571.062 -1154.778)" fill="#f5c08c"/>
    <path id="Path_63309" data-name="Path 63309" d="M803.385,1651.213a1.669,1.669,0,1,1,.245-3.328l15.85,1.163a1.668,1.668,0,1,1-.243,3.327Z" transform="translate(-596.355 -1181.456)" fill="#f5c08c"/>
    <path id="Path_63310" data-name="Path 63310" d="M802.2,1665.5a1.668,1.668,0,0,1,.245-3.327l14.6,1.072a1.668,1.668,0,0,1-.243,3.326Z" transform="translate(-595.477 -1192.082)" fill="#f5c08c"/>
    <path id="Path_63311" data-name="Path 63311" d="M801.064,1679.115a1.328,1.328,0,1,1,.193-2.649l11.471.845a1.328,1.328,0,1,1-.2,2.648Z" transform="translate(-594.862 -1202.713)" fill="#f5c08c"/>
    <path id="Path_63312" data-name="Path 63312" d="M777.021,1631.7l-12.535-.919a1.436,1.436,0,0,0-1.621,1.21L762.058,1643a1.443,1.443,0,0,0,1.425,1.439l12.536.918Z" transform="translate(-566.768 -1168.733)" fill="#f5c08c"/>
    <path id="Path_63313" data-name="Path 63313" d="M733.006,953.8a50.094,50.094,0,0,1-2.731-7.6h-1.216c-1.344,0-2.289-2.33-2.685-3.491a29.133,29.133,0,0,1-1.4-5.778c-.168-1.431.274-3.9,2.113-3.9l.184.022v-5.575h.008c-.133-9.687,1.506-16.922,4.132-22.331l.014-.038s-8.64,3.563-8.64,16.866v38.717c0,20.4,10.41,42.946,4.149,54.311,0,0,28.713,5.438,30.375-36.677-3.386-.945-6.815-2.946-11.061-6.535C736.546,963.6,734.409,956.863,733.006,953.8Z" transform="translate(-537.563 -629.04)" fill="#4c1e0a"/>
    <rect id="Rectangle_1611" data-name="Rectangle 1611" width="454.012" height="18.287" transform="translate(0 480.714)" fill="#311305"/>
    <rect id="Rectangle_1612" data-name="Rectangle 1612" width="454.012" height="1.182" transform="translate(0 486.557)" fill="#461e0c"/>
    <rect id="Rectangle_1613" data-name="Rectangle 1613" width="454.012" height="1.833" transform="translate(0 482.496)" fill="#461e0c"/>
    <rect id="Rectangle_1614" data-name="Rectangle 1614" width="454.012" height="1.178" transform="translate(0 495.794)" fill="#461e0c"/>
    <rect id="Rectangle_1615" data-name="Rectangle 1615" width="454.012" height="0.524" transform="translate(0 490.8)" fill="#461e0c"/>
    <rect id="Rectangle_1616" data-name="Rectangle 1616" width="454.012" height="0.525" transform="translate(0 485.003)" fill="#461e0c"/>
    <rect id="Rectangle_1617" data-name="Rectangle 1617" width="454.012" height="0.525" transform="translate(0 481.367)" fill="#461e0c"/>
    <rect id="Rectangle_1618" data-name="Rectangle 1618" width="454.012" height="0.523" transform="translate(0 497.412)" fill="#461e0c"/>
    <rect id="Rectangle_1619" data-name="Rectangle 1619" width="454.012" height="0.525" transform="translate(0 498.395)" fill="#461e0c"/>
    <rect id="Rectangle_1620" data-name="Rectangle 1620" width="454.012" height="0.522" transform="translate(0 492.24)" fill="#461e0c"/>
    <rect id="Rectangle_1621" data-name="Rectangle 1621" width="454.012" height="0.525" transform="translate(0 494.173)" fill="#461e0c"/>
    <rect id="Rectangle_1622" data-name="Rectangle 1622" width="454.012" height="0.986" transform="translate(0 488.521)" fill="#461e0c"/>
    <path id="Path_63314" data-name="Path 63314" d="M641.53,1659.626v4.579a6.413,6.413,0,0,0,6.413,6.41h113.2a6.415,6.415,0,0,0,6.415-6.41v-4.579Z" transform="translate(-477.129 -1190.192)" fill="#414042"/>
    <path id="Path_63315" data-name="Path 63315" d="M774.1,1486.405a8.063,8.063,0,0,1-8.062,8.062H683.522a8.064,8.064,0,0,1-8.067-8.062l-6.722-55.554a8.064,8.064,0,0,1,8.065-8.067h95.959a8.06,8.06,0,0,1,8.058,8.067Z" transform="translate(-497.361 -1014.044)" fill="#1e1f54"/>
    <path id="Path_63316" data-name="Path 63316" d="M853.517,1530.872c0,6.81-7.984,12.329-17.825,12.329s-17.828-5.518-17.828-12.329,7.979-12.325,17.828-12.325S853.517,1524.066,853.517,1530.872Z" transform="translate(-608.274 -1085.266)" fill="#fff"/>
    <path id="Path_63319" data-name="Path 63319" d="M1455.609,1563.717a8.5,8.5,0,1,0,8.5,8.5A8.513,8.513,0,0,0,1455.609,1563.717Zm0,20.149a11.645,11.645,0,1,1,11.643-11.644A11.658,11.658,0,0,1,1455.609,1583.865Z" transform="translate(-1073.928 -1116.525)" fill="#3a3c8d"/>
    <path id="Path_63317" data-name="Path 63317" d="M1289.443,1555.076a25.905,25.905,0,1,0,47.392,0Z" transform="translate(-957.362 -1112.434)" fill="#1e1f54"/>
    <path id="Path_63318" data-name="Path 63318" d="M1323.49,1591.449a26.107,26.107,0,0,1-3.652-.264c-.637-.253-1.27-.522-1.891-.82a29.534,29.534,0,0,1-11.1-9.292,29.943,29.943,0,0,1-5.447-13.792l-.1-.945c-.027-.315-.062-.675-.078-.956l-.028-.441-.019-.5c-.013-.316-.018-.634-.019-.951a30.249,30.249,0,0,1,.221-3.815,30.782,30.782,0,0,1,.7-3.78c.071-.274.143-.548.221-.821h5.952l-.1.2c-.1.226-.213.447-.319.7-.214.485-.4.979-.589,1.477a25.466,25.466,0,0,0-.9,3.065,25.054,25.054,0,0,0-.516,3.177c-.027.267-.052.537-.068.807l-.026.383-.016.44-.019.8.009.81a26.309,26.309,0,0,0,3.553,12.563,27.332,27.332,0,0,0,14.23,11.95Z" transform="translate(-967.714 -1112.434)" fill="#3a3c8d"/>
    <rect id="Rectangle_1623" data-name="Rectangle 1623" width="19.443" height="4.972" transform="translate(346.053 475.743)" fill="#3a3c8d"/>
    <path id="Path_63320" data-name="Path 63320" d="M1340.82,1446.729h-28.6a3.37,3.37,0,0,1,1.49-6.394h3.158a3.387,3.387,0,0,1-.3-3.2h-1.437a3.37,3.37,0,0,1-2.8-5.246h-3.159a3.374,3.374,0,0,1,0-6.748h3.159a3.355,3.355,0,0,1-.077-3.622h-3.025a3.374,3.374,0,1,1,0-6.748h4.763a3.37,3.37,0,0,1,2.713-5.371h11.08a18.1,18.1,0,0,0,1.245,8.746,3.371,3.371,0,0,1-.491,1.748h5.21a3.374,3.374,0,1,1,0,6.747h-3.158a3.365,3.365,0,0,1,0,3.748h9.591a3.375,3.375,0,0,1,3.1,4.7h1.437a3.373,3.373,0,1,1,0,6.745h-9.589a3.372,3.372,0,0,1,0,3.749h3.156A3.368,3.368,0,0,1,1340.82,1446.729Z" transform="translate(-971.168 -1004.087)" fill="#e5e6e7"/>
    <path id="Path_63321" data-name="Path 63321" d="M292.194,1535.344H214.373a6.021,6.021,0,0,1-6.019-6.026V1514.76a6.02,6.02,0,0,1,6.019-6.026h77.821Z" transform="translate(-154.961 -1077.968)" fill="#f1f2f2"/>
    <path id="Path_63322" data-name="Path 63322" d="M211.281,1509.589h-2.927v-.854h6.019A5.989,5.989,0,0,0,211.281,1509.589Z" transform="translate(-154.961 -1077.968)" fill="#dedfe0"/>
    <path id="Path_63323" data-name="Path 63323" d="M300.689,1509.589H219.775a5.989,5.989,0,0,1,3.092-.854h77.821Z" transform="translate(-163.455 -1077.968)" fill="#d4d6d7"/>
    <path id="Path_63324" data-name="Path 63324" d="M209.267,1517.31h-.913v-.854h1.558A6.135,6.135,0,0,0,209.267,1517.31Z" transform="translate(-154.961 -1083.71)" fill="#dedfe0"/>
    <path id="Path_63325" data-name="Path 63325" d="M294.844,1517.31H211.917a6.136,6.136,0,0,1,.645-.854h82.282Z" transform="translate(-157.61 -1083.71)" fill="#d4d6d7"/>
    <path id="Path_63326" data-name="Path 63326" d="M208.476,1525.057h-.122v-.848h.361A6.035,6.035,0,0,0,208.476,1525.057Z" transform="translate(-154.961 -1089.477)" fill="#dedfe0"/>
    <path id="Path_63327" data-name="Path 63327" d="M292.548,1525.057H208.829a6.033,6.033,0,0,1,.239-.848h83.479Z" transform="translate(-155.314 -1089.477)" fill="#d4d6d7"/>
    <path id="Path_63328" data-name="Path 63328" d="M208.354,1532.008v-.082C208.355,1531.954,208.354,1531.981,208.354,1532.008Z" transform="translate(-154.961 -1095.217)" fill="#dedfe0"/>
    <path id="Path_63329" data-name="Path 63329" d="M292.194,1532.781h-83.84v-.772c0-.028,0-.054,0-.082h83.839Z" transform="translate(-154.961 -1095.217)" fill="#d4d6d7"/>
    <rect id="Rectangle_1624" data-name="Rectangle 1624" width="83.84" height="0.852" transform="translate(53.394 438.691)" fill="#d4d6d7"/>
    <rect id="Rectangle_1625" data-name="Rectangle 1625" width="83.84" height="0.852" transform="translate(53.394 440.673)" fill="#d4d6d7"/>
    <rect id="Rectangle_1626" data-name="Rectangle 1626" width="83.84" height="0.852" transform="translate(53.394 442.654)" fill="#d4d6d7"/>
    <rect id="Rectangle_1627" data-name="Rectangle 1627" width="83.84" height="0.852" transform="translate(53.394 444.637)" fill="#d4d6d7"/>
    <rect id="Rectangle_1628" data-name="Rectangle 1628" width="83.84" height="0.85" transform="translate(53.394 446.62)" fill="#d4d6d7"/>
    <rect id="Rectangle_1629" data-name="Rectangle 1629" width="83.84" height="0.852" transform="translate(53.394 448.599)" fill="#d4d6d7"/>
    <path id="Path_63330" data-name="Path 63330" d="M208.354,1589.141v-.081c0,.028,0,.054,0,.081" transform="translate(-154.961 -1137.709)" fill="#dedfe0"/>
    <path id="Path_63331" data-name="Path 63331" d="M292.194,1586.9h-83.84c0-.027,0-.053,0-.081v-.772h83.84Z" transform="translate(-154.961 -1135.468)" fill="#d4d6d7"/>
    <path id="Path_63332" data-name="Path 63332" d="M208.716,1594.633h-.362v-.852h.122A5.988,5.988,0,0,0,208.716,1594.633Z" transform="translate(-154.961 -1141.22)" fill="#dedfe0"/>
    <path id="Path_63333" data-name="Path 63333" d="M292.548,1594.633H209.07a5.986,5.986,0,0,1-.24-.852h83.718Z" transform="translate(-155.314 -1141.22)" fill="#d4d6d7"/>
    <path id="Path_63334" data-name="Path 63334" d="M209.911,1602.369h-1.557v-.851h.913A6.181,6.181,0,0,0,209.911,1602.369Z" transform="translate(-154.961 -1146.974)" fill="#dedfe0"/>
    <path id="Path_63335" data-name="Path 63335" d="M294.844,1602.369H212.561a6.181,6.181,0,0,1-.644-.851h82.927Z" transform="translate(-157.61 -1146.974)" fill="#d4d6d7"/>
    <path id="Path_63336" data-name="Path 63336" d="M292.194,1610.1h-83.84v-.852h2.931a5.985,5.985,0,0,0,3.088.852h77.821v0Z" transform="translate(-154.961 -1152.723)" fill="#dedfe0"/>
    <path id="Path_63337" data-name="Path 63337" d="M300.7,1610.1H222.88a5.986,5.986,0,0,1-3.088-.852H300.7Z" transform="translate(-163.467 -1152.723)" fill="#d4d6d7"/>
    <path id="Path_63338" data-name="Path 63338" d="M285.5,1532.471h-79.5a7.792,7.792,0,0,1-7.781-7.784v-14.554a7.792,7.792,0,0,1,7.781-7.786h79.5v3.514h-79.5a4.275,4.275,0,0,0-4.267,4.272v14.554a4.274,4.274,0,0,0,4.267,4.27h79.5Z" transform="translate(-147.427 -1073.217)" fill="#1e1f54"/>
    <path id="Path_63339" data-name="Path 63339" d="M260.6,1442.774H182.773a6.027,6.027,0,0,1-6.023-6.027V1431a6.027,6.027,0,0,1,6.023-6.025H260.6Z" transform="translate(-131.455 -1015.674)" fill="#f1f2f2"/>
    <path id="Path_63340" data-name="Path 63340" d="M177.126,1437.832h-.376v-.852h.771A6.066,6.066,0,0,0,177.126,1437.832Z" transform="translate(-131.455 -1024.602)" fill="#dedfe0"/>
    <path id="Path_63341" data-name="Path 63341" d="M261.691,1437.832H178.217a6.063,6.063,0,0,1,.4-.852h83.079Z" transform="translate(-132.546 -1024.602)" fill="#d4d6d7"/>
    <path id="Path_63342" data-name="Path 63342" d="M176.75,1445.552v-.855h.079a6.09,6.09,0,0,0-.078.855" transform="translate(-131.455 -1030.341)" fill="#dedfe0"/>
    <path id="Path_63343" data-name="Path 63343" d="M260.6,1445.552H176.75a6.254,6.254,0,0,1,.079-.855H260.6Z" transform="translate(-131.455 -1030.341)" fill="#d4d6d7"/>
    <rect id="Rectangle_1630" data-name="Rectangle 1630" width="83.85" height="0.854" transform="translate(45.295 416.338)" fill="#d4d6d7"/>
    <rect id="Rectangle_1631" data-name="Rectangle 1631" width="83.85" height="0.852" transform="translate(45.295 418.32)" fill="#d4d6d7"/>
    <path id="Path_63344" data-name="Path 63344" d="M176.75,1470.99v-.081c0,.027,0,.054,0,.081" transform="translate(-131.455 -1049.836)" fill="#dedfe0"/>
    <path id="Path_63345" data-name="Path 63345" d="M260.6,1468.753H176.75c0-.027,0-.054,0-.081v-.771H260.6Z" transform="translate(-131.455 -1047.599)" fill="#d4d6d7"/>
    <path id="Path_63346" data-name="Path 63346" d="M177.113,1476.487h-.363v-.852h.122A6.034,6.034,0,0,0,177.113,1476.487Z" transform="translate(-131.455 -1053.35)" fill="#dedfe0"/>
    <path id="Path_63347" data-name="Path 63347" d="M260.953,1476.487H177.466a6.031,6.031,0,0,1-.241-.852h83.728Z" transform="translate(-131.809 -1053.35)" fill="#d4d6d7"/>
    <path id="Path_63348" data-name="Path 63348" d="M178.309,1484.214H176.75v-.854h.913A6.07,6.07,0,0,0,178.309,1484.214Z" transform="translate(-131.455 -1059.096)" fill="#dedfe0"/>
    <path id="Path_63349" data-name="Path 63349" d="M263.249,1484.214H180.959a6.071,6.071,0,0,1-.646-.854h82.937Z" transform="translate(-134.105 -1059.096)" fill="#d4d6d7"/>
    <path id="Path_63350" data-name="Path 63350" d="M182.615,1491.951H176.75v-.85h2.935A5.977,5.977,0,0,0,182.615,1491.951Z" transform="translate(-131.455 -1064.854)" fill="#dedfe0"/>
    <path id="Path_63351" data-name="Path 63351" d="M269.119,1491.951H191.134a5.977,5.977,0,0,1-2.93-.85h80.914Z" transform="translate(-139.974 -1064.854)" fill="#d4d6d7"/>
    <path id="Path_63352" data-name="Path 63352" d="M253.9,1439.9h-79.5a7.789,7.789,0,0,1-7.783-7.78v-5.745a7.791,7.791,0,0,1,7.783-7.782h79.5v3.514h-79.5a4.273,4.273,0,0,0-4.269,4.268v5.745a4.272,4.272,0,0,0,4.269,4.266h79.5Z" transform="translate(-123.925 -1010.93)" fill="#de9292"/>
    <path id="Path_63353" data-name="Path 63353" d="M241.487,1645.223H140.9a6.021,6.021,0,0,1-6.022-6.022v-5.745a6.024,6.024,0,0,1,6.022-6.026H241.487Z" transform="translate(-100.315 -1166.246)" fill="#f1f2f2"/>
    <path id="Path_63354" data-name="Path 63354" d="M135.255,1640.266h-.376v-.852h.772A6.062,6.062,0,0,0,135.255,1640.266Z" transform="translate(-100.315 -1175.159)" fill="#dedfe0"/>
    <path id="Path_63355" data-name="Path 63355" d="M242.578,1640.266H136.346a6.062,6.062,0,0,1,.4-.852H242.578Z" transform="translate(-101.405 -1175.159)" fill="#d4d6d7"/>
    <path id="Path_63356" data-name="Path 63356" d="M134.879,1648v-.854h.078a6.076,6.076,0,0,0-.077.854" transform="translate(-100.315 -1180.907)" fill="#dedfe0"/>
    <path id="Path_63357" data-name="Path 63357" d="M241.487,1648H134.879a6.242,6.242,0,0,1,.078-.854h106.53Z" transform="translate(-100.315 -1180.907)" fill="#d4d6d7"/>
    <rect id="Rectangle_1632" data-name="Rectangle 1632" width="106.608" height="0.852" transform="translate(34.565 468.217)" fill="#d4d6d7"/>
    <rect id="Rectangle_1633" data-name="Rectangle 1633" width="106.608" height="0.85" transform="translate(34.565 470.201)" fill="#d4d6d7"/>
    <path id="Path_63358" data-name="Path 63358" d="M134.879,1673.439v0Z" transform="translate(-100.315 -1200.406)" fill="#dedfe0"/>
    <path id="Path_63359" data-name="Path 63359" d="M241.487,1671.2H134.879v-.852H241.487Z" transform="translate(-100.315 -1198.162)" fill="#d4d6d7"/>
    <path id="Path_63360" data-name="Path 63360" d="M135.24,1678.932h-.361v-.851H135A6.127,6.127,0,0,0,135.24,1678.932Z" transform="translate(-100.315 -1203.917)" fill="#dedfe0"/>
    <path id="Path_63361" data-name="Path 63361" d="M241.838,1678.932H135.59a6.127,6.127,0,0,1-.24-.851H241.838Z" transform="translate(-100.665 -1203.917)" fill="#d4d6d7"/>
    <path id="Path_63362" data-name="Path 63362" d="M136.435,1686.66h-1.556v-.85h.913A6.082,6.082,0,0,0,136.435,1686.66Z" transform="translate(-100.315 -1209.665)" fill="#dedfe0"/>
    <path id="Path_63363" data-name="Path 63363" d="M244.137,1686.66H139.085a6.082,6.082,0,0,1-.643-.85h105.7Z" transform="translate(-102.964 -1209.665)" fill="#d4d6d7"/>
    <path id="Path_63364" data-name="Path 63364" d="M241.487,1694.387H134.879v-.852h2.932a5.99,5.99,0,0,0,3.09.852H241.487v0Z" transform="translate(-100.315 -1215.411)" fill="#dedfe0"/>
    <path id="Path_63365" data-name="Path 63365" d="M250,1694.387H149.411a5.99,5.99,0,0,1-3.09-.852H250Z" transform="translate(-108.824 -1215.411)" fill="#d4d6d7"/>
    <path id="Path_63366" data-name="Path 63366" d="M234.794,1642.351H132.542a7.79,7.79,0,0,1-7.78-7.784v-5.745a7.789,7.789,0,0,1,7.78-7.78H234.794v3.514H132.542a4.271,4.271,0,0,0-4.266,4.266v5.745a4.273,4.273,0,0,0,4.266,4.27H234.794Z" transform="translate(-92.79 -1161.496)" fill="#623cb5"/>
    <path id="Path_63367" data-name="Path 63367" d="M246.236,1555.977l-4.73-4.337-4.734,4.337V1539.66h9.465Z" transform="translate(-176.095 -1100.968)" fill="#3a3c8d"/>
    <path id="Path_63368" data-name="Path 63368" d="M854.489,200.182l16.578,9.57V198.925a44.285,44.285,0,0,1-4.752,88.315v16.424a60.7,60.7,0,0,0,4.752-121.222V171.15l-16.578,9.571-16.851,9.731Z" transform="translate(-622.981 -83.159)" fill="#1e1f54"/>
    <path id="Path_63369" data-name="Path 63369" d="M642.057,346.942l16.578-9.572,16.854-9.732-16.854-9.726-16.578-9.573v10.829a44.285,44.285,0,0,1,4.754-88.315V214.429a60.7,60.7,0,0,0-4.754,121.221Z" transform="translate(-435.904 -115.347)" fill="#1e1f54"/>
    <path id="Path_63370" data-name="Path 63370" d="M731.91,362.211q3.633-17.162,13.6-21.49a13.783,13.783,0,0,1,5.641-1.238,15.075,15.075,0,0,1,10.359,4.1,15.965,15.965,0,0,1,5.877,12.369q0,6.8-5.955,13.372-4.329,4.871-12.984,8.734-6.572,2.941-8.272,5.8l20.1-1.314L758.579,397l-33.857,1.777q-.155-1.7-.155-3.322a26.18,26.18,0,0,1,3.094-13.067q3.706-6.727,16.539-13.525,7.036-3.716,8.35-7.344a10.743,10.743,0,0,0,.618-3.323,4.486,4.486,0,0,0-.891-2.744,2.864,2.864,0,0,0-2.437-1.2q-3.322,0-3.552,5.415Z" transform="translate(-538.886 -208.354)" fill="#623cb5"/>
    <path id="Path_63371" data-name="Path 63371" d="M902.076,350.756l13.141-2.318q-3.867,15.461-5.643,24.5l3.711-.23-1.624,14.456h-2.318c-.978.05-1.727.074-2.241.074q-.85,5.183-1.317,10.282l-12.213,3.092,2.168-12.831q-7.505.464-15.154,1.392l-3.092-6.571,10.435-37.336,14.611-2.165q-6.416,16.62-10.9,30.919l6.571-.384Z" transform="translate(-652.622 -211.047)" fill="#623cb5"/>
    <path id="Path_63372" data-name="Path 63372" d="M1276.229,906.631a12.256,12.256,0,0,1,8.55-16.735,14.208,14.208,0,0,1,24.707-8.087,21.208,21.208,0,0,1,36.759,20.874,16.16,16.16,0,0,1-5.135,31.486h-53.4a16.158,16.158,0,0,1-11.483-27.538Z" transform="translate(-945.692 -604.837)" fill="#8ad7f8"/>
    <path id="Path_63373" data-name="Path 63373" d="M1433.18,892.277l11.923-6.429-25.937-48.093-11.923,6.426Z" transform="translate(-1046.617 -578.937)" fill="#002e48"/>
    <path id="Path_63374" data-name="Path 63374" d="M1430.689,887.653l11.918-6.429-5.077-9.415-11.921,6.429Z" transform="translate(-1060.276 -604.264)" fill="#a5c3d2"/>
    <path id="Path_63375" data-name="Path 63375" d="M1290.611,702.9a20.565,20.565,0,1,1,27.861,8.338A20.565,20.565,0,0,1,1290.611,702.9Zm-6.276,3.385a27.694,27.694,0,1,0,11.229-37.522A27.691,27.691,0,0,0,1284.335,706.285Z" transform="translate(-952.733 -450.777)" fill="#00405f"/>
    <path id="Path_63376" data-name="Path 63376" d="M1311.315,723.607a20.565,20.565,0,1,0,8.337-27.859A20.562,20.562,0,0,0,1311.315,723.607Z" transform="translate(-973.437 -471.485)" fill="#bee7fb"/>
    <path id="Path_63377" data-name="Path 63377" d="M1413.333,850.3l25.938,48.1-5.917,3.192-25.936-48.1Z" transform="translate(-1046.747 -588.264)" fill="#00152c"/>
    <path id="Path_63378" data-name="Path 63378" d="M1431.7,884.347l5.077,9.417-5.921,3.193-5.074-9.417Z" transform="translate(-1060.404 -613.589)" fill="#5e91a8"/>
    <path id="Path_63379" data-name="Path 63379" d="M1295.686,678.421l3.385,6.276a20.562,20.562,0,0,0,19.522,36.2l3.388,6.279a27.695,27.695,0,0,1-26.295-48.75Z" transform="translate(-952.855 -460.435)" fill="#002d44"/>
    <path id="Path_63380" data-name="Path 63380" d="M1319.772,702.913l19.522,36.2a20.562,20.562,0,0,1-19.522-36.2Z" transform="translate(-973.557 -478.65)" fill="#99bacb"/>
    <path id="Path_63381" data-name="Path 63381" d="M1402.906,964.667a11.071,11.071,0,0,1-11.072,11.071h-36.583a11.068,11.068,0,0,1-3.516-21.567,14.529,14.529,0,0,1,25.18-14.3,9.735,9.735,0,0,1,16.926,5.538,8.4,8.4,0,0,1,5.857,11.465A11.029,11.029,0,0,1,1402.906,964.667Z" transform="translate(-999.709 -650.184)" fill="#bee7fb"/>
    <path id="Path_63382" data-name="Path 63382" d="M122.879,874.365a16.687,16.687,0,0,0,16.69,16.685h55.118a16.679,16.679,0,0,0,5.3-32.5A21.894,21.894,0,0,0,162.044,837a14.668,14.668,0,0,0-25.5,8.347,12.654,12.654,0,0,0-8.824,17.277A16.615,16.615,0,0,0,122.879,874.365Z" transform="translate(-91.39 -571.295)" fill="#8ad7f8"/>
    <path id="Path_63383" data-name="Path 63383" d="M232.054,900.486,217.821,887.27l52.164-55.628,14.241,13.215Z" transform="translate(-162.001 -574.39)" fill="#00405f"/>
    <path id="Path_63384" data-name="Path 63384" d="M424,838.1l-14.242-13.214,6.163-6.64,14.24,13.214Z" transform="translate(-304.752 -564.424)" fill="#00152c"/>
    <path id="Path_63385" data-name="Path 63385" d="M209.592,1065.132l2.109-16.411,14.233,13.214Z" transform="translate(-155.881 -735.84)" fill="#fcc7a3"/>
    <path id="Path_63386" data-name="Path 63386" d="M216.435,1092.1l-5.826-5.407-.863,6.718Z" transform="translate(-155.996 -764.084)" fill="#00152c"/>
    <path id="Path_63387" data-name="Path 63387" d="M448.044,809.277l6.2-6.678a3.121,3.121,0,0,0-.163-4.409l-9.708-9.007a3.115,3.115,0,0,0-4.408.162l-6.2,6.68Z" transform="translate(-322.608 -542.191)" fill="#f16253"/>
    <path id="Path_63388" data-name="Path 63388" d="M151.05,914.638a10.821,10.821,0,0,0,10.821,10.819h35.742a10.816,10.816,0,0,0,3.437-21.075,14.2,14.2,0,0,0-24.606-13.971,9.509,9.509,0,0,0-16.534,5.412,8.2,8.2,0,0,0-5.723,11.2A10.781,10.781,0,0,0,151.05,914.638Z" transform="translate(-112.341 -613.505)" fill="#bee7fb"/>
  </g>
</svg>
