<svg width="447" height="376" viewBox="0 0 447 376" fill="none" xmlns="http://www.w3.org/2000/svg">
<path d="M358.363 261.096L357.398 261.202L369.315 370.352L370.28 370.246L358.363 261.096Z" fill="#292A2E"/>
<path d="M389.229 308.746L383.366 366.877L384.332 366.975L390.195 308.844L389.229 308.746Z" fill="#292A2E"/>
<path d="M399.309 359.85H355.809V374H399.309V359.85Z" fill="#292A2E"/>
<path opacity="0.2" d="M399.309 359.85H355.809V374H399.309V359.85Z" fill="white"/>
<path d="M425.533 333.797C433.774 322.819 429.845 305.92 416.758 296.051C403.672 286.182 386.383 287.08 378.142 298.058C369.902 309.035 373.83 325.935 386.917 335.804C400.003 345.673 417.292 344.774 425.533 333.797Z" fill="#0CBC8B"/>
<path opacity="0.2" d="M425.533 333.797C433.774 322.819 429.845 305.92 416.758 296.051C403.672 286.182 386.383 287.08 378.142 298.058C369.902 309.035 373.83 325.935 386.917 335.804C400.003 345.673 417.292 344.774 425.533 333.797Z" fill="white"/>
<path opacity="0.5" d="M425.532 333.798C424.978 334.539 424.375 335.24 423.725 335.897C414.653 341.706 401.264 340.792 390.642 332.779C377.556 322.913 373.629 306.013 381.871 295.036C382.425 294.297 383.027 293.596 383.673 292.937C392.749 287.124 406.134 288.043 416.761 296.052C429.846 305.922 433.773 322.821 425.532 333.798Z" fill="white"/>
<path d="M364.825 292.149C377.79 282.119 381.313 264.917 372.695 253.728C364.078 242.538 346.582 241.598 333.618 251.628C320.654 261.658 317.131 278.86 325.748 290.05C334.366 301.239 351.861 302.179 364.825 292.149Z" fill="#0CBC8B"/>
<path opacity="0.2" d="M360.718 289.271C350.678 297.043 337.919 298.228 328.669 293.168C327.599 292.223 326.622 291.177 325.75 290.046C317.13 278.859 320.654 261.655 333.617 251.627C343.657 243.859 356.417 242.67 365.662 247.726C366.735 248.671 367.714 249.718 368.585 250.852C377.206 262.039 373.681 279.243 360.718 289.271Z" fill="white"/>
<path d="M58.2026 79.0552C58.2026 79.0552 53.9628 75.3767 53.376 67.5253C52.9218 61.4461 58.2026 65.7193 58.2026 65.7193C58.2026 65.7193 57.9183 61.3391 61.0443 61.9819C64.1704 62.6246 65.6339 67.3042 65.6339 67.3042" fill="#0C0C0C"/>
<path d="M77.3239 63.5852C77.3239 63.5852 92.8701 66.3197 85.7886 87.2083H81.5713" fill="#0C0C0C"/>
<path d="M59.8141 108.925C59.8831 108.916 60.6489 121.651 75.4092 120.541C85.6278 119.773 89.2713 108.907 89.5075 108.907C88.4056 108.672 87.0441 108.316 86.503 108.194C85.3237 107.919 84.2557 107.292 83.441 106.394C82.6263 105.497 82.1036 104.372 81.9424 103.169C81.6437 101.364 82.1505 92.129 81.9946 90.3027L66.3092 93.8117C66.5283 97.669 68.062 106.611 62.686 108.194C61.7894 108.455 60.8257 108.696 59.8141 108.925Z" fill="#E98862"/>
<path opacity="0.52" d="M66.0874 104.539C66.3331 103.746 66.4913 102.927 66.5591 102.099C66.7316 100.209 66.6972 98.3064 66.4566 96.4241C69.6447 95.9928 72.6481 94.6739 75.1256 92.6172C75.4171 93.6953 77.0186 98.4062 76.5754 99.4309C75.7368 101.368 71.7976 104.539 66.0874 104.539Z" fill="#0C0C0C"/>
<path d="M68.8713 101.464C75.0822 101.323 82.7338 97.9098 83.4022 89.5165L84.005 81.9432C84.6733 73.5492 80.8172 66.3933 72.9324 65.7628C65.048 65.1322 58.6131 71.4647 57.9447 79.858L57.678 83.2108C57.6064 84.3635 57.6133 85.5198 57.6986 86.6717C57.9017 89.7174 58.2221 94.3481 60.0587 97.5913C61.7924 100.652 64.9032 101.552 68.8713 101.464Z" fill="#E98862"/>
<path opacity="0.52" d="M66.5199 93.5918C65.2418 93.5638 63.9882 93.2353 62.86 92.6328C62.8138 92.6082 62.779 92.5664 62.7632 92.5164C62.7474 92.4663 62.7519 92.4121 62.7756 92.3653C62.7993 92.3185 62.8405 92.2829 62.8901 92.2663C62.9397 92.2496 62.9939 92.2531 63.041 92.2761C65.4755 93.5158 67.7613 93.512 69.652 92.2646C69.69 92.2382 69.7295 92.2139 69.7701 92.1917C69.7937 92.1801 69.8193 92.1734 69.8455 92.1718C69.8716 92.1701 69.8979 92.1737 69.9227 92.1823C69.9475 92.1908 69.9704 92.2042 69.99 92.2216C70.0097 92.239 70.0257 92.2601 70.0372 92.2837C70.0487 92.3074 70.0555 92.333 70.0571 92.3592C70.0587 92.3855 70.0552 92.4118 70.0466 92.4366C70.0381 92.4615 70.0248 92.4844 70.0074 92.5041C69.99 92.5238 69.969 92.5399 69.9454 92.5514C69.9302 92.5598 69.9073 92.5763 69.8715 92.5992C68.8778 93.257 67.7107 93.6027 66.5199 93.5918V93.5918Z" fill="#0C0C0C"/>
<path opacity="0.52" d="M66.4522 95.4879C66.221 95.4868 65.9904 95.4659 65.7629 95.4253C65.7364 95.4214 65.7111 95.4123 65.6882 95.3985C65.6654 95.3846 65.6455 95.3663 65.6299 95.3446C65.6142 95.323 65.6031 95.2984 65.597 95.2723C65.591 95.2462 65.5903 95.2192 65.5949 95.1929C65.5995 95.1665 65.6093 95.1413 65.6237 95.1188C65.6382 95.0963 65.657 95.077 65.6791 95.0619C65.7011 95.0468 65.726 95.0363 65.7521 95.0311C65.7783 95.0258 65.8053 95.0258 65.8314 95.0311C67.2009 95.2706 67.9012 94.6813 67.9306 94.6561C67.9704 94.6211 68.0224 94.6034 68.0753 94.6069C68.1281 94.6103 68.1774 94.6347 68.2123 94.6746C68.2473 94.7145 68.2649 94.7667 68.2615 94.8197C68.258 94.8726 68.2337 94.9221 68.1939 94.9571C67.6919 95.3304 67.0765 95.5179 66.4522 95.4879V95.4879Z" fill="#0C0C0C"/>
<path d="M60.2834 83.7739C60.8213 83.7739 61.2573 83.3368 61.2573 82.7977C61.2573 82.2586 60.8213 81.8215 60.2834 81.8215C59.7455 81.8215 59.3094 82.2586 59.3094 82.7977C59.3094 83.3368 59.7455 83.7739 60.2834 83.7739Z" fill="#0C0C0C"/>
<path d="M69.3121 83.8351C69.85 83.8351 70.286 83.3981 70.286 82.859C70.286 82.3199 69.85 81.8828 69.3121 81.8828C68.7742 81.8828 68.3381 82.3199 68.3381 82.859C68.3381 83.3981 68.7742 83.8351 69.3121 83.8351Z" fill="#0C0C0C"/>
<path d="M82.7089 92.0331C85.1049 92.224 87.2517 89.8107 87.443 87.4093C87.6342 85.0078 85.7972 83.5279 83.4013 83.3362L82.0383 84.8466L80.6487 91.8681L82.7089 92.0331Z" fill="#E98862"/>
<path d="M80.5813 88.0106C80.5813 88.0106 80.5661 76.0697 77.0194 75.0943C74.657 74.4451 68.6213 77.4595 63.3104 76.0697C60.9861 75.4617 58.714 75.8956 58.4122 76.9947C58.2926 77.4297 57.2504 70.9915 61.2574 66.4272C64.4478 62.7934 74.1231 62.3565 78.4079 63.9066C90.2722 68.1974 83.8609 83.8936 83.8609 83.8936L83.0474 87.9552L80.5813 88.0106Z" fill="#0C0C0C"/>
<g opacity="0.52">
<path d="M65.2578 90.6893H65.2425C64.4702 90.6297 63.1815 90.4434 63.2253 89.864C63.2634 89.3843 64.9716 84.3064 65.1663 83.729C65.1841 83.6806 65.22 83.641 65.2664 83.6187C65.3129 83.5965 65.3661 83.5933 65.4149 83.6098C65.4636 83.6263 65.504 83.6613 65.5274 83.7073C65.5508 83.7532 65.5554 83.8065 65.5401 83.8558C64.7815 86.1045 63.6441 89.5684 63.6186 89.8945C63.6841 90.037 64.4728 90.2333 65.2723 90.2952C65.3227 90.2996 65.3695 90.3232 65.4031 90.3613C65.4366 90.3993 65.4542 90.4488 65.4524 90.4995C65.4505 90.5502 65.4293 90.5983 65.3931 90.6338C65.3568 90.6692 65.3084 90.6894 65.2578 90.6901V90.6893Z" fill="#0C0C0C"/>
</g>
<path d="M63.0229 79.7999C62.3995 79.5422 61.7194 79.4536 61.051 79.5429C60.7105 79.5856 60.3783 79.6799 60.066 79.8225C59.7471 79.9663 59.4474 80.1496 59.174 80.3682L59.1527 80.3843C59.0817 80.4302 58.9963 80.4482 58.9128 80.4349C58.8294 80.4216 58.7538 80.3779 58.7005 80.3122C58.6472 80.2464 58.6201 80.1633 58.6242 80.0787C58.6283 79.9941 58.6635 79.914 58.7229 79.8538C59.0258 79.5718 59.363 79.3291 59.7265 79.1316C60.0952 78.9297 60.4919 78.7842 60.9035 78.7C61.3158 78.6115 61.7383 78.58 62.1591 78.6065C62.5923 78.6292 63.0201 78.7138 63.4294 78.8578C63.5561 78.9043 63.6595 78.9989 63.717 79.1212C63.7746 79.2435 63.7817 79.3837 63.7369 79.5112C63.6921 79.6388 63.5989 79.7435 63.4776 79.8027C63.3563 79.8619 63.2166 79.8708 63.0888 79.8274C63.0762 79.8232 63.0644 79.8183 63.0526 79.8133L63.0229 79.7999Z" fill="#0C0C0C"/>
<path d="M68.7382 78.9392C69.5506 78.6593 70.4235 78.6051 71.2641 78.7822C71.6758 78.8664 72.0725 79.0118 72.4411 79.2137C72.8046 79.4113 73.1417 79.6541 73.4444 79.9363C73.5101 79.9947 73.5509 80.0762 73.5581 80.1639C73.5654 80.2516 73.5386 80.3388 73.4833 80.4072C73.4281 80.4756 73.3486 80.52 73.2615 80.5312C73.1744 80.5424 73.0864 80.5194 73.0157 80.4672L72.9933 80.4504C72.72 80.2318 72.4205 80.0484 72.1016 79.9046C71.7892 79.7619 71.457 79.6675 71.1163 79.6247C70.7776 79.5775 70.4341 79.5775 70.0955 79.6247C69.7679 79.6667 69.4475 79.7529 69.1429 79.8809L69.1143 79.8935C69.0527 79.9209 68.9863 79.9358 68.919 79.9374C68.8517 79.939 68.7847 79.9274 68.7218 79.903C68.659 79.8787 68.6015 79.8422 68.5528 79.7956C68.504 79.749 68.4649 79.6933 68.4376 79.6316C68.4103 79.5698 68.3954 79.5033 68.3938 79.4358C68.3922 79.3683 68.4039 79.3011 68.4281 79.2382C68.4524 79.1752 68.4888 79.1176 68.5353 79.0687C68.5818 79.0198 68.6374 78.9806 68.699 78.9533C68.7142 78.9487 68.7272 78.9437 68.7382 78.9392Z" fill="#0C0C0C"/>
<path d="M69.5726 67.0403C70.2936 64.4582 69.4593 61.9671 67.7092 61.4762C65.9591 60.9853 63.9558 62.6805 63.2349 65.2625C62.5139 67.8446 63.3482 70.3357 65.0983 70.8266C66.8484 71.3176 68.8516 69.6224 69.5726 67.0403Z" fill="#0C0C0C"/>
<path d="M84.7963 324.065C84.7963 324.065 94.9318 329.689 92.8963 338.469C90.8608 347.25 98.2716 347.412 98.2716 347.412L108.006 314.44L91.57 309.565L84.7963 324.065Z" fill="#367CFF"/>
<path d="M45.8845 183.334C45.8845 183.334 27.0559 258.151 32.2357 269.226C37.3279 280.113 90.06 328.488 90.06 328.488L99.5596 310.793L59.1808 261.932C59.1808 261.932 70.6542 235.465 77.2686 215.116C81.2561 202.849 85.5828 191.846 86.2199 178.96L45.8845 183.334Z" fill="#262626"/>
<path d="M73.6544 279.074L68.2185 272.869L69.6333 309.291L75.6922 315.063L73.6544 279.074Z" fill="#0A0A0A"/>
<path d="M72.8637 228.008C72.8637 228.008 73.8544 207.676 71.9679 211.576C68.5645 218.618 67.6752 241.32 67.6752 241.32L72.8637 228.008Z" fill="#0A0A0A"/>
<path d="M79.9758 356.745C79.9758 356.745 78.1259 366.357 69.1483 366.892C60.1707 367.427 62.1178 374.596 62.1178 374.596H96.4244V357.416L79.9758 356.745Z" fill="#367CFF"/>
<path d="M107.134 181.436C107.134 181.436 107.286 180.728 107.376 184.869C107.908 209.307 97.9385 362.878 97.9385 362.878L75.3952 362.687L69.36 180.443L107.134 181.436Z" fill="#262626"/>
<path d="M41.475 136.961C41.9399 142.436 45.3448 176.591 45.7918 183.334H107.397C107.745 177.252 108.165 150.658 109.485 138.765C110.744 127.416 113.216 121.323 111.404 117.968C108.444 112.484 100.354 109.726 94.8385 108.978C91.4701 108.52 86.4038 108.193 86.4038 108.193C86.4038 108.193 85.9748 116.89 75.7466 117.375C61.8235 118.033 62.7533 108.193 62.6843 108.193C57.6291 108.193 48.062 109.405 44.3903 111.908C36.1348 117.535 40.4881 125.36 41.475 136.961Z" fill="#367CFF"/>
<path d="M45.1243 115.625L30.7786 130.5L17.7144 125.208L3.86752 159.547L3.78178 159.752C2.8313 162.124 2.74473 164.755 3.53727 167.185C4.3298 169.614 5.95079 171.686 8.11565 173.036C10.2805 174.387 12.8509 174.93 15.3756 174.571C17.9002 174.211 20.2178 172.971 21.9214 171.07L59.5297 129.075L45.1243 115.625Z" fill="#367CFF"/>
<path d="M57.7553 111.097C57.6434 110.919 57.4965 110.765 57.3236 110.646C57.1507 110.527 56.9554 110.445 56.7496 110.404C56.5437 110.363 56.3318 110.364 56.1265 110.408C55.9213 110.452 55.7272 110.537 55.5559 110.659C55.2326 110.905 55.0149 111.266 54.9467 111.668C54.8786 112.069 54.965 112.482 55.1886 112.822L55.9019 113.861L48.0602 108.911C47.8983 108.809 47.7179 108.739 47.5293 108.707C47.3408 108.675 47.1477 108.68 46.9611 108.723C46.7746 108.765 46.5982 108.844 46.4421 108.955C46.2859 109.065 46.1531 109.206 46.0511 109.368C45.9492 109.53 45.8801 109.711 45.8479 109.9C45.8156 110.089 45.8208 110.283 45.8632 110.47C45.9056 110.657 45.9843 110.834 46.0948 110.99C46.2054 111.147 46.3456 111.28 46.5074 111.382L49.7729 113.444C49.7646 113.451 49.757 113.459 49.7504 113.468C49.3764 113.328 48.9626 113.337 48.5957 113.496C48.2288 113.654 47.9375 113.949 47.7828 114.318C47.6485 114.658 47.6356 115.034 47.7462 115.383C47.8568 115.731 48.0842 116.031 48.3898 116.23L48.8245 116.525C48.8213 116.543 48.8213 116.561 48.8245 116.579C48.4861 116.448 48.1128 116.441 47.7698 116.559C47.4269 116.677 47.1363 116.912 46.9491 117.223C46.7517 117.579 46.6966 117.997 46.7949 118.392C46.8933 118.787 47.1377 119.131 47.4787 119.352L48.5506 120.08C48.5269 120.081 48.5038 120.087 48.4834 120.099C48.463 120.111 48.4459 120.128 48.4336 120.149C48.4204 120.172 48.4143 120.198 48.416 120.225C48.0888 120.193 47.7598 120.266 47.4771 120.435C47.1944 120.603 46.973 120.858 46.845 121.161C46.7108 121.501 46.6979 121.877 46.8085 122.226C46.9191 122.574 47.1465 122.874 47.452 123.073L53.2556 127.029C54.5383 127.9 56.0513 128.367 57.6006 128.371C59.15 128.374 60.665 127.914 61.9516 127.049L66.0942 124.263L57.7553 111.097Z" fill="#E98862"/>
<g opacity="0.2">
<path d="M53.0308 115.662C53.0141 115.659 52.9981 115.652 52.9835 115.643L49.7882 113.678C49.7719 113.668 49.7578 113.655 49.7466 113.639C49.7355 113.624 49.7274 113.606 49.723 113.588C49.7141 113.55 49.7205 113.511 49.7407 113.478C49.7609 113.445 49.7933 113.421 49.8308 113.412C49.8683 113.403 49.9078 113.41 49.9406 113.43L53.1356 115.395C53.1651 115.413 53.1874 115.441 53.1986 115.473C53.2097 115.506 53.2089 115.541 53.1964 115.573C53.1839 115.606 53.1604 115.632 53.1301 115.648C53.0999 115.665 53.0648 115.67 53.0312 115.663L53.0308 115.662Z" fill="#0C0C0C"/>
<path d="M51.4391 118.256C51.422 118.252 51.4056 118.246 51.3908 118.236L48.8915 116.671C48.862 116.649 48.8416 116.617 48.8346 116.581C48.8276 116.545 48.8344 116.508 48.8537 116.476C48.8729 116.445 48.9032 116.422 48.9385 116.413C48.9738 116.403 49.0115 116.407 49.0439 116.424L51.5432 117.99C51.573 118.007 51.5956 118.035 51.6068 118.068C51.618 118.101 51.6172 118.136 51.6045 118.169C51.5918 118.201 51.5679 118.227 51.5373 118.244C51.5068 118.26 51.4714 118.265 51.4376 118.257L51.4391 118.256Z" fill="#0C0C0C"/>
<path d="M49.7291 121.075C49.7131 121.072 49.6978 121.066 49.6838 121.058L48.4862 120.347C48.4689 120.337 48.4537 120.325 48.4414 120.309C48.4292 120.294 48.4202 120.276 48.4149 120.257C48.4096 120.238 48.4082 120.219 48.4108 120.199C48.4134 120.18 48.4198 120.161 48.4298 120.144C48.4398 120.127 48.4531 120.113 48.4689 120.101C48.4847 120.089 48.5027 120.081 48.5218 120.077C48.5408 120.072 48.5606 120.072 48.5799 120.075C48.5992 120.078 48.6176 120.086 48.634 120.096L49.8312 120.807C49.8602 120.825 49.8822 120.853 49.8931 120.885C49.9041 120.917 49.9035 120.952 49.8913 120.984C49.8792 121.016 49.8563 121.042 49.8267 121.059C49.797 121.075 49.7625 121.081 49.7291 121.075V121.075Z" fill="#0C0C0C"/>
</g>
<path d="M32.2193 130.48H44.3965C44.7108 130.48 45.0213 130.411 45.3055 130.276C45.5896 130.141 45.8405 129.945 46.0399 129.701C46.2393 129.458 46.3824 129.173 46.4587 128.867C46.5351 128.562 46.5429 128.243 46.4815 127.934L41.6637 103.667C41.567 103.18 41.3041 102.743 40.9202 102.43C40.5364 102.117 40.0556 101.948 39.5607 101.952L27.6937 102.052C27.3832 102.055 27.077 102.126 26.7967 102.26C26.5164 102.394 26.2688 102.588 26.0713 102.828C25.8738 103.068 25.7313 103.349 25.6537 103.65C25.576 103.952 25.5652 104.267 25.622 104.573L30.1297 128.739C30.2204 129.228 30.4789 129.67 30.8606 129.988C31.2423 130.306 31.723 130.48 32.2193 130.48V130.48Z" fill="#262626"/>
<path d="M41.5989 116.966C41.4125 116.685 41.1411 116.472 40.8247 116.358C40.5083 116.244 40.1637 116.235 39.8416 116.332C39.8413 116.312 39.8362 116.293 39.8267 116.275C39.8173 116.258 39.8037 116.243 39.7873 116.233C39.7709 116.222 39.7521 116.215 39.7325 116.213C39.713 116.212 39.6932 116.215 39.6751 116.222L40.6204 115.277C40.9193 114.99 41.0984 114.6 41.1215 114.186C41.1445 113.772 41.0098 113.364 40.7447 113.046C40.4978 112.77 40.162 112.591 39.7961 112.538C39.4301 112.486 39.0576 112.565 38.7438 112.761C38.7438 112.745 38.7316 112.732 38.7267 112.717L39.1161 112.328C39.3836 112.07 39.5539 111.727 39.5981 111.357C39.6423 110.987 39.5578 110.614 39.3588 110.299C39.23 110.105 39.0597 109.941 38.8602 109.821C38.6607 109.7 38.437 109.625 38.2052 109.602C37.9734 109.579 37.7393 109.607 37.5198 109.685C37.3003 109.763 37.1008 109.889 36.9358 110.054L36.0377 110.952C36.0339 110.947 36.0354 110.939 36.0309 110.934C36.0263 110.929 36.0145 110.929 36.0076 110.924C36.1982 110.622 36.2809 110.264 36.242 109.909C36.2032 109.554 36.0452 109.223 35.7938 108.97C35.1869 108.274 34.104 108.614 33.5233 109.195L28.0436 114.574L28.2108 114.323L28.9862 112.341C29.1452 111.958 29.1531 111.529 29.0085 111.14C28.8638 110.752 28.5774 110.433 28.207 110.248C28.0126 110.159 27.8021 110.111 27.5885 110.106C27.3749 110.102 27.1625 110.141 26.9645 110.221C26.7664 110.302 26.5868 110.422 26.4365 110.574C26.2862 110.726 26.1684 110.907 26.0904 111.107L21.556 122.349C21.556 122.349 31.0858 129.262 33.3712 126.977L41.357 118.995C41.6246 118.737 41.7949 118.394 41.839 118.024C41.8831 117.654 41.7983 117.28 41.5989 116.966V116.966Z" fill="#E98862"/>
<g opacity="0.2">
<path d="M30.779 116.022C30.8061 116.048 30.8425 116.063 30.8804 116.063C30.9182 116.063 30.9546 116.048 30.9817 116.022L36.027 111.139C36.0414 111.126 36.053 111.11 36.0611 111.092C36.0692 111.074 36.0738 111.055 36.0744 111.036C36.075 111.016 36.0717 110.997 36.0648 110.979C36.0578 110.961 36.0472 110.944 36.0337 110.93C36.0202 110.916 36.0041 110.905 35.9862 110.897C35.9684 110.89 35.9491 110.886 35.9297 110.885C35.9103 110.885 35.8911 110.889 35.8732 110.897C35.8552 110.904 35.839 110.915 35.8254 110.929L30.7801 115.814C30.7664 115.827 30.7554 115.843 30.7478 115.86C30.7403 115.878 30.7362 115.897 30.7359 115.916C30.7355 115.935 30.739 115.954 30.746 115.972C30.753 115.989 30.7634 116.006 30.7767 116.019L30.779 116.022Z" fill="#0C0C0C"/>
<path d="M32.8664 118.311C32.8935 118.338 32.9298 118.353 32.9677 118.353C33.0056 118.353 33.042 118.338 33.0691 118.311L38.6997 112.862C38.7134 112.849 38.7244 112.833 38.732 112.815C38.7397 112.798 38.7438 112.779 38.7441 112.76C38.7445 112.741 38.7411 112.722 38.7341 112.704C38.7271 112.686 38.7167 112.67 38.7035 112.656C38.6761 112.629 38.6396 112.614 38.6015 112.614C38.5633 112.613 38.5263 112.627 38.4981 112.653L32.8675 118.103C32.8399 118.13 32.824 118.167 32.8234 118.205C32.8227 118.244 32.8374 118.281 32.8641 118.309L32.8664 118.311Z" fill="#0C0C0C"/>
<path d="M35.113 120.805C35.1401 120.831 35.1765 120.846 35.2144 120.846C35.2522 120.846 35.2886 120.831 35.3157 120.805L39.8074 116.457C39.8218 116.444 39.8333 116.428 39.8415 116.411C39.8496 116.393 39.8541 116.374 39.8547 116.354C39.8553 116.335 39.852 116.315 39.845 116.297C39.838 116.279 39.8274 116.263 39.8138 116.249C39.8003 116.235 39.7841 116.223 39.7662 116.216C39.7483 116.208 39.7291 116.204 39.7097 116.204C39.6902 116.204 39.671 116.208 39.6531 116.216C39.6352 116.223 39.619 116.235 39.6054 116.248L35.1142 120.597C35.0865 120.624 35.0706 120.661 35.0698 120.699C35.0691 120.738 35.0837 120.775 35.1104 120.803L35.113 120.805Z" fill="#0C0C0C"/>
</g>
<path d="M20.001 119.356L37.4605 126.186L24.1787 164.621L3.73718 159.271L20.001 119.356Z" fill="#367CFF"/>
<path d="M79.0019 171.432C77.0792 171.432 75.1908 170.921 73.5289 169.952C71.867 168.983 70.491 167.59 69.5408 165.914L49.8076 129.056L66.2421 118.528L78.8015 139.842L92.3767 116.332L110.005 129.295L88.5587 165.743C87.6305 167.45 86.2643 168.877 84.6014 169.876C82.9385 170.876 81.0393 171.412 79.1002 171.43L79.0019 171.432Z" fill="#367CFF"/>
<path d="M79.0018 171.577C77.0539 171.575 75.1412 171.056 73.4576 170.075C71.7739 169.093 70.3791 167.682 69.4145 165.986L49.6795 129.124C49.6623 129.092 49.6578 129.055 49.6671 129.019C49.6763 128.984 49.6986 128.953 49.7294 128.933L66.1639 118.405C66.1803 118.395 66.1987 118.387 66.218 118.384C66.2373 118.381 66.257 118.382 66.2759 118.387C66.2948 118.391 66.3126 118.399 66.3283 118.411C66.3439 118.423 66.3571 118.437 66.367 118.454L78.8006 139.556L88.1128 123.596C88.1322 123.563 88.1641 123.538 88.2014 123.529C88.2386 123.519 88.2782 123.524 88.3115 123.544C88.3447 123.563 88.3689 123.595 88.3786 123.633C88.3884 123.67 88.3829 123.71 88.3635 123.743L78.9264 139.916C78.9136 139.938 78.8953 139.956 78.8734 139.969C78.8515 139.981 78.8267 139.988 78.8014 139.988V139.988C78.7761 139.988 78.7513 139.981 78.7294 139.969C78.7075 139.956 78.6892 139.938 78.6764 139.916L66.1936 118.732L49.9996 129.106L69.6695 165.846C70.6087 167.496 71.9666 168.869 73.6057 169.825C75.2447 170.78 77.1065 171.284 79.0026 171.286H79.0997C81.0129 171.268 82.8865 170.739 84.527 169.752C86.1676 168.765 87.5155 167.358 88.4317 165.674L107.638 132.854C107.657 132.82 107.689 132.796 107.726 132.786C107.764 132.777 107.803 132.782 107.837 132.802C107.87 132.821 107.894 132.853 107.904 132.89C107.913 132.928 107.908 132.968 107.889 133.001L88.6843 165.817C87.7432 167.545 86.3589 168.99 84.6745 170.002C82.99 171.015 81.0665 171.558 79.1024 171.577L79.0018 171.577Z" fill="#0C0C0C"/>
<path d="M83.4589 148.248C83.4332 148.248 83.408 148.241 83.3858 148.228C83.3637 148.215 83.3454 148.196 83.3327 148.174L78.675 139.913C78.6573 139.879 78.6533 139.84 78.6639 139.804C78.6745 139.768 78.6989 139.737 78.7318 139.718C78.7647 139.699 78.8036 139.694 78.8401 139.704C78.8767 139.714 78.9081 139.737 78.9276 139.77L83.5854 148.031C83.6043 148.064 83.6092 148.104 83.5989 148.141C83.5886 148.179 83.564 148.21 83.5305 148.229C83.5086 148.242 83.4839 148.248 83.4589 148.248V148.248Z" fill="#0C0C0C"/>
<path d="M27.8832 155.035C27.8602 155.035 27.8375 155.029 27.817 155.019C27.7965 155.009 27.7789 154.993 27.7654 154.975C27.752 154.956 27.7432 154.934 27.7398 154.912C27.7365 154.889 27.7386 154.866 27.746 154.844L37.6263 126.252C37.6325 126.234 37.6423 126.217 37.6549 126.203C37.6676 126.188 37.683 126.177 37.7001 126.168C37.7173 126.16 37.7359 126.155 37.755 126.154C37.774 126.153 37.7931 126.156 37.8111 126.162C37.8291 126.168 37.8457 126.178 37.8599 126.191C37.8742 126.203 37.8858 126.219 37.8941 126.236C37.9024 126.253 37.9073 126.272 37.9084 126.291C37.9095 126.31 37.9069 126.329 37.9006 126.347L28.0203 154.939C28.0101 154.967 27.9915 154.991 27.9669 155.009C27.9423 155.026 27.9131 155.035 27.8832 155.035V155.035Z" fill="#0C0C0C"/>
<path d="M42.1896 148.63C42.153 148.629 42.1178 148.616 42.091 148.591C42.0642 148.566 42.0479 148.531 42.0452 148.495L41.4736 140.653C41.4709 140.615 41.4835 140.577 41.5086 140.547C41.5338 140.518 41.5694 140.5 41.6078 140.498C41.646 140.495 41.6836 140.508 41.7126 140.533C41.7416 140.558 41.7597 140.594 41.7632 140.632L42.3348 148.473C42.3375 148.512 42.3249 148.55 42.2997 148.579C42.2744 148.608 42.2387 148.626 42.2003 148.629L42.1896 148.63Z" fill="#0C0C0C"/>
<path d="M446.32 375.308H1.24095C1.18125 375.313 1.12173 375.29 1.06594 375.242C1.01015 375.194 0.959233 375.121 0.916234 375.028C0.873234 374.935 0.839033 374.823 0.815674 374.699C0.792314 374.576 0.780273 374.443 0.780273 374.308C0.780273 374.174 0.792314 374.041 0.815674 373.917C0.839033 373.794 0.873234 373.682 0.916234 373.589C0.959233 373.495 1.01015 373.422 1.06594 373.374C1.12173 373.326 1.18125 373.304 1.24095 373.309H446.32C446.379 373.304 446.439 373.326 446.495 373.374C446.55 373.422 446.601 373.495 446.644 373.589C446.687 373.682 446.721 373.794 446.745 373.917C446.768 374.041 446.78 374.174 446.78 374.308C446.78 374.443 446.768 374.576 446.745 374.699C446.721 374.823 446.687 374.935 446.644 375.028C446.601 375.121 446.55 375.194 446.495 375.242C446.439 375.29 446.379 375.313 446.32 375.308V375.308Z" fill="#292A2E"/>
<path d="M277.012 0.624512H136.891C125.299 0.624512 115.902 10.0429 115.902 21.661V351.809C115.902 363.427 125.299 372.846 136.891 372.846H277.012C288.603 372.846 298 363.427 298 351.809V21.661C298 10.0429 288.603 0.624512 277.012 0.624512Z" fill="#292A2E"/>
<path d="M276.946 7.19385H136.957C128.998 7.19385 122.545 13.6612 122.545 21.639V351.341C122.545 359.319 128.998 365.786 136.957 365.786H276.946C284.906 365.786 291.358 359.319 291.358 351.341V21.639C291.358 13.6612 284.906 7.19385 276.946 7.19385Z" fill="white"/>
<path d="M122 353H291V360.207C291 361.231 290.511 362.244 289.56 363.19C288.609 364.136 287.216 364.995 285.459 365.719C283.702 366.442 281.617 367.016 279.322 367.408C277.027 367.799 274.567 368.001 272.083 368H140.91C135.895 368 131.085 367.179 127.539 365.718C123.992 364.256 122 362.274 122 360.207V353Z" fill="#292A2E"/>
<rect x="244" y="17" width="36" height="12" rx="6" fill="black"/>
<path d="M165.514 197.81C165.514 199.234 164.95 200.599 163.945 201.605C162.941 202.612 161.579 203.177 160.159 203.177C158.739 203.177 157.377 202.612 156.372 201.605C155.368 200.599 154.804 199.234 154.804 197.81V173.658C154.804 172.234 155.368 170.869 156.372 169.862C157.377 168.856 158.739 168.29 160.159 168.29C161.579 168.29 162.941 168.856 163.945 169.862C164.95 170.869 165.514 172.234 165.514 173.658V197.81ZM240.483 197.81C240.483 199.234 239.919 200.599 238.915 201.605C237.91 202.612 236.548 203.177 235.128 203.177C233.708 203.177 232.346 202.612 231.342 201.605C230.337 200.599 229.773 199.234 229.773 197.81V173.658C229.773 172.234 230.337 170.869 231.342 169.862C232.346 168.856 233.708 168.29 235.128 168.29C236.548 168.29 237.91 168.856 238.915 169.862C239.919 170.869 240.483 172.234 240.483 173.658V197.81ZM192.288 227.327C192.288 228.751 191.724 230.116 190.72 231.122C189.716 232.129 188.354 232.694 186.934 232.694C185.513 232.694 184.151 232.129 183.147 231.122C182.143 230.116 181.579 228.751 181.579 227.327V203.175C181.579 201.751 182.143 200.386 183.147 199.379C184.151 198.373 185.513 197.807 186.934 197.807C188.354 197.807 189.716 198.373 190.72 199.379C191.724 200.386 192.288 201.751 192.288 203.175V227.327ZM213.708 227.327C213.708 228.751 213.144 230.116 212.14 231.122C211.136 232.129 209.774 232.694 208.353 232.694C206.933 232.694 205.571 232.129 204.567 231.122C203.563 230.116 202.998 228.751 202.998 227.327V203.175C202.998 201.751 203.563 200.386 204.567 199.379C205.571 198.373 206.933 197.807 208.353 197.807C209.774 197.807 211.136 198.373 212.14 199.379C213.144 200.386 213.708 201.751 213.708 203.175V227.327Z" fill="#367CFF"/>
<path d="M170.869 168.291V208.542C170.869 209.966 171.433 211.331 172.437 212.337C173.441 213.344 174.803 213.909 176.224 213.909H219.063C220.483 213.909 221.845 213.344 222.85 212.337C223.854 211.331 224.418 209.966 224.418 208.542V168.291H170.869ZM197.643 141.452C181.579 141.452 171.792 151.233 170.869 162.921H224.418C223.492 151.233 213.708 141.452 197.643 141.452ZM186.934 156.475C186.223 156.475 185.542 156.192 185.04 155.689C184.538 155.185 184.256 154.503 184.256 153.791C184.256 153.079 184.538 152.397 185.04 151.893C185.542 151.39 186.223 151.107 186.934 151.107C187.644 151.107 188.325 151.39 188.827 151.893C189.329 152.397 189.611 153.079 189.611 153.791C189.611 154.503 189.329 155.185 188.827 155.689C188.325 156.192 187.644 156.475 186.934 156.475ZM208.353 156.475C207.643 156.475 206.962 156.192 206.46 155.689C205.958 155.185 205.676 154.503 205.676 153.791C205.676 153.079 205.958 152.397 206.46 151.893C206.962 151.39 207.643 151.107 208.353 151.107C209.063 151.107 209.744 151.39 210.247 151.893C210.749 152.397 211.031 153.079 211.031 153.791C211.031 154.503 210.749 155.185 210.247 155.689C209.744 156.192 209.063 156.475 208.353 156.475Z" fill="#367CFF"/>
<path d="M213.708 138.768L209.248 145.474M181.579 138.768L185.148 144.355" stroke="#367CFF" stroke-width="2" stroke-linecap="round"/>
<path d="M382.004 202.764L274.904 202.764C272.868 202.764 270.916 201.863 269.477 200.26C268.037 198.658 267.229 196.483 267.229 194.217V107.393C267.229 105.127 268.037 102.954 269.476 101.352C270.914 99.7498 272.866 98.8497 274.9 98.8497L382.008 98.8497C384.042 98.8497 385.994 99.7498 387.432 101.352C388.871 102.954 389.679 105.127 389.679 107.393V194.217C389.679 196.483 388.871 198.658 387.431 200.26C385.992 201.863 384.04 202.764 382.004 202.764V202.764Z" fill="white"/>
<path d="M266.908 194.216V107.392C266.908 105.032 267.75 102.768 269.249 101.099C270.748 99.4297 272.781 98.4919 274.9 98.4919H382.007C384.127 98.4919 386.16 99.4297 387.659 101.099C389.158 102.768 390 105.032 390 107.392V194.216C390 195.385 389.793 196.543 389.391 197.623C388.989 198.704 388.4 199.685 387.658 200.512C386.915 201.339 386.034 201.995 385.064 202.443C384.094 202.89 383.054 203.12 382.004 203.12H274.904C273.854 203.12 272.814 202.89 271.844 202.443C270.874 201.995 269.992 201.339 269.25 200.512C268.507 199.685 267.918 198.704 267.516 197.623C267.115 196.543 266.908 195.385 266.908 194.216V194.216ZM274.9 99.2062C272.951 99.2068 271.082 100.07 269.704 101.605C268.325 103.14 267.551 105.222 267.551 107.392V194.216C267.551 196.388 268.326 198.471 269.705 200.007C271.085 201.543 272.955 202.406 274.906 202.406H382.004C383.954 202.406 385.825 201.543 387.204 200.007C388.584 198.471 389.359 196.388 389.359 194.216V107.392C389.359 105.221 388.584 103.139 387.206 101.604C385.827 100.069 383.957 99.2062 382.007 99.2062H274.9Z" fill="#292A2E"/>
<path d="M267.229 107.391V114.626H389.678V107.391C389.678 105.125 388.87 102.952 387.431 101.35C385.993 99.748 384.041 98.8479 382.006 98.8479H274.9C273.893 98.8479 272.895 99.0689 271.965 99.4982C271.034 99.9276 270.188 100.557 269.476 101.35C268.763 102.144 268.198 103.085 267.813 104.122C267.427 105.158 267.229 106.269 267.229 107.391V107.391Z" fill="#292A2E"/>
<path d="M309.047 126.32H303.269C303.201 126.32 303.136 126.29 303.088 126.236C303.04 126.182 303.013 126.11 303.013 126.034C303.013 125.958 303.04 125.886 303.088 125.832C303.136 125.778 303.201 125.748 303.269 125.748H309.047C309.115 125.748 309.181 125.778 309.229 125.832C309.277 125.886 309.304 125.958 309.304 126.034C309.304 126.11 309.277 126.182 309.229 126.236C309.181 126.29 309.115 126.32 309.047 126.32V126.32Z" fill="#292A2E"/>
<path d="M299.102 126.32H296.916C296.848 126.32 296.783 126.29 296.735 126.236C296.686 126.182 296.659 126.11 296.659 126.034C296.659 125.958 296.686 125.886 296.735 125.832C296.783 125.778 296.848 125.748 296.916 125.748H299.102C299.17 125.748 299.236 125.778 299.284 125.832C299.332 125.886 299.359 125.958 299.359 126.034C299.359 126.11 299.332 126.182 299.284 126.236C299.236 126.29 299.17 126.32 299.102 126.32Z" fill="#367CFF"/>
<path d="M299.102 131.474H296.916C296.848 131.474 296.783 131.444 296.735 131.39C296.686 131.336 296.659 131.264 296.659 131.188C296.659 131.112 296.686 131.04 296.735 130.986C296.783 130.932 296.848 130.902 296.916 130.902H299.102C299.17 130.902 299.236 130.932 299.284 130.986C299.332 131.04 299.359 131.112 299.359 131.188C299.359 131.264 299.332 131.336 299.284 131.39C299.236 131.444 299.17 131.474 299.102 131.474Z" fill="#367CFF"/>
<path d="M299.102 136.628H296.916C296.848 136.628 296.783 136.597 296.735 136.544C296.686 136.49 296.659 136.418 296.659 136.342C296.659 136.266 296.686 136.193 296.735 136.14C296.783 136.086 296.848 136.056 296.916 136.056H299.102C299.17 136.056 299.236 136.086 299.284 136.14C299.332 136.193 299.359 136.266 299.359 136.342C299.359 136.418 299.332 136.49 299.284 136.544C299.236 136.597 299.17 136.628 299.102 136.628Z" fill="#367CFF"/>
<path d="M299.102 141.781H296.916C296.848 141.781 296.783 141.751 296.735 141.698C296.686 141.644 296.659 141.571 296.659 141.496C296.659 141.42 296.686 141.347 296.735 141.294C296.783 141.24 296.848 141.21 296.916 141.21H299.102C299.17 141.21 299.236 141.24 299.284 141.294C299.332 141.347 299.359 141.42 299.359 141.496C299.359 141.571 299.332 141.644 299.284 141.698C299.236 141.751 299.17 141.781 299.102 141.781Z" fill="#367CFF"/>
<path d="M299.102 146.935H296.916C296.848 146.935 296.783 146.905 296.735 146.852C296.686 146.798 296.659 146.725 296.659 146.65C296.659 146.574 296.686 146.501 296.735 146.448C296.783 146.394 296.848 146.364 296.916 146.364H299.102C299.17 146.364 299.236 146.394 299.284 146.448C299.332 146.501 299.359 146.574 299.359 146.65C299.359 146.725 299.332 146.798 299.284 146.852C299.236 146.905 299.17 146.935 299.102 146.935Z" fill="#367CFF"/>
<path d="M299.102 152.089H296.916C296.848 152.089 296.783 152.059 296.735 152.006C296.686 151.952 296.659 151.879 296.659 151.804C296.659 151.728 296.686 151.655 296.735 151.601C296.783 151.548 296.848 151.518 296.916 151.518H299.102C299.17 151.518 299.236 151.548 299.284 151.601C299.332 151.655 299.359 151.728 299.359 151.804C299.359 151.879 299.332 151.952 299.284 152.006C299.236 152.059 299.17 152.089 299.102 152.089Z" fill="#367CFF"/>
<path d="M299.102 157.243H296.916C296.848 157.243 296.783 157.213 296.735 157.159C296.686 157.106 296.659 157.033 296.659 156.957C296.659 156.882 296.686 156.809 296.735 156.755C296.783 156.702 296.848 156.672 296.916 156.672H299.102C299.17 156.672 299.236 156.702 299.284 156.755C299.332 156.809 299.359 156.882 299.359 156.957C299.359 157.033 299.332 157.106 299.284 157.159C299.236 157.213 299.17 157.243 299.102 157.243Z" fill="#367CFF"/>
<path d="M299.102 162.397H296.916C296.848 162.397 296.783 162.367 296.735 162.313C296.686 162.26 296.659 162.187 296.659 162.111C296.659 162.036 296.686 161.963 296.735 161.909C296.783 161.856 296.848 161.826 296.916 161.826H299.102C299.17 161.826 299.236 161.856 299.284 161.909C299.332 161.963 299.359 162.036 299.359 162.111C299.359 162.187 299.332 162.26 299.284 162.313C299.236 162.367 299.17 162.397 299.102 162.397Z" fill="#367CFF"/>
<path d="M299.102 167.551H296.916C296.848 167.551 296.783 167.521 296.735 167.467C296.686 167.414 296.659 167.341 296.659 167.265C296.659 167.189 296.686 167.117 296.735 167.063C296.783 167.01 296.848 166.979 296.916 166.979H299.102C299.17 166.979 299.236 167.01 299.284 167.063C299.332 167.117 299.359 167.189 299.359 167.265C299.359 167.341 299.332 167.414 299.284 167.467C299.236 167.521 299.17 167.551 299.102 167.551Z" fill="#367CFF"/>
<path d="M299.102 172.705H296.916C296.848 172.705 296.783 172.675 296.735 172.621C296.686 172.567 296.659 172.495 296.659 172.419C296.659 172.343 296.686 172.271 296.735 172.217C296.783 172.163 296.848 172.133 296.916 172.133H299.102C299.17 172.133 299.236 172.163 299.284 172.217C299.332 172.271 299.359 172.343 299.359 172.419C299.359 172.495 299.332 172.567 299.284 172.621C299.236 172.675 299.17 172.705 299.102 172.705Z" fill="#367CFF"/>
<path d="M299.102 177.859H296.916C296.848 177.859 296.783 177.829 296.735 177.775C296.686 177.721 296.659 177.649 296.659 177.573C296.659 177.497 296.686 177.425 296.735 177.371C296.783 177.317 296.848 177.287 296.916 177.287H299.102C299.17 177.287 299.236 177.317 299.284 177.371C299.332 177.425 299.359 177.497 299.359 177.573C299.359 177.649 299.332 177.721 299.284 177.775C299.236 177.829 299.17 177.859 299.102 177.859Z" fill="#367CFF"/>
<path d="M299.102 183.013H296.916C296.848 183.013 296.783 182.982 296.735 182.929C296.686 182.875 296.659 182.803 296.659 182.727C296.659 182.651 296.686 182.578 296.735 182.525C296.783 182.471 296.848 182.441 296.916 182.441H299.102C299.17 182.441 299.236 182.471 299.284 182.525C299.332 182.578 299.359 182.651 299.359 182.727C299.359 182.803 299.332 182.875 299.284 182.929C299.236 182.982 299.17 183.013 299.102 183.013Z" fill="#367CFF"/>
<path d="M299.102 188.167H296.916C296.848 188.167 296.783 188.136 296.735 188.083C296.686 188.029 296.659 187.957 296.659 187.881C296.659 187.805 296.686 187.732 296.735 187.679C296.783 187.625 296.848 187.595 296.916 187.595H299.102C299.17 187.595 299.236 187.625 299.284 187.679C299.332 187.732 299.359 187.805 299.359 187.881C299.359 187.957 299.332 188.029 299.284 188.083C299.236 188.136 299.17 188.167 299.102 188.167Z" fill="#367CFF"/>
<path d="M299.102 193.321H296.916C296.848 193.321 296.783 193.291 296.735 193.237C296.686 193.184 296.659 193.111 296.659 193.035C296.659 192.959 296.686 192.887 296.735 192.833C296.783 192.78 296.848 192.75 296.916 192.75H299.102C299.17 192.75 299.236 192.78 299.284 192.833C299.332 192.887 299.359 192.959 299.359 193.035C299.359 193.111 299.332 193.184 299.284 193.237C299.236 193.291 299.17 193.321 299.102 193.321Z" fill="#367CFF"/>
<path d="M313.665 131.473H308.4C308.332 131.473 308.267 131.443 308.219 131.39C308.171 131.336 308.144 131.264 308.144 131.188C308.144 131.112 308.171 131.039 308.219 130.986C308.267 130.932 308.332 130.902 308.4 130.902H313.665C313.733 130.902 313.798 130.932 313.846 130.986C313.895 131.039 313.922 131.112 313.922 131.188C313.922 131.264 313.895 131.336 313.846 131.39C313.798 131.443 313.733 131.473 313.665 131.473V131.473Z" fill="#292A2E"/>
<path d="M309.047 162.397H303.269C303.201 162.397 303.136 162.367 303.088 162.313C303.04 162.26 303.013 162.187 303.013 162.111C303.013 162.035 303.04 161.963 303.088 161.909C303.136 161.856 303.201 161.825 303.269 161.825H309.047C309.115 161.825 309.181 161.856 309.229 161.909C309.277 161.963 309.304 162.035 309.304 162.111C309.304 162.187 309.277 162.26 309.229 162.313C309.181 162.367 309.115 162.397 309.047 162.397V162.397Z" fill="#292A2E"/>
<path d="M313.665 167.551H308.4C308.332 167.551 308.267 167.521 308.219 167.467C308.171 167.413 308.144 167.341 308.144 167.265C308.144 167.189 308.171 167.116 308.219 167.063C308.267 167.009 308.332 166.979 308.4 166.979H313.665C313.733 166.979 313.798 167.009 313.846 167.063C313.895 167.116 313.922 167.189 313.922 167.265C313.922 167.341 313.895 167.413 313.846 167.467C313.798 167.521 313.733 167.551 313.665 167.551V167.551Z" fill="#292A2E"/>
<path d="M343.425 136.628H311.992C311.924 136.628 311.859 136.597 311.811 136.544C311.762 136.49 311.735 136.418 311.735 136.342C311.735 136.266 311.762 136.193 311.811 136.14C311.859 136.086 311.924 136.056 311.992 136.056H343.425C343.493 136.056 343.558 136.086 343.607 136.14C343.655 136.193 343.682 136.266 343.682 136.342C343.682 136.418 343.655 136.49 343.607 136.544C343.558 136.597 343.493 136.628 343.425 136.628V136.628Z" fill="#292A2E"/>
<path d="M371.177 136.628H348.98C348.912 136.628 348.847 136.597 348.799 136.544C348.751 136.49 348.724 136.418 348.724 136.342C348.724 136.266 348.751 136.193 348.799 136.14C348.847 136.086 348.912 136.056 348.98 136.056H371.177C371.245 136.056 371.311 136.086 371.359 136.14C371.407 136.193 371.434 136.266 371.434 136.342C371.434 136.418 371.407 136.49 371.359 136.544C371.311 136.597 371.245 136.628 371.177 136.628Z" fill="#0CBC8B"/>
<path d="M383.09 136.628H376.286C376.218 136.628 376.153 136.597 376.104 136.544C376.056 136.49 376.029 136.418 376.029 136.342C376.029 136.266 376.056 136.193 376.104 136.14C376.153 136.086 376.218 136.056 376.286 136.056H383.09C383.158 136.056 383.223 136.086 383.271 136.14C383.319 136.193 383.346 136.266 383.346 136.342C383.346 136.418 383.319 136.49 383.271 136.544C383.223 136.597 383.158 136.628 383.09 136.628Z" fill="#292A2E"/>
<path d="M358.818 146.935H311.992C311.924 146.935 311.859 146.905 311.811 146.851C311.762 146.798 311.735 146.725 311.735 146.649C311.735 146.574 311.762 146.501 311.811 146.447C311.859 146.394 311.924 146.364 311.992 146.364H358.818C358.886 146.364 358.952 146.394 359 146.447C359.048 146.501 359.075 146.574 359.075 146.649C359.075 146.725 359.048 146.798 359 146.851C358.952 146.905 358.886 146.935 358.818 146.935V146.935Z" fill="#292A2E"/>
<path d="M371.177 146.935H364.373C364.305 146.935 364.24 146.905 364.192 146.851C364.144 146.798 364.117 146.725 364.117 146.649C364.117 146.574 364.144 146.501 364.192 146.447C364.24 146.394 364.305 146.364 364.373 146.364H371.177C371.245 146.364 371.311 146.394 371.359 146.447C371.407 146.501 371.434 146.574 371.434 146.649C371.434 146.725 371.407 146.798 371.359 146.851C371.311 146.905 371.245 146.935 371.177 146.935Z" fill="#367CFF"/>
<path d="M317.77 141.781H311.992C311.924 141.781 311.859 141.751 311.811 141.698C311.762 141.644 311.735 141.571 311.735 141.496C311.735 141.42 311.762 141.347 311.811 141.294C311.859 141.24 311.924 141.21 311.992 141.21H317.77C317.838 141.21 317.903 141.24 317.951 141.294C318 141.347 318.027 141.42 318.027 141.496C318.027 141.571 318 141.644 317.951 141.698C317.903 141.751 317.838 141.781 317.77 141.781V141.781Z" fill="#0CBC8B"/>
<path d="M355.784 141.781H323.325C323.257 141.781 323.192 141.751 323.144 141.698C323.096 141.644 323.069 141.571 323.069 141.496C323.069 141.42 323.096 141.347 323.144 141.294C323.192 141.24 323.257 141.21 323.325 141.21H355.784C355.852 141.21 355.917 141.24 355.966 141.294C356.014 141.347 356.041 141.42 356.041 141.496C356.041 141.571 356.014 141.644 355.966 141.698C355.917 141.751 355.852 141.781 355.784 141.781Z" fill="#367CFF"/>
<path d="M383.134 141.781H361.962C361.894 141.781 361.829 141.751 361.78 141.698C361.732 141.644 361.705 141.571 361.705 141.496C361.705 141.42 361.732 141.347 361.78 141.294C361.829 141.24 361.894 141.21 361.962 141.21H383.133C383.201 141.21 383.266 141.24 383.314 141.294C383.362 141.347 383.39 141.42 383.39 141.496C383.39 141.571 383.362 141.644 383.314 141.698C383.266 141.751 383.201 141.781 383.133 141.781H383.134Z" fill="#292A2E"/>
<path d="M343.425 152.089H311.992C311.924 152.089 311.859 152.059 311.811 152.006C311.762 151.952 311.735 151.879 311.735 151.804C311.735 151.728 311.762 151.655 311.811 151.601C311.859 151.548 311.924 151.518 311.992 151.518H343.425C343.493 151.518 343.558 151.548 343.607 151.601C343.655 151.655 343.682 151.728 343.682 151.804C343.682 151.879 343.655 151.952 343.607 152.006C343.558 152.059 343.493 152.089 343.425 152.089V152.089Z" fill="#292A2E"/>
<path d="M360.915 152.089H348.98C348.912 152.089 348.847 152.059 348.799 152.006C348.751 151.952 348.724 151.879 348.724 151.804C348.724 151.728 348.751 151.655 348.799 151.601C348.847 151.548 348.912 151.518 348.98 151.518H360.915C360.983 151.518 361.049 151.548 361.097 151.601C361.145 151.655 361.172 151.728 361.172 151.804C361.172 151.879 361.145 151.952 361.097 152.006C361.049 152.059 360.983 152.089 360.915 152.089Z" fill="#0CBC8B"/>
<path d="M383.089 152.089H366.024C365.956 152.089 365.89 152.059 365.842 152.006C365.794 151.952 365.767 151.879 365.767 151.804C365.767 151.728 365.794 151.655 365.842 151.601C365.89 151.548 365.956 151.518 366.024 151.518H383.089C383.157 151.518 383.223 151.548 383.271 151.601C383.319 151.655 383.346 151.728 383.346 151.804C383.346 151.879 383.319 151.952 383.271 152.006C383.223 152.059 383.157 152.089 383.089 152.089Z" fill="#292A2E"/>
<path d="M317.77 157.243H311.992C311.924 157.243 311.859 157.213 311.811 157.159C311.762 157.106 311.735 157.033 311.735 156.957C311.735 156.882 311.762 156.809 311.811 156.755C311.859 156.702 311.924 156.672 311.992 156.672H317.77C317.838 156.672 317.903 156.702 317.951 156.755C318 156.809 318.027 156.882 318.027 156.957C318.027 157.033 318 157.106 317.951 157.159C317.903 157.213 317.838 157.243 317.77 157.243V157.243Z" fill="#367CFF"/>
<path d="M355.784 157.243H323.325C323.257 157.243 323.192 157.213 323.144 157.159C323.096 157.106 323.069 157.033 323.069 156.957C323.069 156.882 323.096 156.809 323.144 156.755C323.192 156.702 323.257 156.672 323.325 156.672H355.784C355.852 156.672 355.917 156.702 355.966 156.755C356.014 156.809 356.041 156.882 356.041 156.957C356.041 157.033 356.014 157.106 355.966 157.159C355.917 157.213 355.852 157.243 355.784 157.243Z" fill="#0CBC8B"/>
<path d="M342.399 177.859H310.966C310.898 177.859 310.832 177.829 310.784 177.775C310.736 177.722 310.709 177.649 310.709 177.573C310.709 177.498 310.736 177.425 310.784 177.371C310.832 177.318 310.898 177.288 310.966 177.288H342.399C342.467 177.288 342.532 177.318 342.58 177.371C342.628 177.425 342.655 177.498 342.655 177.573C342.655 177.649 342.628 177.722 342.58 177.775C342.532 177.829 342.467 177.859 342.399 177.859V177.859Z" fill="#292A2E"/>
<path d="M370.151 177.859H347.954C347.886 177.859 347.821 177.829 347.773 177.775C347.725 177.722 347.698 177.649 347.698 177.573C347.698 177.498 347.725 177.425 347.773 177.371C347.821 177.318 347.886 177.288 347.954 177.288H370.151C370.219 177.288 370.284 177.318 370.332 177.371C370.38 177.425 370.407 177.498 370.407 177.573C370.407 177.649 370.38 177.722 370.332 177.775C370.284 177.829 370.219 177.859 370.151 177.859Z" fill="#367CFF"/>
<path d="M327.006 172.705H310.966C310.898 172.705 310.832 172.675 310.784 172.621C310.736 172.568 310.709 172.495 310.709 172.419C310.709 172.343 310.736 172.271 310.784 172.217C310.832 172.164 310.898 172.134 310.966 172.134H327.006C327.074 172.134 327.139 172.164 327.187 172.217C327.235 172.271 327.262 172.343 327.262 172.419C327.262 172.495 327.235 172.568 327.187 172.621C327.139 172.675 327.074 172.705 327.006 172.705V172.705Z" fill="#0CBC8B"/>
<path d="M354.758 172.705H332.561C332.493 172.705 332.428 172.675 332.38 172.621C332.332 172.568 332.305 172.495 332.305 172.419C332.305 172.343 332.332 172.271 332.38 172.217C332.428 172.164 332.493 172.134 332.561 172.134H354.758C354.826 172.134 354.891 172.164 354.939 172.217C354.987 172.271 355.014 172.343 355.014 172.419C355.014 172.495 354.987 172.568 354.939 172.621C354.891 172.675 354.826 172.705 354.758 172.705Z" fill="#367CFF"/>
<path d="M382.108 172.705H360.936C360.868 172.705 360.802 172.675 360.754 172.621C360.706 172.568 360.679 172.495 360.679 172.419C360.679 172.343 360.706 172.271 360.754 172.217C360.802 172.164 360.868 172.134 360.936 172.134H382.107C382.175 172.134 382.24 172.164 382.288 172.217C382.336 172.271 382.363 172.343 382.363 172.419C382.363 172.495 382.336 172.568 382.288 172.621C382.24 172.675 382.175 172.705 382.107 172.705H382.108Z" fill="#292A2E"/>
<path d="M357.792 188.167H310.966C310.898 188.167 310.832 188.137 310.784 188.083C310.736 188.03 310.709 187.957 310.709 187.881C310.709 187.806 310.736 187.733 310.784 187.679C310.832 187.626 310.898 187.596 310.966 187.596H357.792C357.86 187.596 357.925 187.626 357.973 187.679C358.021 187.733 358.048 187.806 358.048 187.881C358.048 187.957 358.021 188.03 357.973 188.083C357.925 188.137 357.86 188.167 357.792 188.167V188.167Z" fill="#367CFF"/>
<path d="M370.151 188.167H363.347C363.279 188.167 363.214 188.137 363.166 188.083C363.118 188.03 363.091 187.957 363.091 187.881C363.091 187.806 363.118 187.733 363.166 187.679C363.214 187.626 363.279 187.596 363.347 187.596H370.151C370.219 187.596 370.284 187.626 370.333 187.679C370.381 187.733 370.408 187.806 370.408 187.881C370.408 187.957 370.381 188.03 370.333 188.083C370.284 188.137 370.219 188.167 370.151 188.167Z" fill="#292A2E"/>
<path d="M316.744 183.014H310.966C310.898 183.014 310.832 182.983 310.784 182.93C310.736 182.876 310.709 182.804 310.709 182.728C310.709 182.652 310.736 182.579 310.784 182.526C310.832 182.472 310.898 182.442 310.966 182.442H316.744C316.812 182.442 316.877 182.472 316.925 182.526C316.973 182.579 317 182.652 317 182.728C317 182.804 316.973 182.876 316.925 182.93C316.877 182.983 316.812 183.014 316.744 183.014V183.014Z" fill="#367CFF"/>
<path d="M354.758 183.014H322.299C322.231 183.014 322.166 182.983 322.118 182.93C322.07 182.876 322.043 182.804 322.043 182.728C322.043 182.652 322.07 182.579 322.118 182.526C322.166 182.472 322.231 182.442 322.299 182.442H354.758C354.826 182.442 354.891 182.472 354.939 182.526C354.988 182.579 355.015 182.652 355.015 182.728C355.015 182.804 354.988 182.876 354.939 182.93C354.891 182.983 354.826 183.014 354.758 183.014Z" fill="#292A2E"/>
<path d="M382.108 183.014H360.936C360.868 183.014 360.802 182.983 360.754 182.93C360.706 182.876 360.679 182.804 360.679 182.728C360.679 182.652 360.706 182.579 360.754 182.526C360.802 182.472 360.868 182.442 360.936 182.442H382.107C382.175 182.442 382.24 182.472 382.288 182.526C382.336 182.579 382.363 182.652 382.363 182.728C382.363 182.804 382.336 182.876 382.288 182.93C382.24 182.983 382.175 183.014 382.107 183.014H382.108Z" fill="#0CBC8B"/>
<path d="M342.399 193.321H310.966C310.898 193.321 310.832 193.291 310.784 193.237C310.736 193.184 310.709 193.111 310.709 193.035C310.709 192.959 310.736 192.887 310.784 192.833C310.832 192.78 310.898 192.75 310.966 192.75H342.399C342.467 192.75 342.532 192.78 342.58 192.833C342.628 192.887 342.655 192.959 342.655 193.035C342.655 193.111 342.628 193.184 342.58 193.237C342.532 193.291 342.467 193.321 342.399 193.321V193.321Z" fill="#0CBC8B"/>
<path d="M359.889 193.321H347.954C347.886 193.321 347.821 193.291 347.773 193.237C347.725 193.184 347.698 193.111 347.698 193.035C347.698 192.96 347.725 192.887 347.773 192.833C347.821 192.78 347.886 192.75 347.954 192.75H359.889C359.957 192.75 360.022 192.78 360.07 192.833C360.118 192.887 360.145 192.96 360.145 193.035C360.145 193.111 360.118 193.184 360.07 193.237C360.022 193.291 359.957 193.321 359.889 193.321Z" fill="#292A2E"/>
<path d="M382.063 193.321H364.997C364.929 193.321 364.864 193.291 364.816 193.237C364.768 193.184 364.741 193.111 364.741 193.035C364.741 192.96 364.768 192.887 364.816 192.833C364.864 192.78 364.929 192.75 364.997 192.75H382.063C382.131 192.75 382.196 192.78 382.244 192.833C382.293 192.887 382.32 192.96 382.32 193.035C382.32 193.111 382.293 193.184 382.244 193.237C382.196 193.291 382.131 193.321 382.063 193.321Z" fill="#367CFF"/>
<path d="M294.479 198.836C294.411 198.836 294.346 198.806 294.298 198.752C294.25 198.699 294.223 198.626 294.223 198.55V117.323C294.223 117.247 294.25 117.174 294.298 117.121C294.346 117.067 294.411 117.037 294.479 117.037C294.547 117.037 294.613 117.067 294.661 117.121C294.709 117.174 294.736 117.247 294.736 117.323V198.55C294.736 198.626 294.709 198.699 294.661 198.752C294.613 198.806 294.547 198.836 294.479 198.836Z" fill="#292A2E"/>
<path d="M380.402 111.893C382.675 111.893 384.518 109.84 384.518 107.309C384.518 104.778 382.675 102.725 380.402 102.725C378.129 102.725 376.286 104.778 376.286 107.309C376.286 109.84 378.129 111.893 380.402 111.893Z" fill="white"/>
<path d="M282.745 120.891H271.635C271.567 120.891 271.502 120.861 271.454 120.808C271.406 120.754 271.379 120.682 271.379 120.606C271.379 120.53 271.406 120.457 271.454 120.404C271.502 120.35 271.567 120.32 271.635 120.32H282.745C282.813 120.32 282.878 120.35 282.926 120.404C282.975 120.457 283.002 120.53 283.002 120.606C283.002 120.682 282.975 120.754 282.926 120.808C282.878 120.861 282.813 120.891 282.745 120.891Z" fill="#292A2E"/>
<path d="M279.398 126.526H271.635C271.567 126.526 271.502 126.496 271.454 126.443C271.406 126.389 271.379 126.317 271.379 126.241C271.379 126.165 271.406 126.092 271.454 126.039C271.502 125.985 271.567 125.955 271.635 125.955H279.398C279.466 125.955 279.531 125.985 279.579 126.039C279.628 126.092 279.655 126.165 279.655 126.241C279.655 126.317 279.628 126.389 279.579 126.443C279.531 126.496 279.466 126.526 279.398 126.526V126.526Z" fill="#292A2E"/>
<path d="M286.225 132.161H271.635C271.567 132.161 271.502 132.131 271.454 132.078C271.406 132.024 271.379 131.952 271.379 131.876C271.379 131.8 271.406 131.727 271.454 131.674C271.502 131.62 271.567 131.59 271.635 131.59H286.225C286.293 131.59 286.358 131.62 286.406 131.674C286.454 131.727 286.481 131.8 286.481 131.876C286.481 131.952 286.454 132.024 286.406 132.078C286.358 132.131 286.293 132.161 286.225 132.161V132.161Z" fill="#292A2E"/>
<path d="M288.947 137.797H276.766C276.698 137.797 276.633 137.767 276.585 137.713C276.537 137.659 276.51 137.587 276.51 137.511C276.51 137.435 276.537 137.363 276.585 137.309C276.633 137.255 276.698 137.225 276.766 137.225H288.947C289.016 137.225 289.081 137.255 289.129 137.309C289.177 137.363 289.204 137.435 289.204 137.511C289.204 137.587 289.177 137.659 289.129 137.713C289.081 137.767 289.016 137.797 288.947 137.797Z" fill="#292A2E"/>
<path d="M283.057 143.432H276.766C276.698 143.432 276.633 143.402 276.585 143.349C276.537 143.295 276.51 143.222 276.51 143.147C276.51 143.071 276.537 142.998 276.585 142.945C276.633 142.891 276.698 142.861 276.766 142.861H283.057C283.125 142.861 283.19 142.891 283.238 142.945C283.287 142.998 283.314 143.071 283.314 143.147C283.314 143.222 283.287 143.295 283.238 143.349C283.19 143.402 283.125 143.432 283.057 143.432Z" fill="#292A2E"/>
<path d="M287.876 149.067H276.766C276.698 149.067 276.633 149.037 276.585 148.984C276.537 148.93 276.51 148.857 276.51 148.782C276.51 148.706 276.537 148.633 276.585 148.58C276.633 148.526 276.698 148.496 276.766 148.496H287.876C287.944 148.496 288.009 148.526 288.058 148.58C288.106 148.633 288.133 148.706 288.133 148.782C288.133 148.857 288.106 148.93 288.058 148.984C288.009 149.037 287.944 149.067 287.876 149.067V149.067Z" fill="#292A2E"/>
<path d="M280.202 154.702H271.635C271.567 154.702 271.502 154.672 271.454 154.619C271.406 154.565 271.379 154.492 271.379 154.417C271.379 154.341 271.406 154.268 271.454 154.215C271.502 154.161 271.567 154.131 271.635 154.131H280.202C280.27 154.131 280.335 154.161 280.383 154.215C280.431 154.268 280.458 154.341 280.458 154.417C280.458 154.492 280.431 154.565 280.383 154.619C280.335 154.672 280.27 154.702 280.202 154.702Z" fill="#292A2E"/>
<path d="M277.257 160.337H271.635C271.567 160.337 271.502 160.306 271.454 160.253C271.406 160.199 271.379 160.127 271.379 160.051C271.379 159.975 271.406 159.902 271.454 159.849C271.502 159.795 271.567 159.765 271.635 159.765H277.257C277.325 159.765 277.39 159.795 277.438 159.849C277.486 159.902 277.513 159.975 277.513 160.051C277.513 160.127 277.486 160.199 277.438 160.253C277.39 160.306 277.325 160.337 277.257 160.337V160.337Z" fill="#292A2E"/>
<path d="M298.753 119.683V119.786L301.96 121.111C302.006 121.132 302.045 121.168 302.073 121.213C302.1 121.259 302.115 121.313 302.114 121.368V121.465C302.115 121.508 302.106 121.551 302.088 121.589C302.07 121.627 302.044 121.659 302.012 121.683C301.979 121.708 301.941 121.724 301.902 121.729C301.862 121.734 301.822 121.728 301.785 121.711L298.163 120.134C298.118 120.114 298.079 120.079 298.052 120.035C298.025 119.99 298.01 119.937 298.009 119.883V119.591C298.009 119.537 298.024 119.484 298.051 119.439C298.079 119.394 298.118 119.359 298.163 119.34L301.785 117.757C301.815 117.746 301.846 117.74 301.878 117.74C301.925 117.741 301.972 117.757 302.012 117.786C302.044 117.81 302.07 117.844 302.088 117.883C302.106 117.922 302.115 117.965 302.114 118.009V118.106C302.115 118.16 302.101 118.214 302.073 118.259C302.046 118.304 302.006 118.338 301.96 118.357L298.753 119.683Z" fill="#367CFF"/>
<path d="M305.11 116.591L303.191 123.134C303.176 123.188 303.145 123.236 303.103 123.27C303.062 123.304 303.012 123.322 302.96 123.322C302.923 123.323 302.886 123.313 302.853 123.294C302.82 123.275 302.792 123.248 302.771 123.214C302.748 123.18 302.732 123.141 302.725 123.099C302.718 123.057 302.72 123.014 302.73 122.974L304.649 116.437C304.665 116.381 304.696 116.333 304.739 116.298C304.781 116.263 304.832 116.244 304.885 116.243C304.922 116.243 304.958 116.252 304.991 116.271C305.024 116.29 305.053 116.318 305.074 116.351C305.097 116.385 305.113 116.425 305.119 116.466C305.125 116.508 305.122 116.551 305.11 116.591V116.591Z" fill="#367CFF"/>
<path d="M309.823 119.591V119.882C309.823 119.936 309.809 119.989 309.783 120.033C309.756 120.078 309.718 120.113 309.674 120.134L306.046 121.711C306.01 121.727 305.971 121.733 305.932 121.728C305.894 121.723 305.857 121.707 305.825 121.682C305.793 121.659 305.766 121.627 305.747 121.589C305.728 121.551 305.718 121.508 305.718 121.465V121.368C305.717 121.312 305.732 121.257 305.761 121.211C305.789 121.165 305.83 121.13 305.877 121.111L309.084 119.785V119.682L305.877 118.357C305.83 118.339 305.789 118.305 305.76 118.26C305.731 118.215 305.717 118.161 305.718 118.105V118.008C305.718 117.964 305.728 117.921 305.747 117.882C305.765 117.843 305.792 117.81 305.825 117.785C305.865 117.757 305.911 117.741 305.959 117.74C305.989 117.739 306.018 117.745 306.046 117.757L309.674 119.339C309.719 119.359 309.757 119.394 309.784 119.439C309.81 119.484 309.824 119.537 309.823 119.591Z" fill="#367CFF"/>
<path d="M171.521 110.36C171.524 108.088 171.072 105.839 170.193 103.744C169.313 101.65 168.023 99.7525 166.4 98.1639C164.776 96.5753 162.851 95.3276 160.737 94.4941C158.624 93.6606 156.366 93.2583 154.095 93.3107C144.875 93.518 137.428 101.168 137.454 110.39C137.458 112.771 137.963 115.124 138.935 117.296C139.908 119.469 141.326 121.413 143.099 123.003C146.912 126.433 149.176 131.257 149.17 136.386V136.405L159.745 136.417V136.399C159.751 131.276 162.014 126.454 165.834 123.04C167.623 121.447 169.054 119.494 170.034 117.308C171.015 115.123 171.521 112.755 171.521 110.36V110.36Z" fill="#00D2B9"/>
<path d="M159.584 112.051C159.409 111.826 159.105 111.686 158.68 111.638C157.96 111.557 157.139 111.965 156.433 112.76L156.364 112.835L156.311 112.75C156.216 112.596 156.108 112.451 155.988 112.316C155.48 111.747 154.564 111.165 153.08 111.623C152.581 111.769 152.123 112.026 151.739 112.377L151.688 112.425L151.636 112.377C151.517 112.269 151.388 112.172 151.251 112.089C150.417 111.581 149.487 111.703 148.854 111.894C148.678 111.948 148.529 112.064 148.432 112.22C148.336 112.377 148.301 112.563 148.332 112.744L152.477 136.434C152.484 136.474 152.507 136.509 152.54 136.533C152.573 136.556 152.613 136.565 152.653 136.558C152.693 136.552 152.729 136.529 152.752 136.496C152.775 136.463 152.784 136.422 152.777 136.382L148.632 112.692C148.612 112.585 148.634 112.474 148.691 112.38C148.748 112.287 148.837 112.218 148.942 112.186C149.516 112.012 150.354 111.9 151.092 112.35C151.213 112.423 151.327 112.509 151.432 112.604L151.483 112.652L151.441 112.706C151.088 113.172 150.891 113.738 150.878 114.322C150.838 115.315 151.269 116.307 151.838 116.532C151.948 116.577 152.068 116.591 152.185 116.573C152.302 116.554 152.412 116.504 152.503 116.427C152.696 116.269 152.991 115.85 152.801 114.829C152.632 113.93 152.342 113.216 151.935 112.702L151.891 112.647L151.943 112.598C152.294 112.279 152.713 112.045 153.169 111.915C154.221 111.591 155.117 111.798 155.76 112.519C155.904 112.682 156.029 112.86 156.134 113.05L156.158 113.093L156.129 113.132C156.073 113.208 156.018 113.285 155.965 113.364C155.35 114.277 154.86 115.576 155.238 116.273C155.312 116.409 155.424 116.519 155.559 116.593C155.695 116.666 155.849 116.698 156.003 116.686H156.017C156.33 116.682 156.593 116.473 156.756 116.102C157.075 115.376 156.981 114.145 156.536 113.173L156.516 113.13L156.546 113.093C157.162 112.348 157.863 111.932 158.489 111.932C158.543 111.932 158.594 111.935 158.646 111.94C159.447 112.031 159.434 112.446 159.432 112.494L156.047 136.392C156.044 136.412 156.045 136.432 156.05 136.452C156.055 136.471 156.064 136.489 156.076 136.505C156.088 136.521 156.103 136.535 156.12 136.545C156.138 136.555 156.157 136.561 156.176 136.564C156.216 136.569 156.256 136.558 156.288 136.534C156.32 136.51 156.341 136.474 156.348 136.435L159.731 112.54C159.748 112.364 159.695 112.189 159.584 112.051ZM152.501 114.884C152.669 115.783 152.424 116.098 152.31 116.191C152.246 116.246 152.166 116.276 152.083 116.276C152.038 116.276 151.993 116.267 151.95 116.251C151.558 116.094 151.144 115.269 151.181 114.335C151.197 113.844 151.352 113.368 151.629 112.962L151.688 112.877L151.752 112.96C152.142 113.538 152.398 114.195 152.501 114.884V114.884ZM156.478 115.98C156.362 116.242 156.205 116.378 156.012 116.381H155.983C155.887 116.392 155.791 116.373 155.706 116.328C155.62 116.283 155.551 116.214 155.505 116.129C155.243 115.642 155.548 114.526 156.218 113.534L156.3 113.412L156.361 113.537C156.686 114.388 156.735 115.392 156.478 115.979V115.98Z" fill="white"/>
<path d="M149.177 136.39L159.752 136.401L159.751 137.019C159.75 138.421 159.191 139.765 158.199 140.756C157.206 141.747 155.861 142.302 154.458 142.301V142.301C153.056 142.3 151.712 141.741 150.721 140.749C149.73 139.756 149.175 138.411 149.176 137.008L149.177 136.39V136.39Z" fill="#262626"/>
</svg>
