<svg width="288" height="512" viewBox="0 0 288 512" fill="none" xmlns="http://www.w3.org/2000/svg">
<path d="M88.5396 71.9688C87.8911 71.9688 87.231 71.9102 86.5903 71.7813C85.9497 71.6485 85.3208 71.461 84.7114 71.211C84.1099 70.961 83.5317 70.6485 82.9888 70.2891C82.4419 69.922 81.9302 69.5118 81.4692 69.0509C81.0083 68.5782 80.5903 68.0704 80.231 67.5313C79.8716 66.9806 79.5591 66.3985 79.3091 65.8009C79.0591 65.1993 78.8599 64.5704 78.7388 63.9298C78.6099 63.2813 78.5396 62.629 78.5396 61.9806C78.5396 61.3204 78.6099 60.672 78.7388 60.0196C78.8599 59.379 79.0591 58.7501 79.3091 58.1485C79.5591 57.5509 79.8716 56.9688 80.231 56.422C80.5903 55.879 81.0083 55.3595 81.4692 54.8985C81.9302 54.4415 82.4419 54.0196 82.9888 53.6602C83.5317 53.3009 84.1099 52.9884 84.7114 52.7384C85.3208 52.4884 85.9497 52.3009 86.5903 52.172C89.8403 51.5196 93.2896 52.5782 95.6099 54.8985C96.0708 55.3595 96.4888 55.879 96.8481 56.422C97.2114 56.9688 97.52 57.5509 97.77 58.1485C98.02 58.7501 98.2114 59.379 98.3403 60.0196C98.4692 60.672 98.5396 61.3204 98.5396 61.9806C98.5396 62.629 98.4692 63.2813 98.3403 63.9298C98.2114 64.5704 98.02 65.1993 97.77 65.8009C97.52 66.3985 97.2114 66.9806 96.8481 67.5313C96.4888 68.0704 96.0708 68.5782 95.6099 69.0509C93.7505 70.9102 91.1685 71.9688 88.5396 71.9688Z" fill="black"/>
<path d="M242.035 0H45.3441C20.3442 0 0.000488281 20.3398 0.000488281 45.3437V466.655C0.000488281 491.659 20.3442 511.999 45.3441 511.999H242.035C267.035 511.999 287.379 491.659 287.379 466.655V45.3437C287.379 20.3398 267.035 0 242.035 0V0ZM45.3441 20H242.035C256.008 20 267.379 31.371 267.379 45.3437V51.9765H136.36C130.836 51.9765 126.36 56.453 126.36 61.9764C126.36 67.496 130.836 71.9764 136.36 71.9764H267.379V430.011H20.0004V71.9764H46.3598C51.8832 71.9764 56.3597 67.496 56.3597 61.9764C56.3597 56.453 51.8832 51.9765 46.3598 51.9765H20.0004V45.3437C20.0004 31.371 31.3715 20 45.3441 20V20ZM267.379 466.655C267.379 480.628 256.008 491.999 242.035 491.999H45.3441C31.3715 491.999 20.0004 480.628 20.0004 466.655V450.011H267.379V466.655Z" fill="black"/>
<path d="M122.821 225.617H52.2505C46.7271 225.617 42.2505 221.14 42.2505 215.617V145.051C42.2505 139.527 46.7271 135.051 52.2505 135.051H122.821C128.344 135.051 132.821 139.527 132.821 145.051V215.617C132.821 221.14 128.344 225.617 122.821 225.617ZM62.2505 205.617H112.821V155.051H62.2505V205.617Z" fill="black"/>
<path d="M235.129 225.617H164.559C159.035 225.617 154.559 221.14 154.559 215.617V145.051C154.559 139.527 159.035 135.051 164.559 135.051H235.129C240.653 135.051 245.129 139.527 245.129 145.051V215.617C245.129 221.14 240.653 225.617 235.129 225.617ZM174.559 205.617H225.129V155.051H174.559V205.617Z" fill="black"/>
<path d="M122.821 336.925H52.2505C46.7271 336.925 42.2505 332.449 42.2505 326.925V256.355C42.2505 250.835 46.7271 246.355 52.2505 246.355H122.821C128.344 246.355 132.821 250.835 132.821 256.355V326.925C132.821 332.449 128.344 336.925 122.821 336.925ZM62.2505 316.925H112.821V266.355H62.2505V316.925Z" fill="black"/>
<path d="M235.129 336.925H164.559C159.035 336.925 154.559 332.449 154.559 326.925V256.355C154.559 250.835 159.035 246.355 164.559 246.355H235.129C240.653 246.355 245.129 250.835 245.129 256.355V326.925C245.129 332.449 240.653 336.925 235.129 336.925ZM174.559 316.925H225.129V266.355H174.559V316.925Z" fill="black"/>
<path d="M156.024 481.003H131.356C125.832 481.003 121.356 476.526 121.356 471.003C121.356 465.479 125.832 461.003 131.356 461.003H156.024C161.547 461.003 166.024 465.479 166.024 471.003C166.024 476.526 161.547 481.003 156.024 481.003Z" fill="black"/>
<path d="M176.692 380.999H110.692C105.168 380.999 100.692 376.523 100.692 370.999C100.692 365.476 105.168 360.999 110.692 360.999H176.692C182.211 360.999 186.692 365.476 186.692 370.999C186.692 376.523 182.211 380.999 176.692 380.999Z" fill="black"/>
</svg>
