<svg xmlns="http://www.w3.org/2000/svg" version="1.1" xmlns:xlink="http://www.w3.org/1999/xlink" xmlns:svgjs="http://svgjs.com/svgjs" width="512" height="512" x="0" y="0" viewBox="0 0 512 512" style="enable-background:new 0 0 512 512" xml:space="preserve" class=""><g><g xmlns="http://www.w3.org/2000/svg"><path d="m7.5 301.708c4.143 0 7.5-3.358 7.5-7.5v-133.043h372.053c4.143 0 7.5-3.358 7.5-7.5s-3.357-7.5-7.5-7.5h-372.053v-46.992c0-6.919 3.033-13.453 8.323-17.926 3.162-2.675 3.558-7.407.883-10.57-2.674-3.163-7.406-3.559-10.57-.883-8.666 7.33-13.636 18.038-13.636 29.379v195.034c0 4.143 3.357 7.501 7.5 7.501z" fill="#000000" data-original="#000000" class=""></path><path d="m198.9 193.594c-3.193-2.64-7.921-2.19-10.56 1.003l-45.135 54.611c-2.292 2.773-2.292 6.783 0 9.556l45.135 54.612c1.483 1.795 3.626 2.723 5.785 2.722 1.683 0 3.376-.563 4.774-1.719 3.192-2.639 3.642-7.366 1.003-10.559l-41.187-49.834 41.187-49.833c2.64-3.193 2.191-7.921-1.002-10.559z" fill="#000000" data-original="#000000" class=""></path><path d="m313.268 314.379c1.398 1.156 3.092 1.719 4.774 1.719 2.159 0 4.302-.928 5.785-2.722l45.135-54.612c2.292-2.773 2.292-6.783 0-9.556l-45.135-54.611c-2.64-3.193-7.366-3.642-10.56-1.003-3.192 2.639-3.642 7.366-1.003 10.559l41.187 49.833-41.187 49.834c-2.638 3.193-2.189 7.921 1.004 10.559z" fill="#000000" data-original="#000000" class=""></path><path d="m284.843 192.589c-3.748-1.766-8.216-.157-9.98 3.591l-51.418 109.223c-1.764 3.748-.156 8.216 3.592 9.98 1.032.486 2.119.716 3.189.716 2.814 0 5.513-1.592 6.791-4.308l51.418-109.223c1.763-3.746.156-8.214-3.592-9.979z" fill="#000000" data-original="#000000" class=""></path><path d="m473.534 60.708h-416.837c-4.143 0-7.5 3.358-7.5 7.5s3.357 7.5 7.5 7.5h416.837c12.939 0 23.466 10.527 23.466 23.466v46.991h-74.541c-4.143 0-7.5 3.358-7.5 7.5s3.357 7.5 7.5 7.5h74.541v251.662c0 12.939-10.526 23.466-23.466 23.466h-435.068c-12.94-.001-23.466-10.527-23.466-23.467v-81.413c0-4.142-3.357-7.5-7.5-7.5s-7.5 3.358-7.5 7.5v81.413c0 21.21 17.256 38.466 38.466 38.466h435.068c21.21 0 38.466-17.256 38.466-38.466v-313.653c0-21.21-17.256-38.465-38.466-38.465z" fill="#000000" data-original="#000000" class=""></path><ellipse cx="63.59" cy="110.936" rx="13.892" ry="13.892" transform="matrix(.16 -.987 .987 .16 -56.1 155.935)" fill="#000000" data-original="#000000" class=""></ellipse><ellipse cx="106.326" cy="110.936" rx="13.892" ry="13.892" transform="matrix(.16 -.987 .987 .16 -20.209 198.12)" fill="#000000" data-original="#000000" class=""></ellipse><ellipse cx="149.063" cy="110.936" rx="13.892" ry="13.892" transform="matrix(.16 -.987 .987 .16 15.682 240.304)" fill="#000000" data-original="#000000" class=""></ellipse><path d="m93.051 359.118h-33.354c-4.143 0-7.5 3.358-7.5 7.5s3.357 7.5 7.5 7.5h33.354c4.143 0 7.5-3.358 7.5-7.5s-3.358-7.5-7.5-7.5z" fill="#000000" data-original="#000000" class=""></path><path d="m187.468 366.618c0-4.142-3.357-7.5-7.5-7.5h-53.421c-4.143 0-7.5 3.358-7.5 7.5s3.357 7.5 7.5 7.5h53.421c4.142 0 7.5-3.358 7.5-7.5z" fill="#000000" data-original="#000000" class=""></path><path d="m353.959 366.618c0-4.142-3.357-7.5-7.5-7.5h-72.625c-4.143 0-7.5 3.358-7.5 7.5s3.357 7.5 7.5 7.5h72.625c4.143 0 7.5-3.358 7.5-7.5z" fill="#000000" data-original="#000000" class=""></path><path d="m245.304 366.618c0-4.142-3.357-7.5-7.5-7.5h-21.946c-4.143 0-7.5 3.358-7.5 7.5s3.357 7.5 7.5 7.5h21.946c4.142 0 7.5-3.358 7.5-7.5z" fill="#000000" data-original="#000000" class=""></path><path d="m105.099 410.461h33.354c4.143 0 7.5-3.358 7.5-7.5s-3.357-7.5-7.5-7.5h-33.354c-4.143 0-7.5 3.358-7.5 7.5s3.357 7.5 7.5 7.5z" fill="#000000" data-original="#000000" class=""></path><path d="m171.947 410.461h50.126c4.143 0 7.5-3.358 7.5-7.5s-3.357-7.5-7.5-7.5h-50.126c-4.143 0-7.5 3.358-7.5 7.5s3.358 7.5 7.5 7.5z" fill="#000000" data-original="#000000" class=""></path><path d="m258 410.461h22.808c4.143 0 7.5-3.358 7.5-7.5s-3.357-7.5-7.5-7.5h-22.808c-4.143 0-7.5 3.358-7.5 7.5s3.357 7.5 7.5 7.5z" fill="#000000" data-original="#000000" class=""></path><path d="m448.083 410.461c4.143 0 7.5-3.358 7.5-7.5s-3.357-7.5-7.5-7.5h-22.624c-4.143 0-7.5 3.358-7.5 7.5s3.357 7.5 7.5 7.5z" fill="#000000" data-original="#000000" class=""></path><path d="m316.615 410.461h74.532c4.143 0 7.5-3.358 7.5-7.5s-3.357-7.5-7.5-7.5h-74.532c-4.143 0-7.5 3.358-7.5 7.5s3.358 7.5 7.5 7.5z" fill="#000000" data-original="#000000" class=""></path></g></g></svg>