<svg xmlns="http://www.w3.org/2000/svg" width="886.077" height="713.234" viewBox="0 0 886.077 713.234">
  <g id="Group_20082" data-name="Group 20082" transform="translate(-106.416 -46.099)">
    <path id="Path_200087" data-name="Path 200087" d="M916.893,643.107a310.418,310.418,0,0,1,46.261,12.4c9.32,3.327,19.366,8.05,23.011,17.25,4.482,11.314-3.426,24.484-14.214,30.116s-23.52,5.669-35.689,5.593c-126.75-.788-253.5.078-380.252.944l-61.711.421c-3.778.026-7.741.1-11.038,1.945-7.379,4.134-1.562,7.643-2.659,12.634-1.349,6.134-4.3,11.392-9.661,14.982-8.027,5.374-18.121,6.337-27.748,7.143l-89,7.449c-43.644,3.654-87.5,7.309-131.184,4.151-15.891-1.149-32.3-3.4-45.794-11.864-7.454-4.676-13.97-11.51-16.271-20s.518-18.67,8.018-23.272c2.75-1.687,5.967-2.585,8.518-4.561s4.273-5.7,2.574-8.441C169.889,690,83.8,695.782,112.1,664.7c11.611-12.749,56.834-8.535,72.191-9.573,41.367-2.793,82.8-4.477,124.252-5.378,38.913-.846,76.647-4.436,115.508-6.685,82.717-4.788,165.525-8.207,248.376-9.357q64.614-.9,129.235.169C840.181,634.553,879.2,635.91,916.893,643.107Z" opacity="0.09"/>
    <g id="Group_19994" data-name="Group 19994">
      <g id="Group_19993" data-name="Group 19993">
        <path id="Path_200088" data-name="Path 200088" d="M166.015,643.77c-3.14.208-6.013-.9-9.056-1.237a156.343,156.343,0,0,1,3.626-31.672c4.733,5.254,8.718,2.2,8.557,12.071C169.09,626.128,165.4,638.907,166.015,643.77Z" fill="#e5d1bd"/>
        <path id="Path_200089" data-name="Path 200089" d="M156.272,637.186c-3.571-1.278-4.376,7.25-4.4,9.255a14.9,14.9,0,0,1-.18,3.6,9.632,9.632,0,0,1-2.008,3.4l-5.187,6.52a11.313,11.313,0,0,0-1.984,3.155c-1.033,2.916.673,6.376,3.435,7.772,9.584,4.841,18.338-6.882,20.414-14.621.318-1.187.55-2.394.782-3.6.48-2.495,2.369-7.935,1.378-10.372-1.155-2.844-4.655-.784-6.948-1.856C159.442,639.442,157.717,637.705,156.272,637.186Z" fill="#3b455a"/>
      </g>
      <path id="Path_200090" data-name="Path 200090" d="M224.36,466.639c-8.935,24.324-19.245,48.117-25.125,73.581-7.264,31.455-18.974,62.13-24.985,93.655a77.583,77.583,0,0,1-11.635-.495c-4.424-.522-11.445-1.715-13.042-6.546-.816-2.469.049-6.484.174-9.049.4-8.215.985-16.422,1.589-24.623,1.71-23.206,2.882-46.7,7.15-69.573,4.49-24.067,8.79-48.216,12.741-72.278,2.041-12.437,4.556-24.8,7.65-37.015.8-3.149,9.1-35.6,10.726-35.339a152.217,152.217,0,0,1,54.273,19.47c1.636.971,3.216,2.127,3.786,3.856s.053,3.217-.475,4.786c-5.033,14.957-11.744,28.984-17.111,43.883C228.209,456.135,226.314,461.318,224.36,466.639Z" fill="#bcbec0"/>
    </g>
    <g id="Group_19996" data-name="Group 19996">
      <g id="Group_19995" data-name="Group 19995">
        <path id="Path_200091" data-name="Path 200091" d="M229.556,638.255c2.936,1.132,6.007.934,9.014,1.512a156.369,156.369,0,0,0,5.958-31.317c-6.081,3.608-8.978-.493-11.76,8.98C231.867,620.5,231.59,633.795,229.556,638.255Z" fill="#e5d1bd"/>
        <path id="Path_200092" data-name="Path 200092" d="M241.644,636.664c.007,5.829,4.6,12.1,7.133,17.347a3.587,3.587,0,0,1-.584,4.689,7.479,7.479,0,0,1-3.042,2.865,7.133,7.133,0,0,1-4.1-.046q-3.4-.747-6.731-1.8a4.676,4.676,0,0,1-1.564-.728,4.825,4.825,0,0,1-1.159-1.68c-1.565-3.151-2.9-5.388-2.812-8.9.087-3.627.545-7.384-.118-10.978-.328-1.743-.762-3.972.731-4.929,1.155-.74,3.269.28,4.525.485,2.218.362,4.268.224,6.31,1.389a2.96,2.96,0,0,1,1.078.927A2.481,2.481,0,0,1,241.644,636.664Z" fill="#3b455a"/>
      </g>
      <path id="Path_200093" data-name="Path 200093" d="M226.532,451.787c1.3,25.881,4.063,51.663,2.1,77.723-2.42,32.193-.362,64.962-4,96.849a77.837,77.837,0,0,0,11.256,2.988c4.379.817,11.438,1.765,14.4-2.372,1.513-2.115,1.882-6.2,2.526-8.691,2.062-7.962,3.942-15.971,5.805-23.982,5.27-22.664,11.137-45.44,13.866-68.551,2.87-24.313,5.947-48.648,9.332-72.8,1.749-12.481,3.024-25.029,3.7-37.615.175-3.243,1.9-36.692.268-36.929a152.206,152.206,0,0,0-57.607,2.447c-1.851.44-3.7,1.075-4.761,2.556s-1.008,3.056-.97,4.71c.357,15.777,2.592,31.165,3.285,46.987C225.981,440.614,226.249,446.126,226.532,451.787Z" fill="#bcbec0"/>
    </g>
    <g id="Group_20025" data-name="Group 20025">
      <g id="Group_20002" data-name="Group 20002">
        <g id="Group_20001" data-name="Group 20001">
          <g id="Group_19998" data-name="Group 19998">
            <path id="Path_200094" data-name="Path 200094" d="M498.662,663.131a7.5,7.5,0,0,1,2.155-3.5c.548-.478,1.176-.853,1.709-1.348,2.507-2.334,2.223-4.564,5.911-4.058,4.2.576,8.378,1.349,12.562,2.023a.926.926,0,0,1,.469.167,1.013,1.013,0,0,1,.259.679l.519,4.349c.467,3.919,3.977,5.066,6.854,6.615.74.4,1.507.8,2.287,1.214,3.263,1.729,13.156,5.578,8.274,10.688-2.018,2.112-5.514,2.111-8.2,2.384-2.6.263-5.208-.359-7.767-.715a79.668,79.668,0,0,1-23.208-7.944c-2.661-1.42-2.49-5.438-2.251-8.29A10.91,10.91,0,0,1,498.662,663.131Z" fill="#3b455a"/>
            <g id="Group_19997" data-name="Group 19997">
              <path id="Path_200095" data-name="Path 200095" d="M510.406,408.316l-8.369,32.758,9.279,93.352-10.9,124.2,24.514,2.075,31.807-118.808L581.827,411.9Z" fill="#bcbec0"/>
            </g>
          </g>
          <g id="Group_20000" data-name="Group 20000">
            <path id="Path_200096" data-name="Path 200096" d="M635.7,666.356a7.5,7.5,0,0,1,.866-4.021c.358-.633.825-1.2,1.162-1.84,1.588-3.035.577-5.043,4.224-5.794,4.149-.854,8.349-1.517,12.518-2.275a.935.935,0,0,1,.5,0,1.022,1.022,0,0,1,.471.555q.967,1.964,1.937,3.928c1.745,3.54,5.437,3.453,8.666,3.956.829.13,1.687.253,2.56.383,3.653.545,14.263.88,11.36,7.324-1.2,2.664-4.5,3.826-6.94,4.978-2.36,1.113-5.03,1.4-7.562,1.911a79.606,79.606,0,0,1-24.528.236c-2.982-.452-4.158-4.3-4.883-7.067A10.916,10.916,0,0,1,635.7,666.356Z" fill="#3b455a"/>
            <g id="Group_19999" data-name="Group 19999">
              <path id="Path_200097" data-name="Path 200097" d="M561.938,422.166l-9.013,24.849,51.854,93.764,31.067,120.744,23.806-6.2-9.56-122.62L630.479,401.771Z" fill="#bcbec0"/>
            </g>
          </g>
        </g>
        <path id="Path_200098" data-name="Path 200098" d="M481.855,417.145c.2-6.094.564-11.195.614-13.019a471.376,471.376,0,0,1,4.276-49.745c2.022-15.031,4.591-30.1,7.372-45.243,4.361-23.745,8.325-44.667,17.067-67.249,3.105-8.02,6.291-16.184,11.65-22.861,4.939-6.153,12.3-10.378,19.7-12.855,3.456-1.157,7.344-2.145,10.8-2.928,3.917-.887,5.883.881,9.633,2.487,2.521,1.079,5.479,1.367,8.091,2.283,15.516,5.439,24.378,16.392,29.628,31.942q6.337,18.765,12.673,37.532c3.47,10.274,6.94,20.551,9.948,30.974,7.875,27.283,12.529,55.4,15.948,83.583,1.714,14.13,3.118,28.3,4.469,42.466.865,9.056-3.742,5.247-9.179,2.481-9.371-4.769-18.679-9.8-29.191-11.52a87.9,87.9,0,0,0-15.474-.8c-31.455.449-63.023,5.129-92.565,15.939a16.237,16.237,0,0,0-4.974,2.527c-1.914,1.6-4.506,5.245-7.271,3.341-1.719-1.184-2.135-5.22-2.45-7.038C481.363,432.145,481.61,424.513,481.855,417.145Z" fill="#7db5db"/>
      </g>
      <g id="Group_20011" data-name="Group 20011">
        <g id="Group_20008" data-name="Group 20008">
          <g id="Group_20003" data-name="Group 20003">
            <path id="Path_200099" data-name="Path 200099" d="M556.866,141.526a38.358,38.358,0,0,1,8.253,15.637c.419,1.526.93,3.283,2.365,3.914,1.535.677.87,3.077,1.571,1.547s3.055-6.827,2.831-8.507a63.553,63.553,0,0,0-2.668-11.59c-1.087-3.277-2.561-6.625-5.3-8.69a19.155,19.155,0,0,0-5.492-2.552c-2.78-.944-5.637-1.884-8.557-1.779-5.035.182-7.592,2.613-2.552,5.067A30.593,30.593,0,0,1,556.866,141.526Z" fill="#534741"/>
          </g>
          <g id="Group_20005" data-name="Group 20005">
            <g id="Group_20004" data-name="Group 20004">
              <path id="Path_200100" data-name="Path 200100" d="M541.936,214.131l20.346-2.627a127.3,127.3,0,0,0-2.276-18.088c5.551-2.32,11.916-5.763,12.484-12.367a21,21,0,0,0-.739-6.26l-5.668-25.627c-.653-2.954-1.342-5.995-2.962-8.507-2.842-4.407-7.927-6.265-12.684-7.08-12.139-2.081-25.02,1.035-33.758,9.9a19.275,19.275,0,0,0-5.257,8.574c-1.347,5.233.28,10.948,1.892,16.269q2.232,7.367,4.465,14.733c1.711,5.648,4.07,12.062,9.148,14.1,2.7,1.081,5.772.694,8.254,2.321C539.56,202.336,539.439,209.237,541.936,214.131Z" fill="#eac5b0"/>
            </g>
          </g>
          <g id="Group_20006" data-name="Group 20006">
            <path id="Path_200101" data-name="Path 200101" d="M573.008,170.926c-.456-1.56-2.2-6.039-3.869-2.6a4.952,4.952,0,0,0-.148,3.034,11.177,11.177,0,0,1,.383,3.082c-.22,2.355-2.378,3.894-4.513,4.338a5.184,5.184,0,0,1-2.589-.032,7.922,7.922,0,0,1-2.261-1.32l-5.185-3.845c-2.97-2.2-7.351.035-10.414,1.172a20.516,20.516,0,0,0-9.337,6.363c-.244.314-.478.639-.713.963a11.155,11.155,0,0,1-1.891,2.18c-2.494,2.03-6.309,1.368-8.875-.788-1.177-.988-2.371-2.333-3.819-2.214a2.946,2.946,0,0,0-2.344,2.307,8.705,8.705,0,0,0,.01,3.678,26.8,26.8,0,0,0,5.139,12.356c6.011,7.548,14.125,6.8,22,4.815l9.334-2.355c5.688-1.435,11.679-3.048,15.724-7.521,3.568-3.946,4.935-9.588,4.756-15.132A34.286,34.286,0,0,0,573.008,170.926Zm-18.179,16.758c-2.541,2.743-5.835,3.607-9.428,3.341-1.526-.112-1.478-2.685.051-2.571,2.977.219,5.6-.4,7.714-2.682C554.23,184.624,555.888,186.543,554.829,187.684Z" fill="#3b455a"/>
          </g>
          <g id="Group_20007" data-name="Group 20007">
            <path id="Path_200102" data-name="Path 200102" d="M563.632,124.444a47.212,47.212,0,0,0-.22-6.576,12.375,12.375,0,0,1-5.946,1.905q-.427-1.838-.856-3.675c-.242-1.018-13.98,1.348-15.1,1.506-10.522,1.483-20.153,2.807-28.2,10.559-6.875,6.621-10.345,14.967-9.429,24.6.875,9.2,6.421,20.217,13.2,26.48-.573-2.372-3.2-7.678-3.168-10.064a20.9,20.9,0,0,1,.691-6.959,27.08,27.08,0,0,1,6.954-11.923c5.17-5.229,11.74-8.864,18.541-11.454,6.23-2.373,13.884-5,20.642-4.705,3.248.14,3.934.8,5.068-2.753.2-.627,1.311-7.674,1.057-7.62Z" fill="#3b455a"/>
          </g>
        </g>
        <g id="Group_20010" data-name="Group 20010">
          <path id="Path_200103" data-name="Path 200103" d="M472.175,152.307l6.791,29.345L491.11,188.9l45.383-10.5,5.943-13.336a1.991,1.991,0,0,1,3.324-.769l11.368,9.33,45.213-10.463,7.725-11.846-6.791-29.345Z" fill="#e6e6e7"/>
          <g id="Group_20009" data-name="Group 20009">
            <rect id="Rectangle_7006" data-name="Rectangle 7006" width="44.439" height="26.815" rx="2.347" transform="translate(483.24 155.247) rotate(-13.03)" fill="#587bc9"/>
            <rect id="Rectangle_7007" data-name="Rectangle 7007" width="44.439" height="26.815" rx="2.347" transform="matrix(0.974, -0.225, 0.225, 0.974, 551.247, 139.509)" fill="#eac5b0"/>
          </g>
        </g>
      </g>
      <g id="Group_20016" data-name="Group 20016">
        <rect id="Rectangle_7008" data-name="Rectangle 7008" width="302.847" height="201.565" transform="translate(424.321 471.862) rotate(-11.549)" fill="#3b455a"/>
        <rect id="Rectangle_7009" data-name="Rectangle 7009" width="303.779" height="35.438" transform="matrix(0.98, -0.2, 0.2, 0.98, 417.226, 437.141)" fill="#59595b"/>
        <g id="Group_20012" data-name="Group 20012">
          <path id="Path_200104" data-name="Path 200104" d="M686.667,418.252l35.282-7.21-7.1-34.721-.561.115Z" fill="#e6e6e7"/>
          <path id="Path_200105" data-name="Path 200105" d="M417.226,437.141l6,29.384,23.38-35.389Z" fill="#e6e6e7"/>
          <path id="Path_200106" data-name="Path 200106" d="M499.363,420.356l-27.626,41.816,54.712-11.18,27.626-41.816Z" fill="#e6e6e7"/>
          <path id="Path_200107" data-name="Path 200107" d="M606.828,398.4,579.2,440.212l54.711-11.18,27.626-41.816Z" fill="#e6e6e7"/>
          <path id="Path_200108" data-name="Path 200108" d="M446.61,431.136l-23.38,35.389,1.09,5.336,47.417-9.689,27.626-41.816Z" fill="#3b455a"/>
          <path id="Path_200109" data-name="Path 200109" d="M554.075,409.176l-27.626,41.816,52.753-10.78L606.828,398.4Z" fill="#3b455a"/>
          <path id="Path_200110" data-name="Path 200110" d="M661.54,387.216l-27.626,41.816,52.753-10.78,27.626-41.816Z" fill="#3b455a"/>
        </g>
        <g id="Group_20013" data-name="Group 20013">
          <path id="Path_200111" data-name="Path 200111" d="M449.963,421.667,417.4,437.054l-15.142-32.04.518-.245Z" fill="#e6e6e7"/>
          <path id="Path_200112" data-name="Path 200112" d="M676.914,275.213l12.815,27.116-39.931-14.3Z" fill="#e6e6e7"/>
          <path id="Path_200113" data-name="Path 200113" d="M601.117,311.034l47.183,16.9-50.488,23.861-47.183-16.9Z" fill="#e6e6e7"/>
          <path id="Path_200114" data-name="Path 200114" d="M501.949,357.9l47.183,16.9L498.644,398.66l-47.183-16.9Z" fill="#e6e6e7"/>
          <path id="Path_200115" data-name="Path 200115" d="M649.8,288.028l39.931,14.3,2.327,4.925L648.3,327.932l-47.183-16.9Z" fill="#3b455a"/>
          <path id="Path_200116" data-name="Path 200116" d="M550.629,334.895l47.183,16.9L549.131,374.8l-47.183-16.9Z" fill="#3b455a"/>
          <path id="Path_200117" data-name="Path 200117" d="M451.461,381.762l47.183,16.9-48.681,23.007-47.183-16.9Z" fill="#3b455a"/>
        </g>
        <path id="Path_200118" data-name="Path 200118" d="M424.321,471.862l-22.042-66.8,32.552-15.4,61.212,67.54Z" fill="#3b455a"/>
        <path id="Path_200119" data-name="Path 200119" d="M434.831,389.666l35.494,22.378L459.4,416.769Z" fill="#272525" opacity="0.42" style="mix-blend-mode: multiply;isolation: isolate"/>
        <path id="Path_200120" data-name="Path 200120" d="M468.384,426.687l38.074,28.39-10.415,2.128Z" fill="#272525" opacity="0.42" style="mix-blend-mode: multiply;isolation: isolate"/>
        <g id="Group_20014" data-name="Group 20014">
          <path id="Path_200121" data-name="Path 200121" d="M432.034,410.2a4.8,4.8,0,1,1-5.762-3.584A4.8,4.8,0,0,1,432.034,410.2Z" fill="#a6a8aa"/>
          <path id="Path_200122" data-name="Path 200122" d="M437.025,452.75a4.8,4.8,0,1,1-5.761-3.584A4.8,4.8,0,0,1,437.025,452.75Z" fill="#a6a8aa"/>
          <path id="Path_200123" data-name="Path 200123" d="M471.485,444.719a4.8,4.8,0,1,1-5.761-3.584A4.8,4.8,0,0,1,471.485,444.719Z" fill="#a6a8aa"/>
        </g>
        <rect id="Rectangle_7010" data-name="Rectangle 7010" width="275.359" height="2.051" transform="matrix(0.98, -0.2, 0.2, 0.98, 469.404, 623.829)" fill="#e6e6e7"/>
        <g id="Group_20015" data-name="Group 20015">
          <rect id="Rectangle_7011" data-name="Rectangle 7011" width="2.262" height="33.448" transform="translate(554.968 609.834) rotate(-11.549)" fill="#e6e6e7"/>
          <rect id="Rectangle_7012" data-name="Rectangle 7012" width="2.262" height="33.448" transform="translate(652.775 589.848) rotate(-11.549)" fill="#e6e6e7"/>
        </g>
        <rect id="Rectangle_7013" data-name="Rectangle 7013" width="275.359" height="2.262" transform="translate(443.64 497.752) rotate(-11.549)" fill="#e6e6e7"/>
      </g>
      <g id="Group_20017" data-name="Group 20017">
        <path id="Path_200124" data-name="Path 200124" d="M475.042,391.026a11.047,11.047,0,0,0,1.339,4.4c1.2,1.767,3.382,2.538,5.435,3.124a27.366,27.366,0,0,0,9.908,1.351,11.717,11.717,0,0,0,8.623-4.531A71.813,71.813,0,0,0,494.7,386.3c-.171-.91,1.09-1.333,2.015-1.33s2.185-.25,2.184-1.175a1.64,1.64,0,0,0-.3-.815c-1.742-2.886-4.356-5.123-6.924-7.306l-10.2-8.67a3.491,3.491,0,0,0-4.358-.869c-3.053,1.044-6.19,1.977-9.149,3.231C468.605,376.882,473.722,383.5,475.042,391.026Z" fill="#eac5b0"/>
        <path id="Path_200125" data-name="Path 200125" d="M529.442,212.8,436.355,309.61l31.776,72.117,22.78-11.151L477.117,314.2l56.788-31.266Z" fill="#7db5db"/>
      </g>
      <g id="Group_20018" data-name="Group 20018">
        <path id="Path_200126" data-name="Path 200126" d="M673.628,205.731a2.027,2.027,0,0,0,.647-1.276c-.013-.623-.571-1.071-1-1.524a4.686,4.686,0,0,1,.7-6.827,4.365,4.365,0,0,1,6.328,2.254,21.361,21.361,0,0,0,7.155-4.787c.763-.775,1.591-1.669,2.677-1.713a3.906,3.906,0,0,1,1.872.574q1.938.984,3.842,2.033c1.682.926,3.463,2.023,4.146,3.817,1.073,2.815-1.011,5.765-2.963,8.059a6.73,6.73,0,0,1-1.441,1.385,9.358,9.358,0,0,1-2.22.842,23.64,23.64,0,0,0-5.045,2.578L673.4,220.358c-.157.079-4.238-6.778-4.235-7.725C669.172,209.888,671.958,207.663,673.628,205.731Z" fill="#eacdb0"/>
        <path id="Path_200127" data-name="Path 200127" d="M571.062,208.015l65.7,27.189L666.3,208.015l18.641,6.583-48.174,62.371H582.217Z" fill="#7db5db"/>
      </g>
      <g id="Group_20024" data-name="Group 20024">
        <g id="Group_20022" data-name="Group 20022">
          <g id="Group_20019" data-name="Group 20019">
            <rect id="Rectangle_7014" data-name="Rectangle 7014" width="129.778" height="133.851" rx="2.209" transform="translate(672.972 56.889) rotate(19.451)" fill="#587bc9"/>
          </g>
          <g id="Group_20020" data-name="Group 20020" opacity="0.1">
            <path id="Path_200128" data-name="Path 200128" d="M638.518,186.674l105.32,37.2a7.315,7.315,0,0,0,9.341-4.374l22.6-64.006C753.179,219.495,683.452,197.757,638.518,186.674Z"/>
          </g>
          <g id="Group_20021" data-name="Group 20021">
            <path id="Path_200129" data-name="Path 200129" d="M673.944,68.684l-6.91,19.567c3.46-8.123,13.908-24.769,39.317-15.795L683.285,64.31A7.315,7.315,0,0,0,673.944,68.684Z" fill="#fff"/>
          </g>
        </g>
        <g id="Group_20023" data-name="Group 20023">
          <path id="Path_200130" data-name="Path 200130" d="M745.961,153.643l-51.01-58.8-25.616,72.533Z" fill="#fff"/>
        </g>
      </g>
    </g>
    <g id="Group_20050" data-name="Group 20050">
      <g id="Group_20030" data-name="Group 20030">
        <g id="Group_20027" data-name="Group 20027">
          <g id="Group_20026" data-name="Group 20026">
            <path id="Path_200131" data-name="Path 200131" d="M816.848,214.913l3.545-8.861,7.778-3.294.162-1.984-2.443-.259,5.7-4.561,1.238-5.75-5.275-5.682-7.979-1.237-5.2,5.9-1.872,9.1-5.377,11.929Z" fill="#7b4f34"/>
          </g>
        </g>
        <g id="Group_20029" data-name="Group 20029">
          <g id="Group_20028" data-name="Group 20028">
            <path id="Path_200132" data-name="Path 200132" d="M822.819,214.737a4.782,4.782,0,0,1,.552,1.571c.522,3.577-10.682,18.568-12.5,22.851a146.767,146.767,0,0,0-8.7,27.968l40.91-3.23a361.525,361.525,0,0,1-36.047,79.721,4.4,4.4,0,0,1-2.473,2.325,4.353,4.353,0,0,1-3.1-.964,175.282,175.282,0,0,1-50.876-48.915c-11.889-17.316,15.76-41.936,25.943-55.738l28.615-38.781C809.24,204.495,820.163,209.824,822.819,214.737Z" fill="#305399"/>
          </g>
        </g>
      </g>
      <g id="Group_20031" data-name="Group 20031">
        <path id="Path_200133" data-name="Path 200133" d="M843.636,200.651a16.856,16.856,0,0,1,3.175-6.752c.451-.516.962-.97,1.388-1.49,14.872-18.193,46.486-14.508,52.053,14.936,2.995,15.84-6.962,32.843-21.335,38.315.56,4.187-.1,9.275-.019,12.462a2.913,2.913,0,0,1-.386,1.891,2.489,2.489,0,0,1-1.487.748,21.469,21.469,0,0,1-15.36-2.363,2.553,2.553,0,0,1-.9-.747,2.817,2.817,0,0,1-.33-1.415,69.238,69.238,0,0,1,.25-10.315c-8.548-2.786-14.764-10.834-17.382-19.54C840.8,218.057,841.316,209.027,843.636,200.651Z" fill="#7b4f34"/>
      </g>
      <g id="Group_20036" data-name="Group 20036">
        <g id="Group_20033" data-name="Group 20033">
          <g id="Group_20032" data-name="Group 20032">
            <path id="Path_200134" data-name="Path 200134" d="M814.566,641.209l-7,7.3c-4.512,4.7-2.981,12.7,3.124,14.972,3.6,1.341,8.535.833,15.125-4.227l14.74-18.741-2.87-5.643-16.571-1.582Z" fill="#3b455a"/>
          </g>
        </g>
        <g id="Group_20035" data-name="Group 20035">
          <g id="Group_20034" data-name="Group 20034">
            <path id="Path_200135" data-name="Path 200135" d="M830.047,436.068l-46.07,104.654L817.254,637.1l22.787-1.729,6.425-74.392s69.411-97.32,64.712-100.2S830.047,436.068,830.047,436.068Z" fill="#3b455a"/>
          </g>
        </g>
      </g>
      <g id="Group_20041" data-name="Group 20041">
        <g id="Group_20038" data-name="Group 20038">
          <g id="Group_20037" data-name="Group 20037">
            <path id="Path_200136" data-name="Path 200136" d="M938.612,657.912l-4.509,9.054c-2.9,5.833.942,13.007,7.448,13.359,3.834.207,8.395-1.751,13.175-8.546l8.481-22.283-4.423-4.531L942.495,648.4Z" fill="#3b455a"/>
          </g>
        </g>
        <g id="Group_20040" data-name="Group 20040">
          <g id="Group_20039" data-name="Group 20039">
            <path id="Path_200137" data-name="Path 200137" d="M864.212,473.355c-6.183,12.588,8.977,44.506,12.6,56.925,4.059,13.915,6.1,36.238,14.13,48.445l49.012,74.466,21.234-8.446c-4.657-21.154-12.318-43.327-14.937-64.678-3.79-30.89,19.838-63.6,26.358-94.765,1.9-9.084,3.214-18.529,1.273-27.605S966.2,439.9,957.53,436.588c-13.276-5.078-27.451,3.526-39.473,11.107-14.587,9.2-30.116,17.535-47.071,20.689A8.9,8.9,0,0,0,864.212,473.355Z" fill="#3b455a"/>
          </g>
        </g>
      </g>
      <g id="Group_20043" data-name="Group 20043">
        <g id="Group_20042" data-name="Group 20042">
          <path id="Path_200138" data-name="Path 200138" d="M929.691,269.773c22.637,18.524,31.323,49.949,36.773,79.482a707.047,707.047,0,0,1,10.029,79.185c.657,9.44.905,19.731-4.359,27.338-3.467,5.01-8.852,8.095-14.141,10.83a255.132,255.132,0,0,1-128.172,28.257c-4.912-.221-10.089-.677-14.17-3.608-3.052-2.191-5.157-5.544-7.022-8.9-18.605-33.495-20.4-74.211-17.928-112.717,1.78-27.733,5.828-56.252,19.841-79.681C836.148,247.148,891.959,238.9,929.691,269.773Z" fill="#305399"/>
        </g>
      </g>
      <g id="Group_20044" data-name="Group 20044">
        <path id="Path_200139" data-name="Path 200139" d="M972.792,344.6a3.345,3.345,0,0,0-2.976-.241S836.349,397.6,833.214,398.8a5.553,5.553,0,0,0-1.542.669,3.315,3.315,0,0,0-1.258,2.921l14.011,148.161a3.048,3.048,0,0,1-3.144,3.315,51.853,51.853,0,0,0-24.786,5.991c-20.665,10.726-30.782,32.277-22.55,48.041,4.075,7.8,11.889,13,22,14.629a43.836,43.836,0,0,0,11.085.324,53.053,53.053,0,0,0,19.322-5.815c16.164-8.389,26.329-23.575,25.377-37.862,0-.107-.005-.215-.015-.323l-11.073-117.1a3.039,3.039,0,0,1,1.9-3.107l90.419-36.068a3.047,3.047,0,0,1,4.167,2.533l7.986,84.448a3.049,3.049,0,0,1-3.144,3.315,51.848,51.848,0,0,0-24.786,5.991c-9.855,5.115-17.65,12.815-21.953,21.683-4.459,9.2-4.671,18.556-.6,26.358s11.889,13,22,14.629c9.757,1.574,20.555-.377,30.407-5.491,16.372-8.5,26.541-23.868,25.348-38.291q0-.081-.012-.162l-18.011-190.47A3.32,3.32,0,0,0,972.792,344.6Zm-19.2,43.114.576,6.089a3.039,3.039,0,0,1-1.9,3.1l-90.394,36.334a3.048,3.048,0,0,1-4.175-2.531l-.6-6.354a3.039,3.039,0,0,1,1.9-3.108l90.42-36.068A3.046,3.046,0,0,1,953.6,387.715Z" fill="#7db5db"/>
        <path id="Path_200140" data-name="Path 200140" d="M803.086,617.78a33.622,33.622,0,0,0,12.862,4.749,43.836,43.836,0,0,0,11.085.324,53.053,53.053,0,0,0,19.322-5.815c16.164-8.389,26.329-23.575,25.377-37.862,0-.107-.005-.215-.015-.323l-3.09-32.677C851.462,592.422,822.169,610.646,803.086,617.78Z" fill="#161216" opacity="0.06"/>
        <path id="Path_200141" data-name="Path 200141" d="M967.05,576.046c16.372-8.5,26.541-23.868,25.348-38.291q0-.081-.012-.162l-2.457-25.986c-18.965,43.68-49.1,59.3-66.693,64.831a33.349,33.349,0,0,0,13.407,5.1C946.4,583.111,957.2,581.16,967.05,576.046Z" fill="#161216" opacity="0.06"/>
      </g>
      <path id="Path_200142" data-name="Path 200142" d="M847.811,229a6.335,6.335,0,0,0,.812,2.112c1.841,2.85,5.984,2.618,9.363,2.311a65.9,65.9,0,0,1,15.22.386,28.7,28.7,0,0,0,5.952.516c4.43-.3,14.208-12.86,16.493-7.956a4.835,4.835,0,0,1-.17,3.376c-1.108,3.692-2.307,7.543-5.024,10.278-2.976,3-7.278,4.163-11.368,5.212a23.222,23.222,0,0,1-15.536.005c-9.174-2.444-20.354-6.47-22.193-17.517-.335-2.013.35-4.667,2.375-4.921,1.738-.217,3.078,1.575,3.516,3.271C847.5,227.032,847.6,228.042,847.811,229Z" fill="#3b455a"/>
      <g id="Group_20049" data-name="Group 20049">
        <g id="Group_20046" data-name="Group 20046">
          <g id="Group_20045" data-name="Group 20045">
            <path id="Path_200143" data-name="Path 200143" d="M909.451,393.814l-1.729,9.387-6.976,4.762.232,1.977,2.446-.228-4.688,5.595-.08,5.881,6.291,4.531,8.066-.361,3.932-6.813.041-9.292,2.92-12.755Z" fill="#7b4f34"/>
          </g>
        </g>
        <g id="Group_20048" data-name="Group 20048">
          <g id="Group_20047" data-name="Group 20047">
            <path id="Path_200144" data-name="Path 200144" d="M903.443,395.2q-.336-.207-.666-.421c3.466-13.539,18.906-37.015,16.044-50.086-1.512-6.906-10.737-16.253-14.67-22.254q-8.382-12.793-16.766-25.586c-1.57-2.395-3.17-4.861-3.775-7.66-.777-3.588.171-7.334,1.555-10.734,2.366-5.813,6.221-11.254,11.743-14.235,8.473-4.574,25.036-3.792,32.638,2.078,5.272,4.071,8.912,9.85,12.344,15.559q7.016,11.672,13.491,23.657c4.6,8.513,9.1,17.537,9.225,27.211.088,6.475-1.8,12.794-3.665,18.993-4.364,14.485-23.928,58.072-45.3,49.3A78.918,78.918,0,0,1,903.443,395.2Z" fill="#305399"/>
          </g>
        </g>
      </g>
      <path id="Path_200145" data-name="Path 200145" d="M911.808,206.069c-.529-3.641-2.037-7.294-4.787-9.615-.293-.247-.575-.461-.856-.673a40.375,40.375,0,0,0-7.914-25.908c-8.349-11.262-22.341-18.118-37.52-15.537-18.05,3.07-25.046,23.431-25.189,40.4a7.477,7.477,0,0,0-2.391,2.234c-3,4.248-3.445,11.878-3.473,15.8-.021,3.051.194,6.226,1.678,8.892,1.858,3.336,8.12,6.654,11.146,2.5,1.441-1.979.649-6.4.546-8.787-.136-3.175-.42-6.342-.578-9.515a23.436,23.436,0,0,1,.082-2.678,3.745,3.745,0,0,0,.6-2.578c-1.2-9.94.256-21.773,6.484-29.827,5.934-7.674,9.43-9.495,16.254-9.586,17.922-.24,33.861,13.231,33.561,31.678,0,.233,0,.6.021,1.04-5.626,1.923-6.985,14.358-6.213,20.493a17.169,17.169,0,0,0,3.181,8.646c1.925,2.407,5.088,3.9,7.9,3.058,2.781-.835,4.562-3.639,5.691-6.442A26.473,26.473,0,0,0,911.808,206.069Z" fill="#305399"/>
    </g>
    <g id="Group_20064" data-name="Group 20064">
      <path id="Path_200146" data-name="Path 200146" d="M215.649,244.1q-.474.159-.94.337c-5.2,1.974-9.628,5.527-13.957,9.024-6.5,5.252-9.7,7.554-12.215,15.332a188.6,188.6,0,0,0-5.243,22.39c-7.363,38.378-8.786,76.6-14.07,115.262-1.439,10.525-2.55,22.9,5.234,30.127,13.811-10.749,31.172-11.369,47.923-11.384,11.764-.01,23.264-3.82,35.056-2.508,11.269,1.255,21.112-1.561,32.548-.817,2.757.18,6.271.149,7.357-2.391-3.957-11.864-3.889-24.622-4.785-37.1-2.317-32.266-13.006-63.228-17.32-95.276-1.466-10.893-2.248-28.974-10.684-37.219-9.168-8.96-30.079-9.143-41.86-7.39A40.507,40.507,0,0,0,215.649,244.1Z" fill="#587bc9"/>
      <g id="Group_20051" data-name="Group 20051">
        <path id="Path_200147" data-name="Path 200147" d="M180.022,398.217c1.693-8.043-3.455-11.953-8.171-18.809-2.626-3.82-3.674-14.98-9.979-14.112a10.428,10.428,0,0,0-3.553.928,8.981,8.981,0,0,0-2.295,1.94c-.529.578-1.507,1.37-1.476,2.134.032.8,1.367,2.321,1.787,3.036,5.453,9.265,7.785,20.252,5.235,31.091a6.6,6.6,0,0,0-.167,3.812,4.839,4.839,0,0,0,3.735,2.641c5.288,1.078,10.765-2.529,13.052-7.418A24.206,24.206,0,0,0,180.022,398.217Z" fill="#eac5b0"/>
        <path id="Path_200148" data-name="Path 200148" d="M132.536,325.006c7.315,20.134,20.71,55.077,24.9,53.881a52.354,52.354,0,0,0,18.224-9.425c-5.274-14.132-12.309-28.881-12.784-44.219-.569-18.435,22.861-17.9,37.363-23.918,4.452-1.848,9-3.93,12.17-7.56,3.7-4.24,5.042-10.048,5.526-15.657.647-7.492,1.7-23.426-6.441-27.477-12.5-6.222-31.626,12.387-40.916,18.822a239.627,239.627,0,0,0-41.6,36.618,4.294,4.294,0,0,0-1.229,5.407C128.146,312.685,129.966,317.931,132.536,325.006Z" fill="#587bc9"/>
      </g>
      <g id="Group_20055" data-name="Group 20055">
        <g id="Group_20054" data-name="Group 20054">
          <g id="Group_20053" data-name="Group 20053">
            <g id="Group_20052" data-name="Group 20052">
              <path id="Path_200149" data-name="Path 200149" d="M224.4,243.554a4.227,4.227,0,0,0,.8,1.08,9.2,9.2,0,0,0,5.149,2.386,22.808,22.808,0,0,0,7.466-.527c3.327-.634,3.209-2.582,3.691-5.6.264-1.65.429-3.313.553-4.979.068-.913-.285-4.182.3-4.822.4-.434,2-.288,2.707-.656a7.765,7.765,0,0,0,2.721-2.7,21.822,21.822,0,0,0,2.26-5.537l3.043-9.987a52.9,52.9,0,0,0,2.411-10.371c.5-5.336-.361-12.869-4.388-16.77-3.674-3.559-9.034-4.8-13.95-5.433a29.064,29.064,0,0,0-18.878,3.814,15.548,15.548,0,0,0-5.763,5.692c-2.067,3.835-1.91,8.623-1.687,13.1l.615,12.4c.236,4.752.828,10.228,4.388,12.805,1.891,1.368,4.363,1.661,5.981,3.416,2.027,2.2,1.895,5.495,1.98,8.282C223.842,240.732,223.722,242.24,224.4,243.554Z" fill="#eac5b0"/>
            </g>
            <path id="Path_200150" data-name="Path 200150" d="M245,190.141a7.008,7.008,0,0,1,.556,1.208c.759,2.19.246,4.663.987,6.86,1.175,3.482,5.239,5.575,5.851,9.2.5,2.963-1.524,5.781-1.695,8.782-.187,3.278,1.913,6.382,1.587,9.618a21.42,21.42,0,0,1-3.744,9.014c.52-.7,5.225-.449,6.446-1.195,1.87-1.142,2.084-1.862,2.64-3.811s.125-3.843.986-5.825c1.056-2.432,3.227-4.217,3.987-6.811,1.037-3.539-.846-7.273-.7-10.958.223-5.578,5.044-10.833,3.294-16.134-1.026-3.11-4.046-5.1-5.745-7.9-1.289-2.126-1.765-4.633-2.659-6.953s-2.433-4.642-4.818-5.346a40.5,40.5,0,0,0-4.108-.483c-2.348-.437-4.3-2.057-6.561-2.823-3.236-1.094-8.946,2.178-10.834,4.921-1.875,2.722-.929,5.036.988,7.443C234.653,182.959,242.367,185.583,245,190.141Z" fill="#3b455a"/>
          </g>
          <path id="Path_200151" data-name="Path 200151" d="M201.42,173.665c-1.939,1.423-4.334,2.451-6.1,4.114-3.453,3.241-4.109,8.425-4.234,13.16-.111,4.215-1.955,7.961-1.5,12.354a10.749,10.749,0,0,0,3.962,7.677c2.99,2.17,7.684,2.525,9.018,5.97,1.449,3.743-2.427,8.455-.074,11.706,1.3,1.794,3.843,2.057,5.7,3.262,2.072,1.344,3.137,3.745,4.4,5.867s3.166,4.246,5.635,4.3c.1-3.756.212-6.732-1.393-10.168-.935-2-3.687-5.693-1.573-7.86,1.333-1.8,4.48-2.387,4.561-4.626a5.172,5.172,0,0,0-1.274-2.826,12.882,12.882,0,0,1-.95-11.71,16.748,16.748,0,0,1,8.316-8.573c4.295-2.08,3.6-3.13,4.852-7.242,1.149-3.785,3.3-4.673,6.7-6.053,3.059-1.238,4.042-2.01,5.171-4.873.826-2.1,1.844-4.605.646-6.943a14.131,14.131,0,0,0-4.328-4.454c-3.468-2.644-7.366-5.425-11.717-5.112-2.416.174-4.689,1.31-7.108,1.447-1.613.091-3.217-.266-4.832-.32a12.851,12.851,0,0,0-7.887,2.384c-2.249,1.654-2.185,3.384-3.434,5.731A8.4,8.4,0,0,1,201.42,173.665Z" fill="#3b455a"/>
          <path id="Path_200152" data-name="Path 200152" d="M211.162,158.222c.423-2.617.151-6.028-2.348-6.911-1.37-.485-2.9.046-4.327-.244-3.033-.617-4.066-4.29-5.657-6.945a2.294,2.294,0,0,0-.945-.989,3.729,3.729,0,0,0-1.957.05c-3.018.368-5.312-2.61-8.155-3.69a7.136,7.136,0,0,0-9,4.474c-.436,1.484-.36,3.079-.769,4.57-1.656,6.043-10.506,8.614-10.729,14.876-.151,4.231,3.99,8.285,2.38,12.2-1.03,2.505-4.252,4.212-3.883,6.894a3.737,3.737,0,0,0,3.817,2.877,7.506,7.506,0,0,0,4.653-2.126c2.083-1.819,3.652-4.152,5.636-6.078s4.63-3.488,7.373-3.145c2.658.332,5.062,2.4,7.7,1.958,2.113-.354,3.681-2.239,5.756-2.77,1.941-.5,3.96.266,5.96.386s4.457-.92,4.51-2.923a5.038,5.038,0,0,1,.03-1.448c.427-1.292,2.633-1.218,3.052-2.512-1.044-1.61-2.517-1.033-3.265-3.135C210.412,161.965,210.9,159.865,211.162,158.222Z" fill="#3b455a"/>
        </g>
      </g>
      <g id="Group_20056" data-name="Group 20056">
        <path id="Path_200153" data-name="Path 200153" d="M321.7,187.194q-.767.017-1.531.056a1.746,1.746,0,0,0-1.576.75,36.547,36.547,0,0,0-5.2,8.354c-.556,1.12-.664,1.194-.125,2.382.6,1.319,1.352,2.6,2.064,3.861.349,1.942.778,3.872.96,5.838.462,4.975-3.847,15.973,1.941,18.53A9.492,9.492,0,0,0,321.7,228a7.905,7.905,0,0,0,2.863-.588c.722-.258,1.926-.476,2.256-1.207.346-.767-.085-2.9-.111-3.788q-.109-3.8-.22-7.608c-.072-2.487.052-5.42,1.923-6.758a10.367,10.367,0,0,0,1.248-.836,4.236,4.236,0,0,0,.888-1.52,30.933,30.933,0,0,0,1.871-6.419c.333-2.017-.809-3.057-1.815-4.631-1.051-1.642-1.071-3.669-1.962-5.374s-2.489-2.019-4.351-2.068Q322.991,187.166,321.7,187.194Z" fill="#eac5b0"/>
        <path id="Path_200154" data-name="Path 200154" d="M326.137,281.5c.832-5.271,1.6-10.654,2.728-16.114a167.439,167.439,0,0,0,2.9-46.913,46.235,46.235,0,0,0-19.952-.928c.081-.014-8.126,36.579-9.9,40.256-4.582,9.494-4.2,8.372-12.556,4.349-7.318-3.526-14.055-8.9-21.253-12.792-6.958-3.756-14.626-7.3-22.461-6.238q-1.084,13.564-1.147,27.184c-.015,3.25.029,6.585,1.211,9.613,1.141,2.924,3.258,5.343,5.335,7.7,12.912,14.634,26.346,29.668,44.032,37.921a7.682,7.682,0,0,0,2.761.863,8.161,8.161,0,0,0,4.257-1.409C318.7,315.767,323.272,299.507,326.137,281.5Z" fill="#587bc9"/>
      </g>
      <g id="Group_20063" data-name="Group 20063">
        <g id="Group_20062" data-name="Group 20062">
          <path id="Path_200155" data-name="Path 200155" d="M426.326,221.437,396.4,249.08c-8.334,7.7-22.454,6.193-31.874-3.453L236.815,114.841c-4.508-4.617-5.087-11.338-1.268-14.866l56.1-51.822c3.819-3.529,10.443-2.392,14.653,2.5l119.243,138.61C434.336,199.488,434.659,213.738,426.326,221.437Z" fill="#3b455a"/>
          <g id="Group_20057" data-name="Group 20057">
            <path id="Path_200156" data-name="Path 200156" d="M284.424,121.286l-11.942,10.956-4.549-5,11.942-10.956Z" fill="#e6e6e6"/>
            <path id="Path_200157" data-name="Path 200157" d="M302.328,104.86l-11.942,10.956-4.549-5,11.942-10.956Z" fill="#e6e6e6"/>
            <path id="Path_200158" data-name="Path 200158" d="M320.231,88.435,308.289,99.391l-4.549-5,11.942-10.956Z" fill="#e6e6e6"/>
          </g>
          <g id="Group_20058" data-name="Group 20058">
            <path id="Path_200159" data-name="Path 200159" d="M297.3,135.423l-11.942,10.956-4.549-5,11.942-10.956Z" fill="#e6e6e6"/>
            <path id="Path_200160" data-name="Path 200160" d="M315.2,119l-11.942,10.956-4.549-5L310.65,114Z" fill="#e6e6e6"/>
            <path id="Path_200161" data-name="Path 200161" d="M333.1,102.572,321.16,113.528l-4.549-5,11.942-10.956Z" fill="#e6e6e6"/>
          </g>
          <g id="Group_20059" data-name="Group 20059">
            <path id="Path_200162" data-name="Path 200162" d="M310.166,149.559l-11.942,10.956-4.549-5,11.942-10.956Z" fill="#e6e6e6"/>
            <path id="Path_200163" data-name="Path 200163" d="M328.07,133.134,316.128,144.09l-4.549-5,11.942-10.956Z" fill="#e6e6e6"/>
            <path id="Path_200164" data-name="Path 200164" d="M345.973,116.708l-11.942,10.956-4.549-5,11.942-10.956Z" fill="#e6e6e6"/>
          </g>
          <g id="Group_20061" data-name="Group 20061">
            <g id="Group_20060" data-name="Group 20060">
              <path id="Path_200165" data-name="Path 200165" d="M374.208,173.087l7.334-1.045a26.127,26.127,0,0,0-20.653-21.883l-1.3,6.6A18.842,18.842,0,0,1,374.208,173.087Z" fill="#e6e6e6"/>
              <path id="Path_200166" data-name="Path 200166" d="M358.639,193.621l1.212,7.837a25.876,25.876,0,0,0,21.518-20.875l-7.483-1.433A18.643,18.643,0,0,1,358.639,193.621Z" fill="#e6e6e6"/>
              <path id="Path_200167" data-name="Path 200167" d="M337.381,179.208l-6.991,1.326a26.114,26.114,0,0,0,21.623,20.916l1.161-7.754A18.82,18.82,0,0,1,337.381,179.208Z" fill="#e6e6e6"/>
              <path id="Path_200168" data-name="Path 200168" d="M352.237,156.624l-1.243-6.528a25.883,25.883,0,0,0-20.779,21.616l6.838,1.064A18.654,18.654,0,0,1,352.237,156.624Z" fill="#e6e6e6"/>
            </g>
            <path id="Path_200169" data-name="Path 200169" d="M356.35,164.489A11.222,11.222,0,1,1,344.7,175.177,11.253,11.253,0,0,1,356.35,164.489Z" fill="#e6e6e6"/>
          </g>
          <path id="Path_200170" data-name="Path 200170" d="M373.272,220.1,363.2,229.34l-2.143-2.354,10.068-9.237Z" fill="#7db5db"/>
          <path id="Path_200171" data-name="Path 200171" d="M391.073,203.025l-10.068,9.237-2.143-2.354,10.068-9.237Z" fill="#7db5db"/>
          <path id="Path_200172" data-name="Path 200172" d="M408.875,185.946l-10.068,9.237-2.143-2.354,10.068-9.237Z" fill="#7db5db"/>
        </g>
        <path id="Path_200173" data-name="Path 200173" d="M302.566,66.032a6.388,6.388,0,1,1-9.023-.423A6.429,6.429,0,0,1,302.566,66.032Z" fill="#7db5db"/>
      </g>
    </g>
    <g id="Group_20081" data-name="Group 20081">
      <g id="Group_20074" data-name="Group 20074">
        <path id="Path_200174" data-name="Path 200174" d="M348.617,460.363c38.728-5.167,39.035,45.917,42.766,72.416,1.28,9.093,3.493,18.83,3.438,28.014-.044,7.37-1.963,14.533-1.373,22.044.453,5.771,3,12,8.495,14.359,2.764,1.187,5.939,1.243,8.709,2.418s5.141,4.312,3.747,6.9a7.409,7.409,0,0,1-3.246,2.644L390.6,620.179a111.61,111.61,0,0,1-16.132,7.575c-7.988,2.76-16.529,3.7-25.006,4.115a213.686,213.686,0,0,1-65.1-6.87c-7.91-2.1-20.895-7.576-21.934-17.334-.348-3.263.691-6.494,1.715-9.6l25.335-76.79c7.09-21.491,10.45-52.514,35.557-60.492C333.017,458.253,340.033,461.507,348.617,460.363Z" fill="#d7e8f4"/>
        <g id="Group_20067" data-name="Group 20067">
          <path id="Path_200175" data-name="Path 200175" d="M352.738,686.869a207.924,207.924,0,0,0,20.932,7.517c3.759,1.127,7.626,2.156,11.547,1.991,9.18-.387,15.782-10.638,7.257-17.275a46.154,46.154,0,0,0-12.36-6.868c-6.547-2.416-2.714,2.737-4.7,7.116-2.286,5.042-4.083,4.931-8.809,2.818-6.088-2.722-10.063-5.958-17.048-5.532-1.929.118-4.165.674-4.911,2.457a3.909,3.909,0,0,0,1.005,4.033,11.08,11.08,0,0,0,3.718,2.29Q351.048,686.159,352.738,686.869Z" fill="#3b455a"/>
          <path id="Path_200176" data-name="Path 200176" d="M369.863,683.639l5.919.317c2.144.115,4.536.147,6.132-1.289,1.949-1.752,1.729-5.061.153-7.155s-4.119-3.209-6.615-4.009c-6.025-1.931-12.394-2.526-18.716-2.773a4.523,4.523,0,0,0-1.877.194,3.868,3.868,0,0,0-1.952,2.541C349.321,682.357,362.194,683.229,369.863,683.639Z" fill="#eacdb0"/>
          <path id="Path_200177" data-name="Path 200177" d="M407.387,641.939c-1.439-12.44-7.674-22.315-19.193-27.722-9.343-4.386-19.845-5.417-30.082-6.731-22.8-2.926-44.562-5.85-67.583-4.945-18.408.723-29.754,16.429-38.369,31.919-5.43,9.762-3.922,14.341,2.913,22.517a82.632,82.632,0,0,0,22.5,18.808c16.917,9.613,42.907,7.237,61.539,5.16a143.751,143.751,0,0,0,50.484-15.4C399.688,660.269,408.787,654.052,407.387,641.939Z" fill="#3b455a"/>
          <g id="Group_20066" data-name="Group 20066">
            <path id="Path_200178" data-name="Path 200178" d="M293.921,702.18a4.761,4.761,0,0,0,.171,2.612,3.454,3.454,0,0,0,1.32,1.372c4.07,2.595,9.542-.2,12.658-3.885s5.225-8.349,9.2-11.087c9.1-6.267.77-17.741-8.738-15.109C297.434,679.154,295.105,692.487,293.921,702.18Z" fill="#eacdb0"/>
            <g id="Group_20065" data-name="Group 20065">
              <path id="Path_200179" data-name="Path 200179" d="M416.508,643.1c7.856-5.773,15.733-12.316,18.6-22.039S433.931,597.609,423.8,592c-12.357-6.836-24.495,1.564-33.307,9.495-18.049,16.225-37.721,30.569-56.953,45.41-6.5,5.016-29.049,23.483-29.049,23.483-.62,2.6,11.5,26.151,14.713,25.289C354.283,686.4,388.407,663.75,416.508,643.1Z" fill="#3b455a"/>
              <path id="Path_200180" data-name="Path 200180" d="M239.93,654.285c-7.692-3.744-15.428-8.254-18.47-17.246s.417-23.791,9.944-32.03c11.617-10.047,23.487-4.782,32.16.876,17.764,11.569,37.022,20.835,55.876,30.712,6.372,3.338,28.51,15.986,28.51,15.986.672,2.445-10.21,29.165-13.31,29.135C300.788,681.52,267.447,667.68,239.93,654.285Z" fill="#3b455a"/>
            </g>
          </g>
          <path id="Path_200181" data-name="Path 200181" d="M292.745,679.359a207.792,207.792,0,0,0-7.623,20.893c-1.146,3.754-2.2,7.615-2.05,11.537.341,9.181,10.557,15.836,17.238,7.344a46.153,46.153,0,0,0,6.931-12.324c2.449-6.535-2.724-2.728-7.092-4.735-5.031-2.311-4.91-4.108-2.774-8.823,2.753-6.074,6.01-10.032,5.619-17.019-.108-1.93-.653-4.169-2.432-4.924a3.908,3.908,0,0,0-4.038.985,11.1,11.1,0,0,0-2.31,3.706Q293.465,677.673,292.745,679.359Z" fill="#3b455a"/>
        </g>
        <g id="Group_20073" data-name="Group 20073">
          <g id="Group_20068" data-name="Group 20068">
            <path id="Path_200182" data-name="Path 200182" d="M317,430.667a71.7,71.7,0,0,0,11.272,15.289,121.906,121.906,0,0,1-1.965-33.269,3.205,3.205,0,0,0-.46-2.433,3,3,0,0,0-2.2-.715C309.475,409.063,311.673,420.964,317,430.667Z" fill="#3b455a"/>
          </g>
          <g id="Group_20069" data-name="Group 20069">
            <path id="Path_200183" data-name="Path 200183" d="M342.568,388.026c-34.073-3.452-24.314,40.79-14.628,58.219,1.837,3.3,4.339,6.834,7.86,9.063.585.371-1.389,7.635-1.594,8.514-.584,2.5-2.268,5.343.465,7.176a7.929,7.929,0,0,0,3.9,1.081,25.556,25.556,0,0,0,5.238-.168,11.8,11.8,0,0,0,5.19-1.766c4.343-3.014,2.363-10.67,2.249-15.175a20.672,20.672,0,0,0,2.884-2.236C365.964,441.766,380.093,391.829,342.568,388.026Z" fill="#eac5b0"/>
          </g>
          <g id="Group_20072" data-name="Group 20072">
            <g id="Group_20070" data-name="Group 20070">
              <path id="Path_200184" data-name="Path 200184" d="M355.824,440.694c2.747,2.68,7.389.984,10.456-1.324,12.6-9.48,17.716-27.732,11.885-42.38-4.88-12.257-22.647-18.892-23.033-2.54-.137,5.8,4.671,12.925,5.016,19.267C360.64,422.78,358.046,432,355.824,440.694Z" fill="#3b455a"/>
            </g>
            <g id="Group_20071" data-name="Group 20071">
              <path id="Path_200185" data-name="Path 200185" d="M307.1,378.412c-14.215,12.187-17.356,33.211-29.762,47.235a55.537,55.537,0,0,0,42.541-7.685c12.121-8.008,42.787-17.672,34.914-35.133C346.775,365.058,319.551,367.734,307.1,378.412Z" fill="#3b455a"/>
            </g>
          </g>
        </g>
      </g>
      <g id="Group_20080" data-name="Group 20080">
        <g id="Group_20077" data-name="Group 20077">
          <path id="Path_200186" data-name="Path 200186" d="M385.4,636.375a44.484,44.484,0,0,0-37.567-75.962l-31.372-36.069a44.485,44.485,0,0,0-70.021-47.734l-.034-.066L187.043,528.18l.044.077a25.575,25.575,0,0,0,26.318,42.2l32.748-9.075,55.259,63.532-13.526,31.174A25.575,25.575,0,0,0,326.028,688l.07.054,59.367-51.636Z" fill="#305399"/>
          <path id="Path_200187" data-name="Path 200187" d="M385.313,636.407s-71.006,58.391-99.506,25.629A25.57,25.57,0,0,0,326.028,688l.07.054,59.351-51.622Z" opacity="0.08" style="mix-blend-mode: multiply;isolation: isolate"/>
          <path id="Path_200188" data-name="Path 200188" d="M287.974,532.816l-7.8-8.963a2.474,2.474,0,0,1,.243-3.492l8.963-7.8a2.474,2.474,0,0,0,.244-3.491l-7.8-8.964a2.475,2.475,0,0,0-3.491-.243l-8.964,7.8a2.476,2.476,0,0,1-3.492-.243l-7.634-8.777a2.476,2.476,0,0,0-3.492-.243l-8.963,7.8a2.475,2.475,0,0,0-.243,3.492l7.634,8.777a2.476,2.476,0,0,1-.243,3.492l-8.777,7.634a2.474,2.474,0,0,0-.244,3.491l7.8,8.964a2.476,2.476,0,0,0,3.492.243l8.776-7.634a2.476,2.476,0,0,1,3.492.243l7.8,8.964a2.476,2.476,0,0,0,3.492.243l8.964-7.8A2.476,2.476,0,0,0,287.974,532.816Z" fill="#273d54"/>
          <g id="Group_20075" data-name="Group 20075">
            <circle id="Ellipse_2816" data-name="Ellipse 2816" cx="8.251" cy="8.251" r="8.251" transform="translate(350.255 598.516) rotate(-19.78)" fill="#273d54"/>
            <circle id="Ellipse_2817" data-name="Ellipse 2817" cx="8.252" cy="8.252" r="8.252" transform="translate(325.614 601.366) rotate(-41.391)" fill="#273d54"/>
            <path id="Path_200189" data-name="Path 200189" d="M363.873,632.7a8.251,8.251,0,1,1,.811-11.641A8.251,8.251,0,0,1,363.873,632.7Z" fill="#273d54"/>
            <path id="Path_200190" data-name="Path 200190" d="M341.144,631.531a8.251,8.251,0,1,1,.811-11.641A8.251,8.251,0,0,1,341.144,631.531Z" fill="#273d54"/>
          </g>
          <path id="Path_200191" data-name="Path 200191" d="M288.217,529.33l-7.8-8.964a2.475,2.475,0,0,1,.244-3.492l8.963-7.8a2.476,2.476,0,0,0,.243-3.492l-7.8-8.963a2.475,2.475,0,0,0-3.492-.243l-8.963,7.8a2.476,2.476,0,0,1-3.492-.243l-7.634-8.777a2.476,2.476,0,0,0-3.492-.243l-8.963,7.8a2.475,2.475,0,0,0-.244,3.492l7.634,8.777a2.474,2.474,0,0,1-.243,3.491l-8.777,7.634a2.476,2.476,0,0,0-.243,3.492l7.8,8.964a2.475,2.475,0,0,0,3.491.243l8.777-7.634a2.476,2.476,0,0,1,3.492.243l7.8,8.964a2.476,2.476,0,0,0,3.492.243l8.964-7.8A2.476,2.476,0,0,0,288.217,529.33Z" fill="#eac5b0"/>
          <g id="Group_20076" data-name="Group 20076">
            <circle id="Ellipse_2818" data-name="Ellipse 2818" cx="8.251" cy="8.251" r="8.251" transform="matrix(0.069, -0.998, 0.998, 0.069, 352.25, 607.66)" fill="#eac5b0"/>
            <path id="Path_200192" data-name="Path 200192" d="M342.918,604.841a8.251,8.251,0,1,1,.811-11.642A8.252,8.252,0,0,1,342.918,604.841Z" fill="#eac5b0"/>
            <circle id="Ellipse_2819" data-name="Ellipse 2819" cx="8.252" cy="8.252" r="8.252" transform="translate(347.055 622.251) rotate(-41.391)" fill="#eac5b0"/>
            <path id="Path_200193" data-name="Path 200193" d="M341.387,628.045A8.251,8.251,0,1,1,342.2,616.4,8.251,8.251,0,0,1,341.387,628.045Z" fill="#eac5b0"/>
          </g>
          <path id="Path_200194" data-name="Path 200194" d="M302.429,494.618a42.158,42.158,0,0,1,9.161,17.612,36.968,36.968,0,0,0-67.268-23.107A42.333,42.333,0,0,1,302.429,494.618Z" opacity="0.08" style="mix-blend-mode: multiply;isolation: isolate"/>
          <path id="Path_200195" data-name="Path 200195" d="M180.327,540.763h0A25.577,25.577,0,0,0,213.4,570.455l31.768-8.8S207,571.425,180.327,540.763Z" opacity="0.08" style="mix-blend-mode: multiply;isolation: isolate"/>
          <path id="Path_200196" data-name="Path 200196" d="M306.509,613.291l-23.943-27.656-23.943-27.656L246.09,561.4l27.739,31.8,27.5,32.006Z" opacity="0.08" style="mix-blend-mode: multiply;isolation: isolate"/>
        </g>
        <g id="Group_20078" data-name="Group 20078">
          <path id="Path_200197" data-name="Path 200197" d="M335.181,586.306q-.227.118-.458.212a36.385,36.385,0,0,1-16.448,2.507,1.946,1.946,0,0,1-.8-.183,2.024,2.024,0,0,1-.624-.651c-1.625-2.309-3.294-4.723-3.754-7.509a2.266,2.266,0,0,1,.6-2.291,2.529,2.529,0,0,1,1.66-.236c.889.076,3.219.71,3.967.167.8-.582.176-1.68-.088-2.389l3.3-2.043c.633-.392,2.331-1.927,3.09-1.912l11.717.23,3.771,7.924C339.416,582,337.453,585.11,335.181,586.306Z" fill="#eac5b0"/>
          <path id="Path_200198" data-name="Path 200198" d="M399.191,528.314c1.582,7.536,2.92,15.138,4.243,22.693a15.912,15.912,0,0,1,.32,5.376c-.885,5.212-6.412,8.074-11.279,10.141l-23.137,9.825c-7.7,3.271-16.14,8.4-24.271,10.3-4.716,1.1-4.806-.847-8.12-4.954-1.613-2-3.721-6.06-5.951-7.378,2.97,1.269,11.486-6.413,13.691-8.129,6.966-5.418,14.266-10.65,20.845-16.64,1.587-1.445,3.233-3.084,3.566-5.2a9.879,9.879,0,0,0-.741-4.563l-17.352-52.485c-1.464-4.427-2.932-9.239-1.436-13.655,2.464-7.273,12.291-9.785,19.357-6.777s11.738,9.792,15.313,16.588C391.612,497.47,395.923,512.752,399.191,528.314Z" fill="#d7e8f4"/>
        </g>
        <g id="Group_20079" data-name="Group 20079">
          <path id="Path_200199" data-name="Path 200199" d="M279.016,581.634a4.206,4.206,0,0,0,.419.07,30.66,30.66,0,0,0,13.918-1.649,1.674,1.674,0,0,0,.606-.327,1.711,1.711,0,0,0,.36-.669c.8-2.239,1.617-4.573,1.367-6.938-.074-.7-.334-1.5-1-1.726a2.132,2.132,0,0,0-1.4.179c-.705.262-2.455,1.3-3.184,1.025-.78-.293-.519-1.324-.464-1.959l-3.14-.919c-.6-.177-2.325-1.042-2.938-.86l-9.463,2.811-1.287,7.28C274.612,579.086,276.9,581.172,279.016,581.634Z" fill="#eac5b0"/>
          <path id="Path_200200" data-name="Path 200200" d="M245.938,567.048a16.364,16.364,0,0,0-.443,2.405c-.423,3.609,0,7.542,2.295,10.353a12.927,12.927,0,0,0,3.882,3.049c5.619,3.067,11.878,3.017,17.968,1.751,3.426-.712,1.955,1.114,4.706-1.926a18.264,18.264,0,0,0,3.67-8.762c.3-3.61.743-1.407-1.9-3.808-2.535-2.3-6.66-4.2-9.611-6.04-3.141-1.957-6.61-3.613-10.307-3.78s-7.655,1.438-9.439,4.68A9.4,9.4,0,0,0,245.938,567.048Z" fill="#d7e8f4"/>
        </g>
      </g>
    </g>
  </g>
</svg>
