<svg width="446" height="372" viewBox="0 0 446 372" fill="none" xmlns="http://www.w3.org/2000/svg">
<path d="M50.9167 263.763C48.2922 264.052 45.4294 264.487 42.3839 265.125C29.4713 267.819 29.2032 276.805 29.3161 278.865L29.2281 278.809C28.0393 280.766 27.1607 282.904 26.6251 285.143L26.034 257.601C26.4356 256.729 26.7766 255.829 27.0544 254.908C28.0208 257.958 29.6058 260.84 30.9717 260.649C32.7476 260.4 33.5223 255.045 33.191 251.238C35.4494 254.217 39.2521 257.408 40.6843 256.424C41.8301 255.639 41.1509 252.404 39.8997 249.464C42.506 251.073 45.3929 252.131 46.2929 251.109C47.5151 249.714 44.5858 244.956 41.8849 242.3C45.5008 242.646 50.0997 242.055 50.4011 240.369C50.6502 238.979 47.9103 237.225 44.9835 236.097C47.9261 235.302 50.6776 233.916 50.5863 232.546C50.4775 230.918 46.3925 229.823 42.8646 229.661C45.5216 227.533 47.9651 224.583 47.2187 223.251C46.532 222.025 43.3379 222.5 40.3904 223.579C42.134 221.026 43.3603 218.144 42.4271 217.158C41.2647 215.93 37.1349 218.049 34.3177 220.392C34.8665 216.743 34.5892 212.138 32.9893 211.721C31.6533 211.372 29.7603 214.051 28.4617 216.97C27.888 213.907 26.7264 211 25.3897 211C23.48 211 21.9324 216.9 21.9324 220.744C21.9324 220.961 21.9382 221.169 21.9473 221.361C21.7555 221.133 21.5322 220.895 21.2831 220.646C18.5921 217.968 13.3838 214.995 12.0536 216.399C11.1196 217.384 12.3459 220.264 14.0903 222.82C11.1428 221.741 7.94624 221.266 7.26208 222.492C6.33964 224.137 10.2835 228.246 13.4892 230.235C13.2966 230.211 13.094 230.191 12.879 230.176C9.13686 229.914 3.28751 231.095 3.15799 233.048C3.06666 234.419 5.8149 235.804 8.76075 236.599C5.8315 237.727 3.09406 239.481 3.34314 240.871C3.64454 242.557 8.24182 243.148 11.8594 242.802C9.15845 245.459 6.22921 250.217 7.45139 251.611C8.34726 252.632 11.2342 251.575 13.8446 249.966C12.5933 252.906 11.9142 256.141 13.06 256.926C14.5744 257.964 18.7266 254.351 20.9161 251.242C20.6928 255.045 21.5803 260.27 23.343 260.476C24.0795 260.561 24.8608 259.757 25.5649 258.519L23.5722 288.122C23.1056 291.57 26.0896 293.824 26.3561 295.24L26.7862 315.286C26.2717 313.767 25.5936 312.312 24.7645 310.947L24.6765 311.003C24.7894 308.943 24.5212 299.956 11.6086 297.262C8.56314 296.627 5.70032 296.193 3.07579 295.901C2.42411 295.831 1.76929 295.999 1.22639 296.375C0.683481 296.751 0.287217 297.311 0.107212 297.956C-0.0727918 298.602 -0.0250202 299.292 0.242134 299.905C0.509288 300.519 0.978735 301.016 1.568 301.309C5.62061 303.342 9.43328 305.904 11.421 308.937C16.5015 316.692 23.5215 312.209 24.5195 311.513C25.5491 313.269 26.3262 315.169 26.8269 317.153L27.0552 327.799C26.9996 328.055 26.9606 328.192 26.9572 328.203L27.0643 328.235L27.6173 354L32.7493 353.957L30.9135 327.622C31.7435 323.908 31.7435 320.05 30.9135 316.336L29.0778 295.644C29.0728 295.628 29.1816 296.187 29.0778 295.644L26.6832 287.513C27.0725 284.633 28.0238 281.864 29.4805 279.369C30.4768 280.065 37.4985 284.548 42.579 276.793C44.5659 273.76 48.3786 271.198 52.432 269.166C53.0213 268.872 53.4907 268.375 53.7579 267.762C54.025 267.149 54.0728 266.459 53.8928 265.813C53.7128 265.167 53.3165 264.607 52.7736 264.231C52.2307 263.855 51.5759 263.687 50.9242 263.757L50.9167 263.763ZM27.4745 324.721L27.3774 320.212C27.5477 321.708 27.5802 323.218 27.4745 324.721Z" fill="#9CBCFF"/>
<path d="M4.12604e-06 353C-0.000318001 353.131 0.0182247 353.262 0.0545644 353.383C0.0909042 353.505 0.144323 353.615 0.211745 353.708C0.279167 353.801 0.359261 353.875 0.447414 353.925C0.535566 353.975 0.630037 354 0.725386 354H445.275C445.467 354 445.652 353.895 445.788 353.707C445.924 353.52 446 353.265 446 353C446 352.735 445.924 352.48 445.788 352.293C445.652 352.105 445.467 352 445.275 352H0.725386C0.63006 352 0.535625 352.025 0.447509 352.075C0.359393 352.126 0.279332 352.199 0.211926 352.292C0.14452 352.385 0.0910976 352.495 0.0547292 352.617C0.0183608 352.738 -0.000237105 352.869 4.12604e-06 353Z" fill="#3F3D56"/>
<path d="M327.05 354.212C352.484 354.212 373.102 333.593 373.102 308.16C373.102 282.726 352.484 262.107 327.05 262.107C301.617 262.107 280.998 282.726 280.998 308.16C280.998 333.593 301.617 354.212 327.05 354.212Z" fill="#3F3D56"/>
<path d="M327.051 338.862C344.006 338.862 357.752 325.116 357.752 308.16C357.752 291.204 344.006 277.459 327.051 277.459C310.095 277.459 296.349 291.204 296.349 308.16C296.349 325.116 310.095 338.862 327.051 338.862Z" fill="white"/>
<path d="M327.051 325.641C336.706 325.641 344.533 317.814 344.533 308.159C344.533 298.503 336.706 290.676 327.051 290.676C317.395 290.676 309.568 298.503 309.568 308.159C309.568 317.814 317.395 325.641 327.051 325.641Z" fill="#3F3D56"/>
<path d="M60.9715 354.212C86.4054 354.212 107.024 333.593 107.024 308.16C107.024 282.726 86.4054 262.107 60.9715 262.107C35.5377 262.107 14.9194 282.726 14.9194 308.16C14.9194 333.593 35.5377 354.212 60.9715 354.212Z" fill="#3F3D56"/>
<path d="M60.9717 338.862C77.9276 338.862 91.673 325.116 91.673 308.16C91.673 291.204 77.9276 277.459 60.9717 277.459C44.0157 277.459 30.2703 291.204 30.2703 308.16C30.2703 325.116 44.0157 338.862 60.9717 338.862Z" fill="white"/>
<path d="M390.05 286.257C384.051 271.139 363.088 224.94 325.759 209.653C325.472 209.536 325.171 209.454 324.863 209.411L205.123 192.259C204.175 192.123 203.211 192.365 202.439 192.933C201.667 193.501 201.149 194.348 200.996 195.294L198.896 208.257C198.751 209.146 198.941 210.058 199.428 210.815C205.51 220.25 244.482 284.281 182.072 284.281C120.644 284.281 102.463 239.616 99.7331 231.735C99.4755 230.993 99.4648 230.187 99.7024 229.438L118.621 169.526C118.78 169.023 118.826 168.492 118.758 167.968C118.691 167.445 118.51 166.943 118.228 166.497L126.545 151.051L141.779 159.675L149.665 159.77L176.59 173.842L182.072 164.887L126.545 137.191C126.545 137.191 126.639 130.774 108.73 125.657L80.5873 112.865L77.1761 117.129L85.7042 123.952L86.557 129.069L92.5268 130.774L104.466 153.8L101.055 160.398L105.195 162.416L104.006 162.146C103.176 161.957 102.306 162.064 101.546 162.448C100.786 162.832 100.184 163.469 99.8439 164.249L81.0308 207.368C80.7429 208.028 80.2668 208.588 79.662 208.979L72.9597 213.303C72.3333 213.707 71.8453 214.293 71.5611 214.982L63.9062 233.551C63.678 234.112 63.5939 234.721 63.6615 235.323C54.1185 237.131 26.0659 244.94 10.6589 275.753L28.5681 290.251C28.5681 290.251 56.6411 272.086 103.038 291.002C111.102 303.554 122.867 313.97 139.852 314.953C184.634 317.541 258.829 320.1 267.358 309.866C273.601 302.374 277.944 297.696 279.823 295.728C280.484 295.035 281.391 294.631 282.348 294.602L386.765 291.266C387.353 291.248 387.927 291.088 388.44 290.801C388.952 290.514 389.388 290.107 389.711 289.616C390.033 289.125 390.232 288.563 390.291 287.978C390.35 287.393 390.267 286.803 390.05 286.257Z" fill="#3E7CFF"/>
<path d="M101.907 152.093C109.443 152.093 115.552 145.984 115.552 138.448C115.552 130.912 109.443 124.803 101.907 124.803C94.3708 124.803 88.2617 130.912 88.2617 138.448C88.2617 145.984 94.3708 152.093 101.907 152.093Z" fill="#3F3D56"/>
<path d="M320.427 209.707C320.266 209.707 320.103 209.707 319.94 209.697L205.852 205.28C203.402 205.196 201.035 204.368 199.067 202.905C197.1 201.443 195.624 199.415 194.836 197.093L193.275 192.549C192.654 190.742 192.468 188.814 192.732 186.922C192.996 185.03 193.702 183.227 194.794 181.66C195.886 180.092 197.332 178.804 199.015 177.9C200.698 176.996 202.571 176.503 204.481 176.459L322.355 173.749C324.165 173.708 325.962 174.071 327.614 174.814C329.265 175.557 330.73 176.659 331.9 178.041C333.071 179.422 333.918 181.048 334.379 182.8C334.84 184.551 334.903 186.383 334.564 188.162L332.342 199.832C331.828 202.613 330.353 205.125 328.175 206.93C325.998 208.735 323.256 209.717 320.427 209.707Z" fill="#3F3D56"/>
<path d="M60.972 325.641C70.6274 325.641 78.4547 317.814 78.4547 308.159C78.4547 298.503 70.6274 290.676 60.972 290.676C51.3165 290.676 43.4893 298.503 43.4893 308.159C43.4893 317.814 51.3165 325.641 60.972 325.641Z" fill="#3F3D56"/>
<path d="M366.262 258.386C364.89 258.386 363.542 258.017 362.361 257.319C361.18 256.621 360.207 255.618 359.545 254.416L350.902 238.775C350.239 237.576 349.909 236.222 349.946 234.852C349.983 233.483 350.385 232.148 351.111 230.986C351.838 229.825 352.861 228.878 354.076 228.245C355.291 227.612 356.653 227.315 358.021 227.385L373.701 228.188C375.141 228.268 376.53 228.748 377.711 229.575C378.892 230.402 379.818 231.543 380.385 232.869L384.967 243.699C385.377 244.67 385.584 245.714 385.574 246.767C385.564 247.82 385.337 248.86 384.908 249.822C384.48 250.784 383.858 251.648 383.081 252.359C382.305 253.071 381.391 253.615 380.395 253.959L368.776 257.967C367.967 258.246 367.117 258.387 366.262 258.386Z" fill="#3F3D56"/>
<path d="M167.94 362.336C167.809 362.336 167.678 362.328 167.548 362.314L164.066 361.927C163.51 361.865 162.977 361.674 162.508 361.37C162.039 361.066 161.647 360.656 161.364 360.174C161.081 359.692 160.914 359.15 160.878 358.592C160.841 358.035 160.934 357.476 161.151 356.96L179.262 313.946L179.655 314.111L179.262 313.946C179.508 313.365 179.902 312.858 180.405 312.477C180.908 312.096 181.503 311.853 182.129 311.774C182.732 311.698 183.345 311.777 183.91 312.003C184.475 312.23 184.973 312.595 185.358 313.067C185.743 313.538 186.002 314.099 186.111 314.697C186.22 315.296 186.175 315.913 185.981 316.489L171.352 359.89C171.108 360.602 170.649 361.22 170.037 361.658C169.426 362.097 168.693 362.334 167.94 362.336Z" fill="#3F3D56"/>
<path d="M261.977 62.1551C261.977 62.1551 255.351 48.9032 256.676 36.9766L234.623 48.4069L235.476 70.1068L261.98 62.1551H261.977Z" fill="#FFB9C3"/>
<path d="M248.292 54.5295C259.279 54.5295 268.185 45.6228 268.185 34.6358C268.185 23.6489 259.279 14.7422 248.292 14.7422C237.305 14.7422 228.398 23.6489 228.398 34.6358C228.398 45.6228 237.305 54.5295 248.292 54.5295Z" fill="#FFB9C3"/>
<path d="M268.613 347.034H256.474L250.699 300.215H268.615L268.613 347.034Z" fill="#FFB9C3"/>
<path d="M227.022 346.757C226.639 347.861 226.444 349.021 226.445 350.189C226.445 351.282 226.879 352.33 227.652 353.102C228.424 353.875 229.472 354.309 230.565 354.309H268.159C268.905 354.309 269.621 354.013 270.149 353.485C270.677 352.957 270.973 352.241 270.973 351.495V349.93C270.973 349.93 272.833 345.226 269.004 339.427C269.004 339.427 264.245 343.967 257.135 336.857L255.037 333.059L239.857 344.16L231.444 345.195C229.604 345.422 227.972 345.16 227.025 346.755L227.022 346.757Z" fill="#2F2E41"/>
<path d="M232.823 62.1555L261.977 58.1797L284.506 68.781L285.831 150.944C285.831 150.944 230.413 157.57 221.679 148.956C212.945 140.342 219.571 71.435 219.571 71.435L232.823 62.1589V62.1555Z" fill="#3E7CFF"/>
<path d="M243.317 39.7028H237.969C237.969 39.7028 233.328 33.9889 233.953 37.471C234.577 40.953 232.076 44.6969 232.076 44.6969L228.331 43.4484C228.331 43.4484 220.84 11.9505 243.313 10.2201C265.787 8.48973 270.782 25.9691 270.782 25.9691C270.782 25.9691 269.534 34.7087 267.037 32.2117C264.54 29.7146 250.806 28.4661 250.806 28.4661L243.315 39.7028H243.317Z" fill="#2F2E41"/>
<path d="M219.326 254.333L208.224 259.242L184.004 218.757L200.39 211.508L219.326 254.333Z" fill="#FFB9C3"/>
<path d="M181.178 270.904C181.274 272.068 181.564 273.208 182.038 274.276C182.48 275.275 183.301 276.058 184.32 276.452C185.339 276.846 186.473 276.819 187.472 276.377L221.853 261.171C222.534 260.868 223.067 260.308 223.336 259.613C223.604 258.918 223.587 258.145 223.286 257.463L222.653 256.032C222.653 256.032 222.451 250.978 216.604 247.225C216.604 247.225 214.089 253.302 204.709 249.675L201.255 247.049L191.864 263.338L184.589 267.687C182.997 268.639 181.398 269.059 181.177 270.901L181.178 270.904Z" fill="#2F2E41"/>
<path d="M281.855 142.994L285.831 155.018V196.34L272.845 233.779L273.905 321.059H250.604L247.975 232.03L250.051 188.047L234.148 181.421L192.378 183.999L211.907 232.018L190.412 246.356C190.412 246.356 158.261 173.089 163.073 165.991C167.886 158.893 224.205 146.371 224.205 146.371C224.205 146.371 281.855 144.316 281.855 142.99V142.994Z" fill="#2F2E41"/>
<path d="M293.782 95.2832L300.189 105.773C300.189 105.773 309.246 141.372 300.189 141.517C291.132 141.662 272.845 123.375 272.845 123.375L275.233 113.833L281.859 116.483L280.53 95.2832H293.782Z" fill="#FFB9C3"/>
<path d="M273.904 68.6137C273.904 68.6137 295.108 64.8783 297.096 78.7562C299.084 92.6341 300.19 105.778 300.19 105.778L277.217 107.681L273.904 68.6137Z" fill="#3E7CFF"/>
<path d="M278.515 122.205C280.432 119.512 277.619 114.222 272.234 110.389C266.848 106.557 260.929 105.633 259.012 108.325C257.096 111.018 259.908 116.308 265.294 120.141C270.68 123.974 276.599 124.898 278.515 122.205Z" fill="#FFB9C3"/>
<path d="M442.817 261.636C440.121 261.926 437.181 262.362 434.053 263.001C420.79 265.702 420.514 274.708 420.63 276.772L420.54 276.716C419.319 278.677 418.417 280.82 417.866 283.063L417.259 255.46C417.672 254.586 418.022 253.685 418.307 252.761C419.3 255.819 420.928 258.707 422.331 258.515C424.155 258.266 424.951 252.898 424.61 249.084C426.93 252.069 430.836 255.267 432.307 254.281C433.484 253.494 432.786 250.252 431.501 247.306C434.178 248.918 437.143 249.978 438.068 248.954C439.323 247.556 436.315 242.787 433.54 240.126C437.254 240.472 441.978 239.88 442.288 238.19C442.543 236.797 439.729 235.04 436.722 233.909C439.745 233.112 442.571 231.723 442.477 230.35C442.365 228.719 438.169 227.621 434.546 227.458C437.275 225.326 439.785 222.369 439.018 221.034C438.313 219.806 435.032 220.282 432.004 221.363C433.795 218.805 435.056 215.916 434.096 214.928C432.902 213.697 428.66 215.821 425.767 218.168C426.331 214.512 426.046 209.896 424.402 209.478C423.03 209.129 421.086 211.814 419.752 214.739C419.163 211.669 417.97 208.756 416.597 208.756C414.635 208.756 413.045 214.669 413.045 218.521C413.045 218.739 413.051 218.948 413.061 219.14C412.864 218.911 412.634 218.673 412.379 218.423C409.615 215.74 404.265 212.76 402.899 214.167C401.939 215.155 403.199 218.04 404.991 220.602C401.963 219.521 398.68 219.045 397.977 220.273C397.029 221.922 401.08 226.041 404.373 228.034C404.175 228.01 403.967 227.989 403.746 227.975C399.903 227.712 393.895 228.896 393.762 230.853C393.668 232.227 396.491 233.615 399.516 234.412C396.508 235.543 393.696 237.3 393.951 238.693C394.26 240.383 398.982 240.975 402.698 240.629C399.924 243.292 396.915 248.06 398.171 249.457C399.091 250.481 402.056 249.422 404.737 247.809C403.452 250.755 402.754 253.997 403.931 254.784C405.487 255.824 409.752 252.203 412.002 249.087C411.772 252.899 412.684 258.136 414.494 258.342C415.251 258.427 416.053 257.621 416.776 256.381L414.73 286.05C414.25 289.506 417.315 291.764 417.589 293.183L418.031 313.274C417.502 311.752 416.806 310.293 415.954 308.925L415.864 308.981C415.98 306.917 415.705 297.91 402.442 295.21C399.313 294.573 396.373 294.138 393.677 293.846C393.008 293.776 392.335 293.944 391.777 294.321C391.22 294.698 390.813 295.259 390.628 295.906C390.443 296.553 390.492 297.245 390.767 297.859C391.041 298.474 391.523 298.972 392.128 299.266C396.291 301.303 400.207 303.871 402.249 306.911C407.467 314.683 414.678 310.19 415.703 309.492C416.76 311.253 417.559 313.157 418.073 315.146L418.307 325.815C418.25 326.071 418.21 326.209 418.207 326.219L418.317 326.252L418.885 352.074L424.156 352.032L422.27 325.638C423.123 321.915 423.123 318.048 422.27 314.326L420.385 293.588C420.38 293.572 420.491 294.132 420.385 293.588L417.925 285.439C418.325 282.553 419.302 279.777 420.798 277.277C421.822 277.975 429.034 282.467 434.252 274.696C436.293 271.655 440.209 269.088 444.373 267.051C444.978 266.757 445.46 266.259 445.735 265.644C446.009 265.029 446.058 264.338 445.873 263.691C445.688 263.044 445.281 262.482 444.724 262.106C444.166 261.729 443.493 261.561 442.824 261.63L442.817 261.636ZM418.74 322.731L418.64 318.211C418.815 319.711 418.848 321.224 418.739 322.731H418.74Z" fill="#9CBCFF"/>
<path d="M391.808 348.865L400.971 346.885L397.694 310.602L384.17 313.524L391.808 348.865Z" fill="#FFB9C3"/>
<path d="M423.155 341.876C423.625 342.646 423.961 343.49 424.151 344.372C424.329 345.197 424.172 346.059 423.714 346.768C423.257 347.477 422.537 347.975 421.712 348.153L393.337 354.284C392.775 354.406 392.187 354.299 391.703 353.987C391.219 353.675 390.879 353.184 390.758 352.621L390.502 351.44C390.502 351.44 388.331 348.193 390.275 343.193C390.275 343.193 394.607 345.843 398.814 339.317L399.777 336.107L413.044 342.011L419.563 341.42C420.989 341.292 422.179 340.823 423.154 341.877L423.155 341.876Z" fill="#2F2E41"/>
<path d="M408.197 346.087L415.841 340.662L398.551 308.596L387.27 316.604L408.197 346.087Z" fill="#FFB9C3"/>
<path d="M434.268 327.328C435.002 327.852 435.644 328.495 436.165 329.231C436.653 329.919 436.848 330.772 436.706 331.604C436.565 332.436 436.1 333.177 435.412 333.666L411.738 350.466C411.269 350.799 410.686 350.933 410.119 350.837C409.552 350.741 409.046 350.423 408.712 349.954L408.013 348.968C408.013 348.968 404.74 346.836 404.559 341.475C404.559 341.475 409.584 342.207 410.884 334.552L410.507 331.226L425.027 331.433L430.788 328.325C432.049 327.643 432.959 326.751 434.268 327.332L434.268 327.328Z" fill="#2F2E41"/>
<path d="M298.073 166.704C298.073 166.704 283.819 186.085 312.326 207.872L370.532 189.273L349.749 145.919L331.337 135.822L298.078 166.707L298.073 166.704Z" fill="#2F2E41"/>
<path d="M370.536 189.272L393.106 233.222L407.36 324.688L389.542 325.876L371.724 239.161L340.246 192.241L362.221 182.145" fill="#2F2E41"/>
<path d="M312.331 194.066V207.871L352.718 252.229C352.718 252.229 352.718 285.488 368.16 300.931L385.978 328.249L401.42 319.934L378.851 240.35L338.464 188.084L312.331 194.066Z" fill="#2F2E41"/>
<path d="M341.031 57.1975L333.423 86.2035L304.417 80.4973C304.417 80.4973 324.656 59.6298 321.803 50.1191L341.032 57.1975H341.031Z" fill="#FFB9C3"/>
<path d="M318.864 61.5723L336.682 69.8872C336.682 69.8872 345.848 75.4902 346.017 79.2222C346.186 82.9541 344.994 100.772 344.994 100.772C344.994 100.772 352.121 107.899 347.37 122.154L349.746 145.911L296.292 174.419L301.043 124.53L298.67 78.2022L318.864 61.5723Z" fill="#3F3D56"/>
<path d="M302.871 196.755C304.956 201.542 309.117 204.345 312.166 203.017C315.215 201.69 315.989 196.733 313.902 191.945C313.093 190.021 311.836 188.319 310.235 186.98L301.143 166.809L291.762 171.28L301.727 190.687C301.618 192.772 302.01 194.852 302.871 196.754V196.755Z" fill="#FFB9C3"/>
<path d="M312.331 81.1738C312.331 81.1738 299.266 72.8589 294.513 82.3618C289.759 91.8647 279.071 140.567 279.071 140.567L294.513 186.894L308.767 180.955L296.294 131.098L312.327 81.1747L312.331 81.1738Z" fill="#3F3D56"/>
<path d="M379.3 189.278C383.003 192.959 387.904 194.032 390.246 191.676C392.588 189.319 391.485 184.427 387.781 180.743C386.321 179.251 384.525 178.131 382.544 177.476L366.658 162.076L359.59 169.685L376.001 184.058C376.668 186.036 377.8 187.826 379.3 189.277V189.278Z" fill="#FFB9C3"/>
<path d="M345.515 78.3412C345.515 78.3412 322.734 77.4099 321.818 87.9942C320.902 98.5785 336.475 145.81 336.475 145.81L367.898 183.189L378.961 172.416L348.999 130.661L345.515 78.3412Z" fill="#3F3D56"/>
<path d="M323.097 147.207L304.069 89.4467C288.686 75.8911 271.998 108.528 227.2 90.0283L241.29 155.363C275.161 137.053 304.316 129.879 323.097 147.207Z" fill="#9CBCFF"/>
<path d="M241.29 156.219C241.095 156.219 240.906 156.152 240.754 156.03C240.602 155.907 240.497 155.736 240.456 155.546L226.366 90.2106C226.333 90.0587 226.342 89.9006 226.393 89.7536C226.443 89.6066 226.533 89.4762 226.653 89.3765C226.772 89.2768 226.916 89.2117 227.07 89.1881C227.224 89.1645 227.381 89.1834 227.525 89.2427C252.974 99.7528 269.398 93.4957 281.393 88.9263C290.51 85.4519 297.71 82.711 304.633 88.8095C304.747 88.9098 304.832 89.0388 304.879 89.183L323.908 146.943C323.967 147.123 323.965 147.317 323.902 147.495C323.839 147.673 323.719 147.825 323.56 147.928C323.401 148.03 323.213 148.077 323.024 148.06C322.836 148.044 322.659 147.965 322.52 147.837C306.007 132.605 280.323 135.235 241.696 156.117C241.571 156.184 241.431 156.219 241.29 156.219ZM228.371 91.4191L241.884 154.074C278.949 134.225 304.334 131.165 321.334 144.579L303.333 89.9352C297.235 84.7125 290.833 87.1516 282.001 90.516C269.976 95.0973 253.595 101.338 228.371 91.4191Z" fill="#3F3D56"/>
<path d="M204.254 96.1362L197.846 106.626C197.846 106.626 188.789 142.225 197.846 142.37C206.903 142.515 225.19 124.228 225.19 124.228L222.802 114.686L216.176 117.336L217.501 96.1328H204.254V96.1362Z" fill="#FFB9C3"/>
<path d="M224.134 69.4672C224.134 69.4672 202.93 65.7318 200.942 79.6097C198.954 93.4876 197.848 106.631 197.848 106.631L220.82 108.535L224.134 69.4672Z" fill="#3E7CFF"/>
<path d="M232.749 121.007C238.135 117.174 240.947 111.884 239.031 109.192C237.115 106.499 231.195 107.423 225.81 111.256C220.424 115.088 217.612 120.378 219.528 123.071C221.444 125.764 227.364 124.84 232.749 121.007Z" fill="#FFB9C3"/>
<path d="M99.2283 359.834C103.203 359.834 106.424 356.612 106.424 352.637C106.424 348.663 103.203 345.441 99.2283 345.441C95.254 345.441 92.0322 348.663 92.0322 352.637C92.0322 356.612 95.254 359.834 99.2283 359.834Z" fill="#3F3D56"/>
<path d="M108.823 371.002C112.797 371.002 116.019 367.78 116.019 363.805C116.019 359.831 112.797 356.609 108.823 356.609C104.849 356.609 101.627 359.831 101.627 363.805C101.627 367.78 104.849 371.002 108.823 371.002Z" fill="#3F3D56"/>
<path d="M180.784 371.002C184.758 371.002 187.98 367.78 187.98 363.805C187.98 359.831 184.758 356.609 180.784 356.609C176.81 356.609 173.588 359.831 173.588 363.805C173.588 367.78 176.81 371.002 180.784 371.002Z" fill="#3F3D56"/>
<path d="M119.364 256.087V177.929C119.364 169.179 126.682 167.013 135.432 167.013C139.72 167.013 141.806 166.514 144.813 169.571C147.82 172.627 151.171 173.897 151.1 178.184L149.841 254.878L119.364 256.087ZM136.285 172.134C128.475 172.134 121.07 170.119 121.07 177.933V254.318L148.162 253.247L149.394 178.165C149.458 174.338 143.233 174.865 140.549 172.137C137.865 169.409 140.112 172.137 136.285 172.137V172.134Z" fill="#3F3D56"/>
<path d="M97.9466 255.148L96.8516 340.541C96.8377 341.64 97.0998 342.725 97.614 343.696L105.682 358.934C106.263 360.032 107.144 360.943 108.222 361.56C109.301 362.177 110.532 362.476 111.773 362.422L182.612 359.296C183.475 359.258 184.321 359.05 185.102 358.685C185.884 358.319 186.586 357.803 187.168 357.166C187.75 356.53 188.201 355.784 188.495 354.973C188.789 354.162 188.921 353.3 188.882 352.438L184.442 254.933C184.365 253.245 183.64 251.652 182.419 250.485C181.197 249.318 179.573 248.666 177.884 248.666H104.511C102.784 248.666 101.126 249.346 99.8973 250.559C98.6682 251.772 97.9664 253.421 97.944 255.147L97.9466 255.148Z" fill="#9ACFFF"/>
<path d="M125.866 293.685L124.16 293.599L124.792 280.961C124.97 277.666 126.381 274.559 128.745 272.257C131.109 269.956 134.252 268.628 137.55 268.539L167.718 267.838C170.636 267.763 173.467 268.83 175.61 270.811C177.754 272.792 179.04 275.531 179.195 278.445L179.837 290.001L178.131 290.096L177.49 278.54C177.358 276.069 176.268 273.746 174.451 272.067C172.633 270.387 170.233 269.483 167.759 269.547L137.591 270.248C134.724 270.324 131.99 271.478 129.934 273.479C127.878 275.48 126.65 278.181 126.495 281.046L125.866 293.685Z" fill="#3F3D56"/>
<path d="M124.664 354.895L122.967 354.725L126.646 318.853C126.994 315.625 128.481 312.627 130.842 310.398C133.203 308.169 136.281 306.856 139.524 306.694L168.946 305.375C170.763 305.293 172.578 305.579 174.283 306.213C175.988 306.848 177.547 307.82 178.869 309.07C180.19 310.32 181.246 311.823 181.974 313.49C182.703 315.157 183.088 316.954 183.107 318.773L183.436 350.005L181.731 350.022L181.401 318.791C181.385 317.2 181.048 315.63 180.411 314.173C179.775 312.716 178.851 311.401 177.696 310.309C176.541 309.216 175.178 308.367 173.687 307.812C172.197 307.257 170.611 307.008 169.022 307.079L139.6 308.398C136.765 308.539 134.074 309.687 132.011 311.635C129.947 313.584 128.646 316.204 128.343 319.026L124.664 354.895Z" fill="#3F3D56"/>
<path d="M111.476 352.421L109.77 352.4L110.849 270.427C110.878 267.736 111.95 265.161 113.837 263.242C115.725 261.324 118.282 260.211 120.973 260.137L178.964 258.432L179.014 260.137L121.023 261.843C118.772 261.904 116.633 262.835 115.054 264.44C113.475 266.044 112.579 268.198 112.554 270.45L111.476 352.421Z" fill="#3F3D56"/>
<path d="M109.251 342.465H108.065V267.81C108.064 266.672 107.612 265.582 106.808 264.778C106.004 263.973 104.913 263.521 103.776 263.52H97.1492V261.814H103.776C105.273 261.816 106.716 262.378 107.821 263.39C108.925 264.401 109.612 265.789 109.745 267.281C109.762 267.452 109.771 267.631 109.771 267.81V303.159L109.251 342.465Z" fill="#3F3D56"/>
<path d="M353.412 41.692C353.412 45.606 352.251 49.4321 350.077 52.6865C347.902 55.9409 344.811 58.4773 341.195 59.9752C337.579 61.473 333.6 61.8649 329.761 61.1013C325.923 60.3377 322.396 58.4529 319.629 55.6853C316.861 52.9177 314.976 49.3915 314.213 45.5527C313.449 41.7139 313.841 37.7349 315.339 34.1188C316.837 30.5027 319.373 27.412 322.628 25.2375C325.882 23.063 329.708 21.9023 333.622 21.9023C338.871 21.9023 343.904 23.9873 347.616 27.6986C351.327 31.4099 353.412 36.4434 353.412 41.692Z" fill="#FFB9C3"/>
<path d="M332.043 15.0844C332.615 15.4187 333.383 14.9138 333.566 14.2759C333.683 13.619 333.598 12.9422 333.324 12.3341L332.256 9.17181C331.499 6.9289 330.696 4.60753 329.055 2.9002C326.582 0.323837 322.645 -0.331979 319.104 0.14304C314.556 0.752803 310.068 3.21318 307.954 7.28794C305.84 11.3627 306.74 17.0424 310.561 19.583C305.115 25.8248 303.217 32.7812 303.517 41.0595C303.817 49.3378 312.838 56.956 318.721 62.7875C320.034 61.991 321.229 58.2591 320.507 56.9031C319.785 55.5471 320.82 53.9762 319.924 52.7243C319.029 51.4724 318.281 53.4637 319.186 52.222C319.756 51.4382 317.529 49.6354 318.377 49.1663C322.48 46.9047 323.846 41.7878 326.423 37.8691C327.999 35.5112 330.077 33.5306 332.507 32.069C334.938 30.6074 337.662 29.7009 340.483 29.4143C343.604 29.0168 346.765 29.739 349.404 31.4525C351.946 33.2536 353.592 36.4713 353.003 39.5304C353.769 38.7518 354.348 37.8084 354.695 36.7721C355.041 35.7358 355.147 34.634 355.003 33.5508C354.859 32.4676 354.469 31.4316 353.864 30.5219C353.259 29.6121 352.454 28.8526 351.51 28.3013C352.063 26.3997 352.124 24.3891 351.689 22.4572C351.254 20.5254 350.337 18.7352 349.023 17.2539C346.371 14.3305 335.615 14.8285 331.744 15.5978L332.043 15.0861V15.0844Z" fill="#2F2E41"/>
<path d="M331.442 29.5282C326.315 30.0817 322.612 34.5231 319.487 38.6243C317.685 40.9883 315.798 43.5988 315.843 46.5709C315.889 49.5754 317.897 52.1526 318.857 55.0001C319.606 57.3487 319.655 59.8643 318.998 62.2403C318.342 64.6162 317.009 66.75 315.161 68.3817C317.022 68.6616 318.92 68.2203 320.466 67.1477C322.013 66.0752 323.091 64.4526 323.481 62.6115C324.223 58.3014 320.955 54.1405 321.342 49.7834C321.683 45.9458 324.708 42.9908 327.279 40.121C329.85 37.2513 332.265 33.4426 331.083 29.7755L331.442 29.5273V29.5282Z" fill="#2F2E41"/>
</svg>
