<svg xmlns="http://www.w3.org/2000/svg" fill="#ffffff" width="px" height="65" viewBox="0 0 65 65"><path d="M34.441 37.719a.952.952 0 1 0 1.903 0c0-1.711-1.328-2.992-2.89-2.907v-.527a.951.951 0 0 0-.954-.95.951.951 0 0 0-.953.95v.528c-1.57-.106-2.895 1.218-2.89 2.906v1.3c-.012 1.665 1.32 3.028 2.89 2.907v3.304c-.54.067-.988-.34-.988-1a.952.952 0 1 0-1.903 0c0 1.665 1.32 3.024 2.89 2.903v.527a.952.952 0 1 0 1.907 0v-.527c1.555.086 2.899-1.203 2.89-2.903v-1.304c.005-1.711-1.331-2.992-2.89-2.906v-3.301c.524-.09.988.355.988 1zm-2.894 2.304c-.54.063-.988-.343-.988-1.003v-1.301c0-.63.464-1.098.988-1zm2.894 2.903v1.304c-.007.625-.457 1.102-.988 1v-3.304c.524-.09.988.36.988 1zm2.438-32.781A4.385 4.385 0 0 0 32.5 5.762a4.385 4.385 0 0 0-4.379 4.383 4.384 4.384 0 0 0 4.379 4.378 4.384 4.384 0 0 0 4.379-4.378zm-6.856 0A2.48 2.48 0 0 1 32.5 7.668a2.48 2.48 0 0 1 2.477 2.477 2.479 2.479 0 0 1-2.477 2.472 2.479 2.479 0 0 1-2.477-2.472zM32.5 30.063c-6.016 0-10.91 4.894-10.91 10.91 0 6.015 4.894 10.91 10.91 10.91s10.91-4.895 10.91-10.91c0-6.016-4.894-10.91-10.91-10.91zm0 19.917c-4.965 0-9.004-4.039-9.004-9.007 0-4.965 4.04-9.004 9.004-9.004 4.965 0 9.004 4.039 9.004 9.004 0 4.968-4.04 9.007-9.004 9.007zm28.23-25.402c2.204.137 4.29-1.465 4.27-3.808v-2.856c-.016-.273-.105-.621-.5-.84L34.809.614a4.737 4.737 0 0 0-4.618 0l-11.98 6.64a.959.959 0 0 0-.371 1.297.959.959 0 0 0 1.297.37l11.976-6.64a2.838 2.838 0 0 1 2.774 0l26.48 14.68H4.633l10.574-5.863a.953.953 0 0 0 .371-1.293.956.956 0 0 0-1.297-.371L.5 17.074c-.219.13-.504.403-.5.84v2.856c-.02 2.242 2.008 4.054 4.27 3.808l3.347 4.711v23.367L4.27 57.371H2.223A2.223 2.223 0 0 0 0 59.59v3.176c0 1.222.996 2.222 2.223 2.222h60.554c1.227 0 2.223-1 2.223-2.222V59.59a2.223 2.223 0 0 0-2.223-2.219H60.73l-3.347-4.715V29.29zM3.81 22.672a1.902 1.902 0 0 1-1.903-1.902v-1.907h61.188v1.907c0 1.05-.852 1.902-1.903 1.902zM48.78 41.793c.528 0 .953-.43.953-.953V29.937h5.743v22.07h-5.743v-6.726a.951.951 0 0 0-.953-.949.951.951 0 0 0-.953.95v7.374l-3.348 4.715H20.52l-3.348-4.715V29.29l3.348-4.71h23.96l3.348 4.71v11.55c0 .524.426.954.953.954zM6.605 24.578h11.579l-2.457 3.457H9.062zm8.66 5.36v22.07H9.524v-22.07zM9.063 53.913h6.665l2.457 3.457H6.605zm53.715 5.36c.176 0 .317.144.317.316v3.176c0 .175-.14.316-.317.316H2.223a.315.315 0 0 1-.317-.316V59.59c0-.172.14-.317.317-.317zm-4.382-1.903H46.816l2.457-3.457h6.664zm-2.458-29.336h-6.664l-2.457-3.457h11.579zm0 0"/></svg>