<svg xmlns="http://www.w3.org/2000/svg"fill="#ffffff" width="px" height="65" viewBox="0 0 65 65"><path d="M20.313 6.094h2.03v2.031h-2.03zm0 0M24.375 6.094H32.5v2.031h-8.125zm0 0"/><path d="M56.875 46.719a4.007 4.007 0 0 0-2.61.953 4.086 4.086 0 0 0-3.484-1.969 4.007 4.007 0 0 0-2.61.953 4.046 4.046 0 0 0-2.468-1.836V9.14a7.115 7.115 0 0 0-7.11-7.109H18.282a7.115 7.115 0 0 0-7.11 7.11v19.601A3.108 3.108 0 0 0 9.7 30.203L5.09 40.207a11.24 11.24 0 0 0-1.027 4.672v18.09h2.032v-18.09a9.136 9.136 0 0 1 .843-3.816l4.235-9.192v13.832c0 1.211.312 2.406.902 3.465a1.01 1.01 0 1 0 1.82.05l4.56-7.87a2.085 2.085 0 0 1 2.773-.743c.468.266.812.711.949 1.23.14.52.066 1.08-.207 1.544l-4.57 7.91c-.18.324-.176.715.007 1.035l2.176 3.606c.473.793.727 1.699.73 2.62v4.407h2.032v-4.406a7.274 7.274 0 0 0-1.016-3.668l-1.25-2.07h6.875a4.11 4.11 0 0 0 .406 3.085l4.38 7.579 1.757-1.016-4.379-7.578a2.033 2.033 0 0 1 1.742-3.121 2.04 2.04 0 0 1 1.774 1.09l2.031 3.515c.234.395.7.59 1.148.477.446-.117.754-.524.75-.985V36.562a2.032 2.032 0 0 1 4.063 0v16.25c0 .563.453 1.016 1.016 1.016.562 0 1.015-.453 1.015-1.016V48.75a2.032 2.032 0 0 1 4.063 0v4.063c0 .562.453 1.015 1.015 1.015.563 0 1.016-.453 1.016-1.016v-3.046a2.032 2.032 0 0 1 4.063 0v3.047c0 .562.453 1.015 1.015 1.015.563 0 1.016-.453 1.016-1.016v-2.03a2.032 2.032 0 0 1 4.062 0v12.187h2.032V50.78a4.064 4.064 0 0 0-4.063-4.062zM43.672 44.82c-.356.09-.7.23-1.016.414v-8.672a4.064 4.064 0 0 0-4.062-4.062 4.064 4.064 0 0 0-4.063 4.063V50.78h-1.035a4.071 4.071 0 0 0-4.652-.437c-.211.129-.414.273-.598.437H20.04l3.492-6.043a3.01 3.01 0 0 0 .39 2.758 3.017 3.017 0 0 0 2.485 1.254h4.063a3.046 3.046 0 0 0 3.047-3.047 3.046 3.046 0 0 0-3.047-3.047h-4.063a3.066 3.066 0 0 0-2.468 1.27 4.052 4.052 0 0 0-7.25-3.594l-3.454 5.969c-.02-.2-.03-.399-.03-.598V9.141a5.078 5.078 0 0 1 5.077-5.079h20.313a5.078 5.078 0 0 1 5.078 5.079zm-18.281.883c0-.562.453-1.016 1.015-1.016h4.063c.562 0 1.015.454 1.015 1.016 0 .563-.453 1.016-1.015 1.016h-4.063a1.014 1.014 0 0 1-1.015-1.016zm0 0"/><path d="M21.328 25.39c0 .563.453 1.016 1.016 1.016H34.53c.563 0 1.016-.453 1.016-1.015a5.085 5.085 0 0 0-4.063-4.977v-.492a4.01 4.01 0 0 0 1.016-2.656v-2.032a4.064 4.064 0 0 0-4.063-4.062 4.064 4.064 0 0 0-4.062 4.062v2.032c.004.98.363 1.925 1.016 2.66v.488a5.085 5.085 0 0 0-4.063 4.977zm6.094-4.206a3.664 3.664 0 0 0 2.031 0v.144c0 .563-.453 1.016-1.015 1.016a1.014 1.014 0 0 1-1.016-1.016zm1.015-1.887a2.034 2.034 0 0 1-1.886-1.293c.781-.211 1.547-.484 2.285-.82a16.11 16.11 0 0 1 1.633-.618v.7c0 1.12-.91 2.03-2.032 2.03zm4.907 5.078H23.53a3.066 3.066 0 0 1 2.082-1.918 3.042 3.042 0 0 0 2.825 1.918 3.042 3.042 0 0 0 2.824-1.918 3.066 3.066 0 0 1 2.082 1.918zm-4.907-11.172a2.034 2.034 0 0 1 1.887 1.293c-.781.211-1.547.484-2.285.82a16.11 16.11 0 0 1-1.633.618v-.7c0-1.12.91-2.03 2.032-2.03zm0 0M21.328 29.453H39.61v2.031H21.33zm0 0M17.266 33.516h14.218v2.03H17.266zm0 0M17.266 29.453h2.03v2.031h-2.03zm0 0"/></svg>