<svg xmlns="http://www.w3.org/2000/svg" fill="#ffffff" width="px" height="65" viewBox="0 0 65 65"><path d="M62.969 45.703a3.056 3.056 0 0 0-3.047-3.047H40.84a18.293 18.293 0 0 0 9.941-16.25 17.449 17.449 0 0 0-.265-2.957l11.914-6.304a1.02 1.02 0 0 0 .535-.93 1.03 1.03 0 0 0-.594-.89L32.918 2.12a1.007 1.007 0 0 0-.836 0L2.629 15.324a1.03 1.03 0 0 0-.594.89 1.02 1.02 0 0 0 .535.93l3.524 1.868V23.5a4.069 4.069 0 0 0-3.047 3.922v3.047c0 .562.453 1.015 1.015 1.015h6.094c.563 0 1.016-.453 1.016-1.015v-3.047A4.069 4.069 0 0 0 8.125 23.5v-3.41l6.36 3.36a17.449 17.449 0 0 0-.266 2.956 18.293 18.293 0 0 0 9.941 16.25H12.187c-5.609 0-10.156 4.547-10.156 10.157 0 5.609 4.547 10.156 10.156 10.156h47.735a3.046 3.046 0 0 0 3.047-3.047 3.046 3.046 0 0 0-3.047-3.047V48.75a3.056 3.056 0 0 0 3.047-3.047zM32.5 42.656a16.22 16.22 0 0 1-8.125-2.195v-8.559l3.645-3.648 1.89-.945c.422-.211.64-.688.527-1.145l-1.015-4.062a1.01 1.01 0 0 0-.742-.743l-4.063-1.015a.926.926 0 0 0-.484 0l-3.871.965-3.028-.426a16.302 16.302 0 0 1 4.196-6.34l3.351 2.52c.047.039.098.07.153.09l4.062 2.03c.094.051.192.087.293.102l6.094 1.016c.054.012.11.012.164.012.34 0 .656-.172.844-.458l1.836-2.753 2.722-.903c.149-.05.285-.133.399-.242l1.797-1.8c.882.769 1.68 1.628 2.375 2.57l-3.493 2.793c-.03.02-.062.05-.093.07l-2.895 2.906-4.883 1.95a.762.762 0 0 0-.183.1l-3.047 2.032a1.014 1.014 0 0 0-.446.68l-1.015 6.094c-.074.437.148.87.547 1.066l3.504 1.758v2.418c0 .562.453 1.015 1.015 1.015h4.063c.199 0 .394-.058.558-.172l2.68-1.777 1.89.465A16.145 16.145 0 0 1 32.5 42.656zm-9.457-29.433a16.159 16.159 0 0 1 18.477-.325l-1.442 1.454-2.824.933a.975.975 0 0 0-.52.406l-1.664 2.5-5.3-.886-3.84-1.918zm22.223 23.199l-3.383-.844a.972.972 0 0 0-.801.14l-2.793 1.86h-2.742v-2.031a.995.995 0 0 0-.559-.902l-3.39-1.7.82-4.925 2.59-1.727 4.976-1.988c.13-.055.246-.13.348-.223l3.004-3.008 3.3-2.652a16.144 16.144 0 0 1-1.37 18zm-36.125-9v2.031H5.078v-2.031a2.032 2.032 0 0 1 4.063 0zM5.363 16.32L32.5 4.164 59.637 16.32l-9.567 5.078A18.269 18.269 0 0 0 32.5 8.125a18.269 18.269 0 0 0-17.57 13.273zm17.274 14.442c-.184.195-.29.453-.293.722v7.586a16.201 16.201 0 0 1-6.094-12.664c0-1.195.137-2.39.406-3.554l3.516.496c.129-.008.254-.008.383-.02l3.82-.953 3.23.8.668 2.684-1.308.66a5.22 5.22 0 0 1-.266.18zm-8.418 15.957a6.092 6.092 0 0 0-6.094 6.093 6.092 6.092 0 0 0 6.094 6.094h45.703c.562 0 1.016.453 1.016 1.016 0 .562-.454 1.016-1.016 1.016H12.188a8.124 8.124 0 0 1-8.126-8.126 8.124 8.124 0 0 1 8.125-8.124h47.735c.562 0 1.016.453 1.016 1.015 0 .563-.454 1.016-1.016 1.016zM57.89 48.75v8.125H14.219a4.064 4.064 0 0 1-4.063-4.063 4.064 4.064 0 0 1 4.063-4.062zm0 0"/><path d="M14.219 50.781v2.032h30.468v3.046c-.003.375.208.72.54.895.328.18.726.16 1.035-.05l2.488-1.657 2.488 1.656a1.014 1.014 0 1 0 1.574-.844v-3.047h3.047v-2.03zm36.562 3.18l-1.472-.977a.989.989 0 0 0-1.118 0l-1.472.977v-1.148h4.062zm0 0"/></svg>