<svg xmlns="http://www.w3.org/2000/svg" fill="#ffffff" width="px" height="65" viewBox="0 0 65 65"><path d="M48.566 16.656l-9.332 3.735a1.015 1.015 0 1 0 .75 1.886l4.137-1.66 1.309 3.266-5.258 2.629c-.313.156-.524.46-.559.808l-.918 9.242h-9.242c-.562 0-1.015.454-1.015 1.016 0 .563.453 1.016 1.015 1.016h9.23l.63 6.922c.046.523.484.922 1.007.922h.094a1.01 1.01 0 0 0 .918-1.102l-.703-7.758.95-9.504 11.538-5.762a4.034 4.034 0 0 0 2.125-4.617L53.29 9.91a3.11 3.11 0 0 0-3.758-2.21 3.111 3.111 0 0 0-2.273 3.718zm1.446-7.039a1.08 1.08 0 0 1 1.308.785l1.946 7.786a2.018 2.018 0 0 1-1.063 2.308l-4.953 2.477-1.242-3.11 4.133-1.652c.472-.191.734-.7.609-1.191l-1.523-6.094c-.141-.578.21-1.164.785-1.309zm0 0"/><path d="M27.875 56.773c.48-.242.691-.816.48-1.308l-2.726-6.36 5.394-3.851 2.305 5.766a6.062 6.062 0 0 0 5.656 3.824h9.766a5.083 5.083 0 0 0 5.078 5.078c.563 0 1.016-.453 1.016-1.016V47.734c0-.562-.453-1.015-1.016-1.015h-3.047c-.199 0-.398.058-.562.172l-2.723 1.816-6.726-.96a1.011 1.011 0 0 0-1.149.858c-.082.555.305 1.07.86 1.149l6.581.941 1.06 2.117H38.98a4.041 4.041 0 0 1-3.77-2.554l-2.784-6.965a1.027 1.027 0 0 0-.66-.598 1.026 1.026 0 0 0-.875.149l-7.11 5.078a1.02 1.02 0 0 0-.343 1.226l2.671 6.23-2.422 1.212-4.289-6.13a4.043 4.043 0 0 1 .305-5.046l6.442-7.156c.19-.215.285-.504.253-.793l-1.015-9.14a1.011 1.011 0 0 0-.403-.7l-3.64-2.73V19.93l4.61 2.308c.144.07.296.106.456.106h2.032a4.064 4.064 0 0 0 4.062 4.062 4.064 4.064 0 0 0 4.063-4.062V20.78a6.069 6.069 0 0 0 2.03-4.531v-1.656a5.565 5.565 0 0 0 2.891-6.27 5.564 5.564 0 0 0-5.43-4.261h-1.406a16.818 16.818 0 0 1-7.77-1.915 1.017 1.017 0 0 0-1.383.445L24.364 4.86a6.832 6.832 0 0 0 2.043 8.559v2.832c0 1.5.559 2.95 1.563 4.063h-1.32l-5.829-2.915a1.017 1.017 0 1 0-1.512 1.043v5.122l-4.913-3.07a7.148 7.148 0 0 1-2.329-2.372l-3.82-6.375a1.266 1.266 0 0 1 2.16-1.32l3.98 6.367c.114.184.282.324.485.406l1.828.73c.34.145.73.098 1.024-.128a1.01 1.01 0 0 0 .382-.957 1.012 1.012 0 0 0-.652-.801l-1.52-.61-3.804-6.09a3.3 3.3 0 0 0-4.54-1.09A3.305 3.305 0 0 0 6.5 12.798l3.82 6.367a9.183 9.183 0 0 0 2.992 3.047l6.36 3.977.027.019 3.711 2.781.914 8.25-6.137 6.817a6.067 6.067 0 0 0-.46 7.57l3.726 5.328a5.085 5.085 0 0 0-4.187 5c0 .563.453 1.016 1.015 1.016h11.172c.563 0 1.016-.453 1.016-1.016v-3.047c0-.562-.453-1.015-1.016-1.015-.562 0-1.015.453-1.015 1.015v2.032h-8.97a3.059 3.059 0 0 1 2.876-2.032h1.015c.157-.004.313-.043.45-.113zm6.656-34.43a2.032 2.032 0 0 1-4.062 0v-.355a5.997 5.997 0 0 0 4.062 0zm2.032-6.093a4.064 4.064 0 0 1-4.063 4.063 4.064 4.064 0 0 1-4.063-4.063v-4.535l2.047-1.363a13.046 13.046 0 0 0 6.078 1.82zM25.765 8.879a4.833 4.833 0 0 1 .418-3.11l.68-1.367a18.845 18.845 0 0 0 7.784 1.692h1.407a3.553 3.553 0 0 1 3.554 3.554 3.529 3.529 0 0 1-1.015 2.465v-.941c0-.563-.453-1.016-1.016-1.016h-.406a11.031 11.031 0 0 1-6.145-1.86c-.34-.23-.785-.23-1.129 0l-3.046 2.032a.99.99 0 0 0-.32.352 4.817 4.817 0 0 1-.766-1.801zm23.277 41.234l2.043-1.363h1.727v8.969a3.059 3.059 0 0 1-2.032-2.875v-1.016a.998.998 0 0 0-.117-.45zm0 0"/><path d="M15.234 28.438H7.11c-.562 0-1.015.453-1.015 1.015v5.266a2.998 2.998 0 0 0-1.016-.188 3.046 3.046 0 0 0-3.047 3.047 3.046 3.046 0 0 0 3.047 3.047 3.046 3.046 0 0 0 3.047-3.047v-3.047h6.094v3.235a2.998 2.998 0 0 0-1.016-.188 3.046 3.046 0 0 0-3.047 3.047 3.046 3.046 0 0 0 3.047 3.047 3.046 3.046 0 0 0 3.047-3.047V29.453c0-.562-.453-1.015-1.016-1.015zM5.078 38.593a1.014 1.014 0 0 1-1.016-1.016c0-.562.454-1.016 1.016-1.016.563 0 1.016.454 1.016 1.016 0 .563-.453 1.016-1.016 1.016zm3.047-8.125h6.094V32.5H8.125zm5.078 11.172a1.014 1.014 0 0 1-1.015-1.016c0-.563.453-1.016 1.015-1.016.563 0 1.016.453 1.016 1.016s-.453 1.016-1.016 1.016zm0 0M60.902 26.887l-5.28 3.047a3.038 3.038 0 0 0-1.423 1.851 3.03 3.03 0 0 0 .305 2.313l1.016 1.761 1.62 2.797a3.031 3.031 0 0 0-2.453 2.614 3.037 3.037 0 1 0 5.64-1.152l-2.538-4.4 2.64-1.523a5.085 5.085 0 0 0 1.86-6.937 1.019 1.019 0 0 0-1.387-.371zm-2.23 15.015a1.016 1.016 0 0 1-1.988-.129 1.017 1.017 0 0 1 1.886-.64c.137.234.172.512.102.77zm.742-9.465l-2.64 1.524-.508-.879a1.014 1.014 0 0 1 .37-1.387l4.247-2.453a3.044 3.044 0 0 1-1.469 3.195zm0 0M16.73 9.098h1.016v1.015a1.016 1.016 0 0 0 2.031 0V9.098h1.016a1.016 1.016 0 0 0 0-2.032h-1.016V6.051a1.016 1.016 0 0 0-2.031 0v1.015H16.73a1.016 1.016 0 0 0 0 2.032zm0 0M8.125 49.766H7.109V48.75c0-.563-.453-1.016-1.015-1.016-.563 0-1.016.453-1.016 1.016v1.016H4.062c-.562 0-1.015.453-1.015 1.015 0 .563.453 1.016 1.015 1.016h1.016v1.016c0 .562.453 1.015 1.016 1.015.562 0 1.015-.453 1.015-1.016v-1.015h1.016c.563 0 1.016-.453 1.016-1.016 0-.562-.454-1.015-1.016-1.015zm0 0M46.719 42.656c.562 0 1.015-.453 1.015-1.015v-1.016h1.016c.563 0 1.016-.453 1.016-1.016 0-.562-.453-1.015-1.016-1.015h-1.016v-1.016c0-.562-.453-1.016-1.015-1.016-.563 0-1.016.454-1.016 1.016v1.016h-1.016c-.562 0-1.015.453-1.015 1.015 0 .563.453 1.016 1.016 1.016h1.015v1.016c0 .562.453 1.015 1.016 1.015zm0 0M59.922 15.234a3.046 3.046 0 0 0 3.047-3.046 3.046 3.046 0 0 0-3.047-3.047 3.046 3.046 0 0 0-3.047 3.046 3.046 3.046 0 0 0 3.047 3.047zm0-4.062c.562 0 1.016.453 1.016 1.015 0 .563-.454 1.016-1.016 1.016a1.014 1.014 0 0 1-1.016-1.015c0-.563.453-1.016 1.016-1.016zm0 0M5.078 3.047c0 .562-.453 1.015-1.016 1.015a1.014 1.014 0 0 1-1.015-1.015c0-.563.453-1.016 1.015-1.016.563 0 1.016.453 1.016 1.016zm0 0M6.574 19.254a1.016 1.016 0 1 1-2.032-.001 1.016 1.016 0 0 1 2.032 0zm0 0M50.781 30.813c0 .562-.453 1.015-1.015 1.015a1.016 1.016 0 1 1 1.016-1.016zm0 0M50.781 4.063c0 .562-.453 1.015-1.015 1.015a1.014 1.014 0 0 1-1.016-1.016c0-.562.453-1.015 1.016-1.015.562 0 1.015.453 1.015 1.015zm0 0"/></svg>