<svg xmlns="http://www.w3.org/2000/svg" fill="#ffffff" width="px" height="65" viewBox="0 0 65 65"><path d="M39.61 52.813h8.124v2.03H39.61zm0 0"/><path d="M60.938 34.531H57.89V16.25a4.064 4.064 0 0 0-4.063-4.063H33.516c-.043 0-.086.012-.13.012-.722-4.601-4.702-8.136-9.503-8.136-2.485 0-4.82.933-6.617 2.632a9.567 9.567 0 0 0-6.618-2.633c-5.312 0-9.632 4.32-9.632 9.633 0 5.75 2.82 11.133 7.546 14.407l4.422 3.062a7.495 7.495 0 0 0 4.282 1.336c1.535 0 3.015-.46 4.28-1.336l4.423-3.062c1.308-.907 2.468-2.008 3.484-3.227v7.809a7.098 7.098 0 0 0-1.57-.184 7.32 7.32 0 0 0-3.25.766l-6.445 3.222-11.079-3.32V53.16l11.11-3.332 1.172.504a30.515 30.515 0 0 0 10.062 2.406v2.106a4.064 4.064 0 0 0 4.063 4.062h20.312a4.064 4.064 0 0 0 4.063-4.062v-2.219a3.037 3.037 0 0 0 2.03-2.86 3.02 3.02 0 0 0-.792-2.03 3.02 3.02 0 0 0 .793-2.032 3.02 3.02 0 0 0-.793-2.031 3.02 3.02 0 0 0 .793-2.031c0-.36-.074-.696-.188-1.016h1.203a3.05 3.05 0 0 0 3.047-3.047 3.05 3.05 0 0 0-3.047-3.047zM39.608 14.22h6.094v2.031H39.61zm-2.03 0v2.031c0 1.121.91 2.031 2.03 2.031h6.094c1.121 0 2.031-.91 2.031-2.031v-2.031h6.094c1.121 0 2.031.91 2.031 2.031v4.063H31.484V16.25c0-1.121.91-2.031 2.032-2.031zm-12.767 12.21l-4.421 3.063c-1.844 1.278-4.403 1.278-6.246 0L9.719 26.43a15.493 15.493 0 0 1-6.672-12.735c0-4.191 3.41-7.601 7.601-7.601 2.032 0 3.942.793 5.375 2.226l1.243 1.242 1.242-1.242a7.555 7.555 0 0 1 5.375-2.226c3.883 0 7.09 2.93 7.543 6.691a4.05 4.05 0 0 0-1.973 3.465v2.031h-5.328l-2.656-9.293-5.207 13.543-1.86-4.965A2.042 2.042 0 0 0 12.5 16.25h-1.516a3.037 3.037 0 0 0-2.859-2.031 3.05 3.05 0 0 0-3.047 3.047 3.05 3.05 0 0 0 3.047 3.047 3.037 3.037 0 0 0 2.86-2.032H12.5l3.738 9.969 4.95-12.863.984 3.449a2.037 2.037 0 0 0 1.953 1.477h5.328v1.003a15.523 15.523 0 0 1-4.64 5.114zM9.142 17.267a1.016 1.016 0 1 1-2.033-.001 1.016 1.016 0 0 1 2.033 0zm22.343 5.078H55.86v16.25h-1.015a3.05 3.05 0 0 0-3.047 3.047c0 .78.305 1.492.793 2.03a3.02 3.02 0 0 0-.793 2.032c0 .781.305 1.492.793 2.031a2.978 2.978 0 0 0-.606 1.016h-20.5v-4.754a3.869 3.869 0 0 0 2.207.691 3.894 3.894 0 0 0 3.887-3.886c0-.887-.308-1.715-.851-2.399.261.121.546.192.851.192h2.031v2.031c0 1.121.91 2.031 2.032 2.031h4.062c1.121 0 2.031-.91 2.031-2.031v-2.031h2.032c1.12 0 2.03-.91 2.03-2.032V32.5c0-1.121-.91-2.031-2.03-2.031h-2.032v-2.032c0-1.12-.91-2.03-2.03-2.03H41.64c-1.121 0-2.032.91-2.032 2.03v2.032h-2.03c-1.122 0-2.032.91-2.032 2.031v4.063c0 .261.055.511.144.738l-2.675-2.672a7.126 7.126 0 0 0-1.532-1.16zm26.407 23.36c0 .562-.453 1.015-1.016 1.015h-2.031a1.014 1.014 0 0 1-1.016-1.016c0-.562.453-1.016 1.016-1.016h2.031c.563 0 1.016.454 1.016 1.016zM49.766 32.5v4.063h-4.063v4.062h-4.062v-4.063h-4.063V32.5h4.063v-4.063h4.062V32.5zM9.14 35.895l8.125 2.437v9.664L9.14 50.434zm11.05 12.57l-.894-.383v-9.875l6.242-3.125c1.961-.977 4.496-.562 6.04.98l3.425 3.426a1.857 1.857 0 0 1-2.625 2.625l-2.629-2.625a3.013 3.013 0 0 0-2.152-.894H25.39v2.031h2.207c.265 0 .527.11.718.297l1.137 1.14v8.645a28.572 28.572 0 0 1-9.262-2.242zm33.637 8.41H33.516a2.032 2.032 0 0 1-2.032-2.031V50.78h20.5a3.037 3.037 0 0 0 2.86 2.032h1.015v2.03c0 1.122-.91 2.032-2.03 2.032zm3.047-6.094h-2.031a1.014 1.014 0 0 1-1.016-1.015c0-.563.453-1.016 1.016-1.016h2.031c.563 0 1.016.453 1.016 1.016 0 .562-.453 1.015-1.016 1.015zm1.016-9.14c0 .562-.453 1.015-1.016 1.015h-2.031a1.014 1.014 0 0 1-1.016-1.015c0-.563.453-1.016 1.016-1.016h2.031c.563 0 1.016.453 1.016 1.016zm3.047-3.047H57.89v-2.032h3.047c.562 0 1.015.454 1.015 1.016 0 .563-.453 1.016-1.016 1.016zm0 0"/></svg>