<svg xmlns="http://www.w3.org/2000/svg" fill="#ffffff" width="px" height="65" viewBox="0 0 65 65"><path d="M10.156 55.86h10.156c.563 0 1.016-.454 1.016-1.016v-16.25c0-.563-.453-1.016-1.015-1.016H10.155c-.562 0-1.015.453-1.015 1.016v16.25c0 .562.453 1.015 1.015 1.015zm1.016-2.032v-4.062h8.125v4.062zm0-6.094v-2.03h8.125v2.03zm8.125-8.125v4.063h-8.125v-4.063zm0 0"/><path d="M63.57 33.71L44.488 19.72a13.085 13.085 0 0 0 1.215-5.5c0-7.281-5.922-13.203-13.203-13.203S19.297 6.937 19.297 14.219c0 1.965.441 3.824 1.215 5.5L1.43 33.71c-.352.262-.5.719-.364 1.137.137.418.524.699.965.699h3.047V57.89H4.062c-.562 0-1.015.453-1.015 1.015v4.063c0 .562.453 1.015 1.015 1.015h56.876c.562 0 1.015-.453 1.015-1.015v-4.063c0-.562-.453-1.015-1.016-1.015h-1.015V35.547h3.047c.441 0 .828-.281.965-.7a1.022 1.022 0 0 0-.364-1.136zM32.5 3.048c6.16 0 11.172 5.012 11.172 11.172 0 6.16-5.012 11.172-11.172 11.172-6.16 0-11.172-5.012-11.172-11.172 0-6.16 5.012-11.172 11.172-11.172zM21.504 21.512c2.367 3.558 6.41 5.91 10.996 5.91s8.629-2.352 10.996-5.91l16.371 12.004H5.133zm38.418 40.441H5.078v-2.031h54.844zm-22.344-4.062H27.422V43.67h10.156zm20.313 0H39.609V42.656c0-.562-.453-1.015-1.015-1.015H26.406c-.562 0-1.015.453-1.015 1.015v15.235H7.109V35.547h50.782zm0 0"/><path d="M44.688 55.86h10.156c.562 0 1.015-.454 1.015-1.016v-16.25c0-.563-.453-1.016-1.015-1.016H44.687c-.562 0-1.015.453-1.015 1.016v16.25c0 .562.453 1.015 1.016 1.015zm1.015-2.032v-4.062h8.125v4.062zm0-6.094v-2.03h8.125v2.03zm8.125-8.125v4.063h-8.125v-4.063zm0 0M29.453 49.766h2.031v4.062h-2.03zm0 0M32.5 19.297a2.032 2.032 0 0 1-2.031-2.031h-2.032c0 1.886 1.301 3.464 3.047 3.918v2.175h2.032v-2.175c1.746-.454 3.047-2.032 3.047-3.918a4.064 4.064 0 0 0-4.063-4.063 2.032 2.032 0 0 1 0-4.062c1.121 0 2.031.91 2.031 2.03h2.032c0-1.886-1.301-3.464-3.047-3.917V5.078h-2.032v2.176c-1.746.453-3.047 2.031-3.047 3.918a4.064 4.064 0 0 0 4.063 4.062 2.032 2.032 0 0 1 0 4.063zm0 0M7.11 16.25a3.05 3.05 0 0 1 3.046-3.047h3.64l-2.327 2.328 1.437 1.438 4.063-4.063a1.02 1.02 0 0 0 0-1.437l-4.063-4.063-1.437 1.438 2.328 2.328h-3.64a5.083 5.083 0 0 0-5.079 5.078v8.125H7.11zm0 0M52.094 16.969l1.437-1.438-2.328-2.328h3.64a3.05 3.05 0 0 1 3.048 3.047v8.125h2.03V16.25c0-2.8-2.276-5.078-5.077-5.078h-3.64l2.327-2.328-1.437-1.438-4.063 4.063a1.02 1.02 0 0 0 0 1.437zm0 0"/></svg>