<svg xmlns="http://www.w3.org/2000/svg" fill="#ffffff" width="px" height="65" viewBox="0 0 65 65"><path d="M46.719 29.453A17.208 17.208 0 0 0 34.53 34.5V6.094a5.083 5.083 0 0 0-5.078-5.078H6.093a5.083 5.083 0 0 0-5.077 5.078v43.672a5.083 5.083 0 0 0 5.078 5.078h23.36a5.058 5.058 0 0 0 1.858-.371c3.825 7.59 12.606 11.27 20.7 8.668 8.09-2.602 13.082-10.711 11.761-19.11-1.316-8.394-8.554-14.582-17.054-14.578zM29.504 47.734H3.047V8.125H32.5v28.82a17.162 17.162 0 0 0-3.047 9.774c0 .343.031.676.05 1.015zM6.094 3.047h23.36A3.046 3.046 0 0 1 32.5 6.094H3.047a3.046 3.046 0 0 1 3.047-3.047zm23.36 49.766H6.093a3.046 3.046 0 0 1-3.047-3.047h26.691a17 17 0 0 0 .774 2.843c-.34.133-.696.2-1.059.203zm17.265 9.14c-8.414 0-15.235-6.82-15.235-15.234s6.82-15.235 15.235-15.235c8.414 0 15.234 6.82 15.234 15.235-.008 8.41-6.824 15.226-15.234 15.234zm0 0"/><path d="M40.512 40.625l-.977-2.414a1.016 1.016 0 0 0-.941-.633h-3.047v2.031h2.363l5.34 13.2a3.053 3.053 0 0 0 2.875 2.035h7.703v-2.032h-7.703a1.032 1.032 0 0 1-.973-.718l-.12-.297h8.796c.438 0 .824-.281.965-.695l3.047-9.141a1.018 1.018 0 0 0-.965-1.336zm12.586 9.14H44.21l-2.879-7.109h14.133zm0 0M45.703 55.86c.563 0 1.016.453 1.016 1.015 0 .563-.453 1.016-1.016 1.016a1.014 1.014 0 0 1-1.016-1.016c0-.563.454-1.016 1.016-1.016zm0 0M52.813 55.86c.562 0 1.015.453 1.015 1.015 0 .563-.453 1.016-1.016 1.016a1.014 1.014 0 0 1-1.015-1.016c0-.563.453-1.016 1.016-1.016zm0 0M30.363 20.54l-1.11-4.75a2.02 2.02 0 0 0-1.976-1.571H8.574a2.02 2.02 0 0 0-1.976 1.57L5.5 20.492a2.978 2.978 0 0 0 1.254 3.36v14.742c0 .562.453 1.015 1.016 1.015h20.312c.563 0 1.016-.453 1.016-1.015V23.852c.289-.188.547-.418.757-.688.57-.746.758-1.719.508-2.625zm-1.965.51a1.014 1.014 0 0 1-.977 1.293h-2.503l-.762-6.093h3.121zm-15.414 1.294l.762-6.094h3.164v6.094zm5.957-6.094h3.168l.762 6.094h-3.93zM7.47 21l1.105-4.75H11.7l-.761 6.094H8.43c-.317 0-.617-.149-.809-.403A1.041 1.041 0 0 1 7.47 21zm13.504 16.578h-6.094V32.5h6.094zm2.03 0v-6.094c0-.562-.452-1.015-1.015-1.015h-8.125c-.562 0-1.015.453-1.015 1.015v6.094H8.785V24.375h18.281v13.203zm0 0"/></svg>