<svg xmlns="http://www.w3.org/2000/svg" fill="#ffffff" width="px" height="65" viewBox="0 0 65 65"><path d="M37.578 54.844h-2.031V44.89c0-.563-.453-1.016-1.016-1.016-.562 0-1.015.453-1.015 1.016v9.953H7.109V34.53h8.45c.562 0 1.015-.453 1.015-1.015 0-.563-.453-1.016-1.015-1.016H6.094c-.563 0-1.016.453-1.016 1.016v21.328H3.047c-.563 0-1.016.453-1.016 1.015v2.032a5.078 5.078 0 0 0 5.078 5.078h26.407a5.078 5.078 0 0 0 5.078-5.078v-2.032c0-.562-.453-1.015-1.016-1.015zm-1.016 3.047a3.046 3.046 0 0 1-3.046 3.047h-2.032v-1.016c0-.563-.453-1.016-1.015-1.016-.563 0-1.016.453-1.016 1.016v1.016H11.172v-1.016c0-.563-.453-1.016-1.016-1.016-.562 0-1.015.453-1.015 1.016v1.016H7.109a3.046 3.046 0 0 1-3.046-3.047v-1.016h32.5zm0 0M54.844 8.125h2.031c.563 0 1.016-.453 1.016-1.016 0-.562-.453-1.015-1.016-1.015h-2.031a3.046 3.046 0 0 0-3.047 3.047v1.015H50.78c-.562 0-1.015.453-1.015 1.016 0 .562.453 1.015 1.015 1.015h1.016v3.047c0 .563.453 1.016 1.016 1.016.562 0 1.015-.453 1.015-1.016v-3.046h1.016c.562 0 1.015-.454 1.015-1.016 0-.563-.453-1.016-1.015-1.016h-1.016V9.141c0-.563.453-1.016 1.016-1.016zm0 0"/><path d="M59.922 2.031H47.734a3.046 3.046 0 0 0-3.047 3.047V7.11c0 .563.454 1.016 1.016 1.016.563 0 1.016-.453 1.016-1.016V5.08c0-.563.453-1.016 1.015-1.016h12.188c.562 0 1.016.453 1.016 1.015v12.188c0 .562-.454 1.015-1.016 1.015H47.734a1.014 1.014 0 0 1-1.015-1.015v-6.094c0-.563-.453-1.016-1.016-1.016-.562 0-1.016.453-1.016 1.016v6.094a3.046 3.046 0 0 0 3.047 3.047h12.188a3.046 3.046 0 0 0 3.047-3.047V5.078a3.046 3.046 0 0 0-3.047-3.047zm0 0M49.766 42.656a4.064 4.064 0 0 0 4.062 4.063 4.064 4.064 0 0 0 4.063-4.063 4.064 4.064 0 0 0-4.063-4.062 4.064 4.064 0 0 0-4.062 4.062zm6.093 0a2.032 2.032 0 0 1-4.062 0 2.032 2.032 0 0 1 4.062 0zm0 0"/><path d="M59.922 33.516H47.734a3.046 3.046 0 0 0-3.047 3.047V48.75a3.046 3.046 0 0 0 3.047 3.047h12.188a3.046 3.046 0 0 0 3.047-3.047v-2.031c0-.563-.453-1.016-1.016-1.016-.562 0-1.016.453-1.016 1.016v2.031c0 .563-.453 1.016-1.015 1.016H47.734a1.014 1.014 0 0 1-1.015-1.016V36.562c0-.562.453-1.015 1.015-1.015h12.188c.562 0 1.016.453 1.016 1.016v6.093c0 .563.453 1.016 1.015 1.016.563 0 1.016-.453 1.016-1.016v-6.093a3.046 3.046 0 0 0-3.047-3.047zm0 0M24.852 14.066a1.014 1.014 0 0 0 .996.04l6.093-3.047c.34-.172.551-.52.551-.903s-.21-.73-.55-.902l-6.094-3.047a1.013 1.013 0 0 0-1.473.902v6.094c0 .352.18.676.477.863zm1.554-5.312l2.805 1.402-2.805 1.403zm0 0"/><path d="M27.422 19.297c5.047 0 9.14-4.094 9.14-9.14 0-5.048-4.093-9.141-9.14-9.141-5.047 0-9.14 4.093-9.14 9.14 0 5.047 4.093 9.14 9.14 9.14zm0-16.25a7.11 7.11 0 1 1-.002 14.22 7.11 7.11 0 0 1 .002-14.22zm0 0M37.578 23.36c.32 0 .621-.153.813-.407l3.047-4.062a1.016 1.016 0 1 0-1.626-1.22l-3.046 4.063a1.016 1.016 0 0 0 .812 1.625zm0 0M39.813 27.016a1.02 1.02 0 0 0 1.421.203l4.063-3.047a1.016 1.016 0 1 0-1.219-1.625l-4.062 3.047c-.45.336-.54.972-.203 1.422zm0 0M49.766 29.25a1 1 0 0 0-.438-.664 1.006 1.006 0 0 0-.781-.148l-5.078 1.015a1.019 1.019 0 0 0-.914 1.117c.054.563.554.97 1.117.914h.203l5.078-1.015a1 1 0 0 0 .664-.438c.156-.23.207-.511.149-.781zm0 0M3.047 29.453h12.187c.563 0 1.016-.453 1.016-1.015v-16.25c0-.563-.453-1.016-1.016-1.016H3.047c-.563 0-1.016.453-1.016 1.015v16.25c0 .563.453 1.016 1.016 1.016zm1.015-16.25H14.22v14.219H4.063zm0 0"/><path d="M11.172 15.234H9.14c-.563 0-1.016.454-1.016 1.016 0 .563.453 1.016 1.016 1.016h2.03c.563 0 1.017-.453 1.017-1.016s-.454-1.016-1.016-1.016zm0 0M11.172 19.297H7.109c-.562 0-1.015.453-1.015 1.015 0 .563.453 1.016 1.015 1.016h4.063c.562 0 1.015-.453 1.015-1.015 0-.563-.453-1.016-1.015-1.016zm0 0M11.172 23.36H7.109c-.562 0-1.015.453-1.015 1.015 0 .563.453 1.016 1.015 1.016h4.063c.562 0 1.015-.453 1.015-1.016s-.453-1.016-1.015-1.016zm0 0M36.684 29.148a1.017 1.017 0 0 0-1.391-.375 1.017 1.017 0 0 0-.375 1.391l4.477 7.75-16.25 6.094H22.992l-2.64 1.523-1.754 1.016a2.038 2.038 0 0 1-1.547.203 2.04 2.04 0 0 1-1.227-.945l-2.031-3.516a2.028 2.028 0 0 1 .762-2.68l3.511-2.03 2.54 4.398c.183.316.519.507.886.507.363 0 .7-.191.883-.507.18-.313.18-.704 0-1.016l-2.621-4.531L32.5 25.918l.418.723c.277.488.902.656 1.39.375.489-.282.657-.903.376-1.391l-1.016-1.758a1.026 1.026 0 0 0-1.535-.273L17.914 35.312l-4.324 2.5a4.063 4.063 0 0 0-1.871 4.602l-1.016.578a3.048 3.048 0 1 0 1.523 5.688 3.14 3.14 0 0 0 1.524-.407l1.016-.578a3.94 3.94 0 0 0 2.843 1.196 3.981 3.981 0 0 0 2.032-.547l.886-.508 2.032 3.523a3.044 3.044 0 0 0 4.152 1.118c.7-.403 1.21-1.07 1.422-1.852a3.032 3.032 0 0 0-.305-2.313l-1.848-3.218 15.235-5.719a1.024 1.024 0 0 0 .527-1.453zM12.695 46.504a1.01 1.01 0 0 1-.773.101 1.014 1.014 0 0 1-.617-.464 1.01 1.01 0 0 1-.102-.774 1.01 1.01 0 0 1 .477-.617l.883-.508 1.015 1.754zm13.367 2.844c.133.234.172.511.102.773a1.026 1.026 0 0 1-.48.61 1.013 1.013 0 0 1-1.38-.368l-2.03-3.523 1.683-.965h.082zm0 0"/></svg>