<svg xmlns="http://www.w3.org/2000/svg" fill="#ffffff" width="px" height="65" viewBox="0 0 65 65"><path d="M62.063 6.066a2.168 2.168 0 0 0-1.532-.636c-.574 0-1.125.23-1.531.636l-9.406 9.493-1.668-.836a2.165 2.165 0 0 0-2.426.355V6.5a2.168 2.168 0 0 0-2.168-2.168V2.168c0-1.2-.969-2.168-2.164-2.168h-19.5c-1.2 0-2.168.969-2.168 2.168v2.164A2.17 2.17 0 0 0 17.332 6.5v9.207a9.85 9.85 0 0 0-7.582-3.789A10.009 10.009 0 0 0 0 21.668a10.011 10.011 0 0 0 9.75 9.75 9.841 9.841 0 0 0 7.582-3.793v15.523L6.066 54.383a2.172 2.172 0 0 0 0 3.035l6.989 6.91a2.168 2.168 0 0 0 3.066 0l1.211-1.215A2.173 2.173 0 0 0 19.5 65h2.168a2.165 2.165 0 0 0 2.164-2.168v-6.195l4.336-4.332v10.527c0 1.2.969 2.168 2.164 2.168H32.5a2.168 2.168 0 0 0 2.168-2.168V45.805L39 41.469v21.363c0 1.2.969 2.168 2.168 2.168h2.164c1.2 0 2.168-.969 2.168-2.168V34.969l9.89-9.88c.66-.66.82-1.667.403-2.503l-.836-1.668 9.402-9.402c.84-.844.84-2.211 0-3.055zM43.331 62.832h-2.164V39.305l2.164-2.168zm-13-32.648V6.5H32.5v21.527zm4.336-22.602H39v13.953l-4.332 4.336zM43.332 6.5v10.715l-2.164 2.164V6.5zm-2.164-2.168a2.17 2.17 0 0 0-1.863 1.086h-4.942A2.17 2.17 0 0 0 32.5 4.332V2.168h8.668zm-19.5-2.164h8.664v2.164a2.175 2.175 0 0 0-1.863 1.086H23.53a2.175 2.175 0 0 0-1.863-1.086zm0 4.332v32.328L19.5 40.992V6.5zM3.738 26.152a7.68 7.68 0 0 1-.89-1.465l9.925-9.921c.52.242 1.008.539 1.461.886zm12.024-8.968c.347.449.644.937.89 1.449l-9.937 9.933c-.512-.242-1-.539-1.45-.886zm-5.407-3.102l-8.187 8.191a7.704 7.704 0 0 1 2.242-5.945 7.707 7.707 0 0 1 5.945-2.246zM9.133 29.25l8.199-8.2a7.715 7.715 0 0 1-8.2 8.2zM23.832 7.582h4.336v24.754l-4.336 4.336zm-2.164 55.25H19.5v-1.863l2.168-2.164zm10.832 0h-2.168V50.137l2.168-2.168zm-17.918 0c-.066-.105.922.91-6.988-6.91 24.082-24.027-35.598 35.5 39.367-39.262l2.168 1.086 3.574 3.574 1.086 2.168C13.121 64.297 14.691 62.832 14.582 62.832zm39.066-43.656l-2.308-2.309 9.187-9.285 2.305 2.395zm0 0"/></svg>