<svg xmlns="http://www.w3.org/2000/svg" fill="#ffffff" width="px" height="65" viewBox="0 0 65 65"><path d="M63.422 41.031a1.263 1.263 0 0 0-1.508.977c-1.508 7.066-6.227 13.289-12.621 16.66l-4.852-4.855a2.24 2.24 0 0 1-.66-1.594v-3.82c0-.602.235-1.169.66-1.594l7.16-7.16a7.762 7.762 0 0 0 2.29-5.528v-4.855c0-2.684-2.239-4.922-4.922-4.922a1.621 1.621 0 0 1-1.621-1.617V21.19c0-.894.726-1.62 1.62-1.62h6.454c3.183 3.261 5.457 7.413 6.445 11.866a1.272 1.272 0 0 0 1.516.965c.625-.14 1.101-.89.965-1.515-2.645-11.871-13.246-20.73-25.399-21.266.438-.98.656-2.059.621-3.152l-.074-2.25a3.323 3.323 0 0 0-3.207-3.203L34.043.94a7.182 7.182 0 0 0-5.465 2.247l-.023.023-3.95 4.394L8.996 1.961c-.46-.168-.98-.05-1.328.297L4.582 5.344a1.27 1.27 0 0 0 .172 1.941l12.39 8.617-7.066 7.864a2.286 2.286 0 0 1-2.101.726l-3.11-.535c-.406-.07-.82.063-1.113.355L.37 27.695a1.26 1.26 0 0 0-.344 1.16c.09.422.387.766.785.922l7.165 2.758 2.687 6.985c1.348 13.726 13.332 24.542 27.102 24.542 12.699 0 23.988-9.132 26.632-21.523a1.266 1.266 0 0 0-.976-1.508zM30.84 17.761l4.578 13.368-1.441 1.441-7.438-10.945zM7.45 6.067l1.44-1.445 13.883 5.02L18.855 14zm1.964 24.301L3.547 28.11l1.539-1.539 2.457.426a4.81 4.81 0 0 0 4.422-1.535L30.434 4.92a4.656 4.656 0 0 1 3.523-1.444l2.25.074a.78.78 0 0 1 .75.754l.074 2.246a4.67 4.67 0 0 1-1.445 3.527l-20.54 18.465a4.865 4.865 0 0 0-1.534 4.422l.425 2.46-1.539 1.536-2.257-5.863a1.274 1.274 0 0 0-.727-.73zm18.941 22.887v6.41c-5.261-2.168-9.773-6.227-12.418-11.277l3.083-3.078a.678.678 0 0 1 .492-.204h6.879c.867 0 1.68-.335 2.289-.949l1.23-1.23a.708.708 0 0 1 .985 0l2.73 2.73c.273.328.273.657 0 .985l-4.324 4.324a3.214 3.214 0 0 0-.946 2.289zm2.54 7.297v-7.297c0-.188.07-.363.203-.496l4.32-4.32c1.227-1.223 1.207-3.372.004-4.579l-2.73-2.726c-1.247-1.25-3.329-1.25-4.579 0l-1.226 1.226a.698.698 0 0 1-.496.207h-6.88c-.866 0-1.679.336-2.288.946l-2.418 2.418a24.557 24.557 0 0 1-1.567-6.215l2.961-2.961c.29-.293.422-.707.352-1.113l-.535-3.106a2.318 2.318 0 0 1 .73-2.105l7.887-7.09 8.105 11.926a1.284 1.284 0 0 0 1.95.183l3.085-3.086c.34-.343.461-.851.301-1.308l-5.183-15.14 4.195-3.77c.223-.008.45-.012.68-.012a24.747 24.747 0 0 1 14.757 4.898H48.97a4.164 4.164 0 0 0-4.16 4.16v1.532a4.163 4.163 0 0 0 4.16 4.156c1.3 0 2.383 1.086 2.383 2.383v4.855c0 1.41-.547 2.735-1.543 3.73l-7.16 7.16a4.763 4.763 0 0 0-1.407 3.391v3.82c0 1.282.5 2.485 1.406 3.391l4.184 4.188a24.768 24.768 0 0 1-9.066 1.726c-2.352 0-4.66-.332-6.871-.972zm0 0"/><path d="M64.977 36.582a1.283 1.283 0 0 0-1.493-.996 1.28 1.28 0 0 0-1 1.492 1.283 1.283 0 0 0 1.493.996 1.284 1.284 0 0 0 1-1.492zm0 0"/></svg>